<?xml version="1.0" encoding="utf-8"?>
<!-- Generator: Adobe Illustrator 25.2.1, SVG Export Plug-In . SVG Version: 6.00 Build 0)  -->
<svg version="1.1" id="Layer_1" xmlns="http://www.w3.org/2000/svg" xmlns:xlink="http://www.w3.org/1999/xlink" x="0px" y="0px"
	 viewBox="0 0 200 200" style="enable-background:new 0 0 200 200;" xml:space="preserve">
<g transform="translate(0.000000,200.000000) scale(0.100000,-0.100000)">
	<path d="M0,2000V0h2000v2000H0z M1102.4,493.5L954.8,267.7l-593.9,895c-21.9,32.1-13.3,52.1,32.6,52.1l318.8-0.9
		c-22.3-47.9-44.4-72.6-122.8-92.6c-17.8-4.6-8.8-19.9,5.6-41.5C713.5,902,830.7,723.7,949.3,543.9
		c67.3,82.7,101.5,211.8,24.3,330.9l-438,654c-18.3,28-39.1,38.8-76.3,38.8H293l26.7,35.9c49.4,66.3,127.2,105.3,209.8,105.3h333
		c0,0-86.9-66.7-132.4-104.7c-35.3-29.4-36.7-51-13.3-85.7l389.6-581.8c25.7-37.8,44.2-80,54.4-124.6
		C1187.4,702.8,1164,587.5,1102.4,493.5z M1666.2,1337.4l-179.7-269c-0.9-1.7-2-3.3-3.2-4.8c-19.7-23.8-31.2,10.3-39.1,22.1
		c-84,124-166.9,248.6-250.1,373c-17.2,25.8-35.1,51.4-51.6,77.7c-9.9,15.8-22.4,21.7-44.4,26.6c-34.5,7.8-72.3,12.1-91.8-8
		c-6.4-6.7,18.9-45.5,33-67.2c109.4-167.4,218.9-334.7,331.6-500.5c25.5-37.5,26.1-65.5-3-101.1l-121.1-171.4
		c8.8,64.5,7.7,138-14.3,195.3c-9.2,24-27.7,47.9-41.5,68.9c-119.8,181.6-238.8,363.7-361,544c-21.8,32.2-15.1,48,9.8,76.2
		c77.7,88,164.4,109.6,300.1,109.6h70.3l260.1-391.4l37.9,61.9c14.1,22.6,13.1,51.5-2.5,73.1l-179.1,256.4c0,0,189.2,0,193.5,0
		c2.7,0,82.9-110.4,142.5-192.8c20.2-27.2,30.4-59.5,30.4-91.8C1693,1393.9,1684.1,1363.6,1666.2,1337.4z"/>
</g>
</svg>
