<?xml version="1.0" standalone="no"?>
<!DOCTYPE svg PUBLIC "-//W3C//DTD SVG 1.1//EN" "http://www.w3.org/Graphics/SVG/1.1/DTD/svg11.dtd" >
<svg xmlns="http://www.w3.org/2000/svg" xmlns:xlink="http://www.w3.org/1999/xlink" version="1.1">
<metadata>
Created by FontForge 20190801 at Mon Jul 16 13:01:05 2007
 By root
[c] Copyright 2003-2004, The Font Bureau, Inc. Designed by David Berlow. All rights reserved.
</metadata>
<defs>
<font id="TitlingGothicFBExtended-Bold" horiz-adv-x="586" >
  <font-face 
    font-family="TitlingGothicFB Extended Bold"
    font-weight="700"
    font-stretch="normal"
    units-per-em="1000"
    panose-1="2 0 5 7 3 0 0 2 0 4"
    ascent="800"
    descent="-200"
    x-height="545"
    cap-height="781"
    bbox="-167 -240 2215 1047"
    underline-thickness="20"
    underline-position="-133"
    stemh="193"
    stemv="202"
    unicode-range="U+0020-FB02"
  />
<missing-glyph horiz-adv-x="500" 
 />
    <glyph glyph-name="fi" unicode="fi" horiz-adv-x="1076" 
d="M694 354h-268v-354h-285v354h-124v191h124v33c0 127 78 224 230 224c19 0 228 -2 236 -3v-184c-8 1 -83 4 -98 4c-65 -1 -89 -24 -89 -57v-17h556v-427c0 -89 1 -107 22 -118h-283c-16 2 -21 37 -21 116v238z" />
    <glyph glyph-name="fl" unicode="fl" horiz-adv-x="1077" 
d="M17 354v191h124v27c0 127 78 230 230 230c19 0 255 -2 263 -3v-184c-8 1 -110 4 -125 4c-65 -1 -89 -24 -89 -57v-17h218v-191h-212v-354h-285v354h-124zM998 0h-284c-11 2 -18 32 -18 82v613c0 53 -3 79 -6 90h280c4 -21 6 -52 6 -87v-633c0 -27 5 -61 22 -65z" />
    <glyph glyph-name="f_f" unicode="ff" horiz-adv-x="1201" 
d="M426 356v-356h-285v354h-124v191h124v27c0 127 78 230 230 230c19 0 228 -2 236 -3v-184c-8 1 -83 4 -98 4c-65 -1 -89 -24 -89 -57v-19h276v29c0 127 78 230 230 230c19 0 228 -2 236 -3v-184c-8 1 -82 4 -98 4c-65 -1 -89 -24 -89 -57v-17h200v-191h-194v-354h-285v356
h-270z" />
    <glyph glyph-name="f_f_i" unicode="ffi" horiz-adv-x="1631" 
d="M1251 356h-269l-1 -356h-285l1 356h-270l-1 -356h-285v354h-124v191h124v27c0 127 78 230 230 230c19 0 228 -2 236 -3v-184c-8 1 -83 4 -98 4c-65 -1 -89 -24 -89 -57v-17h276v27c0 127 78 230 230 230c19 0 228 -2 236 -3v-184c-8 1 -82 4 -98 4
c-65 -1 -89 -24 -89 -57v-17h556v-427c0 -89 1 -107 22 -118h-283c-15 2 -20 37 -20 116c0 57 1 178 1 240z" />
    <glyph glyph-name="f_f_l" unicode="ffl" horiz-adv-x="1632" 
d="M426 356v-356h-285v354h-124v191h124v27c0 127 78 230 230 230c19 0 228 -2 236 -3v-184c-8 1 -83 4 -98 4c-65 -1 -89 -24 -89 -57v-17h276v27c0 127 78 230 230 230c19 0 255 -2 263 -3v-184c-8 1 -109 4 -125 4c-65 -1 -89 -24 -89 -57v-17h236v-191h-230v-354h-285
v356h-270zM1553 0h-284c-11 2 -18 32 -18 82v613c0 53 -3 79 -6 90h280c4 -21 6 -52 6 -87v-633c0 -27 5 -61 22 -65z" />
    <glyph glyph-name=".notdef" horiz-adv-x="500" 
 />
    <glyph glyph-name="NUL" horiz-adv-x="0" 
 />
    <glyph glyph-name="Eth" unicode="&#xd0;" horiz-adv-x="1273" 
d="M100 319h-65v145h65v317h663c233 0 366 -72 426 -185c30 -56 43 -121 43 -192c0 -77 -13 -146 -41 -205c-60 -124 -193 -199 -428 -199h-663v319zM393 464h245v-145h-245v-124h323c109 0 173 28 203 85c16 29 22 67 22 115c-2 42 -8 77 -21 104c-30 62 -95 88 -199 88
h-328v-123z" />
    <glyph glyph-name="eth" unicode="&#xf0;" horiz-adv-x="1074" 
d="M719 490c-22 -10 -33 -17 -48 -17c-33 0 -51 20 -51 56h28c1 -23 14 -29 29 -28c12 0 21 6 36 14c-4 10 -6 19 -10 23c-22 26 -63 62 -158 62c-99 0 -138 -22 -155 -40c-5 -4 -15 -17 -16 -23h-275c4 28 9 51 20 76c57 114 155 181 425 181c189 0 314 -54 391 -128
c10 -9 19 -18 27 -27c28 14 41 23 58 23c36 -1 51 -24 51 -60l-31 1c0 11 -2 28 -28 28c-11 0 -18 -4 -33 -12c53 -75 70 -160 70 -227c0 -74 -14 -135 -41 -187c-73 -158 -249 -217 -479 -217c-361 0 -496 110 -496 241v13c3 124 98 224 393 224c138 0 252 -29 310 -58
c0 22 -5 53 -17 82zM339 233c0 -41 56 -84 183 -84c102 0 175 33 195 80c11 14 15 35 16 59c-27 11 -82 43 -204 43c-147 0 -190 -43 -190 -79v-19z" />
    <glyph glyph-name="Lslash" unicode="&#x141;" horiz-adv-x="1011" 
d="M394 348v-123h576v-225h-870v305l-66 -13v165l66 13v311h294v-268l356 67v-165z" />
    <glyph glyph-name="lslash" unicode="&#x142;" horiz-adv-x="482" 
d="M381 307v-242c0 -27 5 -61 22 -65h-284c-11 2 -18 32 -18 82v164l-83 -21v189l83 21v260c0 53 -3 79 -6 90h280c4 -21 6 -52 6 -87v-200l84 21v-190z" />
    <glyph glyph-name="Scaron" unicode="&#x160;" horiz-adv-x="1248" 
d="M1203 253c0 -177 -192 -265 -577 -265c-344 0 -495 92 -561 205c-14 24 -21 47 -26 74h324c4 -12 13 -25 26 -38c31 -29 122 -48 266 -48c200 0 237 20 237 57c0 36 -28 46 -195 57c-74 5 -177 10 -228 13c-334 18 -422 108 -422 228c0 143 195 258 556 258
c317 0 465 -90 527 -182c20 -31 34 -63 40 -92l-325 -1c-2 12 -7 19 -22 33c-30 27 -105 48 -230 48c-182 0 -231 -14 -231 -52c0 -32 33 -40 228 -54c90 -6 242 -17 274 -19c247 -17 339 -93 339 -222zM351 1022h203l68 -71l68 71h203l-140 -187h-262z" />
    <glyph glyph-name="scaron" unicode="&#x161;" horiz-adv-x="973" 
d="M942 175c0 -127 -127 -187 -438 -187c-318 0 -435 50 -478 171c-5 16 -7 22 -8 35h284c1 -11 3 -16 12 -25c19 -19 66 -27 187 -27c157 0 170 9 170 31c0 20 -21 24 -147 31c-32 2 -86 6 -130 9c-228 17 -363 54 -363 171c0 120 145 187 418 187c268 0 403 -42 449 -156
c7 -18 9 -31 11 -44h-275c-1 8 -4 14 -13 21c-19 15 -66 22 -156 22c-141 0 -158 -8 -158 -29s19 -23 155 -30c51 -3 124 -8 187 -12c201 -11 293 -57 293 -168zM231 788h203l68 -71l68 71h203l-140 -187h-262z" />
    <glyph glyph-name="Yacute" unicode="&#xdd;" horiz-adv-x="1343" 
d="M1335 781l-520 -524v-257h-293v256l-521 525h347l325 -320l324 320h338zM531 828l102 194h280l-133 -194h-249z" />
    <glyph glyph-name="yacute" unicode="&#xfd;" horiz-adv-x="1045" 
d="M1036 550l-468 -736h-309l121 180l-373 556h296l226 -344l215 344h292zM383 594l102 194h280l-133 -194h-249z" />
    <glyph glyph-name="Thorn" unicode="&#xde;" horiz-adv-x="1232" 
d="M394 781v-67h435c130 2 218 -24 274 -70c62 -43 95 -114 95 -218c0 -79 -22 -141 -63 -186c-61 -69 -166 -101 -300 -101h-441v-139h-294v781h294zM902 417c0 29 -5 52 -18 68c-19 28 -61 40 -125 40h-366v-215h366c66 0 108 13 128 43c10 15 15 36 15 64z" />
    <glyph glyph-name="thorn" unicode="&#xfe;" horiz-adv-x="1097" 
d="M1056 282c0 -45 -12 -83 -34 -114c-55 -118 -186 -174 -362 -174c-87 0 -236 20 -283 75v-255h-294v980h297v-310c42 52 151 94 297 94c189 0 302 -63 346 -173c23 -34 33 -76 33 -123zM752 285c0 21 -5 38 -16 53c-27 42 -91 64 -177 64c-106 0 -158 -32 -179 -72
c-6 -11 -11 -28 -11 -47c0 -17 2 -32 10 -45c24 -42 84 -69 181 -69c90 0 151 20 176 62c10 15 16 33 16 54z" />
    <glyph glyph-name="Zcaron" unicode="&#x17d;" horiz-adv-x="1167" 
d="M1139 0h-1105v212l604 349h-573v220h1055v-210l-640 -354h659v-217zM312 1022h203l68 -71l68 71h203l-140 -187h-262z" />
    <glyph glyph-name="zcaron" unicode="&#x17e;" horiz-adv-x="970" 
d="M921 0h-868v169l392 198h-374v178h824v-164l-415 -203h441v-178zM211 788h203l68 -71l68 71h203l-140 -187h-262z" />
    <glyph glyph-name="onehalf" unicode="&#xbd;" horiz-adv-x="1150" 
d="M387 388h-192v246l-184 -16v117c70 1 199 23 221 48h155v-395zM858 781c0 0 -195 -241 -318 -398c-114 -147 -293 -383 -293 -383h-101s203 251 330 413c112 143 283 368 283 368h99zM1131 1h-613v112c281 56 367 71 367 125v16c0 24 -17 42 -80 42
c-48 0 -66 -16 -74 -32c-4 -10 -6 -32 -7 -44h-201c0 27 7 49 13 61c20 62 102 118 290 118c230 0 287 -63 287 -126v-21c0 -67 -100 -116 -241 -140h259v-111z" />
    <glyph glyph-name="onequarter" unicode="&#xbc;" horiz-adv-x="1160" 
d="M387 388h-192v246l-184 -16v117c70 1 199 23 221 48h155v-395zM889 781c0 0 -194 -241 -317 -398c-114 -147 -294 -383 -294 -383h-100s202 251 329 413c112 143 283 368 283 368h99zM1124 65h-90v-64h-187v71h-358v109l382 217h163v-222h90v-111zM848 176v93l-175 -93
h175z" />
    <glyph glyph-name="onesuperior" unicode="&#xb9;" horiz-adv-x="551" 
d="M426 388h-192v246l-183 -16v117c69 1 198 23 220 48h155v-395z" />
    <glyph glyph-name="threequarters" unicode="&#xbe;" horiz-adv-x="1368" 
d="M535 598c85 -9 127 -44 127 -83v-10c0 -63 -61 -123 -324 -123c-227 0 -288 43 -314 105c-4 8 -8 25 -8 35h205c0 -5 0 -11 1 -17c3 -20 41 -35 108 -35c77 0 109 19 110 41v5c0 21 -29 33 -96 33h-156v70h154c59 0 84 12 84 30v9c0 17 -28 29 -97 29
c-58 0 -93 -12 -96 -32c-1 -5 -1 -10 -1 -13h-194c0 7 7 32 14 43c32 62 120 101 298 101c191 0 270 -40 283 -98c1 -5 2 -10 2 -16c0 -41 -30 -66 -100 -74zM1082 781c0 0 -195 -241 -318 -398c-114 -147 -293 -383 -293 -383h-100s203 251 330 413
c112 143 283 368 283 368h98zM1339 65h-90v-64h-186v71h-359v109l383 217h162v-222h90v-111zM1064 176v93l-176 -93h176z" />
    <glyph glyph-name="threesuperior" unicode="&#xb3;" horiz-adv-x="795" 
d="M589 598c85 -9 126 -44 126 -83v-10c0 -63 -61 -123 -323 -123c-228 0 -288 43 -315 105c-3 8 -7 25 -7 35h205v-17c4 -20 41 -35 108 -35c77 0 110 19 110 41v5c0 21 -29 33 -95 33h-156v70h155c57 0 82 12 82 30v9c0 17 -27 29 -97 29c-58 0 -92 -12 -96 -32
c0 -5 -1 -10 -1 -13h-192c0 7 7 32 13 43c31 62 120 101 298 101c190 0 269 -40 282 -98c2 -5 3 -10 3 -16c0 -41 -31 -66 -100 -74z" />
    <glyph glyph-name="twosuperior" unicode="&#xb2;" horiz-adv-x="765" 
d="M701 388h-612v112c283 55 366 72 366 125v17c0 24 -17 41 -80 41c-48 0 -66 -16 -74 -32c-4 -10 -6 -32 -7 -44h-200c0 27 7 49 12 61c20 62 103 119 290 119c231 0 287 -64 287 -126v-22c0 -67 -92 -114 -239 -140h257v-111z" />
    <glyph glyph-name="brokenbar" unicode="&#xa6;" horiz-adv-x="457" 
d="M339 347h-214v453h214v-453zM339 -200h-214v453h214v-453z" />
    <glyph glyph-name="minus" unicode="&#x2212;" horiz-adv-x="974" 
d="M899 256h-832v227h832v-227z" />
    <glyph glyph-name="multiply" unicode="&#xd7;" horiz-adv-x="898" 
d="M753 571l-165 -161l166 -162l-141 -150l-165 161l-165 -161l-140 151l165 161l-165 161l141 150l164 -160l165 161z" />
    <glyph glyph-name="space" unicode=" " horiz-adv-x="472" 
 />
    <glyph glyph-name="space" unicode="&#xa0;" horiz-adv-x="472" 
 />
    <glyph glyph-name="exclam" unicode="!" horiz-adv-x="485" 
d="M430 781l-47 -470h-286l-43 470h376zM390 0h-297v259h297v-259z" />
    <glyph glyph-name="quotedbl" unicode="&#x22;" horiz-adv-x="802" 
d="M753 781l-21 -449h-264l-19 449h304zM347 781l-20 -449h-264l-20 449h304z" />
    <glyph glyph-name="numbersign" unicode="#" horiz-adv-x="890" 
d="M874 643l-38 -197h-180c-6 -18 -31 -135 -31 -135h189l-38 -197h-190l-35 -152h-125l35 152h-165l-36 -152h-125l35 152h-155l39 197h154s26 117 31 135h-164l38 197h164c7 25 36 154 36 154h125l-35 -154h166c7 25 35 154 35 154h125s-28 -129 -35 -154h180zM529 446
h-165l-30 -135h166s25 117 29 135z" />
    <glyph glyph-name="dollar" unicode="$" horiz-adv-x="1123" 
d="M623 774c248 -14 348 -91 396 -169c18 -30 30 -61 34 -90h-279c-2 12 -7 20 -19 33c-18 22 -56 41 -135 47v-119c334 -21 469 -73 469 -234c0 -153 -181 -230 -466 -239v-77h-126v77c-278 10 -400 90 -452 196c-10 22 -14 41 -17 65h282c4 -11 10 -25 22 -40
c16 -22 59 -43 168 -48v134c-335 12 -467 80 -467 237c0 132 161 222 464 229v38h126v-40zM501 600c-163 -2 -197 -21 -197 -59c0 -35 38 -46 197 -57v116zM619 175c141 3 188 26 188 62c0 38 -31 59 -188 67v-129z" />
    <glyph glyph-name="percent" unicode="%" horiz-adv-x="1519" 
d="M1470 179c0 -101 -135 -193 -349 -193c-216 0 -337 92 -337 193v39c0 89 132 192 342 192c230 0 344 -109 344 -192v-39zM731 567c0 -100 -136 -193 -350 -193s-335 93 -335 193v38c0 90 131 193 342 193c229 0 343 -108 343 -193v-38zM1160 781l-654 -781h-161l657 781
h158zM519 574v16c0 23 -42 54 -130 54c-96 0 -130 -31 -130 -54v-16c0 -24 39 -49 132 -49c98 0 128 27 128 49zM1257 189v16c0 19 -40 51 -129 51c-93 0 -130 -30 -130 -50v-17c0 -23 41 -53 130 -53c101 0 129 33 129 53z" />
    <glyph glyph-name="ampersand" unicode="&#x26;" horiz-adv-x="1322" 
d="M674 361c46 -24 115 -67 178 -102c54 38 83 92 97 147h291c-24 -112 -87 -206 -176 -266c87 -41 188 -94 286 -140h-433c-26 12 -53 25 -75 37c-86 -33 -216 -48 -338 -48c-211 0 -481 -4 -481 195v13c0 114 123 174 262 217c-44 52 -64 100 -64 145v18
c0 120 138 217 340 217c187 0 317 -86 317 -192v-20c0 -109 -74 -175 -204 -221zM523 473c82 24 124 45 124 79v9c0 31 -29 49 -82 49c-59 0 -87 -26 -87 -58v-11c0 -16 15 -41 45 -68zM431 280c-83 -29 -100 -49 -100 -76c0 -37 43 -47 146 -47c67 0 100 6 130 12
c-64 35 -131 75 -176 111z" />
    <glyph glyph-name="quotesingle" unicode="'" horiz-adv-x="462" 
d="M392 781l-21 -460h-281l-20 460h322z" />
    <glyph glyph-name="parenleft" unicode="(" horiz-adv-x="591" 
d="M575 -68h-279c-122 43 -255 200 -255 425c0 199 137 364 255 424h279c-106 -78 -226 -261 -226 -426c0 -172 93 -352 226 -423z" />
    <glyph glyph-name="parenright" unicode=")" horiz-adv-x="591" 
d="M552 357c0 -215 -127 -372 -255 -425h-280c136 70 227 251 227 423c0 165 -121 348 -227 426h280c121 -62 255 -225 255 -424z" />
    <glyph glyph-name="asterisk" unicode="*" horiz-adv-x="756" 
d="M445 590l185 93l61 -191l-203 -48l147 -146l-151 -120l-109 177l-108 -176l-150 119l144 146l-205 48l59 191l188 -93l-22 208h187z" />
    <glyph glyph-name="plus" unicode="+" horiz-adv-x="967" 
d="M899 271h-293v-236h-237v236h-301v206h299v238h240v-238h292v-206z" />
    <glyph glyph-name="comma" unicode="," horiz-adv-x="491" 
d="M394 6l-102 -171h-209l80 175l-23 -10h-44v290h298v-284z" />
    <glyph glyph-name="hyphen" unicode="-" horiz-adv-x="692" 
d="M648 215h-602v243h602v-243z" />
    <glyph glyph-name="hyphen" unicode="&#xad;" horiz-adv-x="692" 
d="M648 215h-602v243h602v-243z" />
    <glyph glyph-name="period" unicode="." horiz-adv-x="491" 
d="M395 0h-300v290h300v-290z" />
    <glyph glyph-name="slash" unicode="/" horiz-adv-x="459" 
d="M492 794l-435 -952h-134l434 952h135z" />
    <glyph glyph-name="zero" unicode="0" horiz-adv-x="1114" 
d="M557 794c326 0 520 -172 520 -405s-209 -401 -519 -401c-328 0 -521 164 -521 403c0 220 185 403 520 403zM765 392c0 115 -68 196 -206 196c-139 0 -212 -81 -212 -196c0 -133 83 -201 210 -201c130 0 208 64 208 201z" />
    <glyph glyph-name="one" unicode="1" horiz-adv-x="732" 
d="M590 0h-292v500l-258 -21v228c205 20 289 32 313 81h237v-788z" />
    <glyph glyph-name="two" unicode="2" horiz-adv-x="1054" 
d="M1022 0h-971v220c450 111 593 149 593 254v33c0 50 -42 81 -140 81c-76 0 -118 -28 -132 -74c-5 -18 -7 -56 -8 -79h-305c3 53 9 93 18 122c34 131 164 237 456 237c357 0 448 -128 448 -249v-43c0 -133 -131 -236 -359 -284h400v-218z" />
    <glyph glyph-name="three" unicode="3" horiz-adv-x="1071" 
d="M829 418c135 -15 209 -86 209 -167v-20c0 -137 -111 -243 -500 -243c-320 0 -441 69 -490 186c-12 25 -19 62 -20 91h311c1 -15 3 -32 8 -45c17 -33 79 -51 181 -51c130 0 176 28 176 74v10c0 42 -49 60 -159 60h-251v152h249c92 0 137 19 137 54v18c0 34 -47 62 -164 62
c-85 0 -137 -22 -151 -54c-6 -12 -8 -28 -9 -41h-293c2 29 13 76 27 105c57 113 197 185 461 185c298 0 421 -82 442 -195c2 -12 3 -22 3 -34c0 -83 -54 -135 -167 -147z" />
    <glyph glyph-name="four" unicode="4" horiz-adv-x="1022" 
d="M1012 130h-143v-130h-287v140h-567v217l594 437h260v-448h143v-216zM584 346v191l-261 -191h261z" />
    <glyph glyph-name="five" unicode="5" horiz-adv-x="1052" 
d="M1029 244c-4 -152 -160 -256 -475 -256c-288 0 -449 65 -495 205c-7 24 -12 41 -14 71h297c11 -59 53 -93 178 -93c110 0 168 42 168 99v11c0 59 -51 98 -168 98c-79 0 -140 -20 -164 -68h-283v470h894v-208h-627l-1 -110c41 54 197 73 296 73c267 0 388 -108 394 -266
v-26z" />
    <glyph glyph-name="six" unicode="6" horiz-adv-x="1074" 
d="M1053 252c0 -143 -134 -264 -495 -264c-230 0 -406 59 -480 217c-24 50 -41 113 -41 187c0 51 11 112 40 172c58 120 196 230 466 230c269 0 369 -67 424 -181c12 -25 17 -48 21 -76h-276c-1 6 -9 18 -14 24c-15 18 -62 35 -153 35c-128 0 -183 -48 -194 -104
c-3 -12 -4 -28 -5 -38c59 29 174 57 312 57c295 0 392 -110 395 -245v-14zM747 255v19c0 34 -37 74 -178 74c-107 0 -188 -27 -220 -40c2 -22 7 -41 19 -56c30 -44 93 -75 199 -75c129 0 180 40 180 78z" />
    <glyph glyph-name="seven" unicode="7" horiz-adv-x="920" 
d="M905 588l-443 -588h-343l452 573h-566v208h900v-193z" />
    <glyph glyph-name="eight" unicode="8" horiz-adv-x="1010" 
d="M986 224c-4 -137 -156 -234 -483 -234c-325 0 -476 81 -479 234v25c3 88 89 156 206 173c-106 20 -166 82 -166 157v16c0 107 147 203 439 203c295 0 440 -88 440 -203v-16c0 -73 -50 -141 -178 -157c138 -10 220 -82 221 -174v-24zM720 241v19c0 42 -57 71 -217 71
c-140 0 -216 -32 -216 -71v-19c0 -39 69 -72 216 -72c153 0 217 34 217 72zM678 545v18c0 28 -50 53 -172 53c-119 0 -172 -23 -172 -54v-17c0 -30 53 -49 168 -49c119 0 176 16 176 49z" />
    <glyph glyph-name="nine" unicode="9" horiz-adv-x="1052" 
d="M938 145c-80 -95 -219 -156 -415 -156c-257 0 -383 63 -439 175c-14 30 -20 45 -24 82h293c0 -6 4 -16 10 -24c19 -25 66 -40 160 -40c122 0 174 59 181 109c1 7 3 27 3 37c-92 -31 -172 -55 -303 -55c-245 0 -377 107 -379 232v23c0 145 145 267 485 267
c183 0 313 -46 394 -121c84 -74 114 -177 114 -282c0 -95 -25 -182 -80 -247zM712 469c-2 23 -2 25 -6 42c-14 55 -95 92 -192 92c-127 0 -188 -39 -188 -78v-21c0 -35 45 -75 186 -75c95 0 173 29 200 40z" />
    <glyph glyph-name="colon" unicode=":" horiz-adv-x="505" 
d="M390 354h-282v241h282v-241zM390 0h-282v239h282v-239z" />
    <glyph glyph-name="semicolon" unicode=";" horiz-adv-x="505" 
d="M390 354h-282v241h282v-241zM391 6l-174 -183l-117 114l63 67l-36 -4h-19v241h283v-235z" />
    <glyph glyph-name="less" unicode="&#x3c;" horiz-adv-x="912" 
d="M812 -18l-740 231v224l740 229v-240l-461 -101l461 -102v-241z" />
    <glyph glyph-name="equal" unicode="=" horiz-adv-x="912" 
d="M867 397h-822v192h822v-192zM867 142h-822v191h822v-191z" />
    <glyph glyph-name="greater" unicode="&#x3e;" horiz-adv-x="912" 
d="M813 213l-740 -228v238l461 102l-461 102v241l740 -231v-224z" />
    <glyph glyph-name="question" unicode="?" horiz-adv-x="1004" 
d="M979 542c-4 -214 -406 -163 -412 -240h-292c7 189 351 147 356 216c1 8 1 13 0 17c-5 36 -43 59 -151 59c-98 0 -137 -30 -144 -63c-2 -9 -3 -13 -3 -24h-309c1 17 6 53 14 81c24 107 144 211 463 211c348 0 476 -74 478 -224v-33zM570 0h-297v259h297v-259z" />
    <glyph glyph-name="at" unicode="@" horiz-adv-x="1338" 
d="M1293 349c-2 -205 -135 -323 -349 -323c-85 0 -176 30 -184 98c-30 -48 -92 -87 -215 -87c-132 0 -243 72 -238 242c4 141 119 283 332 283c86 0 132 -37 146 -69l12 49h238c-23 -118 -45 -202 -66 -312c-12 -58 6 -85 57 -85c98 0 161 70 163 207
c2 188 -162 355 -511 355c-335 0 -532 -158 -532 -412c0 -286 258 -406 543 -406c163 0 285 42 356 89l49 -68c-75 -45 -205 -101 -412 -101c-367 0 -642 171 -642 485c0 307 250 496 655 496c392 0 601 -200 598 -441zM766 340c4 21 -18 70 -98 70
c-86 0 -153 -51 -163 -117c-10 -61 28 -110 103 -110c98 0 137 43 147 89c2 13 8 51 11 68z" />
    <glyph glyph-name="A" unicode="A" horiz-adv-x="1351" 
d="M389 123l-83 -123h-314l528 781h335l502 -781h-322l-80 123h-566zM841 309c1 0 -124 191 -124 191l-40 67l-43 -67l-128 -191h335z" />
    <glyph glyph-name="B" unicode="B" horiz-adv-x="1308" 
d="M1223 88c-50 -65 -153 -88 -279 -88h-844v781h825c119 0 192 -28 233 -69c36 -36 49 -81 49 -126s-11 -85 -33 -114s-56 -51 -100 -56c66 -8 122 -36 153 -79c25 -29 36 -71 36 -112c0 -53 -12 -102 -40 -137zM905 539c0 15 -5 26 -17 36c-16 14 -45 18 -93 18h-410v-110
h415c44 0 76 4 91 17c10 9 14 24 14 39zM954 211c8 9 10 21 10 36c0 16 -4 27 -14 36c-17 15 -48 20 -109 20h-456v-116h452c66 0 100 6 117 24z" />
    <glyph glyph-name="C" unicode="C" horiz-adv-x="1312" 
d="M1274 330c-4 -25 -13 -73 -27 -102c-72 -154 -250 -240 -587 -240c-293 0 -471 77 -556 195c-41 58 -63 129 -63 209c0 75 20 144 60 199c90 123 269 205 563 205c374 0 524 -131 584 -253c17 -37 22 -74 24 -93h-309c-3 10 -10 24 -20 35c-34 43 -126 86 -281 86
c-146 0 -258 -37 -300 -109c-12 -20 -17 -44 -17 -72c0 -27 6 -50 18 -70c48 -77 173 -108 299 -108c138 0 248 20 292 87c7 9 10 22 11 31h309z" />
    <glyph glyph-name="D" unicode="D" horiz-adv-x="1273" 
d="M1191 199c-60 -124 -193 -199 -428 -199h-663v781h663c233 0 366 -71 426 -185c30 -55 43 -120 43 -192c0 -76 -13 -147 -41 -205zM917 282c15 29 22 66 21 113c-1 42 -8 75 -20 102c-31 60 -95 85 -200 85h-325v-382h321c108 0 172 26 203 82z" />
    <glyph glyph-name="E" unicode="E" horiz-adv-x="1135" 
d="M1074 0h-974v781h965v-206h-676v-87h659v-195h-659v-88h685v-205z" />
    <glyph glyph-name="F" unicode="F" horiz-adv-x="1085" 
d="M1047 573h-654v-102h626v-203h-626v-268h-293v781h947v-208z" />
    <glyph glyph-name="G" unicode="G" horiz-adv-x="1282" 
d="M1216 0h-241l-5 85c-77 -53 -202 -97 -387 -97c-190 0 -360 50 -456 158c-55 62 -86 144 -86 244c0 89 30 167 88 231c100 109 278 173 518 173c285 0 466 -86 540 -227c13 -24 19 -52 22 -68h-282c-2 10 -24 25 -42 36c-34 23 -114 48 -241 48s-217 -26 -266 -78
c-28 -30 -42 -69 -42 -115c0 -45 14 -83 42 -114c48 -50 138 -77 266 -77c118 0 210 20 262 52c17 9 40 27 47 43h-359v168h622v-462z" />
    <glyph glyph-name="H" unicode="H" horiz-adv-x="1309" 
d="M1209 0h-293v280h-523v-280h-293v781h293v-279h523v279h293v-781z" />
    <glyph glyph-name="I" unicode="I" horiz-adv-x="496" 
d="M401 0h-301v781h301v-781z" />
    <glyph glyph-name="J" unicode="J" horiz-adv-x="756" 
d="M677 311c0 -182 -142 -322 -405 -322c-110 0 -225 7 -241 9v218c14 -2 145 -3 195 -3c111 0 155 69 155 139v429h296v-470z" />
    <glyph glyph-name="K" unicode="K" horiz-adv-x="1274" 
d="M450 303l-57 -34v-269h-293v781h293v-271l460 271h398l-559 -342l556 -439h-412z" />
    <glyph glyph-name="L" unicode="L" horiz-adv-x="1011" 
d="M970 0h-870v781h294v-558h576v-223z" />
    <glyph glyph-name="M" unicode="M" horiz-adv-x="1458" 
d="M1364 0h-281v402l-230 -402h-246l-226 402v-402h-281v781h375l257 -467l267 467h365v-781z" />
    <glyph glyph-name="N" unicode="N" horiz-adv-x="1279" 
d="M1181 0h-288l-510 450v-450h-283v781h303l498 -439v439h280v-781z" />
    <glyph glyph-name="O" unicode="O" horiz-adv-x="1344" 
d="M672 802c243 0 419 -50 530 -156c71 -68 101 -149 101 -251c0 -105 -35 -189 -100 -253c-103 -105 -287 -154 -531 -154c-240 0 -419 53 -526 156c-67 64 -105 146 -105 253c0 93 31 172 99 237c116 116 292 168 532 168zM671 204c232 0 333 90 333 190
c0 88 -85 188 -334 188c-238 0 -330 -98 -330 -188c0 -100 97 -190 331 -190z" />
    <glyph glyph-name="P" unicode="P" horiz-adv-x="1232" 
d="M1198 487c0 -81 -24 -145 -65 -190c-62 -71 -164 -103 -298 -103h-442v-194h-293v781h729c120 0 215 -23 274 -68s95 -119 95 -226zM902 483c0 28 -6 51 -18 65c-20 25 -61 37 -125 37h-367v-203h367c66 0 108 11 128 39c10 15 15 35 15 62z" />
    <glyph glyph-name="Q" unicode="Q" horiz-adv-x="1344" 
d="M954 23c11 -10 27 -16 42 -23c17 -7 33 -12 51 -16l-157 -179c-15 3 -74 27 -136 73c-54 41 -109 91 -127 110c-2 0 -34 4 -36 4c-177 4 -343 52 -445 152c-72 69 -105 146 -105 253c0 93 30 167 100 237c108 112 291 168 531 168c243 0 418 -50 530 -156
c73 -66 101 -149 101 -251c0 -105 -39 -191 -100 -252c-58 -57 -153 -105 -249 -120zM671 200c229 0 335 87 335 191c0 93 -88 192 -336 192c-238 0 -332 -95 -332 -192c0 -100 90 -191 333 -191z" />
    <glyph glyph-name="R" unicode="R" horiz-adv-x="1298" 
d="M1196 552c0 -58 -17 -113 -45 -148c-30 -37 -82 -73 -150 -80l287 -324h-323l-249 287h-323v-287h-293v781h747c141 0 235 -30 289 -77c40 -36 60 -84 60 -152zM914 522c0 13 -3 23 -9 32c-18 26 -49 33 -99 33h-413v-127h418c57 0 83 8 95 29c7 11 8 23 8 33z" />
    <glyph glyph-name="S" unicode="S" horiz-adv-x="1248" 
d="M1203 253c0 -177 -192 -265 -577 -265c-344 0 -495 92 -561 205c-14 24 -21 47 -26 74h324c4 -12 13 -25 26 -38c31 -29 122 -48 266 -48c200 0 237 20 237 57c0 36 -28 46 -195 57c-74 5 -177 10 -228 13c-334 18 -422 108 -422 228c0 143 195 258 556 258
c317 0 465 -90 527 -182c20 -31 34 -63 40 -92l-325 -1c-2 12 -7 19 -22 33c-30 27 -105 48 -230 48c-182 0 -231 -14 -231 -52c0 -32 33 -40 228 -54c90 -6 242 -17 274 -19c247 -17 339 -93 339 -222z" />
    <glyph glyph-name="T" unicode="T" horiz-adv-x="1129" 
d="M1124 576h-410v-576h-300v576h-410v205h1120v-205z" />
    <glyph glyph-name="U" unicode="U" horiz-adv-x="1332" 
d="M1231 344c0 -239 -221 -355 -575 -355c-326 0 -550 119 -550 389v403h296v-413c0 -101 94 -165 271 -165c170 0 266 65 266 165v413h292v-437z" />
    <glyph glyph-name="V" unicode="V" horiz-adv-x="1353" 
d="M1352 781l-504 -781h-340l-508 781h328l355 -562l367 562h302z" />
    <glyph glyph-name="W" unicode="W" horiz-adv-x="1743" 
d="M1743 781l-351 -781h-321l-195 483l-195 -483h-321l-361 781h321l219 -500l196 500h312l196 -500l219 500h281z" />
    <glyph glyph-name="X" unicode="X" horiz-adv-x="1204" 
d="M775 401l423 -401h-352l-250 232l-262 -232h-328l429 389l-412 392h353l239 -222l249 222h328z" />
    <glyph glyph-name="Y" unicode="Y" horiz-adv-x="1343" 
d="M1335 781l-520 -524v-257h-293v256l-521 525h347l325 -320l324 320h338z" />
    <glyph glyph-name="Z" unicode="Z" horiz-adv-x="1167" 
d="M1139 0h-1105v212l604 349h-573v220h1055v-210l-640 -354h659v-217z" />
    <glyph glyph-name="bracketleft" unicode="[" horiz-adv-x="657" 
d="M611 -186h-532v967h532v-198h-272v-571h272v-198z" />
    <glyph glyph-name="backslash" unicode="\" horiz-adv-x="459" 
d="M-41 794h134l435 -952h-134z" />
    <glyph glyph-name="bracketright" unicode="]" horiz-adv-x="657" 
d="M47 -186v198h271v571h-271v198h531v-967h-531z" />
    <glyph glyph-name="asciicircum" unicode="^" horiz-adv-x="883" 
d="M442 573l-230 -197l-183 168l279 251h269l279 -251l-183 -168z" />
    <glyph glyph-name="underscore" unicode="_" horiz-adv-x="663" 
d="M663 -233h-663v187h663v-187z" />
    <glyph glyph-name="grave" unicode="`" 
d="M434 594h-248l-134 194h280z" />
    <glyph glyph-name="a" unicode="a" horiz-adv-x="1058" 
d="M990 0h-272s-5 28 -7 45c-42 -28 -169 -57 -351 -57c-204 0 -323 53 -323 155v15c0 111 128 178 427 178c68 0 175 -6 240 -14c-5 38 -27 77 -182 77c-120 0 -165 -20 -174 -47h-272c3 20 11 39 22 61c49 110 205 158 433 158c246 0 383 -60 425 -171
c12 -30 22 -79 20 -128c-2 -26 -2 -87 -2 -138c0 -57 4 -110 16 -134zM708 198c-42 12 -135 19 -188 19c-150 0 -192 -12 -192 -46c0 -26 27 -41 185 -41c84 0 177 24 195 68z" />
    <glyph glyph-name="b" unicode="b" horiz-adv-x="1110" 
d="M673 568c180 0 297 -52 352 -141c26 -41 40 -91 40 -149c0 -55 -15 -104 -44 -143c-66 -92 -200 -141 -363 -141c-96 0 -240 21 -294 69v-63h-277v794h280v-309c44 45 153 83 306 83zM569 393c-97 0 -165 -23 -194 -63c-12 -15 -16 -32 -16 -51s4 -37 18 -52
c30 -37 99 -59 193 -59c96 0 163 20 192 58c12 15 19 33 19 54s-7 39 -20 55c-32 38 -104 58 -192 58z" />
    <glyph glyph-name="c" unicode="c" horiz-adv-x="1047" 
d="M1012 305h-267c-2 8 -5 18 -14 30c-29 38 -96 59 -189 59c-97 0 -168 -21 -205 -61c-11 -12 -20 -33 -20 -55c0 -21 7 -42 20 -57c33 -39 107 -59 201 -59c93 0 146 11 176 35c11 9 22 23 27 34h272c-3 -36 -18 -73 -46 -107c-66 -78 -200 -136 -420 -136
c-227 0 -383 50 -458 137c-34 39 -54 92 -54 152c0 59 21 110 56 152c78 90 235 142 449 142c231 0 366 -56 430 -154c20 -31 36 -72 42 -112z" />
    <glyph glyph-name="d" unicode="d" horiz-adv-x="1121" 
d="M462 571c136 0 249 -29 301 -73v294h276v-712c0 -32 9 -80 9 -80h-271l-5 69c-40 -42 -172 -79 -294 -79c-194 0 -332 49 -397 141c-29 40 -46 87 -46 142c0 58 17 107 46 149c64 96 199 149 381 149zM542 395c-102 0 -174 -21 -208 -60c-14 -16 -20 -34 -20 -56
s5 -42 19 -57c36 -38 111 -59 214 -59c102 0 171 20 202 62c12 16 18 33 18 54s-6 39 -21 56c-34 38 -105 60 -204 60z" />
    <glyph glyph-name="e" unicode="e" horiz-adv-x="1060" 
d="M1027 182c-5 -15 -13 -29 -27 -46c-52 -72 -198 -148 -462 -148c-200 0 -358 38 -441 128c-43 48 -62 99 -62 162c0 59 23 112 61 153c86 94 253 140 444 140c272 0 453 -98 485 -266c4 -13 8 -73 8 -87h-720c5 -17 19 -30 41 -45c37 -24 103 -39 190 -39
c63 0 124 10 155 26c12 4 26 14 34 22h294zM751 336c0 14 -10 32 -30 45c-32 21 -97 39 -185 39c-90 0 -164 -19 -194 -45c-15 -12 -24 -25 -26 -39h435z" />
    <glyph glyph-name="f" unicode="f" horiz-adv-x="702" 
d="M676 354h-224v-354h-281v354h-154v191h154v27c0 127 87 230 251 230c19 0 229 -2 241 -4v-186c-8 2 -112 3 -142 3c-55 0 -75 -22 -75 -55v-21h230v-185z" />
    <glyph glyph-name="g" unicode="g" horiz-adv-x="969" 
d="M445 576c132 0 245 -17 302 -43c49 40 172 44 226 30v-157c-36 0 -112 -1 -120 -6c12 -12 21 -32 24 -52c2 -10 1 -29 -2 -41c-25 -99 -147 -148 -398 -148c-55 0 -131 10 -155 19c-18 -1 -27 -8 -27 -21c0 -25 45 -21 201 -21c356 -1 474 -42 474 -155
c0 -128 -166 -195 -504 -195c-368 0 -464 68 -464 147c0 71 66 101 127 113c-49 14 -80 45 -80 91c0 44 43 86 102 93c-58 14 -101 59 -114 123c-2 13 -1 36 2 52c22 91 138 171 406 171zM459 424c-99 0 -151 -20 -160 -56c-3 -11 -5 -21 -1 -34c8 -35 55 -57 156 -57
c105 0 153 20 160 56c3 16 3 26 -1 37c-10 34 -56 54 -154 54zM446 -64c156 0 228 10 229 35c-1 23 -18 27 -132 30c-50 1 -219 0 -258 0c-15 -2 -29 -9 -29 -25c0 -25 51 -40 190 -40z" />
    <glyph glyph-name="h" unicode="h" horiz-adv-x="1062" 
d="M974 289c0 -264 4 -287 17 -289h-286c-9 15 -12 39 -12 239c0 83 -55 120 -157 120s-169 -60 -169 -127v-232h-280v794h270v-352c59 92 162 127 312 127c199 0 305 -103 305 -280z" />
    <glyph glyph-name="i" unicode="i" horiz-adv-x="477" 
d="M378 605h-284v184h284v-184zM399 0h-283c-15 2 -20 37 -20 116v434h281v-432c0 -89 1 -107 22 -118z" />
    <glyph glyph-name="j" unicode="j" horiz-adv-x="500" 
d="M410 605h-282v183h282v-183zM409 56c0 -160 -87 -266 -247 -266c-66 0 -183 7 -197 16v172c13 -1 46 -2 63 -2c50 0 101 13 101 77v497h280v-494z" />
    <glyph glyph-name="k" unicode="k" horiz-adv-x="1008" 
d="M672 329l349 -329h-339l-212 204l-103 -60v-144h-280v794h279v-430l291 186h327z" />
    <glyph glyph-name="l" unicode="l" horiz-adv-x="476" 
d="M397 0c-17 4 -22 38 -22 65v633c0 35 -2 66 -6 87h-280c3 -11 6 -37 6 -90v-613c0 -50 7 -80 18 -82h284z" />
    <glyph glyph-name="m" unicode="m" horiz-adv-x="1584" 
d="M1239 0c-15 0 -15 65 -15 241c0 62 -34 119 -144 119c-88 0 -151 -52 -151 -128v-232h-268v249c0 63 -50 111 -140 111c-98 0 -154 -60 -154 -124v-236h-280v550h270v-113c39 87 159 127 270 127c124 0 229 -39 272 -128c38 66 133 128 295 128c210 0 310 -109 310 -281
c0 -268 -2 -272 9 -283h-274z" />
    <glyph glyph-name="n" unicode="n" horiz-adv-x="1063" 
d="M985 0h-279c-6 0 -13 19 -13 240c0 73 -48 119 -157 119c-99 0 -169 -62 -169 -120v-239h-280v550h270v-113c51 97 177 131 310 131c223 0 307 -128 307 -284c0 -274 5 -266 11 -284z" />
    <glyph glyph-name="o" unicode="o" horiz-adv-x="1087" 
d="M1052 278c0 -50 -15 -94 -41 -131c-73 -104 -239 -158 -467 -158c-243 0 -400 60 -469 159c-27 38 -40 82 -40 130c0 47 13 90 41 128c69 100 227 164 468 164c235 0 393 -63 464 -159c29 -39 44 -83 44 -133zM771 278c0 16 -4 30 -16 45c-31 42 -105 68 -210 68
c-108 0 -178 -25 -213 -66c-11 -13 -15 -30 -15 -47c0 -16 3 -32 13 -45c30 -43 110 -68 215 -68c108 0 182 23 212 66c9 13 14 30 14 47z" />
    <glyph glyph-name="p" unicode="p" horiz-adv-x="1099" 
d="M1065 278c0 -58 -17 -108 -48 -149c-69 -90 -204 -135 -365 -135c-86 0 -237 18 -284 66v-246h-280v736h271v-67c46 48 175 85 312 85c175 0 290 -48 349 -132c30 -43 45 -96 45 -158zM781 281c0 20 -7 37 -19 52c-33 38 -103 60 -193 60s-160 -22 -191 -61
c-13 -17 -19 -34 -19 -54c0 -18 5 -34 17 -49c31 -39 102 -61 194 -61c96 0 167 21 195 62c10 15 16 32 16 51z" />
    <glyph glyph-name="q" unicode="q" horiz-adv-x="1115" 
d="M1045 -186h-269l-6 5v232c-72 -40 -174 -62 -322 -62c-164 0 -286 45 -353 124c-38 44 -60 98 -60 160c0 70 24 127 62 172c72 82 205 124 355 124c182 0 281 -36 333 -79c0 7 2 58 2 58h252v-648c0 -37 1 -70 6 -86zM767 279c0 22 -6 41 -21 56c-35 38 -110 60 -207 60
c-93 0 -174 -19 -207 -60c-13 -16 -19 -34 -19 -57c0 -21 5 -39 19 -55c33 -41 110 -60 212 -60c100 0 172 18 206 62c10 14 17 34 17 54z" />
    <glyph glyph-name="r" unicode="r" horiz-adv-x="720" 
d="M706 559v-238c-48 13 -91 21 -152 21c-96 0 -183 -48 -183 -162v-180h-283v550h273v-103c20 50 97 91 190 105c59 9 110 10 155 7z" />
    <glyph glyph-name="s" unicode="s" horiz-adv-x="973" 
d="M942 175c0 -127 -127 -187 -438 -187c-318 0 -435 50 -478 171c-5 16 -7 22 -8 35h284c1 -11 3 -16 12 -25c19 -19 66 -27 187 -27c157 0 170 9 170 31c0 20 -21 24 -147 31c-32 2 -86 6 -130 9c-228 17 -363 54 -363 171c0 120 145 187 418 187c268 0 403 -42 449 -156
c7 -18 9 -31 11 -44h-275c-1 8 -4 14 -13 21c-19 15 -66 22 -156 22c-141 0 -158 -8 -158 -29s19 -23 155 -30c51 -3 124 -8 187 -12c201 -11 293 -57 293 -168z" />
    <glyph glyph-name="t" unicode="t" horiz-adv-x="724" 
d="M672 355h-237v-121c0 -45 27 -61 101 -61c34 0 108 4 134 11v-168c-41 -17 -152 -28 -253 -28c-137 0 -263 41 -263 201v166h-142v190h142c7 46 6 137 6 137l272 8v-145h240v-190z" />
    <glyph glyph-name="u" unicode="u" horiz-adv-x="1060" 
d="M968 0c0 1 -3 43 -3 92v458h-281v-247c0 -71 -70 -119 -174 -119c-73 0 -151 22 -151 117c0 166 -3 249 -12 249c9 0 -284 0 -284 0c10 -12 14 -11 14 -328c0 -199 138 -237 303 -237c136 0 251 25 313 113l7 -98h268z" />
    <glyph glyph-name="v" unicode="v" horiz-adv-x="993" 
d="M1010 550l-346 -550h-322l-359 550h297l224 -364l216 364h290z" />
    <glyph glyph-name="w" unicode="w" horiz-adv-x="1524" 
d="M1518 550l-305 -550h-303l-143 323l-9 27l-10 -26l-141 -324h-303l-297 550h288l166 -327l145 327h324l153 -327l163 327h272z" />
    <glyph glyph-name="x" unicode="x" horiz-adv-x="1021" 
d="M518 418l158 132h324l-329 -263l350 -287h-342l-173 149l-179 -149h-324l350 280l-330 270h341z" />
    <glyph glyph-name="y" unicode="y" horiz-adv-x="1045" 
d="M1036 550l-468 -736h-309l121 180l-373 556h296l226 -344l215 344h292z" />
    <glyph glyph-name="z" unicode="z" horiz-adv-x="970" 
d="M921 0h-868v169l392 198h-374v178h824v-164l-415 -203h441v-178z" />
    <glyph glyph-name="braceleft" unicode="{" horiz-adv-x="691" 
d="M630 -181h-231c-133 0 -186 65 -186 122s20 114 20 166c0 54 -32 115 -181 115v191c141 0 181 40 181 90c0 62 -23 92 -23 147c0 67 80 131 189 131h231v-208c-122 5 -171 -20 -170 -61c0 -34 10 -54 10 -74c0 -48 -37 -91 -129 -99c93 -5 129 -42 129 -112
c0 -42 -13 -79 -13 -121c-1 -52 47 -83 173 -78v-209z" />
    <glyph glyph-name="bar" unicode="|" horiz-adv-x="457" 
d="M339 -200h-214v1000h214v-1000z" />
    <glyph glyph-name="braceright" unicode="}" horiz-adv-x="691" 
d="M61 -181v209c125 -5 174 26 173 78c-1 42 -13 79 -13 121c0 70 35 107 129 112c-92 8 -129 51 -129 99c0 20 9 40 10 74c1 41 -48 66 -170 61v208h230c109 0 189 -64 189 -131c0 -55 -23 -85 -23 -147c0 -50 40 -90 181 -90v-191c-149 0 -181 -61 -181 -115
c0 -52 20 -109 20 -166s-53 -122 -186 -122h-230z" />
    <glyph glyph-name="asciitilde" unicode="~" horiz-adv-x="977" 
d="M514 227c-71 50 -123 108 -166 108c-73 0 -87 -62 -88 -122h-247c0 214 70 367 263 367c98 0 170 -51 229 -102c62 -51 108 -102 150 -102c50 0 79 40 79 109h222c9 -203 -67 -337 -237 -337c-86 0 -150 38 -205 79z" />
    <glyph glyph-name="Adieresis" unicode="&#xc4;" horiz-adv-x="1351" 
d="M389 123l-83 -123h-314l528 781h335l502 -781h-322l-80 123h-566zM841 309c1 0 -124 191 -124 191l-40 67l-43 -67l-128 -191h335zM930 835h-200v178h200v-178zM631 835h-201v178h201v-178z" />
    <glyph glyph-name="Aring" unicode="&#xc5;" horiz-adv-x="1351" 
d="M553 781c-23 18 -39 62 -39 99c0 93 78 167 173 167c96 0 172 -74 172 -167c0 -37 -16 -77 -39 -99h35l502 -781h-322l-80 123h-566l-83 -123h-314l528 781h33zM687 939c-31 0 -58 -25 -58 -59c0 -30 27 -57 58 -57s57 27 57 57c0 34 -25 59 -57 59zM841 309l-124 191
l-40 67l-43 -67l-128 -191h335z" />
    <glyph glyph-name="Ccedilla" unicode="&#xc7;" horiz-adv-x="1312" 
d="M576 -10c-244 14 -395 87 -472 193c-41 58 -63 129 -63 209c0 75 20 144 60 199c90 123 269 205 563 205c374 0 524 -131 584 -253c17 -37 22 -74 24 -93h-309c-3 10 -10 24 -20 35c-34 43 -126 86 -281 86c-146 0 -258 -37 -300 -109c-12 -20 -17 -44 -17 -72
c0 -27 6 -50 18 -70c48 -77 173 -108 299 -108c138 0 248 20 292 87c7 9 10 22 11 31h309c-4 -25 -13 -73 -27 -102c-69 -147 -234 -232 -543 -239v-10c0 -32 115 -10 115 -102c0 -80 -118 -115 -290 -61v88c63 -25 122 -25 122 6c0 30 -75 22 -75 64v16z" />
    <glyph glyph-name="Eacute" unicode="&#xc9;" horiz-adv-x="1135" 
d="M1074 0h-974v781h965v-206h-676v-87h659v-195h-659v-88h685v-205zM433 828l102 194h280l-133 -194h-249z" />
    <glyph glyph-name="Ntilde" unicode="&#xd1;" horiz-adv-x="1279" 
d="M1181 0h-288l-510 450v-450h-283v781h303l498 -439v439h280v-781zM681 846c-31 14 -69 34 -91 34c-23 0 -40 -15 -40 -45h-171c0 132 43 194 152 194c49 0 79 -12 108 -26c23 -12 42 -22 64 -22c26 0 40 5 42 39h168c0 -153 -59 -196 -126 -196c-47 0 -71 6 -106 22z" />
    <glyph glyph-name="Odieresis" unicode="&#xd6;" horiz-adv-x="1344" 
d="M672 802c243 0 419 -50 530 -156c71 -68 101 -149 101 -251c0 -105 -35 -189 -100 -253c-103 -105 -287 -154 -531 -154c-240 0 -419 53 -526 156c-67 64 -105 146 -105 253c0 93 31 172 99 237c116 116 292 168 532 168zM671 204c232 0 333 90 333 190
c0 88 -85 188 -334 188c-238 0 -330 -98 -330 -188c0 -100 97 -190 331 -190zM920 836h-200v178h200v-178zM621 836h-201v178h201v-178z" />
    <glyph glyph-name="Udieresis" unicode="&#xdc;" horiz-adv-x="1332" 
d="M1231 344c0 -239 -221 -355 -575 -355c-326 0 -550 119 -550 389v403h296v-413c0 -101 94 -165 271 -165c170 0 266 65 266 165v413h292v-437zM924 835h-200v178h200v-178zM625 835h-201v178h201v-178z" />
    <glyph glyph-name="aacute" unicode="&#xe1;" horiz-adv-x="1058" 
d="M990 0h-272s-5 28 -7 45c-42 -28 -169 -57 -351 -57c-204 0 -323 53 -323 155v15c0 111 128 178 427 178c68 0 175 -6 240 -14c-5 38 -27 77 -182 77c-120 0 -165 -20 -174 -47h-272c3 20 11 39 22 61c49 110 205 158 433 158c246 0 383 -60 425 -171
c12 -30 22 -79 20 -128c-2 -26 -2 -87 -2 -138c0 -57 4 -110 16 -134zM708 198c-42 12 -135 19 -188 19c-150 0 -192 -12 -192 -46c0 -26 27 -41 185 -41c84 0 177 24 195 68zM403 594l102 194h280l-133 -194h-249z" />
    <glyph glyph-name="agrave" unicode="&#xe0;" horiz-adv-x="1058" 
d="M990 0h-272s-5 28 -7 45c-42 -28 -169 -57 -351 -57c-204 0 -323 53 -323 155v15c0 111 128 178 427 178c68 0 175 -6 240 -14c-5 38 -27 77 -182 77c-120 0 -165 -20 -174 -47h-272c3 20 11 39 22 61c49 110 205 158 433 158c246 0 383 -60 425 -171
c12 -30 22 -79 20 -128c-2 -26 -2 -87 -2 -138c0 -57 4 -110 16 -134zM708 198c-42 12 -135 19 -188 19c-150 0 -192 -12 -192 -46c0 -26 27 -41 185 -41c84 0 177 24 195 68zM672 594h-248l-134 194h280z" />
    <glyph glyph-name="acircumflex" unicode="&#xe2;" horiz-adv-x="1058" 
d="M990 0h-272s-5 28 -7 45c-42 -28 -169 -57 -351 -57c-204 0 -323 53 -323 155v15c0 111 128 178 427 178c68 0 175 -6 240 -14c-5 38 -27 77 -182 77c-120 0 -165 -20 -174 -47h-272c3 20 11 39 22 61c49 110 205 158 433 158c246 0 383 -60 425 -171
c12 -30 22 -79 20 -128c-2 -26 -2 -87 -2 -138c0 -57 4 -110 16 -134zM708 198c-42 12 -135 19 -188 19c-150 0 -192 -12 -192 -46c0 -26 27 -41 185 -41c84 0 177 24 195 68zM808 600h-204l-67 71l-68 -71h-203l140 188h261z" />
    <glyph glyph-name="adieresis" unicode="&#xe4;" horiz-adv-x="1058" 
d="M990 0h-272s-5 28 -7 45c-42 -28 -169 -57 -351 -57c-204 0 -323 53 -323 155v15c0 111 128 178 427 178c68 0 175 -6 240 -14c-5 38 -27 77 -182 77c-120 0 -165 -20 -174 -47h-272c3 20 11 39 22 61c49 110 205 158 433 158c246 0 383 -60 425 -171
c12 -30 22 -79 20 -128c-2 -26 -2 -87 -2 -138c0 -57 4 -110 16 -134zM708 198c-42 12 -135 19 -188 19c-150 0 -192 -12 -192 -46c0 -26 27 -41 185 -41c84 0 177 24 195 68zM787 601h-200v178h200v-178zM488 601h-201v178h201v-178z" />
    <glyph glyph-name="atilde" unicode="&#xe3;" horiz-adv-x="1058" 
d="M990 0h-272s-5 28 -7 45c-42 -28 -169 -57 -351 -57c-204 0 -323 53 -323 155v15c0 111 128 178 427 178c68 0 175 -6 240 -14c-5 38 -27 77 -182 77c-120 0 -165 -20 -174 -47h-272c3 20 11 39 22 61c49 110 205 158 433 158c246 0 383 -60 425 -171
c12 -30 22 -79 20 -128c-2 -26 -2 -87 -2 -138c0 -57 4 -110 16 -134zM708 198c-42 12 -135 19 -188 19c-150 0 -192 -12 -192 -46c0 -26 27 -41 185 -41c84 0 177 24 195 68zM572 612c-31 14 -69 34 -91 34c-23 0 -40 -15 -40 -45h-171c0 132 43 194 152 194
c49 0 79 -12 108 -26c23 -12 42 -22 64 -22c26 0 40 5 42 39h168c0 -153 -59 -196 -126 -196c-47 0 -71 6 -106 22z" />
    <glyph glyph-name="aring" unicode="&#xe5;" horiz-adv-x="1058" 
d="M525 904c96 0 172 -74 172 -167c0 -89 -73 -163 -165 -166c245 0 382 -60 424 -171c12 -30 22 -79 20 -128c-2 -26 -2 -87 -2 -138c0 -57 4 -110 16 -134h-272s-5 28 -7 45c-42 -28 -169 -57 -351 -57c-204 0 -323 53 -323 155v15c0 111 128 178 427 178
c68 0 175 -6 240 -14c-5 38 -27 77 -182 77c-120 0 -165 -20 -174 -47h-272c3 20 11 39 22 61c48 108 199 156 420 158c-92 3 -166 77 -166 166c0 93 78 167 173 167zM708 198c-42 12 -135 19 -188 19c-150 0 -192 -12 -192 -46c0 -26 27 -41 185 -41c84 0 177 24 195 68z
M525 796c-31 0 -58 -25 -58 -59c0 -30 27 -57 58 -57s57 27 57 57c0 34 -25 59 -57 59z" />
    <glyph glyph-name="ccedilla" unicode="&#xe7;" horiz-adv-x="1047" 
d="M467 -10c-184 11 -312 59 -378 135c-34 39 -54 92 -54 152c0 59 21 110 56 152c78 90 235 142 449 142c231 0 366 -56 430 -154c20 -31 36 -72 42 -112h-267c-2 8 -5 18 -14 30c-29 38 -96 59 -189 59c-97 0 -168 -21 -205 -61c-11 -12 -20 -33 -20 -55
c0 -21 7 -42 20 -57c33 -39 107 -59 201 -59c93 0 146 11 176 35c11 9 22 23 27 34h272c-3 -36 -18 -73 -46 -107c-61 -72 -180 -127 -372 -135v-10c0 -32 115 -10 115 -102c0 -80 -118 -115 -290 -61v88c63 -25 122 -25 122 6c0 30 -75 22 -75 64v16z" />
    <glyph glyph-name="eacute" unicode="&#xe9;" horiz-adv-x="1060" 
d="M1023 182c-5 -15 -13 -29 -27 -46c-52 -72 -198 -148 -462 -148c-200 0 -358 38 -441 128c-43 48 -62 99 -62 162c0 59 23 112 61 153c86 94 253 140 444 140c272 0 453 -98 485 -266c4 -13 8 -73 8 -87h-720c5 -17 19 -30 41 -45c37 -24 103 -39 190 -39
c63 0 124 10 155 26c12 4 26 14 34 22h294zM747 336c0 14 -10 32 -30 45c-32 21 -97 39 -185 39c-90 0 -164 -19 -194 -45c-15 -12 -24 -25 -26 -39h435zM391 594l102 194h280l-133 -194h-249z" />
    <glyph glyph-name="egrave" unicode="&#xe8;" horiz-adv-x="1060" 
d="M1023 182c-5 -15 -13 -29 -27 -46c-52 -72 -198 -148 -462 -148c-200 0 -358 38 -441 128c-43 48 -62 99 -62 162c0 59 23 112 61 153c86 94 253 140 444 140c272 0 453 -98 485 -266c4 -13 8 -73 8 -87h-720c5 -17 19 -30 41 -45c37 -24 103 -39 190 -39
c63 0 124 10 155 26c12 4 26 14 34 22h294zM747 336c0 14 -10 32 -30 45c-32 21 -97 39 -185 39c-90 0 -164 -19 -194 -45c-15 -12 -24 -25 -26 -39h435zM666 594h-248l-134 194h280z" />
    <glyph glyph-name="ecircumflex" unicode="&#xea;" horiz-adv-x="1060" 
d="M1023 182c-5 -15 -13 -29 -27 -46c-52 -72 -198 -148 -462 -148c-200 0 -358 38 -441 128c-43 48 -62 99 -62 162c0 59 23 112 61 153c86 94 253 140 444 140c272 0 453 -98 485 -266c4 -13 8 -73 8 -87h-720c5 -17 19 -30 41 -45c37 -24 103 -39 190 -39
c63 0 124 10 155 26c12 4 26 14 34 22h294zM747 336c0 14 -10 32 -30 45c-32 21 -97 39 -185 39c-90 0 -164 -19 -194 -45c-15 -12 -24 -25 -26 -39h435zM799 600h-204l-67 71l-68 -71h-203l140 188h261z" />
    <glyph glyph-name="edieresis" unicode="&#xeb;" horiz-adv-x="1060" 
d="M1023 182c-5 -15 -13 -29 -27 -46c-52 -72 -198 -148 -462 -148c-200 0 -358 38 -441 128c-43 48 -62 99 -62 162c0 59 23 112 61 153c86 94 253 140 444 140c272 0 453 -98 485 -266c4 -13 8 -73 8 -87h-720c5 -17 19 -30 41 -45c37 -24 103 -39 190 -39
c63 0 124 10 155 26c12 4 26 14 34 22h294zM747 336c0 14 -10 32 -30 45c-32 21 -97 39 -185 39c-90 0 -164 -19 -194 -45c-15 -12 -24 -25 -26 -39h435zM783 601h-200v178h200v-178zM484 601h-201v178h201v-178z" />
    <glyph glyph-name="iacute" unicode="&#xed;" horiz-adv-x="477" 
d="M399 0h-283c-15 2 -20 37 -20 116v434h281v-432c0 -89 1 -107 22 -118zM101 594l102 194h280l-133 -194h-249z" />
    <glyph glyph-name="igrave" unicode="&#xec;" horiz-adv-x="477" 
d="M399 0h-283c-15 2 -20 37 -20 116v434h281v-432c0 -89 1 -107 22 -118zM373 594h-248l-134 194h280z" />
    <glyph glyph-name="icircumflex" unicode="&#xee;" horiz-adv-x="477" 
d="M399 0h-283c-15 2 -20 37 -20 116v434h281v-432c0 -89 1 -107 22 -118zM503 600h-204l-67 71l-68 -71h-203l140 188h261z" />
    <glyph glyph-name="idieresis" unicode="&#xef;" horiz-adv-x="477" 
d="M399 0h-283c-15 2 -20 37 -20 116v434h281v-432c0 -89 1 -107 22 -118zM479 601h-200v178h200v-178zM180 601h-201v178h201v-178z" />
    <glyph glyph-name="ntilde" unicode="&#xf1;" horiz-adv-x="1063" 
d="M985 0h-279c-6 0 -13 19 -13 240c0 73 -48 119 -157 119c-99 0 -169 -62 -169 -120v-239h-280v550h270v-113c51 97 177 131 310 131c223 0 307 -128 307 -284c0 -274 5 -266 11 -284zM576 612c-31 14 -69 34 -91 34c-23 0 -40 -15 -40 -45h-171c0 132 43 194 152 194
c49 0 79 -12 108 -26c23 -12 42 -22 64 -22c26 0 40 5 42 39h168c0 -153 -59 -196 -126 -196c-47 0 -71 6 -106 22z" />
    <glyph glyph-name="oacute" unicode="&#xf3;" horiz-adv-x="1087" 
d="M1052 278c0 -50 -15 -94 -41 -131c-73 -104 -239 -158 -467 -158c-243 0 -400 60 -469 159c-27 38 -40 82 -40 130c0 47 13 90 41 128c69 100 227 164 468 164c235 0 393 -63 464 -159c29 -39 44 -83 44 -133zM771 278c0 16 -4 30 -16 45c-31 42 -105 68 -210 68
c-108 0 -178 -25 -213 -66c-11 -13 -15 -30 -15 -47c0 -16 3 -32 13 -45c30 -43 110 -68 215 -68c108 0 182 23 212 66c9 13 14 30 14 47zM405 594l102 194h280l-133 -194h-249z" />
    <glyph glyph-name="ograve" unicode="&#xf2;" horiz-adv-x="1087" 
d="M1052 278c0 -50 -15 -94 -41 -131c-73 -104 -239 -158 -467 -158c-243 0 -400 60 -469 159c-27 38 -40 82 -40 130c0 47 13 90 41 128c69 100 227 164 468 164c235 0 393 -63 464 -159c29 -39 44 -83 44 -133zM771 278c0 16 -4 30 -16 45c-31 42 -105 68 -210 68
c-108 0 -178 -25 -213 -66c-11 -13 -15 -30 -15 -47c0 -16 3 -32 13 -45c30 -43 110 -68 215 -68c108 0 182 23 212 66c9 13 14 30 14 47zM686 594h-248l-134 194h280z" />
    <glyph glyph-name="ocircumflex" unicode="&#xf4;" horiz-adv-x="1087" 
d="M1052 278c0 -50 -15 -94 -41 -131c-73 -104 -239 -158 -467 -158c-243 0 -400 60 -469 159c-27 38 -40 82 -40 130c0 47 13 90 41 128c69 100 227 164 468 164c235 0 393 -63 464 -159c29 -39 44 -83 44 -133zM771 278c0 16 -4 30 -16 45c-31 42 -105 68 -210 68
c-108 0 -178 -25 -213 -66c-11 -13 -15 -30 -15 -47c0 -16 3 -32 13 -45c30 -43 110 -68 215 -68c108 0 182 23 212 66c9 13 14 30 14 47zM819 600h-204l-67 71l-68 -71h-203l140 188h261z" />
    <glyph glyph-name="odieresis" unicode="&#xf6;" horiz-adv-x="1087" 
d="M1052 278c0 -50 -15 -94 -41 -131c-73 -104 -239 -158 -467 -158c-243 0 -400 60 -469 159c-27 38 -40 82 -40 130c0 47 13 90 41 128c69 100 227 164 468 164c235 0 393 -63 464 -159c29 -39 44 -83 44 -133zM771 278c0 16 -4 30 -16 45c-31 42 -105 68 -210 68
c-108 0 -178 -25 -213 -66c-11 -13 -15 -30 -15 -47c0 -16 3 -32 13 -45c30 -43 110 -68 215 -68c108 0 182 23 212 66c9 13 14 30 14 47zM797 601h-200v178h200v-178zM498 601h-201v178h201v-178z" />
    <glyph glyph-name="otilde" unicode="&#xf5;" horiz-adv-x="1087" 
d="M1052 278c0 -50 -15 -94 -41 -131c-73 -104 -239 -158 -467 -158c-243 0 -400 60 -469 159c-27 38 -40 82 -40 130c0 47 13 90 41 128c69 100 227 164 468 164c235 0 393 -63 464 -159c29 -39 44 -83 44 -133zM771 278c0 16 -4 30 -16 45c-31 42 -105 68 -210 68
c-108 0 -178 -25 -213 -66c-11 -13 -15 -30 -15 -47c0 -16 3 -32 13 -45c30 -43 110 -68 215 -68c108 0 182 23 212 66c9 13 14 30 14 47zM580 612c-31 14 -69 34 -91 34c-23 0 -40 -15 -40 -45h-171c0 132 43 194 152 194c49 0 79 -12 108 -26c23 -12 42 -22 64 -22
c26 0 40 5 42 39h168c0 -153 -59 -196 -126 -196c-47 0 -71 6 -106 22z" />
    <glyph glyph-name="uacute" unicode="&#xfa;" horiz-adv-x="1060" 
d="M968 0c0 1 -3 43 -3 92v458h-281v-247c0 -71 -70 -119 -174 -119c-73 0 -151 22 -151 117c0 166 -3 249 -12 249c9 0 -284 0 -284 0c10 -12 14 -11 14 -328c0 -199 138 -237 303 -237c136 0 251 25 313 113l7 -98h268zM382 594l102 194h280l-133 -194h-249z" />
    <glyph glyph-name="ugrave" unicode="&#xf9;" horiz-adv-x="1060" 
d="M968 0c0 1 -3 43 -3 92v458h-281v-247c0 -71 -70 -119 -174 -119c-73 0 -151 22 -151 117c0 166 -3 249 -12 249c9 0 -284 0 -284 0c10 -12 14 -11 14 -328c0 -199 138 -237 303 -237c136 0 251 25 313 113l7 -98h268zM665 594h-248l-134 194h280z" />
    <glyph glyph-name="ucircumflex" unicode="&#xfb;" horiz-adv-x="1060" 
d="M968 0c0 1 -3 43 -3 92v458h-281v-247c0 -71 -70 -119 -174 -119c-73 0 -151 22 -151 117c0 166 -3 249 -12 249c9 0 -284 0 -284 0c10 -12 14 -11 14 -328c0 -199 138 -237 303 -237c136 0 251 25 313 113l7 -98h268zM793 600h-204l-67 71l-68 -71h-203l140 188h261z
" />
    <glyph glyph-name="udieresis" unicode="&#xfc;" horiz-adv-x="1060" 
d="M968 0c0 1 -3 43 -3 92v458h-281v-247c0 -71 -70 -119 -174 -119c-73 0 -151 22 -151 117c0 166 -3 249 -12 249c9 0 -284 0 -284 0c10 -12 14 -11 14 -328c0 -199 138 -237 303 -237c136 0 251 25 313 113l7 -98h268zM778 601h-200v178h200v-178zM479 601h-201v178h201
v-178z" />
    <glyph glyph-name="dagger" unicode="&#x2020;" horiz-adv-x="907" 
d="M889 320h-285v-284l-157 -202l-150 202v284h-278v235h278c-1 86 -1 239 -1 239h308v-239h285v-235z" />
    <glyph glyph-name="degree" unicode="&#xb0;" horiz-adv-x="506" 
d="M254 792c121 0 220 -94 220 -220c0 -127 -99 -221 -220 -221c-123 0 -222 94 -222 221c0 126 99 220 222 220zM254 641c-40 0 -72 -32 -72 -68c0 -40 32 -68 72 -68s71 28 71 68c0 36 -31 68 -71 68z" />
    <glyph glyph-name="cent" unicode="&#xa2;" horiz-adv-x="1014" 
d="M605 499v-213c48 3 78 11 95 24c11 10 21 25 24 36h267c-3 -37 -18 -74 -46 -107c-58 -68 -168 -120 -340 -133c0 1 0 -171 0 -171h-178v172c-177 11 -298 56 -361 132c-35 42 -53 93 -53 153c0 59 19 111 53 153c66 78 192 126 361 138v114h178v-114
c179 -12 290 -66 346 -151c20 -32 34 -70 40 -112h-264c-1 8 -3 22 -11 34c-18 23 -57 38 -111 45zM427 290v206c-52 -6 -92 -19 -112 -43c-12 -14 -21 -35 -21 -58s7 -45 19 -61c20 -24 59 -38 114 -44z" />
    <glyph glyph-name="sterling" unicode="&#xa3;" horiz-adv-x="1129" 
d="M154 415c-28 33 -57 71 -57 125v32c1 119 115 222 469 222s456 -126 477 -284c1 -10 2 -21 2 -30h-315c0 18 -1 21 -2 31c-6 44 -53 74 -145 74c-102 0 -141 -34 -142 -70c-1 -8 0 -22 0 -26c0 -27 16 -52 29 -74h450v-120h-430c3 -36 -3 -78 -77 -89h652v-206h-988v218
c97 18 109 43 112 77h-102v120h67z" />
    <glyph glyph-name="section" unicode="&#xa7;" horiz-adv-x="902" 
d="M199 516c-62 16 -90 54 -94 92c-1 4 -1 9 -1 14c1 103 97 172 341 172c172 0 304 -55 326 -158c2 -11 6 -24 5 -35h-225c0 5 -1 20 -2 27c-6 28 -33 41 -101 41c-76 0 -99 -11 -101 -32v-5c1 -29 32 -47 170 -68c13 -2 90 -14 102 -17c152 -21 183 -66 183 -115
c0 -62 -41 -95 -108 -115c104 -25 154 -47 164 -117c1 -6 2 -12 2 -18c0 -116 -115 -194 -400 -194c-225 0 -384 47 -423 172c-3 10 -5 23 -7 34h316c0 -7 0 -21 1 -28c7 -37 49 -52 128 -52c83 0 108 16 109 40v5c0 36 -63 41 -129 52c-23 3 -207 36 -231 41
c-112 23 -170 60 -170 131c0 84 64 125 145 133zM504 365c20 2 40 13 40 35c0 24 -11 37 -173 61c-20 -2 -37 -17 -37 -38c0 -36 18 -35 170 -58z" />
    <glyph glyph-name="bullet" unicode="&#x2022;" horiz-adv-x="630" 
d="M316 110c-138 0 -252 108 -252 249c0 142 114 251 252 251s251 -109 251 -251c0 -141 -113 -249 -251 -249z" />
    <glyph glyph-name="paragraph" unicode="&#xb6;" horiz-adv-x="989" 
d="M908 784v-930h-81v822h-53v-822h-83v369c-32 -31 -143 -79 -249 -79c-218 0 -308 83 -357 187c-21 41 -31 89 -31 143s16 106 41 149c54 95 163 165 340 165c126 0 213 -37 255 -66l6 62h212zM686 474v57c-7 35 -67 71 -156 71c-56 0 -107 -10 -143 -37
c-25 -20 -49 -53 -49 -94c0 -45 17 -75 45 -96c32 -27 86 -37 148 -37c80 0 149 30 154 74c1 2 1 37 1 62z" />
    <glyph glyph-name="germandbls" unicode="&#xdf;" horiz-adv-x="1439" 
d="M515 619c-70 0 -89 -42 -89 -84v-535h-285v354h-124v191h124v27c0 161 136 230 397 230c236 0 357 -97 357 -203c0 -99 -111 -118 -111 -158c0 -45 47 -47 159 -52c51 -3 118 -8 187 -13c199 -12 293 -72 293 -194c0 -127 -136 -194 -438 -194c-299 0 -428 61 -475 180
c-7 18 -8 19 -10 35h289c1 -12 3 -14 10 -23c20 -28 75 -28 183 -28c138 0 165 6 165 33c0 26 -33 32 -142 38c-32 2 -138 12 -204 16c-202 10 -288 38 -288 138c0 78 84 112 84 174c0 35 -25 68 -82 68z" />
    <glyph glyph-name="registered" unicode="&#xae;" horiz-adv-x="1203" 
d="M1149 266c-1 -186 -214 -335 -547 -335c-339 0 -547 138 -547 335v206c1 201 225 328 547 328c320 0 546 -135 547 -329v-205zM1097 280v177c-1 173 -225 291 -495 291c-268 0 -494 -104 -495 -290v-178c0 -180 197 -298 495 -298c279 0 495 126 495 298zM955 103h-262
l-97 184h-82v-184h-242v533h426c90 0 148 -21 184 -49c43 -34 55 -80 55 -117c0 -55 -18 -90 -42 -114c-20 -19 -43 -30 -66 -38zM699 434c0 36 -21 50 -50 50h-135v-98h131c34 0 54 8 54 48z" />
    <glyph glyph-name="copyright" unicode="&#xa9;" horiz-adv-x="1203" 
d="M1149 263c-1 -186 -214 -332 -547 -332c-339 0 -547 135 -547 332v213c1 202 225 324 547 324c320 0 546 -130 547 -324v-213zM1097 277v184c-1 174 -225 287 -495 287c-268 0 -494 -100 -495 -286v-185c0 -188 209 -295 495 -295c279 0 495 123 495 295zM1002 331
c-1 -20 -6 -61 -12 -81c-38 -117 -161 -178 -387 -178c-206 0 -289 56 -342 136c-30 47 -40 102 -40 160c0 62 12 110 36 151c50 84 153 135 344 135c236 0 358 -77 387 -172c6 -19 12 -54 13 -79h-292c0 47 -17 79 -98 79c-78 0 -104 -44 -104 -116c0 -99 32 -119 101 -119
c76 0 100 13 104 84h290z" />
    <glyph glyph-name="trademark" unicode="&#x2122;" horiz-adv-x="1416" 
d="M1131 452v141c0 22 -9 36 -32 36s-36 -20 -36 -48v-129h-240v143c0 21 -11 34 -33 34c-23 0 -36 -22 -36 -48v-129h-242v333h242v-46c16 30 87 51 165 51c77 0 105 -13 126 -52c26 36 77 52 155 52c126 0 186 -71 186 -130v-208h-255zM476 646h-142v-41
c0 -14 14 -27 54 -27c16 0 43 0 53 2v-126c-22 -7 -92 -11 -137 -11c-107 0 -169 39 -169 122v81h-129v139h470v-139z" />
    <glyph glyph-name="acute" unicode="&#xb4;" 
d="M153 594l102 194h280l-133 -194h-249z" />
    <glyph glyph-name="dieresis" unicode="&#xa8;" 
d="M543 601h-200v178h200v-178zM244 601h-201v178h201v-178z" />
    <glyph glyph-name="notequal" unicode="&#x2260;" horiz-adv-x="912" 
d="M867 142h-536l-61 -79h-98l61 79h-188v191s339 0 338 0l49 64h-387v192h538l79 100h97l-79 -100h187v-192h-337l-49 -64h386v-191z" />
    <glyph glyph-name="AE" unicode="&#xc6;" horiz-adv-x="1817" 
d="M1762 781v-206h-676v-87h659v-195h-659v-88h685v-205h-969v121h-379l-128 -121h-326l808 781h985zM802 501l-58 -69l-151 -138h209v207z" />
    <glyph glyph-name="Oslash" unicode="&#xd8;" horiz-adv-x="1344" 
d="M216 83c-30 18 -55 40 -77 63c-64 63 -98 146 -98 251c0 94 33 176 99 239c104 108 292 165 532 165c130 0 243 -15 334 -43c9 5 49 40 49 40h175s-95 -83 -105 -90c29 -17 55 -37 78 -60c66 -65 100 -150 100 -253c0 -105 -35 -190 -100 -254
c-103 -105 -287 -153 -531 -153c-130 0 -243 15 -335 44l-82 -65h-178s126 107 139 116zM413 263c1 1 384 303 384 303c-34 10 -77 15 -127 15c-153 0 -249 -43 -291 -94c-26 -26 -39 -58 -39 -93c0 -42 19 -79 47 -106c6 -8 15 -16 26 -25zM925 524
c0 1 -384 -303 -384 -303c36 -10 81 -15 130 -15c161 0 255 41 296 99c24 23 37 55 37 89s-10 65 -36 93c-12 12 -25 26 -43 37z" />
    <glyph glyph-name="infinity" unicode="&#x221e;" horiz-adv-x="1018" 
d="M979 377c0 -94 -66 -161 -272 -161c-107 0 -168 22 -208 53c-42 -31 -103 -53 -201 -53c-195 0 -259 63 -259 154c0 99 79 160 256 160c128 0 183 -34 217 -74c45 40 115 74 213 74c185 0 254 -56 254 -153zM782 377c0 39 -26 55 -80 55c-62 0 -91 -35 -123 -77
c21 -22 51 -37 105 -37c61 0 98 24 98 59zM308 318c50 0 85 20 116 49c-23 35 -49 63 -110 63c-56 0 -78 -26 -78 -60c0 -32 22 -52 72 -52z" />
    <glyph glyph-name="plusminus" unicode="&#xb1;" horiz-adv-x="937" 
d="M869 416h-300v-176h-200v176h-301v161h299v175h202v-175h300v-161zM869 35h-801v172h801v-172z" />
    <glyph glyph-name="lessequal" unicode="&#x2264;" horiz-adv-x="936" 
d="M869 236l-801 182v163l801 183v-176l-539 -88l539 -88v-176zM869 35h-801v172h801v-172z" />
    <glyph glyph-name="greaterequal" unicode="&#x2265;" horiz-adv-x="936" 
d="M869 418l-801 -182v176l538 88l-538 88v176l801 -183v-163zM869 35h-801v172h801v-172z" />
    <glyph glyph-name="yen" unicode="&#xa5;" horiz-adv-x="1341" 
d="M522 148h-438v91h438v17l-520 525h345l325 -312l328 312h339l-524 -524v-18h434v-91h-434v-24h434v-91h-434v-33h-293v33h-438v91h438v24z" />
    <glyph glyph-name="mu" unicode="&#xb5;" horiz-adv-x="1068" 
d="M992 0h-267l-8 112c-41 -66 -107 -92 -173 -105c-66 -8 -116 -2 -160 15v-208h-295v736h283c9 0 12 -93 12 -254c0 -101 77 -126 150 -126c105 0 175 51 175 127v253h280v-454c0 -55 3 -95 3 -96z" />
    <glyph glyph-name="mu" unicode="&#x3bc;" horiz-adv-x="1068" 
d="M992 0h-267l-8 112c-41 -66 -107 -92 -173 -105c-66 -8 -116 -2 -160 15v-208h-295v736h283c9 0 12 -93 12 -254c0 -101 77 -126 150 -126c105 0 175 51 175 127v253h280v-454c0 -55 3 -95 3 -96z" />
    <glyph glyph-name="partialdiff" unicode="&#x2202;" horiz-adv-x="793" 
d="M377 554l5 58h-377v183h783v-183h-376l6 -58c71 -11 126 -74 126 -148c0 -75 -55 -138 -127 -148l-6 -56h377v-197h-783v197h376l-6 56c-70 11 -124 73 -124 148c0 74 56 137 126 148zM659 675c15 6 36 14 46 18c26 9 11 40 -10 17c-9 -9 -25 -23 -36 -35zM141 663
c-11 12 -27 26 -36 35c-21 23 -36 -8 -10 -17c10 -4 31 -12 46 -18zM412 491v-47l-16 -34l-14 34v47c-40 -8 -71 -43 -71 -85s30 -76 70 -84v47l15 33l15 -33v-47c40 7 72 42 72 84s-31 77 -71 85zM663 127c11 -12 27 -26 36 -35c21 -23 36 8 10 17c-10 4 -31 12 -46 18z
M123 113c-15 -6 -36 -14 -46 -18c-26 -9 -11 -40 10 -17c9 9 25 23 36 35z" />
    <glyph glyph-name="summation" unicode="&#x2211;" horiz-adv-x="793" 
d="M377 554l5 58h-377v183h783v-183h-376l6 -58c71 -11 126 -74 126 -148c0 -75 -55 -138 -127 -148l-6 -56h377v-197h-783v197h376l-6 56c-70 11 -124 73 -124 148c0 74 56 137 126 148zM659 675c15 6 36 14 46 18c26 9 11 40 -10 17c-9 -9 -25 -23 -36 -35zM141 663
c-11 12 -27 26 -36 35c-21 23 -36 -8 -10 -17c10 -4 31 -12 46 -18zM412 491v-47l-16 -34l-14 34v47c-40 -8 -71 -43 -71 -85s30 -76 70 -84v47l15 33l15 -33v-47c40 7 72 42 72 84s-31 77 -71 85zM663 127c11 -12 27 -26 36 -35c21 -23 36 8 10 17c-10 4 -31 12 -46 18z
M123 113c-15 -6 -36 -14 -46 -18c-26 -9 -11 -40 10 -17c9 9 25 23 36 35z" />
    <glyph glyph-name="product" unicode="&#x220f;" horiz-adv-x="793" 
d="M377 554l5 58h-377v183h783v-183h-376l6 -58c71 -11 126 -74 126 -148c0 -75 -55 -138 -127 -148l-6 -56h377v-197h-783v197h376l-6 56c-70 11 -124 73 -124 148c0 74 56 137 126 148zM659 675c15 6 36 14 46 18c26 9 11 40 -10 17c-9 -9 -25 -23 -36 -35zM141 663
c-11 12 -27 26 -36 35c-21 23 -36 -8 -10 -17c10 -4 31 -12 46 -18zM412 491v-47l-16 -34l-14 34v47c-40 -8 -71 -43 -71 -85s30 -76 70 -84v47l15 33l15 -33v-47c40 7 72 42 72 84s-31 77 -71 85zM663 127c11 -12 27 -26 36 -35c21 -23 36 8 10 17c-10 4 -31 12 -46 18z
M123 113c-15 -6 -36 -14 -46 -18c-26 -9 -11 -40 10 -17c9 9 25 23 36 35z" />
    <glyph glyph-name="pi" unicode="&#x3c0;" horiz-adv-x="1203" 
d="M1149 266c-1 -186 -214 -335 -547 -335c-339 0 -547 138 -547 335v206c1 201 225 328 547 328c320 0 546 -135 547 -329v-205zM1097 280v177c-1 173 -225 291 -495 291c-268 0 -494 -104 -495 -290v-178c0 -180 187 -298 495 -298c279 0 495 126 495 298zM516 255v-152
h-243v533h426c90 0 148 -23 185 -53c42 -37 54 -87 54 -137c0 -51 -14 -111 -46 -140c-34 -31 -110 -51 -167 -51h-209zM700 434c0 35 -23 50 -50 50h-134v-98h130c33 0 54 7 54 48z" />
    <glyph glyph-name="integral" unicode="&#x222b;" horiz-adv-x="793" 
d="M377 554l5 58h-377v183h783v-183h-376l6 -58c71 -11 126 -74 126 -148c0 -75 -55 -138 -127 -148l-6 -56h377v-197h-783v197h376l-6 56c-70 11 -124 73 -124 148c0 74 56 137 126 148zM659 675c15 6 36 14 46 18c26 9 11 40 -10 17c-9 -9 -25 -23 -36 -35zM141 663
c-11 12 -27 26 -36 35c-21 23 -36 -8 -10 -17c10 -4 31 -12 46 -18zM412 491v-47l-16 -34l-14 34v47c-40 -8 -71 -43 -71 -85s30 -76 70 -84v47l15 33l15 -33v-47c40 7 72 42 72 84s-31 77 -71 85zM663 127c11 -12 27 -26 36 -35c21 -23 36 8 10 17c-10 4 -31 12 -46 18z
M123 113c-15 -6 -36 -14 -46 -18c-26 -9 -11 -40 10 -17c9 9 25 23 36 35z" />
    <glyph glyph-name="ordfeminine" unicode="&#xaa;" horiz-adv-x="847" 
d="M809 231h-240s-18 48 -16 68c-43 -36 -115 -69 -268 -69c-144 0 -249 44 -258 119c-3 17 -4 60 5 84c19 63 128 108 295 123c70 9 139 7 204 7c1 25 -2 48 -13 65c-17 28 -45 39 -98 39c-57 0 -84 -14 -99 -37c-4 -8 -8 -22 -9 -35h-252c3 17 6 35 11 49
c40 111 164 168 367 168c226 0 310 -68 341 -150c14 -32 16 -84 12 -132c-2 -22 -4 -94 -4 -147c0 -59 3 -128 22 -152zM816 130h-786v69h786v-69zM529 455c-35 1 -68 0 -101 -1c-118 -5 -145 -15 -145 -43c0 -29 30 -34 122 -34c88 0 124 20 124 54c0 2 1 19 0 24z" />
    <glyph glyph-name="ordmasculine" unicode="&#xba;" horiz-adv-x="845" 
d="M835 517c0 -74 -30 -139 -84 -188c-73 -67 -186 -107 -326 -107c-141 0 -252 40 -323 106c-53 50 -82 113 -82 189s32 143 92 194c71 62 177 101 314 101c141 0 252 -38 323 -105c57 -49 86 -115 86 -190zM824 130h-794v69h794v-69zM575 517c0 93 -44 143 -150 143
c-99 0 -146 -49 -146 -143c0 -104 48 -145 149 -145c102 0 147 53 147 145z" />
    <glyph glyph-name="Omega" unicode="&#x3a9;" horiz-adv-x="793" 
d="M377 554l5 58h-377v183h783v-183h-376l6 -58c71 -11 126 -74 126 -148c0 -75 -55 -138 -127 -148l-6 -56h377v-197h-783v197h376l-6 56c-70 11 -124 73 -124 148c0 74 56 137 126 148zM659 675c15 6 36 14 46 18c26 9 11 40 -10 17c-9 -9 -25 -23 -36 -35zM141 663
c-11 12 -27 26 -36 35c-21 23 -36 -8 -10 -17c10 -4 31 -12 46 -18zM412 491v-47l-16 -34l-14 34v47c-40 -8 -71 -43 -71 -85s30 -76 70 -84v47l15 33l15 -33v-47c40 7 72 42 72 84s-31 77 -71 85zM663 127c11 -12 27 -26 36 -35c21 -23 36 8 10 17c-10 4 -31 12 -46 18z
M123 113c-15 -6 -36 -14 -46 -18c-26 -9 -11 -40 10 -17c9 9 25 23 36 35z" />
    <glyph glyph-name="Omega" unicode="&#x2126;" horiz-adv-x="793" 
d="M377 554l5 58h-377v183h783v-183h-376l6 -58c71 -11 126 -74 126 -148c0 -75 -55 -138 -127 -148l-6 -56h377v-197h-783v197h376l-6 56c-70 11 -124 73 -124 148c0 74 56 137 126 148zM659 675c15 6 36 14 46 18c26 9 11 40 -10 17c-9 -9 -25 -23 -36 -35zM141 663
c-11 12 -27 26 -36 35c-21 23 -36 -8 -10 -17c10 -4 31 -12 46 -18zM412 491v-47l-16 -34l-14 34v47c-40 -8 -71 -43 -71 -85s30 -76 70 -84v47l15 33l15 -33v-47c40 7 72 42 72 84s-31 77 -71 85zM663 127c11 -12 27 -26 36 -35c21 -23 36 8 10 17c-10 4 -31 12 -46 18z
M123 113c-15 -6 -36 -14 -46 -18c-26 -9 -11 -40 10 -17c9 9 25 23 36 35z" />
    <glyph glyph-name="ae" unicode="&#xe6;" horiz-adv-x="1715" 
d="M805 81c-51 -51 -192 -93 -429 -93c-196 0 -323 46 -332 147c-1 8 0 16 0 23c7 99 128 176 427 176c68 0 162 -6 235 -13c-5 23 -18 41 -43 54c-28 16 -77 24 -133 24c-99 0 -160 -24 -175 -48h-271c3 20 14 48 30 74c70 112 240 146 441 146c184 0 285 -50 311 -97
c27 51 138 97 328 97c276 0 455 -98 488 -270c3 -14 6 -68 6 -82h-719c3 -9 9 -21 22 -34c29 -31 111 -52 202 -52s156 14 181 30c8 6 17 13 19 19h291c-7 -15 -12 -24 -22 -40c-49 -75 -195 -154 -470 -154c-213 0 -345 54 -387 93zM1408 335c-2 9 -9 23 -23 35
c-39 35 -94 55 -194 55c-93 0 -158 -22 -193 -49c-15 -12 -25 -28 -28 -41h438zM717 218c-65 5 -129 8 -177 8c-164 0 -208 -14 -208 -52c0 -35 34 -47 164 -47c153 0 213 44 221 91z" />
    <glyph glyph-name="oslash" unicode="&#xf8;" horiz-adv-x="1087" 
d="M160 69c-37 23 -65 49 -85 79c-27 38 -40 82 -40 130c0 47 13 90 41 128c69 100 227 164 468 164c124 0 229 -17 309 -49l72 47h133s-130 -84 -130 -85c34 -21 60 -45 80 -72c29 -39 44 -83 44 -133s-15 -94 -41 -131c-73 -104 -239 -158 -467 -158
c-126 0 -228 16 -306 45l-74 -48h-134s130 84 130 83zM364 203l276 179c-28 6 -60 9 -95 9c-108 0 -178 -25 -213 -66c-11 -13 -15 -30 -15 -47c0 -16 3 -32 13 -45c7 -11 19 -22 34 -30zM724 350l-274 -178c28 -4 61 -7 95 -7c108 0 182 23 212 66c9 13 14 30 14 47
c0 16 -4 30 -16 45c-7 10 -18 19 -31 27z" />
    <glyph glyph-name="questiondown" unicode="&#xbf;" horiz-adv-x="1004" 
d="M444 796h297v-259h-297v259zM35 252c4 214 396 162 412 242h291c-6 -184 -350 -149 -355 -218c-1 -8 -1 -13 0 -17c6 -36 44 -59 152 -59c97 0 136 30 144 63c1 9 2 12 2 24h310c-1 -17 -7 -53 -15 -81c-24 -107 -144 -211 -462 -211c-348 0 -477 74 -479 224v33z" />
    <glyph glyph-name="exclamdown" unicode="&#xa1;" horiz-adv-x="485" 
d="M91 793h297v-259h-297v259zM51 -1l47 484h286l43 -484h-376z" />
    <glyph glyph-name="logicalnot" unicode="&#xac;" horiz-adv-x="793" 
d="M377 554l5 58h-377v183h783v-183h-376l6 -58c71 -11 126 -74 126 -148c0 -75 -55 -138 -127 -148l-6 -56h377v-197h-783v197h376l-6 56c-70 11 -124 73 -124 148c0 74 56 137 126 148zM659 675c15 6 36 14 46 18c26 9 11 40 -10 17c-9 -9 -25 -23 -36 -35zM141 663
c-11 12 -27 26 -36 35c-21 23 -36 -8 -10 -17c10 -4 31 -12 46 -18zM412 491v-47l-16 -34l-14 34v47c-40 -8 -71 -43 -71 -85s30 -76 70 -84v47l15 33l15 -33v-47c40 7 72 42 72 84s-31 77 -71 85zM663 127c11 -12 27 -26 36 -35c21 -23 36 8 10 17c-10 4 -31 12 -46 18z
M123 113c-15 -6 -36 -14 -46 -18c-26 -9 -11 -40 10 -17c9 9 25 23 36 35z" />
    <glyph glyph-name="radical" unicode="&#x221a;" horiz-adv-x="1208" 
d="M1195 782l-604 -812h-244l-334 352h347l108 -116l439 576h288z" />
    <glyph glyph-name="florin" unicode="&#x192;" horiz-adv-x="700" 
d="M389 -17c-22 -155 -113 -223 -277 -223c-95 0 -170 10 -205 16v197c14 -2 57 -7 85 -7c46 1 92 23 98 68c3 14 21 200 40 337h-103l1 190h131l5 64c18 127 117 188 312 188c97 0 167 -11 205 -17v-173c-17 2 -87 13 -116 12c-67 0 -104 -8 -109 -46l-4 -28h212v-190h-232
c-6 -47 -39 -359 -43 -388z" />
    <glyph glyph-name="approxequal" unicode="&#x2248;" horiz-adv-x="1031" 
d="M984 654c10 -166 -81 -275 -246 -275c-84 0 -140 21 -193 44c-73 31 -134 68 -204 68c-58 0 -79 -29 -79 -74h-217c-9 166 74 278 242 278c106 0 179 -32 242 -62c53 -26 98 -54 156 -54c57 0 83 30 83 75h216zM984 350c10 -166 -82 -275 -247 -275
c-84 0 -139 21 -192 44c-73 31 -134 68 -204 68c-58 0 -79 -29 -79 -74h-217c-9 166 80 278 242 278c106 0 179 -31 242 -61c53 -26 98 -55 156 -55c57 0 83 30 83 75h216z" />
    <glyph glyph-name="Delta" unicode="&#x394;" horiz-adv-x="793" 
d="M377 554l5 58h-377v183h783v-183h-376l6 -58c71 -11 126 -74 126 -148c0 -75 -55 -138 -127 -148l-6 -56h377v-197h-783v197h376l-6 56c-70 11 -124 73 -124 148c0 74 56 137 126 148zM659 675c15 6 36 14 46 18c26 9 11 40 -10 17c-9 -9 -25 -23 -36 -35zM141 663
c-11 12 -27 26 -36 35c-21 23 -36 -8 -10 -17c10 -4 31 -12 46 -18zM412 491v-47l-16 -34l-14 34v47c-40 -8 -71 -43 -71 -85s30 -76 70 -84v47l15 33l15 -33v-47c40 7 72 42 72 84s-31 77 -71 85zM663 127c11 -12 27 -26 36 -35c21 -23 36 8 10 17c-10 4 -31 12 -46 18z
M123 113c-15 -6 -36 -14 -46 -18c-26 -9 -11 -40 10 -17c9 9 25 23 36 35z" />
    <glyph glyph-name="Delta" unicode="&#x2206;" horiz-adv-x="793" 
d="M377 554l5 58h-377v183h783v-183h-376l6 -58c71 -11 126 -74 126 -148c0 -75 -55 -138 -127 -148l-6 -56h377v-197h-783v197h376l-6 56c-70 11 -124 73 -124 148c0 74 56 137 126 148zM659 675c15 6 36 14 46 18c26 9 11 40 -10 17c-9 -9 -25 -23 -36 -35zM141 663
c-11 12 -27 26 -36 35c-21 23 -36 -8 -10 -17c10 -4 31 -12 46 -18zM412 491v-47l-16 -34l-14 34v47c-40 -8 -71 -43 -71 -85s30 -76 70 -84v47l15 33l15 -33v-47c40 7 72 42 72 84s-31 77 -71 85zM663 127c11 -12 27 -26 36 -35c21 -23 36 8 10 17c-10 4 -31 12 -46 18z
M123 113c-15 -6 -36 -14 -46 -18c-26 -9 -11 -40 10 -17c9 9 25 23 36 35z" />
    <glyph glyph-name="guillemotleft" unicode="&#xab;" horiz-adv-x="1023" 
d="M1000 45l-469 227v172l469 222v-224l-213 -83l213 -90v-224zM496 45l-470 227v172l470 222v-224l-214 -83l214 -90v-224z" />
    <glyph glyph-name="guillemotright" unicode="&#xbb;" horiz-adv-x="1023" 
d="M530 45v224l197 90l-197 83v224l468 -222v-172zM24 45v224l199 90l-199 83v224l470 -222v-172z" />
    <glyph glyph-name="ellipsis" unicode="&#x2026;" horiz-adv-x="1489" 
d="M1403 0h-322v291h322v-291zM907 0h-323v291h323v-291zM411 0h-322v291h322v-291z" />
    <glyph glyph-name="Agrave" unicode="&#xc0;" horiz-adv-x="1351" 
d="M389 123l-83 -123h-314l528 781h335l502 -781h-322l-80 123h-566zM841 309c1 0 -124 191 -124 191l-40 67l-43 -67l-128 -191h335zM802 828h-248l-134 194h280z" />
    <glyph glyph-name="Atilde" unicode="&#xc3;" horiz-adv-x="1351" 
d="M389 123l-83 -123h-314l528 781h335l502 -781h-322l-80 123h-566zM841 309c1 0 -124 191 -124 191l-40 67l-43 -67l-128 -191h335zM711 846c-31 14 -69 34 -91 34c-23 0 -40 -15 -40 -45h-171c0 132 43 194 152 194c49 0 79 -12 108 -26c23 -12 42 -22 64 -22
c26 0 40 5 42 39h168c0 -153 -59 -196 -126 -196c-47 0 -71 6 -106 22z" />
    <glyph glyph-name="Otilde" unicode="&#xd5;" horiz-adv-x="1344" 
d="M672 802c243 0 419 -50 530 -156c71 -68 101 -149 101 -251c0 -105 -35 -189 -100 -253c-103 -105 -287 -154 -531 -154c-240 0 -419 53 -526 156c-67 64 -105 146 -105 253c0 93 31 172 99 237c116 116 292 168 532 168zM671 204c232 0 333 90 333 190
c0 88 -85 188 -334 188c-238 0 -330 -98 -330 -188c0 -100 97 -190 331 -190zM707 846c-31 14 -69 34 -91 34c-23 0 -40 -15 -40 -45h-171c0 132 43 194 152 194c49 0 79 -12 108 -26c23 -12 42 -22 64 -22c26 0 40 5 42 39h168c0 -153 -59 -196 -126 -196
c-47 0 -71 6 -106 22z" />
    <glyph glyph-name="OE" unicode="&#x152;" horiz-adv-x="1957" 
d="M941 781h958v-206h-671v-87h654v-195h-654v-88h680v-205h-967l1 60c-42 -36 -145 -72 -318 -72c-229 0 -399 56 -503 175c-52 61 -80 139 -80 234c0 94 29 173 99 239c117 113 292 165 507 165c123 0 228 -28 295 -68zM671 204c167 0 255 46 280 93c5 12 8 62 8 98
s-1 84 -9 99c-36 43 -117 88 -280 88c-232 0 -330 -85 -330 -188c0 -105 84 -190 331 -190z" />
    <glyph glyph-name="oe" unicode="&#x153;" horiz-adv-x="1786" 
d="M549 -11c-252 0 -406 62 -474 158c-27 38 -40 83 -40 131c0 46 13 90 42 129c67 97 225 163 472 163c207 0 316 -54 366 -96c48 47 160 97 350 97c273 0 452 -98 484 -266c4 -13 10 -73 9 -87h-718c6 -17 18 -30 40 -45c35 -25 103 -39 184 -39c72 0 131 9 162 24
c18 7 30 17 34 24h293c-6 -15 -14 -29 -27 -46c-52 -72 -198 -148 -463 -148c-190 0 -292 44 -356 93c-55 -40 -165 -92 -358 -92zM1477 336c-3 14 -13 29 -32 43c-36 25 -95 44 -183 44c-92 0 -156 -20 -191 -46c-16 -12 -28 -27 -30 -41h436zM778 278c0 15 -4 29 -14 44
c-30 42 -108 69 -215 69c-106 0 -184 -25 -217 -66c-12 -14 -17 -30 -17 -47s5 -33 15 -47c32 -42 110 -66 219 -66c112 0 187 25 216 68c9 13 13 29 13 45z" />
    <glyph glyph-name="endash" unicode="&#x2013;" horiz-adv-x="808" 
d="M768 200h-728v233h728v-233z" />
    <glyph glyph-name="emdash" unicode="&#x2014;" horiz-adv-x="998" 
d="M958 201h-918v232h918v-232z" />
    <glyph glyph-name="quotedblleft" unicode="&#x201c;" horiz-adv-x="904" 
d="M818 570v-300h-319v289l220 241l142 -115l-108 -122l24 8zM399 571v-301h-320v289l220 241l143 -115l-110 -122l25 8h42z" />
    <glyph glyph-name="quotedblright" unicode="&#x201d;" horiz-adv-x="904" 
d="M508 499v301h319v-289l-219 -241l-143 114l109 124l-25 -9h-41zM88 499v301h320v-289l-220 -241l-143 114l109 124l-25 -9h-41z" />
    <glyph glyph-name="quoteleft" unicode="&#x2018;" horiz-adv-x="495" 
d="M429 598v-328h-350v316l220 214l143 -115l-86 -95l28 8h45z" />
    <glyph glyph-name="quoteright" unicode="&#x2019;" horiz-adv-x="495" 
d="M66 472v328h350v-317l-220 -213l-142 114l84 96l-27 -8h-45z" />
    <glyph glyph-name="divide" unicode="&#xf7;" horiz-adv-x="967" 
d="M607 552h-240v161h240v-161zM899 271h-831v206h831v-206zM606 35h-237v161h237v-161z" />
    <glyph glyph-name="lozenge" unicode="&#x25ca;" horiz-adv-x="1280" 
d="M1252 320l-480 -320h-264l-480 320l480 320h264zM892 320l-251 160l-251 -160l251 -168z" />
    <glyph glyph-name="ydieresis" unicode="&#xff;" horiz-adv-x="1045" 
d="M1036 550l-468 -736h-309l121 180l-373 556h296l226 -344l215 344h292zM773 601h-200v178h200v-178zM474 601h-201v178h201v-178z" />
    <glyph glyph-name="Ydieresis" unicode="&#x178;" horiz-adv-x="1343" 
d="M1335 781l-520 -524v-257h-293v256l-521 525h347l325 -320l324 320h338zM921 835h-200v178h200v-178zM622 835h-201v178h201v-178z" />
    <glyph glyph-name="fraction" unicode="&#x2044;" horiz-adv-x="352" 
d="M542 781l-611 -781h-98l609 781h100z" />
    <glyph glyph-name="fraction" unicode="&#x2215;" horiz-adv-x="352" 
d="M542 781l-611 -781h-98l609 781h100z" />
    <glyph glyph-name="currency" unicode="&#xa4;" horiz-adv-x="1190" 
d="M425 404v-24h339v-91h-317c32 -65 100 -98 188 -98c106 0 178 43 200 133h314c-35 -199 -233 -336 -513 -336c-279 0 -460 119 -508 301h-111v91h98v24h-98v91h112c50 171 226 299 506 299c295 0 482 -141 515 -340h-314c-22 81 -87 134 -199 134
c-92 0 -155 -36 -187 -93h314v-91h-339z" />
    <glyph glyph-name="guilsinglleft" unicode="&#x2039;" horiz-adv-x="520" 
d="M496 45l-470 227v172l470 222v-224l-214 -83l214 -90v-224z" />
    <glyph glyph-name="guilsinglright" unicode="&#x203a;" horiz-adv-x="520" 
d="M24 45v224l213 90l-213 83v224l470 -222v-172z" />
    <glyph glyph-name="daggerdbl" unicode="&#x2021;" horiz-adv-x="907" 
d="M605 364h269v-184h-263v-148l-153 -198l-146 197v149h-278v184h285v65h-285v183h278c-1 8 -1 182 -1 182h301s0 -174 -1 -182h263v-183h-269v-65z" />
    <glyph glyph-name="periodcentered" unicode="&#xb7;" horiz-adv-x="491" 
d="M395 253h-300v290h300v-290z" />
    <glyph glyph-name="periodcentered" unicode="&#x2219;" horiz-adv-x="491" 
d="M395 253h-300v290h300v-290z" />
    <glyph glyph-name="quotesinglbase" unicode="&#x201a;" horiz-adv-x="495" 
d="M66 0v328h350v-316l-220 -214l-142 115l84 96l-27 -9h-45z" />
    <glyph glyph-name="quotedblbase" unicode="&#x201e;" horiz-adv-x="904" 
d="M508 0v301h319v-290l-219 -240l-143 113l109 124l-25 -8h-41zM88 0v301h320v-290l-220 -240l-143 113l109 124l-25 -8h-41z" />
    <glyph glyph-name="perthousand" unicode="&#x2030;" horiz-adv-x="2254" 
d="M1470 179c0 -101 -135 -193 -349 -193c-216 0 -337 92 -337 193v39c0 89 132 192 342 192c230 0 344 -109 344 -192v-39zM2215 179c0 -101 -135 -193 -349 -193c-215 0 -337 92 -337 193v39c0 89 132 192 342 192c230 0 344 -109 344 -192v-39zM731 567
c0 -100 -136 -193 -350 -193s-335 93 -335 193v38c0 90 131 193 342 193c229 0 343 -108 343 -193v-38zM1160 781l-679 -781h-136l682 781h133zM529 574v16c0 25 -45 59 -140 59c-103 0 -140 -34 -140 -58v-17c0 -27 43 -53 142 -53c106 0 138 29 138 53zM1267 189v17
c0 21 -43 54 -139 54c-100 0 -140 -32 -140 -54v-17c0 -25 44 -57 140 -57c109 0 139 34 139 57zM2012 189v17c0 21 -42 54 -139 54c-100 0 -140 -32 -140 -54v-17c0 -25 45 -57 140 -57c109 0 139 34 139 57z" />
    <glyph glyph-name="Acircumflex" unicode="&#xc2;" horiz-adv-x="1351" 
d="M389 123l-83 -123h-314l528 781h335l502 -781h-322l-80 123h-566zM841 309c1 0 -124 191 -124 191l-40 67l-43 -67l-128 -191h335zM947 834h-204l-67 71l-68 -71h-203l140 188h261z" />
    <glyph glyph-name="Ecircumflex" unicode="&#xca;" horiz-adv-x="1135" 
d="M1074 0h-974v781h965v-206h-676v-87h659v-195h-659v-88h685v-205zM849 834h-204l-67 71l-68 -71h-203l140 188h261z" />
    <glyph glyph-name="Aacute" unicode="&#xc1;" horiz-adv-x="1351" 
d="M389 123l-83 -123h-314l528 781h335l502 -781h-322l-80 123h-566zM841 309c1 0 -124 191 -124 191l-40 67l-43 -67l-128 -191h335zM546 828l102 194h280l-133 -194h-249z" />
    <glyph glyph-name="Edieresis" unicode="&#xcb;" horiz-adv-x="1135" 
d="M1074 0h-974v781h965v-206h-676v-87h659v-195h-659v-88h685v-205zM827 835h-200v178h200v-178zM528 835h-201v178h201v-178z" />
    <glyph glyph-name="Egrave" unicode="&#xc8;" horiz-adv-x="1135" 
d="M1074 0h-974v781h965v-206h-676v-87h659v-195h-659v-88h685v-205zM738 828h-248l-134 194h280z" />
    <glyph glyph-name="Iacute" unicode="&#xcd;" horiz-adv-x="496" 
d="M401 0h-301v781h301v-781zM118 828l102 194h280l-133 -194h-249z" />
    <glyph glyph-name="Icircumflex" unicode="&#xce;" horiz-adv-x="496" 
d="M401 0h-301v781h301v-781zM519 834h-204l-67 71l-68 -71h-203l140 188h261z" />
    <glyph glyph-name="Idieresis" unicode="&#xcf;" horiz-adv-x="496" 
d="M401 0h-301v781h301v-781zM498 835h-200v178h200v-178zM199 835h-201v178h201v-178z" />
    <glyph glyph-name="Igrave" unicode="&#xcc;" horiz-adv-x="496" 
d="M401 0h-301v781h301v-781zM379 828h-248l-134 194h280z" />
    <glyph glyph-name="Oacute" unicode="&#xd3;" horiz-adv-x="1344" 
d="M672 802c243 0 419 -50 530 -156c71 -68 101 -149 101 -251c0 -105 -35 -189 -100 -253c-103 -105 -287 -154 -531 -154c-240 0 -419 53 -526 156c-67 64 -105 146 -105 253c0 93 31 172 99 237c116 116 292 168 532 168zM671 204c232 0 333 90 333 190
c0 88 -85 188 -334 188c-238 0 -330 -98 -330 -188c0 -100 97 -190 331 -190zM538 828l102 194h280l-133 -194h-249z" />
    <glyph glyph-name="Ocircumflex" unicode="&#xd4;" horiz-adv-x="1344" 
d="M672 802c243 0 419 -50 530 -156c71 -68 101 -149 101 -251c0 -105 -35 -189 -100 -253c-103 -105 -287 -154 -531 -154c-240 0 -419 53 -526 156c-67 64 -105 146 -105 253c0 93 31 172 99 237c116 116 292 168 532 168zM671 204c232 0 333 90 333 190
c0 88 -85 188 -334 188c-238 0 -330 -98 -330 -188c0 -100 97 -190 331 -190zM943 834h-204l-67 71l-68 -71h-203l140 188h261z" />
    <glyph glyph-name="apple" unicode="&#xf8ff;" horiz-adv-x="793" 
d="M377 554l5 58h-377v183h783v-183h-376l6 -58c71 -11 126 -74 126 -148c0 -75 -55 -138 -127 -148l-6 -56h377v-197h-783v197h376l-6 56c-70 11 -124 73 -124 148c0 74 56 137 126 148zM659 675c15 6 36 14 46 18c26 9 11 40 -10 17c-9 -9 -25 -23 -36 -35zM141 663
c-11 12 -27 26 -36 35c-21 23 -36 -8 -10 -17c10 -4 31 -12 46 -18zM412 491v-47l-16 -34l-14 34v47c-40 -8 -71 -43 -71 -85s30 -76 70 -84v47l15 33l15 -33v-47c40 7 72 42 72 84s-31 77 -71 85zM663 127c11 -12 27 -26 36 -35c21 -23 36 8 10 17c-10 4 -31 12 -46 18z
M123 113c-15 -6 -36 -14 -46 -18c-26 -9 -11 -40 10 -17c9 9 25 23 36 35z" />
    <glyph glyph-name="Ograve" unicode="&#xd2;" horiz-adv-x="1344" 
d="M672 802c243 0 419 -50 530 -156c71 -68 101 -149 101 -251c0 -105 -35 -189 -100 -253c-103 -105 -287 -154 -531 -154c-240 0 -419 53 -526 156c-67 64 -105 146 -105 253c0 93 31 172 99 237c116 116 292 168 532 168zM671 204c232 0 333 90 333 190
c0 88 -85 188 -334 188c-238 0 -330 -98 -330 -188c0 -100 97 -190 331 -190zM806 828h-248l-134 194h280z" />
    <glyph glyph-name="Uacute" unicode="&#xda;" horiz-adv-x="1332" 
d="M1231 344c0 -239 -221 -355 -575 -355c-326 0 -550 119 -550 389v403h296v-413c0 -101 94 -165 271 -165c170 0 266 65 266 165v413h292v-437zM530 828l102 194h280l-133 -194h-249z" />
    <glyph glyph-name="Ucircumflex" unicode="&#xdb;" horiz-adv-x="1332" 
d="M1231 344c0 -239 -221 -355 -575 -355c-326 0 -550 119 -550 389v403h296v-413c0 -101 94 -165 271 -165c170 0 266 65 266 165v413h292v-437zM941 834h-204l-67 71l-68 -71h-203l140 188h261z" />
    <glyph glyph-name="Ugrave" unicode="&#xd9;" horiz-adv-x="1332" 
d="M1231 344c0 -239 -221 -355 -575 -355c-326 0 -550 119 -550 389v403h296v-413c0 -101 94 -165 271 -165c170 0 266 65 266 165v413h292v-437zM811 828h-248l-134 194h280z" />
    <glyph glyph-name="dotlessi" unicode="&#x131;" horiz-adv-x="477" 
d="M399 0h-283c-15 2 -20 37 -20 116v434h281v-432c0 -89 1 -107 22 -118z" />
    <glyph glyph-name="circumflex" unicode="&#x2c6;" 
d="M564 600h-204l-67 71l-68 -71h-203l140 188h261z" />
    <glyph glyph-name="tilde" unicode="&#x2dc;" 
d="M328 612c-31 14 -69 34 -91 34c-23 0 -40 -15 -40 -45h-171c0 132 43 194 152 194c49 0 79 -12 108 -26c23 -12 42 -22 64 -22c26 0 40 5 42 39h168c0 -153 -59 -196 -126 -196c-47 0 -71 6 -106 22z" />
    <glyph glyph-name="macron" unicode="&#xaf;" 
d="M523 611h-462v143h462v-143z" />
    <glyph glyph-name="macron" unicode="&#x2c9;" 
d="M523 611h-462v143h462v-143z" />
    <glyph glyph-name="breve" unicode="&#x2d8;" 
d="M522 781c0 -96 -70 -193 -228 -193c-148 0 -233 98 -233 193h172c0 -53 23 -72 59 -72c37 0 59 17 59 72h171z" />
    <glyph glyph-name="dotaccent" unicode="&#x2d9;" 
d="M395 601h-202v178h202v-178z" />
    <glyph glyph-name="ring" unicode="&#x2da;" 
d="M293 894c96 0 172 -74 172 -167c0 -91 -76 -166 -172 -166c-95 0 -173 75 -173 166c0 93 78 167 173 167zM293 786c-31 0 -58 -25 -58 -59c0 -30 27 -57 58 -57s57 27 57 57c0 34 -25 59 -57 59z" />
    <glyph glyph-name="cedilla" unicode="&#xb8;" 
d="M278 -90c0 30 -75 22 -75 64c0 9 -1 22 0 26h128v-21c0 -32 115 -10 115 -102c0 -80 -118 -115 -290 -61v88c63 -25 122 -25 122 6z" />
    <glyph glyph-name="hungarumlaut" unicode="&#x2dd;" 
d="M308 594l102 194h182l-133 -194h-151zM90 594l102 194h182l-133 -194h-151z" />
    <glyph glyph-name="ogonek" unicode="&#x2db;" 
d="M301 -98c0 -17 32 -26 79 -26v-74c-149 0 -215 35 -215 100c0 55 46 98 188 98v-71c-33 -1 -52 -8 -52 -27z" />
    <glyph glyph-name="caron" unicode="&#x2c7;" 
d="M21 788h203l68 -71l68 71h203l-140 -187h-262z" />
    <glyph glyph-name="Euro" unicode="&#x20ac;" horiz-adv-x="1190" 
d="M425 404v-24h339v-91h-317c32 -65 100 -98 188 -98c106 0 178 43 200 133h314c-35 -199 -233 -336 -513 -336c-279 0 -460 119 -508 301h-111v91h98v24h-98v91h112c50 171 226 299 506 299c295 0 482 -141 515 -340h-314c-22 81 -87 134 -199 134
c-92 0 -155 -36 -187 -93h314v-91h-339z" />
    <glyph glyph-name=".null" horiz-adv-x="0" 
 />
    </font>
</defs>
</svg>
