<?xml version="1.0" standalone="no"?>
<!DOCTYPE svg PUBLIC "-//W3C//DTD SVG 1.1//EN" "http://www.w3.org/Graphics/SVG/1.1/DTD/svg11.dtd" >
<svg xmlns="http://www.w3.org/2000/svg" xmlns:xlink="http://www.w3.org/1999/xlink" version="1.1">
<metadata>
Created by FontForge 20190801 at Mon Jul 16 13:01:09 2007
 By root
[c] Copyright 2003-2004, The Font Bureau, Inc. Designed by David Berlow. All rights reserved.
</metadata>
<defs>
<font id="TitlingGothicFBExtended-Light" horiz-adv-x="586" >
  <font-face 
    font-family="TitlingGothicFB Extended Light"
    font-weight="300"
    font-stretch="normal"
    units-per-em="1000"
    panose-1="2 0 5 7 4 0 0 2 0 4"
    ascent="800"
    descent="-200"
    x-height="546"
    cap-height="781"
    bbox="-145 -212.434 2292 1009"
    underline-thickness="20"
    underline-position="-133"
    stemh="75"
    stemv="88"
    unicode-range="U+0020-FB02"
  />
<missing-glyph horiz-adv-x="500" 
 />
    <glyph glyph-name="fi" unicode="fi" horiz-adv-x="960" 
d="M734 471h-441v-471h-85v471h-178v75h178v65c0 112 58 193 242 193c64 0 151 -10 178 -14v-75c-27 5 -97 17 -151 16c-145 -2 -185 -52 -185 -123v-62h527v-491c0 -39 1 -49 10 -55h-86c-7 3 -9 18 -9 55v416z" />
    <glyph glyph-name="fl" unicode="fl" horiz-adv-x="955" 
d="M30 471v75h178v63c0 112 58 195 242 195c64 0 157 -10 184 -14v-75c-27 5 -103 17 -157 16c-145 -2 -185 -52 -185 -123v-62h337v-75h-336v-471h-85v471h-178zM826 0h-84c-4 2 -6 14 -6 35v693c0 32 -2 57 -4 68h84c3 -14 3 -33 3 -65v-669c0 -29 1 -58 7 -62z" />
    <glyph glyph-name="f_f" unicode="ff" horiz-adv-x="1187" 
d="M294 471v-471h-86v471h-178v75h178v63c0 112 58 195 242 195c64 0 151 -10 178 -14v-75c-27 5 -97 17 -151 16c-145 -2 -184 -52 -184 -123v-62h442v63c0 112 58 195 242 195c64 0 151 -10 178 -14v-75c-27 5 -97 17 -151 16c-145 -2 -184 -52 -184 -123v-62h332v-75
h-331v-471h-86v471h-441z" />
    <glyph glyph-name="f_f_i" unicode="ffi" horiz-adv-x="1487" 
d="M1262 471h-441v-471h-86v471h-441v-471h-86v471h-178v75h178v63c0 112 58 195 242 195c64 0 151 -10 178 -14v-75c-27 5 -97 17 -151 16c-145 -2 -184 -52 -184 -123v-62h442v63c0 112 58 195 242 195c64 0 151 -10 178 -14v-75c-27 5 -97 17 -151 16
c-145 -2 -184 -52 -184 -123v-62h526v-491c0 -39 1 -49 10 -55h-85c-7 3 -9 18 -9 55v416z" />
    <glyph glyph-name="f_f_l" unicode="ffl" horiz-adv-x="1481" 
d="M294 471v-471h-86v471h-178v75h178v63c0 112 58 195 242 195c64 0 151 -10 178 -14v-75c-27 5 -97 17 -151 16c-145 -2 -184 -52 -184 -123v-62h442v63c0 112 58 195 242 195c64 0 157 -10 184 -14v-75c-27 5 -103 17 -157 16c-145 -2 -184 -52 -184 -123v-62h399v-75
h-398v-471h-86v471h-441zM1352 0h-83c-4 2 -6 14 -6 35v693c0 32 -2 57 -4 68h84c3 -14 3 -33 3 -65v-669c0 -29 0 -58 6 -62z" />
    <glyph glyph-name=".notdef" horiz-adv-x="500" 
 />
    <glyph glyph-name="NUL" horiz-adv-x="0" 
 />
    <glyph glyph-name="Eth" unicode="&#xd0;" horiz-adv-x="1208" 
d="M163 356h-126v62h126v363h527c231 0 360 -74 414 -203c21 -54 32 -115 32 -184s-11 -131 -32 -185c-56 -132 -187 -209 -411 -209h-530v356zM251 418h383v-62h-383v-279h421c195 0 302 59 348 163c19 42 26 92 27 150c0 58 -8 109 -27 152c-46 104 -151 163 -334 163
h-435v-287z" />
    <glyph glyph-name="eth" unicode="&#xf0;" horiz-adv-x="1052" 
d="M855 579c-42 -30 -59 -46 -106 -46c-71 0 -108 41 -110 124h28c1 -84 40 -97 83 -96c41 0 59 17 90 40c-9 13 -18 23 -29 32c-60 50 -149 85 -278 85c-199 0 -283 -47 -323 -102c-5 -5 -9 -13 -12 -19h-84c3 13 6 26 12 38c45 90 160 159 404 159c152 0 268 -42 345 -107
c14 -12 27 -23 38 -36c44 33 55 46 105 46c74 -1 104 -48 106 -130h-28c-2 40 -7 100 -80 100c-38 0 -50 -10 -86 -37c53 -70 70 -158 70 -238c0 -87 -19 -158 -56 -217c-77 -130 -232 -187 -426 -187c-293 0 -450 116 -450 269v14c5 140 133 243 414 243
c222 0 367 -70 425 -131c0 75 -14 142 -52 196zM158 257c0 -111 129 -201 357 -201c200 0 350 74 382 218c5 19 6 27 8 51c-21 25 -135 130 -399 130s-348 -93 -348 -186v-12z" />
    <glyph glyph-name="Lslash" unicode="&#x141;" horiz-adv-x="999" 
d="M252 292v-206h705v-86h-794v270l-89 -33v69l89 32v443h89v-421l378 135v-69z" />
    <glyph glyph-name="lslash" unicode="&#x142;" horiz-adv-x="346" 
d="M215 286v-224c0 -29 0 -58 6 -62h-83c-4 2 -7 14 -7 35v224l-111 -41v75l111 42v393c0 32 -1 57 -3 68h84c3 -14 3 -33 3 -65v-370l110 42v-76z" />
    <glyph glyph-name="Scaron" unicode="&#x160;" horiz-adv-x="1206" 
d="M1103 223c0 -149 -136 -235 -480 -235s-499 86 -531 260h97c25 -133 168 -178 438 -178c284 0 382 60 382 147c0 131 -211 142 -427 156c-228 15 -462 33 -462 198c0 121 120 223 462 223c326 0 469 -112 501 -235h-101c-29 87 -152 152 -405 152
c-259 0 -365 -51 -365 -134c0 -105 196 -113 404 -126c236 -16 487 -41 487 -228zM363 1007h83l138 -100l137 100h84l-180 -151h-83z" />
    <glyph glyph-name="scaron" unicode="&#x161;" horiz-adv-x="975" 
d="M897 160c0 -108 -114 -172 -399 -172c-292 0 -406 53 -418 173h83c6 -70 100 -103 338 -103c254 0 315 48 315 99c0 195 -720 -11 -720 250c0 103 119 161 366 161c245 0 382 -48 401 -170h-85c-8 46 -67 97 -311 97s-290 -39 -290 -88c0 -171 720 33 720 -247zM253 767
h83l138 -100l137 100h84l-180 -151h-83z" />
    <glyph glyph-name="Yacute" unicode="&#xdd;" horiz-adv-x="1162" 
d="M1155 781l-534 -529v-252h-89v250l-528 531h109l466 -457l471 457h105zM522 853l153 155h101l-167 -155h-87z" />
    <glyph glyph-name="yacute" unicode="&#xfd;" horiz-adv-x="968" 
d="M948 550l-563 -736h-97l144 187l-412 549h93l369 -485l375 485h91zM413 613l153 155h101l-167 -155h-87z" />
    <glyph glyph-name="Thorn" unicode="&#xde;" horiz-adv-x="1155" 
d="M251 781v-90h494c176 0 264 -44 298 -118c22 -36 31 -83 31 -144c0 -62 -8 -112 -32 -149c-49 -78 -150 -110 -302 -110h-489v-170h-88v781h88zM984 426c0 37 -3 70 -16 97c-26 59 -101 92 -230 92h-487v-374h485c135 0 201 32 231 85c14 26 17 61 17 100z" />
    <glyph glyph-name="thorn" unicode="&#xfe;" horiz-adv-x="1078" 
d="M996 279c0 -41 -6 -77 -21 -109c-53 -124 -188 -181 -392 -181c-151 0 -309 37 -364 138v-313h-93v980h95v-373c35 82 142 154 362 154c229 0 342 -75 390 -180c17 -39 23 -78 23 -116zM898 280c0 41 -8 75 -27 105c-49 78 -162 114 -321 114c-226 0 -300 -80 -322 -155
c-2 -8 -11 -43 -11 -70s6 -49 12 -67c31 -83 127 -144 323 -144c175 0 276 39 320 113c17 30 26 64 26 104z" />
    <glyph glyph-name="Zcaron" unicode="&#x17d;" horiz-adv-x="1024" 
d="M978 0h-911v89l753 610h-720v82h847v-88l-758 -610h789v-83zM290 1007h83l138 -100l137 100h84l-180 -151h-83z" />
    <glyph glyph-name="zcaron" unicode="&#x17e;" horiz-adv-x="849" 
d="M806 0h-747v72l582 400h-574v74h709v-70l-588 -402h618v-74zM202 767h83l138 -100l137 100h84l-180 -151h-83z" />
    <glyph glyph-name="onehalf" unicode="&#xbd;" horiz-adv-x="1067" 
d="M347 388h-66v332l-269 -65v53c50 5 264 65 284 78h51v-398zM809 781c0 0 -185 -233 -308 -390c-114 -147 -298 -391 -298 -391h-53s196 251 323 413c112 143 285 368 285 368h51zM1043 0h-520v56c288 92 428 133 428 213v6c0 45 -35 82 -175 82c-91 0 -130 -16 -157 -41
c-14 -12 -20 -28 -24 -42h-67c2 18 14 42 30 59c34 39 101 71 223 71c193 0 242 -56 242 -123v-7c0 -85 -129 -150 -390 -223h410v-51z" />
    <glyph glyph-name="onequarter" unicode="&#xbc;" horiz-adv-x="1100" 
d="M347 388h-66v332l-269 -65v53c50 5 264 65 284 78h51v-398zM847 781c0 0 -185 -233 -308 -390c-114 -147 -298 -391 -298 -391h-53s196 251 323 413c112 143 285 368 285 368h51zM1072 93h-127v-93h-61v95h-402v55l397 247h66v-254h127v-50zM884 143v203l-340 -203h340z
" />
    <glyph glyph-name="onesuperior" unicode="&#xb9;" horiz-adv-x="533" 
d="M356 388h-67v332l-268 -65v53c49 5 263 65 283 78h52v-398z" />
    <glyph glyph-name="threequarters" unicode="&#xbe;" horiz-adv-x="1263" 
d="M448 599c90 -8 137 -40 137 -88v-7c0 -70 -84 -120 -284 -120c-206 0 -265 48 -279 109c-1 6 -3 17 -3 22h68c0 -6 1 -8 2 -13c12 -48 76 -77 208 -77c147 0 214 33 216 82v2c0 39 -40 65 -160 65h-173v37h174c83 0 126 25 126 65v6c0 33 -43 62 -177 62
c-118 0 -175 -19 -187 -62c-2 -8 -3 -14 -3 -19h-66c0 2 3 15 4 20c17 72 92 106 257 106c179 0 237 -45 241 -99c1 -3 1 -4 1 -7c0 -34 -19 -78 -102 -84zM1020 781c0 0 -184 -233 -307 -390c-114 -147 -299 -391 -299 -391h-52s196 251 323 413c112 143 285 368 285 368
h50zM1250 93h-127v-93h-61v95h-402v55l397 247h66v-254h127v-50zM1062 143v203l-340 -203h340z" />
    <glyph glyph-name="threesuperior" unicode="&#xb3;" horiz-adv-x="666" 
d="M486 599c90 -8 138 -40 138 -88v-7c0 -70 -85 -120 -285 -120c-205 0 -260 50 -278 109c-2 6 -3 17 -3 22h67c0 -6 1 -8 2 -13c12 -48 76 -77 209 -77c147 0 213 33 215 82v2c0 39 -40 65 -160 65h-172v37h173c83 0 126 25 127 65v6c0 33 -44 62 -177 62
c-119 0 -175 -19 -188 -62c-2 -7 -3 -16 -3 -19h-65c0 2 2 15 3 20c17 72 93 106 257 106c179 0 237 -45 242 -99v-7c0 -34 -20 -75 -102 -84z" />
    <glyph glyph-name="twosuperior" unicode="&#xb2;" horiz-adv-x="639" 
d="M597 388h-520v52c298 93 429 137 429 217v6c0 45 -35 83 -175 83c-91 0 -131 -18 -159 -42c-13 -13 -20 -29 -23 -42h-67c3 18 15 42 29 58c35 40 103 72 224 72c194 0 243 -56 243 -123v-7c0 -85 -106 -143 -384 -223h403v-51z" />
    <glyph glyph-name="brokenbar" unicode="&#xa6;" horiz-adv-x="457" 
d="M265 359h-72v441h72v-441zM265 -200h-72v441h72v-441z" />
    <glyph glyph-name="minus" unicode="&#x2212;" horiz-adv-x="915" 
d="M826 361h-741v85h741v-85z" />
    <glyph glyph-name="multiply" unicode="&#xd7;" horiz-adv-x="898" 
d="M694 611l-200 -195l201 -197l-47 -57l-200 195l-200 -195l-46 58l200 196l-200 195l47 58l199 -195l200 196z" />
    <glyph glyph-name="space" unicode=" " horiz-adv-x="435" 
 />
    <glyph glyph-name="space" unicode="&#xa0;" horiz-adv-x="435" 
 />
    <glyph glyph-name="exclam" unicode="!" horiz-adv-x="405" 
d="M258 781l-13 -564h-85l-12 564h110zM257 0h-109v140h109v-140z" />
    <glyph glyph-name="quotedbl" unicode="&#x22;" horiz-adv-x="587" 
d="M484 781l-8 -407h-81l-7 407h96zM199 781l-8 -407h-81l-8 407h97z" />
    <glyph glyph-name="numbersign" unicode="#" horiz-adv-x="812" 
d="M770 543l-11 -77h-169c-19 -78 -39 -175 -39 -175h186l-11 -77h-187l-58 -252h-51l57 252h-221l-58 -252h-51l57 252h-175l10 77h178s21 97 38 175h-192l10 77h196c24 101 55 243 55 243h52l-56 -243h223c23 101 54 243 54 243h52s-31 -141 -56 -243h167zM538 466h-221
l-38 -175h221s21 97 38 175z" />
    <glyph glyph-name="dollar" unicode="$" horiz-adv-x="1088" 
d="M504 1c-202 6 -371 49 -430 177c-7 17 -13 35 -16 55h84c4 -13 9 -26 15 -40c44 -84 166 -115 347 -120v291c-271 16 -430 59 -430 201c0 112 103 201 430 206v36h63v-37c247 -6 341 -72 387 -167c8 -18 13 -36 17 -55h-82c-4 11 -7 22 -13 33c-36 68 -117 112 -309 116
v-261c323 -19 441 -69 441 -218c0 -171 -228 -214 -441 -218v-61h-63v62zM505 699c-249 -3 -348 -47 -348 -134c0 -89 134 -112 348 -125v259zM566 72c234 2 356 51 356 140c0 94 -66 132 -356 148v-288z" />
    <glyph glyph-name="percent" unicode="%" horiz-adv-x="1623" 
d="M768 565c0 -100 -122 -191 -343 -191c-227 0 -343 91 -343 191v40c0 101 128 193 341 193c230 0 345 -96 345 -193v-40zM1536 183c0 -100 -121 -191 -343 -191c-227 0 -343 91 -343 191v40c0 101 129 193 341 193c230 0 345 -97 345 -193v-40zM696 573v19
c0 68 -88 138 -273 138c-190 0 -268 -72 -268 -136v-20c0 -78 92 -134 269 -134c201 0 272 66 272 133zM1463 192v19c0 67 -87 136 -272 136c-189 0 -268 -71 -268 -134v-20c0 -78 92 -135 268 -135c203 0 272 67 272 134zM1212 781l-757 -781h-73l757 781h73z" />
    <glyph glyph-name="ampersand" unicode="&#x26;" horiz-adv-x="1303" 
d="M876 66c-129 -52 -274 -77 -398 -77c-200 0 -411 14 -411 177c0 112 134 161 282 202c-77 71 -125 147 -125 225c0 126 116 201 307 201c175 0 294 -67 294 -197c0 -141 -157 -205 -319 -254c100 -68 229 -134 369 -196c115 50 208 124 237 221h90
c-37 -113 -126 -199 -236 -260c96 -39 196 -76 292 -108h-210c-54 19 -112 41 -172 66zM439 393c156 43 302 91 302 208c0 71 -92 116 -213 116c-161 0 -218 -61 -218 -133c0 -61 49 -126 129 -191zM774 110c-131 59 -261 129 -362 206c-135 -38 -250 -73 -250 -143
c0 -92 149 -109 318 -109c87 0 193 15 294 46z" />
    <glyph glyph-name="quotesingle" unicode="'" horiz-adv-x="495" 
d="M298 781l-9 -410h-84l-9 410h102z" />
    <glyph glyph-name="parenleft" unicode="(" horiz-adv-x="497" 
d="M475 -68h-90c-99 32 -314 156 -314 423c0 223 194 387 314 426h90c-150 -64 -311 -234 -311 -424c0 -236 184 -373 311 -425z" />
    <glyph glyph-name="parenright" unicode=")" horiz-adv-x="497" 
d="M440 355c0 -264 -214 -388 -314 -423h-90c127 52 311 189 311 425c0 190 -161 360 -311 424h90c121 -39 314 -203 314 -426z" />
    <glyph glyph-name="asterisk" unicode="*" horiz-adv-x="859" 
d="M446 567l186 103l32 -63l-202 -102l154 -157l-48 -48l-146 165l-139 -162l-49 48l146 154l-210 102l32 63l192 -103l-5 231h62z" />
    <glyph glyph-name="plus" unicode="+" horiz-adv-x="914" 
d="M827 377h-332v-285h-74v285h-334v63h333v286h75v-286h332v-63z" />
    <glyph glyph-name="comma" unicode="," horiz-adv-x="459" 
d="M282 -5l-53 -100h-66l48 109l-17 -4h-26v158h114v-163z" />
    <glyph glyph-name="hyphen" unicode="-" horiz-adv-x="711" 
d="M689 325h-666v91h666v-91z" />
    <glyph glyph-name="hyphen" unicode="&#xad;" horiz-adv-x="711" 
d="M689 325h-666v91h666v-91z" />
    <glyph glyph-name="period" unicode="." horiz-adv-x="459" 
d="M283 0h-118v158h118v-158z" />
    <glyph glyph-name="slash" unicode="/" horiz-adv-x="459" 
d="M505 794l-494 -952h-55l495 952h54z" />
    <glyph glyph-name="zero" unicode="0" horiz-adv-x="1091" 
d="M545 794c236 0 388 -94 450 -246c20 -46 29 -99 29 -157c0 -55 -8 -104 -25 -148c-59 -164 -223 -254 -453 -254c-238 0 -399 99 -454 257c-17 43 -25 92 -25 145c0 55 9 105 26 148c55 156 215 255 452 255zM934 391c0 52 -9 100 -27 141c-50 113 -170 183 -362 183
c-189 0 -312 -64 -364 -189c-18 -39 -25 -84 -25 -135c0 -48 9 -92 24 -130c52 -127 179 -193 365 -193c192 0 318 68 367 194c15 38 22 81 22 129z" />
    <glyph glyph-name="one" unicode="1" horiz-adv-x="736" 
d="M514 0h-88v671l-332 -61v87c323 61 343 66 350 91h70v-788z" />
    <glyph glyph-name="two" unicode="2" horiz-adv-x="1021" 
d="M985 0h-893v93c500 183 728 292 728 446v13c0 92 -79 161 -309 161c-150 0 -238 -37 -283 -99c-19 -25 -30 -52 -35 -81h-92c8 43 24 82 49 116c57 87 168 145 367 145c307 0 396 -110 396 -232v-14c0 -168 -197 -309 -654 -464h726v-84z" />
    <glyph glyph-name="three" unicode="3" horiz-adv-x="1072" 
d="M771 412c154 -12 234 -77 234 -176v-13c0 -151 -150 -235 -464 -235c-313 0 -420 82 -455 194c-7 20 -10 43 -11 62h91c0 -12 2 -25 7 -37c31 -95 139 -141 366 -141c261 0 370 60 372 161v5c0 81 -71 132 -281 132h-299v72h303c140 0 220 46 221 131v12
c0 71 -79 138 -314 138c-200 0 -296 -43 -323 -128c-6 -16 -9 -34 -9 -49h-87c0 16 3 40 7 55c34 135 161 199 420 199c295 0 390 -93 397 -200v-13c0 -68 -37 -153 -175 -169z" />
    <glyph glyph-name="four" unicode="4" horiz-adv-x="1013" 
d="M1003 196h-208v-196h-88v196h-673v95l666 503h95v-517h208v-81zM708 277v423l-575 -423h575z" />
    <glyph glyph-name="five" unicode="5" horiz-adv-x="1080" 
d="M1018 255c-1 -161 -175 -266 -438 -266c-284 0 -427 72 -485 217c-6 17 -11 33 -15 52h89c4 -12 8 -24 13 -35c52 -107 162 -157 387 -157c199 0 352 72 352 198v19c0 125 -108 198 -342 198c-151 0 -288 -21 -359 -126h-98v426h831v-83h-749l-1 -272
c62 91 214 131 387 131c290 0 427 -104 428 -277v-25z" />
    <glyph glyph-name="six" unicode="6" horiz-adv-x="1052" 
d="M999 265c0 -157 -157 -277 -450 -277c-195 0 -350 58 -427 187c-35 57 -55 130 -55 217c0 61 11 130 43 193c58 120 205 209 427 209c244 0 359 -69 404 -159c5 -12 9 -25 12 -38h-85c-3 6 -6 13 -11 20c-38 55 -128 97 -322 97c-243 0 -364 -108 -378 -271
c-2 -24 -1 -31 -1 -42c59 59 204 128 426 128c281 0 411 -107 417 -250v-14zM908 263v11c0 91 -80 182 -340 182c-254 0 -385 -101 -410 -128c4 -22 5 -29 11 -49c37 -140 182 -213 384 -213c230 0 355 88 355 197z" />
    <glyph glyph-name="seven" unicode="7" horiz-adv-x="876" 
d="M867 696l-595 -696h-110l606 698h-762v83h861v-85z" />
    <glyph glyph-name="eight" unicode="8" horiz-adv-x="1058" 
d="M1002 224c-3 -145 -137 -235 -473 -235c-326 0 -470 86 -472 233v26c5 114 140 186 264 195c-118 14 -185 84 -185 144v19c0 93 105 188 393 188s393 -92 393 -188v-19c0 -60 -56 -130 -194 -144c163 -9 269 -82 274 -197v-22zM917 227v15c0 100 -89 160 -388 160
c-273 0 -390 -68 -390 -160v-16c0 -101 134 -161 390 -161c287 0 388 69 388 162zM840 590v11c0 68 -82 117 -311 117c-228 0 -311 -49 -311 -117v-11c0 -51 83 -114 310 -114s312 61 312 114z" />
    <glyph glyph-name="nine" unicode="9" horiz-adv-x="1047" 
d="M926 177c-64 -113 -219 -188 -424 -188c-241 0 -369 68 -414 157c-6 14 -10 24 -13 40h88c3 -6 6 -12 10 -19c41 -58 134 -100 332 -100c243 0 370 115 381 273c1 19 1 28 1 39c-67 -57 -205 -124 -425 -124c-270 0 -402 106 -407 247v16c0 158 155 277 443 277
c184 0 329 -54 408 -159c49 -65 72 -149 72 -245c0 -73 -15 -150 -52 -214zM886 454c-3 23 -3 26 -7 45c-30 142 -182 217 -381 217c-228 0 -355 -87 -355 -196v-12c0 -91 81 -181 343 -181c249 0 379 102 400 127z" />
    <glyph glyph-name="colon" unicode=":" horiz-adv-x="466" 
d="M287 452h-108v138h108v-138zM287 0h-108v139h108v-139z" />
    <glyph glyph-name="semicolon" unicode=";" horiz-adv-x="466" 
d="M287 452h-108v138h108v-138zM289 -5l-68 -103l-46 33l44 77l-20 -2h-21v143h111v-148z" />
    <glyph glyph-name="less" unicode="&#x3c;" horiz-adv-x="921" 
d="M821 -17l-729 307v69l729 306v-74l-649 -267l649 -266v-75z" />
    <glyph glyph-name="equal" unicode="=" horiz-adv-x="922" 
d="M858 460h-793v61h793v-61zM858 292h-793v61h793v-61z" />
    <glyph glyph-name="greater" unicode="&#x3e;" horiz-adv-x="921" 
d="M824 290l-730 -307v73l649 268l-649 268v74l730 -307v-69z" />
    <glyph glyph-name="question" unicode="?" horiz-adv-x="919" 
d="M894 551c-14 -261 -431 -136 -452 -334h-87c20 274 429 150 439 329v14c-7 114 -108 155 -333 155c-271 0 -331 -76 -343 -181h-91c13 145 112 262 433 262c307 0 427 -78 434 -224v-21zM452 0h-108v140h108v-140z" />
    <glyph glyph-name="at" unicode="@" horiz-adv-x="1299" 
d="M1231 349c-8 -205 -126 -317 -282 -317c-95 0 -129 67 -130 118c-49 -78 -134 -115 -233 -115c-140 0 -239 85 -222 244c17 156 121 287 316 287c90 0 164 -47 186 -105l27 81h73c-26 -97 -45 -161 -69 -266c-37 -145 -8 -198 76 -198c113 0 206 107 213 274
c7 211 -143 395 -499 395c-369 0 -571 -209 -571 -464c0 -314 276 -454 510 -454c228 0 383 70 467 151l29 -36c-95 -84 -242 -156 -498 -156c-296 0 -554 173 -554 492c0 301 234 512 620 512c374 0 551 -205 541 -443zM848 377c10 57 -60 127 -161 127
c-136 0 -232 -95 -248 -229c-13 -117 47 -179 157 -179c138 0 202 74 221 145c3 16 23 90 31 136z" />
    <glyph glyph-name="A" unicode="A" horiz-adv-x="1138" 
d="M248 214l-140 -214h-102l516 781h100l510 -781h-101l-143 214h-640zM841 296l-224 338l-48 79l-48 -79l-226 -338h546z" />
    <glyph glyph-name="B" unicode="B" horiz-adv-x="1219" 
d="M840 0h-677v781h624c181 0 259 -78 259 -197c0 -80 -36 -156 -117 -170c124 -8 210 -72 210 -191c0 -147 -83 -223 -299 -223zM952 570c0 77 -51 130 -171 130h-531v-262h561c81 0 141 40 141 132zM1047 230c0 74 -57 127 -198 127h-599v-276h593c138 0 204 40 204 149z
" />
    <glyph glyph-name="C" unicode="C" horiz-adv-x="1226" 
d="M1164 292c-5 -34 -22 -81 -44 -115c-71 -113 -217 -189 -479 -189c-284 0 -454 88 -526 220c-29 53 -44 115 -44 184c0 60 11 117 34 164c69 142 233 240 520 240c258 0 403 -84 483 -187c31 -38 50 -87 56 -122h-96c-7 31 -25 61 -51 89c-64 71 -193 136 -392 136
c-221 0 -381 -69 -439 -200c-16 -34 -23 -74 -23 -120c0 -51 9 -95 30 -132c75 -134 266 -189 449 -189c184 0 315 45 389 140c19 23 34 58 36 81h97z" />
    <glyph glyph-name="D" unicode="D" horiz-adv-x="1208" 
d="M1104 209c-56 -132 -187 -209 -411 -209h-530v781h527c231 0 360 -74 414 -203c21 -53 32 -114 32 -184c0 -69 -11 -131 -32 -185zM1018 241c19 42 27 92 27 149s-8 108 -27 150c-45 103 -150 161 -334 161h-433v-620h419c195 0 302 58 348 160z" />
    <glyph glyph-name="E" unicode="E" horiz-adv-x="1154" 
d="M1058 0h-895v781h886v-83h-799v-261h782v-82h-782v-271h808v-84z" />
    <glyph glyph-name="F" unicode="F" horiz-adv-x="1070" 
d="M990 698h-738v-263h709v-85h-709v-350h-89v781h827v-83z" />
    <glyph glyph-name="G" unicode="G" horiz-adv-x="1258" 
d="M1122 0h-81l-4 139c-48 -52 -151 -151 -442 -151c-254 0 -524 89 -524 403c0 211 143 403 548 403c319 0 462 -135 499 -288h-91c-23 97 -145 204 -399 204c-346 0 -465 -139 -465 -318c0 -220 172 -321 444 -321c294 0 428 118 428 271h-484v85h571v-427z" />
    <glyph glyph-name="H" unicode="H" horiz-adv-x="1252" 
d="M1089 0h-89v355h-749v-355h-88v781h88v-341h749v341h89v-781z" />
    <glyph glyph-name="I" unicode="I" horiz-adv-x="415" 
d="M254 0h-91v781h91v-781z" />
    <glyph glyph-name="J" unicode="J" horiz-adv-x="827" 
d="M679 305c0 -213 -160 -316 -379 -316c-123 0 -225 10 -280 20v88c48 -11 166 -21 269 -21c209 0 300 100 300 250v455h90v-476z" />
    <glyph glyph-name="K" unicode="K" horiz-adv-x="1111" 
d="M1063 0h-131l-530 381l-150 -85v-296h-89v781h89v-394l674 394h136l-584 -350z" />
    <glyph glyph-name="L" unicode="L" horiz-adv-x="999" 
d="M957 0h-794v781h89v-696h705v-85z" />
    <glyph glyph-name="M" unicode="M" horiz-adv-x="1456" 
d="M1295 0h-87v665l-431 -665h-103l-424 665v-665h-87v781h118l446 -699l450 699h118v-781z" />
    <glyph glyph-name="N" unicode="N" horiz-adv-x="1241" 
d="M1079 0h-100l-728 668v-668h-88v781h101l731 -672v672h84v-781z" />
    <glyph glyph-name="O" unicode="O" horiz-adv-x="1253" 
d="M627 796c374 0 554 -162 554 -404c0 -266 -221 -404 -555 -404c-333 0 -555 152 -555 405c0 252 210 403 556 403zM627 70c279 0 464 120 464 322c0 188 -148 320 -465 320c-310 0 -464 -130 -464 -320c0 -200 191 -322 465 -322z" />
    <glyph glyph-name="P" unicode="P" horiz-adv-x="1155" 
d="M1074 514c0 -194 -124 -261 -334 -261h-489v-253h-88v781h582c239 0 329 -92 329 -267zM984 516c0 117 -60 185 -246 185h-487v-368h485c201 0 248 65 248 183z" />
    <glyph glyph-name="Q" unicode="Q" horiz-adv-x="1253" 
d="M729 -3c22 -20 64 -48 103 -65c47 -20 99 -34 149 -35l-35 -75c-54 3 -126 23 -185 53c-60 30 -122 84 -148 113c-3 0 -26 3 -30 3c-136 2 -269 38 -364 111c-97 71 -148 164 -148 291c0 109 39 200 126 275c95 84 240 128 430 128s332 -40 430 -123
c87 -71 124 -167 124 -281s-45 -213 -121 -277c-78 -65 -205 -111 -331 -118zM627 70c159 0 283 33 367 106c65 55 98 131 98 215c0 86 -30 163 -99 218c-80 66 -199 103 -367 103c-161 0 -288 -36 -364 -102c-67 -55 -101 -130 -101 -219c0 -99 43 -174 122 -229
c86 -61 200 -92 344 -92z" />
    <glyph glyph-name="R" unicode="R" horiz-adv-x="1209" 
d="M1054 567c0 -103 -48 -188 -192 -210l292 -357h-111l-279 346h-512v-346h-89v781h607c201 0 284 -87 284 -214zM964 564c0 85 -62 137 -202 137h-510v-275h543c122 0 169 53 169 138z" />
    <glyph glyph-name="S" unicode="S" horiz-adv-x="1206" 
d="M1103 223c0 -149 -136 -235 -480 -235s-499 86 -531 260h97c25 -133 168 -178 438 -178c284 0 382 60 382 147c0 131 -211 142 -427 156c-228 15 -462 33 -462 198c0 121 120 223 462 223c326 0 469 -112 501 -235h-101c-29 87 -152 152 -405 152
c-259 0 -365 -51 -365 -134c0 -105 196 -113 404 -126c236 -16 487 -41 487 -228z" />
    <glyph glyph-name="T" unicode="T" horiz-adv-x="1013" 
d="M1008 696h-455v-696h-92v696h-456v85h1003v-85z" />
    <glyph glyph-name="U" unicode="U" horiz-adv-x="1234" 
d="M1088 322c0 -220 -180 -334 -467 -334c-284 0 -475 104 -475 345v448h89v-450c0 -155 127 -261 390 -261c214 0 374 87 374 247v464h89v-459z" />
    <glyph glyph-name="V" unicode="V" horiz-adv-x="1138" 
d="M1137 781l-508 -781h-117l-510 781h101l469 -712l474 712h91z" />
    <glyph glyph-name="W" unicode="W" horiz-adv-x="1599" 
d="M1596 781l-379 -781h-123l-292 701l-295 -701h-121l-385 781h100l347 -708l297 708h115l296 -708l347 708h93z" />
    <glyph glyph-name="X" unicode="X" horiz-adv-x="1043" 
d="M522 350l-412 -350h-109l467 398l-434 383h122l374 -330l387 330h113l-446 -378l456 -403h-122z" />
    <glyph glyph-name="Y" unicode="Y" horiz-adv-x="1162" 
d="M1155 781l-534 -529v-252h-89v250l-528 531h109l466 -457l471 457h105z" />
    <glyph glyph-name="Z" unicode="Z" horiz-adv-x="1024" 
d="M978 0h-911v89l753 610h-720v82h847v-88l-758 -610h789v-83z" />
    <glyph glyph-name="bracketleft" unicode="[" horiz-adv-x="672" 
d="M578 -186h-410v967h410v-77h-330v-813h330v-77z" />
    <glyph glyph-name="backslash" unicode="\" horiz-adv-x="459" 
d="M-48 794h54l495 -952h-55z" />
    <glyph glyph-name="bracketright" unicode="]" horiz-adv-x="672" 
d="M94 -186v77h329v813h-329v77h410v-967h-410z" />
    <glyph glyph-name="asciicircum" unicode="^" horiz-adv-x="863" 
d="M443 712l-327 -223l-54 65l335 240h93l334 -240l-53 -65z" />
    <glyph glyph-name="underscore" unicode="_" horiz-adv-x="663" 
d="M663 -210h-663v75h663v-75z" />
    <glyph glyph-name="grave" unicode="`" 
d="M392 613h-87l-167 155h101z" />
    <glyph glyph-name="a" unicode="a" horiz-adv-x="1002" 
d="M898 0h-80s-14 64 -12 87c-44 -53 -156 -98 -378 -98c-192 0 -352 29 -352 170c0 97 78 172 437 172c82 0 197 -6 293 -14c0 100 -46 179 -307 179c-211 0 -288 -50 -299 -113h-86c19 122 161 183 389 183c236 0 355 -63 374 -191c6 -37 4 -130 4 -243
c0 -53 9 -113 17 -132zM806 258c-91 6 -197 12 -290 12c-256 0 -352 -38 -352 -109c0 -64 83 -105 272 -105c184 0 334 33 360 125c8 29 11 60 10 77z" />
    <glyph glyph-name="b" unicode="b" horiz-adv-x="1084" 
d="M581 566c222 0 338 -65 388 -155c25 -42 33 -89 33 -135c0 -51 -11 -95 -32 -132c-59 -104 -193 -155 -388 -155c-157 0 -311 39 -369 132v-121h-83v794h83v-373c40 78 144 145 368 145zM557 492c-220 0 -305 -74 -334 -147c-5 -13 -12 -47 -12 -75c0 -29 6 -53 16 -73
c35 -78 138 -136 333 -136c178 0 282 40 328 111c19 29 29 64 29 104s-9 76 -30 106c-51 75 -170 110 -330 110z" />
    <glyph glyph-name="c" unicode="c" horiz-adv-x="1028" 
d="M955 350h-84c-4 16 -11 29 -23 44c-48 59 -157 97 -322 97c-168 0 -293 -36 -349 -115c-19 -27 -30 -62 -30 -103c0 -40 12 -75 31 -103c53 -75 177 -109 349 -109c165 0 260 25 309 72c15 15 28 35 36 55h85c-9 -33 -23 -64 -46 -90c-63 -70 -184 -111 -387 -111
c-219 0 -359 52 -422 145c-26 38 -40 88 -40 145c0 53 13 101 40 139c66 97 214 151 422 151s340 -51 399 -137c16 -22 27 -52 32 -80z" />
    <glyph glyph-name="d" unicode="d" horiz-adv-x="1066" 
d="M479 566c178 0 319 -37 378 -137v355h82v-731c0 -21 4 -53 4 -53h-82l-2 129c-53 -100 -201 -141 -361 -141c-206 0 -331 52 -391 139c-29 42 -45 91 -45 148c0 59 16 110 45 153c56 87 175 138 372 138zM497 491c-161 0 -269 -37 -316 -102c-23 -33 -35 -69 -35 -113
c0 -45 13 -81 36 -112c54 -70 166 -103 332 -103c172 0 275 38 319 115c17 29 25 62 25 100c0 45 -11 83 -37 115c-53 67 -162 100 -324 100z" />
    <glyph glyph-name="e" unicode="e" horiz-adv-x="1006" 
d="M958 168c-38 -93 -155 -181 -438 -181c-298 0 -458 112 -458 298c0 182 182 281 453 281c297 0 452 -111 452 -315h-821c14 -113 152 -196 378 -196c229 0 319 61 341 113h93zM878 314c-11 99 -125 182 -364 182c-226 0 -362 -73 -369 -182h733z" />
    <glyph glyph-name="f" unicode="f" horiz-adv-x="673" 
d="M639 471h-338v-471h-86v471h-185v75h185v63c0 112 64 194 255 194c64 0 142 -9 171 -14v-77c-26 6 -103 16 -167 15c-138 -1 -174 -50 -174 -121v-60h339v-75z" />
    <glyph glyph-name="g" unicode="g" horiz-adv-x="933" 
d="M454 571c133 0 232 -25 291 -55c42 32 157 42 212 38v-65c-42 0 -140 -8 -164 -23c21 -15 45 -53 51 -89c2 -15 2 -41 -1 -58c-14 -98 -114 -173 -376 -173c-114 0 -227 22 -263 43c-20 -3 -38 -18 -38 -39c0 -29 31 -50 333 -51c344 -2 430 -34 430 -134
c0 -115 -149 -163 -458 -163c-327 0 -430 65 -430 147c0 62 46 100 110 111c-34 12 -58 38 -58 80c0 36 30 70 69 73c-44 22 -79 59 -86 124c-1 13 -1 34 0 47c13 104 139 187 378 187zM457 504c-197 0 -292 -55 -303 -136c-2 -11 -1 -23 0 -33c6 -77 109 -127 302 -127
c220 0 298 56 308 131c1 7 0 28 -2 41c-13 66 -95 124 -305 124zM467 -130c300 0 375 35 376 89c-1 59 -58 68 -347 72c-122 2 -229 4 -288 10c-50 -9 -87 -36 -87 -78c0 -49 71 -93 346 -93z" />
    <glyph glyph-name="h" unicode="h" horiz-adv-x="1015" 
d="M908 0h-83c-8 9 -8 23 -8 286c0 131 -81 201 -284 201c-169 0 -320 -67 -320 -206v-281h-83v794h81v-385c44 106 178 156 351 156c231 0 338 -93 338 -255c0 -299 1 -306 8 -310z" />
    <glyph glyph-name="i" unicode="i" horiz-adv-x="363" 
d="M227 642h-93v136h93v-136zM232 0h-85c-6 3 -9 18 -9 55v495h84v-495c0 -39 1 -49 10 -55z" />
    <glyph glyph-name="j" unicode="j" horiz-adv-x="375" 
d="M248 642h-93v136h93v-136zM244 4c0 -110 -68 -192 -204 -192c-32 0 -87 4 -104 8v74c16 -3 47 -8 92 -8c89 0 132 46 132 141v523h84v-546z" />
    <glyph glyph-name="k" unicode="k" horiz-adv-x="937" 
d="M928 0h-109l-321 302l-285 -173v-129h-83v794h83v-579l551 335h123l-325 -204z" />
    <glyph glyph-name="l" unicode="l" horiz-adv-x="353" 
d="M224 0h-83c-4 2 -6 14 -6 35v693c0 32 -2 57 -4 68h84c3 -14 3 -33 3 -65v-669c0 -29 0 -58 6 -62z" />
    <glyph glyph-name="m" unicode="m" horiz-adv-x="1532" 
d="M1337 0c-8 0 -8 46 -8 282c0 113 -47 205 -254 205c-137 0 -263 -46 -263 -197v-290h-82v299c0 120 -103 188 -247 188c-164 0 -270 -95 -270 -196v-291h-83v550h81v-140c39 100 168 154 296 154c129 0 245 -45 279 -155c45 118 184 155 321 155c235 0 305 -112 305 -260
c0 -291 2 -297 12 -304h-87z" />
    <glyph glyph-name="n" unicode="n" horiz-adv-x="1015" 
d="M907 0h-80c-9 0 -10 40 -10 286c0 139 -95 201 -283 201c-161 0 -321 -64 -321 -201v-286h-83v550h81v-140c50 117 207 155 352 155c246 0 337 -106 337 -260c0 -285 2 -300 7 -305z" />
    <glyph glyph-name="o" unicode="o" horiz-adv-x="1059" 
d="M997 278c0 -72 -30 -130 -80 -177c-75 -70 -205 -114 -389 -114c-180 0 -312 42 -388 114c-49 45 -78 102 -78 177c0 63 28 121 83 169c72 71 198 120 383 120c186 0 310 -46 384 -113c56 -48 85 -110 85 -176zM911 278c0 52 -26 97 -72 135c-65 49 -172 78 -311 78
s-243 -30 -311 -80c-44 -37 -70 -83 -70 -133c0 -59 24 -104 68 -140c62 -48 171 -77 313 -77c149 0 253 30 316 79c43 38 67 85 67 138z" />
    <glyph glyph-name="p" unicode="p" horiz-adv-x="1064" 
d="M1008 276c0 -169 -158 -287 -427 -287c-144 0 -309 29 -368 128v-303h-83v734h81v-129c42 81 182 144 361 144c313 0 436 -132 436 -287zM920 277c0 136 -144 212 -365 212c-132 0 -237 -31 -293 -92c-33 -34 -51 -78 -51 -130c0 -42 15 -81 43 -111
c56 -62 164 -94 306 -94c234 0 360 81 360 215z" />
    <glyph glyph-name="q" unicode="q" horiz-adv-x="1062" 
d="M941 -186h-79l-4 6v297c-61 -98 -201 -129 -367 -129c-199 0 -321 48 -381 132c-31 43 -48 94 -48 153c0 62 19 114 50 159c57 82 190 135 365 135c187 0 326 -40 384 -140c0 29 -1 122 -1 122h78v-675c0 -35 0 -47 3 -60zM858 276c0 45 -10 83 -37 115
c-54 66 -164 101 -325 101c-138 0 -268 -41 -314 -107c-25 -34 -36 -67 -36 -112c0 -43 13 -78 36 -109c53 -70 165 -104 331 -104c171 0 274 40 320 116c16 28 25 62 25 100z" />
    <glyph glyph-name="r" unicode="r" horiz-adv-x="732" 
d="M710 548v-87c-56 12 -116 20 -189 20c-157 0 -308 -94 -308 -266v-215h-83v550h81v-173c32 100 154 179 308 183c92 3 142 -3 191 -12z" />
    <glyph glyph-name="s" unicode="s" horiz-adv-x="975" 
d="M897 160c0 -108 -114 -172 -399 -172c-292 0 -406 53 -418 173h83c6 -70 100 -103 338 -103c254 0 315 48 315 99c0 195 -720 -11 -720 250c0 103 119 161 366 161c245 0 382 -48 401 -170h-85c-8 46 -67 97 -311 97s-290 -39 -290 -88c0 -171 720 33 720 -247z" />
    <glyph glyph-name="t" unicode="t" horiz-adv-x="604" 
d="M568 475h-312v-279c0 -108 46 -135 155 -135c38 0 121 6 148 12v-69c-27 -8 -102 -16 -169 -16c-143 0 -218 44 -218 188v299h-178v71h178c2 31 3 151 3 151l80 2v-153h313v-71z" />
    <glyph glyph-name="u" unicode="u" horiz-adv-x="1015" 
d="M896 0c0 4 -3 24 -3 127v423h-85v-297c0 -109 -126 -188 -324 -188c-182 0 -279 41 -279 196c0 121 -1 289 -3 289c2 0 -89 0 -89 0c5 -4 6 -13 8 -331c1 -154 113 -232 334 -232c127 0 280 23 355 133l3 -120h83z" />
    <glyph glyph-name="v" unicode="v" horiz-adv-x="935" 
d="M931 550l-410 -550h-105l-412 550h92l373 -483l372 483h90z" />
    <glyph glyph-name="w" unicode="w" horiz-adv-x="1529" 
d="M1512 550l-355 -550h-98l-284 465l-12 23l-11 -23l-282 -465h-100l-350 550h90l312 -483l291 483h102l298 -483l313 483h86z" />
    <glyph glyph-name="x" unicode="x" horiz-adv-x="911" 
d="M463 322l322 228h114l-380 -269l383 -281h-117l-325 238l-337 -238h-114l395 279l-369 271h117z" />
    <glyph glyph-name="y" unicode="y" horiz-adv-x="968" 
d="M948 550l-563 -736h-97l144 187l-412 549h93l369 -485l375 485h91z" />
    <glyph glyph-name="z" unicode="z" horiz-adv-x="849" 
d="M806 0h-747v72l582 400h-574v74h709v-70l-588 -402h618v-74z" />
    <glyph glyph-name="braceleft" unicode="{" horiz-adv-x="691" 
d="M612 -164h-115c-154 0 -217 75 -217 159c0 50 7 136 7 181c0 93 -63 134 -189 134v77c125 0 189 34 189 127c0 47 -7 56 -7 105c0 87 69 162 217 162h115v-80c-237 25 -259 -45 -254 -123c1 -25 3 -55 3 -84c0 -77 -49 -132 -139 -139c90 -7 139 -60 139 -144
c0 -35 -3 -139 -4 -167c-4 -84 21 -151 255 -128v-80z" />
    <glyph glyph-name="bar" unicode="|" horiz-adv-x="457" 
d="M265 -200h-72v1000h72v-1000z" />
    <glyph glyph-name="braceright" unicode="}" horiz-adv-x="691" 
d="M80 -164v80c223 -23 258 50 255 128c-1 28 -4 132 -4 167c0 84 48 137 139 144c-90 7 -139 62 -139 139c0 29 2 59 3 84c3 78 -24 147 -254 123v80h115c148 0 217 -75 217 -162c0 -49 -7 -58 -7 -105c0 -93 64 -127 189 -127v-77c-127 0 -189 -41 -189 -134
c0 -45 6 -131 6 -181c0 -84 -63 -159 -216 -159h-115z" />
    <glyph glyph-name="asciitilde" unicode="~" horiz-adv-x="897" 
d="M431 309c-60 86 -110 176 -191 176c-141 0 -147 -164 -149 -272h-78c0 231 55 365 212 365c108 0 167 -94 226 -183c55 -82 108 -162 195 -162c92 0 154 85 154 243h72c2 -183 -58 -330 -214 -330c-109 0 -171 80 -227 163z" />
    <glyph glyph-name="Adieresis" unicode="&#xc4;" horiz-adv-x="1138" 
d="M248 214l-140 -214h-102l516 781h100l510 -781h-101l-143 214h-640zM841 296l-224 338l-48 79l-48 -79l-226 -338h546zM718 858h-87v116h87v-116zM507 858h-87v116h87v-116z" />
    <glyph glyph-name="Aring" unicode="&#xc5;" horiz-adv-x="1138" 
d="M503 752c-37 22 -62 61 -62 107c0 70 59 124 127 124c69 0 127 -54 127 -124c0 -44 -22 -81 -56 -104l493 -755h-101l-143 214h-640l-140 -214h-102zM568 928c-39 0 -71 -30 -71 -69s32 -69 71 -69c40 0 71 30 71 69s-31 69 -71 69zM841 296l-224 338l-48 87l-48 -87
l-226 -338h546z" />
    <glyph glyph-name="Ccedilla" unicode="&#xc7;" horiz-adv-x="1226" 
d="M592 -11c-255 10 -409 95 -477 219c-29 53 -44 115 -44 184c0 60 11 117 34 164c69 142 233 240 520 240c258 0 403 -84 483 -187c31 -38 50 -87 56 -122h-96c-7 31 -25 61 -51 89c-64 71 -193 136 -392 136c-221 0 -381 -69 -439 -200c-16 -34 -23 -74 -23 -120
c0 -51 9 -95 30 -132c75 -134 266 -189 449 -189c184 0 315 45 389 140c19 23 34 58 36 81h97c-5 -34 -22 -81 -44 -115c-70 -112 -215 -188 -473 -189v-19c97 0 145 -27 145 -86c0 -88 -136 -118 -276 -78v67c152 -43 195 -14 195 13c0 21 -19 33 -119 33v71z" />
    <glyph glyph-name="Eacute" unicode="&#xc9;" horiz-adv-x="1154" 
d="M1058 0h-895v781h886v-83h-799v-261h782v-82h-782v-271h808v-84zM506 853l153 155h101l-167 -155h-87z" />
    <glyph glyph-name="Ntilde" unicode="&#xd1;" horiz-adv-x="1241" 
d="M1079 0h-100l-728 668v-668h-88v781h101l731 -672v672h84v-781zM568 915c-35 0 -52 -16 -52 -82h-69c0 94 42 152 119 152c111 0 110 -87 187 -87c39 0 53 16 53 83h68c0 -106 -49 -153 -116 -153c-117 0 -125 87 -190 87z" />
    <glyph glyph-name="Odieresis" unicode="&#xd6;" horiz-adv-x="1253" 
d="M627 796c374 0 554 -162 554 -404c0 -266 -221 -404 -555 -404c-333 0 -555 152 -555 405c0 252 210 403 556 403zM627 70c279 0 464 120 464 322c0 188 -148 320 -465 320c-310 0 -464 -130 -464 -320c0 -200 191 -322 465 -322zM775 858h-87v116h87v-116zM564 858h-87
v116h87v-116z" />
    <glyph glyph-name="Udieresis" unicode="&#xdc;" horiz-adv-x="1234" 
d="M1088 322c0 -220 -180 -334 -467 -334c-284 0 -475 104 -475 345v448h89v-450c0 -155 127 -261 390 -261c214 0 374 87 374 247v464h89v-459zM766 858h-87v116h87v-116zM555 858h-87v116h87v-116z" />
    <glyph glyph-name="aacute" unicode="&#xe1;" horiz-adv-x="1002" 
d="M898 0h-80s-14 64 -12 87c-44 -53 -156 -98 -378 -98c-192 0 -352 29 -352 170c0 97 78 172 437 172c82 0 197 -6 293 -14c0 100 -46 179 -307 179c-211 0 -288 -50 -299 -113h-86c19 122 161 183 389 183c236 0 355 -63 374 -191c6 -37 4 -130 4 -243
c0 -53 9 -113 17 -132zM806 258c-91 6 -197 12 -290 12c-256 0 -352 -38 -352 -109c0 -64 83 -105 272 -105c184 0 334 33 360 125c8 29 11 60 10 77zM422 613l153 155h101l-167 -155h-87z" />
    <glyph glyph-name="agrave" unicode="&#xe0;" horiz-adv-x="1002" 
d="M898 0h-80s-14 64 -12 87c-44 -53 -156 -98 -378 -98c-192 0 -352 29 -352 170c0 97 78 172 437 172c82 0 197 -6 293 -14c0 100 -46 179 -307 179c-211 0 -288 -50 -299 -113h-86c19 122 161 183 389 183c236 0 355 -63 374 -191c6 -37 4 -130 4 -243
c0 -53 9 -113 17 -132zM806 258c-91 6 -197 12 -290 12c-256 0 -352 -38 -352 -109c0 -64 83 -105 272 -105c184 0 334 33 360 125c8 29 11 60 10 77zM578 613h-87l-167 155h101z" />
    <glyph glyph-name="acircumflex" unicode="&#xe2;" horiz-adv-x="1002" 
d="M898 0h-80s-14 64 -12 87c-44 -53 -156 -98 -378 -98c-192 0 -352 29 -352 170c0 97 78 172 437 172c82 0 197 -6 293 -14c0 100 -46 179 -307 179c-211 0 -288 -50 -299 -113h-86c19 122 161 183 389 183c236 0 355 -63 374 -191c6 -37 4 -130 4 -243
c0 -53 9 -113 17 -132zM806 258c-91 6 -197 12 -290 12c-256 0 -352 -38 -352 -109c0 -64 83 -105 272 -105c184 0 334 33 360 125c8 29 11 60 10 77zM721 617h-83l-138 100l-137 -100h-84l180 151h83z" />
    <glyph glyph-name="adieresis" unicode="&#xe4;" horiz-adv-x="1002" 
d="M898 0h-80s-14 64 -12 87c-44 -53 -156 -98 -378 -98c-192 0 -352 29 -352 170c0 97 78 172 437 172c82 0 197 -6 293 -14c0 100 -46 179 -307 179c-211 0 -288 -50 -299 -113h-86c19 122 161 183 389 183c236 0 355 -63 374 -191c6 -37 4 -130 4 -243
c0 -53 9 -113 17 -132zM806 258c-91 6 -197 12 -290 12c-256 0 -352 -38 -352 -109c0 -64 83 -105 272 -105c184 0 334 33 360 125c8 29 11 60 10 77zM650 618h-87v116h87v-116zM439 618h-87v116h87v-116z" />
    <glyph glyph-name="atilde" unicode="&#xe3;" horiz-adv-x="1002" 
d="M898 0h-80s-14 64 -12 87c-44 -53 -156 -98 -378 -98c-192 0 -352 29 -352 170c0 97 78 172 437 172c82 0 197 -6 293 -14c0 100 -46 179 -307 179c-211 0 -288 -50 -299 -113h-86c19 122 161 183 389 183c236 0 355 -63 374 -191c6 -37 4 -130 4 -243
c0 -53 9 -113 17 -132zM806 258c-91 6 -197 12 -290 12c-256 0 -352 -38 -352 -109c0 -64 83 -105 272 -105c184 0 334 33 360 125c8 29 11 60 10 77zM408 699c-35 0 -52 -16 -52 -82h-69c0 94 42 152 119 152c111 0 110 -87 187 -87c39 0 53 16 53 83h68
c0 -106 -49 -153 -116 -153c-117 0 -125 87 -190 87z" />
    <glyph glyph-name="aring" unicode="&#xe5;" horiz-adv-x="1002" 
d="M898 0h-80s-14 64 -12 87c-44 -53 -156 -98 -378 -98c-192 0 -352 29 -352 170c0 97 78 172 437 172c82 0 197 -6 293 -14c0 100 -46 179 -307 179c-211 0 -288 -50 -299 -113h-86c19 122 161 183 389 183c236 0 355 -63 374 -191c6 -37 4 -130 4 -243
c0 -53 9 -113 17 -132zM806 258c-91 6 -197 12 -290 12c-256 0 -352 -38 -352 -109c0 -64 83 -105 272 -105c184 0 334 33 360 125c8 29 11 60 10 77zM500 853c69 0 129 -54 129 -124s-60 -125 -129 -125c-68 0 -129 55 -129 125s61 124 129 124zM500 793
c-35 0 -64 -29 -64 -64s29 -64 64 -64c36 0 64 29 64 64s-28 64 -64 64z" />
    <glyph glyph-name="ccedilla" unicode="&#xe7;" horiz-adv-x="1028" 
d="M485 -12c-197 5 -324 57 -383 144c-26 38 -40 88 -40 145c0 53 13 101 40 139c66 97 214 151 422 151s340 -51 399 -137c16 -22 27 -52 32 -80h-84c-4 16 -11 29 -23 44c-48 59 -157 97 -322 97c-168 0 -293 -36 -349 -115c-19 -27 -30 -62 -30 -103
c0 -40 12 -75 31 -103c53 -75 177 -109 349 -109c165 0 260 25 309 72c15 15 28 35 36 55h85c-9 -33 -23 -64 -46 -90c-61 -68 -178 -109 -371 -111v-18c97 0 145 -27 145 -86c0 -88 -136 -118 -276 -78v67c152 -43 195 -14 195 13c0 21 -19 33 -119 33v70z" />
    <glyph glyph-name="eacute" unicode="&#xe9;" horiz-adv-x="1006" 
d="M946 168c-38 -93 -155 -181 -438 -181c-298 0 -458 112 -458 298c0 182 182 281 453 281c297 0 452 -111 452 -315h-821c14 -113 152 -196 378 -196c229 0 319 61 341 113h93zM866 314c-11 99 -125 182 -364 182c-226 0 -362 -73 -369 -182h733zM413 613l153 155h101
l-167 -155h-87z" />
    <glyph glyph-name="egrave" unicode="&#xe8;" horiz-adv-x="1006" 
d="M946 168c-38 -93 -155 -181 -438 -181c-298 0 -458 112 -458 298c0 182 182 281 453 281c297 0 452 -111 452 -315h-821c14 -113 152 -196 378 -196c229 0 319 61 341 113h93zM866 314c-11 99 -125 182 -364 182c-226 0 -362 -73 -369 -182h733zM571 613h-87l-167 155
h101z" />
    <glyph glyph-name="ecircumflex" unicode="&#xea;" horiz-adv-x="1006" 
d="M946 168c-38 -93 -155 -181 -438 -181c-298 0 -458 112 -458 298c0 182 182 281 453 281c297 0 452 -111 452 -315h-821c14 -113 152 -196 378 -196c229 0 319 61 341 113h93zM866 314c-11 99 -125 182 -364 182c-226 0 -362 -73 -369 -182h733zM710 617h-83l-138 100
l-137 -100h-84l180 151h83z" />
    <glyph glyph-name="edieresis" unicode="&#xeb;" horiz-adv-x="1006" 
d="M946 168c-38 -93 -155 -181 -438 -181c-298 0 -458 112 -458 298c0 182 182 281 453 281c297 0 452 -111 452 -315h-821c14 -113 152 -196 378 -196c229 0 319 61 341 113h93zM866 314c-11 99 -125 182 -364 182c-226 0 -362 -73 -369 -182h733zM639 618h-87v116h87v-116
zM428 618h-87v116h87v-116z" />
    <glyph glyph-name="iacute" unicode="&#xed;" horiz-adv-x="356" 
d="M229 0h-85c-7 3 -9 18 -9 55v495h84v-495c0 -39 1 -49 10 -55zM113 613l153 155h101l-167 -155h-87z" />
    <glyph glyph-name="igrave" unicode="&#xec;" horiz-adv-x="356" 
d="M229 0h-85c-7 3 -9 18 -9 55v495h84v-495c0 -39 1 -49 10 -55zM239 613h-87l-167 155h101z" />
    <glyph glyph-name="icircumflex" unicode="&#xee;" horiz-adv-x="356" 
d="M229 0h-85c-7 3 -9 18 -9 55v495h84v-495c0 -39 1 -49 10 -55zM398 617h-83l-138 100l-137 -100h-84l180 151h83z" />
    <glyph glyph-name="idieresis" unicode="&#xef;" horiz-adv-x="356" 
d="M229 0h-85c-7 3 -9 18 -9 55v495h84v-495c0 -39 1 -49 10 -55zM327 618h-87v116h87v-116zM116 618h-87v116h87v-116z" />
    <glyph glyph-name="ntilde" unicode="&#xf1;" horiz-adv-x="1015" 
d="M907 0h-80c-9 0 -10 40 -10 286c0 139 -95 201 -283 201c-161 0 -321 -64 -321 -201v-286h-83v550h81v-140c50 117 207 155 352 155c246 0 337 -106 337 -260c0 -285 2 -300 7 -305zM447 696c-35 0 -52 -16 -52 -82h-69c0 94 42 152 119 152c111 0 110 -87 187 -87
c39 0 53 16 53 83h68c0 -106 -49 -153 -116 -153c-117 0 -125 87 -190 87z" />
    <glyph glyph-name="oacute" unicode="&#xf3;" horiz-adv-x="1059" 
d="M997 278c0 -72 -30 -130 -80 -177c-75 -70 -205 -114 -389 -114c-180 0 -312 42 -388 114c-49 45 -78 102 -78 177c0 63 28 121 83 169c72 71 198 120 383 120c186 0 310 -46 384 -113c56 -48 85 -110 85 -176zM911 278c0 52 -26 97 -72 135c-65 49 -172 78 -311 78
s-243 -30 -311 -80c-44 -37 -70 -83 -70 -133c0 -59 24 -104 68 -140c62 -48 171 -77 313 -77c149 0 253 30 316 79c43 38 67 85 67 138zM440 613l153 155h101l-167 -155h-87z" />
    <glyph glyph-name="ograve" unicode="&#xf2;" horiz-adv-x="1059" 
d="M997 278c0 -72 -30 -130 -80 -177c-75 -70 -205 -114 -389 -114c-180 0 -312 42 -388 114c-49 45 -78 102 -78 177c0 63 28 121 83 169c72 71 198 120 383 120c186 0 310 -46 384 -113c56 -48 85 -110 85 -176zM911 278c0 52 -26 97 -72 135c-65 49 -172 78 -311 78
s-243 -30 -311 -80c-44 -37 -70 -83 -70 -133c0 -59 24 -104 68 -140c62 -48 171 -77 313 -77c149 0 253 30 316 79c43 38 67 85 67 138zM590 613h-87l-167 155h101z" />
    <glyph glyph-name="ocircumflex" unicode="&#xf4;" horiz-adv-x="1059" 
d="M997 278c0 -72 -30 -130 -80 -177c-75 -70 -205 -114 -389 -114c-180 0 -312 42 -388 114c-49 45 -78 102 -78 177c0 63 28 121 83 169c72 71 198 120 383 120c186 0 310 -46 384 -113c56 -48 85 -110 85 -176zM911 278c0 52 -26 97 -72 135c-65 49 -172 78 -311 78
s-243 -30 -311 -80c-44 -37 -70 -83 -70 -133c0 -59 24 -104 68 -140c62 -48 171 -77 313 -77c149 0 253 30 316 79c43 38 67 85 67 138zM749 617h-83l-138 100l-137 -100h-84l180 151h83z" />
    <glyph glyph-name="odieresis" unicode="&#xf6;" horiz-adv-x="1059" 
d="M997 278c0 -72 -30 -130 -80 -177c-75 -70 -205 -114 -389 -114c-180 0 -312 42 -388 114c-49 45 -78 102 -78 177c0 63 28 121 83 169c72 71 198 120 383 120c186 0 310 -46 384 -113c56 -48 85 -110 85 -176zM911 278c0 52 -26 97 -72 135c-65 49 -172 78 -311 78
s-243 -30 -311 -80c-44 -37 -70 -83 -70 -133c0 -59 24 -104 68 -140c62 -48 171 -77 313 -77c149 0 253 30 316 79c43 38 67 85 67 138zM678 618h-87v116h87v-116zM467 618h-87v116h87v-116z" />
    <glyph glyph-name="otilde" unicode="&#xf5;" horiz-adv-x="1059" 
d="M997 278c0 -72 -30 -130 -80 -177c-75 -70 -205 -114 -389 -114c-180 0 -312 42 -388 114c-49 45 -78 102 -78 177c0 63 28 121 83 169c72 71 198 120 383 120c186 0 310 -46 384 -113c56 -48 85 -110 85 -176zM911 278c0 52 -26 97 -72 135c-65 49 -172 78 -311 78
s-243 -30 -311 -80c-44 -37 -70 -83 -70 -133c0 -59 24 -104 68 -140c62 -48 171 -77 313 -77c149 0 253 30 316 79c43 38 67 85 67 138zM436 699c-35 0 -52 -16 -52 -82h-69c0 94 42 152 119 152c111 0 110 -87 187 -87c39 0 53 16 53 83h68c0 -106 -49 -153 -116 -153
c-117 0 -125 87 -190 87z" />
    <glyph glyph-name="uacute" unicode="&#xfa;" horiz-adv-x="1015" 
d="M896 0c0 4 -3 24 -3 127v423h-85v-297c0 -109 -126 -188 -324 -188c-182 0 -279 41 -279 196c0 121 -1 289 -3 289c2 0 -89 0 -89 0c5 -4 6 -13 8 -331c1 -154 113 -232 334 -232c127 0 280 23 355 133l3 -120h83zM426 613l153 155h101l-167 -155h-87z" />
    <glyph glyph-name="ugrave" unicode="&#xf9;" horiz-adv-x="1015" 
d="M896 0c0 4 -3 24 -3 127v423h-85v-297c0 -109 -126 -188 -324 -188c-182 0 -279 41 -279 196c0 121 -1 289 -3 289c2 0 -89 0 -89 0c5 -4 6 -13 8 -331c1 -154 113 -232 334 -232c127 0 280 23 355 133l3 -120h83zM578 613h-87l-167 155h101z" />
    <glyph glyph-name="ucircumflex" unicode="&#xfb;" horiz-adv-x="1015" 
d="M896 0c0 4 -3 24 -3 127v423h-85v-297c0 -109 -126 -188 -324 -188c-182 0 -279 41 -279 196c0 121 -1 289 -3 289c2 0 -89 0 -89 0c5 -4 6 -13 8 -331c1 -154 113 -232 334 -232c127 0 280 23 355 133l3 -120h83zM727 617h-83l-138 100l-137 -100h-84l180 151h83z" />
    <glyph glyph-name="udieresis" unicode="&#xfc;" horiz-adv-x="1015" 
d="M896 0c0 4 -3 24 -3 127v423h-85v-297c0 -109 -126 -188 -324 -188c-182 0 -279 41 -279 196c0 121 -1 289 -3 289c2 0 -89 0 -89 0c5 -4 6 -13 8 -331c1 -154 113 -232 334 -232c127 0 280 23 355 133l3 -120h83zM656 618h-87v116h87v-116zM445 618h-87v116h87v-116z
" />
    <glyph glyph-name="dagger" unicode="&#x2020;" horiz-adv-x="535" 
d="M520 425h-208v-421l-46 -109l-44 109v421h-207v88h207c-1 54 -1 280 -1 280h92s1 -225 -1 -280h208v-88z" />
    <glyph glyph-name="degree" unicode="&#xb0;" horiz-adv-x="429" 
d="M215 766c84 0 153 -70 153 -159c0 -90 -69 -160 -153 -160c-85 0 -153 70 -153 160c0 89 68 159 153 159zM215 701c-55 0 -96 -42 -96 -94c0 -53 41 -94 96 -94s96 41 96 94c0 52 -41 94 -96 94z" />
    <glyph glyph-name="cent" unicode="&#xa2;" horiz-adv-x="968" 
d="M488 684v66h59v-66c193 -5 317 -56 374 -136c15 -23 25 -51 30 -81h-81c-4 16 -10 33 -22 48c-45 57 -149 93 -301 96v-434c151 2 242 26 289 72c16 15 28 36 35 56h81c-8 -33 -22 -64 -45 -90c-61 -67 -174 -105 -360 -110v-89h-59v89c-203 5 -331 53 -391 143
c-27 41 -40 89 -40 146c0 54 12 101 39 140c62 94 199 145 392 150zM488 610c-152 -4 -265 -38 -316 -112c-19 -28 -30 -64 -30 -106c0 -41 12 -77 31 -106c48 -71 157 -104 315 -108v432z" />
    <glyph glyph-name="sterling" unicode="&#xa3;" horiz-adv-x="1093" 
d="M217 371c-131 209 -137 423 326 423c301 0 418 -96 428 -263h-96c-8 121 -89 182 -326 182c-408 0 -342 -153 -229 -342h475v-65h-453c42 -92 26 -196 -129 -224h785v-82h-897v89c143 47 203 100 140 217h-102v65h78z" />
    <glyph glyph-name="section" unicode="&#xa7;" horiz-adv-x="862" 
d="M149 529c-64 22 -94 62 -94 115c0 98 98 150 366 150c272 0 359 -68 377 -200h-86c-10 74 -66 136 -290 136c-218 0 -290 -19 -290 -84c0 -66 49 -73 284 -112c285 -47 367 -61 367 -148c0 -39 -26 -70 -69 -81c81 -22 129 -62 129 -141c0 -109 -100 -174 -392 -174
c-270 0 -415 57 -415 212h86c0 -100 97 -149 332 -149c252 0 303 36 303 111s-107 93 -332 130c-221 36 -344 61 -344 148c0 53 32 74 68 87zM656 323c24 8 46 28 46 56c-1 13 -11 28 -45 35c-49 14 -253 57 -447 92c-25 -9 -48 -23 -48 -52c0 -40 17 -50 494 -131z" />
    <glyph glyph-name="bullet" unicode="&#x2022;" horiz-adv-x="438" 
d="M222 259c-53 0 -108 47 -108 105c0 59 55 106 108 106c54 0 109 -47 109 -106c0 -58 -55 -105 -109 -105z" />
    <glyph glyph-name="paragraph" unicode="&#xb6;" horiz-adv-x="734" 
d="M662 795v-909h-39v860h-64v-860h-39v378c-24 -27 -122 -49 -164 -49c-126 0 -214 40 -266 117c-32 42 -52 101 -52 176c0 74 29 142 66 186c57 71 147 103 252 103c44 0 137 -17 161 -40l18 38h127zM520 514v155c-2 34 -108 55 -143 55c-81 0 -145 -15 -191 -61
c-34 -35 -64 -92 -64 -156c0 -68 20 -117 52 -150c46 -51 123 -69 207 -69c35 0 135 23 138 53c1 9 1 103 1 173z" />
    <glyph glyph-name="germandbls" unicode="&#xdf;" horiz-adv-x="1301" 
d="M478 731c-146 -2 -184 -62 -184 -136v-595h-86v471h-178v75h178v63c0 122 71 195 279 195c111 0 242 -49 242 -164c0 -145 -176 -150 -176 -213c0 -72 58 -88 239 -96c43 -3 108 -6 155 -8c246 -9 323 -65 323 -163c0 -108 -119 -172 -398 -172c-248 0 -371 38 -408 133
c-5 13 -9 23 -10 37h87c0 -7 3 -19 8 -27c29 -58 130 -77 326 -77c240 0 311 46 311 101c0 69 -58 92 -270 102c-42 2 -103 6 -135 7c-252 9 -311 51 -311 146c0 110 173 106 173 218c0 41 -45 102 -165 103z" />
    <glyph glyph-name="registered" unicode="&#xae;" horiz-adv-x="710" 
d="M672 458c-4 -148 -131 -258 -316 -258c-189 0 -317 112 -317 258v81c4 158 136 261 317 261c175 0 312 -104 316 -263v-79zM645 466v61c-3 149 -129 243 -289 243c-151 0 -286 -78 -290 -239v-64c0 -141 125 -239 290 -239c168 0 289 101 289 238zM535 312h-75l-78 154
h-114v-154h-73v367h215c43 0 76 -12 98 -32c20 -19 29 -46 29 -73c0 -32 -11 -57 -29 -73c-14 -13 -33 -22 -56 -25zM467 571c0 33 -22 55 -60 55h-139v-108h138c40 0 61 23 61 53z" />
    <glyph glyph-name="copyright" unicode="&#xa9;" horiz-adv-x="710" 
d="M672 467c-4 -149 -131 -267 -316 -267c-189 0 -317 121 -317 267v59c4 158 136 274 317 274c175 0 312 -117 316 -276v-57zM645 474v40c-3 149 -129 256 -289 256c-151 0 -286 -91 -290 -252v-43c0 -140 125 -247 290 -247c168 0 289 110 289 246zM590 448
c-18 -83 -79 -150 -233 -150c-157 0 -244 75 -244 201c0 118 83 198 244 198c153 0 227 -68 232 -153h-80c-4 49 -52 89 -148 89c-114 0 -169 -51 -169 -136c0 -86 59 -135 168 -135c102 0 135 30 151 86h79z" />
    <glyph glyph-name="trademark" unicode="&#x2122;" horiz-adv-x="847" 
d="M736 502v183c0 28 -17 49 -57 49c-36 0 -63 -23 -63 -58v-174h-74v191c0 25 -25 41 -57 41c-35 0 -66 -28 -66 -58v-174h-74v294h74v-44c15 34 66 49 101 49c47 0 76 -21 85 -52c12 38 68 52 101 52c71 0 107 -43 107 -96v-203h-77zM312 738h-125v-130
c0 -28 18 -53 58 -53c4 0 50 0 53 1v-54c-5 -2 -71 -3 -81 -3c-59 0 -96 36 -96 91v148h-111v58h302v-58z" />
    <glyph glyph-name="acute" unicode="&#xb4;" 
d="M194 613l153 155h101l-167 -155h-87z" />
    <glyph glyph-name="dieresis" unicode="&#xa8;" 
d="M442 618h-87v116h87v-116zM231 618h-87v116h87v-116z" />
    <glyph glyph-name="notequal" unicode="&#x2260;" horiz-adv-x="921" 
d="M857 292h-459l-108 -142h-51l108 142h-283v61h331l82 107h-413v61h457l110 144h51l-110 -144h285v-61h-329l-82 -107h411v-61z" />
    <glyph glyph-name="AE" unicode="&#xc6;" horiz-adv-x="1748" 
d="M1703 781v-83h-800v-262h782v-81h-782v-271h809v-84h-894v212h-481l-227 -212h-109l811 781h891zM818 679l-75 -79l-341 -317h416v396z" />
    <glyph glyph-name="Oslash" unicode="&#xd8;" horiz-adv-x="1253" 
d="M1027 696c10 -7 21 -15 30 -22c84 -68 124 -168 124 -282c0 -115 -42 -212 -121 -278c-96 -86 -249 -126 -434 -126c-138 0 -258 23 -349 69l-132 -108h-84s120 102 166 137c-12 9 -25 19 -35 29c-79 67 -121 161 -121 278c0 109 40 207 125 277c92 82 241 126 431 126
c146 0 267 -23 356 -70c30 24 86 70 86 70h74s-81 -73 -116 -100zM291 155c4 2 625 500 625 499c-73 36 -171 56 -290 56c-160 0 -285 -35 -362 -99c-68 -53 -102 -131 -102 -219c0 -100 44 -176 116 -226c4 -4 9 -7 13 -11zM965 629l-621 -500c76 -37 173 -57 283 -57
c158 0 285 37 363 106c67 52 101 128 101 214s-31 160 -98 216c-10 8 -18 15 -28 21z" />
    <glyph glyph-name="infinity" unicode="&#x221e;" horiz-adv-x="924" 
d="M864 375c0 -59 -56 -100 -210 -100c-132 0 -175 26 -199 57c-27 -31 -71 -57 -196 -57c-165 0 -200 44 -200 96c0 64 61 101 199 101c144 0 178 -34 200 -70c29 36 65 70 194 70c158 0 212 -35 212 -97zM802 376c0 37 -47 54 -151 54c-114 0 -146 -30 -171 -63
c22 -29 58 -52 169 -52c98 0 153 21 153 61zM259 315c105 0 145 24 172 53c-21 33 -52 62 -170 62c-98 0 -140 -24 -140 -59c0 -37 41 -56 138 -56z" />
    <glyph glyph-name="plusminus" unicode="&#xb1;" horiz-adv-x="908" 
d="M821 440h-334v-242h-66v242h-334v53h333v241h67v-241h334v-53zM821 91h-734v55h734v-55z" />
    <glyph glyph-name="lessequal" unicode="&#x2264;" horiz-adv-x="906" 
d="M820 197l-734 241v57l734 241v-59l-657 -211l657 -211v-58zM820 91h-734v55h734v-55z" />
    <glyph glyph-name="greaterequal" unicode="&#x2265;" horiz-adv-x="906" 
d="M820 438l-734 -241v58l657 211l-657 211v59l734 -241v-57zM820 91h-734v55h734v-55z" />
    <glyph glyph-name="yen" unicode="&#xa5;" horiz-adv-x="1161" 
d="M529 171h-440v55h440v24l-525 531h107l463 -451l477 451h106l-539 -529v-26h432v-55h-432v-55h432v-55h-432v-61h-89v61h-440v55h440v55z" />
    <glyph glyph-name="mu" unicode="&#xb5;" horiz-adv-x="1013" 
d="M900 0h-81l-4 133c-70 -112 -214 -138 -326 -141c-152 -2 -235 39 -281 110v-288h-85v736h82c2 0 3 -180 3 -294c0 -153 113 -208 280 -208c198 0 326 84 326 199v303h82v-418c0 -111 3 -127 4 -132z" />
    <glyph glyph-name="mu" unicode="&#x3bc;" horiz-adv-x="1013" 
d="M900 0h-81l-4 133c-70 -112 -214 -138 -326 -141c-152 -2 -235 39 -281 110v-288h-85v736h82c2 0 3 -180 3 -294c0 -153 113 -208 280 -208c198 0 326 84 326 199v303h82v-418c0 -111 3 -127 4 -132z" />
    <glyph glyph-name="partialdiff" unicode="&#x2202;" horiz-adv-x="793" 
d="M659 675c11 11 27 25 34 34c21 21 40 -4 14 -15c-12 -4 -33 -12 -48 -19zM141 663c-15 7 -36 15 -48 19c-26 11 -7 36 14 15c7 -9 23 -23 34 -34zM381 522l1 201h-377v72h783v-72h-376l1 -201c57 -10 102 -60 102 -121s-45 -112 -103 -120l-1 -200h377v-76h-783v76h376
l-1 200c-57 9 -101 59 -101 120s45 111 102 121zM123 131c-11 -11 -27 -25 -34 -34c-21 -21 -40 4 -14 15c12 4 33 12 48 19zM663 127c15 -7 36 -15 48 -19c26 -11 7 -36 -14 -15c-7 9 -23 23 -34 34zM412 486v-47l-16 -34l-14 34v47c-40 -8 -71 -43 -71 -85s30 -76 70 -84
v47l15 33l15 -33v-47c40 7 72 42 72 84s-31 77 -71 85z" />
    <glyph glyph-name="summation" unicode="&#x2211;" horiz-adv-x="793" 
d="M659 675c11 11 27 25 34 34c21 21 40 -4 14 -15c-12 -4 -33 -12 -48 -19zM141 663c-15 7 -36 15 -48 19c-26 11 -7 36 14 15c7 -9 23 -23 34 -34zM381 522l1 201h-377v72h783v-72h-376l1 -201c57 -10 102 -60 102 -121s-45 -112 -103 -120l-1 -200h377v-76h-783v76h376
l-1 200c-57 9 -101 59 -101 120s45 111 102 121zM123 131c-11 -11 -27 -25 -34 -34c-21 -21 -40 4 -14 15c12 4 33 12 48 19zM663 127c15 -7 36 -15 48 -19c26 -11 7 -36 -14 -15c-7 9 -23 23 -34 34zM412 486v-47l-16 -34l-14 34v47c-40 -8 -71 -43 -71 -85s30 -76 70 -84
v47l15 33l15 -33v-47c40 7 72 42 72 84s-31 77 -71 85z" />
    <glyph glyph-name="product" unicode="&#x220f;" horiz-adv-x="793" 
d="M659 675c11 11 27 25 34 34c21 21 40 -4 14 -15c-12 -4 -33 -12 -48 -19zM141 663c-15 7 -36 15 -48 19c-26 11 -7 36 14 15c7 -9 23 -23 34 -34zM381 522l1 201h-377v72h783v-72h-376l1 -201c57 -10 102 -60 102 -121s-45 -112 -103 -120l-1 -200h377v-76h-783v76h376
l-1 200c-57 9 -101 59 -101 120s45 111 102 121zM123 131c-11 -11 -27 -25 -34 -34c-21 -21 -40 4 -14 15c12 4 33 12 48 19zM663 127c15 -7 36 -15 48 -19c26 -11 7 -36 -14 -15c-7 9 -23 23 -34 34zM412 486v-47l-16 -34l-14 34v47c-40 -8 -71 -43 -71 -85s30 -76 70 -84
v47l15 33l15 -33v-47c40 7 72 42 72 84s-31 77 -71 85z" />
    <glyph glyph-name="pi" unicode="&#x3c0;" horiz-adv-x="710" 
d="M672 458c-4 -148 -131 -258 -316 -258c-189 0 -317 112 -317 258v81c4 158 136 261 317 261c175 0 312 -104 316 -263v-79zM645 466v61c-3 149 -129 243 -289 243c-151 0 -286 -78 -290 -239v-64c0 -141 125 -239 290 -239c168 0 289 101 289 238zM273 456v-144h-74v367
h215c85 0 127 -49 127 -112c0 -61 -38 -111 -121 -111h-147zM468 563c0 38 -28 55 -59 55h-136v-108h135c40 0 60 17 60 53z" />
    <glyph glyph-name="integral" unicode="&#x222b;" horiz-adv-x="793" 
d="M659 675c11 11 27 25 34 34c21 21 40 -4 14 -15c-12 -4 -33 -12 -48 -19zM141 663c-15 7 -36 15 -48 19c-26 11 -7 36 14 15c7 -9 23 -23 34 -34zM381 522l1 201h-377v72h783v-72h-376l1 -201c57 -10 102 -60 102 -121s-45 -112 -103 -120l-1 -200h377v-76h-783v76h376
l-1 200c-57 9 -101 59 -101 120s45 111 102 121zM123 131c-11 -11 -27 -25 -34 -34c-21 -21 -40 4 -14 15c12 4 33 12 48 19zM663 127c15 -7 36 -15 48 -19c26 -11 7 -36 -14 -15c-7 9 -23 23 -34 34zM412 486v-47l-16 -34l-14 34v47c-40 -8 -71 -43 -71 -85s30 -76 70 -84
v47l15 33l15 -33v-47c40 7 72 42 72 84s-31 77 -71 85z" />
    <glyph glyph-name="ordfeminine" unicode="&#xaa;" horiz-adv-x="837" 
d="M795 243c-11 0 -69 1 -74 0c0 0 -16 71 -14 96c-49 -57 -131 -104 -347 -104c-201 0 -317 52 -319 150c-1 8 -1 23 1 35c6 85 99 144 392 149c82 2 161 0 266 -5c0 119 -44 188 -271 188c-169 0 -248 -25 -269 -123h-82c36 151 154 183 364 183c218 0 315 -67 332 -185
c4 -24 5 -57 4 -86c-1 -15 -2 -121 -2 -160c0 -55 9 -119 19 -138zM801 136h-748v63h748v-63zM700 506c-94 4 -160 7 -232 6c-180 0 -269 -14 -316 -48c-20 -16 -30 -34 -30 -56c0 -19 5 -36 19 -51c35 -39 136 -63 242 -63c126 0 188 20 227 38s90 52 90 100v74z" />
    <glyph glyph-name="ordmasculine" unicode="&#xba;" horiz-adv-x="918" 
d="M891 520c0 -87 -33 -156 -100 -204c-77 -57 -187 -88 -336 -88c-151 0 -259 30 -334 85c-67 48 -99 116 -99 207c0 79 32 150 105 202c73 53 175 89 329 89c150 0 253 -31 327 -85c75 -51 108 -123 108 -206zM873 136h-820v63h820v-63zM811 521c0 69 -26 126 -86 166
c-63 40 -151 59 -270 59c-116 0 -205 -21 -268 -63c-59 -39 -86 -95 -86 -162c0 -78 25 -132 82 -169c61 -39 149 -60 273 -60c129 0 214 24 273 64c58 41 82 97 82 165z" />
    <glyph glyph-name="Omega" unicode="&#x3a9;" horiz-adv-x="793" 
d="M659 675c11 11 27 25 34 34c21 21 40 -4 14 -15c-12 -4 -33 -12 -48 -19zM141 663c-15 7 -36 15 -48 19c-26 11 -7 36 14 15c7 -9 23 -23 34 -34zM381 522l1 201h-377v72h783v-72h-376l1 -201c57 -10 102 -60 102 -121s-45 -112 -103 -120l-1 -200h377v-76h-783v76h376
l-1 200c-57 9 -101 59 -101 120s45 111 102 121zM123 131c-11 -11 -27 -25 -34 -34c-21 -21 -40 4 -14 15c12 4 33 12 48 19zM663 127c15 -7 36 -15 48 -19c26 -11 7 -36 -14 -15c-7 9 -23 23 -34 34zM412 486v-47l-16 -34l-14 34v47c-40 -8 -71 -43 -71 -85s30 -76 70 -84
v47l15 33l15 -33v-47c40 7 72 42 72 84s-31 77 -71 85z" />
    <glyph glyph-name="Omega" unicode="&#x2126;" horiz-adv-x="793" 
d="M659 675c11 11 27 25 34 34c21 21 40 -4 14 -15c-12 -4 -33 -12 -48 -19zM141 663c-15 7 -36 15 -48 19c-26 11 -7 36 14 15c7 -9 23 -23 34 -34zM381 522l1 201h-377v72h783v-72h-376l1 -201c57 -10 102 -60 102 -121s-45 -112 -103 -120l-1 -200h377v-76h-783v76h376
l-1 200c-57 9 -101 59 -101 120s45 111 102 121zM123 131c-11 -11 -27 -25 -34 -34c-21 -21 -40 4 -14 15c12 4 33 12 48 19zM663 127c15 -7 36 -15 48 -19c26 -11 7 -36 -14 -15c-7 9 -23 23 -34 34zM412 486v-47l-16 -34l-14 34v47c-40 -8 -71 -43 -71 -85s30 -76 70 -84
v47l15 33l15 -33v-47c40 7 72 42 72 84s-31 77 -71 85z" />
    <glyph glyph-name="ae" unicode="&#xe6;" horiz-adv-x="1742" 
d="M854 127c-67 -98 -193 -138 -416 -138c-227 0 -351 45 -357 155c-1 8 -1 15 0 22c4 95 114 162 436 163c82 0 188 -5 290 -12c-1 51 -15 86 -48 118c-44 39 -126 62 -255 62c-205 0 -273 -31 -299 -115h-86c34 122 121 184 400 184c209 0 314 -61 337 -151
c43 92 191 151 397 151c235 0 394 -82 439 -227c8 -22 11 -62 12 -87h-820c1 -21 6 -39 15 -57c40 -88 178 -141 359 -141c184 0 278 40 318 74c14 12 26 30 30 40h91c-10 -22 -21 -40 -38 -59c-58 -67 -180 -122 -401 -122c-220 0 -343 58 -404 140zM1617 309
c-2 14 -7 31 -14 45c-43 87 -151 147 -352 147c-173 0 -299 -50 -344 -122c-15 -23 -23 -47 -24 -70h734zM810 262c-97 6 -191 10 -265 10c-189 0 -299 -17 -347 -53c-20 -15 -29 -34 -29 -55c0 -19 6 -35 19 -50c37 -41 124 -61 269 -61c126 0 207 21 248 38
c40 17 88 46 106 96c-2 15 -1 62 -1 75z" />
    <glyph glyph-name="oslash" unicode="&#xf8;" horiz-adv-x="1059" 
d="M175 65c-14 11 -25 24 -36 34c-49 47 -78 104 -78 179c0 62 29 120 86 166c70 70 194 123 383 123c123 0 220 -17 293 -49l88 59h86l-129 -91c17 -12 34 -21 47 -34c55 -48 84 -107 84 -174c0 -72 -29 -129 -83 -171c-73 -77 -208 -120 -386 -120c-127 0 -229 17 -305 51
l-92 -63h-87zM240 116l510 344c-58 21 -133 31 -220 31c-138 0 -248 -31 -310 -84c-48 -34 -75 -79 -75 -129c0 -60 25 -105 68 -142c8 -8 16 -15 27 -20zM806 437l-510 -343c59 -22 139 -33 234 -33c151 0 256 32 313 84c48 34 71 81 71 133c0 51 -25 97 -72 133
c-11 8 -22 18 -36 26z" />
    <glyph glyph-name="questiondown" unicode="&#xbf;" horiz-adv-x="919" 
d="M490 800h108v-140h-108v140zM48 239c14 261 431 146 452 344h87c-20 -274 -429 -160 -439 -339v-14c7 -114 108 -155 333 -155c271 0 331 76 343 181h91c-13 -145 -112 -262 -433 -262c-307 0 -427 78 -434 224v21z" />
    <glyph glyph-name="exclamdown" unicode="&#xa1;" horiz-adv-x="405" 
d="M147 798h108v-140h-108v140zM146 0l13 581h85l12 -581h-110z" />
    <glyph glyph-name="logicalnot" unicode="&#xac;" horiz-adv-x="793" 
d="M659 675c11 11 27 25 34 34c21 21 40 -4 14 -15c-12 -4 -33 -12 -48 -19zM141 663c-15 7 -36 15 -48 19c-26 11 -7 36 14 15c7 -9 23 -23 34 -34zM381 522l1 201h-377v72h783v-72h-376l1 -201c57 -10 102 -60 102 -121s-45 -112 -103 -120l-1 -200h377v-76h-783v76h376
l-1 200c-57 9 -101 59 -101 120s45 111 102 121zM123 131c-11 -11 -27 -25 -34 -34c-21 -21 -40 4 -14 15c12 4 33 12 48 19zM663 127c15 -7 36 -15 48 -19c26 -11 7 -36 -14 -15c-7 9 -23 23 -34 34zM412 486v-47l-16 -34l-14 34v47c-40 -8 -71 -43 -71 -85s30 -76 70 -84
v47l15 33l15 -33v-47c40 7 72 42 72 84s-31 77 -71 85z" />
    <glyph glyph-name="radical" unicode="&#x221a;" horiz-adv-x="1093" 
d="M1080 782l-623 -812h-94l-352 352h107l291 -270l582 730h89z" />
    <glyph glyph-name="florin" unicode="&#x192;" horiz-adv-x="667" 
d="M242 23c-15 -123 -89 -192 -231 -192c-68 0 -119 8 -145 11v79c18 -4 75 -11 143 -11c81 0 131 32 144 126c1 4 45 402 49 442h-171v74h179l10 73c15 102 80 182 272 182c82 0 135 -13 168 -18v-72c-29 6 -96 19 -154 18c-145 -1 -192 -47 -200 -119l-8 -64h333v-75h-339
c-2 -14 -49 -446 -50 -454z" />
    <glyph glyph-name="approxequal" unicode="&#x2248;" horiz-adv-x="949" 
d="M886 552c2 -80 -62 -148 -192 -148c-101 0 -159 31 -217 61c-61 32 -120 65 -215 65c-92 0 -131 -36 -131 -81h-68c-2 79 58 145 189 145c109 0 177 -37 239 -68c64 -32 104 -59 192 -59c91 0 135 41 135 85h68zM886 369c2 -80 -62 -148 -192 -148
c-101 0 -159 31 -217 61c-61 32 -120 65 -215 65c-92 0 -131 -36 -131 -81h-68c-2 79 58 145 189 145c109 0 177 -37 239 -68c64 -32 104 -59 192 -59c91 0 135 41 135 85h68z" />
    <glyph glyph-name="Delta" unicode="&#x394;" horiz-adv-x="793" 
d="M659 675c11 11 27 25 34 34c21 21 40 -4 14 -15c-12 -4 -33 -12 -48 -19zM141 663c-15 7 -36 15 -48 19c-26 11 -7 36 14 15c7 -9 23 -23 34 -34zM381 522l1 201h-377v72h783v-72h-376l1 -201c57 -10 102 -60 102 -121s-45 -112 -103 -120l-1 -200h377v-76h-783v76h376
l-1 200c-57 9 -101 59 -101 120s45 111 102 121zM123 131c-11 -11 -27 -25 -34 -34c-21 -21 -40 4 -14 15c12 4 33 12 48 19zM663 127c15 -7 36 -15 48 -19c26 -11 7 -36 -14 -15c-7 9 -23 23 -34 34zM412 486v-47l-16 -34l-14 34v47c-40 -8 -71 -43 -71 -85s30 -76 70 -84
v47l15 33l15 -33v-47c40 7 72 42 72 84s-31 77 -71 85z" />
    <glyph glyph-name="Delta" unicode="&#x2206;" horiz-adv-x="793" 
d="M659 675c11 11 27 25 34 34c21 21 40 -4 14 -15c-12 -4 -33 -12 -48 -19zM141 663c-15 7 -36 15 -48 19c-26 11 -7 36 14 15c7 -9 23 -23 34 -34zM381 522l1 201h-377v72h783v-72h-376l1 -201c57 -10 102 -60 102 -121s-45 -112 -103 -120l-1 -200h377v-76h-783v76h376
l-1 200c-57 9 -101 59 -101 120s45 111 102 121zM123 131c-11 -11 -27 -25 -34 -34c-21 -21 -40 4 -14 15c12 4 33 12 48 19zM663 127c15 -7 36 -15 48 -19c26 -11 7 -36 -14 -15c-7 9 -23 23 -34 34zM412 486v-47l-16 -34l-14 34v47c-40 -8 -71 -43 -71 -85s30 -76 70 -84
v47l15 33l15 -33v-47c40 7 72 42 72 84s-31 77 -71 85z" />
    <glyph glyph-name="guillemotleft" unicode="&#xab;" horiz-adv-x="925" 
d="M897 81l-406 240v65l406 244v-90l-321 -185l321 -184v-90zM463 81l-407 240v65l407 244v-90l-321 -185l321 -184v-90z" />
    <glyph glyph-name="guillemotright" unicode="&#xbb;" horiz-adv-x="925" 
d="M463 81v90l317 184l-317 185v90l406 -244v-65zM29 81v90l317 184l-317 185v90l406 -244v-65z" />
    <glyph glyph-name="ellipsis" unicode="&#x2026;" horiz-adv-x="1381" 
d="M1207 0h-123v158h123v-158zM747 0h-123v158h123v-158zM287 0h-123v158h123v-158z" />
    <glyph glyph-name="Agrave" unicode="&#xc0;" horiz-adv-x="1138" 
d="M248 214l-140 -214h-102l516 781h100l510 -781h-101l-143 214h-640zM841 296l-224 338l-48 79l-48 -79l-226 -338h546zM634 853h-87l-167 155h101z" />
    <glyph glyph-name="Atilde" unicode="&#xc3;" horiz-adv-x="1138" 
d="M248 214l-140 -214h-102l516 781h100l510 -781h-101l-143 214h-640zM841 296l-224 338l-48 79l-48 -79l-226 -338h546zM479 939c-35 0 -52 -16 -52 -82h-69c0 94 42 152 119 152c111 0 110 -87 187 -87c39 0 53 16 53 83h68c0 -106 -49 -153 -116 -153
c-117 0 -125 87 -190 87z" />
    <glyph glyph-name="Otilde" unicode="&#xd5;" horiz-adv-x="1253" 
d="M627 796c374 0 554 -162 554 -404c0 -266 -221 -404 -555 -404c-333 0 -555 152 -555 405c0 252 210 403 556 403zM627 70c279 0 464 120 464 322c0 188 -148 320 -465 320c-310 0 -464 -130 -464 -320c0 -200 191 -322 465 -322zM533 939c-35 0 -52 -16 -52 -82h-69
c0 94 42 152 119 152c111 0 110 -87 187 -87c39 0 53 16 53 83h68c0 -106 -49 -153 -116 -153c-117 0 -125 87 -190 87z" />
    <glyph glyph-name="OE" unicode="&#x152;" horiz-adv-x="1859" 
d="M934 781h829v-83h-743v-262h726v-81h-726v-271h752v-84h-838v52c-44 -27 -149 -64 -317 -64c-169 0 -320 44 -416 131c-83 64 -130 157 -130 274c0 109 38 205 125 277c101 86 241 126 425 126c164 0 246 -31 313 -61v46zM627 71c181 0 285 50 309 73c1 4 2 156 2 254
c0 94 0 239 -2 243c-50 31 -143 71 -310 71c-160 0 -280 -32 -362 -100c-68 -55 -102 -132 -102 -220c0 -100 45 -174 124 -231c80 -58 197 -90 341 -90z" />
    <glyph glyph-name="oe" unicode="&#x153;" horiz-adv-x="1798" 
d="M526 -13c-186 0 -312 42 -387 113c-50 44 -78 103 -78 178c0 62 24 126 82 173c71 68 194 116 383 116c241 0 369 -72 412 -161c49 93 170 160 382 160c234 0 380 -82 424 -223c8 -22 14 -67 15 -92h-783c3 -24 12 -47 24 -69c47 -80 151 -127 325 -127
c173 0 249 35 294 67c20 15 34 34 39 46h92c-9 -22 -22 -44 -41 -64c-60 -65 -168 -117 -384 -117c-233 0 -342 69 -388 163c-43 -89 -152 -163 -411 -163zM1670 310c-3 17 -9 36 -18 54c-42 76 -140 135 -333 135c-172 0 -257 -48 -298 -91c-32 -34 -43 -66 -46 -98h695z
M898 278c0 51 -20 97 -67 133c-63 50 -165 80 -305 80c-138 0 -244 -28 -307 -80c-48 -36 -74 -83 -74 -133c0 -60 24 -107 69 -143c63 -48 167 -74 312 -74c151 0 249 32 309 80c45 38 63 85 63 137z" />
    <glyph glyph-name="endash" unicode="&#x2013;" horiz-adv-x="808" 
d="M768 292h-728v89h728v-89z" />
    <glyph glyph-name="emdash" unicode="&#x2014;" horiz-adv-x="998" 
d="M958 293h-918v88h918v-88z" />
    <glyph glyph-name="quotedblleft" unicode="&#x201c;" horiz-adv-x="462" 
d="M411 682v-161h-121v162l76 117l53 -34l-42 -82l5 -2h29zM179 682v-161h-121v162l76 117l53 -34l-42 -82l5 -2h29z" />
    <glyph glyph-name="quotedblright" unicode="&#x201d;" horiz-adv-x="462" 
d="M292 639v161h121v-162l-76 -117l-53 34l42 82l-6 2h-28zM60 639v161h121v-162l-76 -117l-53 34l42 82l-5 2h-29z" />
    <glyph glyph-name="quoteleft" unicode="&#x2018;" horiz-adv-x="238" 
d="M186 690v-169h-128v170l76 109l53 -34l-37 -74l6 -2h30z" />
    <glyph glyph-name="quoteright" unicode="&#x2019;" horiz-adv-x="238" 
d="M51 631v169h128v-170l-76 -109l-53 34l37 74l-6 2h-30z" />
    <glyph glyph-name="divide" unicode="&#xf7;" horiz-adv-x="914" 
d="M495 610h-75v116h75v-116zM827 377h-740v63h740v-63zM495 92h-74v115h74v-115z" />
    <glyph glyph-name="lozenge" unicode="&#x25ca;" horiz-adv-x="1079" 
d="M1057 320l-482 -320h-72l-481 320l481 320h72zM949 320l-409 270l-410 -270l410 -272z" />
    <glyph glyph-name="ydieresis" unicode="&#xff;" horiz-adv-x="968" 
d="M948 550l-563 -736h-97l144 187l-412 549h93l369 -485l375 485h91zM639 618h-87v116h87v-116zM428 618h-87v116h87v-116z" />
    <glyph glyph-name="Ydieresis" unicode="&#x178;" horiz-adv-x="1162" 
d="M1155 781l-534 -529v-252h-89v250l-528 531h109l466 -457l471 457h105zM738 858h-87v116h87v-116zM527 858h-87v116h87v-116z" />
    <glyph glyph-name="fraction" unicode="&#x2044;" horiz-adv-x="352" 
d="M505 781l-604 -781h-46l598 781h52z" />
    <glyph glyph-name="fraction" unicode="&#x2215;" horiz-adv-x="352" 
d="M505 781l-604 -781h-46l598 781h52z" />
    <glyph glyph-name="currency" unicode="&#xa4;" horiz-adv-x="1190" 
d="M176 419h-142v55h148c5 23 11 45 19 65c55 156 215 255 452 255c236 0 388 -94 450 -246c8 -17 14 -36 18 -55h-92c-4 14 -8 26 -14 39c-50 113 -170 183 -362 183c-189 0 -312 -64 -364 -189c-8 -16 -13 -34 -18 -52h635v-55h-641c-1 -9 -1 -18 -1 -28c0 -9 0 -18 1 -27
h641v-55h-633c4 -17 9 -33 15 -48c52 -127 179 -193 365 -193c192 0 318 68 367 194c3 7 6 15 8 23h92c-3 -14 -9 -31 -13 -42c-59 -164 -223 -254 -453 -254c-238 0 -399 99 -454 257c-8 20 -14 41 -18 63h-148v55h142c-1 9 -1 18 -1 27s0 19 1 28z" />
    <glyph glyph-name="guilsinglleft" unicode="&#x2039;" horiz-adv-x="492" 
d="M463 81l-407 240v65l407 244v-90l-321 -185l321 -184v-90z" />
    <glyph glyph-name="guilsinglright" unicode="&#x203a;" horiz-adv-x="492" 
d="M29 81v90l320 184l-320 185v90l406 -244v-65z" />
    <glyph glyph-name="daggerdbl" unicode="&#x2021;" horiz-adv-x="535" 
d="M312 314h197v-73h-195v-239l-46 -107l-43 107v239h-199v73h201v142h-201v73h199c-1 32 -1 264 -1 264h91s0 -231 -1 -264h195v-73h-197v-142z" />
    <glyph glyph-name="periodcentered" unicode="&#xb7;" horiz-adv-x="459" 
d="M283 314h-118v158h118v-158z" />
    <glyph glyph-name="periodcentered" unicode="&#x2219;" horiz-adv-x="459" 
d="M283 314h-118v158h118v-158z" />
    <glyph glyph-name="quotesinglbase" unicode="&#x201a;" horiz-adv-x="238" 
d="M51 0v169h128v-170l-76 -109l-53 34l37 74l-6 2h-30z" />
    <glyph glyph-name="quotedblbase" unicode="&#x201e;" horiz-adv-x="462" 
d="M292 0v161h121v-162l-76 -117l-53 33l42 83l-6 2h-28zM60 0v161h121v-162l-76 -117l-53 33l42 83l-5 2h-29z" />
    <glyph glyph-name="perthousand" unicode="&#x2030;" horiz-adv-x="2355" 
d="M2292 183c0 -100 -122 -191 -344 -191c-227 0 -343 91 -343 191v40c0 101 129 193 341 193c230 0 346 -97 346 -193v-40zM768 565c0 -100 -122 -191 -343 -191c-227 0 -343 91 -343 191v40c0 101 128 193 341 193c230 0 345 -96 345 -193v-40zM1536 183
c0 -100 -121 -191 -343 -191c-227 0 -343 91 -343 191v40c0 101 129 193 341 193c230 0 345 -97 345 -193v-40zM702 572v20c0 70 -89 142 -279 142c-195 0 -275 -74 -275 -140v-20c0 -81 95 -137 276 -137c206 0 278 67 278 135zM2225 191v20c0 69 -89 140 -279 140
c-194 0 -275 -73 -275 -138v-21c0 -80 95 -138 275 -138c207 0 279 69 279 137zM1470 191v20c0 69 -89 140 -279 140c-194 0 -275 -73 -275 -138v-21c0 -80 95 -138 275 -138c207 0 279 69 279 137zM1212 781l-773 -781h-57l774 781h56z" />
    <glyph glyph-name="Acircumflex" unicode="&#xc2;" horiz-adv-x="1138" 
d="M248 214l-140 -214h-102l516 781h100l510 -781h-101l-143 214h-640zM841 296l-224 338l-48 79l-48 -79l-226 -338h546zM789 857h-83l-138 100l-137 -100h-84l180 151h83z" />
    <glyph glyph-name="Ecircumflex" unicode="&#xca;" horiz-adv-x="1154" 
d="M1058 0h-895v781h886v-83h-799v-261h782v-82h-782v-271h808v-84zM823 857h-83l-138 100l-137 -100h-84l180 151h83z" />
    <glyph glyph-name="Aacute" unicode="&#xc1;" horiz-adv-x="1138" 
d="M248 214l-140 -214h-102l516 781h100l510 -781h-101l-143 214h-640zM841 296l-224 338l-48 79l-48 -79l-226 -338h546zM510 853l153 155h101l-167 -155h-87z" />
    <glyph glyph-name="Edieresis" unicode="&#xcb;" horiz-adv-x="1154" 
d="M1058 0h-895v781h886v-83h-799v-261h782v-82h-782v-271h808v-84zM752 858h-87v116h87v-116zM541 858h-87v116h87v-116z" />
    <glyph glyph-name="Egrave" unicode="&#xc8;" horiz-adv-x="1154" 
d="M1058 0h-895v781h886v-83h-799v-261h782v-82h-782v-271h808v-84zM706 853h-87l-167 155h101z" />
    <glyph glyph-name="Iacute" unicode="&#xcd;" horiz-adv-x="415" 
d="M254 0h-91v781h91v-781zM146 853l153 155h101l-167 -155h-87z" />
    <glyph glyph-name="Icircumflex" unicode="&#xce;" horiz-adv-x="415" 
d="M254 0h-91v781h91v-781zM427 857h-83l-138 100l-137 -100h-84l180 151h83z" />
    <glyph glyph-name="Idieresis" unicode="&#xcf;" horiz-adv-x="415" 
d="M254 0h-91v781h91v-781zM356 858h-87v116h87v-116zM145 858h-87v116h87v-116z" />
    <glyph glyph-name="Igrave" unicode="&#xcc;" horiz-adv-x="415" 
d="M254 0h-91v781h91v-781zM274 853h-87l-167 155h101z" />
    <glyph glyph-name="Oacute" unicode="&#xd3;" horiz-adv-x="1253" 
d="M627 796c374 0 554 -162 554 -404c0 -266 -221 -404 -555 -404c-333 0 -555 152 -555 405c0 252 210 403 556 403zM627 70c279 0 464 120 464 322c0 188 -148 320 -465 320c-310 0 -464 -130 -464 -320c0 -200 191 -322 465 -322zM549 853l153 155h101l-167 -155h-87z
" />
    <glyph glyph-name="Ocircumflex" unicode="&#xd4;" horiz-adv-x="1253" 
d="M627 796c374 0 554 -162 554 -404c0 -266 -221 -404 -555 -404c-333 0 -555 152 -555 405c0 252 210 403 556 403zM627 70c279 0 464 120 464 322c0 188 -148 320 -465 320c-310 0 -464 -130 -464 -320c0 -200 191 -322 465 -322zM846 857h-83l-138 100l-137 -100h-84
l180 151h83z" />
    <glyph glyph-name="apple" unicode="&#xf8ff;" horiz-adv-x="793" 
d="M659 675c11 11 27 25 34 34c21 21 40 -4 14 -15c-12 -4 -33 -12 -48 -19zM141 663c-15 7 -36 15 -48 19c-26 11 -7 36 14 15c7 -9 23 -23 34 -34zM381 522l1 201h-377v72h783v-72h-376l1 -201c57 -10 102 -60 102 -121s-45 -112 -103 -120l-1 -200h377v-76h-783v76h376
l-1 200c-57 9 -101 59 -101 120s45 111 102 121zM123 131c-11 -11 -27 -25 -34 -34c-21 -21 -40 4 -14 15c12 4 33 12 48 19zM663 127c15 -7 36 -15 48 -19c26 -11 7 -36 -14 -15c-7 9 -23 23 -34 34zM412 486v-47l-16 -34l-14 34v47c-40 -8 -71 -43 -71 -85s30 -76 70 -84
v47l15 33l15 -33v-47c40 7 72 42 72 84s-31 77 -71 85z" />
    <glyph glyph-name="Ograve" unicode="&#xd2;" horiz-adv-x="1253" 
d="M627 796c374 0 554 -162 554 -404c0 -266 -221 -404 -555 -404c-333 0 -555 152 -555 405c0 252 210 403 556 403zM627 70c279 0 464 120 464 322c0 188 -148 320 -465 320c-310 0 -464 -130 -464 -320c0 -200 191 -322 465 -322zM707 853h-87l-167 155h101z" />
    <glyph glyph-name="Uacute" unicode="&#xda;" horiz-adv-x="1234" 
d="M1088 322c0 -220 -180 -334 -467 -334c-284 0 -475 104 -475 345v448h89v-450c0 -155 127 -261 390 -261c214 0 374 87 374 247v464h89v-459zM540 853l153 155h101l-167 -155h-87z" />
    <glyph glyph-name="Ucircumflex" unicode="&#xdb;" horiz-adv-x="1234" 
d="M1088 322c0 -220 -180 -334 -467 -334c-284 0 -475 104 -475 345v448h89v-450c0 -155 127 -261 390 -261c214 0 374 87 374 247v464h89v-459zM837 857h-83l-138 100l-137 -100h-84l180 151h83z" />
    <glyph glyph-name="Ugrave" unicode="&#xd9;" horiz-adv-x="1234" 
d="M1088 322c0 -220 -180 -334 -467 -334c-284 0 -475 104 -475 345v448h89v-450c0 -155 127 -261 390 -261c214 0 374 87 374 247v464h89v-459zM692 853h-87l-167 155h101z" />
    <glyph glyph-name="dotlessi" unicode="&#x131;" horiz-adv-x="356" 
d="M229 0h-85c-7 3 -9 18 -9 55v495h84v-495c0 -39 1 -49 10 -55z" />
    <glyph glyph-name="circumflex" unicode="&#x2c6;" 
d="M513 617h-83l-138 100l-137 -100h-84l180 151h83z" />
    <glyph glyph-name="tilde" unicode="&#x2dc;" 
d="M200 699c-35 0 -52 -16 -52 -82h-69c0 94 42 152 119 152c111 0 110 -87 187 -87c39 0 53 16 53 83h68c0 -106 -49 -153 -116 -153c-117 0 -125 87 -190 87z" />
    <glyph glyph-name="macron" unicode="&#xaf;" 
d="M483 648h-381v70h381v-70z" />
    <glyph glyph-name="macron" unicode="&#x2c9;" 
d="M483 648h-381v70h381v-70z" />
    <glyph glyph-name="breve" unicode="&#x2d8;" 
d="M492 781c0 -83 -59 -170 -200 -170c-140 0 -200 82 -200 170h76c0 -62 42 -101 124 -101s124 39 124 101h76z" />
    <glyph glyph-name="dotaccent" unicode="&#x2d9;" 
d="M337 618h-90v116h90v-116z" />
    <glyph glyph-name="ring" unicode="&#x2da;" 
d="M292 853c69 0 129 -54 129 -124s-60 -125 -129 -125c-68 0 -129 55 -129 125s61 124 129 124zM292 793c-35 0 -64 -29 -64 -64s29 -64 64 -64c36 0 64 29 64 64s-28 64 -64 64z" />
    <glyph glyph-name="cedilla" unicode="&#xb8;" 
d="M377 -115c0 21 -19 33 -119 33v82h55v-31c97 0 145 -27 145 -86c0 -88 -136 -118 -276 -78v67c152 -43 195 -14 195 13z" />
    <glyph glyph-name="hungarumlaut" unicode="&#x2dd;" 
d="M315 613l153 155h88l-164 -155h-77zM155 613l152 155h89l-164 -155h-77z" />
    <glyph glyph-name="ogonek" unicode="&#x2db;" 
d="M237 -92c0 -33 39 -41 143 -41v-57c-151 0 -206 38 -206 97c0 55 58 91 179 93v-51c-77 -3 -116 -6 -116 -41z" />
    <glyph glyph-name="caron" unicode="&#x2c7;" 
d="M71 767h83l138 -100l137 100h84l-180 -151h-83z" />
    <glyph glyph-name="Euro" unicode="&#x20ac;" horiz-adv-x="1190" 
d="M176 419h-142v55h148c5 23 11 45 19 65c55 156 215 255 452 255c236 0 388 -94 450 -246c8 -17 14 -36 18 -55h-92c-4 14 -8 26 -14 39c-50 113 -170 183 -362 183c-189 0 -312 -64 -364 -189c-8 -16 -13 -34 -18 -52h635v-55h-641c-1 -9 -1 -18 -1 -28c0 -9 0 -18 1 -27
h641v-55h-633c4 -17 9 -33 15 -48c52 -127 179 -193 365 -193c192 0 318 68 367 194c3 7 6 15 8 23h92c-3 -14 -9 -31 -13 -42c-59 -164 -223 -254 -453 -254c-238 0 -399 99 -454 257c-8 20 -14 41 -18 63h-148v55h142c-1 9 -1 18 -1 27s0 19 1 28z" />
    <glyph glyph-name=".null" horiz-adv-x="0" 
 />
    </font>
</defs>
</svg>
