<?xml version="1.0" standalone="no"?>
<!DOCTYPE svg PUBLIC "-//W3C//DTD SVG 1.1//EN" "http://www.w3.org/Graphics/SVG/1.1/DTD/svg11.dtd" >
<svg xmlns="http://www.w3.org/2000/svg" xmlns:xlink="http://www.w3.org/1999/xlink" version="1.1">
<metadata>
Created by FontForge 20190801 at Mon Jul 16 13:01:22 2007
 By root
[c] Copyright 2003-2004, The Font Bureau, Inc. Designed by David Berlow. All rights reserved.
</metadata>
<defs>
<font id="TitlingGothicFBExtended-Thin" horiz-adv-x="586" >
  <font-face 
    font-family="TitlingGothicFB Extended Thin"
    font-weight="100"
    font-stretch="normal"
    units-per-em="1000"
    panose-1="2 0 5 7 3 0 0 2 0 4"
    ascent="800"
    descent="-200"
    x-height="550"
    cap-height="781"
    bbox="-146 -221 2313 1013"
    underline-thickness="20"
    underline-position="-133"
    stemh="27"
    stemv="30"
    unicode-range="U+0020-FB02"
  />
<missing-glyph horiz-adv-x="500" 
 />
    <glyph glyph-name="fi" unicode="fi" horiz-adv-x="919" 
d="M745 522h-489v-522h-29v522h-193v28h193v75c0 105 53 179 245 179c77 0 130 -13 162 -18v-30c-32 7 -101 22 -166 21c-168 -2 -212 -63 -212 -150v-77h519v-521c0 -19 1 -25 6 -29h-30c-4 3 -6 10 -6 29v493z" />
    <glyph glyph-name="fl" unicode="fl" horiz-adv-x="915" 
d="M34 522v28h193v75c0 105 53 179 245 179c77 0 130 -13 162 -18v-30c-32 7 -101 22 -166 21c-168 -2 -212 -63 -212 -150v-77h371v-28h-371v-522h-29v522h-193zM777 0h-27c-2 2 -3 6 -3 15v727c0 23 -1 47 -3 58h29c2 -10 2 -25 2 -55v-684c0 -30 -1 -57 2 -61z" />
    <glyph glyph-name="f_f" unicode="ff" horiz-adv-x="1177" 
d="M257 522v-522h-30v522h-193v28h193v75c0 105 53 179 245 179c77 0 130 -13 162 -18v-30c-32 7 -101 22 -166 21c-168 -2 -211 -63 -211 -150v-77h489v75c0 105 53 179 245 179c77 0 130 -13 162 -18v-30c-32 7 -101 22 -166 21c-168 -2 -211 -63 -211 -150v-77h370v-28
h-370v-522h-30v522h-489z" />
    <glyph glyph-name="f_f_i" unicode="ffi" horiz-adv-x="1438" 
d="M1265 522h-489v-522h-30v522h-489v-522h-30v522h-193v28h193v75c0 105 53 179 245 179c77 0 130 -13 162 -18v-30c-32 7 -101 22 -166 21c-168 -2 -211 -63 -211 -150v-77h489v75c0 105 53 179 245 179c77 0 130 -13 162 -18v-30c-32 7 -101 22 -166 21
c-168 -2 -211 -63 -211 -150v-77h518v-521c0 -19 1 -25 6 -29h-29c-4 3 -6 10 -6 29v493z" />
    <glyph glyph-name="f_f_l" unicode="ffl" horiz-adv-x="1434" 
d="M257 522v-522h-30v522h-193v28h193v75c0 105 53 179 245 179c77 0 130 -13 162 -18v-30c-32 7 -101 22 -166 21c-168 -2 -211 -63 -211 -150v-77h489v75c0 105 53 179 245 179c77 0 130 -13 162 -18v-30c-32 7 -101 22 -166 21c-168 -2 -211 -63 -211 -150v-77h361v-28
h-361v-522h-30v522h-489zM1296 0h-27c-2 2 -3 6 -3 15v727c0 23 -1 47 -3 58h29c2 -10 2 -25 2 -55v-684c0 -30 -1 -57 2 -61z" />
    <glyph glyph-name=".notdef" horiz-adv-x="500" 
 />
    <glyph glyph-name="NUL" horiz-adv-x="0" 
 />
    <glyph glyph-name="Eth" unicode="&#xd0;" horiz-adv-x="1190" 
d="M180 371h-143v28h143v382h489c231 0 359 -75 411 -211c19 -52 29 -112 29 -180c0 -66 -10 -125 -30 -177c-54 -135 -185 -213 -405 -213h-494v371zM211 399h422v-28h-422v-343h448c220 0 339 72 389 195c20 48 28 103 29 165c0 64 -8 122 -29 172
c-50 121 -166 194 -372 194h-465v-355z" />
    <glyph glyph-name="eth" unicode="&#xf0;" horiz-adv-x="1046" 
d="M893 616c-47 -38 -66 -58 -122 -58c-82 0 -124 49 -127 152h28c2 -109 48 -125 99 -125c49 0 69 22 105 52c-11 13 -22 25 -35 36c-70 60 -173 94 -311 94c-227 0 -325 -57 -371 -128c-4 -6 -7 -11 -10 -17h-31c3 7 6 15 10 22c42 80 161 150 398 150
c141 0 255 -37 332 -99c15 -12 29 -25 41 -39c49 41 59 55 118 55c85 0 120 -57 122 -159h-27c-2 52 -8 130 -95 130c-46 0 -59 -13 -101 -47c53 -69 70 -157 70 -243c0 -92 -20 -168 -60 -229c-78 -118 -227 -175 -411 -175c-274 0 -437 118 -437 281v14
c6 147 143 251 420 251c246 0 399 -87 458 -161c0 97 -17 179 -63 243zM107 267c0 -140 150 -249 406 -249c228 0 400 91 434 274c4 21 4 24 7 48c-20 31 -150 167 -455 167c-297 0 -392 -114 -392 -231v-9z" />
    <glyph glyph-name="Lslash" unicode="&#x141;" horiz-adv-x="995" 
d="M212 269v-240h741v-29h-773v255l-95 -40v28l95 40v498h32v-484l384 162v-28z" />
    <glyph glyph-name="lslash" unicode="&#x142;" horiz-adv-x="308" 
d="M168 277v-216c0 -30 -1 -57 2 -61h-27c-2 2 -3 6 -3 15v250l-119 -50v28l119 50v449c0 23 -1 47 -3 58h29c2 -10 2 -25 2 -55v-440l118 50v-28z" />
    <glyph glyph-name="Scaron" unicode="&#x160;" horiz-adv-x="1194" 
d="M1075 209c0 -136 -114 -221 -446 -221c-329 0 -496 61 -516 250h33c24 -169 167 -220 480 -220c315 0 417 77 417 187c0 178 -219 183 -441 189c-229 6 -462 9 -462 196c0 111 99 207 436 207c317 0 451 -75 477 -215h-34c-27 121 -148 185 -447 185
c-306 0 -400 -84 -400 -175c0 -159 212 -165 431 -170c232 -5 472 -15 472 -213zM389 1008h37l170 -112l170 112h37l-184 -136h-46z" />
    <glyph glyph-name="scaron" unicode="&#x161;" horiz-adv-x="994" 
d="M895 153c0 -101 -93 -165 -387 -165c-266 0 -391 52 -399 156h30c6 -80 117 -130 374 -130c269 0 352 56 352 135c0 120 -119 124 -371 131c-257 8 -368 19 -368 144c0 97 111 142 351 142c275 0 366 -62 383 -156h-30c-15 77 -90 129 -351 129
c-264 0 -323 -49 -323 -114c0 -97 95 -112 336 -119c270 -7 403 -18 403 -153zM289 758h37l170 -112l170 112h37l-184 -136h-46z" />
    <glyph glyph-name="Yacute" unicode="&#xdd;" horiz-adv-x="1111" 
d="M1106 781l-543 -531v-250h-32v247l-526 534h40l502 -508l519 508h40zM471 871l167 139h43l-173 -139h-37z" />
    <glyph glyph-name="yacute" unicode="&#xfd;" horiz-adv-x="946" 
d="M924 550l-561 -736h-33l145 190l-451 546h36l432 -521l398 521h34zM389 621l167 139h43l-173 -139h-37z" />
    <glyph glyph-name="Thorn" unicode="&#xde;" horiz-adv-x="1133" 
d="M211 781v-100h510c189 0 277 -52 305 -138c11 -32 13 -70 13 -113c0 -55 -4 -100 -23 -134c-46 -81 -146 -113 -303 -113h-502v-183h-31v781h31zM1007 430c0 40 -2 78 -15 109c-28 71 -112 113 -260 113h-521v-439h518c155 0 228 39 260 102c16 31 18 71 18 115z" />
    <glyph glyph-name="thorn" unicode="&#xfe;" horiz-adv-x="1075" 
d="M981 275c0 -53 -11 -98 -31 -135c-57 -108 -191 -153 -396 -153c-169 0 -330 44 -386 160v-333h-28v980h28v-407c36 97 143 179 385 179c233 0 345 -67 394 -150c27 -45 34 -94 34 -141zM953 275c0 49 -9 91 -31 127c-56 94 -187 136 -370 136
c-265 0 -348 -101 -373 -191c-2 -7 -11 -49 -11 -81c0 -31 6 -56 13 -77c34 -100 144 -176 373 -176c203 0 317 47 367 136c20 36 32 77 32 126z" />
    <glyph glyph-name="Zcaron" unicode="&#x17d;" horiz-adv-x="984" 
d="M932 0h-855v46l798 707h-765v28h788v-46l-797 -707h831v-28zM284 1008h37l170 -112l170 112h37l-184 -136h-46z" />
    <glyph glyph-name="zcaron" unicode="&#x17e;" horiz-adv-x="813" 
d="M774 0h-713v32l644 490h-639v28h676v-35l-644 -487h676v-28zM198 758h37l170 -112l170 112h37l-184 -136h-46z" />
    <glyph glyph-name="onehalf" unicode="&#xbd;" horiz-adv-x="1044" 
d="M336 388h-31v368l-293 -86v27c44 6 282 82 302 91h22v-400zM795 781c0 0 -182 -229 -305 -386c-114 -147 -300 -395 -300 -395h-39s194 251 321 413c112 143 286 368 286 368h37zM1018 0h-494v32c290 108 446 159 446 250v2c0 54 -40 99 -202 99
c-103 0 -148 -17 -181 -45c-16 -14 -24 -27 -28 -42h-30c3 15 17 40 36 56c37 32 100 54 203 54c183 0 230 -53 230 -122c0 -4 0 0 0 -1c0 -92 -138 -164 -432 -257h452v-26z" />
    <glyph glyph-name="onequarter" unicode="&#xbc;" horiz-adv-x="1083" 
d="M336 388h-31v368l-293 -86v27c44 6 282 82 302 91h22v-400zM835 781c0 0 -182 -229 -305 -386c-114 -147 -300 -395 -300 -395h-39s194 251 321 413c112 143 286 368 286 368h37zM1057 105h-137v-105h-26v105h-414v33l401 259h39v-268h137v-24zM894 129v249l-387 -249
h387z" />
    <glyph glyph-name="onesuperior" unicode="&#xb9;" horiz-adv-x="528" 
d="M336 388h-31v368l-293 -86v27c44 6 282 82 302 91h22v-400z" />
    <glyph glyph-name="threequarters" unicode="&#xbe;" horiz-adv-x="1233" 
d="M423 599c92 -7 141 -38 141 -90v-5c0 -73 -91 -120 -274 -120c-199 0 -252 54 -268 112c-1 5 -2 13 -2 16h29c0 -6 1 -7 2 -12c15 -59 86 -93 237 -93c167 0 243 38 245 98v1c0 46 -43 78 -178 78h-177v24h179c90 0 138 30 139 80v4c0 40 -48 76 -200 76
c-135 0 -198 -22 -213 -75c-2 -9 -4 -15 -4 -21h-29s1 8 1 10c12 76 84 109 245 109c176 0 228 -48 230 -101v-2c0 -31 -17 -79 -103 -89zM1003 781c0 0 -182 -229 -305 -386c-114 -147 -300 -395 -300 -395h-39s194 251 321 413c112 143 286 368 286 368h37zM1225 105h-137
v-105h-26v105h-414v33l401 259h39v-268h137v-24zM1062 129v249l-387 -249h387z" />
    <glyph glyph-name="threesuperior" unicode="&#xb3;" horiz-adv-x="630" 
d="M457 599c92 -7 141 -38 141 -90v-5c0 -73 -91 -120 -274 -120c-199 0 -252 54 -268 112c-1 5 -2 13 -2 16h29c0 -6 1 -7 2 -12c15 -59 86 -93 237 -93c167 0 243 38 245 98v1c0 46 -43 78 -178 78h-177v24h179c90 0 138 30 139 80v4c0 40 -48 76 -200 76
c-135 0 -198 -22 -213 -75c-2 -9 -4 -15 -4 -21h-29s1 8 1 10c12 76 84 109 245 109c176 0 228 -48 230 -101v-2c0 -31 -17 -79 -103 -89z" />
    <glyph glyph-name="twosuperior" unicode="&#xb2;" horiz-adv-x="603" 
d="M568 388h-494v28c302 108 447 163 447 254v2c0 54 -41 100 -203 100c-103 0 -149 -18 -182 -46c-16 -14 -24 -27 -28 -42h-29c3 15 17 40 36 56c37 32 100 54 203 54c183 0 230 -53 230 -122c0 -4 0 0 0 -1c0 -92 -109 -155 -424 -257h444v-26z" />
    <glyph glyph-name="brokenbar" unicode="&#xa6;" horiz-adv-x="457" 
d="M244 364h-32v436h32v-436zM244 -200h-32v436h32v-436z" />
    <glyph glyph-name="minus" unicode="&#x2212;" horiz-adv-x="898" 
d="M806 405h-716v26h716v-26z" />
    <glyph glyph-name="multiply" unicode="&#xd7;" horiz-adv-x="898" 
d="M678 628l-210 -210l211 -211l-21 -19l-210 210l-210 -210l-20 20l210 210l-210 210l21 19l209 -209l210 210z" />
    <glyph glyph-name="space" unicode=" " horiz-adv-x="424" 
 />
    <glyph glyph-name="space" unicode="&#xa0;" horiz-adv-x="424" 
 />
    <glyph glyph-name="exclam" unicode="!" horiz-adv-x="383" 
d="M209 781l-3 -603h-29l-3 603h35zM219 0h-55v91h55v-91z" />
    <glyph glyph-name="quotedbl" unicode="&#x22;" horiz-adv-x="526" 
d="M408 781l-4 -389h-29l-4 389h37zM157 781l-5 -389h-29l-4 389h38z" />
    <glyph glyph-name="numbersign" unicode="#" horiz-adv-x="790" 
d="M530 283h185l-3 -27h-187l-64 -294h-30l64 294h-238l-64 -294h-30l64 294h-181l2 27h184s20 89 41 191h-201l2 27h206c28 133 60 280 60 280h31l-61 -280h238c28 133 60 280 60 280h31s-32 -146 -61 -280h163l-3 -27h-166c-23 -102 -42 -191 -42 -191zM263 283h237
s20 89 41 191h-237z" />
    <glyph glyph-name="dollar" unicode="$" horiz-adv-x="1078" 
d="M518 0c-176 2 -369 30 -435 169c-7 15 -13 32 -17 51h29c4 -14 9 -27 15 -40c56 -116 212 -149 408 -152v360c-12 1 -24 1 -35 2c-259 19 -397 61 -397 183c0 106 89 192 432 195v37h29v-37c240 0 343 -60 389 -165c6 -13 8 -27 12 -41h-27c-4 11 -6 22 -11 33
c-44 93 -139 146 -363 146v-327c14 -1 28 -2 41 -2c302 -21 397 -74 397 -204c0 -148 -160 -206 -438 -208v-55h-29v55zM518 741c-277 -2 -403 -59 -403 -166c0 -115 175 -147 403 -159v325zM547 28c263 1 409 53 409 174c0 120 -80 165 -409 184v-358z" />
    <glyph glyph-name="percent" unicode="%" horiz-adv-x="1652" 
d="M779 565c0 -100 -118 -191 -342 -191c-230 0 -345 91 -345 191v40c0 106 128 193 341 193c230 0 346 -91 346 -193v-40zM1555 185c0 -100 -118 -191 -342 -191c-230 0 -345 91 -345 191v40c0 106 128 193 341 193c230 0 346 -91 346 -193v-40zM1527 192v21
c0 99 -102 178 -318 178c-221 0 -313 -84 -313 -175v-22c0 -103 109 -173 313 -173c235 0 318 84 318 171zM751 572v21c0 95 -102 178 -318 178c-221 0 -313 -92 -313 -175v-22c0 -103 109 -173 313 -173c235 0 318 84 318 171zM1227 781l-800 -781h-35l800 781h35z" />
    <glyph glyph-name="ampersand" unicode="&#x26;" horiz-adv-x="1298" 
d="M952 87c-140 -63 -294 -98 -442 -98c-245 0 -431 13 -431 165c0 115 161 158 329 205c-107 77 -177 159 -177 241c0 128 104 194 292 194c171 0 287 -70 287 -182c0 -149 -166 -213 -336 -263c131 -84 306 -164 476 -232c112 54 198 128 217 215h30
c-20 -95 -103 -172 -212 -229c100 -39 197 -74 281 -103h-72c-75 25 -158 54 -242 87zM445 368c168 48 335 103 335 243c0 93 -106 156 -258 156c-173 0 -261 -61 -261 -169c0 -76 73 -155 184 -230zM916 101c-174 68 -348 149 -479 238c-167 -47 -328 -86 -328 -184
c0 -118 165 -142 401 -142c123 0 278 32 406 88z" />
    <glyph glyph-name="quotesingle" unicode="'" horiz-adv-x="504" 
d="M272 781l-6 -389h-29l-5 389h40z" />
    <glyph glyph-name="parenleft" unicode="(" horiz-adv-x="471" 
d="M447 -68h-37c-92 27 -330 138 -330 423c0 232 209 396 330 426h37c-163 -58 -335 -222 -335 -424c0 -262 210 -381 335 -425z" />
    <glyph glyph-name="parenright" unicode=")" horiz-adv-x="471" 
d="M408 355c0 -285 -238 -396 -330 -423h-37c125 44 335 163 335 425c0 202 -172 366 -335 424h37c121 -30 330 -194 330 -426z" />
    <glyph glyph-name="asterisk" unicode="*" horiz-adv-x="888" 
d="M446 555l199 109l11 -23l-203 -110l158 -162l-20 -19l-158 162l-146 -158l-20 19l146 158l-211 110l11 23l207 -109v243h26v-243z" />
    <glyph glyph-name="plus" unicode="+" horiz-adv-x="900" 
d="M808 406h-343v-299h-30v299h-343v24h343v299h30v-299h343v-24z" />
    <glyph glyph-name="comma" unicode="," horiz-adv-x="450" 
d="M250 -10l-38 -70h-26l39 81l-16 -1h-21v103h62v-113z" />
    <glyph glyph-name="hyphen" unicode="-" horiz-adv-x="716" 
d="M701 371h-685v28h685v-28z" />
    <glyph glyph-name="hyphen" unicode="&#xad;" horiz-adv-x="716" 
d="M701 371h-685v28h685v-28z" />
    <glyph glyph-name="period" unicode="." horiz-adv-x="450" 
d="M252 0h-67v103h67v-103z" />
    <glyph glyph-name="slash" unicode="/" horiz-adv-x="459" 
d="M509 794l-511 -952h-32l511 952h32z" />
    <glyph glyph-name="zero" unicode="0" horiz-adv-x="1084" 
d="M542 794c229 0 372 -83 435 -226c22 -50 32 -110 32 -177c0 -62 -9 -116 -27 -164c-59 -157 -212 -238 -440 -238c-222 0 -377 85 -436 229c-20 50 -31 108 -31 173c0 68 12 127 32 177c59 146 215 226 435 226zM979 391c0 60 -10 114 -29 161c-56 137 -193 215 -409 215
c-210 0 -345 -66 -406 -213c-20 -46 -30 -101 -30 -163c0 -58 11 -111 29 -156c60 -147 202 -218 408 -218c213 0 355 75 411 219c17 45 26 97 26 155z" />
    <glyph glyph-name="one" unicode="1" horiz-adv-x="738" 
d="M494 0h-30v743l-354 -79v29c355 77 355 77 360 95h24v-788z" />
    <glyph glyph-name="two" unicode="2" horiz-adv-x="1012" 
d="M975 0h-871v41c514 213 761 351 761 525v4c0 108 -83 197 -354 197c-171 0 -269 -46 -321 -104c-24 -28 -39 -59 -46 -89h-31c10 41 29 79 60 112c61 64 166 108 339 108c294 0 383 -103 383 -225c0 -8 0 1 0 -2c0 -183 -232 -327 -757 -539h837v-28z" />
    <glyph glyph-name="three" unicode="3" horiz-adv-x="1072" 
d="M757 410c151 -16 238 -69 238 -191c0 -146 -152 -231 -456 -231c-303 0 -451 89 -451 248h29c0 -142 134 -220 419 -220c290 0 432 72 432 208c0 97 -76 168 -314 168h-312v26h318c198 0 243 94 243 178c0 86 -86 170 -355 170c-276 0 -377 -73 -381 -211h-29
c2 150 120 239 411 239c293 0 383 -97 383 -202c0 -86 -52 -167 -175 -182z" />
    <glyph glyph-name="four" unicode="4" horiz-adv-x="1010" 
d="M1001 223h-227v-223h-30v223h-705v41l695 530h40v-543h227v-28zM744 251v518l-679 -518h679z" />
    <glyph glyph-name="five" unicode="5" horiz-adv-x="1088" 
d="M588 -11c-309 0 -450 91 -498 267h30c46 -160 183 -239 465 -239c241 0 400 93 400 256c0 167 -123 256 -408 256c-150 0 -312 -29 -395 -156h-46v408h813v-28h-784v-363c70 120 234 167 412 167c297 0 438 -96 438 -283c0 -181 -174 -285 -427 -285z" />
    <glyph glyph-name="six" unicode="6" horiz-adv-x="1046" 
d="M983 269c0 -163 -163 -281 -437 -281c-184 0 -333 57 -411 175c-40 61 -60 137 -60 229c0 65 12 137 44 201c59 120 208 201 416 201c237 0 356 -70 398 -150c4 -7 7 -15 10 -22h-31c-3 6 -6 11 -10 17c-46 71 -144 128 -371 128c-277 0 -414 -139 -426 -343
c-2 -30 0 -39 0 -51c59 74 212 161 458 161c277 0 414 -104 420 -251v-14zM954 267v9c0 117 -95 231 -392 231c-305 0 -435 -136 -455 -167c3 -24 3 -27 7 -48c34 -183 206 -276 434 -276c256 0 406 111 406 251z" />
    <glyph glyph-name="seven" unicode="7" horiz-adv-x="863" 
d="M856 741l-638 -741h-39l652 753h-825v28h850v-40z" />
    <glyph glyph-name="eight" unicode="8" horiz-adv-x="1072" 
d="M538 -12c-354 0 -472 107 -472 246s155 206 325 218c-168 17 -235 77 -235 163c0 85 94 179 380 179s380 -94 380 -179c0 -87 -59 -139 -235 -162c191 -13 325 -80 325 -219s-125 -246 -468 -246zM887 615c0 75 -97 151 -351 151c-255 0 -351 -76 -351 -151
c0 -69 65 -152 351 -152c299 0 351 83 351 152zM976 234c0 134 -137 202 -440 202c-289 0 -440 -68 -440 -202s135 -218 440 -218c335 0 440 94 440 218z" />
    <glyph glyph-name="nine" unicode="9" horiz-adv-x="1046" 
d="M922 190c-59 -120 -218 -201 -426 -201c-237 0 -365 70 -407 150c-4 7 -7 15 -10 22h31c3 -6 6 -11 10 -17c46 -71 153 -128 380 -128c277 0 423 131 436 343c2 30 0 39 0 51c-59 -74 -212 -161 -458 -161c-277 0 -409 104 -415 251v14c0 163 158 281 432 281
c184 0 333 -57 411 -175c40 -61 60 -137 60 -229c0 -65 -12 -137 -44 -201zM934 443c-3 24 -3 27 -7 48c-34 183 -206 277 -434 277c-260 0 -400 -112 -400 -252v-9c0 -117 89 -231 386 -231c305 0 435 136 455 167z" />
    <glyph glyph-name="colon" unicode=":" horiz-adv-x="455" 
d="M258 492h-59v96h59v-96zM258 0h-59v97h59v-97z" />
    <glyph glyph-name="semicolon" unicode=";" horiz-adv-x="455" 
d="M258 492h-59v96h59v-96zM260 -10l-38 -70h-26l39 81l-16 -1h-21v103h62v-113z" />
    <glyph glyph-name="less" unicode="&#x3c;" horiz-adv-x="924" 
d="M824 -17l-727 328v27l727 327v-30l-700 -311l700 -311v-30z" />
    <glyph glyph-name="equal" unicode="=" horiz-adv-x="925" 
d="M855 477h-785v26h785v-26zM855 332h-785v26h785v-26z" />
    <glyph glyph-name="greater" unicode="&#x3e;" horiz-adv-x="924" 
d="M827 311l-727 -328v28l700 313l-700 313v28l727 -327v-27z" />
    <glyph glyph-name="question" unicode="?" horiz-adv-x="890" 
d="M407 182h-29c0 298 456 118 456 385c0 130 -124 198 -397 198c-289 0 -378 -91 -385 -219h-30c14 162 134 248 424 248c303 0 418 -84 418 -228c0 -296 -457 -107 -457 -384zM419 0h-55v91h55v-91z" />
    <glyph glyph-name="at" unicode="@" horiz-adv-x="1288" 
d="M1214 349c-10 -205 -124 -315 -264 -315c-98 0 -120 81 -115 127c-53 -91 -145 -127 -242 -127c-137 0 -248 93 -226 245c16 162 138 287 329 287c90 0 170 -49 194 -118l30 94h27c-27 -88 -43 -135 -68 -239c-44 -180 -12 -245 81 -245c117 0 217 115 225 294
c9 220 -138 412 -495 412c-379 0 -583 -230 -583 -486c0 -325 282 -474 501 -474c247 0 411 82 499 177l23 -23c-101 -100 -253 -179 -522 -179c-276 0 -529 174 -529 495c0 299 229 519 609 519c369 0 537 -208 526 -444zM870 393c12 71 -71 145 -178 145
c-142 0 -277 -95 -294 -256c-15 -141 75 -222 195 -222c149 0 220 86 241 169c4 16 26 105 36 164z" />
    <glyph glyph-name="A" unicode="A" horiz-adv-x="1078" 
d="M209 250l-163 -250h-36l512 781h34l512 -781h-35l-164 250h-660zM850 279l-260 402l-51 81l-52 -81l-259 -402h622z" />
    <glyph glyph-name="B" unicode="B" horiz-adv-x="1194" 
d="M820 0h-640v781h568c182 0 252 -79 252 -188c0 -111 -52 -165 -110 -182c141 -9 214 -86 214 -204c0 -134 -83 -207 -284 -207zM967 588c0 74 -48 163 -194 163h-562v-339h603c94 0 153 73 153 176zM1071 207c0 105 -70 178 -222 178h-638v-355h632c153 0 228 60 228 177
z" />
    <glyph glyph-name="C" unicode="C" horiz-adv-x="1202" 
d="M1133 274c-5 -38 -25 -81 -51 -117c-70 -96 -205 -169 -446 -169c-282 0 -452 88 -520 231c-25 51 -36 109 -36 173c0 53 8 104 25 150c60 153 225 255 509 255c233 0 375 -70 452 -160c35 -41 60 -90 68 -134h-37c-8 40 -27 79 -58 114c-81 92 -203 150 -425 150
c-241 0 -416 -75 -478 -233c-16 -41 -24 -89 -24 -142c0 -61 11 -116 34 -160c84 -163 274 -216 482 -216c217 0 350 57 425 159c21 28 40 71 43 99h37z" />
    <glyph glyph-name="D" unicode="D" horiz-adv-x="1190" 
d="M1079 213c-54 -135 -185 -213 -405 -213h-494v781h489c231 0 359 -76 410 -211c19 -51 30 -112 30 -180c0 -66 -10 -125 -30 -177zM1049 223c20 48 27 103 28 165c0 64 -8 122 -28 172c-48 123 -167 194 -373 194h-465v-726h448c220 0 338 67 390 195z" />
    <glyph glyph-name="E" unicode="E" horiz-adv-x="1159" 
d="M1054 0h-874v781h865v-27h-835v-342h817v-27h-817v-357h844v-28z" />
    <glyph glyph-name="F" unicode="F" horiz-adv-x="1066" 
d="M974 754h-763v-342h734v-27h-734v-385h-31v781h794v-27z" />
    <glyph glyph-name="G" unicode="G" horiz-adv-x="1253" 
d="M1096 0h-31l-4 165c-42 -58 -142 -177 -454 -177c-284 0 -527 93 -527 403c0 212 136 406 531 406c249 0 390 -98 447 -200c17 -30 27 -61 34 -90h-35c-5 23 -13 49 -27 72c-58 99 -190 188 -419 188c-362 0 -497 -164 -497 -376c0 -287 228 -374 494 -374
c254 0 354 75 428 161c27 31 27 31 27 198h-524v29h557s-1 -123 -1 -175c0 -102 1 -230 1 -230z" />
    <glyph glyph-name="H" unicode="H" horiz-adv-x="1236" 
d="M1055 0h-31v384h-813v-384h-31v781h31v-368h813v368h31v-781z" />
    <glyph glyph-name="I" unicode="I" horiz-adv-x="392" 
d="M212 0h-32v781h32v-781z" />
    <glyph glyph-name="J" unicode="J" horiz-adv-x="847" 
d="M679 303c0 -227 -165 -314 -371 -314c-127 0 -225 11 -291 25v31c58 -14 172 -27 290 -27c237 0 340 111 340 296v467h32v-478z" />
    <glyph glyph-name="K" unicode="K" horiz-adv-x="1065" 
d="M1011 0h-50l-568 409l-181 -109v-300h-32v781h32v-449l735 449h51l-579 -356z" />
    <glyph glyph-name="L" unicode="L" horiz-adv-x="995" 
d="M953 0h-773v781h32v-752h741v-29z" />
    <glyph glyph-name="M" unicode="M" horiz-adv-x="1456" 
d="M1276 0h-32v757l-492 -757h-54l-486 757v-757h-32v781h51l494 -766l499 766h52v-781z" />
    <glyph glyph-name="N" unicode="N" horiz-adv-x="1229" 
d="M1049 0h-47l-790 752v-752h-32v781h45l795 -756v756h29v-781z" />
    <glyph glyph-name="O" unicode="O" horiz-adv-x="1227" 
d="M614 797c350 0 533 -155 533 -407c0 -261 -222 -403 -534 -403c-332 0 -533 135 -533 403c0 241 184 407 534 407zM614 16c292 0 501 128 501 374c0 229 -168 378 -502 378c-335 0 -501 -162 -501 -378c0 -251 200 -374 502 -374z" />
    <glyph glyph-name="P" unicode="P" horiz-adv-x="1133" 
d="M1039 530c0 -154 -58 -247 -326 -247h-502v-283h-31v781h541c260 0 318 -93 318 -251zM1007 530c0 131 -48 222 -275 222h-521v-439h518c229 0 278 84 278 217z" />
    <glyph glyph-name="Q" unicode="Q" horiz-adv-x="1227" 
d="M665 -11c24 -25 73 -67 119 -88c56 -26 119 -43 178 -43v-28c-66 0 -138 20 -194 46c-61 29 -117 84 -142 112h-13c-153 0 -281 33 -374 95c-101 68 -159 172 -159 308c0 116 43 221 133 293c89 71 225 113 401 113c175 0 312 -40 401 -111s132 -176 132 -295
s-45 -220 -128 -288c-84 -69 -214 -109 -354 -114zM614 17c158 0 293 36 382 109c78 64 119 158 119 265c0 108 -37 202 -117 268c-84 69 -216 108 -385 108c-162 0 -294 -36 -380 -105c-80 -64 -121 -161 -121 -271c0 -123 56 -219 146 -282c90 -62 214 -92 356 -92z" />
    <glyph glyph-name="R" unicode="R" horiz-adv-x="1184" 
d="M1014 574c0 -118 -67 -194 -194 -198l296 -376h-49l-287 372h-568v-372h-32v781h591c189 0 243 -91 243 -207zM978 574c0 115 -52 177 -219 177h-547v-348h573c129 0 193 55 193 171z" />
    <glyph glyph-name="S" unicode="S" horiz-adv-x="1194" 
d="M1075 209c0 -136 -114 -221 -446 -221c-329 0 -496 61 -516 250h33c24 -169 167 -220 480 -220c315 0 417 77 417 187c0 178 -219 183 -441 189c-229 6 -462 9 -462 196c0 111 99 207 436 207c317 0 451 -75 477 -215h-34c-27 121 -148 185 -447 185
c-306 0 -400 -84 -400 -175c0 -159 212 -165 431 -170c232 -5 472 -15 472 -213z" />
    <glyph glyph-name="T" unicode="T" horiz-adv-x="980" 
d="M975 752h-468v-752h-32v752h-470v29h970v-29z" />
    <glyph glyph-name="U" unicode="U" horiz-adv-x="1210" 
d="M1050 309c0 -216 -184 -321 -436 -321c-264 0 -454 85 -454 321v472h31v-484c0 -172 140 -280 423 -280c219 0 405 95 405 280v484h31v-472z" />
    <glyph glyph-name="V" unicode="V" horiz-adv-x="1077" 
d="M1076 781l-510 -781h-51l-513 781h38l501 -759l499 759h36z" />
    <glyph glyph-name="W" unicode="W" horiz-adv-x="1558" 
d="M1555 781l-375 -781h-53l-349 763l-350 -763h-53l-373 781h34l366 -761l350 761h52l350 -761l367 761h34z" />
    <glyph glyph-name="X" unicode="X" horiz-adv-x="997" 
d="M503 382c0 1 -459 -382 -459 -382h-44l482 400c1 0 -445 381 -445 381h42s425 -362 425 -363l437 363h43l-459 -380l470 -401h-46z" />
    <glyph glyph-name="Y" unicode="Y" horiz-adv-x="1111" 
d="M1106 781l-543 -531v-250h-32v247l-526 534h40l502 -508l519 508h40z" />
    <glyph glyph-name="Z" unicode="Z" horiz-adv-x="984" 
d="M932 0h-855v46l798 707h-765v28h788v-46l-797 -707h831v-28z" />
    <glyph glyph-name="bracketleft" unicode="[" horiz-adv-x="676" 
d="M569 -186h-376v967h376v-27h-346v-913h346v-27z" />
    <glyph glyph-name="backslash" unicode="\" horiz-adv-x="459" 
d="M-50 794h32l511 -952h-32z" />
    <glyph glyph-name="bracketright" unicode="]" horiz-adv-x="676" 
d="M107 -186v27h346v913h-346v27h376v-967h-376z" />
    <glyph glyph-name="asciicircum" unicode="^" horiz-adv-x="857" 
d="M443 769l-354 -233l-17 22l350 236h43l350 -236l-17 -22z" />
    <glyph glyph-name="underscore" unicode="_" horiz-adv-x="663" 
d="M663 -200h-663v28h663v-28z" />
    <glyph glyph-name="grave" unicode="`" 
d="M376 621h-37l-173 139h43z" />
    <glyph glyph-name="a" unicode="a" horiz-adv-x="993" 
d="M867 0h-29s-10 88 -7 115c-29 -68 -186 -126 -402 -126c-250 0 -338 52 -338 158c0 105 111 171 439 172c86 0 185 -5 302 -13v20c0 142 -69 213 -323 213c-227 0 -336 -53 -349 -144h-31c14 109 128 169 380 169c262 0 351 -75 351 -226c0 -52 -2 -172 -2 -206
c0 -53 4 -113 9 -132zM832 283c-110 6 -204 11 -286 11c-306 0 -424 -53 -424 -150c0 -86 80 -130 306 -130c208 0 371 54 401 134c0 0 3 119 3 135z" />
    <glyph glyph-name="b" unicode="b" horiz-adv-x="1075" 
d="M553 567c276 0 430 -98 430 -292c0 -190 -169 -287 -425 -287c-169 0 -337 58 -390 174v-162h-28v794h28v-413c33 105 167 186 385 186zM552 540c-210 0 -384 -76 -384 -264c0 -178 178 -262 390 -262c241 0 395 84 395 261c0 176 -147 265 -401 265z" />
    <glyph glyph-name="c" unicode="c" horiz-adv-x="1026" 
d="M944 369h-30c-43 112 -160 170 -398 170c-273 0 -418 -90 -418 -266c0 -166 131 -259 419 -259c240 0 360 58 399 156h29c-43 -119 -168 -183 -432 -183c-303 0 -445 103 -445 290c0 192 162 290 445 290c251 0 393 -65 431 -198z" />
    <glyph glyph-name="d" unicode="d" horiz-adv-x="1051" 
d="M482 565c189 0 339 -41 399 -164v380h28v-739c0 -17 2 -42 2 -42h-28l-2 154c-56 -124 -209 -167 -379 -167c-309 0 -434 113 -434 289c0 162 121 289 414 289zM482 538c-265 0 -384 -105 -384 -262c0 -163 116 -263 404 -263c192 0 304 50 352 142c18 35 27 75 27 121
c0 56 -13 104 -41 143c-59 81 -179 119 -358 119z" />
    <glyph glyph-name="e" unicode="e" horiz-adv-x="991" 
d="M941 165c-43 -113 -177 -178 -425 -178c-265 0 -447 91 -447 301c0 171 170 279 440 279c223 0 378 -82 425 -212c10 -26 15 -61 15 -82h-852c0 -167 175 -259 419 -259c236 0 356 59 397 151h28zM915 298c-2 12 -5 34 -11 50c-38 108 -166 191 -396 191
c-255 0 -411 -100 -411 -241h818z" />
    <glyph glyph-name="f" unicode="f" horiz-adv-x="658" 
d="M627 522h-370v-522h-30v522h-193v28h193v75c0 105 53 179 245 179c77 0 130 -13 162 -18v-30c-32 7 -101 22 -166 21c-168 -2 -211 -63 -211 -150v-77h370v-28z" />
    <glyph glyph-name="g" unicode="g" horiz-adv-x="941" 
d="M458 569c134 0 232 -28 291 -60c40 29 150 41 206 41v-27c-28 0 -158 -11 -185 -30c26 -16 60 -64 66 -107c2 -14 2 -38 1 -53c-8 -103 -109 -192 -379 -192c-123 0 -239 27 -278 54c-21 -3 -45 -20 -45 -47c0 -34 39 -60 348 -62c359 -2 436 -33 436 -127
c0 -111 -144 -151 -444 -151c-316 0 -421 45 -421 151c0 62 43 116 103 130c-17 5 -47 18 -47 59c0 32 26 57 49 61c-33 22 -65 53 -70 118c-1 13 -1 33 0 45c9 112 139 197 369 197zM458 545c-227 0 -331 -76 -343 -177c-2 -13 -1 -29 0 -41c6 -96 121 -163 343 -163
c255 0 341 78 352 169c1 9 1 35 -2 51c-15 80 -106 161 -350 161zM475 -168c325 0 417 51 417 124c0 80 -77 104 -407 107c-143 2 -241 7 -301 17c-64 -18 -105 -64 -105 -121c0 -77 82 -127 396 -127z" />
    <glyph glyph-name="h" unicode="h" horiz-adv-x="998" 
d="M883 0h-26c-7 6 -7 7 -7 302c0 151 -88 234 -320 234c-190 0 -362 -70 -362 -238v-298h-28v794h28v-397c39 112 183 166 362 166c240 0 348 -86 348 -244c0 -311 0 -313 5 -319z" />
    <glyph glyph-name="i" unicode="i" horiz-adv-x="317" 
d="M178 657h-39v117h39v-117zM179 0h-29c-4 3 -6 10 -6 29v521h29v-521c0 -19 1 -25 6 -29z" />
    <glyph glyph-name="j" unicode="j" horiz-adv-x="324" 
d="M189 657h-39v117h39v-117zM184 58c0 -192 -78 -239 -186 -239c-22 0 -58 5 -74 9v25c16 -4 43 -10 74 -10c90 0 157 43 157 197v510h29v-492z" />
    <glyph glyph-name="k" unicode="k" horiz-adv-x="897" 
d="M883 0h-39l-342 339l-334 -209v-130h-28v794h28v-633l624 389h48l-314 -196z" />
    <glyph glyph-name="l" unicode="l" horiz-adv-x="308" 
d="M170 0h-27c-2 2 -3 6 -3 15v727c0 23 -1 47 -3 58h29c2 -10 2 -25 2 -55v-684c0 -30 -1 -57 2 -61z" />
    <glyph glyph-name="m" unicode="m" horiz-adv-x="1518" 
d="M1361 0c-7 0 -7 35 -7 296c0 133 -50 241 -285 241c-150 0 -294 -45 -294 -227v-310h-28v317c0 143 -117 220 -277 220c-182 0 -302 -111 -302 -227v-310h-28v550h28v-151c39 105 171 165 303 165c131 0 258 -48 290 -167c46 140 183 167 313 167
c242 0 308 -113 308 -251c0 -300 3 -308 12 -313h-33z" />
    <glyph glyph-name="n" unicode="n" horiz-adv-x="998" 
d="M878 313c0 -285 0 -312 4 -313h-27c-6 0 -5 5 -5 302c0 167 -112 235 -319 235c-177 0 -363 -64 -363 -233v-304h-28v550h28v-151c50 125 215 165 364 165c253 0 346 -97 346 -251z" />
    <glyph glyph-name="o" unicode="o" horiz-adv-x="1051" 
d="M983 278c0 -162 -150 -291 -458 -291c-281 0 -457 98 -457 291c0 170 154 289 457 289c302 0 458 -118 458 -289zM953 279c0 150 -138 260 -428 260c-286 0 -427 -111 -427 -260c0 -176 160 -265 427 -265c289 0 428 113 428 265z" />
    <glyph glyph-name="p" unicode="p" horiz-adv-x="1051" 
d="M990 275c0 -181 -148 -288 -430 -288c-161 0 -330 34 -392 156v-329h-28v734h28v-162c41 101 183 175 375 175c320 0 447 -109 447 -286zM960 276c0 143 -105 258 -411 258c-140 0 -252 -34 -316 -100c-42 -44 -65 -102 -65 -171c0 -55 17 -108 52 -146
c65 -71 183 -104 335 -104c260 0 405 92 405 263z" />
    <glyph glyph-name="q" unicode="q" horiz-adv-x="1049" 
d="M912 -186h-25l-4 6v334c-56 -124 -209 -168 -379 -168c-315 0 -434 116 -434 287s136 292 414 292c189 0 339 -41 399 -164c0 38 -2 149 -2 149h29v-686c0 -35 0 -39 2 -50zM883 276c0 55 -12 103 -41 142c-59 80 -179 120 -358 120c-253 0 -386 -108 -386 -265
c0 -148 102 -261 406 -261c192 0 304 53 352 144c18 34 27 74 27 120z" />
    <glyph glyph-name="r" unicode="r" horiz-adv-x="730" 
d="M709 545v-30c-57 14 -123 23 -199 23c-174 0 -343 -112 -343 -309v-229h-27v550h27v-202c35 121 170 216 341 216c102 0 151 -7 201 -19z" />
    <glyph glyph-name="s" unicode="s" horiz-adv-x="994" 
d="M895 153c0 -101 -93 -165 -387 -165c-266 0 -391 52 -399 156h30c6 -80 117 -130 374 -130c269 0 352 56 352 135c0 120 -119 124 -371 131c-257 8 -368 19 -368 144c0 97 111 142 351 142c275 0 366 -62 383 -156h-30c-15 77 -90 129 -351 129
c-264 0 -323 -49 -323 -114c0 -97 95 -112 336 -119c270 -7 403 -18 403 -153z" />
    <glyph glyph-name="t" unicode="t" horiz-adv-x="572" 
d="M544 524h-344v-344c0 -124 51 -166 183 -166c39 0 123 5 151 12v-25c-23 -6 -93 -13 -151 -13c-150 0 -212 46 -212 182v354h-185v26h185c1 25 3 159 3 159h26v-159h344v-26z" />
    <glyph glyph-name="u" unicode="u" horiz-adv-x="998" 
d="M875 0c-1 6 -4 16 -4 142v408h-29v-317c0 -125 -143 -218 -367 -218c-192 0 -315 63 -315 230v305h-34c3 -3 4 -13 6 -332c1 -135 106 -230 342 -230c125 0 290 26 368 151l2 -139h31z" />
    <glyph glyph-name="v" unicode="v" horiz-adv-x="947" 
d="M923 550l-428 -550h-44l-427 550h34l416 -533l416 533h33z" />
    <glyph glyph-name="w" unicode="w" horiz-adv-x="1531" 
d="M1510 550l-369 -550h-37l-327 513l-12 20l-12 -20l-325 -513h-40l-364 550h33l351 -533l337 533h40l339 -533l353 533h33z" />
    <glyph glyph-name="x" unicode="x" horiz-adv-x="880" 
d="M448 294l378 256h45l-401 -270l399 -280h-45l-377 264l-392 -264h-44l414 279l-386 271h45z" />
    <glyph glyph-name="y" unicode="y" horiz-adv-x="946" 
d="M924 550l-561 -736h-33l145 190l-451 546h36l432 -521l398 521h34z" />
    <glyph glyph-name="z" unicode="z" horiz-adv-x="813" 
d="M774 0h-713v32l644 490h-639v28h676v-35l-644 -487h676v-28z" />
    <glyph glyph-name="braceleft" unicode="{" horiz-adv-x="691" 
d="M607 -157h-83c-159 0 -225 79 -225 174c0 47 3 146 3 187c0 110 -71 142 -191 142v30c120 0 191 32 191 142c0 41 -3 42 -3 89c0 95 66 174 225 174h83v-27c-227 28 -282 -66 -278 -148c1 -22 1 -56 1 -89c0 -89 -52 -149 -142 -156c90 -7 142 -67 142 -156
c0 -33 0 -165 -1 -187c-4 -82 51 -176 278 -148v-27z" />
    <glyph glyph-name="bar" unicode="|" horiz-adv-x="457" 
d="M244 -200h-32v1000h32v-1000z" />
    <glyph glyph-name="braceright" unicode="}" horiz-adv-x="691" 
d="M85 -157v27c227 -28 282 66 278 148c-1 22 -1 154 -1 187c0 89 52 149 142 156c-90 7 -142 67 -142 156c0 33 0 67 1 89c4 82 -51 176 -278 148v27h83c159 0 225 -79 225 -174c0 -47 -3 -48 -3 -89c0 -110 71 -142 191 -142v-30c-120 0 -191 -32 -191 -142
c0 -41 3 -140 3 -187c0 -95 -66 -174 -225 -174h-83z" />
    <glyph glyph-name="asciitilde" unicode="~" horiz-adv-x="875" 
d="M409 343c-57 101 -107 204 -199 204c-160 0 -165 -206 -167 -334h-30c0 238 51 365 198 365c110 0 165 -112 223 -217c54 -96 110 -187 209 -187c104 0 175 103 175 298h31c0 -174 -56 -327 -208 -327c-115 0 -176 98 -232 198z" />
    <glyph glyph-name="Adieresis" unicode="&#xc4;" horiz-adv-x="1078" 
d="M209 250l-163 -250h-36l512 781h34l512 -781h-35l-164 250h-660zM850 279l-260 402l-51 81l-52 -81l-259 -402h622zM659 875h-54v91h54v-91zM473 875h-54v91h54v-91z" />
    <glyph glyph-name="Aring" unicode="&#xc5;" horiz-adv-x="1078" 
d="M514 769c-49 11 -86 55 -86 108c0 61 49 110 110 110s110 -49 110 -110c0 -52 -36 -96 -85 -107l505 -770h-35l-164 250h-660l-163 -250h-36zM538 962c-47 0 -85 -38 -85 -85s38 -84 85 -84s85 37 85 84s-38 85 -85 85zM850 279l-260 402l-51 81l-52 -81l-259 -402h622z
" />
    <glyph glyph-name="Ccedilla" unicode="&#xc7;" horiz-adv-x="1202" 
d="M586 -11c-252 10 -406 95 -470 230c-25 51 -36 109 -36 173c0 53 8 104 25 150c60 153 225 255 509 255c233 0 375 -70 452 -160c35 -41 60 -90 68 -134h-37c-8 40 -27 79 -58 114c-81 92 -203 150 -425 150c-241 0 -416 -75 -478 -233c-16 -41 -24 -89 -24 -142
c0 -61 11 -116 34 -160c84 -163 274 -216 482 -216c217 0 350 57 425 159c21 28 40 71 43 99h37c-5 -38 -25 -81 -51 -117c-70 -96 -205 -169 -446 -169h-26v-5c0 -71 159 -20 159 -112c0 -46 -43 -73 -117 -74c-47 -1 -100 6 -143 46v27c47 -43 100 -52 143 -52
c51 0 90 17 90 52c0 70 -156 26 -156 104v15z" />
    <glyph glyph-name="Eacute" unicode="&#xc9;" horiz-adv-x="1159" 
d="M1054 0h-874v781h865v-27h-835v-342h817v-27h-817v-357h844v-28zM519 871l167 139h43l-173 -139h-37z" />
    <glyph glyph-name="Ntilde" unicode="&#xd1;" horiz-adv-x="1229" 
d="M1049 0h-47l-790 752v-752h-32v781h45l795 -756v756h29v-781zM629 925c-25 23 -51 54 -92 54c-39 0 -73 -25 -73 -105h-28c0 86 32 134 102 134c42 0 68 -26 100 -55c26 -24 52 -53 94 -53s73 26 73 106h28c0 -86 -35 -135 -102 -135c-44 0 -72 25 -102 54z" />
    <glyph glyph-name="Odieresis" unicode="&#xd6;" horiz-adv-x="1227" 
d="M614 797c350 0 533 -155 533 -407c0 -261 -222 -403 -534 -403c-332 0 -533 135 -533 403c0 241 184 407 534 407zM614 16c292 0 501 128 501 374c0 229 -168 378 -502 378c-335 0 -501 -162 -501 -378c0 -251 200 -374 502 -374zM733 875h-54v91h54v-91zM547 875h-54v91
h54v-91z" />
    <glyph glyph-name="Udieresis" unicode="&#xdc;" horiz-adv-x="1210" 
d="M1050 309c0 -216 -184 -321 -436 -321c-264 0 -454 85 -454 321v472h31v-484c0 -172 140 -280 423 -280c219 0 405 95 405 280v484h31v-472zM725 875h-54v91h54v-91zM539 875h-54v91h54v-91z" />
    <glyph glyph-name="aacute" unicode="&#xe1;" horiz-adv-x="993" 
d="M867 0h-29s-10 88 -7 115c-29 -68 -186 -126 -402 -126c-250 0 -338 52 -338 158c0 105 111 171 439 172c86 0 185 -5 302 -13v20c0 142 -69 213 -323 213c-227 0 -336 -53 -349 -144h-31c14 109 128 169 380 169c262 0 351 -75 351 -226c0 -52 -2 -172 -2 -206
c0 -53 4 -113 9 -132zM832 283c-110 6 -204 11 -286 11c-306 0 -424 -53 -424 -150c0 -86 80 -130 306 -130c208 0 371 54 401 134c0 0 3 119 3 135zM433 621l167 139h43l-173 -139h-37z" />
    <glyph glyph-name="agrave" unicode="&#xe0;" horiz-adv-x="993" 
d="M867 0h-29s-10 88 -7 115c-29 -68 -186 -126 -402 -126c-250 0 -338 52 -338 158c0 105 111 171 439 172c86 0 185 -5 302 -13v20c0 142 -69 213 -323 213c-227 0 -336 -53 -349 -144h-31c14 109 128 169 380 169c262 0 351 -75 351 -226c0 -52 -2 -172 -2 -206
c0 -53 4 -113 9 -132zM832 283c-110 6 -204 11 -286 11c-306 0 -424 -53 -424 -150c0 -86 80 -130 306 -130c208 0 371 54 401 134c0 0 3 119 3 135zM555 621h-37l-173 139h43z" />
    <glyph glyph-name="acircumflex" unicode="&#xe2;" horiz-adv-x="993" 
d="M867 0h-29s-10 88 -7 115c-29 -68 -186 -126 -402 -126c-250 0 -338 52 -338 158c0 105 111 171 439 172c86 0 185 -5 302 -13v20c0 142 -69 213 -323 213c-227 0 -336 -53 -349 -144h-31c14 109 128 169 380 169c262 0 351 -75 351 -226c0 -52 -2 -172 -2 -206
c0 -53 4 -113 9 -132zM832 283c-110 6 -204 11 -286 11c-306 0 -424 -53 -424 -150c0 -86 80 -130 306 -130c208 0 371 54 401 134c0 0 3 119 3 135zM702 624h-37l-170 112l-170 -112h-37l184 136h46z" />
    <glyph glyph-name="adieresis" unicode="&#xe4;" horiz-adv-x="993" 
d="M867 0h-29s-10 88 -7 115c-29 -68 -186 -126 -402 -126c-250 0 -338 52 -338 158c0 105 111 171 439 172c86 0 185 -5 302 -13v20c0 142 -69 213 -323 213c-227 0 -336 -53 -349 -144h-31c14 109 128 169 380 169c262 0 351 -75 351 -226c0 -52 -2 -172 -2 -206
c0 -53 4 -113 9 -132zM832 283c-110 6 -204 11 -286 11c-306 0 -424 -53 -424 -150c0 -86 80 -130 306 -130c208 0 371 54 401 134c0 0 3 119 3 135zM616 625h-54v91h54v-91zM430 625h-54v91h54v-91z" />
    <glyph glyph-name="atilde" unicode="&#xe3;" horiz-adv-x="993" 
d="M867 0h-29s-10 88 -7 115c-29 -68 -186 -126 -402 -126c-250 0 -338 52 -338 158c0 105 111 171 439 172c86 0 185 -5 302 -13v20c0 142 -69 213 -323 213c-227 0 -336 -53 -349 -144h-31c14 109 128 169 380 169c262 0 351 -75 351 -226c0 -52 -2 -172 -2 -206
c0 -53 4 -113 9 -132zM832 283c-110 6 -204 11 -286 11c-306 0 -424 -53 -424 -150c0 -86 80 -130 306 -130c208 0 371 54 401 134c0 0 3 119 3 135zM490 675c-25 23 -51 54 -92 54c-39 0 -73 -25 -73 -105h-28c0 86 32 134 102 134c42 0 68 -26 100 -55
c26 -24 52 -53 94 -53s73 26 73 106h28c0 -86 -35 -135 -102 -135c-44 0 -72 25 -102 54z" />
    <glyph glyph-name="aring" unicode="&#xe5;" horiz-adv-x="993" 
d="M867 0h-29s-10 88 -7 115c-29 -68 -186 -126 -402 -126c-250 0 -338 52 -338 158c0 105 111 171 439 172c86 0 185 -5 302 -13v20c0 142 -69 213 -323 213c-227 0 -336 -53 -349 -144h-31c14 109 128 169 380 169c262 0 351 -75 351 -226c0 -52 -2 -172 -2 -206
c0 -53 4 -113 9 -132zM832 283c-110 6 -204 11 -286 11c-306 0 -424 -53 -424 -150c0 -86 80 -130 306 -130c208 0 371 54 401 134c0 0 3 119 3 135zM495 839c61 0 110 -49 110 -110s-49 -110 -110 -110s-110 49 -110 110s49 110 110 110zM495 814c-47 0 -85 -38 -85 -85
s38 -84 85 -84s85 37 85 84s-38 85 -85 85z" />
    <glyph glyph-name="ccedilla" unicode="&#xe7;" horiz-adv-x="1026" 
d="M498 -13c-293 3 -430 106 -430 290c0 192 162 290 445 290c251 0 393 -65 431 -198h-30c-43 112 -160 170 -398 170c-273 0 -418 -90 -418 -266c0 -166 131 -259 419 -259c240 0 360 58 399 156h29c-43 -118 -165 -182 -423 -183v-4c0 -71 159 -20 159 -112
c0 -46 -43 -73 -117 -74c-47 -1 -100 6 -143 46v27c47 -43 100 -52 143 -52c51 0 90 17 90 52c0 70 -156 26 -156 104v13z" />
    <glyph glyph-name="eacute" unicode="&#xe9;" horiz-adv-x="991" 
d="M941 165c-43 -113 -177 -178 -425 -178c-265 0 -447 91 -447 301c0 171 170 279 440 279c223 0 378 -82 425 -212c10 -26 15 -61 15 -82h-852c0 -167 175 -259 419 -259c236 0 356 59 397 151h28zM915 298c-2 12 -5 34 -11 50c-38 108 -166 191 -396 191
c-255 0 -411 -100 -411 -241h818zM432 621l167 139h43l-173 -139h-37z" />
    <glyph glyph-name="egrave" unicode="&#xe8;" horiz-adv-x="991" 
d="M941 165c-43 -113 -177 -178 -425 -178c-265 0 -447 91 -447 301c0 171 170 279 440 279c223 0 378 -82 425 -212c10 -26 15 -61 15 -82h-852c0 -167 175 -259 419 -259c236 0 356 59 397 151h28zM915 298c-2 12 -5 34 -11 50c-38 108 -166 191 -396 191
c-255 0 -411 -100 -411 -241h818zM578 621h-37l-173 139h43z" />
    <glyph glyph-name="ecircumflex" unicode="&#xea;" horiz-adv-x="991" 
d="M941 165c-43 -113 -177 -178 -425 -178c-265 0 -447 91 -447 301c0 171 170 279 440 279c223 0 378 -82 425 -212c10 -26 15 -61 15 -82h-852c0 -167 175 -259 419 -259c236 0 356 59 397 151h28zM915 298c-2 12 -5 34 -11 50c-38 108 -166 191 -396 191
c-255 0 -411 -100 -411 -241h818zM710 624h-37l-170 112l-170 -112h-37l184 136h46z" />
    <glyph glyph-name="edieresis" unicode="&#xeb;" horiz-adv-x="991" 
d="M941 165c-43 -113 -177 -178 -425 -178c-265 0 -447 91 -447 301c0 171 170 279 440 279c223 0 378 -82 425 -212c10 -26 15 -61 15 -82h-852c0 -167 175 -259 419 -259c236 0 356 59 397 151h28zM915 298c-2 12 -5 34 -11 50c-38 108 -166 191 -396 191
c-255 0 -411 -100 -411 -241h818zM627 625h-54v91h54v-91zM441 625h-54v91h54v-91z" />
    <glyph glyph-name="iacute" unicode="&#xed;" horiz-adv-x="317" 
d="M179 0h-29c-4 3 -6 10 -6 29v521h29v-521c0 -19 1 -25 6 -29zM86 621l167 139h43l-173 -139h-37z" />
    <glyph glyph-name="igrave" unicode="&#xec;" horiz-adv-x="317" 
d="M179 0h-29c-4 3 -6 10 -6 29v521h29v-521c0 -19 1 -25 6 -29zM223 621h-37l-173 139h43z" />
    <glyph glyph-name="icircumflex" unicode="&#xee;" horiz-adv-x="317" 
d="M179 0h-29c-4 3 -6 10 -6 29v521h29v-521c0 -19 1 -25 6 -29zM364 624h-37l-170 112l-170 -112h-37l184 136h46z" />
    <glyph glyph-name="idieresis" unicode="&#xef;" horiz-adv-x="317" 
d="M179 0h-29c-4 3 -6 10 -6 29v521h29v-521c0 -19 1 -25 6 -29zM278 625h-54v91h54v-91zM92 625h-54v91h54v-91z" />
    <glyph glyph-name="ntilde" unicode="&#xf1;" horiz-adv-x="998" 
d="M878 313c0 -285 0 -312 4 -313h-27c-6 0 -5 5 -5 302c0 167 -112 235 -319 235c-177 0 -363 -64 -363 -233v-304h-28v550h28v-151c50 125 215 165 364 165c253 0 346 -97 346 -251zM493 675c-25 23 -51 54 -92 54c-39 0 -73 -25 -73 -105h-28c0 86 32 134 102 134
c42 0 68 -26 100 -55c26 -24 52 -53 94 -53s73 26 73 106h28c0 -86 -35 -135 -102 -135c-44 0 -72 25 -102 54z" />
    <glyph glyph-name="oacute" unicode="&#xf3;" horiz-adv-x="1051" 
d="M983 278c0 -162 -150 -291 -458 -291c-281 0 -457 98 -457 291c0 170 154 289 457 289c302 0 458 -118 458 -289zM953 279c0 150 -138 260 -428 260c-286 0 -427 -111 -427 -260c0 -176 160 -265 427 -265c289 0 428 113 428 265zM441 621l167 139h43l-173 -139h-37z" />
    <glyph glyph-name="ograve" unicode="&#xf2;" horiz-adv-x="1051" 
d="M983 278c0 -162 -150 -291 -458 -291c-281 0 -457 98 -457 291c0 170 154 289 457 289c302 0 458 -118 458 -289zM953 279c0 150 -138 260 -428 260c-286 0 -427 -111 -427 -260c0 -176 160 -265 427 -265c289 0 428 113 428 265zM608 621h-37l-173 139h43z" />
    <glyph glyph-name="ocircumflex" unicode="&#xf4;" horiz-adv-x="1051" 
d="M983 278c0 -162 -150 -291 -458 -291c-281 0 -457 98 -457 291c0 170 154 289 457 289c302 0 458 -118 458 -289zM953 279c0 150 -138 260 -428 260c-286 0 -427 -111 -427 -260c0 -176 160 -265 427 -265c289 0 428 113 428 265zM743 624h-37l-170 112l-170 -112h-37
l184 136h46z" />
    <glyph glyph-name="odieresis" unicode="&#xf6;" horiz-adv-x="1051" 
d="M983 278c0 -162 -150 -291 -458 -291c-281 0 -457 98 -457 291c0 170 154 289 457 289c302 0 458 -118 458 -289zM953 279c0 150 -138 260 -428 260c-286 0 -427 -111 -427 -260c0 -176 160 -265 427 -265c289 0 428 113 428 265zM651 625h-54v91h54v-91zM465 625h-54v91
h54v-91z" />
    <glyph glyph-name="otilde" unicode="&#xf5;" horiz-adv-x="1051" 
d="M983 278c0 -162 -150 -291 -458 -291c-281 0 -457 98 -457 291c0 170 154 289 457 289c302 0 458 -118 458 -289zM953 279c0 150 -138 260 -428 260c-286 0 -427 -111 -427 -260c0 -176 160 -265 427 -265c289 0 428 113 428 265zM525 675c-25 23 -51 54 -92 54
c-39 0 -73 -25 -73 -105h-28c0 86 32 134 102 134c42 0 68 -26 100 -55c26 -24 52 -53 94 -53s73 26 73 106h28c0 -86 -35 -135 -102 -135c-44 0 -72 25 -102 54z" />
    <glyph glyph-name="uacute" unicode="&#xfa;" horiz-adv-x="998" 
d="M875 0c-1 6 -4 16 -4 142v408h-29v-317c0 -125 -143 -218 -367 -218c-192 0 -315 63 -315 230v305h-34c3 -3 4 -13 6 -332c1 -135 106 -230 342 -230c125 0 290 26 368 151l2 -139h31zM427 621l167 139h43l-173 -139h-37z" />
    <glyph glyph-name="ugrave" unicode="&#xf9;" horiz-adv-x="998" 
d="M875 0c-1 6 -4 16 -4 142v408h-29v-317c0 -125 -143 -218 -367 -218c-192 0 -315 63 -315 230v305h-34c3 -3 4 -13 6 -332c1 -135 106 -230 342 -230c125 0 290 26 368 151l2 -139h31zM567 621h-37l-173 139h43z" />
    <glyph glyph-name="ucircumflex" unicode="&#xfb;" horiz-adv-x="998" 
d="M875 0c-1 6 -4 16 -4 142v408h-29v-317c0 -125 -143 -218 -367 -218c-192 0 -315 63 -315 230v305h-34c3 -3 4 -13 6 -332c1 -135 106 -230 342 -230c125 0 290 26 368 151l2 -139h31zM705 624h-37l-170 112l-170 -112h-37l184 136h46z" />
    <glyph glyph-name="udieresis" unicode="&#xfc;" horiz-adv-x="998" 
d="M875 0c-1 6 -4 16 -4 142v408h-29v-317c0 -125 -143 -218 -367 -218c-192 0 -315 63 -315 230v305h-34c3 -3 4 -13 6 -332c1 -135 106 -230 342 -230c125 0 290 26 368 151l2 -139h31zM619 625h-54v91h54v-91zM433 625h-54v91h54v-91z" />
    <glyph glyph-name="dagger" unicode="&#x2020;" horiz-adv-x="430" 
d="M416 468h-186v-478l-15 -70l-14 70v478h-187v27h187c-1 42 -1 298 -1 298h31s1 -255 -1 -298h186v-27z" />
    <glyph glyph-name="degree" unicode="&#xb0;" horiz-adv-x="408" 
d="M204 755c74 0 134 -60 134 -134s-60 -134 -134 -134s-134 60 -134 134s60 134 134 134zM204 725c-59 0 -103 -45 -103 -104s44 -104 103 -104s103 45 103 104s-44 104 -103 104z" />
    <glyph glyph-name="cent" unicode="&#xa2;" horiz-adv-x="970" 
d="M531 132c180 1 288 32 344 91c17 18 29 41 37 65h29c-10 -31 -23 -60 -45 -83c-62 -66 -176 -99 -365 -100v-55h-26v55c-210 2 -340 51 -399 147c-25 40 -36 87 -36 143c0 51 10 97 34 135c62 100 202 152 401 154v46h26v-46c196 -2 324 -51 381 -130
c14 -19 23 -43 28 -67h-30c-4 19 -12 37 -25 54c-52 70 -174 115 -354 116v-525zM505 657c-180 -3 -314 -46 -373 -141c-21 -34 -33 -76 -33 -125s13 -91 34 -125c57 -90 185 -131 372 -134v525z" />
    <glyph glyph-name="sterling" unicode="&#xa3;" horiz-adv-x="1072" 
d="M239 339c-38 71 -87 156 -87 248v5c3 105 90 202 383 202c336 0 411 -120 411 -239h-29c0 105 -60 211 -381 211c-269 0 -355 -84 -355 -170v-9c0 -92 53 -175 93 -248h481v-27h-466c54 -112 44 -221 -151 -285h837v-27h-871v36c207 76 209 161 150 276h-98v27h83z" />
    <glyph glyph-name="section" unicode="&#xa7;" horiz-adv-x="850" 
d="M70 205c17 -111 59 -187 396 -187c280 0 336 45 336 137c0 71 -27 102 -363 164c-315 56 -341 82 -341 142c0 30 17 54 68 67c-66 18 -106 48 -106 118s86 148 356 148c272 0 369 -85 376 -214h-28c-6 114 -90 188 -348 188c-247 0 -329 -60 -329 -122
c0 -64 25 -95 325 -155c317 -63 354 -78 354 -139c0 -34 -19 -59 -53 -70c58 -16 115 -51 115 -125c0 -107 -75 -164 -362 -164c-356 0 -403 80 -424 212h28zM442 345c185 -33 224 -50 243 -54c31 10 54 31 54 61c0 43 -36 51 -333 114c-138 29 -213 50 -213 50
c-44 -14 -69 -29 -69 -56c0 -54 84 -73 318 -115z" />
    <glyph glyph-name="bullet" unicode="&#x2022;" horiz-adv-x="384" 
d="M196 311c-30 0 -55 25 -55 55s25 55 55 55s56 -25 56 -55s-26 -55 -56 -55z" />
    <glyph glyph-name="paragraph" unicode="&#xb6;" horiz-adv-x="662" 
d="M593 799v-899h-27v875h-68v-875h-27v381c-21 -25 -116 -37 -139 -37c-100 0 -188 23 -240 88c-36 43 -58 107 -58 190c0 82 32 157 73 202c57 61 142 77 227 77c20 0 115 -9 134 -29l22 27h103zM473 530v196c0 34 -119 48 -139 48c-88 0 -156 -17 -204 -71
c-37 -41 -69 -108 -69 -181c0 -78 21 -134 54 -173c50 -61 133 -82 223 -82c23 0 132 20 134 44c1 13 1 131 1 219z" />
    <glyph glyph-name="germandbls" unicode="&#xdf;" horiz-adv-x="1260" 
d="M468 777c-168 -1 -211 -63 -211 -150v-627h-30v522h-193v28h193v75c0 105 53 179 245 179c119 0 212 -37 212 -155c0 -136 -196 -126 -196 -232c0 -82 62 -97 261 -106c41 -2 105 -5 146 -6c260 -7 332 -62 332 -152c0 -92 -82 -165 -387 -165c-233 0 -355 34 -389 118
c-5 12 -9 25 -10 38h30c0 -5 3 -21 7 -29c32 -70 146 -102 367 -102c281 0 352 69 352 136c0 86 -65 120 -306 131c-45 2 -111 5 -142 6c-240 9 -291 40 -291 136c0 112 197 106 197 230c0 90 -77 126 -187 125z" />
    <glyph glyph-name="registered" unicode="&#xae;" horiz-adv-x="571" 
d="M538 538c-5 -133 -108 -227 -251 -227c-147 0 -254 102 -254 227c0 7 1 21 1 29c4 140 112 233 253 233c134 0 247 -91 251 -236v-26zM517 543v13c-3 139 -102 223 -230 223c-118 0 -228 -67 -233 -218v-17c0 -124 97 -214 233 -214s230 91 230 213zM417 399h-23l-72 141
h-123v-141h-26v298h156c30 0 56 -9 73 -25c14 -13 22 -32 22 -55s-9 -43 -25 -56c-13 -11 -31 -19 -53 -20zM401 617c0 25 -20 57 -62 57h-140v-113h140c45 0 62 32 62 56z" />
    <glyph glyph-name="copyright" unicode="&#xa9;" horiz-adv-x="571" 
d="M538 538c-5 -133 -108 -227 -251 -227c-147 0 -254 102 -254 227c0 7 1 21 1 29c4 140 112 233 253 233c134 0 247 -91 251 -236v-26zM517 543v13c-3 139 -102 223 -230 223c-118 0 -228 -67 -233 -218v-17c0 -124 97 -214 233 -214s230 91 230 213zM473 496
c-16 -70 -67 -105 -185 -105c-110 0 -198 38 -198 162c0 103 70 162 198 162c92 0 146 -30 172 -75c6 -10 11 -25 13 -38h-20c-2 10 -6 18 -12 28c-22 38 -71 63 -151 63c-111 0 -177 -48 -177 -142c0 -93 59 -139 177 -139c110 0 149 35 164 84h19z" />
    <glyph glyph-name="trademark" unicode="&#x2122;" horiz-adv-x="687" 
d="M625 522v201c0 31 -20 55 -64 55c-40 0 -71 -25 -71 -62v-194h-27v211c0 27 -29 45 -64 45c-38 0 -74 -31 -74 -62v-194h-27v278h27v-43c14 36 59 48 82 48c39 0 68 -23 74 -52c8 40 66 52 86 52c55 0 85 -31 85 -81v-202h-27zM266 776h-121v-172c0 -32 18 -58 60 -58h52
v-24h-64c-46 0 -75 35 -75 78v176h-107v24h255v-24z" />
    <glyph glyph-name="acute" unicode="&#xb4;" 
d="M209 621l167 139h43l-173 -139h-37z" />
    <glyph glyph-name="dieresis" unicode="&#xa8;" 
d="M413 625h-54v91h54v-91zM227 625h-54v91h54v-91z" />
    <glyph glyph-name="notequal" unicode="&#x2260;" horiz-adv-x="924" 
d="M854 332h-438l-121 -159h-32l121 159h-315v26h335l90 119h-425v26h445l119 156h32l-119 -156h308v-26h-328l-90 -119h418v-26z" />
    <glyph glyph-name="AE" unicode="&#xc6;" horiz-adv-x="1728" 
d="M1687 781v-27h-835v-342h817v-27h-817v-357h844v-28h-874v250h-508l-258 -250h-46l812 781h865zM822 743l-76 -76l-402 -388h478v464z" />
    <glyph glyph-name="Oslash" unicode="&#xd8;" horiz-adv-x="1227" 
d="M1001 696c97 -70 146 -175 146 -306c0 -261 -222 -403 -534 -403c-145 0 -266 26 -355 78l-144 -123h-55l169 142c-96 67 -148 169 -148 306c0 241 184 407 534 407c153 0 274 -30 362 -84l97 82h44zM253 105l698 587c-82 49 -195 77 -338 77c-335 0 -502 -163 -502 -379
c0 -127 52 -222 142 -285zM976 675l-692 -588c85 -48 198 -72 330 -72c292 0 502 129 502 375c0 120 -47 219 -140 285z" />
    <glyph glyph-name="infinity" unicode="&#x221e;" horiz-adv-x="898" 
d="M833 375c0 -50 -53 -84 -193 -84c-158 0 -188 30 -205 62c-22 -32 -51 -62 -187 -62c-157 0 -183 39 -183 80c0 55 56 85 183 85c146 0 174 -28 190 -60c28 32 68 60 203 60c143 0 192 -29 192 -81zM808 376c0 37 -52 54 -169 54c-132 0 -168 -27 -190 -56
c16 -32 43 -60 191 -60c107 0 168 20 168 62zM246 314c121 0 151 30 177 63c-17 28 -47 53 -174 53c-116 0 -159 -23 -159 -59c0 -38 46 -57 156 -57z" />
    <glyph glyph-name="plusminus" unicode="&#xb1;" horiz-adv-x="900" 
d="M808 446h-343v-259h-30v259h-343v24h343v259h30v-259h343v-24zM808 106h-716v24h716v-24z" />
    <glyph glyph-name="lessequal" unicode="&#x2264;" horiz-adv-x="898" 
d="M807 186l-716 258v27l716 257v-27l-689 -244l689 -244v-27zM807 106h-716v24h716v-24z" />
    <glyph glyph-name="greaterequal" unicode="&#x2265;" horiz-adv-x="898" 
d="M807 444l-716 -258v27l689 244l-689 244v27l716 -257v-27zM807 106h-716v24h716v-24z" />
    <glyph glyph-name="yen" unicode="&#xa5;" horiz-adv-x="1111" 
d="M531 194h-441v27h441v26l-526 534h40l502 -508l519 508h40l-543 -531v-29h431v-27h-431v-81h431v-27h-431v-86h-32v86h-441v27h441v81z" />
    <glyph glyph-name="mu" unicode="&#xb5;" horiz-adv-x="998" 
d="M875 0h-31l-2 139c-78 -125 -243 -151 -368 -151c-175 0 -267 50 -314 136v-310h-29s1 219 1 404v332h28v-305c0 -167 123 -230 315 -230c224 0 367 93 367 218v317h29v-408c0 -126 3 -136 4 -142z" />
    <glyph glyph-name="mu" unicode="&#x3bc;" horiz-adv-x="998" 
d="M875 0h-31l-2 139c-78 -125 -243 -151 -368 -151c-175 0 -267 50 -314 136v-310h-29s1 219 1 404v332h28v-305c0 -167 123 -230 315 -230c224 0 367 93 367 218v317h29v-408c0 -126 3 -136 4 -142z" />
    <glyph glyph-name="partialdiff" unicode="&#x2202;" horiz-adv-x="793" 
d="M659 675c10 13 24 29 31 40c19 27 48 -22 20 -27c-12 -2 -35 -8 -51 -13zM141 663c-16 5 -39 11 -51 13c-28 5 1 54 20 27c7 -11 21 -27 31 -40zM382 508v261h-377v26h783v-26h-376v-261c53 -8 95 -54 95 -109s-42 -101 -96 -108v-260h377v-26h-783v26h376v260
c-53 8 -94 53 -94 108s42 101 95 109zM663 127c16 -5 39 -11 51 -13c28 -5 -1 -54 -20 -27c-7 11 -21 27 -31 40zM123 113c-10 -13 -24 -29 -31 -40c-19 -27 -48 22 -20 27c12 2 35 8 51 13zM412 484v-47l-16 -34l-14 34v47c-40 -8 -71 -43 -71 -85s30 -76 70 -84v47l15 33
l15 -33v-47c40 7 72 42 72 84s-31 77 -71 85z" />
    <glyph glyph-name="summation" unicode="&#x2211;" horiz-adv-x="793" 
d="M659 675c10 13 24 29 31 40c19 27 48 -22 20 -27c-12 -2 -35 -8 -51 -13zM141 663c-16 5 -39 11 -51 13c-28 5 1 54 20 27c7 -11 21 -27 31 -40zM382 508v261h-377v26h783v-26h-376v-261c53 -8 95 -54 95 -109s-42 -101 -96 -108v-260h377v-26h-783v26h376v260
c-53 8 -94 53 -94 108s42 101 95 109zM663 127c16 -5 39 -11 51 -13c28 -5 -1 -54 -20 -27c-7 11 -21 27 -31 40zM123 113c-10 -13 -24 -29 -31 -40c-19 -27 -48 22 -20 27c12 2 35 8 51 13zM412 484v-47l-16 -34l-14 34v47c-40 -8 -71 -43 -71 -85s30 -76 70 -84v47l15 33
l15 -33v-47c40 7 72 42 72 84s-31 77 -71 85z" />
    <glyph glyph-name="product" unicode="&#x220f;" horiz-adv-x="793" 
d="M659 675c10 13 24 29 31 40c19 27 48 -22 20 -27c-12 -2 -35 -8 -51 -13zM141 663c-16 5 -39 11 -51 13c-28 5 1 54 20 27c7 -11 21 -27 31 -40zM382 508v261h-377v26h783v-26h-376v-261c53 -8 95 -54 95 -109s-42 -101 -96 -108v-260h377v-26h-783v26h376v260
c-53 8 -94 53 -94 108s42 101 95 109zM663 127c16 -5 39 -11 51 -13c28 -5 -1 -54 -20 -27c-7 11 -21 27 -31 40zM123 113c-10 -13 -24 -29 -31 -40c-19 -27 -48 22 -20 27c12 2 35 8 51 13zM412 484v-47l-16 -34l-14 34v47c-40 -8 -71 -43 -71 -85s30 -76 70 -84v47l15 33
l15 -33v-47c40 7 72 42 72 84s-31 77 -71 85z" />
    <glyph glyph-name="pi" unicode="&#x3c0;" horiz-adv-x="571" 
d="M537 538c-5 -133 -107 -227 -250 -227c-147 0 -253 102 -253 227c0 7 1 21 1 29c4 140 111 233 252 233c134 0 246 -91 250 -236v-26zM517 543v13c-3 139 -102 223 -230 223c-118 0 -228 -67 -233 -218v-17c0 -124 97 -214 233 -214s230 91 230 213zM204 540v-141h-26
v298h156c30 0 56 -9 73 -25c14 -13 22 -32 22 -55s-10 -41 -25 -56s-42 -21 -70 -21h-130zM386 577c12 11 17 27 17 40s-5 28 -17 39c-10 11 -29 18 -45 18h-137v-113h137c21 0 35 6 45 16z" />
    <glyph glyph-name="integral" unicode="&#x222b;" horiz-adv-x="793" 
d="M659 675c10 13 24 29 31 40c19 27 48 -22 20 -27c-12 -2 -35 -8 -51 -13zM141 663c-16 5 -39 11 -51 13c-28 5 1 54 20 27c7 -11 21 -27 31 -40zM382 508v261h-377v26h783v-26h-376v-261c53 -8 95 -54 95 -109s-42 -101 -96 -108v-260h377v-26h-783v26h376v260
c-53 8 -94 53 -94 108s42 101 95 109zM663 127c16 -5 39 -11 51 -13c28 -5 -1 -54 -20 -27c-7 11 -21 27 -31 40zM123 113c-10 -13 -24 -29 -31 -40c-19 -27 -48 22 -20 27c12 2 35 8 51 13zM412 484v-47l-16 -34l-14 34v47c-40 -8 -71 -43 -71 -85s30 -76 70 -84v47l15 33
l15 -33v-47c40 7 72 42 72 84s-31 77 -71 85z" />
    <glyph glyph-name="ordfeminine" unicode="&#xaa;" horiz-adv-x="834" 
d="M791 248h-27s-16 93 -13 120c-48 -69 -136 -131 -370 -131c-217 0 -336 55 -336 163v14c0 93 91 150 419 151c86 0 167 -4 284 -12c0 61 -11 120 -47 160c-48 50 -117 74 -270 74c-174 0 -248 -40 -291 -96c-5 -7 -19 -33 -23 -48h-34c6 18 22 47 28 56
c60 82 150 113 332 113c216 0 317 -67 329 -200c2 -21 2 -46 2 -66c0 -12 -1 -132 -1 -166c0 -53 11 -115 18 -132zM797 176h-738v23h738v-23zM748 531c-110 6 -186 10 -268 10c-212 0 -318 -17 -373 -61c-24 -20 -31 -47 -31 -75c0 -24 4 -49 20 -68
c41 -50 161 -77 284 -77c144 0 215 24 261 46s107 65 107 126v99z" />
    <glyph glyph-name="ordmasculine" unicode="&#xba;" horiz-adv-x="890" 
d="M907 522c0 -93 -34 -164 -105 -212c-78 -53 -187 -79 -338 -79c-154 0 -261 25 -338 76c-70 47 -104 117 -104 215c0 79 33 152 109 204c74 50 175 85 333 85c153 0 254 -28 329 -77c80 -52 114 -127 114 -212zM889 176h-830v23h830v-23zM877 523c0 74 -31 138 -99 185
c-73 50 -176 74 -314 74c-137 0 -241 -27 -315 -79c-66 -46 -98 -109 -98 -180c0 -87 29 -150 95 -194c71 -47 173 -70 318 -70c150 0 249 27 318 75c67 47 95 114 95 189z" />
    <glyph glyph-name="Omega" unicode="&#x3a9;" horiz-adv-x="793" 
d="M659 675c10 13 24 29 31 40c19 27 48 -22 20 -27c-12 -2 -35 -8 -51 -13zM141 663c-16 5 -39 11 -51 13c-28 5 1 54 20 27c7 -11 21 -27 31 -40zM382 508v261h-377v26h783v-26h-376v-261c53 -8 95 -54 95 -109s-42 -101 -96 -108v-260h377v-26h-783v26h376v260
c-53 8 -94 53 -94 108s42 101 95 109zM663 127c16 -5 39 -11 51 -13c28 -5 -1 -54 -20 -27c-7 11 -21 27 -31 40zM123 113c-10 -13 -24 -29 -31 -40c-19 -27 -48 22 -20 27c12 2 35 8 51 13zM412 484v-47l-16 -34l-14 34v47c-40 -8 -71 -43 -71 -85s30 -76 70 -84v47l15 33
l15 -33v-47c40 7 72 42 72 84s-31 77 -71 85z" />
    <glyph glyph-name="Omega" unicode="&#x2126;" horiz-adv-x="793" 
d="M659 675c10 13 24 29 31 40c19 27 48 -22 20 -27c-12 -2 -35 -8 -51 -13zM141 663c-16 5 -39 11 -51 13c-28 5 1 54 20 27c7 -11 21 -27 31 -40zM382 508v261h-377v26h783v-26h-376v-261c53 -8 95 -54 95 -109s-42 -101 -96 -108v-260h377v-26h-783v26h376v260
c-53 8 -94 53 -94 108s42 101 95 109zM663 127c16 -5 39 -11 51 -13c28 -5 -1 -54 -20 -27c-7 11 -21 27 -31 40zM123 113c-10 -13 -24 -29 -31 -40c-19 -27 -48 22 -20 27c12 2 35 8 51 13zM412 484v-47l-16 -34l-14 34v47c-40 -8 -71 -43 -71 -85s30 -76 70 -84v47l15 33
l15 -33v-47c40 7 72 42 72 84s-31 77 -71 85z" />
    <glyph glyph-name="ae" unicode="&#xe6;" horiz-adv-x="1750" 
d="M853 383c48 115 206 181 416 181c223 0 378 -79 425 -209c10 -26 13 -52 15 -82h-850c0 -26 5 -52 13 -74c44 -119 198 -185 404 -185c211 0 314 52 361 99c16 16 28 39 33 52h31c-11 -25 -24 -49 -43 -69c-61 -65 -176 -109 -382 -109c-221 0 -349 64 -414 167
c-53 -114 -181 -165 -415 -165c-241 0 -356 55 -356 163v14c0 87 111 150 439 151c86 0 187 -4 304 -12c0 61 -13 114 -49 154c-48 50 -135 80 -288 80c-174 0 -268 -40 -311 -96c-5 -7 -19 -33 -23 -48h-34c6 18 22 47 28 56c60 82 170 113 352 113c216 0 326 -72 344 -181
zM1673 298c-1 16 -3 34 -9 50c-37 108 -166 188 -396 188c-196 0 -337 -61 -388 -156c-14 -26 -21 -54 -21 -82h814zM833 284c-106 6 -205 10 -287 10c-212 0 -337 -21 -392 -65c-24 -20 -34 -44 -34 -72c0 -24 5 -47 21 -66c41 -50 142 -79 305 -79c144 0 235 24 281 46
s99 59 119 125c-8 16 -13 83 -13 101z" />
    <glyph glyph-name="oslash" unicode="&#xf8;" horiz-adv-x="1050" 
d="M180 61c-1 1 -2 1 -3 2c-70 47 -109 117 -109 215c0 79 38 152 114 204c74 50 185 85 343 85c130 0 230 -20 303 -57l102 71h50l-124 -86c3 -2 5 -3 8 -5c80 -52 119 -127 119 -212c0 -93 -39 -164 -110 -212c-78 -53 -197 -79 -348 -79c-135 0 -241 19 -317 58l-106 -74
h-52zM206 79l594 412c-70 32 -165 47 -275 47c-137 0 -251 -27 -325 -79c-66 -46 -103 -109 -103 -180c0 -87 34 -150 100 -194zM829 476l-594 -412c70 -33 169 -49 290 -49c150 0 259 27 328 75c67 47 100 114 100 189c0 74 -36 138 -104 185c-6 4 -13 8 -20 12z" />
    <glyph glyph-name="questiondown" unicode="&#xbf;" horiz-adv-x="890" 
d="M495 800h55v-91h-55v91zM50 235c16 281 428 96 457 383h29c-23 -306 -443 -130 -456 -386v-12c10 -136 124 -195 397 -195c246 0 344 68 375 165c5 17 9 35 10 54h30c-2 -23 -6 -44 -12 -64c-38 -120 -163 -184 -412 -184c-303 0 -410 79 -418 223v16z" />
    <glyph glyph-name="exclamdown" unicode="&#xa1;" horiz-adv-x="383" 
d="M163 800h55v-91h-55v91zM173 0l3 622h29l3 -622h-35z" />
    <glyph glyph-name="logicalnot" unicode="&#xac;" horiz-adv-x="793" 
d="M659 675c10 13 24 29 31 40c19 27 48 -22 20 -27c-12 -2 -35 -8 -51 -13zM141 663c-16 5 -39 11 -51 13c-28 5 1 54 20 27c7 -11 21 -27 31 -40zM382 508v261h-377v26h783v-26h-376v-261c53 -8 95 -54 95 -109s-42 -101 -96 -108v-260h377v-26h-783v26h376v260
c-53 8 -94 53 -94 108s42 101 95 109zM663 127c16 -5 39 -11 51 -13c28 -5 -1 -54 -20 -27c-7 11 -21 27 -31 40zM123 113c-10 -13 -24 -29 -31 -40c-19 -27 -48 22 -20 27c12 2 35 8 51 13zM412 484v-47l-16 -34l-14 34v47c-40 -8 -71 -43 -71 -85s30 -76 70 -84v47l15 33
l15 -33v-47c40 7 72 42 72 84s-31 77 -71 85z" />
    <glyph glyph-name="radical" unicode="&#x221a;" horiz-adv-x="1060" 
d="M1048 782l-629 -812h-51l-358 352h46l337 -334l621 794h34z" />
    <glyph glyph-name="florin" unicode="&#x192;" horiz-adv-x="658" 
d="M201 39c-11 -106 -106 -179 -206 -179c-68 0 -117 7 -141 10v30c20 -5 81 -14 144 -13c80 1 164 63 173 150l51 485h-190v28h193l8 75c11 106 72 179 264 179c77 0 125 -13 157 -18v-30c-32 7 -99 22 -164 21c-168 -2 -218 -63 -227 -150l-8 -77h367v-28h-370z" />
    <glyph glyph-name="approxequal" unicode="&#x2248;" horiz-adv-x="927" 
d="M859 524c0 -56 -57 -113 -178 -113c-105 0 -163 33 -222 66c-58 32 -117 64 -219 64s-144 -38 -144 -83h-28c0 55 53 109 174 109c110 0 171 -35 231 -68c57 -32 113 -62 210 -62c99 0 148 43 148 87h28zM859 374c0 -56 -57 -113 -178 -113c-105 0 -163 33 -222 66
c-58 32 -117 64 -219 64s-144 -38 -144 -83h-28c0 55 53 109 174 109c110 0 171 -35 231 -68c57 -32 113 -62 210 -62c99 0 148 43 148 87h28z" />
    <glyph glyph-name="Delta" unicode="&#x394;" horiz-adv-x="793" 
d="M659 675c10 13 24 29 31 40c19 27 48 -22 20 -27c-12 -2 -35 -8 -51 -13zM141 663c-16 5 -39 11 -51 13c-28 5 1 54 20 27c7 -11 21 -27 31 -40zM382 508v261h-377v26h783v-26h-376v-261c53 -8 95 -54 95 -109s-42 -101 -96 -108v-260h377v-26h-783v26h376v260
c-53 8 -94 53 -94 108s42 101 95 109zM663 127c16 -5 39 -11 51 -13c28 -5 -1 -54 -20 -27c-7 11 -21 27 -31 40zM123 113c-10 -13 -24 -29 -31 -40c-19 -27 -48 22 -20 27c12 2 35 8 51 13zM412 484v-47l-16 -34l-14 34v47c-40 -8 -71 -43 -71 -85s30 -76 70 -84v47l15 33
l15 -33v-47c40 7 72 42 72 84s-31 77 -71 85z" />
    <glyph glyph-name="Delta" unicode="&#x2206;" horiz-adv-x="793" 
d="M659 675c10 13 24 29 31 40c19 27 48 -22 20 -27c-12 -2 -35 -8 -51 -13zM141 663c-16 5 -39 11 -51 13c-28 5 1 54 20 27c7 -11 21 -27 31 -40zM382 508v261h-377v26h783v-26h-376v-261c53 -8 95 -54 95 -109s-42 -101 -96 -108v-260h377v-26h-783v26h376v260
c-53 8 -94 53 -94 108s42 101 95 109zM663 127c16 -5 39 -11 51 -13c28 -5 -1 -54 -20 -27c-7 11 -21 27 -31 40zM123 113c-10 -13 -24 -29 -31 -40c-19 -27 -48 22 -20 27c12 2 35 8 51 13zM412 484v-47l-16 -34l-14 34v47c-40 -8 -71 -43 -71 -85s30 -76 70 -84v47l15 33
l15 -33v-47c40 7 72 42 72 84s-31 77 -71 85z" />
    <glyph glyph-name="guillemotleft" unicode="&#xab;" horiz-adv-x="897" 
d="M868 96l-389 245v21l389 253v-34l-351 -228l351 -223v-34zM454 96l-389 245v21l389 253v-34l-351 -228l351 -223v-34z" />
    <glyph glyph-name="guillemotright" unicode="&#xbb;" horiz-adv-x="897" 
d="M444 96v34l351 223l-351 228v34l389 -253v-21zM30 96v34l351 223l-351 228v34l389 -253v-21z" />
    <glyph glyph-name="ellipsis" unicode="&#x2026;" horiz-adv-x="1350" 
d="M1152 0h-67v103h67v-103zM702 0h-67v103h67v-103zM252 0h-67v103h67v-103z" />
    <glyph glyph-name="Agrave" unicode="&#xc0;" horiz-adv-x="1078" 
d="M209 250l-163 -250h-36l512 781h34l512 -781h-35l-164 250h-660zM850 279l-260 402l-51 81l-52 -81l-259 -402h622zM564 871h-37l-173 139h43z" />
    <glyph glyph-name="Atilde" unicode="&#xc3;" horiz-adv-x="1078" 
d="M209 250l-163 -250h-36l512 781h34l512 -781h-35l-164 250h-660zM850 279l-260 402l-51 81l-52 -81l-259 -402h622zM533 925c-25 23 -51 54 -92 54c-39 0 -73 -25 -73 -105h-28c0 86 32 134 102 134c42 0 68 -26 100 -55c26 -24 52 -53 94 -53s73 26 73 106h28
c0 -86 -35 -135 -102 -135c-44 0 -72 25 -102 54z" />
    <glyph glyph-name="Otilde" unicode="&#xd5;" horiz-adv-x="1227" 
d="M614 797c350 0 533 -155 533 -407c0 -261 -222 -403 -534 -403c-332 0 -533 135 -533 403c0 241 184 407 534 407zM614 16c292 0 501 128 501 374c0 229 -168 378 -502 378c-335 0 -501 -162 -501 -378c0 -251 200 -374 502 -374zM607 925c-25 23 -51 54 -92 54
c-39 0 -73 -25 -73 -105h-28c0 86 32 134 102 134c42 0 68 -26 100 -55c26 -24 52 -53 94 -53s73 26 73 106h28c0 -86 -35 -135 -102 -135c-44 0 -72 25 -102 54z" />
    <glyph glyph-name="OE" unicode="&#x152;" horiz-adv-x="1832" 
d="M932 781h785v-27h-755v-342h737v-27h-737v-357h764v-28h-794v48c-45 -23 -151 -60 -319 -60c-153 0 -283 31 -376 93c-101 68 -157 174 -157 310c0 116 42 221 132 293c89 71 226 110 402 110c175 0 258 -33 318 -58v45zM614 17c185 0 294 50 318 64v621
c-54 26 -150 62 -319 62c-162 0 -294 -35 -380 -104c-80 -64 -121 -159 -121 -269c0 -123 55 -217 145 -280c90 -62 215 -94 357 -94z" />
    <glyph glyph-name="oe" unicode="&#x153;" horiz-adv-x="1791" 
d="M519 -13c-154 0 -265 25 -342 76c-70 47 -109 117 -109 215c0 79 38 152 114 204c74 50 179 85 337 85c152 0 263 -31 336 -83c42 -30 72 -68 88 -112c13 30 30 57 51 80c64 72 169 112 335 112c223 0 358 -79 405 -209c10 -26 13 -52 15 -82h-794c0 -26 5 -52 13 -74
c44 -119 162 -185 368 -185c211 0 294 52 341 99c16 16 28 39 33 52h31c-11 -25 -24 -49 -43 -69c-61 -65 -156 -109 -362 -109c-192 0 -298 51 -354 128c-17 23 -28 47 -37 73c-13 -41 -36 -78 -73 -109c-66 -56 -177 -92 -353 -92zM1713 298c-1 16 -3 34 -9 50
c-37 108 -146 188 -376 188c-196 0 -281 -63 -320 -109c-40 -47 -51 -87 -53 -129h758zM928 279c0 74 -27 138 -95 185c-73 50 -176 74 -314 74c-137 0 -245 -27 -319 -79c-66 -46 -104 -109 -104 -180c0 -87 35 -150 101 -194c71 -47 177 -70 322 -70c150 0 249 27 318 75
c67 47 91 114 91 189z" />
    <glyph glyph-name="endash" unicode="&#x2013;" horiz-adv-x="808" 
d="M768 330h-728v29h728v-29z" />
    <glyph glyph-name="emdash" unicode="&#x2014;" horiz-adv-x="998" 
d="M958 331h-918v29h918v-29z" />
    <glyph glyph-name="quotedblleft" unicode="&#x201c;" horiz-adv-x="337" 
d="M276 728v-103h-55v109l35 66h18l-23 -66v-6h25zM117 728v-103h-55v109l35 66h18l-23 -66v-6h25z" />
    <glyph glyph-name="quotedblright" unicode="&#x201d;" horiz-adv-x="337" 
d="M221 678v103h55v-109l-35 -66h-18l23 66v6h-25zM62 678v103h55v-109l-35 -66h-18l23 66v6h-25z" />
    <glyph glyph-name="quoteleft" unicode="&#x2018;" horiz-adv-x="156" 
d="M107 728v-103h-55v109l35 66h18l-23 -66v-6h25z" />
    <glyph glyph-name="quoteright" unicode="&#x2019;" horiz-adv-x="156" 
d="M57 678v103h55v-109l-35 -66h-18l23 66v6h-25z" />
    <glyph glyph-name="divide" unicode="&#xf7;" horiz-adv-x="900" 
d="M465 626h-30v103h30v-103zM808 406h-716v24h716v-24zM465 107h-30v103h30v-103z" />
    <glyph glyph-name="lozenge" unicode="&#x25ca;" horiz-adv-x="1024" 
d="M1004 320l-482 -320h-20l-482 320l482 320h20zM965 320l-453 300l-453 -300l453 -300z" />
    <glyph glyph-name="ydieresis" unicode="&#xff;" horiz-adv-x="946" 
d="M924 550l-561 -736h-33l145 190l-451 546h36l432 -521l398 521h34zM593 625h-54v91h54v-91zM407 625h-54v91h54v-91z" />
    <glyph glyph-name="Ydieresis" unicode="&#x178;" horiz-adv-x="1111" 
d="M1106 781l-543 -531v-250h-32v247l-526 534h40l502 -508l519 508h40zM675 875h-54v91h54v-91zM489 875h-54v91h54v-91z" />
    <glyph glyph-name="fraction" unicode="&#x2044;" horiz-adv-x="352" 
d="M494 781l-602 -781h-31l595 781h38z" />
    <glyph glyph-name="fraction" unicode="&#x2215;" horiz-adv-x="352" 
d="M494 781l-602 -781h-31l595 781h38z" />
    <glyph glyph-name="currency" unicode="&#xa4;" horiz-adv-x="1190" 
d="M197 458c7 53 20 90 28 110c59 146 215 226 435 226c229 0 372 -83 435 -226c9 -20 16 -42 21 -65h-32c-4 17 -10 33 -16 49c-56 137 -193 215 -409 215c-210 0 -345 -66 -406 -213c-7 -16 -19 -50 -25 -96h716v-27h-719c-1 -13 -2 -26 -2 -40s1 -28 1 -41h720v-27h-716
c7 -43 18 -74 24 -88c60 -147 202 -218 408 -218c213 0 355 75 411 219c5 12 9 25 12 38h31c-4 -16 -8 -32 -14 -47c-59 -157 -212 -238 -440 -238c-222 0 -377 85 -436 229c-8 20 -21 51 -27 105h-157v27h154c-1 13 -1 26 -1 41c0 14 1 27 1 40h-154v27h157z" />
    <glyph glyph-name="guilsinglleft" unicode="&#x2039;" horiz-adv-x="484" 
d="M454 96l-389 245v21l389 253v-34l-351 -228l351 -223v-34z" />
    <glyph glyph-name="guilsinglright" unicode="&#x203a;" horiz-adv-x="484" 
d="M30 96v34l351 223l-351 228v34l389 -253v-21z" />
    <glyph glyph-name="daggerdbl" unicode="&#x2021;" horiz-adv-x="430" 
d="M230 293h176v-27h-176v-276l-15 -70l-14 70v276h-177v27h177v175h-177v27h177c-1 42 -1 298 -1 298h31s1 -255 -1 -298h176v-27h-176v-175z" />
    <glyph glyph-name="periodcentered" unicode="&#xb7;" horiz-adv-x="450" 
d="M252 340h-67v103h67v-103z" />
    <glyph glyph-name="periodcentered" unicode="&#x2219;" horiz-adv-x="450" 
d="M252 340h-67v103h67v-103z" />
    <glyph glyph-name="quotesinglbase" unicode="&#x201a;" horiz-adv-x="166" 
d="M47 0v103h65v-109l-35 -66h-28l23 66v6h-25z" />
    <glyph glyph-name="quotedblbase" unicode="&#x201e;" horiz-adv-x="337" 
d="M231 0v103h65v-109l-35 -66h-28l23 66v6h-25zM52 0v103h65v-109l-35 -66h-28l23 66v6h-25z" />
    <glyph glyph-name="perthousand" unicode="&#x2030;" horiz-adv-x="2384" 
d="M779 565c0 -100 -118 -191 -342 -191c-230 0 -345 91 -345 191v40c0 106 128 193 341 193c230 0 346 -91 346 -193v-40zM1555 185c0 -100 -118 -191 -342 -191c-230 0 -345 91 -345 191v40c0 106 128 193 341 193c230 0 346 -91 346 -193v-40zM2313 185
c0 -100 -118 -191 -342 -191c-230 0 -345 91 -345 191v40c0 106 128 193 341 193c230 0 346 -91 346 -193v-40zM751 572v21c0 95 -96 178 -318 178c-221 0 -313 -77 -313 -175v-22c0 -103 109 -173 313 -173c235 0 318 84 318 171zM1527 192v21c0 98 -102 178 -318 178
c-221 0 -313 -77 -313 -175v-22c0 -103 109 -173 313 -173c235 0 318 84 318 171zM2285 192v21c0 101 -102 178 -318 178c-221 0 -313 -83 -313 -175v-22c0 -103 109 -173 313 -173c235 0 318 84 318 171zM1227 781l-800 -781h-35l800 781h35z" />
    <glyph glyph-name="Acircumflex" unicode="&#xc2;" horiz-adv-x="1078" 
d="M209 250l-163 -250h-36l512 781h34l512 -781h-35l-164 250h-660zM850 279l-260 402l-51 81l-52 -81l-259 -402h622zM745 874h-37l-170 112l-170 -112h-37l184 136h46z" />
    <glyph glyph-name="Ecircumflex" unicode="&#xca;" horiz-adv-x="1159" 
d="M1054 0h-874v781h865v-27h-835v-342h817v-27h-817v-357h844v-28zM827 874h-37l-170 112l-170 -112h-37l184 136h46z" />
    <glyph glyph-name="Aacute" unicode="&#xc1;" horiz-adv-x="1078" 
d="M209 250l-163 -250h-36l512 781h34l512 -781h-35l-164 250h-660zM850 279l-260 402l-51 81l-52 -81l-259 -402h622zM497 874l167 139h43l-173 -139h-37z" />
    <glyph glyph-name="Edieresis" unicode="&#xcb;" horiz-adv-x="1159" 
d="M1054 0h-874v781h865v-27h-835v-342h817v-27h-817v-357h844v-28zM738 874h-54v91h54v-91zM552 874h-54v91h54v-91z" />
    <glyph glyph-name="Egrave" unicode="&#xc8;" horiz-adv-x="1159" 
d="M1054 0h-874v781h865v-27h-835v-342h817v-27h-817v-357h844v-28zM662 874h-37l-173 139h43z" />
    <glyph glyph-name="Iacute" unicode="&#xcd;" horiz-adv-x="392" 
d="M212 0h-32v781h32v-781zM154 874l167 139h43l-173 -139h-37z" />
    <glyph glyph-name="Icircumflex" unicode="&#xce;" horiz-adv-x="392" 
d="M212 0h-32v781h32v-781zM402 874h-37l-170 112l-170 -112h-37l184 136h46z" />
    <glyph glyph-name="Idieresis" unicode="&#xcf;" horiz-adv-x="392" 
d="M212 0h-32v781h32v-781zM316 874h-54v91h54v-91zM130 874h-54v91h54v-91z" />
    <glyph glyph-name="Igrave" unicode="&#xcc;" horiz-adv-x="392" 
d="M212 0h-32v781h32v-781zM240 874h-37l-173 139h43z" />
    <glyph glyph-name="Oacute" unicode="&#xd3;" horiz-adv-x="1227" 
d="M614 797c350 0 533 -155 533 -407c0 -261 -222 -403 -534 -403c-332 0 -533 135 -533 403c0 241 184 407 534 407zM614 16c292 0 501 128 501 374c0 229 -168 378 -502 378c-335 0 -501 -162 -501 -378c0 -251 200 -374 502 -374zM553 874l167 139h43l-173 -139h-37z" />
    <glyph glyph-name="Ocircumflex" unicode="&#xd4;" horiz-adv-x="1227" 
d="M614 797c350 0 533 -155 533 -407c0 -261 -222 -403 -534 -403c-332 0 -533 135 -533 403c0 241 184 407 534 407zM614 16c292 0 501 128 501 374c0 229 -168 378 -502 378c-335 0 -501 -162 -501 -378c0 -251 200 -374 502 -374zM819 874h-37l-170 112l-170 -112h-37
l184 136h46z" />
    <glyph glyph-name="apple" unicode="&#xf8ff;" horiz-adv-x="793" 
d="M659 675c10 13 24 29 31 40c19 27 48 -22 20 -27c-12 -2 -35 -8 -51 -13zM141 663c-16 5 -39 11 -51 13c-28 5 1 54 20 27c7 -11 21 -27 31 -40zM382 508v261h-377v26h783v-26h-376v-261c53 -8 95 -54 95 -109s-42 -101 -96 -108v-260h377v-26h-783v26h376v260
c-53 8 -94 53 -94 108s42 101 95 109zM663 127c16 -5 39 -11 51 -13c28 -5 -1 -54 -20 -27c-7 11 -21 27 -31 40zM123 113c-10 -13 -24 -29 -31 -40c-19 -27 -48 22 -20 27c12 2 35 8 51 13zM412 484v-47l-16 -34l-14 34v47c-40 -8 -71 -43 -71 -85s30 -76 70 -84v47l15 33
l15 -33v-47c40 7 72 42 72 84s-31 77 -71 85z" />
    <glyph glyph-name="Ograve" unicode="&#xd2;" horiz-adv-x="1227" 
d="M614 797c350 0 533 -155 533 -407c0 -261 -222 -403 -534 -403c-332 0 -533 135 -533 403c0 241 184 407 534 407zM614 16c292 0 501 128 501 374c0 229 -168 378 -502 378c-335 0 -501 -162 -501 -378c0 -251 200 -374 502 -374zM669 874h-37l-173 139h43z" />
    <glyph glyph-name="Uacute" unicode="&#xda;" horiz-adv-x="1210" 
d="M1050 309c0 -216 -184 -321 -436 -321c-264 0 -454 85 -454 321v472h31v-484c0 -172 140 -280 423 -280c219 0 405 95 405 280v484h31v-472zM521 874l167 139h43l-173 -139h-37z" />
    <glyph glyph-name="Ucircumflex" unicode="&#xdb;" horiz-adv-x="1210" 
d="M1050 309c0 -216 -184 -321 -436 -321c-264 0 -454 85 -454 321v472h31v-484c0 -172 140 -280 423 -280c219 0 405 95 405 280v484h31v-472zM811 874h-37l-170 112l-170 -112h-37l184 136h46z" />
    <glyph glyph-name="Ugrave" unicode="&#xd9;" horiz-adv-x="1210" 
d="M1050 309c0 -216 -184 -321 -436 -321c-264 0 -454 85 -454 321v472h31v-484c0 -172 140 -280 423 -280c219 0 405 95 405 280v484h31v-472zM688 874h-37l-173 139h43z" />
    <glyph glyph-name="dotlessi" unicode="&#x131;" horiz-adv-x="317" 
d="M179 0h-29c-4 3 -6 10 -6 29v521h29v-521c0 -19 1 -25 6 -29z" />
    <glyph glyph-name="circumflex" unicode="&#x2c6;" 
d="M499 624h-37l-170 112l-170 -112h-37l184 136h46z" />
    <glyph glyph-name="tilde" unicode="&#x2dc;" 
d="M287 675c-25 23 -51 54 -92 54c-39 0 -73 -25 -73 -105h-28c0 86 32 134 102 134c42 0 68 -26 100 -55c26 -24 52 -53 94 -53s73 26 73 106h28c0 -86 -35 -135 -102 -135c-44 0 -72 25 -102 54z" />
    <glyph glyph-name="macron" unicode="&#xaf;" 
d="M472 664h-358v31h358v-31z" />
    <glyph glyph-name="macron" unicode="&#x2c9;" 
d="M472 664h-358v31h358v-31z" />
    <glyph glyph-name="breve" unicode="&#x2d8;" 
d="M483 781c0 -69 -67 -161 -191 -161s-191 92 -191 161h29c0 -66 67 -135 162 -135s162 70 162 135h29z" />
    <glyph glyph-name="dotaccent" unicode="&#x2d9;" 
d="M321 625h-58v91h58v-91z" />
    <glyph glyph-name="ring" unicode="&#x2da;" 
d="M292 839c61 0 110 -49 110 -110s-49 -110 -110 -110s-110 49 -110 110s49 110 110 110zM292 814c-47 0 -85 -38 -85 -85s38 -84 85 -84s85 37 85 84s-38 85 -85 85z" />
    <glyph glyph-name="cedilla" unicode="&#xb8;" 
d="M434 -130c0 70 -156 26 -156 104v26h24v-17c0 -71 159 -20 159 -112c0 -46 -43 -73 -117 -74c-47 -1 -100 6 -143 46v27c47 -43 100 -52 143 -52c51 0 90 17 90 52z" />
    <glyph glyph-name="hungarumlaut" unicode="&#x2dd;" 
d="M336 621l167 139h43l-173 -139h-37zM192 621l167 139h43l-173 -139h-37z" />
    <glyph glyph-name="ogonek" unicode="&#x2db;" 
d="M202 -90c0 -39 58 -68 178 -68v-29c-131 0 -203 39 -203 96c0 55 61 88 176 91v-22c-89 -3 -151 -26 -151 -68z" />
    <glyph glyph-name="caron" unicode="&#x2c7;" 
d="M85 758h37l170 -112l170 112h37l-184 -136h-46z" />
    <glyph glyph-name="Euro" unicode="&#x20ac;" horiz-adv-x="1190" 
d="M197 458c7 53 20 90 28 110c59 146 215 226 435 226c229 0 372 -83 435 -226c9 -20 16 -42 21 -65h-32c-4 17 -10 33 -16 49c-56 137 -193 215 -409 215c-210 0 -345 -66 -406 -213c-7 -16 -19 -50 -25 -96h716v-27h-719c-1 -13 -2 -26 -2 -40s1 -28 1 -41h720v-27h-716
c7 -43 18 -74 24 -88c60 -147 202 -218 408 -218c213 0 355 75 411 219c5 12 9 25 12 38h31c-4 -16 -8 -32 -14 -47c-59 -157 -212 -238 -440 -238c-222 0 -377 85 -436 229c-8 20 -21 51 -27 105h-157v27h154c-1 13 -1 26 -1 41c0 14 1 27 1 40h-154v27h157z" />
    <glyph glyph-name=".null" horiz-adv-x="0" 
 />
    </font>
</defs>
</svg>
