<?xml version="1.0" standalone="no"?>
<!DOCTYPE svg PUBLIC "-//W3C//DTD SVG 1.1//EN" "http://www.w3.org/Graphics/SVG/1.1/DTD/svg11.dtd" >
<svg xmlns="http://www.w3.org/2000/svg" xmlns:xlink="http://www.w3.org/1999/xlink" version="1.1">
<metadata>
Created by FontForge 20190801 at Mon Jul 16 13:01:02 2007
 By root
[c] Copyright 2003-2004, The Font Bureau, Inc. Designed by David Berlow. All rights reserved.
</metadata>
<defs>
<font id="TitlingGothicFBExtended-Black" horiz-adv-x="1382" >
  <font-face 
    font-family="TitlingGothicFB Extended Black"
    font-weight="900"
    font-stretch="normal"
    units-per-em="1000"
    panose-1="2 0 5 7 3 0 0 2 0 4"
    ascent="800"
    descent="-200"
    x-height="550"
    cap-height="781"
    bbox="-176 -264 2183 1057"
    underline-thickness="20"
    underline-position="-133"
    stemh="202"
    stemv="216"
    unicode-range="U+0020-FB02"
  />
<missing-glyph horiz-adv-x="500" 
 />
    <glyph glyph-name="fi" unicode="fi" horiz-adv-x="1109" 
d="M678 322h-196v-322h-369v320h-101v230h101v18c0 132 86 234 225 234h260v-218h-76c-30 0 -48 -15 -48 -36v-6h568v-405c0 -103 1 -125 28 -137h-367c-19 2 -25 43 -25 135v187z" />
    <glyph glyph-name="fl" unicode="fl" horiz-adv-x="1120" 
d="M12 318v232h101v10c0 132 86 242 225 242h296v-218h-112c-30 0 -48 -15 -48 -36v-6h167v-222h-159v-320h-369v318h-101zM1071 0h-369c-14 2 -23 38 -23 96v589c0 59 -3 86 -6 96h362c5 -22 7 -57 7 -93v-622c0 -26 7 -62 29 -66z" />
    <glyph glyph-name="f_f" unicode="ff" horiz-adv-x="1197" 
d="M482 320v-320h-369v318h-101v232h101v10c0 132 86 242 225 242h260v-218h-76c-30 0 -48 -15 -48 -36v-6h206v18c0 132 86 242 225 242h260v-218h-76c-30 0 -48 -15 -48 -36v-6h143v-222h-135v-320h-369v320h-198z" />
    <glyph glyph-name="f_f_i" unicode="ffi" horiz-adv-x="1676" 
d="M1245 323h-196v-323h-369v323h-198v-323h-369v320h-101v230h101v10c0 132 86 242 225 242h260v-218h-76c-30 0 -48 -15 -48 -36v-6h206v18c0 132 86 242 225 242h260v-218h-76c-30 0 -48 -15 -48 -36v-6h568v-405c0 -103 1 -125 28 -137h-367c-19 2 -25 43 -25 135v188z
" />
    <glyph glyph-name="f_f_l" unicode="ffl" horiz-adv-x="1687" 
d="M482 322v-322h-369v320h-101v230h101v10c0 132 86 242 225 242h260v-218h-76c-30 0 -48 -15 -48 -36v-6h206v18c0 132 86 242 225 242h296v-218h-112c-30 0 -48 -15 -48 -36v-6h167v-222h-159v-320h-369v322h-198zM1638 0h-369c-14 2 -23 38 -23 96v589c0 59 -3 86 -6 96
h362c5 -22 7 -57 7 -93v-622c0 -26 7 -62 29 -66z" />
    <glyph glyph-name=".notdef" horiz-adv-x="500" 
 />
    <glyph glyph-name="NUL" horiz-adv-x="0" 
 />
    <glyph glyph-name="Eth" unicode="&#xd0;" horiz-adv-x="1300" 
d="M74 307h-39v171h39v303h720c234 0 368 -71 431 -180c33 -56 47 -122 47 -194c0 -79 -13 -151 -44 -211c-62 -121 -196 -196 -436 -196h-718v307zM453 478h186v-171h-186v-75h282c72 0 118 18 142 61c14 25 20 59 19 103c-2 38 -8 67 -18 89c-24 49 -71 65 -143 65h-282
v-72z" />
    <glyph glyph-name="eth" unicode="&#xf0;" horiz-adv-x="1083" 
d="M661 462c-13 -4 -21 -7 -23 -7c-17 0 -26 13 -25 34h28c0 -4 2 -7 5 -6c0 0 5 2 13 5c-1 10 -1 18 -2 20c-5 19 -26 56 -108 56c-56 0 -75 -15 -83 -21c-5 -4 -17 -18 -17 -25h-356c4 33 10 59 24 88c60 121 153 188 433 188c205 0 333 -58 410 -134c8 -8 16 -17 23 -25
c21 9 35 16 37 16c21 -1 29 -17 29 -38l-32 1c0 2 -1 6 -6 6c0 0 -5 -2 -12 -5c54 -76 71 -160 71 -223c0 -70 -13 -128 -35 -178c-72 -167 -257 -226 -502 -226c-389 0 -514 108 -514 232v13c2 119 82 218 383 218c102 0 203 -16 261 -35c0 5 -1 25 -2 46zM416 225
c0 -19 25 -47 109 -47c61 0 100 20 116 37c13 13 19 37 19 61c-29 7 -59 16 -122 16c-97 0 -122 -27 -122 -45v-22z" />
    <glyph glyph-name="Lslash" unicode="&#x141;" horiz-adv-x="1016" 
d="M454 366v-98h521v-268h-901v316l-56 -7v195l56 7v270h380v-220l347 46v-196z" />
    <glyph glyph-name="lslash" unicode="&#x142;" horiz-adv-x="540" 
d="M451 314v-248c0 -26 7 -62 29 -66h-369c-14 2 -23 38 -23 96v145l-70 -14v225l70 14v219c0 59 -3 86 -6 96h362c5 -22 7 -57 7 -93v-148l73 15v-226z" />
    <glyph glyph-name="Scaron" unicode="&#x160;" horiz-adv-x="1265" 
d="M1245 261c0 -185 -218 -273 -619 -273c-376 0 -521 98 -590 212c-14 23 -18 44 -21 70h420c20 -49 45 -64 229 -64c158 0 178 10 178 34c0 25 -18 30 -142 37c-104 6 -187 10 -256 13c-341 13 -428 117 -428 237c0 148 227 267 596 267c328 0 484 -91 547 -179
c25 -35 41 -71 47 -104h-419c-2 12 -5 18 -26 34c-22 17 -81 29 -161 29c-120 0 -167 -8 -167 -34c0 -23 34 -30 168 -37c132 -7 291 -19 319 -21c232 -15 325 -91 325 -221zM339 1025h258l34 -62l34 62h258l-126 -199h-332z" />
    <glyph glyph-name="scaron" unicode="&#x161;" horiz-adv-x="1008" 
d="M984 178c0 -132 -143 -190 -455 -190c-321 0 -452 53 -504 179c-8 20 -8 18 -10 34h375c5 -33 27 -46 133 -46c94 0 104 2 104 20c0 13 -23 16 -88 21c-28 2 -64 5 -100 8c-241 20 -412 46 -412 173c0 125 155 195 439 195c256 0 419 -44 470 -164c8 -19 10 -26 14 -43
h-358c-3 9 -8 15 -17 22c-16 12 -46 15 -89 15c-77 0 -92 -5 -92 -23c0 -14 14 -16 109 -21c54 -3 123 -8 201 -14c178 -13 280 -57 280 -166zM212 795h258l34 -62l34 62h258l-126 -199h-332z" />
    <glyph glyph-name="Yacute" unicode="&#xdd;" horiz-adv-x="1420" 
d="M1416 781l-518 -523v-258h-379v258l-518 523h446l266 -269l266 269h437zM552 818l80 206h358l-120 -206h-318z" />
    <glyph glyph-name="yacute" unicode="&#xfd;" horiz-adv-x="1078" 
d="M1073 550l-437 -736h-391l106 175l-349 561h382l164 -287l148 287h377zM381 588l80 206h358l-120 -206h-318z" />
    <glyph glyph-name="Thorn" unicode="&#xde;" horiz-adv-x="1265" 
d="M454 781v-60h411c110 3 198 -17 263 -54c79 -46 122 -124 122 -242c0 -84 -28 -150 -76 -197c-66 -67 -173 -99 -299 -99h-421v-129h-380v781h380zM867 414c0 27 -6 46 -18 59c-17 18 -44 24 -81 24h-315v-165h315c38 0 69 6 85 29c9 12 14 29 14 53z" />
    <glyph glyph-name="thorn" unicode="&#xfe;" horiz-adv-x="1108" 
d="M1086 279c0 -62 -19 -114 -53 -156c-71 -87 -204 -128 -355 -128c-60 0 -206 15 -248 51v-232h-363v980h363v-300c51 46 161 75 280 75c158 0 267 -43 326 -122c33 -45 50 -101 50 -168zM719 282c0 15 -4 28 -12 39c-22 31 -72 49 -136 49s-114 -17 -138 -47
c-10 -13 -14 -25 -14 -41c0 -15 2 -27 12 -40c24 -30 76 -47 140 -47s116 15 136 47c7 12 12 25 12 40z" />
    <glyph glyph-name="Zcaron" unicode="&#x17d;" horiz-adv-x="1228" 
d="M1208 0h-1188v248l539 270h-508v263h1142v-248l-586 -275h601v-258zM321 1025h258l34 -62l34 62h258l-126 -199h-332z" />
    <glyph glyph-name="zcaron" unicode="&#x17e;" horiz-adv-x="1017" 
d="M970 0h-919v199l329 145h-308v206h874v-199l-358 -145h382v-206zM215 795h258l34 -62l34 62h258l-126 -199h-332z" />
    <glyph glyph-name="onehalf" unicode="&#xbd;" horiz-adv-x="1185" 
d="M404 388h-245v219h-148v136c78 0 172 10 194 39h199v-394zM878 781c0 0 -199 -244 -322 -401c-114 -147 -291 -380 -291 -380h-120s205 251 332 413c112 143 282 368 282 368h119zM1168 1h-652v130c278 44 341 52 341 97v20c0 17 -9 29 -40 29c-30 0 -39 -16 -39 -29v-45
h-257c0 30 4 51 6 62c14 69 103 133 318 133c246 0 306 -66 306 -127v-26c0 -61 -87 -105 -178 -114h195v-130z" />
    <glyph glyph-name="onequarter" unicode="&#xbc;" horiz-adv-x="1185" 
d="M404 388h-245v219h-148v136c78 0 172 10 194 39h199v-394zM907 781c0 0 -199 -244 -322 -401c-114 -147 -291 -380 -291 -380h-120s205 251 332 413c112 143 282 368 282 368h119zM1146 56h-75v-55h-239v64h-341v125l377 208h203v-212h75v-130zM833 186v59l-105 -59h105z
" />
    <glyph glyph-name="onesuperior" unicode="&#xb9;" horiz-adv-x="558" 
d="M456 388h-245v219h-148v136c78 0 172 10 194 39h199v-394z" />
    <glyph glyph-name="threequarters" unicode="&#xbe;" horiz-adv-x="1413" 
d="M572 598c83 -9 122 -46 122 -82v-11c0 -60 -51 -123 -340 -123c-237 0 -300 40 -330 103c-4 9 -9 28 -9 39h263v-18c0 -12 26 -22 65 -22c48 0 66 14 66 28v6c0 15 -24 23 -68 23h-150v80h147c48 0 65 9 65 19v10c0 12 -21 19 -64 19c-32 0 -57 -10 -57 -22v-12h-247
c0 9 9 38 17 51c38 59 132 99 316 99c195 0 283 -39 300 -97c2 -6 3 -13 3 -20c0 -43 -35 -63 -99 -70zM1108 781c0 0 -199 -244 -322 -401c-114 -147 -291 -380 -291 -380h-120s205 251 332 413c112 143 282 368 282 368h119zM1377 56h-75v-55h-239v64h-341v125l377 208
h203v-212h75v-130zM1064 186v59l-105 -59h105z" />
    <glyph glyph-name="threesuperior" unicode="&#xb3;" horiz-adv-x="850" 
d="M632 598c83 -9 122 -46 122 -82v-11c0 -60 -51 -123 -340 -123c-237 0 -300 40 -330 103c-4 9 -9 28 -9 39h263v-18c0 -12 26 -22 65 -22c48 0 66 14 66 28v6c0 15 -24 23 -68 23h-150v80h147c48 0 65 9 65 19v10c0 12 -21 19 -64 19c-32 0 -57 -10 -57 -22v-12h-247
c0 9 9 38 17 51c38 59 132 99 316 99c195 0 283 -39 300 -97c2 -6 3 -13 3 -20c0 -43 -35 -63 -99 -70z" />
    <glyph glyph-name="twosuperior" unicode="&#xb2;" horiz-adv-x="819" 
d="M745 388h-652v130c278 44 341 52 341 97v20c0 17 -9 29 -40 29c-30 0 -39 -16 -39 -29v-45h-257c0 30 4 51 6 62c14 69 103 133 318 133c246 0 306 -66 306 -127v-26c0 -61 -87 -105 -178 -114h195v-130z" />
    <glyph glyph-name="brokenbar" unicode="&#xa6;" horiz-adv-x="457" 
d="M370 343h-273v457h273v-457zM370 -200h-273v457h273v-457z" />
    <glyph glyph-name="minus" unicode="&#x2212;" horiz-adv-x="999" 
d="M929 223h-869v272h869v-272z" />
    <glyph glyph-name="multiply" unicode="&#xd7;" horiz-adv-x="898" 
d="M778 558l-150 -150l151 -151l-181 -179l-150 150l-150 -150l-180 180l150 150l-150 150l181 179l149 -149l150 150z" />
    <glyph glyph-name="space" unicode=" " horiz-adv-x="488" 
 />
    <glyph glyph-name="space" unicode="&#xa0;" horiz-adv-x="488" 
 />
    <glyph glyph-name="exclam" unicode="!" horiz-adv-x="518" 
d="M503 781l-61 -441h-371l-57 441h489zM446 0h-376v296h376v-296z" />
    <glyph glyph-name="quotedbl" unicode="&#x22;" horiz-adv-x="894" 
d="M867 781l-26 -463h-342l-25 463h393zM410 781l-25 -463h-342l-25 463h392z" />
    <glyph glyph-name="numbersign" unicode="#" horiz-adv-x="923" 
d="M918 675l-50 -235h-185l-27 -123h191l-50 -235h-191l-25 -120h-156l25 120h-142l-26 -120h-156l25 120h-146l50 235h146l27 123h-152l50 235h151l27 126h156l-26 -126h142l27 126h156l-27 -126h186zM526 440h-142l-27 -123h143z" />
    <glyph glyph-name="dollar" unicode="$" horiz-adv-x="1138" 
d="M638 774c238 -15 357 -93 408 -169c22 -33 37 -68 42 -100h-362c-2 12 -5 18 -23 33c-20 16 -72 27 -160 27c-160 0 -179 -7 -179 -32c0 -22 21 -35 180 -44c118 -7 261 -18 287 -20c189 -15 292 -79 292 -220c0 -151 -170 -234 -485 -245v-82h-124v82
c-300 9 -420 99 -479 202c-13 23 -16 43 -19 68h365c24 -51 41 -62 219 -62c142 0 160 10 160 33c0 24 -16 38 -127 44c-94 5 -169 11 -231 13c-307 12 -385 103 -385 240c0 140 188 228 497 235v39h124v-42z" />
    <glyph glyph-name="percent" unicode="%" horiz-adv-x="1475" 
d="M1442 178c0 -101 -141 -194 -351 -194c-211 0 -335 93 -335 194v38c0 86 134 192 343 192c230 0 343 -112 343 -192v-38zM716 567c0 -100 -142 -193 -353 -193c-209 0 -332 93 -332 193v38c0 86 132 193 342 193c229 0 343 -112 343 -193v-38zM1138 781l-639 -781h-169
l642 781h166zM455 574v16c0 10 -25 32 -80 32c-65 0 -83 -21 -83 -32v-16c0 -10 20 -27 85 -27c63 0 78 17 78 27zM1181 188v16c0 6 -23 28 -80 28c-60 0 -83 -19 -83 -28v-16c0 -8 23 -32 83 -32c67 0 80 24 80 32z" />
    <glyph glyph-name="ampersand" unicode="&#x26;" horiz-adv-x="1330" 
d="M732 370c28 -10 84 -52 113 -76c21 26 36 64 46 100h376c-16 -102 -77 -198 -169 -251c80 -40 174 -99 252 -143h-494c-12 7 -29 18 -36 27c-60 -25 -184 -38 -281 -38c-218 0 -534 -9 -534 200v13c0 124 131 186 273 226c-30 43 -47 85 -47 126v18
c0 118 136 222 342 222c193 0 327 -90 327 -196v-20c0 -105 -87 -176 -168 -208zM571 491c36 12 58 30 58 46v9c0 20 -11 37 -39 37c-31 0 -43 -22 -43 -41v-10c0 -8 8 -25 24 -41zM440 274c-28 -14 -48 -35 -48 -55c0 -36 38 -43 99 -43c9 0 60 3 71 5
c-31 24 -95 63 -122 93z" />
    <glyph glyph-name="quotesingle" unicode="'" horiz-adv-x="448" 
d="M431 781l-26 -476h-363l-25 476h414z" />
    <glyph glyph-name="parenleft" unicode="(" horiz-adv-x="631" 
d="M617 -68h-359c-132 47 -230 214 -230 425c0 192 114 358 230 424h359c-87 -83 -190 -270 -190 -426c0 -153 55 -346 190 -423z" />
    <glyph glyph-name="parenright" unicode=")" horiz-adv-x="631" 
d="M599 357c0 -199 -89 -367 -230 -425h-359c139 76 190 270 190 423c0 156 -103 343 -190 426h359c122 -69 230 -232 230 -424z" />
    <glyph glyph-name="asterisk" unicode="*" horiz-adv-x="712" 
d="M445 597l180 90l77 -228l-203 -34l143 -143l-193 -142l-94 181l-94 -181l-193 142l143 143l-203 34l75 228l182 -90l-30 201h240z" />
    <glyph glyph-name="plus" unicode="+" horiz-adv-x="989" 
d="M929 226h-276v-215h-306v215h-287v267h284v217h310v-217h275v-267z" />
    <glyph glyph-name="comma" unicode="," horiz-adv-x="504" 
d="M442 10l-124 -193l-269 -1l94 196l-26 -12h-51v331h376v-321z" />
    <glyph glyph-name="hyphen" unicode="-" horiz-adv-x="684" 
d="M631 181h-576v290h576v-290z" />
    <glyph glyph-name="hyphen" unicode="&#xad;" horiz-adv-x="684" 
d="M631 181h-576v290h576v-290z" />
    <glyph glyph-name="period" unicode="." horiz-adv-x="504" 
d="M442 0h-376v331h376v-331z" />
    <glyph glyph-name="slash" unicode="/" horiz-adv-x="459" 
d="M487 794l-411 -952h-167l409 952h169z" />
    <glyph glyph-name="zero" unicode="0" horiz-adv-x="1124" 
d="M562 794c327 0 517 -164 536 -372c1 -11 1 -23 1 -33c0 -11 0 -23 -1 -34c-20 -210 -216 -367 -535 -367c-332 0 -522 154 -537 374c0 10 -1 19 -1 29c0 8 1 18 1 27c16 210 203 376 536 376zM687 399c-3 107 -35 149 -123 149c-98 0 -127 -48 -129 -149v-14
c0 -116 49 -156 127 -156c89 0 122 43 125 156v14z" />
    <glyph glyph-name="one" unicode="1" horiz-adv-x="730" 
d="M621 0h-377v438h-227v272c120 0 264 20 298 78h306v-788z" />
    <glyph glyph-name="two" unicode="2" horiz-adv-x="1067" 
d="M1037 0h-1003v260c428 88 525 104 525 194v39c0 34 -14 58 -62 58c-46 0 -60 -31 -60 -58v-89h-396c1 60 7 101 10 123c21 138 158 267 489 267c378 0 471 -133 471 -254v-52c0 -122 -134 -211 -274 -229h300v-259z" />
    <glyph glyph-name="three" unicode="3" horiz-adv-x="1071" 
d="M865 420c128 -18 187 -92 187 -164v-22c0 -120 -78 -246 -522 -246c-365 0 -463 80 -508 205c-7 19 -14 56 -14 78h405c0 -10 2 -24 4 -35c6 -28 35 -44 95 -44c74 0 101 20 102 52v11c-4 37 -37 51 -105 51h-231v160h226c75 0 97 16 100 38c1 4 1 15 0 20
c-4 25 -32 38 -94 38c-53 0 -86 -15 -89 -44c-1 -8 -2 -18 -2 -25h-380c0 19 13 76 26 102c58 118 202 199 486 199c300 0 435 -79 462 -194c3 -13 4 -26 4 -40c0 -87 -54 -127 -152 -140z" />
    <glyph glyph-name="four" unicode="4" horiz-adv-x="1026" 
d="M1015 110h-115v-110h-367v127h-525v251l580 416h312v-425h115v-259zM534 370v118l-161 -118h161z" />
    <glyph glyph-name="five" unicode="5" horiz-adv-x="1041" 
d="M1033 240c-5 -147 -154 -252 -490 -252c-289 0 -458 62 -499 201c-7 26 -12 43 -14 77h386c1 -10 4 -22 10 -32c11 -20 33 -37 76 -37c67 0 84 40 84 75v9c0 43 -25 73 -81 73c-54 0 -84 -23 -91 -57h-361v484h920v-244h-575l-1 -73c36 51 220 56 257 56
c257 0 372 -103 379 -253c1 -9 0 -21 0 -27z" />
    <glyph glyph-name="six" unicode="6" horiz-adv-x="1083" 
d="M1076 246c0 -138 -125 -258 -514 -258c-245 0 -430 59 -502 226c-22 50 -35 108 -35 178c0 48 11 107 38 166c58 120 192 236 482 236c280 0 373 -67 433 -188c14 -29 20 -55 24 -88h-356c0 7 -12 21 -17 25c-8 6 -27 21 -83 21c-82 0 -103 -37 -108 -56
c-2 -9 -6 -34 -6 -44c58 21 159 38 261 38c301 0 381 -110 383 -242v-14zM679 255c0 4 1 17 0 22c-3 19 -25 45 -122 45c-63 0 -93 -9 -122 -16c0 -24 6 -48 19 -61c16 -17 55 -37 116 -37c84 0 107 26 109 47z" />
    <glyph glyph-name="seven" unicode="7" horiz-adv-x="938" 
d="M921 554l-378 -554h-431l391 538h-498v243h916v-227z" />
    <glyph glyph-name="eight" unicode="8" horiz-adv-x="990" 
d="M980 224c0 -123 -181 -235 -488 -235c-300 0 -482 85 -482 235v25c0 87 63 146 192 167c-115 20 -168 83 -168 163v15c0 111 165 209 459 209c297 0 459 -88 459 -209v-15c0 -78 -58 -146 -193 -163c138 -10 221 -77 221 -167v-25zM643 242v22c0 27 -53 50 -151 50
c-89 0 -149 -25 -149 -50v-22c0 -25 67 -48 149 -48c84 0 151 22 151 48zM614 535v22c0 15 -51 36 -118 36c-65 0 -118 -19 -118 -37v-20c0 -21 51 -38 113 -38c72 0 123 15 123 37z" />
    <glyph glyph-name="nine" unicode="9" horiz-adv-x="1054" 
d="M943 135c-86 -90 -220 -146 -411 -146c-264 0 -389 62 -449 180c-18 35 -25 52 -29 96h379c0 -7 4 -17 10 -26c11 -15 37 -25 87 -25c72 0 87 41 92 60c3 10 5 39 5 49c-103 -29 -154 -41 -247 -41c-234 0 -367 104 -367 224v25c0 141 141 264 502 264
c182 0 307 -44 389 -109c97 -77 131 -186 131 -294c0 -101 -29 -191 -92 -257zM635 468c-2 24 0 26 -4 43c-7 34 -56 60 -111 60c-84 0 -117 -27 -117 -47v-25c0 -20 31 -49 119 -49c58 0 84 10 113 18z" />
    <glyph glyph-name="colon" unicode=":" horiz-adv-x="521" 
d="M434 324h-356v272h356v-272zM434 0h-356v271h356v-271z" />
    <glyph glyph-name="semicolon" unicode=";" horiz-adv-x="521" 
d="M434 324h-356v272h356v-272zM434 10l-218 -209l-147 140l70 63l-42 -4h-19v271h356v-261z" />
    <glyph glyph-name="less" unicode="&#x3c;" horiz-adv-x="908" 
d="M808 -18l-744 199v289l744 196v-309l-382 -32l382 -32v-311z" />
    <glyph glyph-name="equal" unicode="=" horiz-adv-x="908" 
d="M871 370h-834v247h834v-247zM871 79h-834v246h834v-246z" />
    <glyph glyph-name="greater" unicode="&#x3e;" horiz-adv-x="908" 
d="M808 181l-744 -196v308l382 32l-382 32v312l744 -199v-289z" />
    <glyph glyph-name="question" unicode="?" horiz-adv-x="1031" 
d="M1004 539c0 -199 -384 -167 -384 -211h-377c0 160 305 154 308 183c1 6 1 12 0 16c-5 15 -17 29 -70 29c-54 0 -68 -24 -68 -43v-15h-402c0 15 3 45 6 71c14 125 147 231 498 231c353 0 489 -73 489 -224v-37zM620 0h-377v296h377v-296z" />
    <glyph glyph-name="at" unicode="@" horiz-adv-x="1354" 
d="M1319 349c0 -205 -139 -325 -377 -325c-81 0 -170 26 -206 92c-23 -39 -75 -78 -183 -78c-154 0 -265 67 -265 241c0 136 94 287 314 287c85 0 133 -39 143 -63l11 39h308c-22 -124 -54 -241 -73 -353c-5 -31 12 -50 49 -50c91 0 150 85 150 213c0 181 -169 342 -515 342
c-322 0 -516 -142 -516 -395c0 -277 249 -391 556 -391c136 0 244 33 310 69l57 -78c-66 -33 -189 -84 -376 -84c-396 0 -678 171 -678 484c0 308 256 490 669 490c399 0 622 -198 622 -440zM737 328c2 10 -5 54 -77 54c-68 0 -112 -41 -120 -87c-8 -43 12 -93 72 -93
c82 0 109 33 117 79c2 13 7 40 8 47z" />
    <glyph glyph-name="A" unicode="A" horiz-adv-x="1442" 
d="M454 93l-62 -93h-406l534 781h434l499 -781h-414l-60 93h-525zM855 298l-97 151l-36 59l-40 -60l-98 -150h271z" />
    <glyph glyph-name="B" unicode="B" horiz-adv-x="1345" 
d="M1280 95c-55 -75 -165 -95 -286 -95h-920v781h910c128 0 203 -29 244 -71c36 -36 48 -81 48 -124c0 -45 -11 -85 -32 -114c-24 -33 -60 -54 -106 -58c73 -11 128 -42 156 -94c14 -26 21 -58 21 -95c0 -55 -12 -98 -35 -130zM886 530c0 27 -12 39 -80 39h-365v-78h366
c59 0 79 10 79 39zM930 252c0 32 -21 41 -84 41h-405v-82h405c65 0 84 10 84 41z" />
    <glyph glyph-name="C" unicode="C" horiz-adv-x="1348" 
d="M1320 340c-3 -23 -11 -69 -22 -94c-73 -167 -261 -258 -630 -258c-297 0 -482 68 -573 188c-45 60 -67 133 -67 216c0 79 23 150 68 208c95 122 289 194 584 194c440 0 588 -152 622 -273c11 -39 14 -64 15 -83h-398c-2 6 -5 13 -9 19c-22 35 -96 71 -233 71
c-114 0 -206 -23 -240 -82c-10 -16 -15 -35 -15 -57c0 -20 5 -37 13 -52c34 -61 133 -84 242 -84c112 0 228 21 242 73c1 4 2 9 3 14h398z" />
    <glyph glyph-name="D" unicode="D" horiz-adv-x="1300" 
d="M1228 196c-62 -121 -196 -196 -436 -196h-718v781h720c234 0 368 -71 431 -180c33 -56 47 -122 47 -194c0 -79 -13 -151 -44 -211zM877 293c14 25 20 59 19 103c-2 38 -8 67 -18 89c-24 49 -71 65 -143 65h-282v-318h282c72 0 118 18 142 61z" />
    <glyph glyph-name="E" unicode="E" horiz-adv-x="1127" 
d="M1080 0h-1006v781h997v-238h-625v-43h608v-221h-608v-44h634v-235z" />
    <glyph glyph-name="F" unicode="F" horiz-adv-x="1091" 
d="M1071 541h-618v-68h590v-227h-590v-246h-379v781h997v-240z" />
    <glyph glyph-name="G" unicode="G" horiz-adv-x="1295" 
d="M1256 0h-296l-7 71c-99 -62 -235 -83 -375 -83c-197 0 -361 52 -457 155c-59 63 -93 146 -93 247c0 91 35 168 95 231c108 111 299 173 535 173c298 0 491 -79 570 -235c11 -22 18 -50 19 -64h-362c-2 7 -28 20 -48 26c-26 8 -88 21 -179 21c-97 0 -171 -18 -212 -60
c-24 -23 -37 -55 -37 -95c0 -37 12 -68 36 -93c38 -38 107 -59 214 -59c143 0 220 17 259 43c5 3 9 7 9 11h-315v175h644v-464z" />
    <glyph glyph-name="H" unicode="H" horiz-adv-x="1333" 
d="M1260 0h-379v261h-428v-261h-379v781h379v-262h428v262h379v-781z" />
    <glyph glyph-name="I" unicode="I" horiz-adv-x="530" 
d="M463 0h-389v781h389v-781z" />
    <glyph glyph-name="J" unicode="J" horiz-adv-x="726" 
d="M677 313c0 -174 -135 -324 -417 -324c-104 0 -225 6 -225 6v256s137 2 165 2c68 0 93 57 93 106v422h384v-468z" />
    <glyph glyph-name="K" unicode="K" horiz-adv-x="1343" 
d="M1327 0h-531l-317 272l-26 -20v-252h-379v781h379v-235l369 235h489l-525 -342z" />
    <glyph glyph-name="L" unicode="L" horiz-adv-x="1016" 
d="M975 0h-901v781h380v-513h521v-268z" />
    <glyph glyph-name="M" unicode="M" horiz-adv-x="1458" 
d="M1393 0h-361v300l-154 -300h-289l-154 300v-300h-361v781h493l166 -360l183 360h477v-781z" />
    <glyph glyph-name="N" unicode="N" horiz-adv-x="1292" 
d="M1222 0h-367l-418 374v-374h-363v781h389l396 -352v352h363v-781z" />
    <glyph glyph-name="O" unicode="O" 
d="M691 803c265 0 464 -54 572 -165c60 -62 91 -143 91 -242c0 -102 -31 -183 -90 -246c-107 -111 -303 -162 -573 -162c-268 0 -468 53 -575 168c-57 62 -88 141 -88 242c0 89 31 166 89 227c109 117 313 178 574 178zM689 247c162 0 242 43 268 98c7 14 10 32 10 49
c0 18 -2 40 -14 58c-30 45 -104 89 -264 89c-150 0 -234 -45 -261 -93c-9 -17 -13 -35 -13 -54c0 -24 8 -48 19 -65c31 -48 106 -82 255 -82z" />
    <glyph glyph-name="P" unicode="P" horiz-adv-x="1265" 
d="M1250 485c0 -84 -28 -150 -76 -197c-66 -67 -173 -99 -299 -99h-421v-189h-380v781h791c110 0 198 -17 263 -54c79 -46 122 -124 122 -242zM867 474c0 27 -6 46 -18 59c-17 18 -44 24 -81 24h-315v-165h315c38 0 69 6 85 29c9 12 14 29 14 53z" />
    <glyph glyph-name="Q" unicode="Q" 
d="M1047 33c5 -6 11 -11 15 -15s8 -6 13 -10l-208 -208s-47 27 -106 83c-50 47 -87 95 -95 105h-6c-252 4 -441 58 -544 168c-57 62 -88 141 -88 242c0 89 31 166 89 227c109 117 313 178 574 178c265 0 464 -54 572 -165c60 -62 91 -143 91 -242c0 -102 -31 -183 -90 -246
c-51 -53 -122 -98 -217 -117zM689 241c162 0 242 44 268 100c7 14 10 33 10 50c0 18 -1 37 -12 55c-30 48 -106 95 -266 95c-150 0 -234 -46 -261 -95c-9 -17 -13 -36 -13 -55c0 -24 8 -49 19 -66c31 -49 106 -84 255 -84z" />
    <glyph glyph-name="R" unicode="R" horiz-adv-x="1336" 
d="M1256 548c0 -62 -22 -124 -57 -158c-33 -32 -80 -66 -143 -71l289 -319h-413l-232 271h-247v-271h-379v781h814c145 0 240 -25 298 -69c49 -38 70 -90 70 -164zM893 506c0 11 -1 16 -3 21c-13 31 -48 34 -83 34h-354v-108h354c49 0 74 9 83 32c2 6 3 13 3 21z" />
    <glyph glyph-name="S" unicode="S" horiz-adv-x="1265" 
d="M1245 261c0 -185 -218 -273 -619 -273c-376 0 -521 98 -590 212c-14 23 -18 44 -21 70h420c20 -49 45 -64 229 -64c158 0 178 10 178 34c0 25 -18 30 -142 37c-104 6 -187 10 -256 13c-341 13 -428 117 -428 237c0 148 227 267 596 267c328 0 484 -91 547 -179
c25 -35 41 -71 47 -104h-419c-2 12 -5 18 -26 34c-22 17 -81 29 -161 29c-120 0 -167 -8 -167 -34c0 -23 34 -30 168 -37c132 -7 291 -19 319 -21c232 -15 325 -91 325 -221z" />
    <glyph glyph-name="T" unicode="T" horiz-adv-x="1178" 
d="M1173 545h-390v-545h-389v545h-390v236h1169v-236z" />
    <glyph glyph-name="U" unicode="U" 
d="M1297 345c0 -249 -271 -356 -621 -356c-327 0 -581 109 -581 397v395h384v-397c0 -90 88 -138 220 -138c137 0 220 58 220 138v397h378v-436z" />
    <glyph glyph-name="V" unicode="V" horiz-adv-x="1444" 
d="M1443 781l-505 -781h-429l-509 781h424l308 -503l314 503h397z" />
    <glyph glyph-name="W" unicode="W" horiz-adv-x="1804" 
d="M1805 781l-350 -781h-376l-177 406l-177 -406h-376l-350 781h414l165 -395l165 395h378l165 -395l165 395h354z" />
    <glyph glyph-name="X" unicode="X" horiz-adv-x="1272" 
d="M628 191c0 1 -206 -191 -206 -191h-414s417 388 417 387l-406 394h440l190 -184l198 184h414l-409 -381c0 1 413 -400 413 -400h-440z" />
    <glyph glyph-name="Y" unicode="Y" horiz-adv-x="1420" 
d="M1416 781l-518 -523v-258h-379v258l-518 523h446l266 -269l266 269h437z" />
    <glyph glyph-name="Z" unicode="Z" horiz-adv-x="1228" 
d="M1208 0h-1188v248l539 270h-508v263h1142v-248l-586 -275h601v-258z" />
    <glyph glyph-name="bracketleft" unicode="[" horiz-adv-x="651" 
d="M624 -186h-582v967h582v-236h-247v-495h247v-236z" />
    <glyph glyph-name="backslash" unicode="\" horiz-adv-x="459" 
d="M-39 794h169l409 -952h-167z" />
    <glyph glyph-name="bracketright" unicode="]" horiz-adv-x="651" 
d="M27 -186v236h247v495h-247v236h582v-967h-582z" />
    <glyph glyph-name="asciicircum" unicode="^" horiz-adv-x="891" 
d="M442 530l-190 -189l-237 200l255 254h344l255 -254l-237 -200z" />
    <glyph glyph-name="underscore" unicode="_" horiz-adv-x="663" 
d="M663 -240h-663v222h663v-222z" />
    <glyph glyph-name="grave" unicode="`" horiz-adv-x="586" 
d="M453 588h-318l-120 206h358z" />
    <glyph glyph-name="a" unicode="a" horiz-adv-x="1096" 
d="M1037 0h-352s-3 19 -7 37c-53 -25 -179 -49 -345 -49c-192 0 -304 57 -304 149v15c0 100 133 172 423 172c62 0 132 -5 209 -13c-5 20 -19 37 -40 46c-21 10 -47 15 -81 15c-30 0 -65 -3 -87 -9c-15 -4 -27 -14 -34 -21h-350c6 25 15 47 33 77c71 119 260 153 468 153
c218 0 376 -61 426 -164c15 -33 31 -76 27 -131c-2 -30 -1 -88 -1 -143c0 -57 2 -108 15 -134zM669 182c4 5 4 22 4 26c-52 6 -98 9 -135 9c-72 0 -116 -10 -131 -26c-5 -6 -7 -12 -7 -18c0 -7 2 -12 7 -17c15 -14 52 -19 105 -19c36 0 73 7 95 13c28 7 48 15 62 32z" />
    <glyph glyph-name="b" unicode="b" horiz-adv-x="1118" 
d="M709 569c158 0 267 -43 326 -122c33 -45 50 -101 50 -168c0 -62 -19 -114 -53 -156c-71 -87 -204 -128 -355 -128c-60 0 -208 13 -254 51v-46h-357v794h363v-300c39 43 161 75 280 75zM570 370c-64 0 -114 -17 -138 -47c-10 -13 -14 -25 -14 -41c0 -15 2 -27 12 -40
c24 -30 76 -47 140 -47s116 15 136 47c7 12 12 25 12 40s-4 28 -12 39c-22 31 -72 49 -136 49z" />
    <glyph glyph-name="c" unicode="c" horiz-adv-x="1061" 
d="M1038 291h-341c0 6 0 19 -7 30c-21 36 -76 50 -140 50c-67 0 -118 -15 -145 -46c-8 -9 -16 -26 -16 -43s4 -35 14 -47c25 -31 71 -47 138 -47c64 0 105 6 131 27c9 8 18 21 20 30h345c-1 -38 -16 -77 -46 -113c-67 -80 -207 -144 -430 -144c-235 0 -397 45 -478 134
c-38 42 -58 94 -58 155s21 114 59 157c83 91 246 140 463 140c242 0 380 -58 446 -161c23 -35 38 -76 45 -122z" />
    <glyph glyph-name="d" unicode="d" horiz-adv-x="1144" 
d="M455 572c119 0 219 -26 268 -52v274h358v-706c0 -35 11 -88 11 -88h-351l-6 51c-34 -24 -159 -61 -265 -61c-189 0 -332 49 -400 142c-29 39 -45 86 -45 141c0 57 16 106 45 147c68 99 210 152 385 152zM559 373c-76 0 -133 -17 -161 -49c-10 -11 -14 -25 -14 -42
c0 -16 2 -31 12 -42c28 -31 87 -49 163 -49c74 0 128 16 154 49c9 12 14 26 14 42c0 15 -4 28 -14 40c-26 32 -80 51 -154 51z" />
    <glyph glyph-name="e" unicode="e" horiz-adv-x="1085" 
d="M1061 189c-5 -13 -10 -22 -18 -36c-44 -79 -204 -165 -497 -165c-192 0 -358 35 -448 119c-47 42 -73 98 -73 169c0 64 27 119 73 164c94 92 269 132 453 132c289 0 481 -107 508 -283c2 -11 3 -61 3 -71h-679c3 -12 10 -21 27 -36c24 -22 84 -34 137 -34
c51 0 106 8 130 26c5 4 13 11 14 15h370zM696 343c0 10 -6 21 -22 32c-27 18 -70 31 -127 31c-60 0 -105 -14 -131 -31c-14 -9 -27 -22 -28 -32h308z" />
    <glyph glyph-name="f" unicode="f" horiz-adv-x="710" 
d="M697 320h-175v-320h-369v320h-141v230h141v10c0 132 86 242 225 242h300v-218h-116c-30 0 -48 -15 -48 -36v-6h183v-222z" />
    <glyph glyph-name="g" unicode="g" horiz-adv-x="981" 
d="M442 578c131 0 255 -15 312 -40c52 43 172 45 225 28v-186h-103c9 -12 15 -30 15 -45c0 -4 0 -16 -1 -20c-23 -107 -168 -151 -423 -151c-18 0 -62 5 -81 13c-18 1 -31 -2 -31 -16c0 -28 76 -11 101 -11c400 0 531 -47 531 -164c0 -132 -173 -205 -523 -205
c-385 0 -478 69 -478 151c0 78 53 113 116 127c-41 10 -67 38 -67 85c0 46 47 83 95 95c-49 8 -96 52 -109 115c-2 13 -1 37 3 55c23 88 137 169 418 169zM459 409c-62 0 -96 -17 -106 -42c-6 -14 -8 -27 -2 -43c10 -25 34 -45 102 -45c60 0 98 17 104 42s6 33 0 46
c-12 26 -42 42 -98 42zM441 -54c116 0 161 12 161 38c0 18 -14 21 -39 22c-19 1 -216 0 -236 0c-11 -3 -24 -11 -24 -24c0 -26 30 -36 138 -36z" />
    <glyph glyph-name="h" unicode="h" horiz-adv-x="1073" 
d="M1002 283c0 -249 4 -281 19 -283h-370c-10 17 -14 32 -14 220c0 69 -44 95 -103 95c-80 0 -105 -58 -105 -103v-212h-363v794h350v-340c64 89 155 116 295 116c185 0 291 -103 291 -287z" />
    <glyph glyph-name="i" unicode="i" horiz-adv-x="497" 
d="M430 594h-364v198h364v-198zM458 0h-367c-19 2 -25 43 -25 135v415h364v-413c0 -103 1 -125 28 -137z" />
    <glyph glyph-name="j" unicode="j" horiz-adv-x="524" 
d="M454 594h-364v197h364v-197zM454 56c0 -166 -72 -275 -254 -275c-81 0 -222 11 -231 23v186h52c32 0 69 13 69 62v498h364v-494z" />
    <glyph glyph-name="k" unicode="k" horiz-adv-x="998" 
d="M1021 0h-424l-146 174l-22 -16v-158h-363v794h362v-373l174 129h384l-278 -225z" />
    <glyph glyph-name="l" unicode="l" horiz-adv-x="507" 
d="M458 0c-22 4 -29 40 -29 66v622c0 36 -2 71 -7 93h-362c3 -10 6 -37 6 -96v-589c0 -58 9 -94 23 -96h369z" />
    <glyph glyph-name="m" unicode="m" horiz-adv-x="1582" 
d="M1182 0c-18 0 -18 67 -18 224c0 46 -29 92 -97 92c-69 0 -104 -53 -104 -106v-210h-334v229c0 46 -28 87 -96 87c-69 0 -104 -48 -104 -101v-215h-363v550h350v-105c39 84 155 119 259 119c121 0 206 -37 252 -119c35 49 113 119 286 119c199 0 293 -108 293 -288
c0 -261 -3 -264 8 -276h-332z" />
    <glyph glyph-name="n" unicode="n" horiz-adv-x="1074" 
d="M1015 0h-364c-5 0 -14 10 -14 223c0 53 -35 92 -103 92c-73 0 -105 -60 -105 -94v-221h-363v550h350v-105c51 91 164 124 291 124c213 0 294 -135 294 -291c0 -271 7 -256 14 -278z" />
    <glyph glyph-name="o" unicode="o" horiz-adv-x="1107" 
d="M1082 278c0 -59 -19 -108 -54 -147c-86 -100 -266 -142 -471 -142c-253 0 -406 55 -480 142c-35 42 -52 92 -52 147c0 53 18 102 54 144c77 91 237 150 478 150c219 0 386 -48 468 -141c37 -42 57 -93 57 -153zM721 279c0 14 -2 25 -13 39c-24 31 -79 49 -150 49
c-72 0 -127 -18 -154 -47c-11 -12 -15 -25 -15 -41c0 -15 3 -29 13 -41c26 -30 84 -46 156 -46c71 0 126 15 150 46c9 11 13 26 13 41z" />
    <glyph glyph-name="p" unicode="p" horiz-adv-x="1108" 
d="M1086 279c0 -62 -19 -114 -53 -156c-71 -87 -204 -128 -355 -128c-60 0 -206 15 -248 51v-232h-363v736h351v-56c51 46 173 75 292 75c158 0 267 -43 326 -122c33 -45 50 -101 50 -168zM719 282c0 15 -4 28 -12 39c-22 31 -72 49 -136 49s-114 -17 -138 -47
c-10 -13 -14 -25 -14 -41c0 -15 2 -27 12 -40c24 -30 76 -47 140 -47s116 15 136 47c7 12 12 25 12 40z" />
    <glyph glyph-name="q" unicode="q" horiz-adv-x="1143" 
d="M1090 -186h-350l-6 5v208c-71 -22 -163 -39 -304 -39c-148 0 -270 46 -341 123c-40 44 -64 99 -64 162c0 73 25 131 67 177c77 81 210 119 350 119c180 0 262 -34 311 -59l4 38h325v-640c0 -37 2 -77 8 -94zM727 282c0 15 -4 30 -12 40c-27 33 -87 52 -158 52
c-74 0 -134 -16 -161 -50c-8 -9 -12 -26 -12 -42s1 -30 10 -42c27 -35 89 -50 163 -50c71 0 131 15 158 50c8 10 12 26 12 42z" />
    <glyph glyph-name="r" unicode="r" horiz-adv-x="702" 
d="M699 564v-293c-45 18 -81 28 -137 28c-70 0 -130 -34 -130 -130v-169h-365v550h351v-81c16 34 73 63 140 80c46 12 97 17 141 15z" />
    <glyph glyph-name="s" unicode="s" horiz-adv-x="1008" 
d="M984 178c0 -132 -143 -190 -455 -190c-321 0 -452 53 -504 179c-8 20 -8 18 -10 34h375c5 -33 27 -46 133 -46c94 0 104 2 104 20c0 13 -23 16 -88 21c-28 2 -64 5 -100 8c-241 20 -412 46 -412 173c0 125 155 195 439 195c256 0 419 -44 470 -164c8 -19 10 -26 14 -43
h-358c-3 9 -8 15 -17 22c-16 12 -46 15 -89 15c-77 0 -92 -5 -92 -23c0 -14 14 -16 109 -21c54 -3 123 -8 201 -14c178 -13 280 -57 280 -166z" />
    <glyph glyph-name="t" unicode="t" horiz-adv-x="778" 
d="M728 321h-228v-75c0 -25 18 -41 104 -41c32 0 99 2 124 11v-195c-44 -21 -183 -33 -298 -33c-145 0 -294 40 -294 205v128h-122v229h122c8 50 6 136 6 136l354 10v-146h232v-229z" />
    <glyph glyph-name="u" unicode="u" horiz-adv-x="1068" 
d="M995 0c0 0 -3 49 -3 81v469h-363v-232c0 -59 -46 -97 -111 -97c-34 0 -96 13 -96 92c0 180 -4 237 -16 237c12 0 -367 0 -367 0c13 -15 17 -11 17 -327c0 -213 148 -238 290 -238c139 0 239 30 294 118l9 -103h346z" />
    <glyph glyph-name="v" unicode="v" horiz-adv-x="1074" 
d="M1072 550l-319 -550h-413l-338 550h383l164 -327l148 327h375z" />
    <glyph glyph-name="w" unicode="w" horiz-adv-x="1522" 
d="M1520 550l-285 -550h-383l-88 273l-8 26l-9 -25l-87 -274h-383l-275 550h370l100 -262l94 262h417l92 -262l95 262h350z" />
    <glyph glyph-name="x" unicode="x" horiz-adv-x="1068" 
d="M540 446l103 104h400l-320 -261l348 -289h-420l-124 123l-126 -123h-400l342 280l-325 270h420z" />
    <glyph glyph-name="y" unicode="y" horiz-adv-x="1078" 
d="M1073 550l-437 -736h-391l106 175l-349 561h382l164 -287l148 287h377z" />
    <glyph glyph-name="z" unicode="z" horiz-adv-x="1017" 
d="M970 0h-919v199l329 145h-308v206h874v-199l-358 -145h382v-206z" />
    <glyph glyph-name="braceleft" unicode="{" horiz-adv-x="691" 
d="M637 -186h-279c-124 0 -173 62 -173 110c0 60 26 108 26 161c0 43 -19 110 -178 110v226c148 0 178 42 178 79c0 66 -30 103 -30 159c0 61 85 122 177 122h279v-248c-87 0 -134 -10 -134 -42c0 -36 13 -53 13 -71c0 -39 -32 -78 -125 -86c95 -5 125 -36 125 -102
c0 -44 -17 -60 -17 -107c0 -45 46 -62 138 -62v-249z" />
    <glyph glyph-name="bar" unicode="|" horiz-adv-x="457" 
d="M370 -200h-273v1000h273v-1000z" />
    <glyph glyph-name="braceright" unicode="}" horiz-adv-x="691" 
d="M53 -186v249c92 0 138 17 138 62c0 47 -17 63 -17 107c0 66 30 97 125 102c-93 8 -125 47 -125 86c0 18 13 35 13 71c0 32 -47 42 -134 42v248h279s177 -61 177 -122c0 -56 -30 -93 -30 -159c0 -37 30 -79 178 -79v-226c-159 0 -178 -67 -178 -110c0 -53 26 -101 26 -161
c0 -48 -49 -110 -173 -110h-279z" />
    <glyph glyph-name="asciitilde" unicode="~" horiz-adv-x="1011" 
d="M549 201c-76 40 -129 88 -155 88c-44 0 -62 -31 -62 -76h-319c0 209 76 367 284 367c94 0 171 -37 231 -76c64 -41 108 -84 130 -84c34 0 49 27 49 68h284c12 -210 -70 -339 -247 -339c-76 0 -141 24 -195 52z" />
    <glyph glyph-name="Adieresis" unicode="&#xc4;" horiz-adv-x="1442" 
d="M454 93l-62 -93h-406l534 781h434l499 -781h-414l-60 93h-525zM855 298l-97 151l-36 59l-40 -60l-98 -150h271zM1013 826h-248v197h248v-197zM696 826h-249v197h249v-197z" />
    <glyph glyph-name="Aring" unicode="&#xc5;" horiz-adv-x="1442" 
d="M524 781c-12 24 -19 51 -19 79c0 110 105 197 232 197c128 0 232 -87 232 -197c0 -28 -7 -55 -20 -79h5l499 -781h-414l-60 93h-525l-62 -93h-406l534 781h4zM737 918c-31 0 -59 -25 -59 -58c0 -29 28 -57 59 -57s59 28 59 57c0 33 -25 58 -59 58zM855 298l-97 151
l-36 59l-40 -60l-98 -150h271z" />
    <glyph glyph-name="Ccedilla" unicode="&#xc7;" horiz-adv-x="1348" 
d="M580 -10c-246 13 -403 78 -485 186c-45 60 -67 133 -67 216c0 79 23 150 68 208c95 122 289 194 584 194c440 0 588 -152 622 -273c11 -39 14 -64 15 -83h-398c-2 6 -5 13 -9 19c-22 35 -96 71 -233 71c-114 0 -206 -23 -240 -82c-10 -16 -15 -35 -15 -57
c0 -20 5 -37 13 -52c34 -61 133 -84 242 -84c112 0 228 21 242 73c1 4 2 9 3 14h398c-3 -23 -11 -69 -22 -94c-68 -155 -236 -245 -556 -257v-10c0 -32 101 -10 101 -102c0 -80 -116 -112 -300 -69v101c40 -10 85 -15 85 8c0 22 -48 18 -48 57v16z" />
    <glyph glyph-name="Eacute" unicode="&#xc9;" horiz-adv-x="1127" 
d="M1080 0h-1006v781h997v-238h-625v-43h608v-221h-608v-44h634v-235zM405 818l80 206h358l-120 -206h-318z" />
    <glyph glyph-name="Ntilde" unicode="&#xd1;" horiz-adv-x="1292" 
d="M1222 0h-367l-418 374v-374h-363v781h389l396 -352v352h363v-781zM699 829c-32 12 -74 29 -89 29c-18 0 -31 -13 -31 -32h-216c0 142 47 207 169 207c51 0 82 -9 112 -21c20 -8 37 -14 52 -14c21 0 31 1 33 25h212c0 -168 -66 -210 -133 -210c-49 0 -71 2 -109 16z" />
    <glyph glyph-name="Odieresis" unicode="&#xd6;" 
d="M691 803c265 0 464 -54 572 -165c60 -62 91 -143 91 -242c0 -102 -31 -183 -90 -246c-107 -111 -303 -162 -573 -162c-268 0 -468 53 -575 168c-57 62 -88 141 -88 242c0 89 31 166 89 227c109 117 313 178 574 178zM689 247c162 0 242 43 268 98c7 14 10 32 10 49
c0 18 -2 40 -14 58c-30 45 -104 89 -264 89c-150 0 -234 -45 -261 -93c-9 -17 -13 -35 -13 -54c0 -24 8 -48 19 -65c31 -48 106 -82 255 -82zM971 829h-248v197h248v-197zM654 829h-249v197h249v-197z" />
    <glyph glyph-name="Udieresis" unicode="&#xdc;" 
d="M1297 345c0 -249 -271 -356 -621 -356c-327 0 -581 109 -581 397v395h384v-397c0 -90 88 -138 220 -138c137 0 220 58 220 138v397h378v-436zM983 826h-248v197h248v-197zM666 826h-249v197h249v-197z" />
    <glyph glyph-name="aacute" unicode="&#xe1;" horiz-adv-x="1096" 
d="M1037 0h-352s-3 19 -7 37c-53 -25 -179 -49 -345 -49c-192 0 -304 57 -304 149v15c0 100 133 172 423 172c62 0 132 -5 209 -13c-5 20 -19 37 -40 46c-21 10 -47 15 -81 15c-30 0 -65 -3 -87 -9c-15 -4 -27 -14 -34 -21h-350c6 25 15 47 33 77c71 119 260 153 468 153
c218 0 376 -61 426 -164c15 -33 31 -76 27 -131c-2 -30 -1 -88 -1 -143c0 -57 2 -108 15 -134zM669 182c4 5 4 22 4 26c-52 6 -98 9 -135 9c-72 0 -116 -10 -131 -26c-5 -6 -7 -12 -7 -18c0 -7 2 -12 7 -17c15 -14 52 -19 105 -19c36 0 73 7 95 13c28 7 48 15 62 32z
M393 588l80 206h358l-120 -206h-318z" />
    <glyph glyph-name="agrave" unicode="&#xe0;" horiz-adv-x="1096" 
d="M1037 0h-352s-3 19 -7 37c-53 -25 -179 -49 -345 -49c-192 0 -304 57 -304 149v15c0 100 133 172 423 172c62 0 132 -5 209 -13c-5 20 -19 37 -40 46c-21 10 -47 15 -81 15c-30 0 -65 -3 -87 -9c-15 -4 -27 -14 -34 -21h-350c6 25 15 47 33 77c71 119 260 153 468 153
c218 0 376 -61 426 -164c15 -33 31 -76 27 -131c-2 -30 -1 -88 -1 -143c0 -57 2 -108 15 -134zM669 182c4 5 4 22 4 26c-52 6 -98 9 -135 9c-72 0 -116 -10 -131 -26c-5 -6 -7 -12 -7 -18c0 -7 2 -12 7 -17c15 -14 52 -19 105 -19c36 0 73 7 95 13c28 7 48 15 62 32z
M711 588h-318l-120 206h358z" />
    <glyph glyph-name="acircumflex" unicode="&#xe2;" horiz-adv-x="1096" 
d="M1037 0h-352s-3 19 -7 37c-53 -25 -179 -49 -345 -49c-192 0 -304 57 -304 149v15c0 100 133 172 423 172c62 0 132 -5 209 -13c-5 20 -19 37 -40 46c-21 10 -47 15 -81 15c-30 0 -65 -3 -87 -9c-15 -4 -27 -14 -34 -21h-350c6 25 15 47 33 77c71 119 260 153 468 153
c218 0 376 -61 426 -164c15 -33 31 -76 27 -131c-2 -30 -1 -88 -1 -143c0 -57 2 -108 15 -134zM669 182c4 5 4 22 4 26c-52 6 -98 9 -135 9c-72 0 -116 -10 -131 -26c-5 -6 -7 -12 -7 -18c0 -7 2 -12 7 -17c15 -14 52 -19 105 -19c36 0 73 7 95 13c28 7 48 15 62 32z
M843 595h-258l-34 62l-34 -62h-258l126 199h332z" />
    <glyph glyph-name="adieresis" unicode="&#xe4;" horiz-adv-x="1096" 
d="M1037 0h-352s-3 19 -7 37c-53 -25 -179 -49 -345 -49c-192 0 -304 57 -304 149v15c0 100 133 172 423 172c62 0 132 -5 209 -13c-5 20 -19 37 -40 46c-21 10 -47 15 -81 15c-30 0 -65 -3 -87 -9c-15 -4 -27 -14 -34 -21h-350c6 25 15 47 33 77c71 119 260 153 468 153
c218 0 376 -61 426 -164c15 -33 31 -76 27 -131c-2 -30 -1 -88 -1 -143c0 -57 2 -108 15 -134zM669 182c4 5 4 22 4 26c-52 6 -98 9 -135 9c-72 0 -116 -10 -131 -26c-5 -6 -7 -12 -7 -18c0 -7 2 -12 7 -17c15 -14 52 -19 105 -19c36 0 73 7 95 13c28 7 48 15 62 32z
M834 596h-248v197h248v-197zM517 596h-249v197h249v-197z" />
    <glyph glyph-name="atilde" unicode="&#xe3;" horiz-adv-x="1096" 
d="M1037 0h-352s-3 19 -7 37c-53 -25 -179 -49 -345 -49c-192 0 -304 57 -304 149v15c0 100 133 172 423 172c62 0 132 -5 209 -13c-5 20 -19 37 -40 46c-21 10 -47 15 -81 15c-30 0 -65 -3 -87 -9c-15 -4 -27 -14 -34 -21h-350c6 25 15 47 33 77c71 119 260 153 468 153
c218 0 376 -61 426 -164c15 -33 31 -76 27 -131c-2 -30 -1 -88 -1 -143c0 -57 2 -108 15 -134zM669 182c4 5 4 22 4 26c-52 6 -98 9 -135 9c-72 0 -116 -10 -131 -26c-5 -6 -7 -12 -7 -18c0 -7 2 -12 7 -17c15 -14 52 -19 105 -19c36 0 73 7 95 13c28 7 48 15 62 32z
M598 599c-32 12 -74 29 -89 29c-18 0 -31 -13 -31 -32h-216c0 142 47 207 169 207c51 0 82 -9 112 -21c20 -8 37 -14 52 -14c21 0 31 1 33 25h212c0 -168 -66 -210 -133 -210c-49 0 -71 2 -109 16z" />
    <glyph glyph-name="aring" unicode="&#xe5;" horiz-adv-x="1096" 
d="M566 855c107 0 193 -79 193 -179c0 -43 -17 -83 -44 -114c142 -22 243 -76 281 -154c15 -33 31 -76 27 -131c-2 -30 -1 -88 -1 -143c0 -57 2 -108 15 -134h-352s-3 19 -7 37c-53 -25 -179 -49 -345 -49c-192 0 -304 57 -304 149v15c0 100 133 172 423 172
c62 0 132 -5 209 -13c-5 20 -19 37 -40 46c-21 10 -47 15 -81 15c-30 0 -65 -3 -87 -9c-15 -4 -27 -14 -34 -21h-350c6 25 15 47 33 77c53 88 171 130 313 145c-26 31 -42 70 -42 112c0 100 87 179 193 179zM669 182c4 5 4 22 4 26c-52 6 -98 9 -135 9
c-72 0 -116 -10 -131 -26c-5 -6 -7 -12 -7 -18c0 -7 2 -12 7 -17c15 -14 52 -19 105 -19c36 0 73 7 95 13c28 7 48 15 62 32zM566 729c-26 0 -49 -23 -49 -53c0 -26 23 -52 49 -52s49 26 49 52c0 30 -21 53 -49 53z" />
    <glyph glyph-name="ccedilla" unicode="&#xe7;" horiz-adv-x="1061" 
d="M456 -9c-179 12 -305 56 -373 131c-38 42 -58 94 -58 155s21 114 59 157c83 91 246 140 463 140c242 0 380 -58 446 -161c23 -35 38 -76 45 -122h-341c0 6 0 19 -7 30c-21 36 -76 50 -140 50c-67 0 -118 -15 -145 -46c-8 -9 -16 -26 -16 -43s4 -35 14 -47
c25 -31 71 -47 138 -47c64 0 105 6 131 27c9 8 18 21 20 30h345c-1 -38 -16 -77 -46 -113c-61 -73 -183 -133 -373 -143v-10c0 -32 101 -10 101 -102c0 -80 -116 -112 -300 -69v101c40 -10 85 -15 85 8c0 22 -48 18 -48 57v17z" />
    <glyph glyph-name="eacute" unicode="&#xe9;" horiz-adv-x="1085" 
d="M1060 189c-5 -13 -10 -22 -18 -36c-44 -79 -204 -165 -497 -165c-192 0 -358 35 -448 119c-47 42 -73 98 -73 169c0 64 27 119 73 164c94 92 269 132 453 132c289 0 481 -107 508 -283c2 -11 3 -61 3 -71h-679c3 -12 10 -21 27 -36c24 -22 84 -34 137 -34
c51 0 106 8 130 26c5 4 13 11 14 15h370zM695 343c0 10 -6 21 -22 32c-27 18 -70 31 -127 31c-60 0 -105 -14 -131 -31c-14 -9 -27 -22 -28 -32h308zM384 588l80 206h358l-120 -206h-318z" />
    <glyph glyph-name="egrave" unicode="&#xe8;" horiz-adv-x="1085" 
d="M1060 189c-5 -13 -10 -22 -18 -36c-44 -79 -204 -165 -497 -165c-192 0 -358 35 -448 119c-47 42 -73 98 -73 169c0 64 27 119 73 164c94 92 269 132 453 132c289 0 481 -107 508 -283c2 -11 3 -61 3 -71h-679c3 -12 10 -21 27 -36c24 -22 84 -34 137 -34
c51 0 106 8 130 26c5 4 13 11 14 15h370zM695 343c0 10 -6 21 -22 32c-27 18 -70 31 -127 31c-60 0 -105 -14 -131 -31c-14 -9 -27 -22 -28 -32h308zM702 588h-318l-120 206h358z" />
    <glyph glyph-name="ecircumflex" unicode="&#xea;" horiz-adv-x="1085" 
d="M1060 189c-5 -13 -10 -22 -18 -36c-44 -79 -204 -165 -497 -165c-192 0 -358 35 -448 119c-47 42 -73 98 -73 169c0 64 27 119 73 164c94 92 269 132 453 132c289 0 481 -107 508 -283c2 -11 3 -61 3 -71h-679c3 -12 10 -21 27 -36c24 -22 84 -34 137 -34
c51 0 106 8 130 26c5 4 13 11 14 15h370zM695 343c0 10 -6 21 -22 32c-27 18 -70 31 -127 31c-60 0 -105 -14 -131 -31c-14 -9 -27 -22 -28 -32h308zM834 595h-258l-34 62l-34 -62h-258l126 199h332z" />
    <glyph glyph-name="edieresis" unicode="&#xeb;" horiz-adv-x="1085" 
d="M1060 189c-5 -13 -10 -22 -18 -36c-44 -79 -204 -165 -497 -165c-192 0 -358 35 -448 119c-47 42 -73 98 -73 169c0 64 27 119 73 164c94 92 269 132 453 132c289 0 481 -107 508 -283c2 -11 3 -61 3 -71h-679c3 -12 10 -21 27 -36c24 -22 84 -34 137 -34
c51 0 106 8 130 26c5 4 13 11 14 15h370zM695 343c0 10 -6 21 -22 32c-27 18 -70 31 -127 31c-60 0 -105 -14 -131 -31c-14 -9 -27 -22 -28 -32h308zM834 596h-248v197h248v-197zM517 596h-249v197h249v-197z" />
    <glyph glyph-name="iacute" unicode="&#xed;" horiz-adv-x="497" 
d="M458 0h-367c-19 2 -25 43 -25 135v415h364v-413c0 -103 1 -125 28 -137zM86 588l80 206h358l-120 -206h-318z" />
    <glyph glyph-name="igrave" unicode="&#xec;" horiz-adv-x="497" 
d="M458 0h-367c-19 2 -25 43 -25 135v415h364v-413c0 -103 1 -125 28 -137zM416 588h-318l-120 206h358z" />
    <glyph glyph-name="icircumflex" unicode="&#xee;" horiz-adv-x="497" 
d="M458 0h-367c-19 2 -25 43 -25 135v415h364v-413c0 -103 1 -125 28 -137zM539 595h-258l-34 62l-34 -62h-258l126 199h332z" />
    <glyph glyph-name="idieresis" unicode="&#xef;" horiz-adv-x="497" 
d="M458 0h-367c-19 2 -25 43 -25 135v415h364v-413c0 -103 1 -125 28 -137zM524 596h-248v197h248v-197zM207 596h-249v197h249v-197z" />
    <glyph glyph-name="ntilde" unicode="&#xf1;" horiz-adv-x="1074" 
d="M1015 0h-364c-5 0 -14 10 -14 223c0 53 -35 92 -103 92c-73 0 -105 -60 -105 -94v-221h-363v550h350v-105c51 91 164 124 291 124c213 0 294 -135 294 -291c0 -271 7 -256 14 -278zM599 599c-32 12 -74 29 -89 29c-18 0 -31 -13 -31 -32h-216c0 142 47 207 169 207
c51 0 82 -9 112 -21c20 -8 37 -14 52 -14c21 0 31 1 33 25h212c0 -168 -66 -210 -133 -210c-49 0 -71 2 -109 16z" />
    <glyph glyph-name="oacute" unicode="&#xf3;" horiz-adv-x="1107" 
d="M1082 278c0 -59 -19 -108 -54 -147c-86 -100 -266 -142 -471 -142c-253 0 -406 55 -480 142c-35 42 -52 92 -52 147c0 53 18 102 54 144c77 91 237 150 478 150c219 0 386 -48 468 -141c37 -42 57 -93 57 -153zM721 279c0 14 -2 25 -13 39c-24 31 -79 49 -150 49
c-72 0 -127 -18 -154 -47c-11 -12 -15 -25 -15 -41c0 -15 3 -29 13 -41c26 -30 84 -46 156 -46c71 0 126 15 150 46c9 11 13 26 13 41zM395 588l80 206h358l-120 -206h-318z" />
    <glyph glyph-name="ograve" unicode="&#xf2;" horiz-adv-x="1107" 
d="M1082 278c0 -59 -19 -108 -54 -147c-86 -100 -266 -142 -471 -142c-253 0 -406 55 -480 142c-35 42 -52 92 -52 147c0 53 18 102 54 144c77 91 237 150 478 150c219 0 386 -48 468 -141c37 -42 57 -93 57 -153zM721 279c0 14 -2 25 -13 39c-24 31 -79 49 -150 49
c-72 0 -127 -18 -154 -47c-11 -12 -15 -25 -15 -41c0 -15 3 -29 13 -41c26 -30 84 -46 156 -46c71 0 126 15 150 46c9 11 13 26 13 41zM713 588h-318l-120 206h358z" />
    <glyph glyph-name="ocircumflex" unicode="&#xf4;" horiz-adv-x="1107" 
d="M1082 278c0 -59 -19 -108 -54 -147c-86 -100 -266 -142 -471 -142c-253 0 -406 55 -480 142c-35 42 -52 92 -52 147c0 53 18 102 54 144c77 91 237 150 478 150c219 0 386 -48 468 -141c37 -42 57 -93 57 -153zM721 279c0 14 -2 25 -13 39c-24 31 -79 49 -150 49
c-72 0 -127 -18 -154 -47c-11 -12 -15 -25 -15 -41c0 -15 3 -29 13 -41c26 -30 84 -46 156 -46c71 0 126 15 150 46c9 11 13 26 13 41zM844 595h-258l-34 62l-34 -62h-258l126 199h332z" />
    <glyph glyph-name="odieresis" unicode="&#xf6;" horiz-adv-x="1107" 
d="M1082 278c0 -59 -19 -108 -54 -147c-86 -100 -266 -142 -471 -142c-253 0 -406 55 -480 142c-35 42 -52 92 -52 147c0 53 18 102 54 144c77 91 237 150 478 150c219 0 386 -48 468 -141c37 -42 57 -93 57 -153zM721 279c0 14 -2 25 -13 39c-24 31 -79 49 -150 49
c-72 0 -127 -18 -154 -47c-11 -12 -15 -25 -15 -41c0 -15 3 -29 13 -41c26 -30 84 -46 156 -46c71 0 126 15 150 46c9 11 13 26 13 41zM836 596h-248v197h248v-197zM519 596h-249v197h249v-197z" />
    <glyph glyph-name="otilde" unicode="&#xf5;" horiz-adv-x="1107" 
d="M1082 278c0 -59 -19 -108 -54 -147c-86 -100 -266 -142 -471 -142c-253 0 -406 55 -480 142c-35 42 -52 92 -52 147c0 53 18 102 54 144c77 91 237 150 478 150c219 0 386 -48 468 -141c37 -42 57 -93 57 -153zM721 279c0 14 -2 25 -13 39c-24 31 -79 49 -150 49
c-72 0 -127 -18 -154 -47c-11 -12 -15 -25 -15 -41c0 -15 3 -29 13 -41c26 -30 84 -46 156 -46c71 0 126 15 150 46c9 11 13 26 13 41zM597 599c-32 12 -74 29 -89 29c-18 0 -31 -13 -31 -32h-216c0 142 47 207 169 207c51 0 82 -9 112 -21c20 -8 37 -14 52 -14
c21 0 31 1 33 25h212c0 -168 -66 -210 -133 -210c-49 0 -71 2 -109 16z" />
    <glyph glyph-name="uacute" unicode="&#xfa;" horiz-adv-x="1068" 
d="M995 0c0 0 -3 49 -3 81v469h-363v-232c0 -59 -46 -97 -111 -97c-34 0 -96 13 -96 92c0 180 -4 237 -16 237c12 0 -367 0 -367 0c13 -15 17 -11 17 -327c0 -213 148 -238 290 -238c139 0 239 30 294 118l9 -103h346zM349 588l80 206h358l-120 -206h-318z" />
    <glyph glyph-name="ugrave" unicode="&#xf9;" horiz-adv-x="1068" 
d="M995 0c0 0 -3 49 -3 81v469h-363v-232c0 -59 -46 -97 -111 -97c-34 0 -96 13 -96 92c0 180 -4 237 -16 237c12 0 -367 0 -367 0c13 -15 17 -11 17 -327c0 -213 148 -238 290 -238c139 0 239 30 294 118l9 -103h346zM685 588h-318l-120 206h358z" />
    <glyph glyph-name="ucircumflex" unicode="&#xfb;" horiz-adv-x="1068" 
d="M995 0c0 0 -3 49 -3 81v469h-363v-232c0 -59 -46 -97 -111 -97c-34 0 -96 13 -96 92c0 180 -4 237 -16 237c12 0 -367 0 -367 0c13 -15 17 -11 17 -327c0 -213 148 -238 290 -238c139 0 239 30 294 118l9 -103h346zM814 595h-258l-34 62l-34 -62h-258l126 199h332z" />
    <glyph glyph-name="udieresis" unicode="&#xfc;" horiz-adv-x="1068" 
d="M995 0c0 0 -3 49 -3 81v469h-363v-232c0 -59 -46 -97 -111 -97c-34 0 -96 13 -96 92c0 180 -4 237 -16 237c12 0 -367 0 -367 0c13 -15 17 -11 17 -327c0 -213 148 -238 290 -238c139 0 239 30 294 118l9 -103h346zM808 596h-248v197h248v-197zM491 596h-249v197h249
v-197z" />
    <glyph glyph-name="dagger" unicode="&#x2020;" horiz-adv-x="1066" 
d="M1046 288h-318v-242l-204 -231l-196 231v242h-308v281h308v225h400v-225h318v-281z" />
    <glyph glyph-name="degree" unicode="&#xb0;" horiz-adv-x="538" 
d="M270 800c137 0 249 -101 249 -239c0 -139 -112 -240 -249 -240c-139 0 -250 101 -250 240c0 138 111 239 250 239zM270 623c-33 0 -62 -29 -62 -60c0 -36 29 -61 62 -61c34 0 60 25 60 61c0 31 -26 60 -60 60z" />
    <glyph glyph-name="cent" unicode="&#xa2;" horiz-adv-x="1014" 
d="M401 683v129h228v-129c174 -15 279 -70 334 -156c23 -35 38 -76 45 -122h-341c0 6 0 19 -7 30c-21 36 -76 50 -140 50c-67 0 -118 -15 -145 -46c-8 -9 -16 -26 -16 -43s4 -35 14 -47c25 -31 71 -47 138 -47c64 0 105 6 131 27c9 8 18 21 20 30h345
c-1 -38 -16 -77 -46 -113c-57 -68 -165 -124 -332 -140v-196h-228v197c-166 14 -283 57 -348 129c-38 42 -58 94 -58 155s21 114 59 157c67 74 188 120 347 135z" />
    <glyph glyph-name="sterling" unicode="&#xa3;" horiz-adv-x="1122" 
d="M119 433c-22 24 -43 51 -43 91v38c0 122 122 232 495 232c376 0 477 -139 495 -294c1 -11 1 -21 2 -32h-397v21c0 27 -29 56 -82 56s-79 -24 -82 -52c-1 -9 0 -25 0 -30c1 -11 3 -21 7 -30h450v-140h-431c-6 -10 -14 -19 -25 -27c-12 -10 -27 -18 -46 -24h623v-242h-1027
v258c22 0 41 3 56 8c22 6 37 16 47 27h-107v140s66 0 65 0z" />
    <glyph glyph-name="section" unicode="&#xa7;" horiz-adv-x="919" 
d="M68 481c28 39 79 67 124 81c-37 16 -57 42 -62 76c-1 5 -1 11 -1 17c0 104 193 139 330 139c141 0 284 -17 306 -113c2 -12 7 -25 6 -39h-290v25c0 12 -6 17 -18 17s-18 -3 -20 -12v-5c0 -15 6 -35 141 -55c6 -1 13 -2 20 -3c184 -24 211 -82 211 -121
c0 -61 -43 -90 -91 -108c-24 -8 -48 -14 -70 -19c148 -26 226 -82 239 -152c1 -7 2 -14 2 -21c0 -120 -149 -200 -432 -200c-211 0 -383 43 -426 166c-4 11 -7 24 -9 37h423v-25c0 -23 6 -31 32 -31c22 0 28 7 29 19v5c0 18 -22 35 -80 44c-20 3 -170 31 -193 35
c-130 25 -193 89 -193 173c0 24 7 49 22 70zM424 421c6 -3 13 -5 20 -5c21 0 37 16 37 35c0 8 -3 16 -8 22c-6 8 -17 13 -29 13c-22 0 -39 -15 -39 -35c0 -13 8 -24 19 -30z" />
    <glyph glyph-name="bullet" unicode="&#x2022;" horiz-adv-x="711" 
d="M355 51c-173 0 -316 133 -316 306c0 175 143 307 316 307c175 0 317 -132 317 -307c0 -173 -142 -306 -317 -306z" />
    <glyph glyph-name="paragraph" unicode="&#xb6;" horiz-adv-x="1098" 
d="M1013 780v-936h-100v810h-48v-810h-101v366c-36 -32 -152 -88 -286 -88c-256 0 -347 96 -395 209c-17 40 -23 85 -23 132c0 48 11 95 32 137c53 103 169 185 376 185c161 0 246 -43 296 -74v69h249zM756 488c-9 36 -49 76 -161 76c-46 0 -91 -8 -123 -30
c-21 -15 -42 -40 -42 -74c0 -38 16 -62 42 -80s70 -26 123 -26c99 0 155 32 161 80v54z" />
    <glyph glyph-name="germandbls" unicode="&#xdf;" horiz-adv-x="1494" 
d="M530 584c-37 0 -48 -26 -48 -59v-525h-369v287h-101v263h101v10c0 174 164 242 447 242c288 0 409 -112 409 -216c0 -89 -85 -110 -85 -134c0 -34 41 -36 123 -40c54 -3 123 -8 201 -14c178 -13 280 -76 280 -207c0 -132 -143 -203 -455 -203c-321 0 -452 75 -504 201
c-8 20 -8 18 -10 34h375c2 -14 2 -11 11 -21c17 -20 52 -20 122 -20c94 0 104 2 104 20c0 13 -23 16 -88 21c-28 2 -189 17 -286 24c-130 9 -226 25 -226 130c0 63 43 104 43 151c0 28 -13 56 -44 56z" />
    <glyph glyph-name="registered" unicode="&#xae;" horiz-adv-x="1413" 
d="M1353 206c0 -198 -250 -359 -646 -359c-404 0 -646 146 -646 359v245c0 215 263 349 646 349c382 0 646 -145 646 -349v-245zM1290 222v213c0 181 -266 306 -583 306c-318 0 -583 -112 -583 -306v-213c0 -192 270 -317 583 -317c326 0 583 134 583 317zM1134 38h-342
l-105 193h-68v-193h-315v584h516c110 0 179 -23 222 -54c52 -38 65 -90 65 -130c0 -62 -20 -101 -47 -127c-22 -21 -47 -33 -70 -42zM798 402c0 28 -21 40 -46 40h-133v-95h128c32 0 51 9 51 36v19z" />
    <glyph glyph-name="copyright" unicode="&#xa9;" horiz-adv-x="1413" 
d="M1353 166c0 -198 -250 -319 -646 -319c-404 0 -646 106 -646 319v315c0 215 263 319 646 319c382 0 646 -115 646 -319v-315zM1290 182v283c0 181 -266 276 -583 276c-318 0 -583 -82 -583 -276v-283c0 -192 270 -277 583 -277c326 0 583 94 583 277zM1181 295
c0 -20 -10 -67 -16 -89c-28 -110 -186 -204 -458 -204c-242 0 -363 59 -424 145c-37 52 -46 116 -46 180c0 70 10 124 39 170c57 90 176 143 429 143c326 0 434 -101 459 -193c6 -20 15 -60 15 -88h-385c0 16 -2 23 -5 35c-6 22 -25 42 -72 42c-61 0 -89 -30 -89 -87v-47
c0 -71 33 -91 85 -91s73 16 80 47c2 9 4 20 4 37h384z" />
    <glyph glyph-name="trademark" unicode="&#x2122;" horiz-adv-x="1659" 
d="M1299 437v127c0 20 -5 33 -21 33c-17 0 -24 -20 -24 -46v-114h-311v127c0 20 -6 33 -23 33c-18 0 -24 -21 -24 -46v-114h-313v344h313v-46c17 29 97 51 193 51c90 0 118 -10 143 -51c33 35 81 51 179 51c149 0 219 -79 219 -140v-209h-331zM545 618h-149v-14
c0 -9 13 -19 53 -19c21 0 39 0 53 2v-148c-30 -8 -101 -13 -162 -13c-127 0 -200 39 -200 131v61h-135v163h540v-163z" />
    <glyph glyph-name="acute" unicode="&#xb4;" horiz-adv-x="586" 
d="M135 588l80 206h358l-120 -206h-318z" />
    <glyph glyph-name="dieresis" unicode="&#xa8;" horiz-adv-x="586" 
d="M576 596h-248v197h248v-197zM259 596h-249v197h249v-197z" />
    <glyph glyph-name="notequal" unicode="&#x2260;" horiz-adv-x="908" 
d="M871 79h-568l-41 -52h-120l41 52h-146v246s340 0 339 0l35 45c1 0 -374 0 -374 0v247h569l65 82h119l-65 -82h146v-247h-340l-35 -45h375v-246z" />
    <glyph glyph-name="AE" unicode="&#xc6;" horiz-adv-x="1846" 
d="M1789 781v-238h-625v-43h608v-221h-608v-44h634v-235h-1002v93h-335l-92 -93h-413l807 781h1026zM796 435l-47 -59l-83 -78h130v137z" />
    <glyph glyph-name="Oslash" unicode="&#xd8;" 
d="M1165 711c38 -20 71 -45 98 -73c60 -62 91 -143 91 -242c0 -102 -31 -183 -90 -246c-107 -111 -303 -162 -573 -162c-126 0 -236 12 -329 36l-61 -52h-218l129 110c-37 21 -69 46 -96 74c-57 62 -88 141 -88 242c0 89 31 166 89 227c109 117 313 178 574 178
c123 0 232 -12 324 -35l35 30h216zM464 297l283 242c-18 1 -37 2 -58 2c-150 0 -234 -45 -261 -93c-9 -17 -13 -35 -13 -54c0 -24 8 -48 19 -65c7 -11 17 -22 30 -32zM909 492l-284 -243c19 -1 41 -2 64 -2c162 0 242 43 268 98c7 14 10 32 10 49c0 18 -1 36 -12 54
c-10 15 -25 31 -46 44z" />
    <glyph glyph-name="infinity" unicode="&#x221e;" horiz-adv-x="1058" 
d="M1028 377c0 -108 -71 -186 -299 -186c-91 0 -147 19 -190 46c-48 -27 -121 -46 -224 -46c-208 0 -285 71 -285 179c0 113 87 185 281 185c94 0 162 -25 202 -54c46 29 117 54 208 54c232 0 307 -65 307 -178zM773 377c0 33 -19 55 -52 55c-39 0 -59 -42 -86 -91
c17 -14 33 -22 63 -22c46 0 75 25 75 58zM328 319c34 0 55 33 80 75c-17 21 -37 36 -68 36c-35 0 -55 -27 -55 -60c0 -31 14 -51 43 -51z" />
    <glyph glyph-name="plusminus" unicode="&#xb1;" horiz-adv-x="949" 
d="M889 406h-286v-148h-256v148h-287v207h284v147h260v-147h285v-207zM889 11h-829v222h829v-222z" />
    <glyph glyph-name="lessequal" unicode="&#x2264;" horiz-adv-x="949" 
d="M889 252l-829 157v209l829 158v-226l-488 -36l488 -36v-226zM889 11h-829v222h829v-222z" />
    <glyph glyph-name="greaterequal" unicode="&#x2265;" horiz-adv-x="949" 
d="M889 409l-829 -157v226l488 36l-488 36v226l829 -158v-209zM889 11h-829v222h829v-222z" />
    <glyph glyph-name="yen" unicode="&#xa5;" horiz-adv-x="1420" 
d="M519 155h-436v88h436v15l-518 523h446l266 -269l266 269h437l-518 -523v-15h435v-88h-435v-29h435v-88h-435v-38h-379v38h-436v88h436v29z" />
    <glyph glyph-name="mu" unicode="&#xb5;" horiz-adv-x="1091" 
d="M1031 0h-346l-9 103c-29 -46 -62 -73 -109 -90c-30 -11 -65 -19 -109 -25v-174h-383v736h367c12 0 16 -57 16 -237c0 -79 62 -92 96 -92c65 0 111 38 111 97v232h363v-469c0 -32 3 -81 3 -81z" />
    <glyph glyph-name="mu" unicode="&#x3bc;" horiz-adv-x="1091" 
d="M1031 0h-346l-9 103c-29 -46 -62 -73 -109 -90c-30 -11 -65 -19 -109 -25v-174h-383v736h367c12 0 16 -57 16 -237c0 -79 62 -92 96 -92c65 0 111 38 111 97v232h363v-469c0 -32 3 -81 3 -81z" />
    <glyph glyph-name="partialdiff" unicode="&#x2202;" horiz-adv-x="793" 
d="M376 547l6 14h-382v220h793v-220h-381l7 -14c77 -12 137 -78 137 -157s-60 -145 -138 -156l-7 -14h382v-220h-793v220h381l-7 14c-76 12 -135 77 -135 156s61 145 137 157zM659 670c16 5 39 11 51 13c28 5 -1 54 -20 27c-7 -11 -21 -27 -31 -40zM141 658
c-10 13 -24 29 -31 40c-19 27 -48 -22 -20 -27c12 -2 35 -8 51 -13zM412 475v-47l-16 -34l-14 34v47c-40 -8 -71 -43 -71 -85s30 -76 70 -84v47l15 33l15 -33v-47c40 7 72 42 72 84s-31 77 -71 85zM663 136c10 -13 24 -29 31 -40c19 -27 48 22 20 27c-12 2 -35 8 -51 13z
M123 122c-16 -5 -39 -11 -51 -13c-28 -5 1 -54 20 -27c7 11 21 27 31 40z" />
    <glyph glyph-name="summation" unicode="&#x2211;" horiz-adv-x="793" 
d="M376 547l6 14h-382v220h793v-220h-381l7 -14c77 -12 137 -78 137 -157s-60 -145 -138 -156l-7 -14h382v-220h-793v220h381l-7 14c-76 12 -135 77 -135 156s61 145 137 157zM659 670c16 5 39 11 51 13c28 5 -1 54 -20 27c-7 -11 -21 -27 -31 -40zM141 658
c-10 13 -24 29 -31 40c-19 27 -48 -22 -20 -27c12 -2 35 -8 51 -13zM412 475v-47l-16 -34l-14 34v47c-40 -8 -71 -43 -71 -85s30 -76 70 -84v47l15 33l15 -33v-47c40 7 72 42 72 84s-31 77 -71 85zM663 136c10 -13 24 -29 31 -40c19 -27 48 22 20 27c-12 2 -35 8 -51 13z
M123 122c-16 -5 -39 -11 -51 -13c-28 -5 1 -54 20 -27c7 11 21 27 31 40z" />
    <glyph glyph-name="product" unicode="&#x220f;" horiz-adv-x="793" 
d="M376 547l6 14h-382v220h793v-220h-381l7 -14c77 -12 137 -78 137 -157s-60 -145 -138 -156l-7 -14h382v-220h-793v220h381l-7 14c-76 12 -135 77 -135 156s61 145 137 157zM659 670c16 5 39 11 51 13c28 5 -1 54 -20 27c-7 -11 -21 -27 -31 -40zM141 658
c-10 13 -24 29 -31 40c-19 27 -48 -22 -20 -27c12 -2 35 -8 51 -13zM412 475v-47l-16 -34l-14 34v47c-40 -8 -71 -43 -71 -85s30 -76 70 -84v47l15 33l15 -33v-47c40 7 72 42 72 84s-31 77 -71 85zM663 136c10 -13 24 -29 31 -40c19 -27 48 22 20 27c-12 2 -35 8 -51 13z
M123 122c-16 -5 -39 -11 -51 -13c-28 -5 1 -54 20 -27c7 11 21 27 31 40z" />
    <glyph glyph-name="pi" unicode="&#x3c0;" horiz-adv-x="1413" 
d="M1353 206c0 -198 -250 -359 -646 -359c-404 0 -646 146 -646 359v245c0 215 263 349 646 349c382 0 646 -145 646 -349v-245zM1290 222v213c0 181 -266 306 -583 306c-318 0 -583 -112 -583 -306v-213c0 -192 270 -317 583 -317c326 0 583 134 583 317zM619 192v-154
h-315v584h516c110 0 179 -25 222 -59c52 -42 65 -99 65 -155c0 -57 -15 -126 -53 -158c-40 -34 -132 -58 -199 -58h-236zM798 383v19c0 28 -21 40 -46 40h-133v-95h128c32 0 51 9 51 36z" />
    <glyph glyph-name="integral" unicode="&#x222b;" horiz-adv-x="793" 
d="M376 547l6 14h-382v220h793v-220h-381l7 -14c77 -12 137 -78 137 -157s-60 -145 -138 -156l-7 -14h382v-220h-793v220h381l-7 14c-76 12 -135 77 -135 156s61 145 137 157zM659 670c16 5 39 11 51 13c28 5 -1 54 -20 27c-7 -11 -21 -27 -31 -40zM141 658
c-10 13 -24 29 -31 40c-19 27 -48 -22 -20 -27c12 -2 35 -8 51 -13zM412 475v-47l-16 -34l-14 34v47c-40 -8 -71 -43 -71 -85s30 -76 70 -84v47l15 33l15 -33v-47c40 7 72 42 72 84s-31 77 -71 85zM663 136c10 -13 24 -29 31 -40c19 -27 48 22 20 27c-12 2 -35 8 -51 13z
M123 122c-16 -5 -39 -11 -51 -13c-28 -5 1 -54 20 -27c7 11 21 27 31 40z" />
    <glyph glyph-name="ordfeminine" unicode="&#xaa;" horiz-adv-x="851" 
d="M815 227h-311s-18 41 -16 59c-41 -29 -108 -58 -234 -58c-120 0 -215 42 -233 110c-8 30 -7 77 5 100c34 64 141 91 256 109c64 11 129 16 177 18c1 18 0 33 -1 44c-3 23 -19 32 -38 32s-33 -9 -39 -25c-3 -9 -4 -19 -4 -32h-324c2 17 5 33 10 48c37 109 164 180 374 180
c228 0 307 -68 344 -139c18 -34 20 -92 15 -147c-2 -23 -5 -85 -5 -143c0 -60 0 -130 24 -156zM822 120h-801v79h801v-79zM456 447c-9 -3 -30 -3 -47 -4c-51 -3 -57 -16 -57 -26c0 -9 3 -16 47 -16c31 0 50 13 55 30c1 2 3 14 2 16z" />
    <glyph glyph-name="ordmasculine" unicode="&#xba;" horiz-adv-x="830" 
d="M811 516c0 -70 -28 -133 -77 -182c-71 -71 -185 -114 -322 -114c-136 0 -248 43 -317 113c-48 50 -75 112 -75 183c0 75 31 141 86 192c70 64 178 104 308 104c137 0 251 -40 321 -111c49 -48 76 -112 76 -185zM803 120h-782v79h782v-79zM475 516c0 52 -1 87 -19 104
c-9 9 -23 13 -43 13c-16 0 -28 -4 -37 -11c-20 -18 -22 -54 -22 -106s4 -83 17 -101c10 -13 24 -18 45 -18s35 7 44 22c12 19 15 50 15 97z" />
    <glyph glyph-name="Omega" unicode="&#x3a9;" horiz-adv-x="793" 
d="M376 547l6 14h-382v220h793v-220h-381l7 -14c77 -12 137 -78 137 -157s-60 -145 -138 -156l-7 -14h382v-220h-793v220h381l-7 14c-76 12 -135 77 -135 156s61 145 137 157zM659 670c16 5 39 11 51 13c28 5 -1 54 -20 27c-7 -11 -21 -27 -31 -40zM141 658
c-10 13 -24 29 -31 40c-19 27 -48 -22 -20 -27c12 -2 35 -8 51 -13zM412 475v-47l-16 -34l-14 34v47c-40 -8 -71 -43 -71 -85s30 -76 70 -84v47l15 33l15 -33v-47c40 7 72 42 72 84s-31 77 -71 85zM663 136c10 -13 24 -29 31 -40c19 -27 48 22 20 27c-12 2 -35 8 -51 13z
M123 122c-16 -5 -39 -11 -51 -13c-28 -5 1 -54 20 -27c7 11 21 27 31 40z" />
    <glyph glyph-name="Omega" unicode="&#x2126;" horiz-adv-x="793" 
d="M376 547l6 14h-382v220h793v-220h-381l7 -14c77 -12 137 -78 137 -157s-60 -145 -138 -156l-7 -14h382v-220h-793v220h381l-7 14c-76 12 -135 77 -135 156s61 145 137 157zM659 670c16 5 39 11 51 13c28 5 -1 54 -20 27c-7 -11 -21 -27 -31 -40zM141 658
c-10 13 -24 29 -31 40c-19 27 -48 -22 -20 -27c12 -2 35 -8 51 -13zM412 475v-47l-16 -34l-14 34v47c-40 -8 -71 -43 -71 -85s30 -76 70 -84v47l15 33l15 -33v-47c40 7 72 42 72 84s-31 77 -71 85zM663 136c10 -13 24 -29 31 -40c19 -27 48 22 20 27c-12 2 -35 8 -51 13z
M123 122c-16 -5 -39 -11 -51 -13c-28 -5 1 -54 20 -27c7 11 21 27 31 40z" />
    <glyph glyph-name="ae" unicode="&#xe6;" horiz-adv-x="1704" 
d="M771 73c-149 -76 -272 -85 -438 -85c-192 0 -304 57 -304 149v15c0 100 133 172 423 172c62 0 132 -5 209 -13c-5 20 -19 37 -40 46c-21 10 -47 15 -81 15c-30 0 -65 -3 -87 -9c-15 -4 -27 -14 -34 -21h-350c6 25 15 47 33 77c71 119 260 153 468 153
c173 0 279 -47 300 -89c21 46 116 89 300 89c289 0 481 -107 508 -283c2 -11 3 -61 3 -71h-679c3 -12 10 -21 27 -36c24 -22 84 -34 137 -34c51 0 106 8 130 26c5 4 13 11 14 15h370c-5 -13 -10 -22 -18 -36c-44 -79 -200 -165 -497 -165c-211 0 -360 55 -394 85zM1315 343
c0 10 -6 21 -22 32c-27 18 -70 31 -127 31c-60 0 -105 -14 -131 -31c-14 -9 -27 -22 -28 -32h308zM673 208c-52 6 -98 9 -135 9c-72 0 -116 -10 -131 -26c-5 -6 -7 -12 -7 -18c0 -7 2 -12 7 -17c15 -14 52 -19 105 -19c36 0 73 7 95 13c28 7 48 15 62 32c4 5 4 22 4 26z" />
    <glyph glyph-name="oslash" unicode="&#xf8;" horiz-adv-x="1105" 
d="M148 71c-29 18 -53 38 -72 60c-35 42 -52 92 -52 147c0 53 18 102 54 144c77 91 237 150 478 150c113 0 212 -13 293 -38l47 31h187s-121 -81 -122 -81c25 -16 46 -33 63 -53c37 -42 57 -93 57 -153c0 -59 -19 -108 -54 -147c-86 -100 -266 -142 -471 -142
c-116 0 -210 11 -286 32l-48 -32h-198zM407 230l214 133c-19 3 -51 4 -64 4c-72 0 -127 -18 -154 -47c-11 -12 -15 -25 -15 -41c0 -13 6 -31 19 -49zM703 323l-198 -126c22 -3 42 -5 52 -5c71 0 126 15 150 46c9 11 13 26 13 41c0 13 -8 31 -17 44z" />
    <glyph glyph-name="questiondown" unicode="&#xbf;" horiz-adv-x="1031" 
d="M409 792h377v-296h-377v296zM25 253c0 199 384 167 384 211h377c0 -160 -305 -154 -308 -183c-1 -6 -1 -12 0 -16c5 -15 17 -29 70 -29c54 0 68 24 68 43v15h402c0 -15 -3 -45 -6 -71c-14 -125 -147 -231 -498 -231c-353 0 -489 73 -489 224v37z" />
    <glyph glyph-name="exclamdown" unicode="&#xa1;" horiz-adv-x="518" 
d="M68 792h376v-296h-376v296zM11 -1l61 453h371l57 -453h-489z" />
    <glyph glyph-name="logicalnot" unicode="&#xac;" horiz-adv-x="793" 
d="M376 547l6 14h-382v220h793v-220h-381l7 -14c77 -12 137 -78 137 -157s-60 -145 -138 -156l-7 -14h382v-220h-793v220h381l-7 14c-76 12 -135 77 -135 156s61 145 137 157zM659 670c16 5 39 11 51 13c28 5 -1 54 -20 27c-7 -11 -21 -27 -31 -40zM141 658
c-10 13 -24 29 -31 40c-19 27 -48 -22 -20 -27c12 -2 35 -8 51 -13zM412 475v-47l-16 -34l-14 34v47c-40 -8 -71 -43 -71 -85s30 -76 70 -84v47l15 33l15 -33v-47c40 7 72 42 72 84s-31 77 -71 85zM663 136c10 -13 24 -29 31 -40c19 -27 48 22 20 27c-12 2 -35 8 -51 13z
M123 122c-16 -5 -39 -11 -51 -13c-28 -5 1 -54 20 -27c7 11 21 27 31 40z" />
    <glyph glyph-name="radical" unicode="&#x221a;" horiz-adv-x="1257" 
d="M1244 782l-596 -812h-307l-328 352h416l64 -68l379 528h372z" />
    <glyph glyph-name="florin" unicode="&#x192;" horiz-adv-x="714" 
d="M451 -29c-25 -166 -115 -233 -300 -233c-104 0 -188 11 -227 17v234c12 -1 49 -5 67 -5c34 0 68 14 73 49c3 18 10 138 36 305h-74l2 258h109l5 29c20 132 132 190 327 190c104 0 181 -11 220 -17v-204c-12 1 -82 10 -100 10c-33 0 -65 4 -69 -24l-3 -15h160v-227h-185
c-9 -58 -35 -332 -41 -367z" />
    <glyph glyph-name="approxequal" unicode="&#x2248;" horiz-adv-x="1065" 
d="M1026 697c13 -203 -84 -329 -264 -329c-77 0 -138 17 -189 37c-78 31 -135 69 -194 69c-44 0 -62 -26 -62 -71h-279c-13 203 84 334 264 334c104 0 179 -34 243 -64c52 -24 95 -47 140 -47c44 0 62 26 62 71h279zM1026 342c13 -203 -84 -329 -264 -329
c-77 0 -138 17 -189 37c-78 31 -135 69 -194 69c-44 0 -62 -26 -62 -71h-279c-13 203 84 334 264 334c104 0 179 -34 243 -64c52 -24 95 -47 140 -47c44 0 62 26 62 71h279z" />
    <glyph glyph-name="Delta" unicode="&#x394;" horiz-adv-x="793" 
d="M376 547l6 14h-382v220h793v-220h-381l7 -14c77 -12 137 -78 137 -157s-60 -145 -138 -156l-7 -14h382v-220h-793v220h381l-7 14c-76 12 -135 77 -135 156s61 145 137 157zM659 670c16 5 39 11 51 13c28 5 -1 54 -20 27c-7 -11 -21 -27 -31 -40zM141 658
c-10 13 -24 29 -31 40c-19 27 -48 -22 -20 -27c12 -2 35 -8 51 -13zM412 475v-47l-16 -34l-14 34v47c-40 -8 -71 -43 -71 -85s30 -76 70 -84v47l15 33l15 -33v-47c40 7 72 42 72 84s-31 77 -71 85zM663 136c10 -13 24 -29 31 -40c19 -27 48 22 20 27c-12 2 -35 8 -51 13z
M123 122c-16 -5 -39 -11 -51 -13c-28 -5 1 -54 20 -27c7 11 21 27 31 40z" />
    <glyph glyph-name="Delta" unicode="&#x2206;" horiz-adv-x="793" 
d="M376 547l6 14h-382v220h793v-220h-381l7 -14c77 -12 137 -78 137 -157s-60 -145 -138 -156l-7 -14h382v-220h-793v220h381l-7 14c-76 12 -135 77 -135 156s61 145 137 157zM659 670c16 5 39 11 51 13c28 5 -1 54 -20 27c-7 -11 -21 -27 -31 -40zM141 658
c-10 13 -24 29 -31 40c-19 27 -48 -22 -20 -27c12 -2 35 -8 51 -13zM412 475v-47l-16 -34l-14 34v47c-40 -8 -71 -43 -71 -85s30 -76 70 -84v47l15 33l15 -33v-47c40 7 72 42 72 84s-31 77 -71 85zM663 136c10 -13 24 -29 31 -40c19 -27 48 22 20 27c-12 2 -35 8 -51 13z
M123 122c-16 -5 -39 -11 -51 -13c-28 -5 1 -54 20 -27c7 11 21 27 31 40z" />
    <glyph glyph-name="guillemotleft" unicode="&#xab;" horiz-adv-x="1065" 
d="M1043 34l-495 223v205l495 215v-266l-167 -51l167 -60v-266zM509 34l-495 223v205l495 215v-266l-168 -51l168 -60v-266z" />
    <glyph glyph-name="guillemotright" unicode="&#xbb;" horiz-adv-x="1065" 
d="M558 34v266l147 60l-147 51v266l495 -215v-205zM23 34v266l148 60l-148 51v266l496 -215v-205z" />
    <glyph glyph-name="ellipsis" unicode="&#x2026;" horiz-adv-x="1535" 
d="M1486 0h-406v332h406v-332zM975 0h-407v332h407v-332zM463 0h-406v332h406v-332z" />
    <glyph glyph-name="Agrave" unicode="&#xc0;" horiz-adv-x="1442" 
d="M454 93l-62 -93h-406l534 781h434l499 -781h-414l-60 93h-525zM855 298l-97 151l-36 59l-40 -60l-98 -150h271zM881 818h-318l-120 206h358z" />
    <glyph glyph-name="Atilde" unicode="&#xc3;" horiz-adv-x="1442" 
d="M454 93l-62 -93h-406l534 781h434l499 -781h-414l-60 93h-525zM855 298l-97 151l-36 59l-40 -60l-98 -150h271zM768 829c-32 12 -74 29 -89 29c-18 0 -31 -13 -31 -32h-216c0 142 47 207 169 207c51 0 82 -9 112 -21c20 -8 37 -14 52 -14c21 0 31 1 33 25h212
c0 -168 -66 -210 -133 -210c-49 0 -71 2 -109 16z" />
    <glyph glyph-name="Otilde" unicode="&#xd5;" 
d="M691 803c265 0 464 -54 572 -165c60 -62 91 -143 91 -242c0 -102 -31 -183 -90 -246c-107 -111 -303 -162 -573 -162c-268 0 -468 53 -575 168c-57 62 -88 141 -88 242c0 89 31 166 89 227c109 117 313 178 574 178zM689 247c162 0 242 43 268 98c7 14 10 32 10 49
c0 18 -2 40 -14 58c-30 45 -104 89 -264 89c-150 0 -234 -45 -261 -93c-9 -17 -13 -35 -13 -54c0 -24 8 -48 19 -65c31 -48 106 -82 255 -82zM738 829c-32 12 -74 29 -89 29c-18 0 -31 -13 -31 -32h-216c0 142 47 207 169 207c51 0 82 -9 112 -21c20 -8 37 -14 52 -14
c21 0 31 1 33 25h212c0 -168 -66 -210 -133 -210c-49 0 -71 2 -109 16z" />
    <glyph glyph-name="OE" unicode="&#x152;" horiz-adv-x="1998" 
d="M944 781h997v-238h-625v-43h608v-221h-608v-44h634v-235h-1006v45c-47 -24 -178 -57 -322 -57c-202 0 -399 53 -506 168c-57 62 -88 141 -88 242c0 89 31 166 89 227c109 117 298 178 511 178c112 0 249 -18 316 -71v49zM689 247c162 0 242 43 268 98c7 14 10 32 10 49
c0 18 -1 36 -12 54c-30 47 -106 93 -266 93c-150 0 -234 -45 -261 -93c-9 -17 -13 -35 -13 -54c0 -24 8 -48 19 -65c31 -48 106 -82 255 -82z" />
    <glyph glyph-name="oe" unicode="&#x153;" horiz-adv-x="1761" 
d="M556 -11c-253 0 -406 55 -480 142c-35 42 -52 92 -52 147c0 53 18 102 54 144c77 91 237 150 478 150c174 0 287 -45 347 -84c55 44 141 84 325 84c289 0 481 -107 508 -283c2 -11 3 -61 3 -71h-679c3 -12 10 -21 27 -36c24 -22 84 -34 137 -34c51 0 106 8 130 26
c5 4 13 11 14 15h370c-5 -13 -10 -22 -18 -36c-44 -79 -204 -165 -497 -165c-174 0 -265 44 -331 83c-56 -34 -182 -82 -336 -82zM1373 343c0 10 -6 21 -22 32c-27 18 -70 31 -127 31c-60 0 -105 -14 -131 -31c-14 -9 -27 -22 -28 -32h308zM720 279c0 14 -2 25 -13 39
c-24 31 -79 49 -150 49c-72 0 -127 -18 -154 -47c-11 -12 -15 -25 -15 -41c0 -15 3 -29 13 -41c26 -30 84 -46 156 -46c71 0 126 15 150 46c9 11 13 26 13 41z" />
    <glyph glyph-name="endash" unicode="&#x2013;" horiz-adv-x="808" 
d="M768 172h-728v277h728v-277z" />
    <glyph glyph-name="emdash" unicode="&#x2014;" horiz-adv-x="998" 
d="M958 172h-918v277h918v-277z" />
    <glyph glyph-name="quotedblleft" unicode="&#x201c;" horiz-adv-x="1092" 
d="M992 535v-343h-404v329l281 279l181 -140l-137 -135l32 11zM492 536v-344h-404v329l281 279l181 -140l-138 -135l33 11h47z" />
    <glyph glyph-name="quotedblright" unicode="&#x201d;" horiz-adv-x="1092" 
d="M600 456v344h404v-329l-281 -279l-181 139l138 136l-34 -11h-46zM100 456v344h404v-329l-281 -279l-181 139l137 136l-33 -11h-46z" />
    <glyph glyph-name="quoteleft" unicode="&#x2018;" horiz-adv-x="604" 
d="M532 570v-378h-444v362l281 246l181 -140l-106 -102l37 12h51z" />
    <glyph glyph-name="quoteright" unicode="&#x2019;" horiz-adv-x="604" 
d="M72 422v378h445v-362l-282 -246l-180 139l105 103l-37 -12h-51z" />
    <glyph glyph-name="divide" unicode="&#xf7;" horiz-adv-x="989" 
d="M654 528h-310v180h310v-180zM929 226h-869v267h869v-267zM653 11h-306v180h306v-180z" />
    <glyph glyph-name="lozenge" unicode="&#x25ca;" horiz-adv-x="1365" 
d="M1335 320l-480 -320h-345l-480 320l480 320h345zM868 320l-184 113l-184 -113l184 -124z" />
    <glyph glyph-name="ydieresis" unicode="&#xff;" horiz-adv-x="1078" 
d="M1073 550l-437 -736h-391l106 175l-349 561h382l164 -287l148 287h377zM822 596h-248v197h248v-197zM505 596h-249v197h249v-197z" />
    <glyph glyph-name="Ydieresis" unicode="&#x178;" horiz-adv-x="1420" 
d="M1416 781l-518 -523v-258h-379v258l-518 523h446l266 -269l266 269h437zM993 826h-248v197h248v-197zM676 826h-249v197h249v-197z" />
    <glyph glyph-name="fraction" unicode="&#x2044;" horiz-adv-x="352" 
d="M557 781l-613 -781h-120l614 781h119z" />
    <glyph glyph-name="fraction" unicode="&#x2215;" horiz-adv-x="352" 
d="M557 781l-613 -781h-120l614 781h119z" />
    <glyph glyph-name="currency" unicode="&#xa4;" horiz-adv-x="1192" 
d="M106 497c52 171 231 297 521 297c316 0 503 -155 532 -345c1 -4 2 -9 2 -11h-412c0 1 0 4 -1 8c-11 69 -45 102 -119 102c-58 0 -92 -17 -110 -51h189v-88h-208v-29h208v-88h-192c20 -45 59 -63 111 -63c74 0 111 38 121 104c0 1 1 5 1 7h412c0 -2 -1 -5 -1 -7
c-30 -198 -224 -345 -532 -345c-296 0 -479 122 -526 304h-97v88h85v11c0 5 0 12 1 18h-86v88h101z" />
    <glyph glyph-name="guilsinglleft" unicode="&#x2039;" horiz-adv-x="531" 
d="M509 34l-495 223v205l495 215v-266l-168 -51l168 -60v-266z" />
    <glyph glyph-name="guilsinglright" unicode="&#x203a;" horiz-adv-x="531" 
d="M22 34v266l168 60l-168 51v266l496 -215v-205z" />
    <glyph glyph-name="daggerdbl" unicode="&#x2021;" horiz-adv-x="1066" 
d="M730 379h299v-218h-291v-120l-199 -226l-191 225v121h-311v218h321v41h-321v218h311v156h390v-156h291v-218h-299v-41z" />
    <glyph glyph-name="periodcentered" unicode="&#xb7;" horiz-adv-x="504" 
d="M442 234h-376v331h376v-331z" />
    <glyph glyph-name="periodcentered" unicode="&#x2219;" horiz-adv-x="504" 
d="M442 234h-376v331h376v-331z" />
    <glyph glyph-name="quotesinglbase" unicode="&#x201a;" horiz-adv-x="604" 
d="M72 0v378h445v-362l-282 -246l-180 139l105 103l-37 -12h-51z" />
    <glyph glyph-name="quotedblbase" unicode="&#x201e;" horiz-adv-x="1092" 
d="M600 0v344h404v-329l-281 -279l-181 139l138 136l-34 -11h-46zM100 0v344h404v-329l-281 -279l-181 139l137 136l-33 -11h-46z" />
    <glyph glyph-name="perthousand" unicode="&#x2030;" horiz-adv-x="2211" 
d="M2183 178c0 -101 -141 -194 -351 -194c-211 0 -335 93 -335 194v38c0 86 134 192 343 192c230 0 343 -112 343 -192v-38zM1442 178c0 -101 -141 -194 -351 -194c-211 0 -335 93 -335 194v38c0 86 134 192 343 192c230 0 343 -112 343 -192v-38zM716 567
c0 -100 -142 -193 -353 -193c-209 0 -332 93 -332 193v38c0 86 132 193 342 193c229 0 343 -112 343 -193v-38zM1138 781l-639 -781h-169l642 781h166zM455 574v16c0 10 -25 32 -80 32c-65 0 -83 -21 -83 -32v-16c0 -10 20 -27 85 -27c63 0 78 17 78 27zM1922 188v16
c0 6 -23 28 -80 28c-60 0 -83 -19 -83 -28v-16c0 -8 23 -32 83 -32c67 0 80 24 80 32zM1181 188v16c0 6 -23 28 -80 28c-60 0 -83 -19 -83 -28v-16c0 -8 23 -32 83 -32c67 0 80 24 80 32z" />
    <glyph glyph-name="Acircumflex" unicode="&#xc2;" horiz-adv-x="1442" 
d="M454 93l-62 -93h-406l534 781h434l499 -781h-414l-60 93h-525zM855 298l-97 151l-36 59l-40 -60l-98 -150h271zM1013 825h-258l-34 62l-34 -62h-258l126 199h332z" />
    <glyph glyph-name="Ecircumflex" unicode="&#xca;" horiz-adv-x="1127" 
d="M1080 0h-1006v781h997v-238h-625v-43h608v-221h-608v-44h634v-235zM855 825h-258l-34 62l-34 -62h-258l126 199h332z" />
    <glyph glyph-name="Aacute" unicode="&#xc1;" horiz-adv-x="1442" 
d="M454 93l-62 -93h-406l534 781h434l499 -781h-414l-60 93h-525zM855 298l-97 151l-36 59l-40 -60l-98 -150h271zM563 818l80 206h358l-120 -206h-318z" />
    <glyph glyph-name="Edieresis" unicode="&#xcb;" horiz-adv-x="1127" 
d="M1080 0h-1006v781h997v-238h-625v-43h608v-221h-608v-44h634v-235zM846 826h-248v197h248v-197zM529 826h-249v197h249v-197z" />
    <glyph glyph-name="Egrave" unicode="&#xc8;" horiz-adv-x="1127" 
d="M1080 0h-1006v781h997v-238h-625v-43h608v-221h-608v-44h634v-235zM723 818h-318l-120 206h358z" />
    <glyph glyph-name="Iacute" unicode="&#xcd;" horiz-adv-x="530" 
d="M463 0h-389v781h389v-781zM107 818l80 206h358l-120 -206h-318z" />
    <glyph glyph-name="Icircumflex" unicode="&#xce;" horiz-adv-x="530" 
d="M463 0h-389v781h389v-781zM557 825h-258l-34 62l-34 -62h-258l126 199h332z" />
    <glyph glyph-name="Idieresis" unicode="&#xcf;" horiz-adv-x="530" 
d="M463 0h-389v781h389v-781zM548 826h-248v197h248v-197zM231 826h-249v197h249v-197z" />
    <glyph glyph-name="Igrave" unicode="&#xcc;" horiz-adv-x="530" 
d="M463 0h-389v781h389v-781zM425 818h-318l-120 206h358z" />
    <glyph glyph-name="Oacute" unicode="&#xd3;" 
d="M691 803c265 0 464 -54 572 -165c60 -62 91 -143 91 -242c0 -102 -31 -183 -90 -246c-107 -111 -303 -162 -573 -162c-268 0 -468 53 -575 168c-57 62 -88 141 -88 242c0 89 31 166 89 227c109 117 313 178 574 178zM689 247c162 0 242 43 268 98c7 14 10 32 10 49
c0 18 -2 40 -14 58c-30 45 -104 89 -264 89c-150 0 -234 -45 -261 -93c-9 -17 -13 -35 -13 -54c0 -24 8 -48 19 -65c31 -48 106 -82 255 -82zM533 818l80 206h358l-120 -206h-318z" />
    <glyph glyph-name="Ocircumflex" unicode="&#xd4;" 
d="M691 803c265 0 464 -54 572 -165c60 -62 91 -143 91 -242c0 -102 -31 -183 -90 -246c-107 -111 -303 -162 -573 -162c-268 0 -468 53 -575 168c-57 62 -88 141 -88 242c0 89 31 166 89 227c109 117 313 178 574 178zM689 247c162 0 242 43 268 98c7 14 10 32 10 49
c0 18 -2 40 -14 58c-30 45 -104 89 -264 89c-150 0 -234 -45 -261 -93c-9 -17 -13 -35 -13 -54c0 -24 8 -48 19 -65c31 -48 106 -82 255 -82zM983 825h-258l-34 62l-34 -62h-258l126 199h332z" />
    <glyph glyph-name="apple" unicode="&#xf8ff;" horiz-adv-x="793" 
d="M376 547l6 14h-382v220h793v-220h-381l7 -14c77 -12 137 -78 137 -157s-60 -145 -138 -156l-7 -14h382v-220h-793v220h381l-7 14c-76 12 -135 77 -135 156s61 145 137 157zM659 670c16 5 39 11 51 13c28 5 -1 54 -20 27c-7 -11 -21 -27 -31 -40zM141 658
c-10 13 -24 29 -31 40c-19 27 -48 -22 -20 -27c12 -2 35 -8 51 -13zM412 475v-47l-16 -34l-14 34v47c-40 -8 -71 -43 -71 -85s30 -76 70 -84v47l15 33l15 -33v-47c40 7 72 42 72 84s-31 77 -71 85zM663 136c10 -13 24 -29 31 -40c19 -27 48 22 20 27c-12 2 -35 8 -51 13z
M123 122c-16 -5 -39 -11 -51 -13c-28 -5 1 -54 20 -27c7 11 21 27 31 40z" />
    <glyph glyph-name="Ograve" unicode="&#xd2;" 
d="M691 803c265 0 464 -54 572 -165c60 -62 91 -143 91 -242c0 -102 -31 -183 -90 -246c-107 -111 -303 -162 -573 -162c-268 0 -468 53 -575 168c-57 62 -88 141 -88 242c0 89 31 166 89 227c109 117 313 178 574 178zM689 247c162 0 242 43 268 98c7 14 10 32 10 49
c0 18 -2 40 -14 58c-30 45 -104 89 -264 89c-150 0 -234 -45 -261 -93c-9 -17 -13 -35 -13 -54c0 -24 8 -48 19 -65c31 -48 106 -82 255 -82zM851 818h-318l-120 206h358z" />
    <glyph glyph-name="Uacute" unicode="&#xda;" 
d="M1297 345c0 -249 -271 -356 -621 -356c-327 0 -581 109 -581 397v395h384v-397c0 -90 88 -138 220 -138c137 0 220 58 220 138v397h378v-436zM533 818l80 206h358l-120 -206h-318z" />
    <glyph glyph-name="Ucircumflex" unicode="&#xdb;" 
d="M1297 345c0 -249 -271 -356 -621 -356c-327 0 -581 109 -581 397v395h384v-397c0 -90 88 -138 220 -138c137 0 220 58 220 138v397h378v-436zM983 825h-258l-34 62l-34 -62h-258l126 199h332z" />
    <glyph glyph-name="Ugrave" unicode="&#xd9;" 
d="M1297 345c0 -249 -271 -356 -621 -356c-327 0 -581 109 -581 397v395h384v-397c0 -90 88 -138 220 -138c137 0 220 58 220 138v397h378v-436zM851 818h-318l-120 206h358z" />
    <glyph glyph-name="dotlessi" unicode="&#x131;" horiz-adv-x="497" 
d="M458 0h-367c-19 2 -25 43 -25 135v415h364v-413c0 -103 1 -125 28 -137z" />
    <glyph glyph-name="circumflex" unicode="&#x2c6;" horiz-adv-x="586" 
d="M585 595h-258l-34 62l-34 -62h-258l126 199h332z" />
    <glyph glyph-name="tilde" unicode="&#x2dc;" horiz-adv-x="586" 
d="M340 599c-32 12 -74 29 -89 29c-18 0 -31 -13 -31 -32h-216c0 142 47 207 169 207c51 0 82 -9 112 -21c20 -8 37 -14 52 -14c21 0 31 1 33 25h212c0 -168 -66 -210 -133 -210c-49 0 -71 2 -109 16z" />
    <glyph glyph-name="macron" unicode="&#xaf;" horiz-adv-x="586" 
d="M540 599h-496v168h496v-168z" />
    <glyph glyph-name="macron" unicode="&#x2c9;" horiz-adv-x="586" 
d="M540 599h-496v168h496v-168z" />
    <glyph glyph-name="breve" unicode="&#x2d8;" horiz-adv-x="586" 
d="M535 781c0 -102 -71 -200 -241 -200c-155 0 -246 100 -246 200h219c0 -50 8 -58 25 -58c18 0 25 5 25 58h218z" />
    <glyph glyph-name="dotaccent" unicode="&#x2d9;" horiz-adv-x="586" 
d="M419 596h-249v197h249v-197z" />
    <glyph glyph-name="ring" unicode="&#x2da;" horiz-adv-x="586" 
d="M293 906c107 0 193 -79 193 -179c0 -98 -86 -179 -193 -179c-106 0 -193 81 -193 179c0 100 87 179 193 179zM293 780c-26 0 -49 -23 -49 -53c0 -26 23 -52 49 -52s49 26 49 52c0 30 -21 53 -49 53z" />
    <glyph glyph-name="cedilla" unicode="&#xb8;" horiz-adv-x="586" 
d="M226 -83c0 22 -48 18 -48 57v26h162v-21c0 -32 101 -10 101 -102c0 -80 -116 -112 -300 -69v101c40 -10 85 -15 85 8z" />
    <glyph glyph-name="hungarumlaut" unicode="&#x2dd;" horiz-adv-x="586" 
d="M299 588l80 206h228l-120 -206h-188zM57 588l80 206h228l-120 -206h-188z" />
    <glyph glyph-name="ogonek" unicode="&#x2db;" horiz-adv-x="586" 
d="M333 -100c0 -12 24 -16 47 -16v-84c-155 0 -219 34 -219 100c0 55 42 100 192 100v-82c-15 0 -20 -4 -20 -18z" />
    <glyph glyph-name="caron" unicode="&#x2c7;" horiz-adv-x="586" 
d="M0 795h258l34 -62l34 62h258l-126 -199h-332z" />
    <glyph glyph-name="Euro" unicode="&#x20ac;" horiz-adv-x="1192" 
d="M106 497c52 171 231 297 521 297c316 0 503 -155 532 -345c1 -4 2 -9 2 -11h-412c0 1 0 4 -1 8c-11 69 -45 102 -119 102c-58 0 -92 -17 -110 -51h189v-88h-208v-29h208v-88h-192c20 -45 59 -63 111 -63c74 0 111 38 121 104c0 1 1 5 1 7h412c0 -2 -1 -5 -1 -7
c-30 -198 -224 -345 -532 -345c-296 0 -479 122 -526 304h-97v88h85v11c0 5 0 12 1 18h-86v88h101z" />
    <glyph glyph-name=".null" horiz-adv-x="0" 
 />
    </font>
</defs>
</svg>
