<?xml version="1.0" standalone="no"?>
<!DOCTYPE svg PUBLIC "-//W3C//DTD SVG 1.1//EN" "http://www.w3.org/Graphics/SVG/1.1/DTD/svg11.dtd" >
<svg xmlns="http://www.w3.org/2000/svg" xmlns:xlink="http://www.w3.org/1999/xlink" version="1.1">
<metadata>
Created by FontForge 20190801 at Thu Jul 15 19:18:19 2021
 By root
(c)2021 by Prioritype. All Rights Reserved.
</metadata>
<defs>
<font id="UrbanStarbluesGraff" horiz-adv-x="852" >
  <font-face 
    font-family="Urban Starblues Graff"
    font-weight="400"
    font-stretch="normal"
    units-per-em="1000"
    panose-1="0 0 0 0 0 0 0 0 0 0"
    ascent="800"
    descent="-200"
    x-height="494"
    cap-height="1065"
    bbox="-1028.06 -647 2924.12 1584"
    underline-thickness="50"
    underline-position="-125"
    unicode-range="U+000D-E010"
  />
<missing-glyph horiz-adv-x="250" 
 />
    <glyph glyph-name="uniE000" unicode="__&#x31;" horiz-adv-x="2073" 
d="M2062 297q8 -3 10 -9t0.5 -13.5t-5.5 -14.5t-7 -12q-5 -8 -13 -16t-16 -14q-3 -2 -10 -6.5t-13 -4.5q-2 0 -2.5 0.5t-1.5 0.5q-5 2 -9.5 2.5t-9.5 2.5q-28 8 -55.5 12t-55.5 8q-142 19 -284.5 23t-285.5 4q-119 0 -237 -1.5t-237 -12.5q-8 -1 -15.5 -1t-15.5 -1h-8h-1
q-1 0 -2 -1h-4h-8q-14 -2 -29 -3t-29 -2q-86 -7 -170.5 -15t-169.5 -21q-45 -7 -91.5 -12.5t-92 -13.5t-90 -20t-85.5 -33q-2 -1 -5 -1q-9 0 -13 9q-2 7 0.5 14.5l4.5 13.5q8 17 22.5 31.5t32.5 20.5q101 34 204 53t208 33q235 32 469.5 42t472.5 10q65 0 134.5 -1t140 -4.5
t139.5 -9.5t134 -16q25 -4 50 -8.5t49 -12.5z" />
    <glyph glyph-name="uniE001" unicode="__&#x32;" horiz-adv-x="2924" 
d="M18 72q-2 -1 -6 -1q-7 0 -9.5 4.5t-2.5 10.5t1.5 12.5t3.5 10.5q7 17 22 31.5t33 20.5q20 7 40.5 12.5t40.5 11.5q189 56 388.5 97t402 67.5t405.5 39t400 12.5q81 0 182 -3.5t210.5 -11t222 -20t216.5 -32t194.5 -47t155.5 -63.5q7 -4 6 -12t-5 -17t-9.5 -17.5
t-8.5 -11.5q-6 -8 -18.5 -18.5t-24.5 -10.5q-5 0 -10 3q-7 4 -13 7.5t-14 6.5l-7 3.5t-8 3.5q-2 1 -4 1.5t-4 1.5q-75 32 -152.5 51t-155.5 33q-199 37 -402.5 50t-406.5 13q-210 0 -421 -13.5t-420 -42.5t-415 -74t-407 -109z" />
    <glyph glyph-name="uniE002" unicode="__&#x33;" horiz-adv-x="2924" 
d="M18 73q-2 -1 -6 -1q-7 0 -9.5 4.5t-2.5 10.5t1.5 12.5t3.5 10.5q7 17 22 31.5t33 20.5q20 7 40.5 12.5t40.5 11.5q192 57 391 97.5t400.5 67t404.5 38.5t403 12q81 0 181.5 -3t210 -10.5t221.5 -20.5t216 -32.5t194 -46.5t155 -63q7 -4 6 -12.5t-5 -17.5t-9.5 -17
t-8.5 -11q-7 -8 -19 -18t-24 -10q-5 -1 -10 2q-62 35 -145.5 61t-179.5 44.5t-202 31t-214.5 20t-216 10.5t-206.5 3q-211 0 -422 -13.5t-420.5 -42t-415.5 -73.5t-408 -109zM872 71q-2 -1 -6 -1q-7 0 -10 4.5t-3 10.5t2 12.5t4 10.5q8 17 22 32t33 20q66 17 133 30.5
t135 22.5q71 10 140.5 15t140.5 8q52 2 103 4t104 2q69 -1 136.5 -2t136.5 -6q30 -2 61.5 -4.5t61.5 -10.5q8 -2 10 -8.5t0.5 -14t-5.5 -14.5t-7 -11q-4 -5 -10 -12t-13 -13.5t-14.5 -11t-15.5 -4.5h-3q-39 5 -90.5 9.5t-103.5 7.5t-98.5 5t-74.5 2q-194 0 -387.5 -16.5
t-381.5 -66.5z" />
    <glyph glyph-name="uniE003" unicode="__&#x34;" horiz-adv-x="2073" 
d="M2062 327q8 -3 10 -9t0 -13t-5.5 -14t-6.5 -12q-9 -16 -23 -27t-33 -11h-9.5t-9.5 2q-161 23 -328.5 35t-332.5 12q-163 0 -328.5 -3.5t-330 -17.5t-326.5 -41.5t-320 -74.5q-1 0 -2 -0.5t-2 -0.5q-5 1 -8.5 2.5t-5.5 6.5q-2 7 0.5 14.5l4.5 13.5q8 17 22.5 31.5
t32.5 20.5q101 34 204 53t208 33q223 30 446 41.5t448 11.5h48q101 -1 200.5 -4t199.5 -11q27 -2 59.5 -5t65.5 -7.5t64.5 -10.5t57.5 -15zM1522 224q8 -3 9.5 -9t0 -13.5t-5 -14.5t-6.5 -12q-5 -8 -13 -16.5t-16 -13.5q-4 -2 -11 -6.5t-13 -4.5q-3 1 -6.5 1.5t-6.5 1.5
q-78 14 -169 21t-189 7h-43t-43 -1q-145 -5 -283.5 -22.5t-246.5 -48.5q-1 0 -2 -0.5t-2 -0.5q-9 2 -13 9q-3 6 -0.5 14t5.5 14q8 17 22.5 31.5t32.5 20.5q51 17 102 26.5t104 16.5q118 15 235 20.5t236 5.5q30 0 73.5 -0.5t89.5 -3t88.5 -8t70.5 -14.5z" />
    <glyph glyph-name="uniE004" unicode="__&#x35;" horiz-adv-x="1882" 
d="M5 378q-5 4 -5 11t2 12q2 9 8.5 19.5t15.5 20.5t19.5 16.5t19.5 6.5q6 0 28 -11t48 -26t49.5 -29t31.5 -19q40 -20 97.5 -40t119 -36.5t121 -27t102.5 -10.5h7h3q2 0 3.5 0.5t2.5 0.5q3 0 6 0.5t6 0.5q7 0 13.5 2t13.5 4q4 1 7 2t7 2q8 2 14.5 5.5t13.5 7.5q3 2 5.5 3
t5.5 3l4 2q5 4 10.5 7.5t10.5 8.5l2 1q4 3 10 9l10 10q5 5 10 10.5t10 11.5q6 8 9 11q0 1 0.5 1t0.5 1q8 11 15.5 23t15.5 24q2 2 2.5 4t2.5 4q-1 -1 -1 -1.5t-1 -1.5v-1q-1 0 1.5 4.5t4.5 7.5q3 6 6.5 12.5t6.5 13.5q6 13 13 26t12 27q2 6 5 12.5t5 12.5q1 2 1 2.5t1 2.5
q2 6 5 13q6 11 12 30t11.5 39t10.5 39.5t8 31.5q4 16 7.5 31.5t7.5 32.5q2 8 2 14q3 18 13 32.5t24 26.5q5 5 11 9.5t13 4.5h4q5 1 9 -1t5 -7q9 -59 21 -116.5t29 -114.5q8 -28 19.5 -63.5t27 -71.5t35 -70.5t44.5 -61.5t55.5 -43.5t66.5 -16.5h2q3 0 5 0.5t4 0.5q8 0 22 3
t29 7.5t29 8.5t22 7q7 2 14 4.5t14 4.5l4 2q1 0 3 1q-1 -1 -2 -1h-2l-1 -1l2 1q1 1 2 1h1q8 3 15.5 6t15.5 6q37 13 72 30l70 34q40 20 80 37t75 43q7 5 15 5q2 -1 4 -1t4 -2q5 -4 5 -9t-1 -10q-4 -23 -21 -38t-32 -30q-2 -2 -3 -2.5t-3 -2.5q-5 -5 -10 -8.5t-10 -8.5
q-59 -50 -117.5 -100t-110.5 -107l-16 -16l-16 -16l-9 -9t-8 -9q-2 -2 -3.5 -4t-3.5 -4l3 3l2 2q-3 -2 -16.5 -17t-29 -33t-29.5 -34.5t-18 -21.5l-6 -8t-7 -9l-1 -1q0 -2 -1 -2q-2 -2 -2 -3q-2 -2 -7.5 -10.5t-12 -17.5t-11.5 -17.5t-6 -10.5q-1 -1 -1 -1.5t-1 -1.5
q-2 -3 0 1q-4 -6 -10 -14.5t-13.5 -16t-15.5 -12.5t-17 -5q-14 0 -15 16q0 22 -12 40q-17 25 -47.5 43.5t-69 31.5t-81 20.5t-84 11.5t-78 5.5t-63.5 1.5q-71 1 -141.5 -7t-136.5 -22q-11 -2 -21 -4.5t-21 -6.5q-5 -2 -9.5 -3.5t-9.5 -3.5l-9 -3q-9 -3 -17.5 -6t-15.5 -8
q-3 -2 -7 -4q6 -27 28.5 -45t52 -30t60 -18t53.5 -9q45 -6 91 -6q8 0 16 0.5t16 0.5h15q1 1 2 1h6q27 3 53.5 6.5t52.5 13.5q1 0 2 0.5t2 0.5q4 2 6 4q-3 7 -0.5 15t5.5 14q3 7 10 16t15 17.5t17 14t18 5.5q8 0 12 -9q8 -15 6 -32q-3 -31 -22.5 -56.5t-43.5 -43.5
q-23 -17 -52.5 -28t-62 -17.5t-64.5 -9t-59 -2.5q-12 -1 -24 -0.5t-23 1.5q-50 3 -99.5 12.5t-94.5 31.5q-17 8 -32.5 20t-26 27t-14.5 33t1 39q11 43 44.5 74t81 52t103 33.5t110.5 19.5t104.5 9t83.5 2q46 0 111 -4t130 -17.5t119.5 -39.5t79.5 -70q61 83 132.5 156.5
t146.5 142.5q-31 -15 -75 -34.5t-90 -36t-89.5 -28t-74.5 -11.5q-44 0 -80.5 23t-66 60t-53 83.5t-41 94.5t-29.5 93.5t-20 79.5q-16 -46 -38 -97t-50.5 -100.5t-63 -95t-76 -79.5t-90 -54.5t-103.5 -20.5q-24 0 -48 3q-22 3 -44 6.5t-45 7.5q15 -13 30.5 -26.5t29.5 -27.5
q5 -5 4.5 -11.5t-2.5 -11.5q-2 -9 -9 -20t-16 -21t-19.5 -16.5t-20.5 -6.5q-5 0 -8 3q-71 69 -147.5 128t-160.5 111q-76 36 -147 84z" />
    <glyph glyph-name="uniE005" unicode="__&#x36;" horiz-adv-x="665" 
d="M500 169q12 7 22 7q-15 19 -41.5 31t-56.5 19t-60 10t-52 3h-12h-12h-4h-1q-5 -1 -11 -1.5t-11 -1.5q-11 -2 -21 -4t-20 -6h-2q-2 -2 -4.5 -2.5t-4.5 -2.5q-1 0 -2 -1q0 -2 -0.5 -3t-0.5 -3v-2q1 -2 1 -3t1 -3q5 -18 24.5 -30t44 -18.5t50 -9.5t40.5 -3q4 0 7.5 -0.5
t7.5 -0.5t7.5 0.5t6.5 0.5h9q5 1 8 1t7 1q14 2 26 6t26 4q2 0 8 2q1 1 2.5 1t3.5 1q2 2 4.5 2.5t4.5 2.5q4 2 5 3t0 0zM162 349q-2 -7 -9 -18t-17 -21.5t-20.5 -17.5t-19.5 -7q-4 0 -7 3q-21 25 -42.5 49.5t-42.5 48.5q-5 5 -4.5 11.5t2.5 12.5q2 9 9 20t16.5 21t20.5 16.5
t20 6.5q4 0 7 -3l84 -99q5 -5 5 -11t-2 -12zM371 329q27 -1 64.5 -5.5t74 -15.5t65 -30.5t35.5 -49.5q7 -27 -4 -52.5t-28 -45.5q-29 -36 -71.5 -57.5t-89.5 -21.5q-5 0 -7 3.5t-3 8.5q-14 -3 -29 -5t-29 -2q-7 0 -13.5 -0.5t-13.5 -0.5q-25 0 -57.5 3.5t-62 14t-51 29.5
t-24.5 50q-2 15 3 30.5t12 29.5q18 36 48 61.5t68 39.5q27 10 55.5 13.5t57.5 2.5zM330 428q-6 23 -17 44t-28 38q-5 5 -4.5 11t2.5 12q2 9 9 20t16.5 21t20.5 16.5t20 6.5q8 0 17 -12.5t18 -29t15.5 -32t8.5 -22.5q2 -8 0 -15t-5 -14t-10 -16t-15.5 -17t-18 -13.5
t-17.5 -5.5q-9 0 -12 8zM644 518q15 -7 18.5 -23.5t1.5 -31.5q-2 -9 -4.5 -18.5t-4.5 -18.5q-1 -3 -2 -6.5t-2 -6.5q-1 -2 -1.5 -6.5t-1.5 -4.5v1q0 1 0.5 2t0.5 3q-1 -10 -7.5 -22.5t-15.5 -23.5t-20 -19t-23 -8h-3q-5 1 -8 6t-2 10q2 14 5.5 26t7.5 25q0 2 0.5 3t0.5 3
q1 5 1 4v7v1v2q-2 5 -4 7.5t-8 4.5q-5 2 -4 10t2 13q2 9 8.5 20t15.5 20.5t19 16t20 6.5q7 0 10 -2z" />
    <glyph glyph-name="uniE006" unicode="__&#x37;" horiz-adv-x="955" 
d="M875 231q1 4 1 11v1q2 2 0 4q-2 6 -2 7q-6 28 -29.5 50t-55 38t-64.5 26.5t-57 15.5q-2 -8 -9 -18.5t-16.5 -20t-19.5 -16t-19 -6.5q-5 0 -8 3q-18 19 -34.5 38t-32.5 39q-24 3 -48 3q6 -5 13 -8.5t13 -8.5q5 -4 4.5 -11.5t-2.5 -12.5q-2 -9 -8.5 -19.5t-15.5 -20.5
t-19.5 -16.5t-19.5 -6.5q-7 0 -27 13.5t-42.5 31t-43 34t-27.5 22.5q-11 -1 -30.5 -4t-40 -7.5t-37.5 -9t-23 -8.5q-6 -2 -10.5 -4t-9.5 -4q-8 -4 -16.5 -7.5t-16.5 -8.5q-1 -1 -2 -1q-1 -1 -2 -1.5t-2 -1.5q-6 -4 -14 -10l-3 -3q-2 -2 -4.5 -3.5t-4.5 -3.5q-1 -1 -1 -1.5
t-1 -1.5q-2 -2 -2 -2.5t-1 -1.5l-3 -6q0 -2 -1 -3q0 -2 -0.5 -2.5t-0.5 -2.5q-2 -9 0 -20q0 -4 1 -6q9 -37 39.5 -62.5t70 -42.5t81.5 -26.5t74 -15.5l2 3q3 5 9 12t13.5 13.5t15.5 11t15 4.5h3q59 -14 117.5 -19.5t118.5 -5.5h7h10.5t10.5 0.5t6 1.5q26 0 53.5 4.5
t52.5 12.5q5 2 10 3t10 3l4 2h1h-1q-1 0 -2 -1q3 1 5.5 2t4.5 2l24 12l4 2l4 2l3 3q5 2 8.5 5t6.5 5l2 2q2 1 2.5 2t2.5 2q1 1 1 1.5t1 1.5l2 4q0 1 0.5 1.5t0.5 1.5t0.5 2t0.5 3zM595 492q26 -2 59 -6.5t69.5 -12.5t72.5 -19.5t67 -28.5t54 -39.5t33 -51.5q7 -20 5.5 -40.5
t-8.5 -40t-18.5 -37.5t-24.5 -33q-33 -37 -72 -60.5t-82 -37t-88.5 -18.5t-92.5 -5q-12 0 -24.5 0.5t-24.5 0.5q-8 0 -16 0.5t-16 1.5q-9 -13 -23 -24.5t-30 -10.5q-32 1 -75.5 5t-90.5 12.5t-93 22t-83.5 34t-62 48.5t-29.5 65q-3 24 2.5 47.5t16.5 45t26.5 41t33.5 34.5
q34 29 73.5 49.5t82.5 34.5q-15 15 -29 30.5t-28 31.5q-5 5 -5 11t2 12q2 9 9 20t16.5 21t20 16.5t19.5 6.5q5 0 8 -3q29 -32 58.5 -62.5t61.5 -59.5q23 2 46 3t46 1q-5 9 -10.5 18.5t-11.5 17.5q-4 5 -0.5 14t5.5 14q2 6 8.5 15t14.5 17t16.5 14t15.5 6q2 0 3 0.5t3 0.5
q5 0 11 -9q20 -29 39 -57t40 -56z" />
    <glyph glyph-name="uniE007" unicode="__&#x38;" horiz-adv-x="1291" 
d="M35 328q-23 22 -30.5 53t-0.5 61q5 23 18.5 43.5t32 37t41 26t46.5 9.5q5 0 8 -3q35 -1 64 -22t36 -57q7 -39 -10 -75q11 -6 21.5 -12.5t21.5 -13.5q57 -35 113.5 -69.5t117.5 -62.5q18 -8 44 -15.5t46 -7.5h2q7 17 14 33.5t15 32.5q2 4 6 14q1 2 1 3t1 3q1 1 1 3
q18 46 31.5 93.5t24.5 95.5q-9 4 -17 9t-15 10q-18 14 -26.5 32t-10 37.5t3.5 39.5t15 38q8 13 18.5 26.5t23 24.5t27.5 18t31 7q5 0 14.5 -3t19 -7t16.5 -9t7 -10q11 -1 18.5 -8t11.5 -16.5t5.5 -21t1.5 -21.5q1 -35 -15 -69t-43 -57l6 -84q1 0 1 -2v-2q1 -5 1 -9t1 -8
q3 -17 5.5 -32.5t5.5 -30.5q4 -18 10.5 -41t17.5 -42.5t27 -33t40 -13.5h5h3h5q3 1 5.5 1t5.5 1q2 1 5 1.5t5 1.5t2.5 1t2.5 1q5 2 11 4.5t11 5.5q3 2 6.5 3.5t6.5 3.5q2 1 2.5 1.5t2.5 1.5q33 21 63 45q-1 0 -2 -1q1 1 1.5 1t1.5 1l2 2q5 4 9 7t8 7q6 5 11.5 10.5
t11.5 10.5q-10 25 -9.5 52.5t11.5 51.5q11 25 34.5 48t53.5 24q9 1 18.5 -2t17.5 -7q11 7 20 7h3q17 -2 28.5 -12t18 -24t8.5 -30t0 -30q-3 -22 -13 -47t-26.5 -45.5t-38 -33.5t-46.5 -13q-29 1 -52 19l-12 -15q-2 -3 -4.5 -6t-5.5 -6q-1 -1 -5 -7l-1 -2l-1 -1l4 6
q-11 -13 -20 -26.5t-16 -27.5q-5 -10 -11 -19q-5 -7 -8 -14.5t-6 -15.5q-3 -7 -6 -14.5t-7 -15.5q-7 -12 -8 -22q10 -3 21.5 -7.5t23 -11t21 -14t15.5 -15.5q5 -8 8 -15t2 -17q-3 -25 -18.5 -45.5t-37.5 -35.5t-47.5 -24t-48.5 -9q-7 0 -10 3.5t-3 9t1.5 12t3.5 11.5
q5 14 21 30t30 21q-38 19 -84.5 31t-95 19t-97 10t-90.5 3q-17 1 -35 1.5t-36 -1.5q-11 -1 -23 -1h-24q-23 0 -45 -5.5t-43 -12.5h-1q-1 -1 -3 -1q-2 -2 -5 -2q-14 -5 -29 -14q-1 0 -7 -4q1 -1 1 -2q16 -22 53 -34.5t79.5 -19t83.5 -8.5t65 -2q10 0 19.5 0.5t19.5 0.5h11
q1 0 3 0.5t3 0.5q5 0 8.5 0.5t8.5 0.5q20 0 39 5.5t39 5.5h5q7 0 10 -3.5t3.5 -9.5t-1 -12.5t-4.5 -11.5q-7 -14 -23 -31.5t-32 -20.5q-43 -8 -87.5 -11t-88.5 -3q-28 0 -72.5 2.5t-88.5 11t-81 24.5t-50 43q-8 15 -4.5 33t11.5 32q17 30 41 53l-178 258v0q-15 -8 -31 -12.5
t-32 -4.5q-18 1 -35 6.5t-31 18.5zM667 218q-8 -18 -26 -39.5t-36 -31.5q13 1 25.5 1h25.5q37 -1 74 -1.5t74 -4.5q-19 11 -32 27t-22 36q-7 15 -11 31t-6.5 32t-5.5 32t-8 31q-1 2 -1 4t-1 4q-7 -20 -16 -38.5t-16 -38.5q-2 -5 -3 -9t-4 -8q-2 -3 -4 -9q-1 -1 -1 -2
q-2 -5 -4.5 -11.5t-1.5 -4.5zM79 468v-3q1 -2 1 -4q5 -26 22 -44.5t44 -23.5q2 0 3 -0.5t2 -0.5h3q-3 -2 -1.5 -1t3.5 1t3 1q5 0 7 1t7 1v4v2q-6 30 -27.5 47.5t-53.5 17.5q-5 0 -7 3h-2q-1 0 -2 -0.5t-2 -0.5zM418 139q7 -11 2 -26q19 8 38.5 14.5t39.5 10.5q-19 5 -37 13
t-35 16q-11 5 -21 10t-21 10zM877 133q19 -3 37.5 -6.5t37.5 -7.5q7 16 14 31t15 30q-24 -15 -50 -28t-54 -19zM1182 414q-5 -3 -9.5 -5.5t-9.5 -3.5q2 -5 4 -9.5t5 -9.5q13 -21 39 -27v2v9v2q-2 8 -3 15.5t-6 12.5q-7 9 -15 13q-1 0 -2 0.5t-3 0.5zM734 631q-5 5 -10.5 9
t-13.5 8v-2q1 -2 1 -5t1 -5q5 -17 19.5 -29.5t30.5 -19.5l2 -1q1 2 1 7l-1 2q-1 7 -3.5 14.5t-7.5 12.5h-4q-7 0 -11 7q-2 0 -4 2zM1043 292l1 1q-1 0 -1 -1z" />
    <glyph glyph-name="uniE008" unicode="__&#x39;" horiz-adv-x="231" 
d="M0 726q-2 11 6 22.5t20 13.5q21 4 42.5 5.5t42.5 1.5q53 0 96 -8q11 -2 16.5 -11.5t6.5 -20.5t-1 -20.5t-7 -11.5q-6 -3 -9 -10.5t-4 -17.5t-1.5 -20t-0.5 -17q-1 -14 -1.5 -27.5t-1.5 -27.5q-2 -28 -2 -55t-1 -55q-2 -56 0 -110q0 -27 3 -56q1 -7 1.5 -13.5t2.5 -13.5
l2 -7q1 -2 1 -3.5t1 -3.5q1 -3 1.5 -6.5t2.5 -7.5q4 -10 -1.5 -18.5t-15.5 -13.5q-2 -1 -6 -1q-7 0 -12.5 4t-9.5 9q-6 9 -2 20q2 4 3.5 7.5t1.5 6.5q0 5 1 7l2 7q2 7 2.5 13.5t1.5 13.5q3 29 3 56q1 27 0.5 54.5t-0.5 55.5q0 83 -6 165q-1 10 -1.5 19t-1.5 18t-7 11t-14 2
q-10 1 -14.5 -3t-5.5 -9q-3 -23 -4 -47t-1 -47q0 -107 1 -212.5t3 -212.5q1 -36 2 -71.5t1 -70.5v-36t1 -35l2 -71q1 -18 1 -36t1 -35l7 -213q0 -11 -7 -21t-18 -10q-13 0 -23.5 6.5t-10.5 21.5q-1 1 0 3q0 9 0.5 17.5t0.5 17.5l6 178q1 17 1.5 35t0.5 36l1 71q0 17 1 35
t1 36q0 35 1 70.5t2 71.5q2 107 3 212.5t1 212.5q0 37 -3 71q0 5 -0.5 12.5t-3 15t-8 13t-17.5 5.5q-8 0 -14.5 -3.5t-7.5 -11.5q-2 -26 -2.5 -52t-1.5 -52q-1 -38 -1.5 -75t-0.5 -74v-75t2 -75q1 -19 1.5 -37.5t2.5 -37.5q2 -18 3.5 -36.5t3.5 -37.5q1 -9 -4.5 -17.5
t-14.5 -8.5q-2 0 -2.5 -0.5t-2.5 -0.5q-8 1 -14.5 6.5t-8.5 14.5v5q9 75 11 150t2 150q0 66 -1 131t-5 131q0 7 -3 9.5t-6 5.5t-6.5 8t-5.5 16z" />
    <glyph glyph-name="uniE009" unicode="__&#x31;&#x30;" horiz-adv-x="374" 
d="M14 649q0 6 -3 14.5t-6 18t-4.5 18t0.5 13.5q3 6 3.5 14.5t2.5 16.5t6 14t13 7q8 1 19 1h25q8 0 32.5 -0.5t56 -1t66.5 -1t65 -1.5t51 -2.5t24 -3.5q10 -5 9.5 -14t-3.5 -17q-4 -12 -2.5 -23.5t3 -21t-0.5 -16.5t-14 -11q-10 -3 -10 -13q-2 -55 -4 -109.5t-3 -109.5
q-1 -73 0 -147q0 -12 0.5 -29.5t2 -35.5t3.5 -35t6 -28q2 -5 2 -9t2 -9q4 -11 -1.5 -23t-17.5 -12q-2 0 -3 -0.5t-3 -0.5q-18 2 -26 19q-3 8 0 17q1 3 3.5 13.5t2.5 13.5t2 9q2 9 3 18.5t2 18.5q3 36 3 73q2 74 0 147q-2 55 -3.5 109.5t-3.5 109.5q-2 8 -7 12.5t-11 4.5
q-14 0 -16 -15q-6 -63 -6 -129q0 -6 -0.5 -12t-0.5 -13v-25v-50q0 -12 1 -24.5t3 -25.5q1 -6 3.5 -12t2.5 -13q0 -2 0.5 -3t0.5 -3t1 -3t2 -3q2 -3 2.5 -6t2.5 -7q5 -13 1 -26.5t-18 -17.5q-8 -2 -11 -2q-8 0 -15 3t-12 10q-5 8 -5 16.5t3 16.5q11 26 14.5 48.5t3.5 51.5v50
v25q0 32 -1 63t-3 63q-2 15 -12 24.5t-24 9.5q-8 0 -12 -2q-2 -1 -3.5 -1t-3.5 -1q-3 -1 -6 -2.5t-5 -3.5q-16 -11 -25.5 -25.5t-8.5 -32.5v-1q0 -101 1 -201t3 -201q2 -68 4 -134.5t2 -134.5q0 -17 0.5 -33.5t1.5 -33.5l5 -168q0 -8 0.5 -16.5t1.5 -16.5q1 -11 -6.5 -21.5
t-19.5 -10.5h-5q-11 -1 -19.5 8t-9.5 21v3q1 8 1.5 16.5t0.5 16.5l5 168q1 17 1.5 33.5t0.5 33.5q1 68 3 134.5t3 134.5q1 67 2.5 134t1.5 134v134v1q1 17 -7.5 33t-25.5 21l-3 1q-5 2 -8.5 4t-7.5 4q-3 2 -9 2q-8 0 -14 -5.5t-6 -14.5q-2 -25 -2 -50t-1 -50
q-2 -50 -2 -99.5v-99.5q0 -100 2.5 -199t10.5 -199q1 -9 -4.5 -17.5t-15.5 -8.5q-2 0 -2.5 -0.5t-2.5 -0.5q-9 1 -15.5 7t-7.5 15v4q9 100 11 199.5t2 199.5v99.5t-2 99.5l-2 50t-1 50v24z" />
    <glyph glyph-name="uniE010" unicode="__&#x31;&#x31;" horiz-adv-x="260" 
d="M6 710q-5 9 -6 20t5 21q5 8 17 10t26 2h27h9q29 3 57 3q16 0 31.5 -1t31.5 -3q17 -2 33.5 -9.5t21.5 -24.5q3 -12 -3.5 -23.5t-14.5 -22.5q-11 -15 -24.5 -29.5t-30.5 -23.5l-2 -2q-17 -7 -17 -25q0 -11 -1 -21t-1 -21q0 -43 -1.5 -86t-2.5 -86t-1 -85.5v-85.5
q0 -22 0.5 -43t3.5 -43q2 -11 4 -21.5t2 -21.5q0 -5 1 -10.5t3 -10.5t2.5 -10.5t2.5 -11.5q4 -12 -3 -22.5t-19 -15.5q-2 -1 -7 -1q-22 0 -29 20q-3 10 0 19q2 6 2.5 11.5t2.5 10.5q2 4 3 10.5t1 10.5q1 11 3 21.5t3 21.5q2 22 3 43t1 43v85.5t-1 85.5t-2.5 86t-1.5 86v14
t-1 15q-1 11 -11 24t-21 15q-1 0 -1.5 0.5t-1.5 0.5q-8 -2 -9 -7v-4q-2 -14 -2 -27.5v-27.5q1 -28 0.5 -55.5t-0.5 -55.5q0 -56 1 -111t3 -111t2 -110.5t3 -110.5q1 -14 1 -28t1 -28l6 -138q0 -7 0.5 -13.5t0.5 -13.5q0 -12 -7 -22t-19 -10q-14 0 -22.5 7t-9.5 21v15.5
t1 15.5l2 28l4 110q5 125 8 249.5t3 249.5q0 28 0.5 55.5t0.5 55.5q0 21 -2 41.5t-5 41.5l-1 7q0 4 -4 6q-12 8 -27 23.5t-22 27.5z" />
    <glyph glyph-name=".notdef" horiz-adv-x="250" 
 />
    <glyph glyph-name="uni0000" horiz-adv-x="0" 
 />
    <glyph glyph-name="uni0000" horiz-adv-x="0" 
 />
    <glyph glyph-name="uni000D" unicode="&#xd;" horiz-adv-x="250" 
 />
    <glyph glyph-name="space" unicode=" " horiz-adv-x="260" 
 />
    <glyph glyph-name="A" unicode="A" 
d="M-532 402q-9 1 -10.5 7.5t0.5 14.5t6 16t6 11q11 14 24 28t33 14l27 -2q63 -5 125 -7t125 -7q145 -11 287 -32t283 -55q-2 7 -3 13.5t-3 14.5q-26 132 -51 262t-52 261q-4 18 8 35t23 28q5 5 15.5 12t19.5 7t13 -8q37 -75 72 -150t73 -150q14 -27 27.5 -54l27.5 -55
l110 -216l27.5 -55t27.5 -54q74 -30 143 -68.5t141 -73.5q6 -3 5.5 -10.5t-2.5 -12.5q-3 -9 -9.5 -20t-15.5 -21t-19.5 -17t-19.5 -7q-5 0 -10 3q-34 20 -68 39.5t-69 36.5q61 -125 117 -248.5t112 -250.5q3 -7 0.5 -15t-5.5 -14q-3 -7 -10 -16.5t-15.5 -17.5t-17.5 -14
t-18 -6t-12 9q-32 83 -69.5 163t-75.5 161q-38 80 -76.5 158.5t-78.5 157.5q-35 14 -71 27t-72 25q0 -2 0.5 -3t0.5 -2l2 -12q0 -1 0.5 -2t0.5 -3l85 -475q3 -18 -8 -34.5t-23 -28.5q-8 -8 -15.5 -13t-18.5 -5q-11 -2 -14 8q-2 5 -3.5 9.5t-3.5 9.5l-14 39
q-16 45 -36.5 90.5t-45.5 89.5t-53 85t-60 77q-65 75 -134.5 127.5t-147 87.5t-163.5 56t-184 33q-48 6 -95 10t-95 9zM526 413q-26 51 -51.5 102t-51.5 102l48 -253q24 -8 48 -15t48 -15q-21 39 -41 79zM390 280q-57 16 -113.5 28.5t-113.5 23.5q39 -22 77.5 -53t74 -67.5
t66 -75t54.5 -75.5q-10 55 -20 109l-20 108q-2 1 -3 1t-2 1z" />
    <glyph glyph-name="B" unicode="B" horiz-adv-x="982" 
d="M-224 787q-7 3 -9.5 8t-1.5 11.5t3.5 13t5.5 10.5q7 13 22.5 28.5t30.5 18.5q2 0 3 1q60 10 120.5 13t121.5 3q87 1 172 -8t169 -31q81 -21 158.5 -57.5t140 -90t103 -124.5t47.5 -163q7 -87 -16.5 -170.5t-63.5 -160.5q22 3 43.5 5t42.5 2q47 0 91 -10.5t80 -33
t62.5 -57.5t37.5 -85q17 -73 2.5 -148t-50.5 -139q-4 -7 -10.5 -16t-14.5 -17.5t-17 -14t-18 -5.5q-5 0 -10 3q-84 60 -176.5 93t-194.5 46q-69 9 -140 9q-15 0 -29.5 -1t-29.5 -1h-12t-13 -1q-4 -2 -3.5 -1.5t2.5 1.5h-4q-4 -1 -10 -1q-23 0 -64 -5t-84.5 -13t-81 -17
t-53.5 -17q-2 -1 -5 -1q-10 0 -13 8q-3 7 0 15t5 14q1 2 1 3t2 3l2 4q8 14 21.5 26t28.5 17l14 3.5t12 3.5q14 4 27.5 8t25.5 10q2 1 10.5 4.5t9.5 3.5l-1 -1l-1 -1h-2q5 2 10.5 4t10.5 4q35 14 69.5 29.5t68.5 32.5q11 5 20.5 11.5t20.5 11.5l6 3q-2 -1 2 1t6 4
q5 4 9.5 6.5t9.5 5.5q9 6 18.5 12.5t18.5 14.5q2 1 4.5 3t3.5 4q3 5 7.5 7.5t8.5 6.5l6 6q3 4 6 7t5 7q3 3 4 5q2 4 4 7t4 7q1 4 1.5 6.5t1.5 5.5v1q0 1 0.5 2t0.5 3l1 4q2 9 0 17v5q0 2 -0.5 3t-0.5 3q0 6 -2 11.5t-4 11.5q-16 55 -38.5 107.5t-53.5 100.5
q-37 58 -87.5 113t-109.5 105t-124 95t-132 83.5t-134.5 70t-130.5 54.5zM683 581q-64 69 -145 112.5t-169.5 68.5t-182 34t-183.5 9q5 -2 9 -4.5t8 -4.5q38 -23 77.5 -43t77.5 -43q55 -34 108.5 -72.5t101.5 -83.5q-4 11 -8 21.5t-8 21.5q-2 7 0.5 14.5t4.5 14.5q3 7 10 16
t16 17.5t18.5 14.5t17.5 6q10 -2 12 -9q59 -155 123 -305t142 -296q4 8 8 16.5t8 16.5q17 34 28 69.5t19 72.5q0 2 0.5 2.5t0.5 1.5q0 5 2 13q6 25 4 51t-2 52v3q0 1 1 -3v3q0 1 -0.5 1t-0.5 1v1q-1 3 -1 6t-1 6q-2 5 -2 10.5t-2 10.5q-14 51 -34 94t-58 83zM748 1
q31 -59 63 -116.5t65 -114.5q0 -1 0.5 -2t0.5 -3q47 -15 90.5 -35t85.5 -46q2 6 3 12t3 11q1 3 1 5.5t1 4.5q1 5 1.5 8.5t1.5 7.5q3 17 3 33.5t-1 33.5q0 4 -1 7v3q-1 4 -1 7.5t-1 7.5q-10 50 -32 83.5t-53.5 54.5t-72 30.5t-88.5 11.5q-2 1 -5 0.5t-5 -0.5h-16h-10
q-1 -1 -3 -1q-8 0 -15 -1t-15 -2zM462 -193q26 2 51.5 3t51.5 1q45 0 88 -3.5t87 -9.5q-51 88 -96 180q-19 -29 -38.5 -52t-42 -43.5t-47.5 -38.5t-54 -37z" />
    <glyph glyph-name="C" unicode="C" horiz-adv-x="766" 
d="M-84 647q-1 36 5 74t23 71q28 55 78 87.5t112 32.5q35 0 71.5 -8t68.5 -24q-13 16 -25.5 31t-25.5 30q-5 5 -5 11t2 12q2 9 8.5 20t16 21t20.5 17t21 7q5 0 8 -3q16 -20 32 -38.5t33 -38.5q57 -68 111 -138.5t107 -142.5q10 -14 1 -30.5t-18 -27.5q-8 -9 -21 -19t-26 -10
q-6 0 -8 2q-5 4 -9 8t-9 8l-37 34q-39 33 -81.5 66t-88.5 59.5t-95.5 44t-103.5 18.5q-3 1 -5.5 0.5t-5.5 -0.5h-2q-9 0 -19.5 -2t-18.5 -6h-2q-1 0 -1 -1h-2q-8 -4 -12 -7h-1q-2 -2 -2 -3l-1 -3q0 -1 -0.5 -1.5t-0.5 -1.5l-2 -5q0 -1 -0.5 -1.5t-0.5 -1.5q-2 -8 -3 -13
q0 -1 -0.5 -2t-0.5 -3q-2 -20 -3 -40t-1 -41v-15.5t2 -15.5v1q0 -2 1 -4q0 -5 1 -11.5t2 -11.5q31 -153 92.5 -289.5t146.5 -267.5q29 -45 67.5 -95t83.5 -98.5t96 -92.5t105.5 -77.5t112 -53.5t115.5 -20q3 1 7 1q8 0 13 2q3 1 11 3l4 2h1l2 1l5 2q1 0 1 0.5t1 0.5
q2 2 2 3.5t1 3.5q1 1 1 2t1 3l3 12q0 6 1 8q2 8 1.5 16.5t-0.5 16.5v4l-1 9v7l-1 2q0 9 -3.5 25.5t-5.5 25.5q-10 40 -28 87t-41 94t-48 90t-49 76q-4 5 -1 14t6 15t9.5 14.5t14.5 17t17 14.5t17 6l3 1q7 0 13 -9q27 -43 56 -92.5t53.5 -101.5t42.5 -105t23 -102
q3 -28 2.5 -56t-8.5 -55q-21 -67 -73 -107.5t-124 -40.5q-47 0 -95.5 16t-96.5 42t-93.5 60.5t-86.5 72.5t-76 77t-62 74q-37 49 -75.5 107t-74.5 122.5t-67.5 132.5t-55 135.5t-37.5 133.5t-15 126z" />
    <glyph glyph-name="D" unicode="D" horiz-adv-x="941" 
d="M-478 871q-7 3 -9.5 8t-1.5 11.5t3.5 13t5.5 10.5q3 6 9 14t13.5 15t15 12t15.5 6q39 7 77.5 10t77.5 3q87 0 181 -12.5t187.5 -35t182.5 -53t166 -66.5q95 -43 179 -105.5t151 -140.5t112.5 -171.5t63.5 -198.5q6 -36 8.5 -72t-0.5 -72q-8 -89 -49 -176t-105.5 -156
t-148 -112t-176.5 -43q-99 0 -189 52q-5 3 -4.5 11t2.5 13q2 9 9 20t16 20.5t19.5 16.5t19.5 7q6 0 10 -3q42 -26 87.5 -36.5t94.5 -10.5h4h3q7 1 13.5 1t12.5 2q2 1 4 1t4 1q-8 17 -15 35t-15 35q-69 148 -154.5 284.5t-186.5 264.5q-42 54 -92.5 112.5t-106.5 117.5
t-117 115.5t-124 105t-127 86.5t-126 60zM863 164q-26 121 -89 219t-151 175.5t-195.5 135t-223 97t-234 62t-228.5 29.5q112 -71 221.5 -171t209 -214t187 -234.5t154.5 -233.5q-24 72 -57.5 147.5t-74 148.5t-87 141t-95.5 125q-5 5 -4.5 11.5t2.5 12.5q2 9 9 20.5
t16.5 21t20 16t20.5 6.5q5 0 8 -3q5 -5 8 -9t7 -9q69 -88 128 -183q68 -108 121 -225.5t86 -240.5q20 -75 30.5 -151.5t18.5 -153.5q1 -7 -2 -13.5t-7 -12.5q8 3 17 7t16 9q3 2 11 6q1 0 3 2q6 4 12 7.5t11 8.5l6 4t5 4l3 3q11 7 19 16l10 10l3 3q7 7 14.5 15.5t12.5 16.5
q4 5 8 10.5t7 11.5q2 3 3.5 6t3.5 6l3 6q13 21 23 46.5t15 49.5l6 27v2q0 1 1.5 11t1.5 11q2 23 2 46.5v46.5q0 2 -0.5 5t-0.5 5q-1 5 -1 8.5t-1 8.5q-3 17 -6 33.5t-7 33.5z" />
    <glyph glyph-name="E" unicode="E" horiz-adv-x="989" 
d="M-99 675q-15 45 -8.5 91.5t32.5 85.5q24 35 57.5 56.5t77.5 21.5q69 -5 129.5 -30t122.5 -56l17 -9l-51 51l-104 100l-51 51q-5 5 -5 11t2 12q2 9 9 20t17 21t21 17t20 7q4 0 7 -3q27 -32 58 -60t61 -57q49 -48 97.5 -96.5t94.5 -99.5q47 -52 89.5 -105.5t79.5 -113.5
q4 -6 0.5 -15t-5.5 -14q-3 -7 -10 -16t-16 -17.5t-18 -14t-17 -5.5q-6 0 -9 3q-16 16 -33 29.5t-35 27.5q-30 23 -70.5 51.5t-86.5 58.5t-95 59t-96.5 51.5t-91 36.5t-77.5 14h-16q-5 -1 -9.5 -1.5t-9.5 -1.5l-2 -1l-1 -1l-1 -3q-2 -8 -2 -9q-1 -1 -1 -3q-1 -5 -1 -10v-10
q0 -3 -0.5 -5.5t0.5 -5.5l1 -3q2 -5 2 -10t1 -10q4 -21 13.5 -41.5t22.5 -37.5q54 -72 124.5 -133t149 -113t161.5 -96.5t163 -83.5q7 -3 13.5 -6t12.5 -6l54 -24q12 -6 24.5 -11.5t25.5 -10.5q11 -5 11 -17q0 -17 -14 -36.5t-28 -27.5q-5 -3 -13 -7.5t-15 -2.5
q-5 2 -10 2.5t-10 2.5q-50 14 -99.5 25.5t-100.5 22.5q-62 14 -123.5 22.5t-124.5 8.5q-2 -1 -5 -1q-14 -1 -28.5 -3.5t-28.5 -7.5h-2l-6 -3v-24l1 -3q5 -21 10 -37.5t11.5 -31.5t15 -30t19.5 -32q28 -43 67.5 -89t88 -89.5t103 -83t111.5 -69t115.5 -46.5t113.5 -17h18
q4 1 10 1t20.5 3t20.5 5q4 2 8 3t9 3q11 5 21.5 8t18.5 11q2 2 6 4l10 6q5 4 10 7.5t10 7.5q1 0 3 2l2 2q3 2 9 8l7 7l5 6q6 4 6 6q3 5 6 9.5t6 9.5q2 5 5.5 11t4.5 11q1 1 1 2q8 21 12 42l1 2v3q0 2 1 2v6q1 0 1 2q2 6 1.5 12t0.5 11q2 12 0.5 23.5t-1.5 23.5q0 7 -1 11v6
q-6 50 -24.5 103.5t-47 103t-65.5 90.5t-81 66q-5 3 -4.5 11t1.5 13q2 8 9 19t16.5 21t19.5 17t19 7q3 -1 6 -1t5 -2q28 -15 53.5 -38.5t47 -51t39.5 -57t32 -57.5q29 -60 45 -126.5t10 -134.5q-6 -69 -38.5 -132t-83 -111.5t-115 -77.5t-134.5 -29q-60 -1 -127.5 21
t-134.5 59.5t-130.5 87t-117 105t-93.5 112.5t-60 110q-8 20 -12.5 42.5t-2.5 44.5q4 38 25 70t51 55q35 26 72.5 32.5t79.5 7.5q11 1 21 0.5t20 -1.5q-36 21 -78 47.5t-85.5 56.5t-86 64.5t-78 70.5t-62.5 74.5t-40 77.5z" />
    <glyph glyph-name="F" unicode="F" horiz-adv-x="862" 
d="M-642 794q-8 1 -10 6.5t-1 12.5t4 13.5t5 10.5q8 16 22 28.5t31 18.5q35 11 69.5 16.5t70.5 10.5q43 5 86 9t86 7q171 12 339.5 18t339.5 8q57 1 113.5 2t113.5 1q51 0 101 1t101 1h164h54t55 -1h39q5 0 7.5 -4t3.5 -8q1 -8 -4 -20q-5 -13 -15 -26.5t-23 -21.5l-24 -15
q-43 -26 -86 -51t-85 -54q-5 -4 -11.5 -7t-13.5 -3q-13 0 -13 16q0 8 4.5 17.5t10.5 18.5t13.5 16.5t13.5 11.5l24 15q11 7 21 13l20 12h-143q-29 1 -58 0.5t-58 -0.5q-110 0 -219 -0.5t-219 -4.5q-23 -1 -45 -1t-45 -1q53 -62 99 -122t87.5 -121.5t80.5 -126t78 -136.5
q34 5 67.5 8t68.5 5q34 2 67 5.5t67 3.5q7 0 8.5 -5.5t2.5 -10.5q1 -9 -3.5 -17t-9.5 -16q-19 -31 -43.5 -37.5t-57.5 -6.5q-5 0 -10.5 -0.5t-10.5 -0.5h-5q-2 0 -5 -0.5t-5 -0.5q-14 0 -26.5 -1t-26.5 -3l-36 -3q60 -118 113 -237.5t99 -243.5q16 -42 32 -84.5t25 -87.5
q2 -8 -0.5 -15t-5.5 -14t-10 -16t-15.5 -17.5t-17.5 -14t-18 -5.5q-11 0 -12 8q-1 5 -3 13q-9 34 -20.5 67t-23.5 66q-52 145 -114.5 284.5t-134.5 274.5l-2 3q-1 2 -2 3t-2 3q-35 -4 -73.5 -10t-71.5 -20h-2l-4 -2l-4 -2q-8 -4 -14 -4q-4 0 -9 3q-6 4 -5.5 11.5t2.5 12.5
q4 15 20 34t30 26q17 8 35 13t37 10l-7 7t-7 8q-40 49 -92.5 82.5t-106.5 65.5q-94 56 -194 101t-204 80q-52 18 -107.5 36t-112 33.5t-113 28t-111.5 19.5zM-355 835q168 -45 330.5 -109t311.5 -154q-2 2 -2.5 3.5t-2.5 3.5q-22 23 -41 49.5t-37.5 53t-38 52t-44.5 46.5
q-5 5 -5 11t2 12q4 15 17 31t26 25q-27 -1 -54.5 -1.5t-54.5 -1.5q-113 -3 -226 -9l-52 -4t-52 -2q-2 0 -3.5 -0.5t-3.5 -0.5h-7h-4q-6 0 -12.5 -1t-12.5 -1q-8 0 -17 -1t-17 -2z" />
    <glyph glyph-name="G" unicode="G" horiz-adv-x="1176" 
d="M-117 565q-4 38 -1.5 76.5t16.5 74.5q29 76 85.5 118.5t137.5 42.5q63 0 131.5 -17.5t135 -45.5t128 -63.5t110.5 -71.5q-51 91 -104 178.5t-108 175.5q-4 6 -0.5 15t5.5 14q3 6 9.5 15t14.5 17.5t16.5 14.5t16.5 6l3 1q9 -1 14 -9q24 -35 45.5 -71.5t43.5 -73.5
q78 -131 151 -261t141 -266q3 -6 0 -14.5t-6 -14.5q-4 -7 -10.5 -16t-15 -17.5t-18 -14t-18.5 -5.5q-5 0 -7 3q-14 21 -31 39.5t-34 36.5q-90 95 -194.5 172.5t-227.5 125.5q-65 26 -132.5 41t-137.5 15q-22 -3 -41 -10h-1q-4 -2 -10 -4q-1 0 -1 -0.5t-1 -0.5l-3 -3
q-3 -2 -4 -3q-3 -5 -5 -8t-3 -6q-1 -2 -1 -4t-1 -4q-5 -10 -5 -18v-4q0 -2 -2 -8q-6 -20 -3.5 -41t2.5 -42v-3l1 -5v-3v-4q16 -115 67.5 -228t125 -215t162.5 -190t179 -154q50 -37 111.5 -71.5t127.5 -61t133 -42.5t129 -16h21q4 1 7.5 1t6.5 1q8 2 15.5 3t15.5 3
q2 1 11.5 4.5t9.5 6.5q1 1 1.5 4.5t1.5 6.5l1 3q1 5 1 9.5v8.5v23q0 3 0.5 6t-0.5 6l-1 4v1q-10 73 -49 143.5t-93 133.5t-116.5 117t-118.5 94l-6 1q-72 12 -142.5 20.5t-142.5 8.5h-28t-28 -1l-13 -1h-7h-12h-1l-3 -1h-5q-6 0 -10 1t-6 7q-3 7 -0.5 15t5.5 14t9 15t14 17
t16.5 14t15.5 6h25l48 1q59 0 116.5 -1.5t115.5 -9.5q78 -10 157.5 -27.5t158 -41.5t155 -54t146.5 -65q6 -3 5 -11t-2 -13q-1 -8 -8 -19t-16.5 -20.5t-20 -16.5t-19.5 -7q-5 -2 -10 2q-61 32 -128 58t-133 45q24 -22 48 -49t46 -56.5t41.5 -59.5t33.5 -59q22 -44 34.5 -91
t9.5 -97q-3 -47 -28 -89t-64 -68q-31 -20 -65.5 -28.5t-71.5 -8.5q-38 1 -77 7.5t-75 15.5q-125 33 -238 95t-211.5 145t-181.5 183.5t-148 209.5q-27 45 -48.5 87.5t-38 86.5t-27 90.5t-15.5 98.5z" />
    <glyph glyph-name="H" unicode="H" horiz-adv-x="1572" 
d="M-457 289q-8 0 -10 5.5t-1 13t4 14.5t5 10q3 6 9 14t13.5 15t15.5 12t15 6q14 2 28.5 3t28.5 2l30 3l59 5l30 3q45 4 88.5 6.5t88.5 5.5q175 13 348 17.5t348 4.5q-40 71 -82.5 140.5t-84.5 139.5t-83 141t-77 144q-3 6 0 15t6 14q3 7 9.5 16t14 17.5t16.5 14t17 5.5l3 1
q9 0 13 -9q42 -83 90.5 -160.5t94.5 -157.5q47 -81 92.5 -161.5t91.5 -161.5q36 -1 72.5 -2t72.5 -3q63 -3 125 -11t125 -8h4l7 -1h4l-14 28t-15 28l-57 113q-8 14 -14.5 28t-14.5 28q-42 81 -82 161.5t-84 158.5q-4 7 -0.5 15.5t5.5 13.5q3 7 9.5 16t15 17.5t18 14.5
t17.5 6q9 -2 13 -9q2 -3 6 -11l11 -21q2 -3 3 -5.5t3 -5.5q42 -78 81.5 -156.5t80.5 -157.5q35 -69 70 -137t70 -137q0 -2 2 -4q74 -12 146.5 -28t143.5 -39q8 -3 9.5 -9t0 -13.5t-5 -14.5t-6.5 -12t-9.5 -12.5t-14 -14t-15 -11t-14.5 -4.5q-2 0 -2.5 0.5t-1.5 0.5
q-85 28 -176 46q46 -94 91 -187.5t89 -189.5q29 -63 56 -125t55 -125q3 -7 0.5 -15t-5.5 -14q-3 -8 -9.5 -17t-15 -17.5t-18 -14t-18.5 -5.5q-7 0 -12 9q-4 8 -7.5 16t-6.5 16q-26 64 -54.5 125.5t-57.5 123.5q-51 112 -104.5 222t-108.5 220q-103 15 -205 23.5t-205 12.5
q5 -10 10.5 -19t10.5 -19l43 -77q71 -127 139.5 -253.5t137.5 -254.5q15 -28 30 -54.5t29 -55.5q3 -6 0 -14.5t-6 -14.5q-3 -7 -9.5 -16t-15 -17.5t-17.5 -14t-18 -5.5q-9 2 -13 9l-28 56t-31 54l-6 10q-2 2 -3 4l-1 2q-42 67 -101 126.5t-127.5 109.5t-142.5 91.5
t-145 72.5q-7 3 -13.5 6t-12.5 6q-2 0 -4.5 1.5t-3.5 1.5l-11 5q-13 6 -25.5 10.5t-26.5 9.5q-6 2 -12.5 4.5t-12.5 4.5l-50 19q-174 64 -354.5 99t-363.5 58q-30 4 -60 6.5t-60 4.5zM47 326q-8 0 -17 -0.5t-17 -1.5q14 -2 28 -5l28 -6q101 -21 205 -50t206.5 -66.5
t199.5 -84.5t182 -104q7 -5 13 -9l12 -8q-48 88 -96 173.5t-96 172.5q-42 1 -82.5 1.5t-82.5 0.5q-121 0 -241.5 -4t-241.5 -9z" />
    <glyph glyph-name="I" unicode="I" horiz-adv-x="520" 
d="M-259 974q-8 2 -10 8.5t0 14t5.5 15t6.5 11.5q3 5 9 12.5t13.5 14t15.5 11t15 4.5q2 0 2.5 -0.5t1.5 -0.5q13 -4 25.5 -7t25.5 -6q66 -16 129.5 -34.5t128.5 -37.5q72 -21 143.5 -43.5t143.5 -46.5q8 -3 9.5 -9t0 -13.5t-5 -14.5t-6.5 -12q-3 -4 -9.5 -11.5t-14 -14
t-15.5 -11.5t-14 -5q-2 0 -25 7.5t-50.5 16t-51.5 16.5t-29 10q-9 4 -17 5q115 -220 224 -440t211 -446q32 -72 63 -144.5t58 -147.5q66 -8 132.5 -17t132.5 -17q9 -1 10.5 -7.5t0 -14.5t-5.5 -15.5t-6 -11.5q-8 -13 -24.5 -27t-32.5 -14q-35 4 -69.5 8.5t-69.5 9.5
q-124 16 -246.5 30t-247.5 25q-9 1 -10.5 7.5t0.5 14.5t6 16t6 11q8 14 24 27.5t33 13.5q9 -1 17.5 -1.5t17.5 -2.5l69 -6q9 -2 18 -2.5t17 -1.5l58 -6l58 -6q-60 149 -127 292.5t-137 287.5q-38 78 -77 155t-78 155q-40 80 -80.5 159t-83.5 157q-72 21 -144 40.5t-144 39.5
z" />
    <glyph glyph-name="J" unicode="J" horiz-adv-x="752" 
d="M-129 -54q-3 6 0 14.5t6 14.5q16 32 39 43.5t54 20.5q8 2 14.5 4.5t14.5 4.5q0 1 2 1q35 14 72.5 31.5t65.5 42.5q2 1 2.5 1.5t2.5 1.5q2 2 4.5 4t4.5 4l10 10q3 3 5.5 6t4.5 6l2 2l6 9q2 2 2 3q2 5 5 10t5 10q0 3 2 5l3 12q1 2 1 4t1 4q0 4 1 4v7q0 7 1 13.5t0 14.5v15
q-1 3 -1 7q0 35 -16.5 67t-35.5 61q-4 6 -0.5 15t5.5 14q3 6 9.5 15t14 17.5t16.5 14.5t16 6q2 0 2.5 0.5t2.5 0.5q8 -1 13 -9q48 -69 54 -157q2 -36 -6.5 -71t-25.5 -67t-40 -59.5t-50 -50.5q-10 -8 -19.5 -16t-20.5 -15q101 -11 202.5 -42.5t199 -76t189.5 -98t176 -108.5
q-14 21 -26.5 42.5t-25.5 43.5q-139 236 -251.5 483t-199.5 507q-3 9 -5.5 18.5t-4.5 19.5l-105 51l-36 18q-9 5 -17.5 9.5t-17.5 8.5q-13 5 -32.5 15t-31.5 17q-5 3 -4.5 10.5t1.5 12.5q3 11 10 22t15 19l4 4l3 3l3 3q2 1 3 2t3 2q1 1 5 3l2 2q1 0 1.5 0.5t2.5 0.5
q1 1 1.5 1t1.5 1q3 0 4 1h4q5 1 11 -2q55 -28 110 -55q24 -12 48 -24.5t49 -23.5q8 -4 16.5 -8t16.5 -8q1 0 3 -2q50 -24 99 -47.5t100 -46.5q2 -2 3 -4q26 -12 51 -23.5t51 -24.5q6 -3 5.5 -11t-2.5 -12q-3 -9 -9.5 -20t-15.5 -21t-19 -16.5t-20 -6.5q-4 0 -10 2
q-28 13 -55.5 25.5t-54.5 26.5q-38 19 -77 37q16 -44 33 -87.5t34 -86.5q59 -145 125 -286.5t140 -279t158.5 -268.5t180.5 -255q5 -7 4.5 -15t-4 -16t-8.5 -15t-9 -12q-8 -9 -20.5 -19.5t-25.5 -10.5q-5 0 -8 3q-27 26 -57 48.5t-60 45.5q-65 49 -140.5 100.5t-157 99.5
t-167 90.5t-172.5 74.5t-173 50.5t-167 19.5h-25q-2 -1 -9.5 -1.5t-9.5 -0.5q-5 0 -10.5 -1t-11.5 -2q-11 -2 -22 -6t-23 -4q-2 0 -2.5 -0.5t-2.5 -0.5q-9 2 -13 9z" />
    <glyph glyph-name="K" unicode="K" horiz-adv-x="1360" 
d="M1252 363v-4t1 -5q0 -3 0.5 -6t1.5 -7q5 -36 21 -77.5t38.5 -83t48 -79t47.5 -65.5q101 -124 225 -224.5t268 -169.5q6 -3 5 -11t-2 -13q-2 -9 -8.5 -20t-15.5 -20.5t-19.5 -16.5t-19.5 -7q-3 1 -6 1t-5 2q-86 40 -170 97.5t-160 126t-141 146t-113 158.5
q-21 36 -38.5 75.5t-27.5 80.5t-11.5 83t9.5 83q-162 -78 -324.5 -150t-329.5 -138q36 -56 73 -120t71.5 -130.5t63.5 -133.5t50 -129q2 -7 -0.5 -14.5l-4.5 -13.5q-3 -7 -10 -16.5t-15.5 -17.5t-18 -14t-18.5 -6t-12 9q-54 144 -124 281t-155 265l-8 -3q-70 -27 -142 -51
t-143 -48.5t-141.5 -51.5t-137.5 -60q-2 -1 -6 -1q-9 0 -12 8t0 15.5t5 13.5q8 18 22.5 32t32.5 21q4 1 8 3q8 2 12 4l22 9q100 40 200 92q24 13 46.5 28t48.5 26q7 3 14 8q1 0 3 2l22 13q11 8 22 15l22 14q8 5 16 11t16 11q-69 97 -147 187t-160 177q-68 72 -137.5 140
t-138.5 137q-5 5 -5 11.5t2 12.5q2 9 9 20t16.5 21t20 16.5t19.5 6.5q6 0 9 -3q6 -6 12 -12.5t13 -12.5q155 -149 300 -305t273 -330l30 27q8 7 15.5 14.5l15.5 15.5q1 0 3 2q0 1 1 2q2 2 3 4q7 5 17.5 18t14.5 19l4 6q2 2 3.5 4.5t2.5 3.5q2 2 2 4l6 7q0 2 2 4l3 6
q7 9 11 22q2 4 2 5l3 7q1 2 1 4t1 4l4 18q1 2 1 4t1 4v1q0 1 0.5 1.5t0.5 2.5l1 3q0 3 0.5 5t0.5 4q1 5 1.5 9.5t0.5 9.5v39q0 5 -0.5 10.5t-1.5 10.5v6.5t-1 6.5q-4 27 -12 57t-18.5 59.5t-23.5 57t-28 50.5l-21 34q-2 4 -3.5 8t-5.5 8q-2 2 -4 6q-1 0 -2 2t-2 3
q-34 49 -66 88t-71 84q-5 5 -4.5 11.5t2.5 12.5q2 9 9 20t16 20.5t19.5 16.5t19.5 7q6 0 10 -3l46 -27q149 -83 301 -158t312 -133q8 -3 10 -9t0.5 -13.5t-5 -14.5t-6.5 -12t-9.5 -12.5t-14 -14t-16 -11t-15.5 -4.5l-1 1q-114 41 -223 90t-216 105q32 -54 57.5 -111
t38.5 -119q9 -44 9.5 -87.5t-9.5 -87.5q-9 -41 -29 -80t-46 -74t-57 -67t-62 -59q4 -6 7 -9l12 -19q3 -3 7 -9q60 23 119.5 47.5t119.5 49.5q66 27 133.5 51.5t134.5 51t130.5 58.5t120.5 75q7 5 14 5t11 -6q5 -7 3 -16.5t-6 -15.5q-2 -3 -6 -11q0 -2 -1 -3l-6 -18
q0 -2 -1 -3v-5q-1 -1 -1 -3v-2l-1 -1q-1 -6 -1.5 -12t-0.5 -11q-2 -25 1 -45zM345 121q11 4 21 7.5t20 8.5l-6 9l-9 -6l-17 -13z" />
    <glyph glyph-name="L" unicode="L" horiz-adv-x="353" 
d="M-136 -146q-9 1 -10.5 7.5t0.5 14.5t6 16t6 11q10 15 19 23.5t19.5 13t23 5.5t28.5 1q55 0 109 1t108 1h27l55 -2q23 0 45.5 -0.5t45.5 -1.5q-97 182 -187 364t-179 368q-32 68 -64 134.5t-62 135.5q-3 7 0 15t6 14q3 8 9.5 17t15 17.5t17.5 14t18 5.5q8 0 13 -9
q35 -77 70.5 -153t72.5 -152q189 -392 391 -779q149 -9 296.5 -27.5t293.5 -47.5q36 -7 90 -19t116.5 -29.5t127 -39t120.5 -48t98 -56.5t59 -64q3 -6 0.5 -14.5t-5.5 -14.5q-3 -7 -9.5 -16t-15 -17.5t-17.5 -14t-18 -5.5q-7 0 -13 9q-14 22 -39.5 42.5t-55.5 37.5t-61 31
t-55 22q-69 23 -138 45t-140 39q-143 33 -288.5 53.5t-291.5 34.5q35 -63 69 -126.5t72 -124.5q4 -6 0.5 -15t-5.5 -14q-8 -16 -25.5 -34t-36.5 -19q-6 0 -8 2q-6 5 -12 10.5t-13 10.5q-77 60 -159 113.5t-169.5 96.5t-180 73t-189.5 44zM397 -153q-82 6 -167 9
q60 -26 116 -55.5t111 -64.5q-10 17 -19.5 34.5t-18.5 35.5q-10 20 -22 41z" />
    <glyph glyph-name="M" unicode="M" horiz-adv-x="954" 
d="M-227 329q-6 3 -5.5 11t2.5 13q3 9 10 20t16 21t19.5 16.5t19.5 6.5h3q30 -12 57.5 -21t54.5 -15t55 -9.5t61 -3.5h5q5 1 10.5 1t11.5 1q11 2 21 5t21 6q1 0 1.5 0.5t1.5 0.5q4 2 5 2q2 0 9.5 4.5t9.5 5.5q3 2 5 3t4 3t5 4q5 3 8 8h1q2 2 4 4.5t4 4.5q0 1 0.5 1.5
t0.5 1.5q2 2 4 5l4 6q8 17 14.5 32t13.5 30q0 2 1 3q0 2 2 6q4 10 5 15q2 8 5 15t5 15q10 29 17.5 59.5t13.5 60.5q7 51 11.5 100t4.5 99q0 25 -2 49.5t-4 49.5q0 6 -1 9q-2 5 -1.5 8.5t-0.5 8.5t-1.5 9.5t-1.5 9.5q-5 26 -11 53t-11 54q-4 18 7.5 34.5t23.5 28.5
q6 6 14 12.5t16 6.5h4q11 2 14 -8q7 -27 12.5 -54.5t9.5 -55.5q40 -178 97.5 -347.5t122.5 -340.5q18 -48 37 -94.5t39 -93.5q0 23 0.5 46.5t0.5 47.5q0 38 0.5 76t0.5 76v38.5t-2 38.5q-1 10 -1 19t-2 19q-1 5 -1 9.5t-1 9.5v5q-1 3 -1 8q0 12 6 26.5t15 26.5t21 20.5
t24 8.5q8 0 12 -9q22 -51 44 -99.5t47 -97.5q21 -42 43 -83t44 -83q93 -174 172.5 -359.5t136.5 -373.5q2 -8 0 -15.5t-5 -13.5q-3 -8 -9.5 -17t-15 -17t-17.5 -13.5t-18 -5.5q-10 -2 -13 8q-3 11 -7 22l-8 22q-62 188 -138 361.5t-168 348.5q-20 38 -39 74.5t-39 74.5
q-1 -54 -0.5 -107t0.5 -107q0 -19 2 -37.5t2 -37.5q0 -5 0.5 -9.5t0.5 -9.5q0 -2 0.5 -4.5t0.5 -4.5v-2l1 -2q8 -95 40 -180q4 -10 -2.5 -24t-17 -27t-23.5 -22t-23 -9q-10 2 -12 9q-29 69 -59.5 137.5t-59.5 137.5q-65 153 -122.5 307t-108.5 313q-11 -63 -31.5 -136
t-55.5 -137.5t-86 -112t-122 -59.5q74 -52 150.5 -122t145.5 -149t126 -163.5t94 -167.5q3 -7 0 -15.5t-6 -13.5q-4 -7 -10.5 -16.5t-14.5 -17.5t-17 -14t-18 -6q-9 2 -13 9q-58 117 -135 222.5t-170 197.5t-199.5 168t-223.5 133z" />
    <glyph glyph-name="N" unicode="N" horiz-adv-x="1362" 
d="M908 -150q-88 144 -174 288.5t-166 293.5q-24 -67 -68.5 -123.5t-100.5 -101.5t-120.5 -79.5t-127.5 -59.5q5 -1 10 -1t10 -1q204 -26 399.5 -95.5t370.5 -175.5q-8 14 -16.5 27.5t-16.5 27.5zM1447 57q51 -100 102 -199t111 -194q4 -6 0.5 -15t-5.5 -14q-3 -8 -10 -17
t-15.5 -17t-18 -13.5t-18.5 -5.5q-6 0 -8 2q-272 248 -523 510t-486 545q99 -193 208 -378t222 -370q41 -66 82.5 -131.5t76.5 -134.5q3 -6 -0.5 -14.5t-5.5 -14.5q-3 -8 -9.5 -17t-15.5 -17t-18.5 -13.5t-17.5 -5.5q-4 -2 -8 2q-68 66 -154 124t-182 107.5t-199.5 88.5
t-208 66t-207 41.5t-195.5 14.5q-22 0 -43 -1t-43 -1q-8 0 -12 -1h-4h-2q-5 0 -10.5 -0.5t-10.5 -1.5q-11 -1 -21.5 -2.5t-21.5 -1.5h-4q-7 0 -10.5 3.5t-4 9.5t1 12.5t4.5 11.5q3 7 9.5 15.5t14 16t16 13.5t16.5 7q86 12 168.5 30t164.5 45q5 2 8.5 3t7.5 2q3 2 9 4
q22 9 43.5 18.5t43.5 19.5q13 6 25 14t26 13q2 1 3.5 2t3.5 2l4 2q2 2 3 2.5t2 1.5q17 11 32.5 22t31.5 23l3 3q6 4 9 7q5 5 9 8.5t9 8.5q6 6 8 9h1q3 4 6.5 7.5t7.5 8.5l12 15q0 1 0.5 1t0.5 1q2 2 3 4t3 4q2 5 5 8.5t5 8.5q4 5 7.5 14t5.5 14q1 1 1 1.5t1 1.5l2 6
q3 9 5.5 18.5t4.5 18.5v3q2 6 2 9v10t1 10q1 10 0.5 19t-1.5 19v4q-1 3 -1 5.5t-1 4.5q-5 26 -14 49.5t-20 46.5q-8 15 -14 28t-13 27q-37 77 -70 155t-68 156q-3 7 -0.5 14.5t5.5 14.5q4 8 11 17t15.5 17t17.5 13.5t18 5.5q5 0 8 -3q6 -9 12.5 -17.5t12.5 -16.5
q170 -223 350 -434t374 -414q65 -68 131 -133.5t133 -132.5l21 -21q-16 31 -32 61.5t-32 61.5q-85 165 -163 330.5t-156 333.5q-25 54 -48.5 107.5t-48.5 106.5q-8 16 -15.5 31.5t-13.5 32.5q-2 6 -5 12l-6 12q-2 1 -4 5q-2 7 0.5 14.5t5.5 14.5q3 6 10 15.5t16 17.5
t18.5 14t16.5 6q2 0 4 -1t5 -3t5 -6.5t4 -7.5q2 -5 4 -9.5t4 -9.5q8 -16 15 -32t15 -33q103 -232 210.5 -459t223.5 -453z" />
    <glyph glyph-name="O" unicode="O" horiz-adv-x="865" 
d="M-45 418q-17 61 -27 124.5t-8 126.5t17.5 121t53.5 109q13 29 34 50t46.5 35.5t55 21.5t59.5 7q45 0 89 -16t85.5 -42.5t80.5 -60.5t73.5 -71.5t64.5 -75t54 -70.5q55 -76 97.5 -147t76.5 -144.5t59.5 -153.5t46.5 -173q12 -55 19.5 -110.5t5.5 -111.5
q-2 -54 -19.5 -103.5t-57.5 -89.5q-37 -37 -87 -57.5t-102 -20.5q-33 0 -66 8.5t-64 23t-60 33.5t-54 39q-52 42 -102.5 96.5t-97.5 116.5t-89 130t-77 137t-62.5 137.5t-44.5 130.5zM1 722q-1 -19 1 -38t2 -38v-8q1 -4 1.5 -7t0.5 -6q0 -6 1.5 -17t4 -23t5 -23.5t3.5 -17.5
q29 -129 84 -249t128 -229q39 -58 80.5 -114t89 -106t102 -92.5t118.5 -74.5q23 -11 51 -16.5t53 -6.5q2 -1 4.5 -0.5t4.5 0.5h5q17 0 42 8t39 16l1 1q2 0 2 1l2 1q4 2 7.5 5t6.5 5q4 6 5 8q2 5 3 10t3 10q2 8 2 11q1 2 1 4q2 20 3 39.5t1 39.5q0 2 -0.5 10t-1 17t-1.5 16
t-1 8v2q-5 53 -17 109.5t-28.5 113t-36 111t-40.5 102.5q-23 54 -60.5 121t-85 135.5t-103.5 134t-116 116t-122 81.5t-121 31l-3 -1h-2h-5q-2 0 -4 -1h-7q-1 -1 -4 -1q-8 -11 -18 -20.5t-23 -15.5q0 -2 0.5 -7.5t1.5 -7.5q6 -46 29.5 -99.5t58.5 -108.5t78.5 -107t90.5 -95
t94.5 -72.5t89.5 -39.5q8 -2 10 -8.5t0 -14t-5.5 -15t-6.5 -11.5q-8 -13 -25 -27.5t-32 -14.5q-46 13 -92.5 40.5t-90 65t-83.5 83t-73.5 93t-59.5 95t-42 89.5z" />
    <glyph glyph-name="P" unicode="P" horiz-adv-x="1266" 
d="M-537 827q-11 3 -11 13q0 11 6.5 24.5t17 25t22.5 19.5t24 8q36 0 72 -3t73 -3q137 0 273 6t274 6h42q-2 4 -6 14.5t-8.5 22t-8 22t-3.5 13.5q0 10 6.5 22.5t16.5 24t22 20t22 8.5q9 0 13 -9q17 -33 28.5 -69.5t25.5 -71.5q65 -2 138 -7.5t147.5 -17.5t147.5 -32.5
t138 -52.5t118.5 -78t89.5 -108q34 -59 53 -123.5t19 -133.5q0 -78 -26.5 -154.5t-74 -140.5t-113.5 -110t-144 -63q4 -7 17 -29.5t30 -53t36.5 -63.5t35.5 -61.5t26.5 -47t10.5 -19.5q0 -10 -7 -23t-17 -24.5t-22 -19.5t-22 -8q-5 0 -7.5 2.5t-4.5 5.5q-57 77 -101.5 163.5
t-89.5 171.5q-10 1 -36.5 7t-54 15.5t-49 20.5t-21.5 22q0 10 6.5 23.5t16 25.5t21.5 20t22 8q7 0 13 -4t12 -7q-16 30 -31 61t-32 61q-25 45 -58.5 88.5t-66.5 81.5q-109 128 -242 223.5t-287 162.5q-90 39 -184.5 64.5t-191.5 43.5q-29 5 -58 8.5t-58 8.5zM1055 565
q-48 74 -125 122t-167 76.5t-184 42t-175 19.5q57 -134 116.5 -264.5t125.5 -258.5q11 -20 20.5 -41t20.5 -41q34 -59 66.5 -117t59.5 -121q6 -1 12 -1h13q59 0 107.5 19.5t86 53.5t62.5 81.5t35 102.5v-1q6 35 6 70q0 68 -21.5 134.5t-58.5 123.5zM-79 828
q138 -48 263.5 -120t234.5 -169q-33 72 -64.5 144.5t-62.5 146.5q-67 3 -137 3q-59 0 -117 -1.5t-117 -3.5z" />
    <glyph glyph-name="Q" unicode="Q" horiz-adv-x="891" 
d="M-78 558q-5 42 -6 84.5t5 84.5q8 59 33 115.5t65 100.5t93.5 71t117.5 27q42 0 80 -12t73 -31.5t67.5 -45t62.5 -51.5q5 -5 5 -11.5t-2 -12.5q-3 -13 -17.5 -31t-26.5 -25q134 -96 236.5 -221.5t156.5 -282.5l1 -2q21 -61 33 -121q16 -83 12 -167t-35 -163
q-13 -32 -32 -61.5t-44 -52.5q-1 -2 -2 -2.5t-2 -1.5q45 -2 99.5 -6t111.5 -12.5t114 -22.5t107.5 -35t91 -50.5t65.5 -69.5q4 -6 4 -11.5t-2 -12.5q-2 -9 -9 -20.5t-16 -21t-20 -16t-21 -6.5q-5 0 -8 3q-28 45 -76 76.5t-106.5 53t-124.5 34t-131.5 18.5t-126 8t-107.5 2
q-32 0 -63 -1t-63 -3q-15 -1 -29.5 -1.5t-29.5 -1.5h-7h5q-2 0 -3 -0.5t-3 -0.5l-14 -1q-51 -4 -102.5 -8.5t-102.5 -11.5q-17 -2 -34.5 -6t-34.5 -4h-5q-13 -1 -13.5 10t3.5 21q14 36 48 55h1q21 12 41 24.5t41 23.5q2 1 3.5 2t3.5 2q17 10 31.5 19t29.5 19q5 3 9.5 6
t9.5 6q-71 57 -131 124t-111 141q-79 114 -130 231.5t-69 255.5zM-2 758q-1 -13 -1.5 -25.5t-0.5 -25.5q0 -14 1.5 -27t1.5 -26q0 -4 0.5 -7.5t0.5 -6.5q0 -2 0.5 -4t0.5 -4q0 -7 1 -13.5t3 -13.5q12 -57 25.5 -112t35.5 -109q30 -73 72 -144.5t93 -137.5t109.5 -124.5
t119.5 -106.5q18 13 35.5 25.5t34.5 25.5l24 18t24 19q5 5 10.5 8.5t10.5 8.5q2 2 3 2.5t3 2.5l10 9q22 20 43.5 39t41.5 40q25 25 43 50l3 3q1 2 2 3t2 3q3 5 6.5 9.5t6.5 9.5q2 2 2.5 4t2.5 4l5.5 11t4.5 10q1 2 1.5 3.5t1.5 3.5v2l6 18v2q0 2 0.5 4t0.5 4v17v5q0 4 -1 6
q-38 109 -100 206q-39 61 -91.5 118t-112.5 108t-125 93.5t-128 74.5q-6 3 -5.5 10.5t2.5 12.5q5 17 22 37.5t34 25.5q-1 1 -2 1t-2 1q-16 6 -29.5 10t-26.5 6.5t-27.5 4t-33.5 1.5q4 0 1.5 0t-4.5 -1q-8 -2 -17 -3t-18 -3q-5 -1 -9 -2t-9 -3q-4 -1 -15 -6t-13 -7
q-1 -1 -1.5 -1t-1.5 -1q-10 -5 -16 -11l-7 -7q-1 0 -3.5 -3t-5.5 -6.5t-5.5 -7t-2.5 -4.5q-1 -2 -2 -3.5t-2 -3.5l-2 -2q-2 -5 -4.5 -10t-4.5 -10q0 -1 -0.5 -1.5t-0.5 -1.5q-9 -27 -15 -54q0 -2 -1 -2v-2q-2 -9 -3 -18.5t-2 -18.5zM816 137q-28 -45 -64 -85.5t-75.5 -77.5
t-82.5 -70.5t-85 -64.5q25 -16 48 -27.5t46 -18.5t48.5 -10t55.5 -3h-3h4h5q11 2 22 4.5t22 5.5q-2 0 2.5 1.5t6.5 2.5q3 2 5.5 2.5t5.5 2.5l2 1q2 1 5 4l3 3q4 7 8 12q0 2 2 4q2 5 4 8.5t4 8.5q0 1 2 5l2 6q5 14 10 32q2 5 2.5 11t2.5 11v3q1 3 1 5.5t1 4.5q4 11 4 23.5
t1 24.5t1 24.5v24.5q0 8 -1 14.5t-1 14.5q0 3 -0.5 6.5t-0.5 6.5v7q-4 39 -13 73zM411 -229q-17 -12 -34.5 -23.5t-34.5 -22.5q32 4 62.5 7t62.5 5l-28 16t-28 18z" />
    <glyph glyph-name="R" unicode="R" horiz-adv-x="1073" 
d="M-756 500q-29 40 -24 87t28 88q32 58 78 104t102 81q46 29 104.5 52t123.5 40.5t133.5 30t135.5 20.5t129.5 11.5t115.5 3.5q71 0 144.5 -5t145.5 -18.5t140.5 -38t129.5 -62.5q25 -15 49 -34t45 -41.5t36.5 -48t22.5 -55.5q7 -28 5.5 -56t-8 -55t-18 -52.5t-25.5 -49.5
q-17 -29 -35.5 -55.5t-38.5 -52.5q-26 -35 -52.5 -69.5t-53.5 -68.5q40 19 81.5 35t83 31.5t83 32t81.5 36.5q2 1 5 1q7 0 10 -5t3 -12q0 -6 0.5 -12t1.5 -12q0 2 0.5 -2.5t0.5 -6.5q0 -5 2 -13q3 -14 5.5 -26.5t6.5 -25.5q18 -64 55 -129t86 -127t107.5 -119.5t120.5 -108
t124.5 -91.5t119.5 -69q6 -3 5.5 -11t-2.5 -13q-3 -9 -9 -20t-15 -21t-19 -16.5t-20 -6.5q-3 1 -5.5 1t-5.5 2q-65 32 -136 79.5t-140 106.5t-132 127t-112 140.5t-80.5 147.5t-37.5 147q-14 -5 -27 -9.5t-27 -9.5h-2q-4 -2 -5 -2q-86 -35 -169.5 -73t-167.5 -78
q6 -15 12 -30.5t12 -30.5q20 -50 40 -98.5t42 -97.5q34 -57 64 -115.5t59 -118.5q3 -6 0 -14t-5 -15q-3 -7 -9.5 -16t-15 -17t-17.5 -13.5t-17 -5.5q-10 0 -14 8q-33 57 -64.5 114.5t-58.5 117.5q-54 90 -117 172.5t-140 154.5q-27 25 -60 51.5t-68.5 51t-72.5 44.5t-72 33
q-4 3 -6 3l-9 4q-5 2 -9.5 3.5t-9.5 3.5q-151 50 -303 71q-73 10 -145 17.5t-144 23.5q-21 5 -42.5 10t-42.5 13.5t-39 21t-31 30.5zM-700 644q-1 -5 -0.5 -10t0.5 -10q1 -3 1 -5t1 -4q2 -5 3 -9t3 -9l1 -2l2 -4q1 -2 3 -5q12 -17 25.5 -27t31.5 -19q2 0 4 -2h2
q12 -5 23.5 -8.5t22.5 -6.5q34 -9 68 -14.5t69 -10.5q72 -10 143.5 -18.5t143.5 -21.5q84 -15 158 -39t142 -58.5t131 -81t123 -106.5q-7 16 -13 31.5t-12 32.5q-42 110 -95.5 214.5t-116.5 204.5q-9 14 -0.5 30.5t17.5 27.5q8 10 20 20t26 10q6 0 9 -3q43 -53 73.5 -113
t59.5 -122q38 -78 70 -158t64 -161l4 2q7 3 23 15.5t32 26.5t28 25.5t12 12.5q-1 -1 -1 -2q2 3 5 5q1 1 5.5 6t10 11.5t10 12.5t5.5 7q11 14 21 28t23 27q2 2 4 6q0 -1 -2 -3l-1 -1q0 1 1 2l4 4q3 4 5.5 6.5t4.5 6.5q15 22 30.5 43t30.5 43q7 10 14 22l6 9q0 1 2 5
q9 16 15 31q2 5 2 6v0q2 5 4.5 10t2.5 12q0 2 2 8q1 2 1 4v1q-1 0 -1 -2v1q3 25 2 45q-1 3 -1 7q0 2 -1 5t-1 5q-2 11 -6.5 22t-9.5 21q-2 3 -3 5.5t-3 5.5q-1 2 -1.5 2.5t-1.5 2.5q0 1 -2 3q-16 24 -39 46t-49.5 41.5t-54.5 35t-53 26.5l-2 1q-1 0 -1.5 0.5t-1.5 0.5
q-2 1 -5 2q-8 5 -17 8t-18 5q-57 15 -113 28.5t-115 20.5q-48 5 -96 8t-97 3q-140 -1 -277 -21.5t-272 -57.5q-8 -2 -16.5 -4.5t-16.5 -5.5q-5 -2 -8.5 -2.5t-7.5 -2.5l-6 -3q-14 -5 -35 -15t-42.5 -21t-40 -23t-25.5 -22q-5 -5 -10.5 -9t-10.5 -9q-6 -6 -9 -10l7 7
q-9 -9 -17 -18.5t-14 -21.5l2 4q-2 -3 -3 -5.5t-2 -4.5q-2 -5 -5 -10q-2 -5 -3 -10t-3 -10q0 -2 -0.5 -4.5t-0.5 -4.5z" />
    <glyph glyph-name="S" unicode="S" horiz-adv-x="1540" 
d="M-64 685q-17 11 -32 26t-12 38q5 32 26 59t47 44q25 16 57 26t65.5 15.5t67 7.5t62.5 2q166 0 332.5 -37t318.5 -100q-47 51 -95 100t-93 102q-5 5 -5 11.5t2 12.5q2 9 9 20t16.5 21t20.5 16.5t20 6.5q5 0 8 -3q21 -25 43.5 -48t44.5 -46q78 -85 157.5 -166.5
t154.5 -168.5q5 -5 5 -11.5t-2 -12.5q-2 -8 -9 -19t-16.5 -21t-19.5 -17t-19 -7q-5 0 -10 3q-59 36 -119 69.5t-125 56.5q-90 33 -172.5 60t-165.5 46.5t-169.5 30t-184.5 10.5h-16q-2 1 -4.5 0.5t-4.5 -0.5l-13 -1h-2h-2h-2q-11 -2 -21 -2.5t-21 -2.5q-39 -5 -73 -15l-4 -2
q2 -1 5 -4q22 -21 51.5 -34t57.5 -25l-6 3q21 -9 41.5 -17t42.5 -16q55 -20 110 -39.5t111 -38.5q138 -47 274 -94t273 -100q68 -26 156.5 -62t182 -81t184.5 -99t163.5 -116t119.5 -132.5t52 -148.5q2 -22 -5.5 -42.5t-18.5 -38.5q-33 -53 -92.5 -82t-128.5 -43.5
t-139.5 -17.5t-124.5 -3q-66 0 -132 3q-72 4 -143 11.5t-143 18.5q-38 6 -91.5 15.5t-114.5 22.5t-126.5 30.5t-128.5 39.5t-120.5 48t-102.5 56.5t-74.5 65t-35.5 74.5q-6 34 2.5 67t26.5 62t43 53t53 41q66 41 142 60.5t152 28.5q47 5 93 8t94 3q63 0 129 -5t131.5 -15
t129 -25.5t122.5 -37.5q10 -4 10 -16q0 -18 -14 -36t-28 -28q-3 -2 -10.5 -6.5t-13.5 -4.5q-1 0 -1.5 0.5t-1.5 0.5q-121 49 -253 65.5t-261 16.5q-52 0 -105 -3h-4l-26 -2q-59 -5 -116 -15.5t-112 -30.5q-4 -2 -6 -2q-8 -4 -13 -6t-13.5 -6t-17.5 -8.5t-16.5 -9t-10.5 -7.5
q-2 -2 -3 -2.5t-3 -2.5l-2 -2l-6 -6l-4 -4l-4 -8l-3 -9q0 -3 -1 -4q0 -5 -1 -8q-1 -5 -0.5 -9.5t0.5 -9.5q0 -2 0.5 -3t0.5 -3q5 -23 17.5 -43t29.5 -36q39 -37 87 -65t99.5 -50t105 -39t104.5 -31q146 -41 300 -66t305 -32q48 -2 95 -2.5t95 -0.5q11 0 22 -0.5t22 1.5
q5 1 11 1h11q23 0 55 3.5t65.5 10t64 15t51.5 18.5q8 4 11 6q1 1 1.5 1t1.5 1q3 1 7 5q0 1 1 2v9q0 3 -0.5 6.5t-0.5 6.5v2q0 34 -14.5 63t-32.5 57q-39 61 -105.5 117.5t-149 108t-175.5 97t-184.5 84.5t-176 71t-150.5 55q-121 43 -241 84.5t-241 83.5q-47 16 -93 33
t-91 34q-33 13 -65.5 27t-62.5 33z" />
    <glyph glyph-name="T" unicode="T" horiz-adv-x="682" 
d="M-932 1091q-5 5 -5 12t2 12q3 9 9.5 19.5t15.5 20.5t19.5 16.5t19.5 6.5q5 2 10 -2q18 -9 35.5 -17t35.5 -16q143 -65 297 -118t315.5 -93.5t327 -69.5t330.5 -48t327.5 -28t317.5 -9h55t55 1q24 1 48 0.5t49 2.5q6 1 12.5 1t12.5 1h7h-3q5 0 9 -1t6 -7q2 -7 0 -14.5
t-5 -14.5q-8 -17 -22.5 -31t-32.5 -21q-3 -1 -13 -5t-22 -8t-21.5 -7t-11.5 -3q-10 0 -12 8q-1 4 -1 11q-22 -1 -44 -1.5t-44 -1.5q-23 -1 -45.5 -1h-45.5q-70 -1 -139.5 2t-138.5 7q-100 5 -197.5 13.5t-195.5 20.5q116 -196 213.5 -400t188.5 -413q22 -51 42.5 -101
t42.5 -101q8 -20 16 -39.5t16 -38.5q3 -7 0 -14.5t-5 -14.5q-3 -7 -10 -16t-16 -17.5t-18.5 -14.5t-17.5 -6q-8 2 -12 9v2q-11 23 -20 47t-19 48q-22 54 -45 107t-46 107q-49 112 -100 224t-105.5 222.5t-114.5 218t-126 209.5q-213 31 -420.5 79t-409.5 120
q81 -70 158 -141t152 -146q5 -5 5 -11.5t-2 -12.5q-2 -9 -9 -20t-16.5 -21t-20 -16.5t-19.5 -6.5q-6 0 -9 3q-142 138 -288 267t-302 250z" />
    <glyph glyph-name="U" unicode="U" horiz-adv-x="1573" 
d="M-420 232h-3q-16 0 -15 13t6 24q8 17 22.5 32.5t32.5 20.5q58 17 117 26.5t119 14.5q5 2 10 3.5t10 3.5q6 2 7 3t2 1l8 2q1 0 1 0.5t1 0.5q20 8 39 17.5t38 20.5q-1 -1 -1.5 -1t-1.5 -1q1 0 8 4.5t15.5 10.5t15.5 11.5t8 6.5q10 8 21.5 17t19.5 20q5 5 9 11t9 11
q6 6 8 10t6.5 11t9.5 14t9.5 13.5t7.5 10.5q2 3 4.5 6.5t4.5 7.5t3 5q11 19 22 41t18 43q2 5 4.5 11t5.5 12l-1 -1q1 2 1 4q32 80 51 164t34 169q2 8 9 19t16.5 21t20 17t19.5 7q10 0 13 -9q26 -72 61.5 -166t78.5 -199.5t93 -218t106 -222.5t116.5 -212.5t125 -188
t132.5 -149t137 -95.5q2 -1 3 -1l4 -2q23 -8 44 -13.5t45 -5.5h22q4 0 6 1q17 2 32 6q2 0 3 0.5t2 0.5l10 5l5 3q1 2 3 4t5.5 9t4.5 10l3 7q0 1 0.5 1.5t0.5 1.5l-4 -8l2 4t2 3.5t1 3.5q5 11 7.5 22.5t4.5 22.5q0 4 1 5q5 26 7 54t2 54q0 48 -1 94.5t-8 93.5v5q-1 1 -1 3v2
l-1 4v2q0 11 -1.5 23t-3.5 23q-15 117 -39 231.5t-52 228.5q-18 73 -38.5 145t-40.5 146q-8 29 -17 59t-18 59q-5 17 7 35t23 28q5 5 16 12t21 7q8 2 11 -8q1 -2 1 -4q12 -35 23 -70.5t22 -70.5q25 -78 52 -154.5t56 -152.5q36 -97 73 -192t79 -189q42 -95 85 -187.5
t96 -181.5q12 -20 23 -40.5t25 -38.5q2 -3 3.5 -6t3.5 -5q7 -12 15 -22q7 -9 12.5 -18t11.5 -17q23 -31 46.5 -60.5t52.5 -54.5q5 -5 5 -11.5t-2 -12.5q-2 -9 -9 -20t-16.5 -20.5t-20.5 -16.5t-20 -7q-5 0 -8 3q-38 33 -77 84t-77 111t-74.5 126.5t-68.5 131.5t-58.5 125
t-45.5 107q-4 10 -6 14q2 -8 3 -16.5t2 -16.5q8 -83 15 -167.5t-4 -168.5q-7 -52 -23.5 -101.5t-45.5 -88.5t-71.5 -62t-101.5 -23q-60 0 -114.5 24.5t-103.5 63t-90.5 85t-75.5 90.5q-45 60 -92 116.5t-101 107.5q-157 147 -346.5 210.5t-404.5 63.5q-26 0 -51 -1t-51 -3
q-57 -17 -115.5 -27t-117.5 -15zM21 380q-4 -3 -7.5 -6t-8.5 -6q77 -1 157 -12.5t159 -33t152.5 -54.5t136.5 -77q-2 3 -3 6.5t-3 6.5l-13 25q-2 5 -6 13q-76 161 -145 323t-132 330q-17 -69 -43 -141t-61 -140t-80.5 -128t-102.5 -106z" />
    <glyph glyph-name="V" unicode="V" horiz-adv-x="1554" 
d="M1541 200q35 -72 69.5 -145.5t71 -145.5t76.5 -141.5t87 -135.5q4 -5 0.5 -14t-5.5 -15q-3 -7 -9.5 -16t-15 -17.5t-18 -14t-18.5 -5.5q-6 0 -9 3q-7 6 -13.5 12.5l-12.5 12.5q-65 61 -128 122t-127 123q-42 41 -85 80.5t-85 81.5q-24 24 -58 49t-71 47.5t-74 42.5
t-69 34l-16 8t-16 7q-1 1 -2 1t-2 1l-9 4q-4 2 -5 2l-9 3q-2 2 -4 2q-190 79 -390.5 115t-406.5 36h-42.5t-42.5 -1q-68 -2 -138 -3t-139.5 -7.5t-137 -21.5t-128.5 -46q-2 -1 -6 -1q-7 0 -9.5 4.5t-2.5 10.5t1.5 12.5t3.5 10.5q8 17 23 32.5t33 20.5q57 14 113 30t110 36
l4 2h3q4 2 6.5 2.5t5.5 2.5l21 9q26 11 60.5 25.5t58.5 30.5q9 6 17 10q0 1 2 1q1 1 5 3q14 9 27.5 18.5t27.5 20.5q1 1 4 3q8 6 16 14t15 16q8 6 10 10q4 6 8 10q4 5 7 9t5 9q0 2 3 5l2 4l9 19l3 9q2 5 2.5 9.5t2.5 9.5q1 2 1 3.5t1 3.5v3q3 17 3 35q0 4 -0.5 8t-0.5 9v9
q-4 29 -16.5 63t-29.5 58q-1 1 -1 2q-1 1 -3 4.5t-3 3.5l-4 6l-2 2q-5 6 -5 13t2.5 14t7 14t7.5 11q7 10 21.5 23.5t28.5 13.5q1 -1 3 -1l49 -21q162 -70 319.5 -170.5t306.5 -216.5t288.5 -241t266.5 -244l2 -2q49 -46 97 -92t96 -93q-74 141 -142 282.5t-132 286.5
q-66 149 -126 297.5t-123 297.5q-4 10 2 24t17.5 27t24.5 22t22 9t12 -8q96 -234 193.5 -464t207.5 -458zM218 428q194 0 377 -27t366 -93q-84 72 -171.5 141.5t-178 134t-185.5 123t-194 107.5l3 -33q2 -48 -12.5 -94t-40.5 -87q-38 -60 -92 -106t-115 -81q61 7 121.5 11
t121.5 4z" />
    <glyph glyph-name="W" unicode="W" horiz-adv-x="1762" 
d="M-212 541q118 -3 244 -9.5t251 -24.5t244 -51t223 -90q-11 17 -23 33t-23 33q-82 116 -162 232.5t-157 236.5q-3 -5 -6 -9.5t-6 -9.5q-28 -44 -69.5 -82t-91 -71t-104.5 -61t-110.5 -51t-109 -42t-100.5 -34zM1809 94q70 -136 143.5 -267t154.5 -260q4 -6 0.5 -15
t-5.5 -14q-3 -7 -10 -16.5t-15.5 -18t-18 -14.5t-17.5 -6q-2 1 -4.5 1.5t-4.5 2.5q-46 45 -92 88t-92 87q-131 124 -257.5 248.5t-250.5 255.5q21 -153 44.5 -304.5t38.5 -305.5q1 -8 -5.5 -20.5t-16 -24.5t-21.5 -20.5t-22 -8.5q-9 0 -15 9q-93 149 -189.5 294t-197.5 289
q-4 0 -6 2q-76 76 -163 139.5t-187 103.5q-2 1 -2.5 1t-2.5 1l-6 3q-4 2 -7 2.5t-6 2.5q-82 31 -166 51.5t-171 33.5q-98 14 -199.5 22t-204 12t-204.5 5t-201 1q-8 0 -10 5.5t-0.5 13t4 14.5t4.5 10q8 14 22 29t31 18q76 15 163.5 35.5t175.5 47t170.5 58.5t149.5 70
q12 7 23.5 14t24.5 13q4 2 6 4q18 9 36.5 21t32.5 26q2 2 2.5 2t2.5 2t3 2.5t3 2.5q4 4 7.5 7t7.5 7q2 2 4.5 4t4.5 4q2 4 5.5 6.5t5.5 6.5q1 2 2.5 3t2.5 3q2 4 4.5 7t4.5 7q8 15 11 29q0 3 1 4v3q1 4 1 8v9v7q0 3 -1 4q-1 8 -3 15l-4 14q-3 9 2.5 23t16 27t23 22.5
t22.5 9.5t15 -8q49 -79 99.5 -155.5t103.5 -153.5q100 -146 200.5 -288t201.5 -287q77 -110 152.5 -220.5t148.5 -223.5q-20 137 -39.5 273t-34.5 275q-1 7 4 17t9 15q4 6 10.5 13t14 14t15 11.5t14.5 4.5q3 -1 5 -1.5t4 -2.5q43 -47 85.5 -93.5t87.5 -91.5
q85 -88 171.5 -172t174.5 -169q-141 251 -259 515.5t-194 543.5q-2 8 0.5 17t7.5 17.5t11.5 16t11.5 12.5t15.5 12t20.5 7q9 0 12 -9q66 -228 153 -442t196 -425z" />
    <glyph glyph-name="X" unicode="X" horiz-adv-x="1181" 
d="M1839 -411q6 -5 5.5 -13.5t-4.5 -17t-9.5 -16t-8.5 -11.5q-5 -7 -18.5 -18.5t-25.5 -11.5q-5 0 -10 3q-209 168 -412 339t-407 346q-17 -73 -38 -145t-47 -143q-20 -55 -41 -109t-47 -107q-7 -14 -14.5 -27.5t-12.5 -27.5q-3 -10 -10 -23t-16 -24.5t-20 -19.5t-23 -8h-3
q-11 3 -11.5 11t1.5 16q3 10 7.5 19l8.5 17l14 30l14 30q11 23 21 46t19 46q3 8 6.5 14t5.5 14q1 3 3 8.5t1 4.5q2 4 3 7q37 97 66.5 194.5t49.5 198.5q2 8 3 14.5t3 13.5q-234 204 -462 409t-454 417q-39 -70 -93.5 -124.5t-119 -95.5t-136.5 -70.5t-148 -49.5
q8 -2 14.5 -2.5t13.5 -1.5q195 -29 383.5 -75.5t373.5 -114.5q61 -22 124 -47.5t125 -55.5t120 -65t108 -77q6 -5 5.5 -13.5t-4.5 -17t-9.5 -16t-8.5 -11.5q-5 -7 -18.5 -19t-25.5 -12q-6 0 -10 4q-48 43 -104 75.5t-113 60.5q-104 51 -221.5 95t-242 80.5t-254.5 65
t-258.5 48t-253.5 30t-240 10.5q-9 0 -10.5 6.5t1 15t6 16.5t5.5 11q8 14 23.5 27.5t33.5 14.5q67 0 142.5 4.5t151.5 14.5t148.5 26.5t134.5 41.5q1 1 2 1t2 1q20 6 39 14.5t37 17.5q12 6 24 11t23 13q4 3 12 7l1 1q1 1 2 1q6 4 11.5 7.5t11.5 7.5q10 7 19.5 14t19.5 15
q4 4 5 4l-2 -2l2 2q2 2 4 3.5t4 3.5q5 5 9 8.5t9 8.5q6 6 10 9q5 5 8.5 10t8.5 10q2 2 4 5t4 5q0 1 0.5 1t0.5 1q5 6 11 14.5t10 16.5l4 8l-1 -2l-1 -2l-1 -1l3 4q1 5 3 6q2 2 2.5 4.5t2.5 5.5q6 13 11 25q0 -1 0.5 -0.5t1.5 4.5q3 11 9.5 24t16 24.5t21 19.5t23.5 8
q5 0 8 -3q223 -209 446 -411t454 -402q11 65 17 130t9 131q3 62 3.5 123t-2.5 123q-2 32 -3.5 64.5t-4.5 64.5q-1 8 -1 16.5t-2 16.5q-1 4 -1 7.5t-1 7.5v3v2q-1 3 -1 9q-2 17 -4.5 33.5t-4.5 33.5q-2 19 9 34t22 29q8 8 15.5 13.5t18.5 5.5q5 1 9 -1t5 -7q2 -17 4 -32.5
t4 -32.5q14 -125 18 -249.5t-5 -250.5q-6 -83 -16.5 -165t-26.5 -163q214 -186 429 -366t435 -358z" />
    <glyph glyph-name="Y" unicode="Y" horiz-adv-x="1695" 
d="M-282 424q-8 0 -10 5.5t-1 13t4 14.5t5 10q3 6 9.5 13.5t14 14.5t15 12t14.5 6q16 2 31.5 3.5t32.5 1.5q29 0 58 8.5t56 18.5q2 0 2.5 0.5t1.5 0.5q2 1 3.5 1.5t3.5 1.5q13 5 25 10.5t24 11.5q5 2 9 5t9 5q2 1 3.5 2t3.5 2q14 9 28.5 19t25.5 21q4 4 6.5 8.5t7.5 6.5
q2 1 9 10t9 11l3 3l-4 -4l2 2q1 1 1.5 2t2.5 3q6 8 11 17l5 9q11 17 19 39l2 4l3 9q8 24 13 46q2 8 2 11q1 2 1 5q10 58 7 114t-14 113q-3 17 6 32t20 26q8 9 18.5 16.5t22.5 7.5q5 0 8 -3q28 -38 54.5 -77.5t52.5 -79.5q61 -94 122.5 -187t127 -183.5t135 -177.5
t146.5 -169q4 -2 5 -5q41 -43 82.5 -84t86.5 -81q3 31 6.5 61t5.5 61q9 114 14.5 228t4.5 228.5t-9 228.5t-27 227q-3 18 7.5 35t23.5 28q6 5 14 11.5t16 6.5h4q5 1 9.5 -1t4.5 -7q0 -2 0.5 -3t0.5 -3q0 -35 14 -68t26 -65q23 -64 49 -126.5t56 -123.5q82 -164 187 -317
t228 -292.5t261.5 -264t286.5 -230.5q5 -4 5 -11t-2 -12q-2 -9 -9 -20t-16 -20.5t-19.5 -16.5t-19.5 -7q-5 0 -10 3q-98 61 -192.5 111t-192 85t-201.5 54t-222 19q-100 0 -201 -14.5t-199 -43t-191.5 -69.5t-178.5 -93l-5 -2q-2 -1 -4.5 -2.5t-1.5 -1.5q-5 -3 -9 -6t-9 -5
q-40 -20 -74.5 -46.5t-69.5 -55.5q-11 -9 -25 -9q-13 0 -13 16q1 19 14.5 35.5t27.5 27.5q111 82 227 148.5t239 113.5t254 72t272 25q101 0 200.5 -15t196.5 -47q-37 35 -72.5 71t-70.5 74q-82 89 -150.5 174.5t-128 174.5t-113.5 184t-108 203q6 -195 -7 -388t-39 -386
q-1 -9 -7.5 -22t-16 -24.5t-20.5 -19.5t-22 -8q-5 0 -23.5 14.5t-43.5 37t-53.5 50t-54 52.5t-44.5 45t-26 27q-102 69 -216.5 121t-235.5 86t-246 51t-247 17q-20 0 -39.5 -0.5t-39.5 -1.5q-18 -2 -36 -3t-35 -1zM30 517h2q152 -10 299.5 -43.5t287.5 -90.5
q-60 76 -115.5 155t-109.5 160q-33 51 -65.5 100.5t-64.5 100.5q-5 -59 -23.5 -113.5t-49 -103.5t-71 -90.5t-90.5 -74.5z" />
    <glyph glyph-name="Z" unicode="Z" horiz-adv-x="1155" 
d="M1814 -466q5 -6 4.5 -14t-4 -16.5t-8.5 -15.5t-9 -12q-8 -10 -19.5 -19.5t-24.5 -9.5q-4 0 -10 2q-9 4 -17.5 8t-17.5 8q-271 122 -556 204.5t-582 112.5q-35 4 -71 6t-72 2q-130 -1 -254 -37q-5 -2 -11 -3.5t-11 -3.5q-1 -1 -3 -1q-3 -2 -9 -4q-19 -8 -37 -17l-36 -18
q-2 -1 -3.5 -2t-3.5 -2q-10 -6 -20.5 -13.5t-19.5 -15.5q-3 -2 -8 -6.5t-7 -6.5l-9 -9q-1 0 -1 -0.5t-1 -0.5q-1 -2 -1.5 -2.5t-1.5 -2.5l-9 -21l-1 -1v-2q-1 -1 -1 -1.5t-1 -1.5q0 -2 -1 -3q-3 -8 -6 -17t-6 -17q-3 -9 -10 -20.5t-16 -21t-19.5 -16.5t-21.5 -7q-10 2 -11 9
q-1 5 -1 10v10q2 26 11.5 52t27.5 44q2 2 4 6q48 108 114 206.5t144.5 189t166.5 173.5t181.5 160t189 148.5t188.5 139.5q-169 13 -337.5 33t-335 50.5t-330.5 73.5t-324 103q103 -100 202 -201t198 -206q6 -6 5.5 -14t-4 -16.5t-9 -15.5t-9.5 -12q-8 -9 -21 -19t-26 -10
q-6 0 -8 2q-151 165 -309 319t-320 306q-6 6 -5.5 14t4.5 16.5t9.5 16t8.5 11.5q7 9 19 19t26 10q5 2 10 -2q190 -99 398 -167.5t424 -114.5t434 -72t429 -39q12 -1 10.5 -13t-3.5 -19q-11 -29 -38 -48q-71 -52 -141 -104t-141 -105q-32 -24 -63.5 -48t-62.5 -49
q-8 -7 -16 -13t-16 -13q-3 -2 -6 -5.5t-7 -5.5q-2 -2 -4.5 -3.5t-4.5 -3.5q-4 -3 -3 -3q-45 -36 -88.5 -74.5t-85.5 -78.5q-14 -14 -28.5 -27t-27.5 -27q-7 -8 -13.5 -14.5l-14.5 -14.5l-3.5 -3.5l-3.5 -3.5l-2 -2q0 -1 -2 -3q-3 -1 -13.5 -12.5t-25 -28t-30.5 -36
t-30 -36.5t-24 -30t-12 -17q-52 -69 -92 -140q0 -1 -0.5 -1t-0.5 -1q-2 -4 -3 -5q75 53 163 81t179 34q24 2 47.5 3t47.5 1q133 -1 272 -20.5t276.5 -52t271 -75.5t256.5 -91q-65 62 -132 119.5t-139 111.5q-12 9 -35.5 26t-52.5 37t-60.5 41t-60.5 39t-53.5 31t-38.5 16
q-3 1 -5.5 2t-4.5 2q-3 0 -6 3l-18 6q-8 3 -9.5 9t0 13.5t5 14.5t6.5 12q11 19 29 32q3 2 10.5 6.5t14.5 4.5q1 -1 3 -1q69 -26 142 -69t144.5 -94t137 -105.5t119.5 -102.5q69 -61 135 -125t124 -136z" />
    <glyph glyph-name="period" unicode="." horiz-adv-x="295" 
d="M226 161q12 -19 25 -37.5t25 -38.5q4 -6 4 -11t-2 -12q-4 -16 -19 -35t-31 -25q-2 -1 -7 -3t-10 -2q-7 2 -7 3q-12 20 -25 38t-25 38q-4 6 -4 11.5t2 12.5q2 10 9 21t16 20.5t20 16t21 6.5q6 0 8 -3z" />
    <glyph glyph-name="a" unicode="a" horiz-adv-x="255" 
d="M-111 439q-4 6 -0.5 15t5.5 14q7 17 21 30l1 1q8 8 20 18.5t24 10.5q4 0 10 -2q8 -4 15.5 -9.5t14.5 -10.5q12 -9 23 -18.5t22 -19.5q75 -66 144 -138.5t135 -148.5q6 -1 8 -10q35 -41 68.5 -83.5t62.5 -87.5q4 -6 0.5 -15t-5.5 -14q-3 -6 -9.5 -15t-14.5 -17.5
t-16.5 -14.5t-16.5 -6l-3 -1q-9 1 -14 9l-2 3q-29 44 -61 83.5t-66 79.5q-20 2 -40.5 3.5t-40.5 1.5q11 -26 22.5 -53t22.5 -53q3 -8 0 -15.5t-6 -13.5q-3 -8 -9.5 -17t-15 -17.5t-18 -14t-18.5 -5.5t-12 9q-11 29 -23 59t-26 59q-7 14 -13.5 29t-13.5 30q-9 3 -9 13v6
q-38 84 -79.5 165t-86.5 161zM171 187l-72 75l36 -78z" />
    <glyph glyph-name="b" unicode="b" horiz-adv-x="338" 
d="M340 19q2 12 0 24q0 2 -0.5 3.5t-0.5 3.5q-8 41 -29.5 70t-59.5 47q-16 6 -30 8t-31 2h-2h-7q-2 -1 -8 -1q-1 -1 -3 -1q14 -32 27 -64t25 -64q18 -22 40 -29.5t50 -7.5q16 0 28 4q1 2 1 5zM150 259q0 5 0.5 9t0.5 9q0 17 -9.5 33t-23 30.5t-29.5 26t-28 20.5q-1 1 -2 1
q23 -38 43 -77t40 -80q2 6 2 7q1 2 1.5 5t1.5 5q2 6 2 8q0 1 0.5 1.5t0.5 1.5zM331 247q26 -14 44.5 -35.5t30 -48t14 -55t-3.5 -55.5q-4 -18 -13.5 -36.5t-22.5 -35t-29 -29.5t-33 -20q-31 -13 -64 -13q-14 1 -27 2.5t-26 6.5q-6 -5 -13.5 -9t-14.5 -4q-9 0 -12 9
q-53 143 -119.5 275t-151.5 259q-9 14 -0.5 30.5t17.5 27.5q14 17 31 25q2 2 5 2q8 7 17 13t18 6q6 0 25.5 -11t43 -25t44 -26.5t27.5 -17.5q16 -10 32.5 -22.5t31.5 -26.5t26.5 -30.5t17.5 -35.5q8 -26 4.5 -51.5t-12.5 -50.5q8 2 15.5 2h15.5q42 2 82 -20z" />
    <glyph glyph-name="c" unicode="c" horiz-adv-x="342" 
d="M-29 352q-2 37 12 70t40 58q18 17 41 27.5t48 10.5l-3 8q-2 7 0.5 14.5t5.5 14.5q3 8 10 17t15 17t17.5 13.5t18.5 5.5q8 0 12 -9q17 -45 36 -89.5t46 -85.5q3 -4 1 -11q1 -12 -7.5 -25t-14.5 -21q-8 -11 -20 -20.5t-26 -9.5q-5 0 -8 3q-24 30 -54.5 52.5t-68.5 33.5
q-5 2 -9.5 1.5t-9.5 0.5l-1 -1q-2 -9 0 -19v-5q0 -1 1 -2v-5q1 0 1 -2q3 -11 4.5 -21.5t4.5 -21.5q13 -44 32.5 -85.5t44.5 -79.5q15 -22 38 -49.5t50 -52t56.5 -41t57.5 -16.5q1 3 1 8q-1 2 -1 6q-2 26 -15 53t-27 47q-5 7 -4.5 15t4 15.5t8.5 15t9 12.5q8 11 20.5 20.5
t26.5 9.5q6 0 7 -3q5 -8 10.5 -16t10.5 -16q14 -24 23 -51.5t8 -56.5q0 -26 -11 -52.5t-30 -48t-43.5 -35t-52.5 -13.5q-15 0 -33 5q-35 11 -69.5 36t-65 59.5t-56.5 75.5t-45.5 83t-31.5 82.5t-14 73.5z" />
    <glyph glyph-name="d" unicode="d" horiz-adv-x="315" 
d="M-76 429q-3 6 0 14.5t6 13.5q3 6 5.5 11.5t5.5 10.5q-5 3 -4.5 10.5t2.5 12.5q2 9 8.5 20.5t16 21t20 16.5t19.5 7q6 0 10 -3q41 -26 89 -60.5t94 -74.5t86 -83t65 -85q23 -38 38 -83.5t10 -90.5q-3 -28 -16 -55.5t-32.5 -49t-45 -34.5t-55.5 -13q-18 0 -37 5.5t-36.5 15
t-32 23t-22.5 29.5q-3 6 -1 12.5t4 12.5q-48 100 -96.5 198.5t-100.5 197.5zM262 198q-17 26 -42 53.5t-52.5 53.5t-56 49.5t-53.5 42.5l18 -36t32.5 -66t38.5 -80t37.5 -78t28.5 -60t11 -25q17 -11 37 -19t41 -8h3q3 1 8 1q1 2 1 3t1 2v18v9v2q-1 0 -2 8.5t-1 10.5
q-2 13 -7.5 29t-12.5 32.5t-15 31.5t-15 26z" />
    <glyph glyph-name="e" unicode="e" horiz-adv-x="320" 
d="M-6 244q-24 26 -40.5 60t-11.5 71q3 24 13.5 48t27 44.5t38 35.5t45.5 21q-3 6 0 15t6 14q3 6 9 15t14 17t16.5 14t17.5 6l3 1q8 0 13 -8q29 -50 53.5 -101.5t42.5 -105.5q3 -9 -3 -23t-16.5 -27t-23 -22.5t-22.5 -9.5q-9 0 -14 9q-9 16 -24.5 36.5t-33.5 38.5t-38 30
t-38 12q-2 -1 -5 -1q0 -1 -0.5 -1t-0.5 -2q0 -5 -0.5 -9.5t0.5 -9.5v-3q0 -1 1 -2v-5q1 0 1 -2q1 -7 5 -14q24 -54 69 -87.5t99 -53.5q14 -5 10.5 -19t-9.5 -24q-9 -15 -25.5 -31t-35.5 -16q0 -3 1 -5q9 -27 27 -51t41.5 -41.5t51 -28t56.5 -10.5q2 0 3.5 0.5t3.5 0.5
q0 12 -7.5 34t-17 45t-20 45t-16.5 34q-3 6 -0.5 14.5t5.5 14.5q3 7 10 16t15 17.5t17 14t18 5.5t13 -9q16 -36 35 -71.5t25 -74.5q4 -23 2.5 -45.5t-12.5 -43.5q-20 -40 -55 -63.5t-80 -23.5q-39 0 -74.5 17t-62.5 45q-23 24 -42 54t-21 65q-1 19 6 37t19 34
q-23 13 -44.5 28.5t-39.5 34.5z" />
    <glyph glyph-name="f" unicode="f" horiz-adv-x="336" 
d="M-224 508q-5 5 -5 11.5t2 11.5q2 8 7.5 17t12.5 17.5t15 15.5t15 10q5 2 8 3t6 1q5 0 9.5 -2t8.5 -4q24 -16 51.5 -23.5t54.5 -17.5q97 -35 197 -60t203 -39q9 -1 10.5 -7.5t-0.5 -14.5t-6 -15.5t-6 -11.5q-3 -5 -9 -12t-13.5 -13.5t-16 -11t-15.5 -4.5h-3q-29 6 -59 10
t-59 10q-21 5 -42.5 9.5t-42.5 9.5q2 -4 3 -5l50 -101q32 -8 65 -14.5t66 -12.5q8 -1 9.5 -7.5t0 -14.5t-5.5 -15.5t-6 -11.5q-8 -11 -24 -26t-31 -15h-2q-3 1 -6 1t-6 1q26 -49 53 -97.5t56 -95.5q4 -6 0.5 -15t-5.5 -14q-3 -6 -9 -15t-14 -17t-16.5 -14.5t-15.5 -6.5
q-2 0 -3 -0.5t-2 -0.5q-9 2 -13 9q-42 73 -83 146.5t-80 148.5l-8 2t-9 2q-13 2 -11 15t7 24q-24 47 -47.5 93.5t-46.5 94.5l-26 9l-2 -2q-8 -10 -20 -19.5t-26 -9.5q-6 0 -8 2q-53 44 -107 92z" />
    <glyph glyph-name="g" unicode="g" horiz-adv-x="368" 
d="M365 203q8 -12 14 -25.5t11 -27.5q11 -37 6 -74.5t-26 -69.5t-53.5 -55t-72.5 -23q-46 0 -87 26.5t-74 66t-56 86t-34 85.5q-8 30 -11.5 61t-0.5 62q3 27 13 54t27 50t40 39t51 21q-4 11 -8.5 21t-7.5 21q-2 8 0 15.5t5 13.5q3 8 10 17t15.5 17.5t18 14t18.5 5.5t12 -9
q19 -53 40.5 -104t48.5 -100q4 -7 1 -15t-6 -14q-3 -7 -9.5 -16t-15 -17.5t-17.5 -14t-18 -5.5q-6 0 -8 2q-6 0 -8 3q-20 27 -48 51.5t-64 24.5q-2 -1 -7 -1q-2 -5 -2 -10t-1 -10q-3 -26 1.5 -57t14 -62t22.5 -59.5t28 -49.5q15 -22 34 -44t41.5 -39.5t48.5 -28t55 -10.5
q5 0 7 1q2 0 3 1t1.5 6t0.5 6q0 4 0.5 9t-1.5 8q1 -3 1 -3.5t-1 2.5v4q0 2 -1 2v5q-1 1 -1 2q-7 31 -23 58t-42 46q-26 0 -52 7t-50 16q-6 2 -5 10t2 13q2 9 8.5 20t16 21t20 16.5t20.5 6.5q6 0 9 -2q39 -16 78 -16q17 -1 33 2t33 8l4 2q10 4 15 4t9 -3q5 -4 5 -11t-2 -12
q-5 -20 -20 -35q-6 -6 -9 -10z" />
    <glyph glyph-name="h" unicode="h" horiz-adv-x="372" 
d="M-102 465q-4 6 -1 15t6 14q4 8 10 17t14 17t17 13.5t18 5.5q10 0 14 -8q36 -63 69.5 -126t65.5 -128q34 -11 68 -21.5t69 -19.5q-29 54 -58 107t-61 105q-4 6 -1 14.5t6 14.5t9 14.5t14.5 17t17 14.5t15.5 6q2 0 3 0.5t2 0.5q7 0 13 -8q18 -26 33 -54.5t31 -57.5
q28 -51 55.5 -101.5t53.5 -102.5q2 0 3 -0.5t2 -0.5q10 -2 11 -9.5t-2 -16.5q22 -43 44.5 -85.5t39.5 -87.5q2 -6 -0.5 -14.5t-5.5 -14.5q-3 -7 -9.5 -16t-15 -17.5t-17.5 -14t-18 -5.5t-13 9q-21 48 -43.5 93.5t-46.5 91.5q-35 7 -69.5 15t-68.5 18l66 -150q3 -7 0 -14.5
t-5 -14.5q-3 -7 -9.5 -16t-15.5 -17.5t-18.5 -14t-17.5 -5.5t-13 9q-29 67 -58.5 132.5t-62.5 130.5l-24 9q-13 5 -10 18.5t9 24.5q-28 54 -56.5 107.5t-58.5 106.5z" />
    <glyph glyph-name="i" unicode="i" horiz-adv-x="274" 
d="M-174 620q-8 25 2 50.5t26 44.5q20 23 48 37.5t59 14.5q22 0 44 -5.5t42 -16t36.5 -26t26.5 -35.5q11 -21 7.5 -43.5t-17.5 -41.5q-17 -24 -42 -40t-55 -16q-8 0 -17.5 0.5t-17.5 2.5q-1 -1 -4 -1q41 -14 81 -26t82 -21q9 -2 10.5 -8.5t-0.5 -14t-5.5 -15t-6.5 -11.5
q-12 -18 -29 -31q47 -94 94 -185.5t95 -184.5q24 -7 48 -13t49 -13q8 -2 10 -8.5t0.5 -14t-5.5 -15t-7 -11.5q-6 -9 -13.5 -17.5t-16.5 -13.5q-4 -2 -11 -6.5t-12 -4.5q-2 0 -2.5 0.5t-1.5 0.5q-54 20 -109.5 31t-111.5 26q-8 2 -10 8.5t0 14t5.5 15t6.5 11.5
q7 12 20.5 24.5t27.5 16.5q-45 88 -89 176t-89 177q-18 5 -36 11t-35 12q-8 3 -10 9.5t0 13.5t5.5 14.5t6.5 11.5q6 10 19 22.5t24 17.5q-16 2 -35 7.5t-36.5 15.5t-31.5 23t-19 30zM-79 675q-2 1 -6 1q17 -18 35 -26t41 -14q4 2 5 3q2 1 3.5 1.5t3.5 1.5q-20 14 -39 22
t-43 11z" />
    <glyph glyph-name="j" unicode="j" horiz-adv-x="366" 
d="M-29 512q-5 4 -5 11t2 12q2 9 9 20t16.5 21t20 16.5t20.5 6.5q4 0 8 -2q30 -22 56.5 -37t53.5 -25.5t56 -19t65 -18.5q8 -2 10 -8.5t0 -14t-5.5 -14.5t-6.5 -12q-6 -10 -21 -23.5t-27 -17.5q12 -18 28.5 -47t34 -63t35 -70.5t32 -69.5t24.5 -61t12 -45l2 -12t0 -12
q-3 -20 -15 -40t-30 -36t-39 -26t-42 -10q-31 0 -59 14q-26 13 -45 34t-33 46.5t-23.5 53.5t-16.5 54q-2 8 0 15t5 14q7 16 24.5 34t35.5 19q5 1 9 -1t5 -7q7 -27 17 -57.5t26 -57t39 -45.5t55 -25q-9 29 -21 54q-43 99 -95 201.5t-118 187.5l-3 6q-26 11 -50 25t-46 32z
" />
    <glyph glyph-name="k" unicode="k" horiz-adv-x="357" 
d="M-96 462q-3 7 0 15t5 14q3 7 9.5 16.5t15.5 17.5t18.5 14t17.5 6t13 -9q26 -63 53.5 -124.5t56.5 -123.5q15 111 24 226q2 19 15 35t27 28q5 4 12.5 8.5t14.5 2.5q13 -3 11 -17q-7 -76 -14.5 -151.5t-18.5 -151.5q4 2 7 4t7 4t5 3q4 4 14.5 11.5t22.5 15t23 13t17 5.5
q9 0 13 -8q42 -97 93.5 -184.5t120.5 -167.5q5 -5 4.5 -11t-2.5 -12q-2 -10 -9 -21.5t-16 -21t-20 -16t-21 -6.5q-5 0 -8 3q-66 78 -119.5 164.5t-93.5 180.5q-14 -10 -29 -19l-30 -18q23 -45 46.5 -88.5t46.5 -88.5q3 -6 0 -14.5t-6 -14.5q-3 -7 -9.5 -16t-15 -17.5
t-17.5 -14t-18 -5.5q-9 2 -13 9q-72 128 -134 259t-119 266z" />
    <glyph glyph-name="l" unicode="l" horiz-adv-x="306" 
d="M-50 467q-3 6 0.5 15t5.5 14q3 7 9.5 16t15 17.5t18 14.5t17.5 6q9 -2 13 -9q14 -26 28 -52.5t27 -52.5l180 -365q64 -5 126.5 -18.5t122.5 -36.5q10 -4 10 -16q0 -8 -6.5 -20.5t-16.5 -24.5t-21.5 -21t-20.5 -9q-3 0 -4 1q-72 31 -148.5 44t-154.5 13q-13 0 -25 -0.5
t-25 -0.5q-6 0 -8 6t-2 11q-1 8 3 16.5t9 15.5q8 13 20.5 24.5t27.5 15.5q-4 7 -7 13.5t-6 13.5q-42 95 -90.5 186t-97.5 183z" />
    <glyph glyph-name="m" unicode="m" horiz-adv-x="508" 
d="M-87 469q-3 6 0 14.5t6 14.5q6 13 19 28.5t27 20.5q2 1 6.5 2.5t8.5 1.5q5 0 8 -3q29 -34 61 -63t63 -60q41 -42 81 -83.5t82 -83.5l-4 24l-4 24l-19 119q-3 18 7.5 35t23.5 28q6 5 14 11.5t16 6.5q2 0 3 0.5t3 0.5q8 0 12 -9l18 -30q24 -40 48 -78.5t48 -78.5
q41 -67 82 -133t86 -131q5 -7 4.5 -15t-3.5 -16t-8 -15t-10 -12q-8 -11 -20.5 -20.5t-26.5 -9.5q-5 0 -7 3q-19 32 -40 61.5t-41 61.5q-22 35 -43.5 69.5t-43.5 69.5l4 -27q2 -11 3.5 -22.5t3.5 -22.5q1 -1 1 -3q1 -15 -5 -29q-3 -7 -10 -16t-15.5 -17t-18 -14t-18.5 -6
q-5 -1 -8 1.5t-7 6.5q-35 34 -68 68.5t-67 69.5q2 -5 4.5 -9.5t4.5 -9.5q26 -51 52.5 -101.5t49.5 -103.5q3 -7 0 -15t-6 -14q-3 -7 -9.5 -16t-15 -17.5t-17.5 -14t-18 -5.5t-13 8q-11 26 -23.5 50.5t-24.5 50.5q-31 64 -63.5 125.5t-65.5 124.5q-27 51 -53.5 101.5
t-53.5 101.5z" />
    <glyph glyph-name="n" unicode="n" horiz-adv-x="446" 
d="M-92 462q-3 6 0 14.5t6 14.5q8 15 19.5 28t26.5 21q8 4 14 4t9 -3q31 -26 60.5 -53t58.5 -54q51 -47 100.5 -93t99.5 -93q-23 41 -46.5 80.5t-44.5 81.5q-3 6 -0.5 14.5t5.5 14.5q3 7 10 16t15.5 17.5t17.5 14t17 5.5q10 0 14 -8l57 -102q51 -91 104 -179.5t100 -182.5
q3 -6 -0.5 -15t-5.5 -14q-3 -8 -10 -17t-15 -17t-17.5 -13.5t-18.5 -5.5q-5 0 -8 3q-27 26 -55.5 49.5t-55.5 49.5q-58 54 -116 107.5t-116 107.5q-3 1 -4 4q32 -63 65.5 -125t62.5 -127q3 -7 0 -15t-6 -14q-4 -8 -10 -17t-14 -17t-17.5 -13.5t-18.5 -5.5t-13 8
q-14 28 -27.5 55.5t-27.5 54.5q-55 105 -109.5 208.5t-105.5 210.5z" />
    <glyph glyph-name="o" unicode="o" horiz-adv-x="357" 
d="M18 328q-1 32 12 61t34 52q17 19 42 36t51 17q14 0 24 -4t10 -20q14 -8 26.5 -20.5t23.5 -25.5q24 -30 51.5 -71t52 -85.5t42 -89t21.5 -80.5q2 -14 2 -27.5t-3 -27.5q-4 -19 -15.5 -36.5t-27.5 -31.5t-35 -22.5t-39 -8.5q-15 0 -27 3.5t-26 10.5q-44 21 -83 64.5t-69 96
t-48 108t-19 101.5zM98 388v-4l1 -8v-5l1 -3v-4q7 -51 27.5 -100.5t48.5 -91.5q12 -18 29 -39.5t37.5 -41.5t42.5 -35t43 -19q-1 4 -1.5 7.5t-2.5 8.5l-12 41q-14 46 -38 88t-50 84q-9 14 -24 35.5t-33 41.5t-36 34.5t-32 14.5q-1 -1 -1 -4z" />
    <glyph glyph-name="p" unicode="p" horiz-adv-x="298" 
d="M315 278q8 -50 -15 -95t-58 -80q-4 -4 -8 -7.5t-9 -7.5q15 -29 31.5 -56.5t30.5 -56.5q3 -6 0.5 -14.5t-5.5 -14.5q-3 -7 -10 -16t-15.5 -17.5t-17.5 -14t-17 -5.5q-10 0 -14 8q-15 27 -30 53.5t-29 53.5q-14 28 -29 55q-5 4 -5 11q-42 79 -83.5 158.5t-77.5 160.5
q-3 7 0 15t5 14q4 9 13 20q-16 10 -31 21t-26 26q-4 5 -1 14t6 15t9 15t14 17t16.5 14t16.5 6l3 1q9 0 14 -8q-1 1 -3 5q6 -10 16 -17t19 -13l64 -39q35 -21 69 -43t66 -48q30 -25 57.5 -57t33.5 -73zM236 179q1 7 0.5 13t-0.5 13v3l-2 7q-3 11 -7 21t-11 21
q-24 36 -64 66.5t-76 54.5q2 -4 2 -5l6 -11q0 -1 7.5 -16.5t18.5 -37.5t24.5 -48t26 -49.5t21.5 -41t12 -22.5q1 -1 4 -1h3q5 0 8 1l3 1l6 3q1 1 2 1q5 5 7 6l1 2l1 1q1 3 3 7t3 7v3z" />
    <glyph glyph-name="q" unicode="q" horiz-adv-x="462" 
d="M18 350q0 30 11.5 60t31.5 54t47 39t59 15q26 0 49.5 -10t43.5 -25q26 0 50.5 -15t47.5 -39.5t42.5 -55t35.5 -62t27.5 -61t17.5 -50.5q8 -31 13 -63t2 -64q-3 -30 -15 -57q29 -32 58 -63.5t59 -61.5q5 -5 5 -11.5t-2 -12.5q-2 -9 -9 -20t-16.5 -20.5t-20 -16.5t-19.5 -7
q-6 0 -9 3q-20 20 -38.5 40.5t-38.5 40.5q-11 11 -20.5 22t-19.5 22q-34 -19 -73 -19q-46 0 -87.5 22t-77 57.5t-64 82t-49 95t-31 96t-10.5 85.5zM99 391q0 -2 -0.5 -6.5t1.5 -5.5q0 -4 1 -6q8 -58 30.5 -112.5t51.5 -105.5q2 2 2 4q1 1 1 2l3 3q0 2 4 7q4 6 5 9
q2 4 3.5 7.5t3.5 8.5l3 7q7 25 15.5 40t30.5 33q5 4 11 7t13 3q9 0 13 -8q21 -38 44.5 -75.5t50.5 -72.5q5 -7 11 -13.5t11 -14.5q-7 33 -22.5 73.5t-36.5 79.5t-47.5 72t-56.5 52q-4 -2 -5 -2q-8 -4 -16 -4q-6 0 -8 2q-5 5 -9.5 9t-10.5 8l-2 -1q-2 0 -3.5 -0.5t-2.5 -0.5
q-9 1 -11.5 6t-2.5 12q-14 9 -30 14.5t-33 5.5h-4q-3 0 -5 -1h-2q-1 -9 -1.5 -18t0.5 -18zM100 379q-2 8 0 2v-2zM212 113q9 -12 25 -29t34 -32.5t37 -27t35 -14.5q-56 68 -101 143q-8 -11 -15 -20.5t-15 -19.5z" />
    <glyph glyph-name="r" unicode="r" horiz-adv-x="381" 
d="M-56 428q-3 7 0 15t6 14q7 14 16.5 26t22.5 20q4 8 10.5 19t14.5 20.5t17 17t18 7.5q2 0 3 0.5t2 0.5q8 -1 13 -8l-2 2q20 -29 44 -55t50 -49q41 -37 79 -79t60 -94q11 -27 13 -55t-4 -56q-2 -11 -5.5 -20t-8.5 -18q6 -2 12 -3.5t11 -3.5q89 -29 170 -76t148 -114
q5 -5 5 -11.5t-2 -12.5q-2 -9 -9 -20t-16.5 -20.5t-20 -16.5t-19.5 -7q-6 0 -9 3q-69 69 -150 115.5t-174 74.5q-1 0 -1.5 0.5t-1.5 0.5l12 -26l12 -26q3 -7 0.5 -15t-5.5 -14q-3 -7 -10 -16t-15.5 -17.5t-18 -14t-17.5 -5.5t-12 8q-14 29 -26.5 56.5t-26.5 56.5
q-47 100 -92.5 198t-92.5 198zM79 381q34 -72 67 -142.5t66 -142.5l6 12q8 11 10 20q1 2 1 6q0 -1 1 3q2 5 1.5 8.5t-0.5 8.5v10v7q0 1 -0.5 1.5t-0.5 1.5v1q-5 20 -13 39.5t-19 37.5q-23 38 -55 68.5t-64 60.5z" />
    <glyph glyph-name="s" unicode="s" horiz-adv-x="330" 
d="M-102 313q-13 34 -1 67t38 56q16 14 32.5 23t37.5 9l-39 51q-5 7 -4.5 15t4 15.5t8.5 15t9 12.5q6 8 21 19t26 11q5 0 8 -3q44 -53 85.5 -105.5t86.5 -104.5q5 -5 4.5 -11.5t-2.5 -12.5q-5 -20 -19 -34.5t-31 -25.5q-2 -2 -6 -3.5t-9 -1.5q-3 1 -5 1.5t-4 2.5l-4 4
q-1 1 -2 1t-2 1q-34 29 -69.5 42.5t-78.5 19.5q1 -4 3 -7.5t4 -7.5q14 -24 34.5 -41.5t44.5 -32t49.5 -25.5t50.5 -22q5 -2 10.5 -4t10.5 -4q44 -19 86.5 -37.5t81.5 -44.5q37 -24 67 -53.5t53 -67.5q-2 2 -4 6q7 -11 11.5 -21t3.5 -22q-2 -23 -17 -44.5t-33 -34.5
q-17 -12 -37 -17t-40 -5q-33 0 -69 6.5t-71 18.5t-67.5 28.5t-56.5 37.5q-5 5 -4.5 12t2.5 12q2 9 9 20.5t16 21t19.5 16t20.5 6.5q5 0 9 -3q41 -34 98.5 -55t109.5 -27q-23 29 -54 53t-66 44t-71.5 36.5t-71.5 29.5l6 -2q-38 16 -76 33t-72 42q-23 17 -43 40t-31 51z" />
    <glyph glyph-name="t" unicode="t" horiz-adv-x="311" 
d="M-232 475q-5 6 -5 13t2.5 14.5t7 14.5t7.5 11q8 11 22 23t28 12q4 0 21 -3.5t36.5 -8t37.5 -8.5t24 -6q51 -13 101 -28t101 -28.5t102.5 -25t103.5 -17.5q9 -1 10.5 -7.5t-0.5 -14.5t-6 -16t-6 -11q-7 -12 -22.5 -27t-31.5 -15h-2q-35 4 -69.5 9t-68.5 15
q47 -92 94 -182.5t93 -182.5q3 -6 0 -14.5t-5 -14.5q-3 -7 -9.5 -16t-15.5 -17.5t-18.5 -14t-17.5 -5.5t-12 8l-54 105q-48 93 -95 184.5t-95 183.5v2q-13 4 -25 7.5t-24 7.5q0 -2 -1 -3q-2 -9 -9 -20t-16 -21t-19 -16.5t-20 -6.5q-9 0 -30 15.5t-44 36t-43 40.5t-27 28z
" />
    <glyph glyph-name="u" unicode="u" horiz-adv-x="398" 
d="M-48 418q-2 7 0 14.5t5 14.5q3 6 9 14.5t14.5 17t17 14.5t15.5 6q2 0 2.5 0.5t2.5 0.5q10 0 13 -9q7 -18 13 -36t12 -35q9 -26 24 -65.5t34 -84t42 -90t47.5 -83t50 -63t50.5 -29.5h2v10v49q0 7 -0.5 13t-1.5 13v4q0 3 -1 5q0 30 -7 59t-15 58q-5 15 -9.5 29t-9.5 29
q-3 9 -8 19q-14 34 -27.5 65.5t-26.5 64.5q-4 10 2.5 24t18 27t24.5 22t22 9t12 -8q11 -27 22.5 -53.5t21.5 -53.5q2 -6 4.5 -11.5t4.5 -10.5t4 -9l4 -8q37 -85 73.5 -169t85.5 -162q4 -6 1 -14.5t-6 -14.5q-3 -7 -9.5 -16t-15 -17.5t-17.5 -14t-18 -5.5q-9 2 -13 9
q-11 20 -21 39t-20 39q-7 -20 -17.5 -40t-25.5 -35.5t-34 -25.5t-42 -10q-35 -1 -69 29.5t-65.5 78t-59.5 105.5t-51 114.5t-39.5 104t-24.5 72.5z" />
    <glyph glyph-name="v" unicode="v" horiz-adv-x="266" 
d="M-139 409q-5 5 -4 14t3 15q1 8 6 19t12 21.5t15 18t17 7.5q4 0 12 -6q29 -26 53.5 -55.5t50.5 -59.5q35 -41 69 -83l68 -84q-14 54 -23.5 109t-10.5 112q0 9 5 22t12.5 25t17 21t18.5 9q2 1 6 -1q6 -3 7 -10t1 -12v-13q0 -5 1 -7q2 -8 1.5 -14.5t0.5 -14.5
q3 -34 10.5 -72.5t17 -78t20.5 -77.5t21 -70q7 -21 12.5 -41.5t13.5 -41.5l4 -12l4 -12l2 -4q1 -2 0.5 -1l-1.5 3q6 -17 -0.5 -35t-15.5 -33q-4 -6 -14 -16.5t-19 -10.5q-6 0 -11 6q-8 11 -16 21l-16 20q-42 50 -80 101.5t-79 101.5q-46 57 -93 112t-98 107z" />
    <glyph glyph-name="w" unicode="w" horiz-adv-x="450" 
d="M-57 434q-2 8 0 15t5 14t10 16t15.5 17.5t17.5 14t18 5.5q11 0 12 -8q3 -22 9.5 -42.5t12.5 -40.5q8 -25 19.5 -62t27 -79t33.5 -85.5t37.5 -81.5t40 -66t41.5 -40v3l-1 6v3v6q0 2 -1 3v6q-1 1 -1 3q-7 27 -12.5 55t-14.5 55q-14 42 -28.5 82.5t-32.5 80.5
q-3 7 -0.5 14.5t5.5 14.5t9 16t14 17t17 13.5t17 5.5l3 1q9 0 13 -9l9 -15l17 -28l9 -15q30 -54 58.5 -109t62.5 -106q14 -20 29.5 -41t35.5 -35l-8 22t-9 22q-14 33 -30 65.5t-33 65.5q-33 67 -65 139q-12 28 -23.5 57.5t-16.5 60.5q-3 18 7.5 34t23.5 29q8 8 15 13t18 5
q5 1 9 -1t5 -7l2 -10t3 -10q15 -54 38 -104.5t48 -101.5t50 -101t44 -104q6 -17 11 -36t3 -38q-1 -20 -10.5 -39t-24.5 -33.5t-34 -23.5t-40 -9q-19 0 -35.5 9t-31.5 22.5t-27 29t-22 29.5q-4 -17 -14.5 -36t-25 -35.5t-32.5 -27t-38 -10.5q-30 0 -60 32.5t-57.5 82.5
t-52 111.5t-43.5 119t-32.5 105t-18.5 69.5z" />
    <glyph glyph-name="x" unicode="x" horiz-adv-x="345" 
d="M-78 449q-4 6 -0.5 15t5.5 14q3 6 9 15t14 17t16.5 14t16.5 6l3 1q9 0 14 -8q40 -72 89 -138t101 -130q0 35 -1 67t-5 67v6q-1 3 -1 5.5t-1 4.5q-2 5 -1.5 10t-0.5 10q0 3 -0.5 5.5t-1.5 5.5l-3 21q-1 2 -1 5t-1 5q-3 18 7.5 35t22.5 28q6 5 14 11.5t16 6.5h5
q5 1 8.5 -0.5t4.5 -6.5q6 -48 12.5 -95.5t7.5 -95.5q1 -44 -2 -87.5t-8 -87.5q49 -53 103 -100t109 -95q5 -5 5 -11.5t-2 -12.5q-2 -8 -9 -19t-16 -21t-20 -17t-20 -7q-6 0 -19.5 9.5t-31 24.5t-37 33t-36.5 34.5t-30.5 29.5t-19.5 19q-4 -15 -10 -36t-15.5 -40t-23.5 -32.5
t-34 -14.5q-6 0 -8 2q-5 5 -5 12t2 12q10 27 16.5 55.5t11.5 56.5v2q0 1 0.5 3.5t1.5 3.5v7q1 1 1 3q2 7 2.5 13.5t1.5 13.5q-74 79 -138 165.5t-118 180.5z" />
    <glyph glyph-name="y" unicode="y" horiz-adv-x="404" 
d="M-57 420q-2 7 0.5 14.5t4.5 14.5q3 7 9.5 16t15.5 17.5t18.5 14t17.5 5.5q10 0 13 -9q23 -63 49 -125t62 -120q7 -11 19 -27.5t26 -32t29 -28t27 -15.5h1v1l1 3q2 4 1.5 8t-0.5 9v30q-1 2 -1 5q-4 28 -13 58.5t-21.5 60.5t-27 58t-28.5 52q1 -1 1 -2t1 -2q-4 6 -4 11
t2 12q2 10 7.5 18t12.5 16v1q8 14 23 29t32 15q11 2 14 -8q34 -91 69.5 -162.5t77.5 -135t91 -125.5t110 -136q5 -6 4.5 -14t-4 -16.5t-8.5 -15.5t-9 -12q-8 -9 -20.5 -19.5t-25.5 -10.5q-4 0 -9 3q-60 44 -127 59t-139 15q-8 0 -12 -1l3 1q-29 -3 -55 -8.5t-54 -13.5
q-1 -1 -3 -1q-4 -2 -13 -6t-12 -6h-1l-3 -1.5t-4 -2.5l-9 -6l-2 -2q-6 -8 -19.5 -19.5t-25.5 -11.5q-5 0 -10 3t-5 11t2 12q3 10 8.5 18.5t11.5 16.5q24 30 57 51t71 33.5t78 18t76 5.5q15 0 29 -1t29 -3q-42 55 -82 115q-7 -16 -19.5 -33t-28 -31t-33.5 -23.5t-36 -9.5
q-13 0 -24.5 5t-22 13.5t-19 18.5t-16.5 19q-57 69 -92.5 147.5t-65.5 161.5z" />
    <glyph glyph-name="z" unicode="z" horiz-adv-x="311" 
d="M-135 453q-4 6 -1 14.5t6 14.5q4 7 10.5 16t14.5 17.5t17 14t18 5.5q5 0 10 -3q20 -13 41 -26l42 -26q73 -45 145.5 -90t150.5 -83q6 -3 5 -11t-2 -13q-2 -9 -8 -17.5t-12 -16.5l-1 -2l-3 -4q-8 -11 -17 -24t-15 -26q-1 -2 -2 -3.5t-2 -3.5q-2 -4 -4 -7.5t-4 -6.5
q-20 -36 -36.5 -73t-33.5 -75q24 7 53 7q10 0 19.5 -0.5t18.5 -1.5q-8 11 -17.5 21t-18.5 21q-5 5 -5 11.5t2 12.5q2 9 9 20t16.5 21t20.5 16.5t20 6.5q5 0 8 -3q35 -42 67 -84.5t59 -90.5q3 -5 0 -14.5t-5 -14.5q-4 -8 -11 -17t-15 -17t-17.5 -13.5t-17.5 -5.5h-3l-32 10
l-32 10q-30 9 -60.5 15.5t-62.5 6.5q-5 0 -7 -1h-2q-3 0 -6 -0.5t-6 -0.5t-6 -1t-7 -2q-1 0 -1.5 -0.5t-1.5 -0.5q-8 -14 -21 -28.5t-29 -14.5q-1 0 -2 -0.5t-2 -0.5q-5 1 -8.5 2.5t-5.5 6.5q-2 7 0.5 15t4.5 14q8 19 16 36t16 35q26 60 54.5 118.5t63.5 113.5
q-17 10 -34 19t-34 19q-27 16 -54 31.5t-54 32.5l12 -22t13 -22q4 -6 0.5 -14.5t-5.5 -14.5t-8.5 -14.5t-14.5 -16.5t-16.5 -14.5t-15.5 -6.5q-2 0 -3 -0.5t-3 -0.5q-7 0 -12 9q-31 61 -66.5 118.5t-69.5 117.5z" />
    <glyph glyph-name="comma" unicode="," horiz-adv-x="301" 
d="M155 78q-5 5 -5 11.5t2 11.5q2 9 9 20t16.5 21t20 16.5t20.5 6.5q6 0 8 -2q23 -20 37.5 -46.5t19.5 -55.5q7 -35 2 -68.5t-20 -65.5q-8 -16 -22.5 -34t-32.5 -18q-2 0 -3 -0.5t-3 -0.5q-9 0 -12 9q-2 7 0 15t5 14q1 1 1 2t1 3l2 6q1 2 2 5t1 5v3v1q3 22 2 40q-1 2 -1 5
q-7 28 -17.5 52t-32.5 44z" />
    <glyph glyph-name="zero" unicode="0" horiz-adv-x="561" 
d="M24 276q-10 33 -17 67.5t-5 69.5q2 42 19 83t45.5 73.5t66.5 52.5t83 20q36 0 66.5 -13t56 -33.5t47 -47t39.5 -54.5q3 -4 1 -10q33 -43 67.5 -104.5t64.5 -128.5t52 -132.5t28 -116.5q3 -23 5 -47t-1 -47q-4 -29 -16.5 -58t-32.5 -52.5t-46.5 -38t-58.5 -14.5
q-44 1 -84 22t-73 47q-51 40 -98.5 94t-88 115t-71.5 126t-49 127zM83 482q-1 -9 -0.5 -17.5t0.5 -17.5q0 -7 1 -10v-3q15 -91 48 -169.5t83 -154.5q25 -38 63 -86t82.5 -90t92.5 -70.5t94 -28.5l3 1h3q1 1 2 0.5t2 0.5h2q0 2 1 3v1q0 1 0.5 1.5t0.5 2.5q1 5 1 8.5v6.5
q0 8 0.5 16.5t0.5 16.5q0 5 -1 8.5t-1 8.5v5v-3q0 13 -3 30.5t-7.5 35t-9.5 34.5t-10 30q-15 45 -37 100.5t-50 110.5t-60 105t-67 85q-5 5 -5 11.5t2 12.5q0 1 1 2q-32 38 -70.5 60t-89.5 22q1 0 0 -0.5t-5 0.5q-2 0 -4 -1q-13 -1 -27 -6q-2 0 -4 -2q-2 -1 -4.5 -2t-4.5 -2
t-4 -3l-2 -2q-1 -1 -2 -2.5t-3 -3.5q0 -2 -2 -4q0 -1 -2 -5l-6 -21v-1q-1 -4 -1 -7t-1 -7z" />
    <glyph glyph-name="one" unicode="1" horiz-adv-x="206" 
d="M562 -183q9 -2 11 -8.5t0.5 -14t-5.5 -15t-7 -11.5q-4 -6 -10 -13t-13.5 -13t-15 -10.5t-15.5 -4.5h-3q-15 4 -30 7t-30 7l-258 63q-41 10 -81.5 20t-81.5 19q-8 2 -10 8.5t0 14t5.5 15t6.5 11.5q7 12 23 26.5t31 14.5h3q15 -3 29.5 -6.5t29.5 -7.5q26 -6 53 -12.5
t53 -13.5q-5 10 -10.5 19t-10.5 19q-67 117 -126.5 237t-106.5 247q-8 -14 -17 -28t-20.5 -26t-25 -19.5t-31.5 -7.5q-10 0 -14 8q-3 7 -1 15.5t7 13.5q11 14 19.5 23.5t14 18t8.5 19t4 27.5t2 33t0 33q-1 14 -0.5 27.5t-2.5 26.5q-2 8 -2 16q-2 18 8 34t23 29q8 8 15.5 13
t18.5 5q11 2 14 -8q29 -108 70.5 -211.5t90 -203.5t103 -197.5t110.5 -193.5q1 -1 1 -3z" />
    <glyph glyph-name="two" unicode="2" horiz-adv-x="549" 
d="M-193 561q-2 8 0 15t5 14q3 6 9.5 15t14.5 17.5t16.5 14.5t15.5 6h4q11 2 14 -8q20 -54 50 -103q9 29 27.5 55.5t43 47.5t53.5 33.5t60 12.5q49 0 93.5 -25.5t80.5 -64t62 -85t37 -89.5q20 -74 11 -148.5t-44 -142.5q-23 -46 -54.5 -86.5t-68.5 -76.5q45 9 90 14t91 5
q44 -1 86 -5t85 -13q-14 17 -28 35t-27 36q-5 7 -4.5 15t4 15.5t8.5 15t9 12.5q8 11 20.5 20.5t26.5 9.5q5 0 8 -3q51 -62 97 -127t98 -128q5 -6 5 -14t-3.5 -16.5t-8.5 -15.5t-10 -12q-8 -8 -20.5 -18.5t-25.5 -10.5q-5 0 -8 3q-31 30 -75 50.5t-93 34t-98 19.5t-89 6h-33
t-32 -1h-3q-3 -1 -8 -1q-4 -1 -7.5 -1t-7.5 -1q-8 -2 -16 -2t-16 -1q-41 -4 -79.5 -14t-76.5 -23q-3 -2 -6.5 -2.5t-5.5 -2.5q-13 -6 -25.5 -11.5t-24.5 -11.5q-8 -4 -14 -4q-5 0 -10 3q-5 4 -4.5 11t1.5 12q2 12 11 23.5t21 22t25 19t23 12.5q7 3 14 8l2 1q1 1 2 1t2 1
q19 12 37.5 25t35.5 27q1 1 3.5 2.5t4.5 3.5q11 9 23 17t19 21q1 2 3 4t3 4q4 4 7.5 7t6.5 8q3 4 7 7.5t6 8.5q2 4 4 6q5 6 9.5 14t9.5 16q3 6 5 9q4 6 7 16q2 4 3.5 7.5t3.5 7.5q1 2 1.5 4t1.5 4q6 17 9 33q1 4 2 7.5t2 6.5q2 6 1 6v4q2 16 2.5 31t1.5 32v7.5t-1 8.5l-1 7
v1q-7 43 -20.5 84t-37.5 77q-17 26 -39 50.5t-48 44t-55.5 31t-62.5 11.5h-4l-12 -2t-11 -3q-2 0 -3 -1q-2 -1 -3.5 -2t-3.5 -2l-2 -1l-4 -4q-2 -2 -3 -4.5t-2 -3.5q-1 -2 -1.5 -2.5t-1.5 -2.5q0 -2 -0.5 -2.5t-0.5 -1.5q-2 -3 -2.5 -6.5t-1.5 -6.5q0 -1 -0.5 -3t-0.5 -3
q-2 -8 -2 -15v-14q0 -10 1 -14v-3q0 -5 3 -18.5t5 -18.5q8 -24 20.5 -46t29.5 -39q5 -5 5 -11t-2 -12q-2 -9 -9 -20t-17 -21t-20.5 -16.5t-20.5 -6.5q-6 0 -8 2q-25 29 -52.5 62t-52 68t-45 71.5t-32.5 73.5z" />
    <glyph glyph-name="three" unicode="3" horiz-adv-x="599" 
d="M-127 561q-3 6 0 14.5t6 14.5q3 7 9.5 16t15 17.5t17.5 14t18 5.5q9 -2 13 -9q14 -27 28 -53.5t29 -53.5q11 32 32 64q26 39 65 67t88 27q33 -1 60 -16.5t47.5 -39.5t33 -54t15.5 -60q3 -28 -2.5 -54.5t-16.5 -52.5q-11 -28 -32 -57q8 1 16 1h16q61 0 118 -16t104 -47
t82.5 -77t52.5 -107q17 -59 10.5 -118.5t-38.5 -111.5q-35 -57 -95 -93.5t-128 -36.5q-52 0 -101 21t-88 56t-65 81.5t-32 97.5q-2 18 8 34t23 29q8 8 15.5 13t18.5 5q4 1 8.5 -1t5.5 -7q6 -49 29.5 -92t59.5 -75.5t81 -51.5t95 -19h10h3q10 0 19.5 2.5t19.5 5.5q1 0 2.5 1
t3.5 1q4 2 5 2q4 2 7.5 4t7.5 4q2 0 4 2l5 3q9 6 17 14l2 2l2 4q3 4 4 8q1 0 2.5 4.5t1.5 5.5l6 21v3q1 3 1 10q0 12 1 24t0 23q0 3 -1 5q0 4 -0.5 7t-0.5 6q-1 6 -2.5 12t-3.5 12q-15 61 -47.5 106t-78 75t-101 44.5t-115.5 14.5q-10 0 -14 -1h-5h-5q-8 -1 -16 -1.5
t-16 -2.5q-17 -3 -33.5 -8t-33.5 -5q-2 0 -3 -0.5t-2 -0.5q-9 2 -13 9q-3 6 -0.5 14t5.5 15q9 22 26.5 34.5t39.5 20.5q1 0 5 2q2 0 3.5 1t2.5 1q4 1 8 4q1 0 5 2l5 3q4 2 8.5 5.5t7.5 7.5q1 0 3 2q1 1 1.5 2t1.5 2q3 5 5 8t4 7q2 5 3.5 10.5t3.5 10.5q1 2 1 3.5t1 3.5
q1 11 1.5 20.5t0.5 19.5v4q-1 2 -1 5q-1 2 -1 3.5t-1 3.5q-7 14 -11 30t-13 30q-16 26 -45.5 46.5t-61.5 20.5h-10.5t-10.5 -2q-2 -1 -3 -1t-2 -1q-3 -1 -5.5 -2t-4.5 -2l-3 -3l-4 -4l-2 -4q-5 -10 -10 -25l-6 -21v-4q-1 -2 -1 -4.5t-1 -4.5q-8 -26 -5 -52.5t5 -52.5
q1 -8 -4 -16.5t-9 -15.5q-6 -10 -21.5 -25t-27.5 -16q-2 0 -3 -0.5t-3 -0.5q-8 0 -12 9q-31 54 -61.5 106.5t-58.5 108.5z" />
    <glyph glyph-name="four" unicode="4" horiz-adv-x="499" 
d="M-14 592q-4 6 -0.5 14.5t5.5 14.5t8.5 15t14.5 17t16.5 14t15.5 6q2 0 3 0.5t3 0.5q7 0 12 -8q23 -41 43.5 -82t34.5 -86q22 -66 28.5 -135.5t-3.5 -138.5q-7 -47 -19.5 -91.5t-29.5 -88.5q26 20 58.5 40.5t68 39t71 34t67.5 24.5l-30 61q-41 83 -79.5 166.5t-80.5 166.5
q-3 6 0 14.5t5 14.5q3 7 9.5 16t15.5 17.5t18.5 14t17.5 5.5q9 -2 13 -9q23 -47 45 -93.5t45 -93.5q41 -84 80.5 -166.5t79.5 -165.5q41 -84 80 -167t81 -166q3 -6 0 -14.5t-5 -14.5q-3 -7 -9.5 -16t-15.5 -17.5t-18.5 -14t-17.5 -5.5q-9 0 -13 8q-23 48 -45 94t-45 94
t-46.5 96.5t-47.5 96.5q-4 1 -8 1h-8h-2q-6 -1 -5 0q-3 0 -5 -1q-23 -3 -43 -9q-5 -2 -11 -3.5t-11 -3.5l-10 -3q-4 -2 -6 -2h2q-36 -12 -70 -29.5t-66 -37.5l-6 -3q-3 -2 -6 -3.5t-5 -3.5q-5 -3 -10 -6.5t-10 -6.5q-10 -7 -19 -14.5t-20 -14.5l-9 -6l-2 -2q-4 -3 -7 -6
t-7 -6t-7 -7t-7 -7l8 8q1 -1 -4 -5.5t-7 -6.5q-8 -9 -21 -20.5t-27 -9.5q-6 1 -8.5 5.5t-2 10.5t2.5 12.5t4 9.5q10 18 17 36.5t16 36.5q2 5 4 9t4 9q1 2 1.5 4t1.5 4l12 36q14 40 21 79q0 1 0.5 3t0.5 3q0 -2 -1 -5q0 2 0.5 3.5t0.5 3.5q0 8 2 15.5t3 15.5q2 16 2.5 32
t0.5 32q0 8 -0.5 16t-0.5 16q0 5 -0.5 9t-0.5 9q0 1 -0.5 2.5t-0.5 2.5v4q-10 76 -38 146t-66 136z" />
    <glyph glyph-name="five" unicode="5" horiz-adv-x="625" 
d="M-130 573q-4 7 -0.5 15.5t6.5 13.5q3 7 9.5 16.5t15 17.5t17.5 14t17 6q5 0 10 -3q65 -38 141 -61.5t151 -23.5h2l4 1q5 0 7 1q5 2 8.5 1.5t7.5 0.5q8 2 15 4t15 4q4 3 8 4q3 2 6.5 3.5t7.5 3.5q6 4 13 4q6 0 10 -3q5 -4 5 -11t-2 -12q-2 -9 -8 -18t-12 -17
q-12 -15 -30.5 -26t-39.5 -17.5t-42.5 -9.5t-40.5 -3q-38 0 -75 6.5t-73 18.5l54 -111q23 -48 45 -94.5t43 -94.5q17 35 41.5 67t56 56.5t68 39.5t76.5 15q58 0 106 -26.5t85 -68.5t63.5 -93t41.5 -101q12 -39 15.5 -80t-5.5 -82q-8 -38 -30.5 -73t-51.5 -61
q-42 -38 -87 -53t-100 -15q-26 -2 -52 3q-25 4 -50.5 12.5t-48.5 21.5t-42 31.5t-31 42.5q-3 6 0 14.5t6 14.5q3 7 10 16t15 17.5t17 14t18 5.5q7 0 13 -9q4 -6 6 -10q16 -24 38.5 -40t49 -25.5t54.5 -14t55 -4.5q20 0 37.5 2.5t36.5 9.5q2 0 6 2q6 1 11 5l12 6q1 0 1.5 0.5
t1.5 0.5q2 2 4 3t4 3l2 2l2 2l2 2q1 2 2 3t2 3q3 6 4 9l1 2q2 5 3.5 11t2.5 11q0 5 1 7q2 8 1.5 17t-0.5 17v9.5t-1 9.5v2v2q-1 2 -1 4t-1 4q-7 22 -11.5 44.5t-12.5 43.5q-16 42 -40 84t-57 75.5t-74.5 54.5t-91.5 21h-6q-5 -1 -4.5 -0.5t2.5 0.5h-3q-2 0 -4.5 -0.5
t-4.5 -0.5q-5 0 -9 -1.5t-8 -2.5q-3 -1 -5.5 -1.5t-5.5 -1.5q-4 -2 -15.5 -7.5t-13.5 -7.5t-3 -2.5t-3 -2.5l-9 -9q-2 -2 -3.5 -4t-3.5 -4q-1 -1 -1.5 -2t-1.5 -2l-4 -6t-4 -5q1 0 -1 -3.5t-4 -5.5q-2 -3 -2.5 -6t-2.5 -6q-1 -1 -1 -3q1 0 -2 -3q-2 -8 -4 -12t-2 -7.5
t-1 -6.5q-1 -2 -1 -3.5t-1 -3.5q0 -1 -0.5 -2t-0.5 -2q0 1 0.5 1.5t0.5 2.5q-2 -3 -2.5 -14t-0.5 -15q0 -7 -0.5 -13.5t0.5 -12.5q0 -1 0.5 -5t-0.5 -3l1 -2q0 -5 2 -13t4 -14.5t4 -13.5t-0.5 -14.5t-4.5 -14.5q-3 -7 -9.5 -16t-15.5 -17.5t-18.5 -14t-17.5 -5.5t-13 9
q-63 149 -131 294.5t-145 287.5z" />
    <glyph glyph-name="six" unicode="6" horiz-adv-x="619" 
d="M2 355q-6 63 -1 126.5t23 124.5q5 18 19 35t31 25q8 4 15 4q6 0 9 -3q5 -4 5 -11t-2 -12q-5 -13 -8 -26.5t-5 -26.5q-1 -1 -1 -2q0 -5 -1 -6q-8 -16 -7 -34.5t0 -35.5q-1 -16 -1.5 -32t1.5 -32q1 -8 2 -15.5t1 -15.5v-9v2q0 -3 1 -4q0 -5 2 -15q9 -46 18.5 -86.5
t22.5 -78.5t30.5 -76t41.5 -79q6 42 27.5 84.5t53.5 76.5t73 55t87 21q44 0 85.5 -17t78 -45t65.5 -63t47 -73q25 -52 23 -109q-1 -49 -24.5 -98.5t-61 -89t-85 -64.5t-97.5 -25q-35 0 -68 10.5t-63 27.5q-73 41 -131.5 109t-101.5 149t-69.5 168t-34.5 166zM259 -18
q17 -33 46.5 -63t66.5 -53t77.5 -36.5t78.5 -13.5h6q4 1 7.5 1t7.5 1q5 1 10.5 2t11.5 3l4 1l4 2l4 2q3 1 5.5 2t5.5 3q2 2 5.5 3.5t5.5 3.5t4 3t4 3l2 2q6 6 10 9q2 3 4.5 5.5t4.5 5.5l3 3l2 4t3 4l2 3l1 2l2 4l2 6q2 4 2 8t2 7q2 2 2.5 7.5t0.5 2.5q1 6 1.5 12t0.5 12
v11.5t-1 10.5v1q-6 47 -31 91.5t-62 79.5t-82.5 57t-92.5 24q-3 1 -10 1q-1 0 -1.5 -0.5t-1.5 -0.5h-1h-6q-5 -1 -10.5 -2t-10.5 -3l-5 -2q-1 0 -5 -2l-5 -2.5l-5 -2.5q-4 -2 -7.5 -4.5t-7.5 -4.5l-3 -3q-4 -3 -10 -9q-2 -4 -4 -6l-3 -4q-1 -2 -1.5 -3.5t-1.5 -3.5
q-2 -3 -2.5 -6t-2.5 -5q1 1 1 3q0 -1 -0.5 -2t-0.5 -2q-2 -5 -3.5 -11t-2.5 -12q-1 -1 -1 -2l1 2v1v-1q0 -2 -1 -4q-1 -3 -1 -9q-3 -20 -1 -44v-6q2 -6 3.5 -13.5t2.5 -13.5q1 -8 -1.5 -15t-4.5 -14q-3 -8 -8 -15t-10 -13zM286 158l1 2q0 -1 -1 -2z" />
    <glyph glyph-name="seven" unicode="7" horiz-adv-x="456" 
d="M-410 592q-5 5 -5 12t2 12q2 8 9 19t16.5 21t19.5 17t19 7q7 0 19 -7t17 -12q4 -3 8.5 -5t9.5 -4q33 -16 85 -26.5t107.5 -16.5t109 -8t89.5 -2h27q17 1 33.5 2t33.5 1q10 0 15 1h2h7q8 0 15 1t15 2q23 2 45 8t45 6q2 0 3 0.5t2 0.5q10 0 13 -8q2 -5 1 -9.5t-2 -8.5
q-3 -13 -10.5 -24t-17.5 -20q-3 -4 -4 -8v-1q-3 -10 -6 -19.5t-5 -19.5q0 1 1 2q-3 -5 -4.5 -19t-2 -30t-1 -30.5t-0.5 -21.5q0 -20 1.5 -39t3.5 -38v-2v-4q1 -2 1 -5t1 -5q2 -5 1.5 -10.5t0.5 -10.5q2 -11 4 -22.5t4 -22.5q1 -1 1 -2l69 -9q31 -4 61 -7t60 -7
q9 -1 10.5 -7.5t-0.5 -14.5t-6 -16t-6 -11q-8 -13 -23 -27.5t-32 -14.5h-2q-11 2 -22 3t-22 3q-16 2 -31.5 3.5t-31.5 3.5q24 -85 55.5 -166t78.5 -156q4 -6 0.5 -14.5t-5.5 -13.5q-3 -7 -9.5 -16.5t-15 -17.5t-17.5 -14t-18 -6q-9 2 -13 9q-50 99 -92 199t-64 209
q-8 1 -14.5 1.5t-13.5 1.5q-30 4 -60.5 7.5t-60.5 7.5q-9 1 -10.5 7.5t0.5 14.5t6 16t6 11q8 11 24 26t31 15h2l44 -5q8 -1 15 -2l14 -2q-3 30 -4.5 60t-0.5 60q1 38 7.5 75.5t20.5 72.5q-19 -3 -38.5 -4.5t-38.5 -3.5q-73 -6 -149 -6q-44 1 -87 2.5t-86 6.5q-2 1 -4 1
q12 -12 23 -24t25 -22q5 -4 5 -11t-2 -12q-2 -9 -9 -20t-16.5 -21t-20 -16.5t-19.5 -6.5q-6 0 -9 3q-11 11 -23 21.5t-23 21.5l-46 46t-48 44q-16 14 -32 27.5t-33 25.5q-14 7 -28 18z" />
    <glyph glyph-name="eight" unicode="8" horiz-adv-x="589" 
d="M8 495q9 -47 35.5 -84t62.5 -66t78.5 -51t82.5 -39q9 -4 19 -6.5t18 -7.5l6 -3q2 0 2.5 -0.5t1.5 -0.5q35 -14 69 -25t69 -22q-1 11 -1 20.5t-2 20.5q-1 5 -1 10.5t-1 10.5q0 2 -0.5 3t-0.5 2q0 7 -1 11q-8 54 -21.5 106.5t-42.5 99.5q-39 57 -97.5 84t-126.5 27h-7
l-9 -1q-19 0 -41 -5q-7 -2 -13.5 -3.5t-12.5 -3.5l-6 -2l-6 -2q-4 -2 -5 -2q-6 -3 -12 -5.5t-11 -5.5q-1 -1 -2 -1q-4 -3 -10 -7l-2 -2q-2 -1 -2.5 -2t-2.5 -2q-1 -2 -2 -3.5t-2 -3.5q-2 -8 -2 -10q-1 -1 -1 -4v-11v-11v-3zM635 -140q1 5 1 10.5v10.5v11q-1 1 -1 4
q-9 64 -51.5 108.5t-102.5 65.5q-32 11 -65 21.5t-66 21.5q-24 8 -48.5 16.5t-48.5 17.5q-2 0 -8 -2q-1 0 -5 -2t-7 -3t-7 -3q-2 -2 -3 -2q-2 -1 -4 -3q-2 -4 -2 -5q-1 -2 -1.5 -4t-1.5 -4v-2v-4l-1 -1q0 -2 -1 -3q-1 -9 -2 -18.5t2 -17.5q1 -3 1 -9q0 -2 1 -3q0 -5 2 -15
q11 -58 45 -101t82 -71t103.5 -42t109.5 -14h4q2 0 2.5 0.5t2.5 0.5q7 1 13.5 1.5t13.5 2.5l6 2t8 2l3 1l5 2.5l5 2.5l4 2q3 3 5 4q1 2 1 3q2 4 3.5 8t1.5 8q0 1 1 2zM539 160q41 -14 75.5 -38t60.5 -59q20 -29 31.5 -62t9.5 -69q-1 -34 -14 -65.5t-34.5 -57.5t-50 -45
t-61.5 -28t-69 -9q-23 1 -47.5 3t-47.5 8q-62 15 -119 49t-93 88q-29 44 -41.5 95.5t-2.5 103.5q5 28 19.5 53.5t34.5 45.5q-4 2 -7 3q-34 15 -71.5 35.5t-71.5 46t-61 57t-40 68.5q-14 39 -11 80q2 29 15 55t31 49q44 56 107 82t132 26q38 1 75 -8t71 -26q48 -24 78.5 -62
t49 -84.5t27.5 -96.5t14 -98q2 -21 3 -42t3 -43q1 -8 2 -17t1 -17q0 -2 0.5 -10.5t1.5 -10.5z" />
    <glyph glyph-name="nine" unicode="9" horiz-adv-x="643" 
d="M-66 316q-32 77 -17 158q8 42 31 79.5t56 66t73.5 45.5t83.5 17q69 0 128.5 -33.5t107.5 -82.5q9 7 16 7q2 0 3 0.5t3 0.5q7 0 12 -8l2 -2q3 -5 6 -9.5t6 -9.5q42 -63 83.5 -125t80.5 -127q40 -66 78 -138t57 -147q8 -30 10 -62t-8 -61q-13 -39 -37.5 -70t-57 -52.5
t-70 -32.5t-77.5 -11q-47 0 -92 11t-87 28q-24 10 -53.5 25.5t-57.5 35t-50 43t-30 50.5q-2 8 0 15t5 14t9.5 16t15 17t17.5 13.5t18 5.5q11 2 14 -8q4 -15 12 -26t19 -22q29 -29 64.5 -49t72.5 -38q18 -9 41 -16.5t47.5 -12.5t49 -8t43.5 -3h12h4q28 2 52 10q1 1 3 1
q5 2 8.5 4t8.5 4q1 1 2 1q2 2 3 2.5t3 2.5l2 1q1 1 2 1.5t2 2.5l3 3q0 1 0.5 1.5t0.5 1.5q1 0 1 2q1 2 1 2.5t1 2.5q0 2 1 3v3q0 2 0.5 4t0.5 4v17q0 6 -1 9q0 11 -4.5 30t-7.5 30q-14 45 -37 95.5t-50.5 101t-57.5 98t-57 85.5q-14 -41 -40.5 -78t-62 -64.5t-77 -44
t-85.5 -16.5q-43 0 -83 14.5t-73.5 39.5t-60 59t-42.5 73zM-8 474q0 -5 1 -8v-3q0 1 -1 2q1 -3 1 -6t1 -6q5 -31 17 -60t29 -56q42 -52 93.5 -85t119.5 -33h5h1q1 1 2 1q4 0 7 0.5t7 1.5q7 1 13 3t13 3q2 0 6 2q6 2 14.5 5.5t12.5 7.5q6 3 7 4q2 2 4.5 3.5t4.5 3.5l2 1l8 8
l1 1q2 3 7 8q0 1 1 2l6 9l1 2q4 8 5 11q3 8 5 14.5t4 14.5q1 1 1 5q5 27 2 53v1v1q0 2 -0.5 3.5t-0.5 3.5q-1 5 -3 13q-1 5 -1.5 9t-2.5 9q-2 0 -3 -0.5t-2 -0.5q-7 2 -7 3q-23 30 -51.5 60t-61.5 54t-70.5 38.5t-78.5 14.5q-13 0 -23.5 -1t-22.5 -4q-8 -2 -12 -4
q-2 0 -3 -1q-5 -2 -10.5 -3.5t-9.5 -5.5q-2 -2 -3 -2t-2 -1q-8 -6 -11 -10q-1 0 -1 -0.5t-1 -0.5l-1 -2q-2 -2 -5 -8l-4 -8q-1 -1 -1 -2t-1 -2q-2 -5 -3 -10.5t-2 -10.5q-1 -1 -1 -4q-2 -8 -2 -12v-26z" />
    <glyph glyph-name="hyphen" unicode="-" horiz-adv-x="386" 
d="M-20 185q0 11 7 23.5t17.5 23.5t23 18.5t22.5 7.5h345q7 0 9 -5.5t2 -10.5q0 -10 -7 -23t-17.5 -24.5t-22.5 -19t-22 -7.5h-346q-7 0 -9 6t-2 11z" />
    <glyph glyph-name="plus" unicode="+" horiz-adv-x="472" 
d="M-20 185q0 11 7 23.5t17.5 23.5t23 18.5t22.5 7.5h146v142q0 10 7 23t17 24t21.5 19t21.5 8h3q10 -2 10 -16v-200h205q7 0 9 -5.5t2 -10.5q0 -10 -7 -23t-17.5 -24.5t-22.5 -19t-22 -7.5h-147v-142q0 -17 -14.5 -36t-27.5 -28l-12.5 -7.5t-14.5 -2.5t-9 6.5t-2 10.5v199
h-205q-7 0 -9 6t-2 11z" />
    <glyph glyph-name="asterisk" unicode="*" horiz-adv-x="363" 
d="M-197 484q-3 6 0 14.5t6 14.5t9 15t14 17t16 14t16 6q15 0 29.5 1t29.5 3l36 3q-13 24 -25.5 48t-24.5 48q-3 6 -0.5 14.5t5.5 14.5q3 5 8 12.5t12 15t13.5 13.5t12.5 8q2 1 6.5 2.5t9.5 1.5t8 -3q37 -44 73.5 -85t80.5 -78l22 2t22 1q39 0 78 5.5t78 5.5h7h4q5 0 8.5 -1
t5.5 -6q3 -7 0 -15t-6 -14q-3 -7 -9 -15.5t-13.5 -17t-16 -14t-16.5 -6.5q-15 -2 -29.5 -2t-29.5 -2h-3q42 -28 85.5 -50.5t86.5 -47.5q5 -3 4.5 -11t-2.5 -13q-6 -24 -27.5 -42.5t-46.5 -18.5q-15 0 -29 6t-27.5 15t-26.5 19.5t-27 18.5q-24 14 -47.5 30t-46.5 33
q11 -23 20.5 -45t20.5 -45q3 -6 0 -14t-5 -14q-3 -7 -9.5 -16.5t-15.5 -17.5t-18.5 -14t-17.5 -6t-13 9q-23 53 -47.5 104.5t-50.5 102.5h-8t-8 -1q-40 -8 -80.5 -9.5t-82.5 -1.5h-5q-8 -2 -13 8z" />
    <glyph glyph-name="asciicircum" unicode="^" horiz-adv-x="376" 
d="M-61 680q-2 5 0.5 13t4.5 13q3 7 9 15t13.5 14.5t15.5 11.5t15 5h3q60 -15 126.5 -37t128 -54t112 -76t80.5 -103q3 -6 0.5 -13t-4.5 -12q-3 -7 -9 -15t-13.5 -15t-15.5 -12t-16 -5t-11 7q-19 41 -53.5 75.5t-76.5 62t-87.5 48t-86.5 33.5q-2 1 -3.5 1t-3.5 1
q14 -25 27.5 -50t27.5 -50q14 -26 28 -53t29 -53q3 -5 0.5 -12.5t-4.5 -12.5q-3 -6 -8.5 -14.5t-13 -15.5t-15.5 -12t-16 -5q-7 -1 -12 7l-21 39l-46 84l-46 84q-14 26 -29 53t-29 53z" />
    <glyph glyph-name="tilde" unicode="&#x2dc;" horiz-adv-x="309" 
d="M-47 649q-6 4 -5.5 11t2.5 12q5 21 20 36.5t34.5 25t41 14.5t40.5 5q36 -1 70 -11.5t68 -21.5q17 -5 37.5 -9.5t38.5 -4.5q2 1 7 1q1 1 2 1t3 1q5 4 12 7t14 3t9.5 -5t2.5 -11q0 -17 -14.5 -36t-27.5 -28q-32 -23 -71 -23h-8q-34 2 -67 14.5t-65 20.5q-20 5 -39 8t-40 3
h-1q-11 0 -26 -5q-4 -2 -7.5 -3.5t-7.5 -3.5q-8 -4 -13 -4q-6 0 -10 3z" />
    <glyph glyph-name="slash" unicode="/" horiz-adv-x="475" 
d="M-13 -262q-2 5 -5.5 14t0.5 15q25 40 47.5 81t45.5 83q57 104 108.5 210t100.5 214q35 78 69.5 155.5t61.5 158.5q3 9 12 9t18.5 -6t18 -14t15.5 -17t10 -17l4.5 -13.5t0.5 -15.5q-21 -68 -47.5 -134.5t-56.5 -131.5t-62 -129.5t-64 -128.5q-41 -82 -85 -162t-87 -161
q-8 -14 -16 -27.5t-16 -27.5q-4 -8 -14 -8q-9 0 -18 5.5t-17 13.5t-14.5 17.5t-9.5 16.5z" />
    <glyph glyph-name="backslash" unicode="\" horiz-adv-x="232" 
d="M-81 595q-3 8 0 15.5t5 13.5q3 8 10 17t15.5 17.5t18 14t18.5 5.5t12 -9q71 -189 157 -375t183 -363q23 -42 45.5 -83t47.5 -81q4 -6 0.5 -15t-5.5 -14q-3 -6 -9 -15t-13.5 -17.5t-16 -14.5t-16.5 -6q-2 0 -3 -0.5t-2 -0.5q-9 2 -13 9q-8 14 -16 27.5t-16 27.5
q-44 81 -87.5 161t-84.5 162q-64 129 -121.5 259.5t-108.5 264.5z" />
    <glyph glyph-name="colon" unicode=":" horiz-adv-x="374" 
d="M154 76q-7 10 -2 24q3 10 9.5 21t15.5 20.5t19.5 16t21.5 6.5q5 0 8 -3q25 -35 50 -76q4 -6 4 -11t-2 -12q-4 -16 -19 -35t-31 -25q-2 -1 -7 -3t-10 -2q-2 1 -3.5 1t-3.5 2q-14 18 -25.5 37.5t-24.5 38.5zM154 423q-7 10 -2 24q3 10 9.5 21t15.5 20.5t19.5 16t21.5 6.5
q5 0 8 -3q25 -35 50 -76q4 -6 4 -11t-2 -12q-4 -16 -19 -35t-31 -25q-2 -1 -7 -3t-10 -2q-6 2 -7 3q-14 18 -25.5 37.5t-24.5 38.5z" />
    <glyph glyph-name="semicolon" unicode=";" horiz-adv-x="368" 
d="M226 508q12 -19 25 -37.5t25 -38.5q4 -6 4 -11t-2 -12q-4 -16 -19 -35t-31 -25q-2 -1 -7 -3t-10 -2q-7 2 -7 3q-12 20 -25 38t-25 38q-4 6 -4 11.5t2 12.5q2 10 9 21t16 20.5t20 16t21 6.5q6 0 8 -3zM226 163q22 -20 37 -46.5t20 -55.5q12 -70 -18 -134q-8 -16 -22.5 -34
t-32.5 -18q-2 0 -3 -0.5t-3 -0.5q-7 0 -12 9q-3 6 -0.5 14.5t5.5 14.5q1 1 1 2t1 3l2 6q1 2 1.5 5t1.5 5v4q3 22 2 40q-1 2 -1 5q-7 27 -17.5 52t-32.5 44q-5 5 -5 11.5t2 11.5q2 9 9 20t16.5 21t20 16.5t20.5 6.5q6 0 8 -2z" />
    <glyph glyph-name="less" unicode="&#x3c;" horiz-adv-x="622" 
d="M17 161q-13 5 -11 16.5t6 20.5q6 13 19 28.5t27 20.5q17 7 32.5 13t31.5 12q71 27 141 55t141 55q45 17 90 32.5t89 37.5q8 4 14 4q5 0 9 -3q5 -4 5 -11t-2 -12q-2 -7 -7.5 -16.5t-12.5 -18t-15 -15.5t-15 -10q-17 -6 -32.5 -12.5t-32.5 -12.5q-72 -26 -142.5 -52
t-139.5 -58q-10 -5 -19.5 -8.5t-20.5 -7.5l111 -37q41 -14 80.5 -27t79.5 -27l133 -44q14 -5 27.5 -9.5t27.5 -9.5q8 -3 10 -9t0.5 -13.5t-5.5 -14.5t-7 -12q-5 -8 -12.5 -17t-16.5 -14q-4 -2 -11 -6.5t-13 -4.5q-2 0 -2.5 0.5t-1.5 0.5q-6 2 -11.5 4t-10.5 4q-12 5 -23.5 8
t-22.5 7l-139 47q-41 14 -80.5 26.5t-79.5 26.5q-34 11 -66.5 22.5t-66.5 22.5q-14 5 -27.5 9t-27.5 9z" />
    <glyph glyph-name="equal" unicode="=" horiz-adv-x="545" 
d="M58 313q0 11 7 24t17.5 24t22.5 18.5t23 7.5h407q7 0 9 -5.5t2 -10.5q0 -11 -7 -24t-17.5 -24t-22.5 -18.5t-23 -7.5h-407q-7 0 -9 5.5t-2 10.5zM58 95q0 11 7 23.5t17.5 24t23 19t22.5 7.5h407q7 0 9 -6t2 -11q0 -10 -7 -23t-17.5 -24.5t-22.5 -19t-23 -7.5h-407
q-7 0 -9 6t-2 11z" />
    <glyph glyph-name="greater" unicode="&#x3e;" horiz-adv-x="645" 
d="M79 16q-3 5 -7 12t-5.5 14.5t0.5 13.5t10 9q14 5 27.5 9.5t27.5 9.5l133 44q40 14 80 27.5t80 26.5q28 9 55.5 18.5t55.5 18.5q-10 4 -20 7.5t-20 8.5q-69 31 -140 57t-142 53q-16 6 -31.5 13t-32.5 12q-8 3 -16 9.5t-15 15.5t-12.5 18.5t-7.5 16.5q-2 5 -2 12t5 11
q5 3 9 3q10 -2 15 -4q45 -17 89 -34.5t89 -35.5q70 -28 140.5 -55.5t141.5 -54.5q16 -6 32 -12.5t32 -12.5q13 -5 27 -20.5t19 -28.5q4 -9 6 -20.5t-11 -16.5q-88 -29 -173.5 -58t-173.5 -58l-140 -47q-11 -4 -22.5 -7t-22.5 -8q-6 -2 -11.5 -4t-11.5 -4q-1 0 -1.5 -0.5
t-2.5 -0.5q-7 0 -15 4.5t-15.5 11t-13.5 13.5t-9 13z" />
    <glyph glyph-name="exclam" unicode="!" horiz-adv-x="224" 
d="M-105 591q-3 7 0 15.5t6 13.5q4 7 10.5 16.5t14.5 17.5t17 14t18 6q9 -2 13 -9l1 -1q11 -22 22 -43.5t22 -43.5l90 -179q26 -52 52 -103.5t52 -103.5l87 -172q9 -18 18.5 -35t17.5 -36q3 -7 0 -15t-5 -14q-3 -7 -9.5 -16t-15.5 -17.5t-18.5 -14t-17.5 -5.5q-9 0 -13 8v1
q-12 22 -22.5 43.5t-21.5 43.5l-91 180q-26 52 -52 103.5t-52 103.5zM301 -219q-6 10 -3 24q2 9 9 20t16.5 21t20.5 16.5t21 6.5q6 0 7 -3q11 -20 24.5 -38t25.5 -38q6 -10 3 -23q-1 -7 -6.5 -16.5t-13 -18t-15.5 -15.5t-15 -10q-2 -1 -7 -3t-10 -2q-7 2 -7 3
q-13 20 -25 38.5t-25 37.5z" />
    <glyph glyph-name="question" unicode="?" horiz-adv-x="505" 
d="M418 -59q-2 -9 -8.5 -20t-16 -20.5t-20.5 -16.5t-21 -7q-6 0 -8 2q-25 26 -40 56.5t-16 67.5q-1 29 5 57.5t15 55.5q10 28 20.5 55.5t18.5 56.5q2 8 4 15t4 15q1 4 2 7.5t1 7.5q0 2 0.5 3.5t0.5 3.5q2 16 2.5 31.5t0.5 31.5v8q-1 1 -1 3q-6 32 -16 60.5t-28 55.5
q-16 25 -33.5 41.5t-37.5 26.5t-43.5 14.5t-52.5 4.5h-3h-3q-26 -3 -46 -10q-2 -1 -6 -2.5t-5 -1.5l2 1q1 0 5 2q-6 -1 -11 -4q-5 -2 -10 -5t-10 -5q-2 -2 -3 -2q-2 -2 -8 -6q-1 0 -3 -2l-5 -5q-4 -4 -5 -6q-1 -1 -3 -5q-2 -2 -2 -3l-3 -6l-2 -6l-3 -12v-3q-1 -4 -1 -12
q-1 -7 -0.5 -13t0.5 -13q1 -3 1 -8q9 -35 24.5 -66.5t37.5 -61.5q5 -7 4.5 -15t-4 -16t-8.5 -15t-9 -12q-8 -11 -20.5 -20.5t-26.5 -9.5q-5 0 -8 3q-8 10 -14.5 20t-13.5 21q-20 32 -32.5 67t-11.5 73q1 52 25 97.5t62.5 79t87 53t98.5 19.5q40 0 72 -11t57.5 -32t45 -50.5
t32.5 -65.5q14 -35 17.5 -73t-1.5 -75q-5 -35 -14.5 -68.5t-22.5 -67.5q-9 -26 -18 -51.5t-14 -51.5q1 2 1 5q1 0 1 1q-1 -2 -1 -4q-2 -6 -2 -7q-1 -8 -1 -14.5v-13.5v-14l1.5 -4.5t0.5 -3.5q3 -20 15.5 -44t28.5 -38q5 -5 5 -11t-2 -12zM459 -134q13 -19 25.5 -37.5
t24.5 -38.5q6 -10 3 -23q-1 -7 -6.5 -16.5t-13 -18t-15.5 -15.5t-15 -10q-2 -1 -7 -3t-10 -2q-7 2 -7 3q-13 20 -25.5 38t-24.5 38q-6 10 -3 24q2 9 9 20t16.5 21t20.5 16.5t21 6.5q4 0 7 -3z" />
    <glyph glyph-name="quotesingle" unicode="'" horiz-adv-x="230" 
d="M20 794q0 7 5.5 9t10.5 2q11 0 24 -6.5t24 -16.5t18.5 -22.5t7.5 -23.5v-206q0 -7 -5.5 -9t-10.5 -2q-11 0 -24 7t-24 17t-18.5 22.5t-7.5 22.5v206z" />
    <glyph glyph-name="quotedbl" unicode="&#x22;" horiz-adv-x="378" 
d="M20 794q0 7 5.5 9t10.5 2q11 0 24 -6.5t24 -16.5t18.5 -22.5t7.5 -23.5v-206q0 -7 -5.5 -9t-10.5 -2q-11 0 -24 7t-24 17t-18.5 22.5t-7.5 22.5v206zM168 794q0 7 5.5 9t10.5 2q11 0 24 -6.5t24 -16.5t18.5 -22.5t7.5 -23.5v-206q0 -7 -5.5 -9t-10.5 -2q-11 0 -24 7
t-24 17t-18.5 22.5t-7.5 22.5v206z" />
    <glyph glyph-name="numbersign" unicode="#" horiz-adv-x="868" 
d="M-95 319q0 11 7 23.5t17.5 24t22.5 19t23 7.5q26 1 51 1.5t51 2.5h10q-13 26 -26 52.5t-27 52.5q-11 23 -23 44.5t-22 44.5q-3 7 0 15.5t6 13.5q4 7 10.5 16.5t14.5 17.5t17 14t18 6q9 -2 13 -9q1 -1 1 -2q14 -26 27.5 -53.5t27.5 -54.5q20 -38 38.5 -76.5t38.5 -76.5
q21 1 41.5 1.5t41.5 1.5q50 2 98.5 4t97.5 4l-45 89q-11 23 -23 44.5t-22 44.5q-3 7 -0.5 15t5.5 14q3 7 10 16.5t15.5 17.5t17.5 14t18 6q9 -2 13 -9q0 -1 1 -2q14 -26 27 -53.5t27 -54.5q17 -35 34.5 -68.5t34.5 -68.5q33 2 65.5 3t64.5 3l42 2t41 1q7 0 9 -5.5t2 -10.5
q0 -12 -6.5 -24.5t-16.5 -23.5t-22.5 -18.5t-23.5 -7.5h-2q-25 -2 -50 -2.5t-51 -2.5h-8q32 -65 65 -129t65 -129q3 -6 6 -12.5t7 -12.5q29 2 58.5 3t58.5 2q21 1 41.5 1t41.5 2q7 1 9 -5t2 -11q0 -11 -7 -24t-17.5 -24t-22.5 -18.5t-23 -7.5q-25 -2 -49.5 -2.5t-48.5 -1.5
q13 -26 26 -51.5t26 -51.5q11 -23 23 -44.5t22 -44.5q3 -7 0.5 -15t-5.5 -14q-3 -7 -10 -16.5t-15.5 -17.5t-17.5 -14t-18 -6q-9 2 -13 9q-15 28 -28 55.5t-27 54.5q-38 76 -77 151q-24 -1 -48.5 -2t-48.5 -2l-182 -7q11 -22 22 -43.5t22 -43.5q11 -23 23 -44.5t22 -44.5
q3 -7 0 -15.5t-5 -13.5q-3 -7 -9.5 -16t-15 -17.5t-18 -14.5t-17.5 -6q-9 2 -13 9q-15 28 -28.5 55.5t-27.5 54.5q-17 34 -34 67.5t-34 67.5l-145 -6q-20 -1 -41 -1t-42 -2q-6 -1 -8 5t-2 11q0 12 7 25t17.5 24t23 18t23.5 7q25 1 50 2.5t51 1.5q5 0 11 0.5t12 0.5
q-1 1 -1 1.5t-1 1.5q-32 64 -65 128t-65 129q-3 6 -5.5 12t-5.5 11q-33 -2 -66 -2.5t-66 -2.5q-21 -1 -42 -2.5t-41 -1.5q-7 0 -9 6t-2 11zM438 324q-49 -2 -97 -4t-97 -4q31 -61 61.5 -121t60.5 -121q5 -11 10.5 -21t10.5 -20q18 1 35.5 1.5t35.5 1.5l104 4l104 4
q-31 62 -62.5 122t-60.5 122q-5 10 -10 19.5t-10 19.5z" />
    <glyph glyph-name="at" unicode="@" horiz-adv-x="1035" 
d="M42 266q0 101 39 187t105.5 149t155 98.5t186.5 35.5q74 0 141 -23t124.5 -63.5t104 -95.5t79 -118.5t50 -134t17.5 -140.5q0 -32 -8.5 -73t-27 -77.5t-47 -61.5t-68.5 -25q-25 0 -51.5 16t-50.5 38.5t-44.5 48t-35.5 44.5q-4 -24 -16 -50.5t-29.5 -49t-41 -37
t-50.5 -14.5q-34 0 -67 19.5t-62 50.5t-53.5 71.5t-42.5 81.5t-28 80.5t-10 69.5q0 35 14 69.5t38 61.5t56.5 43.5t69.5 16.5q32 0 63 -12.5t57 -31.5q9 7 18 7q5 0 10.5 -6.5t10 -15t8 -17t5.5 -13.5q11 -26 19 -53t19 -53q7 -18 22.5 -44.5t36.5 -56.5t45.5 -60t50 -54.5
t49.5 -40.5t43 -18h5q8 21 10 43t2 44q0 76 -24 154t-67 147t-102.5 124t-129.5 86q-39 17 -82.5 25t-86.5 8q-76 0 -139.5 -20.5t-110 -61t-72.5 -100.5t-26 -139q0 -69 19.5 -141t54.5 -139.5t84.5 -127t109.5 -104t128.5 -70t141.5 -25.5l11 1h9q60 5 105 27t89 61
q7 6 16.5 12.5t18.5 6.5q6 0 10 -4.5t4 -10.5q0 -16 -13 -34t-31 -35t-37.5 -31.5t-32.5 -21.5q-47 -28 -99.5 -44.5t-107.5 -16.5q-77 0 -148.5 27t-134 73.5t-114 108.5t-88 133t-56.5 147t-20 149zM391 352q0 -26 9.5 -61t25.5 -73t39 -75t49 -66.5t55.5 -48t59.5 -18.5
l3 15l-1 -5q4 17 5 35.5t1 35.5q0 43 -5 70.5t-13.5 51.5t-20 49t-24.5 62q-27 27 -63.5 48.5t-77.5 21.5q-27 0 -34.5 -8t-7.5 -34z" />
    <glyph glyph-name="dollar" unicode="$" horiz-adv-x="515" 
d="M24 291q-19 13 -38 29.5t-32.5 36.5t-19.5 43t-1 48q4 21 16 41t28 37t35 31t37 24q0 9 6.5 20t15.5 20.5t19 16t18 6.5t11 -7t5.5 -14t5.5 -15q11 2 21 3t21 1q35 0 67.5 -11t60 -30t49.5 -46t34 -60q2 -6 -0.5 -13.5t-4.5 -12.5q-8 -18 -22 -30q-5 -5 -14.5 -11
t-17.5 -6q-8 2 -11 8q-23 51 -58 83t-93 45q25 -61 51 -121.5t55 -119.5q5 -2 11 -5t11 -5q42 -17 89.5 -39t92 -50t81.5 -62t57 -75q19 -40 7 -81q-13 -43 -47 -73t-76 -44q3 -4 7 -12q3 -5 0.5 -12.5t-4.5 -12.5q-7 -14 -21.5 -30.5t-31.5 -16.5q-8 0 -12 7
q-9 15 -18.5 30.5t-17.5 31.5q-6 1 -11.5 0.5t-11.5 0.5q-34 4 -68 12.5t-65 23.5t-56.5 38t-41.5 56q-22 45 -17 95q1 8 6.5 19t14 21t18.5 17.5t20 7.5h3q9 -1 9 -14q0 -8 -0.5 -15t0.5 -14v-2q4 -29 17 -53t33 -42.5t44.5 -32t51.5 -22.5q-37 69 -71.5 138t-67.5 140
q-46 17 -91.5 35t-87.5 44zM331 156q21 -43 43.5 -85.5t44.5 -84.5q9 -17 18.5 -34t18.5 -34h6q8 0 16 2q11 3 21 3q3 0 15 2.5t15 4.5l2 1q5 2 8.5 3.5t7.5 3.5l3 2q2 7 0 15q0 3 -1 4q0 2 -1 4.5t-1 4.5q0 11 -6 20l-12 18q-35 52 -89 87.5t-109 62.5zM1 475q0 -1 1 -2v-5
q5 -25 20.5 -45t36 -36.5t44 -29.5t44.5 -23q-20 48 -40 95t-39 95q-3 0 -7 -2q-3 -2 -5.5 -2t-4.5 -1h-1q-5 -2 -9 -4l-8 -4q-2 -2 -4 -2.5t-4 -1.5q-4 -2 -7.5 -4.5t-6.5 -4.5l-1 -1l-3 -3l-4 -5v-2q-1 -1 -1.5 -5.5t-0.5 -6.5z" />
    <glyph glyph-name="Euro" unicode="&#x20ac;" horiz-adv-x="547" 
d="M-30 197q-2 6 0.5 13.5t4.5 12.5q6 14 19.5 28t29.5 18l38 9q-26 64 -38 126q-7 38 -5 76t20 73q23 43 62 73t88 30q53 0 90 -22.5t74 -59.5q4 -4 3.5 -9.5t-1.5 -10.5q-1 -8 -7.5 -18t-15 -18.5t-18 -14.5t-17.5 -6q-5 0 -7 2q-31 31 -65 54.5t-80 23.5h-4q-5 0 -11 -2
q-5 -2 -8.5 -2.5t-8.5 -2.5h-2l-4 -2q-2 -1 -4.5 -2.5t-5.5 -2.5q0 -2 -1 -2v-2h-1q-2 -8 -2 -10q-1 -2 -1 -3t-1 -3q-2 -9 -2 -18v-18q0 -2 0.5 -10t1.5 -10v-2q5 -48 22.5 -95t37.5 -91l184 43q2 0 2.5 0.5t2.5 0.5q8 0 11 -8q2 -5 -0.5 -12.5t-4.5 -12.5
q-6 -14 -19.5 -28.5t-29.5 -18.5l-115 -27q10 -19 18.5 -38.5t23.5 -34.5q4 -3 5 -8l194 46q1 0 2 0.5t2 0.5q10 -2 12 -8q3 -6 0.5 -13t-4.5 -12q-7 -15 -20 -29t-29 -18l-113 -26l2 -2q24 -30 57 -62.5t71 -59.5t79.5 -44.5t82.5 -17.5h3q2 1 5 1l12 3q1 0 2 0.5t2 0.5
q6 2 8 4l2 1l1 1q2 6 2 5l1 1l2 4q2 10 4 15q2 6 2 9q0 1 1 2l2 18t1 19q0 6 4 14t9.5 16.5t12 15.5t11.5 10t12 6.5t13 2.5q5 -1 7 -5.5t2 -9.5q0 -45 -19 -92t-52 -78q-23 -21 -50 -33t-59 -11q-50 1 -98.5 25.5t-92 60t-80.5 77.5t-63 79l-97 -23q-2 0 -3 -0.5t-2 -0.5
q-8 0 -11 8q-3 6 -0.5 13t4.5 13q6 14 20 28t29 18l22 5q-12 20 -22.5 40.5t-21.5 41.5q-26 -6 -51.5 -15.5t-52.5 -9.5h-3q-10 0 -13 7z" />
    <glyph glyph-name="percent" unicode="%" horiz-adv-x="1018" 
d="M233 339q-8 -8 -18 -14.5t-21 -6.5q-5 0 -8 3q-12 15 -27.5 31.5t-33 29.5t-37.5 21.5t-41 8.5h-4h-3q-2 0 -8 -2q0 -3 -0.5 -5.5t0.5 -5.5v-9.5t2 -8.5q8 -33 32 -62.5t56 -52t68 -35.5t68 -13q1 0 2 1h4q3 0 5 1v14v12q0 -2 0.5 -3.5t-0.5 2.5l-1 4q-6 24 -14 46
t-21 44zM1095 -132v10q0 6 -1 8q0 5 -0.5 8.5t-1.5 7.5q-8 43 -30.5 82t-55 69t-72.5 50t-83 25q11 -32 23 -62.5t31 -58.5q12 -18 34.5 -41t49 -44t54 -36t49.5 -17q1 -1 3 -1zM260 219v0v0zM872 220q51 0 97 -16t84.5 -45t67 -69.5t43.5 -88.5q13 -39 11 -79
q-1 -25 -11.5 -50.5t-28 -46.5t-40 -34t-49.5 -13q-21 0 -42.5 8t-42.5 20.5t-40 27.5t-34 28q3 -19 6.5 -37.5t5.5 -37.5q2 -17 -6.5 -32t-19.5 -26q-7 -7 -19 -16t-23 -9q-4 0 -7 3q-85 98 -162 202t-146.5 213t-133.5 222t-124 228q-10 -13 -20 -25t-21 -24
q24 -21 48 -47.5t43 -57t30.5 -63.5t11.5 -66q0 -31 -12 -60.5t-32.5 -51.5t-48.5 -35.5t-60 -13.5q-28 0 -58.5 10t-58.5 26.5t-52.5 37.5t-40.5 43q-17 23 -27.5 48t-8.5 54q1 28 14 56t33.5 50t47.5 35.5t56 13.5h12t12 -2q11 19 32 35q2 2 4.5 4t4.5 4q4 4 7.5 8t8.5 7
q8 5 16 15.5t13 18.5t6 8l-1 -1q0 -1 -1 -2q2 3 4.5 6.5t4.5 6.5q3 5 6 9.5t6 9.5q2 3 3 5.5t3 5.5q7 14 17 26t24 20l9 4.5t10 2.5q9 -2 13 -9q16 -29 31.5 -59t31.5 -60q47 -87 94 -169t97 -161t103.5 -157t113.5 -156q-6 39 -11.5 78t-12.5 78q-2 14 4 26.5t15 23.5
q-3 0 -6.5 -0.5t-6.5 -0.5h-5q-7 0 -10 3.5t-3.5 9t1.5 12t4 11.5q3 7 9 15.5t14 17t16.5 14t16.5 6.5t15.5 1.5t15.5 1.5t14.5 1h14.5z" />
    <glyph glyph-name="ampersand" unicode="&#x26;" horiz-adv-x="741" 
d="M711 -74q1 0 1 2q-53 10 -104.5 22.5t-102.5 27.5q-26 5 -51.5 9.5t-51.5 9.5q-47 8 -93 13.5t-94 5.5q-8 0 -14.5 -0.5t-14.5 -0.5h-10h-1q-4 0 -6 -1q-19 0 -45.5 -6.5t-42.5 -15.5q-1 -1 -3 -1q0 -2 -0.5 -3t-0.5 -3q-1 -1 -1.5 -5.5t-0.5 -6.5v-18q1 -2 1 -5
q1 -2 1 -4.5t1 -4.5q14 -41 44.5 -67.5t69.5 -42t82 -21.5t81 -6h16.5t16.5 1h6q3 0 5 1q19 0 42.5 4t48.5 10t48.5 12.5t41.5 12.5q2 1 2.5 1t2.5 1q3 2 6 2.5t6 2.5l22 10l22 10q5 2 9.5 5t9.5 5l2 2q2 2 4 2.5t4 2.5q5 3 8.5 6t8.5 6l2 2l4 3q5 3 7.5 6.5t6.5 7.5
q-2 -2 -4 -3.5t-3 -2.5l-2 -2l4 4q6 4 7 6q0 2 2 4zM879 -1q9 -2 10.5 -8t-0.5 -14t-6 -15.5t-6 -11.5q-5 -9 -13 -17t-16 -14q-5 -4 -13 -8t-15 -3q-14 2 -27 4.5t-26 4.5q-36 -53 -91.5 -91t-119 -63.5t-131 -37.5t-128.5 -12q-40 0 -86.5 7.5t-88.5 25t-74.5 46.5
t-46.5 72q-11 33 -4.5 66.5t23.5 62.5t43 52t56 36q19 8 37.5 13t38.5 7q-49 24 -97 56.5t-87 69.5q-22 21 -44 46t-41 52.5t-32.5 57.5t-17.5 61q-4 26 -0.5 52.5t15.5 50.5q10 20 24.5 38t33 32t40 22.5t44.5 8.5q40 0 78.5 -18.5t73 -46t64 -60t50.5 -62.5q5 -7 4.5 -15
t-4 -15.5t-8.5 -15t-9 -12.5q-8 -10 -20.5 -20t-26.5 -10q-5 0 -7 3q-20 27 -48.5 59t-61 59t-67.5 45t-70 18h-7q-8 0 -17 -3q-2 -9 -2.5 -17t-0.5 -16q0 -2 1 -3q0 -11 4 -26t10.5 -30t14 -29t13.5 -23q47 -67 112.5 -121t140.5 -95.5t155.5 -72t156.5 -52.5
q23 -5 47 -10.5t47 -10.5q19 -4 37 -8t36 -9q-10 53 -41.5 101t-76 85t-97.5 59t-106 22h-11h-1q-1 0 -2 -1q-11 -1 -21 -2.5t-20 -5.5q-3 0 -5 -2v1l-6 -3q-5 -2 -9 -5t-9 -5q-8 -4 -14 -4q-5 0 -10 3q-5 4 -5 11.5t2 12.5q2 9 8 18t12 16q12 15 29.5 25.5t37.5 17t40 10
t38 3.5q44 0 88 -14t84 -39t73.5 -57.5t56.5 -68.5q29 -45 42 -94.5t2 -102.5q17 -4 35 -7z" />
    <glyph glyph-name="parenleft" unicode="(" horiz-adv-x="177" 
d="M627 -194q6 5 16 11.5t19 6.5q8 0 12 -8q3 -6 0 -15t-5 -14q-5 -9 -11 -18.5t-14 -15.5q-22 -17 -43.5 -32.5t-45 -26.5t-49 -17.5t-55.5 -6.5q-34 0 -65.5 10.5t-60.5 27.5q-44 25 -82.5 64t-71 86.5t-59.5 101t-47.5 108t-35 107.5t-22.5 99q-7 40 -10 80t0 81
q4 51 20.5 101.5t46 90.5t73 65.5t101.5 25.5q12 0 24 -1t24 -3q9 -1 10.5 -7.5t-0.5 -14.5t-6 -15.5t-6 -11.5q-7 -12 -23 -26.5t-31 -14.5h-3l-21 3q-5 1 -10.5 1h-10.5h-10h-4q-16 -1 -33 -6q-1 0 -5 -2h-2q-3 -2 -6.5 -3.5t-6.5 -3.5q-2 -1 -2.5 -1.5t-2.5 -1.5l-3 -3
l-2 -2q-3 -4 -6.5 -11.5t-5.5 -10.5q0 -1 -0.5 -1.5t-0.5 -2.5l-1 -2q-3 -9 -5.5 -18t-4.5 -19q-1 -2 -1 -3.5t-1 -3.5v-2v2q1 1 1 5l-1 -9q-2 -22 -3.5 -43.5t-1.5 -43.5q0 -12 -1.5 -24.5t3.5 -23.5q1 -2 1 -6q0 -2 0.5 -5t0.5 -6q7 -60 23.5 -123t41 -124t56 -117.5
t68.5 -103.5q24 -32 50.5 -59t56.5 -47t65 -31.5t76 -11.5q2 1 8.5 2t8.5 1l12 2t12 3l6 2l6 2q-3 -1 -6 -1l-1 -1l4 1q2 1 3 1t2 1q7 3 13 6l12 6q2 2 3 2q5 5 11 8q4 2 12 8z" />
    <glyph glyph-name="parenright" unicode=")" horiz-adv-x="178" 
d="M-459 576q-2 6 0.5 15t4.5 14q5 9 11.5 18.5t14.5 15.5q43 35 88 59t104 24q62 0 117 -31t102 -81.5t85.5 -114.5t67 -131.5t47.5 -131.5t26 -114q6 -40 8.5 -80t0.5 -81q-3 -51 -19.5 -101.5t-46.5 -90.5t-73.5 -65.5t-101.5 -25.5q-12 0 -24 1t-24 3q-9 2 -10.5 8.5
t0.5 14t6 15t6 11.5q5 9 13 17t16 14q5 4 13 8t15 3q5 -1 10.5 -2t11.5 -2q5 -1 10 -1h10h11h3q17 1 34 6q1 1 2 1t3 1q1 0 2 1q3 1 11 5.5t10 6.5l1 2q2 3 3.5 4.5t2.5 3.5q2 3 3 6.5t3 7.5l2 4q0 1 0.5 1.5t0.5 1.5q2 5 6 18.5t4 18.5q0 2 0.5 5t1.5 4q0 -1 -2 -8l2 9
q5 22 5 44v44q0 23 -3 47v6q-1 3 -1 6t-1 5q-2 7 -2 13t-1 13q-6 52 -21.5 102.5t-33.5 100.5q-22 60 -57 128t-83 126t-107.5 96t-131.5 38q-2 0 -3 -0.5t-2 -0.5q-3 0 -6 -0.5t-5 -0.5q-6 -1 -12 -2.5t-12 -3.5l-6 -2l-6 -2q4 2 5 2h2q-1 1 -4.5 -0.5t-5.5 -2.5l-24 -12
q-1 -1 -1.5 -1t-1.5 -1q-5 -2 -11 -7l-12 -9q-1 -1 -2 -1.5t-2 -1.5q-5 -5 -15 -11.5t-19 -6.5t-13 8z" />
    <glyph glyph-name="braceleft" unicode="{" horiz-adv-x="244" 
d="M-13 475q-5 20 -6.5 39.5t0.5 39.5q3 29 17.5 58t36 52t49.5 38t58 15q17 0 34 -6t28 -21q5 -7 4.5 -15t-4 -15.5t-8.5 -15t-9 -12.5q-9 -11 -20.5 -20.5t-26.5 -9.5q-5 0 -7 3q-9 12 -21.5 17t-26.5 5q-2 -1 -4 -1q-3 0 -5.5 -0.5t-5.5 -1.5q-2 -2 -4 -2q-1 0 -2 -1
l-1 -2q0 -3 -1 -5q0 -4 -1 -5q-1 -16 0 -33q0 -7 2 -11q2 -5 2 -9t1 -8q13 -57 40.5 -108t57.5 -101q17 -27 33.5 -55t24.5 -60q7 -26 4.5 -51.5t-13.5 -49.5q12 -7 22.5 -15t20.5 -17q24 -22 42.5 -49t34.5 -56t31 -58t33 -56q13 -20 29.5 -39.5t36 -34.5t42.5 -24t49 -9h4
l3 1h4q2 1 4.5 0.5t5.5 1.5q2 1 3 1t3 1h2q2 2 6 4q8 8 19 16.5t22 8.5q4 1 10 -3q5 -3 5 -10.5t-2 -12.5q-7 -21 -23 -39t-36 -31t-43 -20.5t-45 -7.5q-27 0 -51 9t-45 24t-39 34.5t-32 40.5q-27 40 -48 81.5t-47 81.5q-20 32 -46.5 57t-59.5 42q-5 2 -5 8.5t1 10.5
q2 7 5 14t7 13q2 3 4 7q2 2 3 4q0 1 0.5 1.5t0.5 1.5q2 4 2 8q1 4 1 8v8v6q0 2 -1 3q0 11 -5.5 26t-10.5 24q-17 35 -38 68t-41 66q-21 36 -38 74t-26 79z" />
    <glyph glyph-name="bar" unicode="|" horiz-adv-x="326" 
d="M142 838q0 10 7 23t17 24t21.5 19t21.5 8h3q10 -2 10 -16v-1308q0 -17 -14.5 -36t-27.5 -28l-12.5 -7.5t-14.5 -2.5t-9 6.5t-2 10.5v1307z" />
    <glyph glyph-name="braceright" unicode="}" horiz-adv-x="239" 
d="M-308 591q-5 3 -4 10.5t2 12.5q5 21 21 38.5t37.5 31t45 21t42.5 7.5q27 0 51.5 -9t45.5 -24t39 -34.5t32 -40.5q26 -40 47.5 -81.5t47.5 -81.5q20 -31 46.5 -56.5t59.5 -42.5q5 -2 5 -8.5t-1 -10.5q-2 -9 -6 -18t-11 -16q0 -1 -2 -3q0 -1 -0.5 -1.5t-0.5 -2.5
q-1 -2 -3 -8v-22v-3q4 -25 17 -50q17 -35 38 -67.5t41 -66.5q21 -36 38.5 -74t25.5 -79q4 -20 5.5 -39.5t-0.5 -39.5q-3 -29 -17.5 -58t-36.5 -52.5t-50.5 -38t-58.5 -14.5q-17 0 -32.5 6.5t-26.5 20.5q-5 7 -5 15t3.5 15.5t8.5 15t9 12.5q8 11 20.5 20.5t26.5 9.5q5 0 8 -3
q9 -13 20 -17.5t27 -4.5q3 1 5 1q4 0 10 2l4 2q2 0 2 1q2 2 2 3.5t1 3.5v5q1 8 1 16.5v16.5q-1 0 -1 0.5t1 0.5q-1 1 -1 3t-0.5 3.5t-0.5 3.5q-11 63 -39 118t-62 108q-17 27 -34 55t-25 60q-7 26 -4 52t13 49q-21 13 -42 32q-24 23 -42.5 50t-35 55.5t-31.5 57.5t-33 56
q-13 20 -29.5 39t-36.5 34t-43 24.5t-48 9.5l-6 -1h-5q-2 -1 -4.5 -1t-4.5 -1t-3.5 -1t-3.5 -1q-5 -1 -8 -4q-7 -8 -18.5 -16.5t-22.5 -8.5q-6 0 -10 3z" />
    <glyph glyph-name="bracketleft" unicode="[" horiz-adv-x="214" 
d="M-129 631q-3 6 0 15t5 14q4 8 10.5 17t14.5 17t17 13.5t18 5.5h4l14 -2l14 -2q50 -6 99 -14t99 -15q9 -1 10.5 -7.5t0 -14.5t-5.5 -15.5t-6 -11.5q-3 -6 -9.5 -13t-14 -13t-16 -10.5t-15.5 -4.5h-2q-8 1 -14.5 2t-13.5 2q-20 2 -40.5 5.5t-40.5 6.5q2 -4 3.5 -8t3.5 -8
q24 -60 54.5 -116.5t59.5 -114.5q33 -68 66.5 -134.5t66.5 -134.5q27 -56 54.5 -111t53.5 -110q11 -22 21 -43t21 -43q5 -1 8.5 -1.5t7.5 -1.5q40 -8 79.5 -13t79.5 -12q9 -2 10.5 -8t-0.5 -14t-6 -15.5t-6 -11.5q-5 -9 -13 -17t-16 -14q-5 -4 -13 -8.5t-15 -2.5q-8 2 -12 2
q-39 1 -76 10t-75 15q-5 1 -9 1t-8 2q-8 3 -11 9l-4 8l-4 8l-37 75q-15 30 -29.5 60t-29.5 60q-18 37 -36.5 74t-36.5 74q-20 40 -39 79.5t-39 80.5q-19 38 -38.5 76.5t-37.5 76.5q-32 66 -64 131l-22 46t-23 45q-5 8 -8.5 17t-8.5 17z" />
    <glyph glyph-name="bracketright" unicode="]" horiz-adv-x="218" 
d="M-279 624q-9 2 -10.5 8t0.5 14t6 15.5t6 11.5q8 12 23 26.5t31 14.5h3q3 -1 6 -1t6 -1q37 -9 75 -13.5t76 -10.5q5 -1 9 -1.5t8 -1.5q5 -1 7 -3.5t4 -6.5t4 -7.5t4 -7.5q11 -18 19 -37t18 -38q15 -30 29.5 -60t29.5 -60l36 -74t37 -74q20 -41 39 -80.5t39 -79.5
q19 -38 38 -76.5t38 -77.5q27 -56 54 -111t55 -110q5 -9 9 -17.5t8 -17.5q2 -5 -0.5 -14t-5.5 -14q-8 -16 -24 -34.5t-35 -18.5h-4q-7 1 -14 1.5t-14 2.5q-49 11 -98.5 15.5t-99.5 12.5q-9 1 -10.5 8t0 15t5.5 15.5t6 10.5q8 12 23.5 27t31.5 15h2q8 -1 14.5 -2t13.5 -2
q20 -2 40.5 -5.5t40.5 -6.5q-2 4 -3.5 7.5t-3.5 7.5q-25 60 -55 117t-59 115q-33 68 -66.5 134.5t-66.5 134.5q-27 56 -54.5 110.5t-54.5 110.5q-11 22 -21 43t-21 43q-4 0 -7.5 0.5t-8.5 1.5q-39 7 -78.5 13t-79.5 13z" />
    <glyph glyph-name="quoteleft" unicode="&#x2018;" horiz-adv-x="276" 
d="M24 621q-14 69 17 133q8 16 22.5 34t33.5 18q2 0 2.5 0.5t2.5 0.5q10 0 13 -8q2 -7 -0.5 -15.5t-4.5 -13.5l-3 -6l-2 -6q-2 -6 -2 -10q-1 -1 -1 -3q-2 -11 -2 -20.5t1 -20.5q0 -4 1 -5q0 -26 16 -51.5t34 -43.5q5 -5 4.5 -11.5t-2.5 -12.5q-2 -9 -9 -20.5t-16 -21
t-19.5 -16t-20.5 -6.5q-4 0 -9 3q-22 19 -36.5 46t-19.5 56z" />
    <glyph glyph-name="quoteright" unicode="&#x2019;" horiz-adv-x="276" 
d="M25 718q-5 5 -5 11.5t2 11.5q2 9 9 20t16.5 21t20 16.5t20.5 6.5q6 0 8 -2q23 -20 37.5 -46.5t19.5 -55.5q7 -35 2 -68.5t-20 -65.5q-8 -16 -22.5 -34t-32.5 -18q-2 0 -3 -0.5t-3 -0.5q-9 0 -12 9q-2 7 0 15t5 14q1 1 1 2t1 3t1 5q1 0 1 1q1 2 2 5t1 5v3v1q3 22 2 40
q-1 2 -1 5q-7 28 -17.5 52t-32.5 44z" />
    <glyph glyph-name="quotedblleft" unicode="&#x201c;" horiz-adv-x="446" 
d="M194 621q-14 69 17 133q8 16 22.5 34t33.5 18q2 0 2.5 0.5t2.5 0.5q10 0 13 -8q2 -7 -0.5 -15.5t-4.5 -13.5l-3 -6l-2 -6q-2 -6 -2 -10q-1 -1 -1 -3q-2 -11 -2 -20.5t1 -20.5q0 -4 1 -5q0 -26 16 -51.5t34 -43.5q5 -5 4.5 -11.5t-2.5 -12.5q-2 -9 -9 -20.5t-16 -21
t-19.5 -16t-20.5 -6.5q-4 0 -9 3q-22 19 -36.5 46t-19.5 56zM24 621q-14 69 17 133q8 16 22.5 34t33.5 18q2 0 2.5 0.5t2.5 0.5q10 0 13 -8q2 -7 -0.5 -15.5t-4.5 -13.5l-3 -6l-2 -6q-2 -6 -2 -10q-1 -1 -1 -3q-2 -11 -2 -20.5t1 -20.5q0 -4 1 -5q0 -26 16 -51.5t34 -43.5
q5 -5 4.5 -11.5t-2.5 -12.5q-2 -9 -9 -20.5t-16 -21t-19.5 -16t-20.5 -6.5q-4 0 -9 3q-22 19 -36.5 46t-19.5 56z" />
    <glyph glyph-name="quotedblright" unicode="&#x201d;" horiz-adv-x="446" 
d="M25 718q-5 5 -5 11.5t2 11.5q2 9 9 20t16.5 21t20 16.5t20.5 6.5q6 0 8 -2q23 -20 37.5 -46.5t19.5 -55.5q7 -35 2 -68.5t-20 -65.5q-8 -16 -22.5 -34t-32.5 -18q-2 0 -3 -0.5t-3 -0.5q-9 0 -12 9q-2 7 0 15t5 14q1 1 1 2t1 3t1 5q1 0 1 1q1 2 2 5t1 5v3v1q3 22 2 40
q-1 2 -1 5q-7 28 -17.5 52t-32.5 44zM195 718q-5 5 -5 11.5t2 11.5q2 9 9 20t16.5 21t20 16.5t20.5 6.5q6 0 8 -2q23 -20 37.5 -46.5t19.5 -55.5q7 -35 2 -68.5t-20 -65.5q-8 -16 -22.5 -34t-32.5 -18q-2 0 -3 -0.5t-3 -0.5q-9 0 -12 9q-2 7 0 15t5 14q1 1 1 2t1 3t1 5
q1 0 1 1q1 2 2 5t1 5v3v1q3 22 2 40q-1 2 -1 5q-7 28 -17.5 52t-32.5 44z" />
    <glyph glyph-name="quotesinglbase" unicode="&#x201a;" horiz-adv-x="301" 
d="M155 78q-5 5 -5 11.5t2 11.5q2 9 9 20t16.5 21t20 16.5t20.5 6.5q6 0 8 -2q23 -20 37.5 -46.5t19.5 -55.5q7 -35 2 -68.5t-20 -65.5q-8 -16 -22.5 -34t-32.5 -18q-2 0 -3 -0.5t-3 -0.5q-9 0 -12 9q-2 7 0 15t5 14q1 1 1 2t1 3l2 6q1 2 2 5t1 5v3v1q3 22 2 40q-1 2 -1 5
q-7 28 -17.5 52t-32.5 44z" />
    <glyph glyph-name="quotedblbase" unicode="&#x201e;" horiz-adv-x="471" 
d="M325 78q-5 5 -5 11.5t2 11.5q2 9 9 20t16.5 21t20 16.5t20.5 6.5q6 0 8 -2q23 -20 37.5 -46.5t19.5 -55.5q7 -35 2 -68.5t-20 -65.5q-8 -16 -22.5 -34t-32.5 -18q-2 0 -3 -0.5t-3 -0.5q-9 0 -12 9q-2 7 0 15t5 14q1 1 1 2t1 3l2 6q1 2 2 5t1 5v3v1q3 22 2 40q-1 2 -1 5
q-7 28 -17.5 52t-32.5 44zM155 78q-5 5 -5 11.5t2 11.5q2 9 9 20t16.5 21t20 16.5t20.5 6.5q6 0 8 -2q23 -20 37.5 -46.5t19.5 -55.5q7 -35 2 -68.5t-20 -65.5q-8 -16 -22.5 -34t-32.5 -18q-2 0 -3 -0.5t-3 -0.5q-9 0 -12 9q-2 7 0 15t5 14q1 1 1 2t1 3l2 6q1 2 2 5t1 5v3v1
q3 22 2 40q-1 2 -1 5q-7 28 -17.5 52t-32.5 44z" />
    <glyph glyph-name="bullet" unicode="&#x2022;" horiz-adv-x="316" 
d="M-20 318q0 29 11 54.5t29.5 44t44 29.5t54.5 11t54.5 -11t44 -29.5t29.5 -44t11 -54.5q0 -28 -11 -53.5t-29.5 -44.5t-44 -30t-54.5 -11t-54.5 11t-44 30t-29.5 44.5t-11 53.5z" />
    <glyph glyph-name="underscore" unicode="_" horiz-adv-x="783" 
d="M164 -74q0 10 7 23t17.5 24.5t23 19t22.5 7.5h655q7 0 9 -6t2 -11q0 -11 -7 -23.5t-17.5 -24t-22.5 -19t-22 -7.5h-656q-7 0 -9 6t-2 11z" />
    <glyph glyph-name="endash" unicode="&#x2013;" horiz-adv-x="441" 
d="M-5 185q0 11 7 23.5t17.5 23.5t23 18.5t22.5 7.5h385q7 0 9 -5.5t2 -10.5q0 -10 -7 -23t-17.5 -24.5t-22.5 -19t-22 -7.5h-386q-7 0 -9 6t-2 11z" />
    <glyph glyph-name="emdash" unicode="&#x2014;" horiz-adv-x="941" 
d="M-20 185q0 11 7 23.5t17.5 23.5t23 18.5t22.5 7.5h911q6 0 8 -5.5t2 -10.5q0 -11 -6.5 -24t-17 -24t-22.5 -18.5t-23 -7.5h-911q-7 0 -9 6t-2 11z" />
    <glyph glyph-name="registered" unicode="&#xae;" horiz-adv-x="820" 
d="M433 161v7v4q-3 20 -14 36.5t-26 31t-32.5 25.5t-34.5 19q19 -40 37.5 -79t38.5 -78q13 19 31 34zM755 -108q3 23 5 47t-1 47q-1 6 -1.5 12t-0.5 12q0 1 -0.5 2t-0.5 2v2q0 3 -1 6t-1 6q-6 52 -22.5 109.5t-41.5 114.5t-58.5 111t-74.5 98.5t-89 77t-102 46.5l6 -12
q3 -7 0.5 -15t-5.5 -14q-3 -7 -10 -16.5t-15.5 -17.5t-17.5 -14t-18 -6q-8 0 -13 9q-2 3 -3 6.5t-3 6.5q-20 27 -47 37.5t-59 10.5q-3 0 -5 -1q-2 0 -1 1h3q-1 1 -8.5 -1t-9.5 -2q-5 -1 -9 -2t-9 -2q-1 -1 -2 -1q-2 -1 -3.5 -1.5t-3.5 -1.5l-4 -2l-4 -2q-2 -2 -3.5 -2.5
t-3.5 -2.5q-1 0 -1 -0.5t-1 -0.5l-3 -3q-2 -1 -2.5 -2t-2.5 -3q-2 0 -2 -2q-2 -2 -2 -2.5t-2 -2.5t-2.5 -3.5t-2.5 -3.5q0 -1 -1 -2t-2 -3l-2 -4l-4 -8t-4 -9q0 -1 -0.5 -1.5t-0.5 -1.5q-3 -6 -5.5 -13t-3.5 -13q-1 -5 -3 -10t-2 -10q0 -2 -0.5 -5t-0.5 -5q-1 0 -1 -2
q-2 -10 -3 -20l-2 -20q-3 -42 0 -84l1 -12q1 -2 1 -6q0 -35 10.5 -73t21.5 -70q26 -73 72.5 -147t108.5 -133.5t136.5 -97t156.5 -37.5h6.5t7.5 1q16 0 31 3t29 8q6 2 7 2t1.5 0.5t1.5 0.5q1 1 2 1q-2 -2 -3 -2h-1l2 1h2l1 1q2 2 4 2q10 4 21 11q4 2 5 3q8 4 12 8q2 1 5 4
q2 2 4 3.5t4 3.5q0 1 0.5 1t0.5 1q9 9 13 18q2 2 3 4l1 2l-2 -4l-2 -4q5 8 8 15.5t6 15.5l-3 -6l2 4q2 4 2 5q2 5 3 10t3 10q2 6 3 12t3 12v2q2 2 0 2v-2l1 1q0 8 1 12zM486 44q-1 0 -5 2q4 -2 5 -2zM650 520q75 -91 120 -194.5t62 -218.5q5 -35 7.5 -70.5t-1.5 -70.5
q-4 -41 -16 -81t-31.5 -76t-47 -67t-63.5 -53q-35 -22 -73 -35.5t-79 -13.5q-5 0 -9 -0.5t-9 -0.5q-87 1 -167 43t-146 108t-114 146t-72 156q-21 69 -28.5 141.5t4.5 142.5q7 41 20 79t36 72q16 25 37 47t46 39t53.5 27t59.5 10q14 -1 28 -2.5t27 -6.5q7 10 21 22.5
t26 14.5q8 1 16.5 1.5t17.5 0.5q42 0 80.5 -13t73.5 -35.5t65.5 -51.5t55.5 -60zM694 58q5 -4 5 -11t-2 -12q-2 -9 -9 -20t-16 -21t-19.5 -17t-19.5 -7q-5 0 -10 3q-23 17 -46.5 31.5t-49.5 23.5q-11 4 -20.5 7t-20.5 8t-23 7t-23 5q2 -5 4.5 -10.5t5.5 -10.5q4 -7 0.5 -15
t-5.5 -14q-3 -8 -9.5 -17t-14.5 -17t-17 -13.5t-18 -5.5q-10 0 -14 8q-35 65 -68 131t-65 132q-8 16 -15.5 32.5t-10.5 33.5q-4 24 9 47q14 25 38 41t53 16q26 0 55.5 -11t57 -29t49 -40.5t31.5 -46.5q13 -31 5.5 -61.5t-25.5 -56.5q8 -2 16.5 -4t17.5 -4t18 -3.5t17 -6.5
q37 -14 72 -31.5t67 -40.5z" />
    <glyph glyph-name="copyright" unicode="&#xa9;" horiz-adv-x="820" 
d="M755 -108q3 23 5 47t-1 47q-1 6 -1.5 12t-0.5 12q0 1 -0.5 2t-0.5 2v2q0 3 -1 6t-1 6q-6 52 -22.5 109.5t-41.5 114.5t-58.5 111t-74.5 98.5t-89 77t-102 46.5l6 -12q3 -7 0.5 -15t-5.5 -14q-3 -7 -10 -16.5t-15.5 -17.5t-17.5 -14t-18 -6q-8 0 -13 9q-2 3 -3 6.5t-3 6.5
q-20 27 -47 37.5t-59 10.5q-3 0 -5 -1q-2 0 -1 1h3q-1 1 -8.5 -1t-9.5 -2q-5 -1 -9 -2t-9 -2q-1 -1 -2 -1q-2 -1 -3.5 -1.5t-3.5 -1.5l-4 -2l-4 -2q-2 -2 -3.5 -2.5t-3.5 -2.5q-1 0 -1 -0.5t-1 -0.5l-3 -3q-2 -1 -2.5 -2t-2.5 -3q-2 0 -2 -2q-2 -2 -2 -2.5t-2 -2.5
t-2.5 -3.5t-2.5 -3.5q0 -1 -1 -2t-2 -3l-2 -4l-4 -8t-4 -9q0 -1 -0.5 -1.5t-0.5 -1.5q-3 -6 -5.5 -13t-3.5 -13q-1 -5 -3 -10t-2 -10q0 -2 -0.5 -5t-0.5 -5q-1 0 -1 -2q-2 -10 -3 -20l-2 -20q-3 -42 0 -84l1 -12q1 -2 1 -6q0 -35 10.5 -73t21.5 -70q26 -73 72.5 -147
t108.5 -133.5t136.5 -97t156.5 -37.5h6.5t7.5 1q16 0 31 3t29 8q6 2 7 2t1.5 0.5t1.5 0.5q1 1 2 1q-2 -2 -3 -2h-1l2 1h2l1 1q2 2 4 2q10 4 21 11q4 2 5 3q8 4 12 8q2 1 5 4q2 2 4 3.5t4 3.5q0 1 0.5 1t0.5 1q9 9 13 18q2 2 3 4l1 2l-2 -4l-2 -4q5 8 8 15.5t6 15.5l-3 -6
l2 4q2 4 2 5q2 5 3 10t3 10q2 6 3 12t3 12v2q2 2 0 2v-2l1 1q0 8 1 12zM566 185q6 -10 3 -24q-2 -9 -9 -20t-16.5 -21t-20.5 -16.5t-20 -6.5q-5 0 -8 3q-22 27 -42.5 49t-41.5 40.5t-44.5 36t-51.5 36.5q4 -9 7 -18t7 -18q8 -19 23.5 -52.5t35 -67.5t41 -62t42.5 -35
q2 -1 4 -1t4 -1q1 2 1.5 2.5t1.5 2.5q3 5 9.5 12t14 13.5t15.5 11t15 4.5h3q7 -1 8.5 -5.5t2.5 -10.5q2 -14 -3.5 -28.5t-13.5 -26.5q-7 -12 -18 -23.5t-24 -21.5t-27.5 -16t-29.5 -6q-30 1 -54 23t-40 45q-18 25 -39 63.5t-40.5 80.5t-33 83t-16.5 72q-1 16 3 31
q4 12 12 26t18.5 25t24 18.5t27.5 7.5q17 -1 32 -7.5t29 -15.5q3 9 10 19.5t16 20t19 16t19 6.5t13 -8q52 -113 122 -221zM650 520q75 -91 120 -194.5t62 -218.5q5 -35 7.5 -70.5t-1.5 -70.5q-4 -41 -16 -81t-31.5 -76t-47 -67t-63.5 -53q-35 -22 -73 -35.5t-79 -13.5
q-5 0 -9 -0.5t-9 -0.5q-87 1 -167 43t-146 108t-114 146t-72 156q-21 69 -28.5 141.5t4.5 142.5q7 41 20 79t36 72q16 25 37 47t46 39t53.5 27t59.5 10q14 -1 28 -2.5t27 -6.5q7 10 21 22.5t26 14.5q8 1 16.5 1.5t17.5 0.5q42 0 80.5 -13t73.5 -35.5t65.5 -51.5t55.5 -60z
" />
    <glyph glyph-name="cent" unicode="&#xa2;" horiz-adv-x="411" 
d="M-20 561q0 6 1.5 17t5 22.5t9.5 19.5t14 8t13 -9l75 -115q26 14 54 14q-1 2 -1 4t-1 4q-2 7 0 14.5t5 14.5q3 8 10 17t15 17t17.5 13.5t18.5 5.5q8 0 12 -9q17 -45 36 -89.5t46 -85.5q3 -4 1 -11q1 -12 -7.5 -24.5t-14.5 -21.5q-8 -11 -20 -20.5t-26 -9.5q-5 0 -8 3
q-15 18 -33 34.5t-39 29.5l186 -287q8 -12 13.5 -21t10.5 -17q-5 17 -14 32.5t-19 29.5q-5 7 -4.5 15t4 15.5t8.5 15t9 12.5q8 10 20.5 20t26.5 10q5 0 8 -3q12 -16 20 -32q14 -24 23 -51.5t8 -56.5q-1 -26 -10 -49t-25 -43q5 -8 12 -19.5t17 -25.5q5 -7 6 -16.5t1 -17.5
q0 -6 -1.5 -17t-5.5 -22t-9.5 -19t-13.5 -8t-13 8l-56 87q-18 -7 -39 -7q-15 -1 -33 5q-35 11 -69.5 36.5t-65 59.5t-56.5 74.5t-45.5 82.5t-31.5 82.5t-14 74.5q-2 26 5.5 50.5t21.5 46.5l-51 78q-5 8 -6 17t-1 17zM106 344q24 -78 67 -147.5t107 -121.5z" />
    <glyph glyph-name="sterling" unicode="&#xa3;" horiz-adv-x="577" 
d="M873 -104q8 -2 10 -8.5t0 -14t-5.5 -15t-6.5 -11.5q-8 -12 -23.5 -26.5t-30.5 -14.5h-3q-35 9 -71.5 14t-73.5 5q-56 -1 -108 -12t-105 -28q-6 -2 -7 -2q-28 -8 -55.5 -22.5t-51.5 -28.5q-1 -1 -5 -3q-2 -2 -4 -2q-5 -5 -15.5 -10t-16.5 -5q-12 0 -13 12q-2 14 6 27
t17 24l2 2q3 5 5.5 9t4.5 8q0 2 1 3q2 7 5 13.5t3 14.5q0 2 0.5 4t0.5 4q0 5 0.5 9t0.5 9v19q0 7 -1 10v4q-9 66 -43 121.5t-77 104.5q-29 -7 -58.5 -17t-59.5 -10q-2 0 -3 -0.5t-3 -0.5q-9 0 -12 8q-3 7 -0.5 15t5.5 14q4 8 11 18t16.5 18t19.5 13.5t20 5.5q-27 24 -56 56
t-53 68t-40.5 74.5t-19.5 74.5q-2 26 5 50.5t20.5 46t32.5 39t41 30.5t46 18t50 5q36 0 74 -9t75.5 -24t72 -34t62.5 -39q5 -4 4.5 -11.5t-2.5 -12.5q-2 -9 -8.5 -20t-16 -20.5t-20 -16.5t-19.5 -7q-5 0 -10 3q-28 19 -60.5 37t-67 32.5t-70 23t-70.5 8.5q-3 0 -6 -0.5
t-6 -0.5h-4q-5 -1 -10 -1.5t-10 -1.5q-4 -1 -10 -3q-3 0 -5 -2q-4 -2 -6 -2v-3q-1 -2 -1 -8q-1 -5 -0.5 -9.5t0.5 -9.5q0 -3 1 -5q0 -4 2 -10q5 -28 19.5 -57.5t33.5 -57.5t41 -53t42 -44q20 -18 39 -36t37 -38q24 6 47.5 12t47.5 11q30 7 59 17.5t60 10.5h4q10 0 14 -8
q3 -7 0.5 -15t-5.5 -14q-8 -17 -23 -33t-33 -20q-61 -12 -116 -27q20 -28 37.5 -58.5t29 -62.5t16 -66t-1.5 -69q-4 -23 -12 -50q75 38 157.5 60.5t167.5 22.5q38 0 74.5 -5t73.5 -14z" />
    <glyph glyph-name="yen" unicode="&#xa5;" horiz-adv-x="581" 
d="M-128 558q-1 8 3 15.5t8 13.5q7 10 20 23.5t27 13.5h3q6 -2 7.5 -6t2.5 -9v-3v-2q0 -2 0.5 -4t0.5 -4q0 -4 1 -8t2 -9q13 -72 36 -133t63 -123q8 -13 23 -32.5t33 -38t37 -31.5t35 -13q2 0 4 -0.5t4 -0.5q0 1 5 0q1 1 2 1t3 1q2 4 2 6q2 2 2 4v1l4 12t4 13v1q0 2 0.5 3
t0.5 3q0 4 0.5 7t0.5 7q1 16 1.5 31t0.5 30q0 8 -1 16.5t-1 16.5q0 5 -1 9t-1 8v3q0 5 -1 7l-30 160q-3 11 4 25q8 16 23 31q5 5 14 11t17 6q8 -2 11 -8q8 -16 15 -31.5t14 -31.5q15 -35 31.5 -69t32.5 -69q21 -45 42.5 -89t41.5 -89l8 -16l8 -16l146 34v0q2 0 2.5 0.5
t2.5 0.5q8 0 11 -8q3 -6 0.5 -13t-4.5 -12q-6 -14 -20 -28.5t-29 -18.5l-79 -18q5 -12 11 -24l12 -24l156 36v0q2 0 2.5 0.5t2.5 0.5q8 0 11 -8q2 -5 -0.5 -12.5t-4.5 -12.5q-6 -14 -19.5 -28t-28.5 -18l-89 -21q18 -37 36.5 -73t36.5 -72q3 -6 0.5 -13.5t-4.5 -12.5
q-3 -6 -8.5 -14t-13 -15.5t-16 -12.5t-15.5 -5q-8 0 -12 8l-9 18q-21 42 -45 82.5t-39 85.5l-1 3l-132 -31v0q-2 -1 -5 -1q-8 0 -11 7q-3 6 -0.5 13.5t4.5 12.5q7 15 20 28.5t29 17.5l64 15q-5 12 -11 24t-12 25l-141 -34v0q-1 0 -2 -0.5t-2 -0.5q-8 2 -12 8q-3 5 -0.5 13
t4.5 13q6 14 19.5 28t29.5 18l74 17q-1 4 -5 12q-16 32 -31 64.5t-30 65.5q-2 -28 -9 -54t-21 -51q-8 -15 -20 -30.5t-27 -28t-32 -21t-35 -8.5q-19 0 -36 7.5t-32.5 19t-29 26t-24.5 27.5q-29 34 -52.5 76.5t-41.5 89t-30 94t-16 90.5z" />
    <glyph glyph-name="minus" unicode="&#x2212;" horiz-adv-x="486" 
d="M-20 185q0 11 7 23.5t17.5 23.5t23 18.5t22.5 7.5h445q7 0 9 -5.5t2 -10.5q0 -10 -7 -23t-17.5 -24.5t-22.5 -19t-22 -7.5h-446q-7 0 -9 6t-2 11z" />
    <glyph glyph-name="multiply" unicode="&#xd7;" horiz-adv-x="439" 
d="M3 35q-2 6 0.5 15t4.5 14q5 10 11.5 18.5t14.5 15.5q11 11 22.5 21.5t23.5 21.5q23 21 45.5 41.5t45.5 41.5q-9 8 -18.5 16.5t-18.5 17.5q-32 29 -63 58.5t-64 58.5q-5 5 -5 11t2 12q2 9 9 20t16.5 21t20.5 16.5t20 6.5q5 0 8 -3q11 -11 23 -21t23 -21q32 -30 64.5 -59.5
t64.5 -58.5l30 28q32 29 64 57t63 59q5 5 15 12t20 7t13 -8q2 -6 -1 -15t-5 -14q-9 -20 -25 -34q-12 -11 -23.5 -21.5t-23.5 -21.5q-23 -20 -45 -41t-45 -42l37 -34q32 -29 64 -57.5t63 -59.5q5 -5 4.5 -11t-1.5 -12q-1 -9 -8.5 -20t-17 -21t-20.5 -16.5t-20 -6.5q-6 0 -8 2
q-13 11 -24 21.5t-23 21.5q-32 29 -64 58.5t-64 59.5q-8 -7 -15 -14t-15 -14l-64 -58t-63 -59q-5 -5 -15 -12t-20 -7q-8 0 -13 9z" />
    <glyph glyph-name="ellipsis" unicode="&#x2026;" horiz-adv-x="594" 
d="M154 76q-7 10 -2 24q3 10 9.5 21t15.5 20.5t19.5 16t21.5 6.5q5 0 8 -3q25 -35 50 -76q4 -6 4 -11t-2 -12q-4 -16 -19 -35t-31 -25q-2 -1 -7 -3t-10 -2q-2 1 -3.5 1t-3.5 2q-14 18 -25.5 37.5t-24.5 38.5zM304 76q-6 10 -3 24q2 9 9 20t16.5 21t20.5 16.5t21 6.5
q6 0 7 -3q11 -20 24.5 -38t25.5 -38q6 -10 3 -23q-1 -7 -6.5 -16.5t-13 -18t-15.5 -15.5t-15 -10q-2 -1 -7 -3t-10 -2q-7 2 -7 3q-13 20 -25 38.5t-25 37.5zM454 76q-5 6 -5 11.5t2 12.5q2 9 9 20t16.5 21t20 16.5t20.5 6.5q7 0 8 -3q11 -20 24.5 -38t25.5 -38q6 -10 3 -23
q-2 -7 -7.5 -16.5t-12.5 -18.5t-15 -15.5t-16 -9.5q-2 -1 -7 -3t-10 -2q-2 1 -3.5 1t-2.5 2q-13 20 -25.5 38.5t-24.5 37.5z" />
    <glyph glyph-name="periodcentered" unicode="&#xb7;" horiz-adv-x="291" 
d="M20 381q0 32 22 54t54 22t53.5 -22t21.5 -54q0 -31 -22 -53t-53 -22q-32 0 -54 22t-22 53z" />
    <glyph glyph-name="exclamdown" unicode="&#xa1;" horiz-adv-x="234" 
d="M63 257q-4 7 -1 15.5t6 13.5q4 7 10 16.5t14 17.5t17.5 14t18.5 6q9 -2 13 -9l1 -1q11 -22 22 -43.5t22 -43.5l90 -179l105 -207l86 -172q9 -18 18 -35.5t18 -35.5q3 -6 0 -14.5t-5 -14.5q-3 -7 -9.5 -16t-15.5 -17.5t-18.5 -14t-17.5 -5.5q-9 0 -13 8v1
q-12 22 -22.5 43.5t-21.5 43.5l-90 179q-26 53 -52.5 104.5t-52.5 103.5l-86 171l-18 36t-18 35zM-24 415q-4 6 -4.5 11t1.5 13q2 9 9 20t17 21t20.5 16.5t20.5 6.5q5 0 8 -3q25 -35 50 -76q4 -6 4 -11.5t-2 -12.5q-2 -9 -9 -20.5t-16 -21t-20 -16t-21 -6.5q-5 0 -8 3
q-13 18 -25 37.5t-25 38.5z" />
    <glyph glyph-name="questiondown" unicode="&#xbf;" horiz-adv-x="425" 
d="M144 -284q-14 35 -17 73t2 75q5 35 15 68t22 67q9 26 17.5 52t13.5 52q0 -2 -0.5 -2.5t-0.5 -1.5v-2q1 2 1 4q1 3 1 7q0 8 1 14.5t1 13.5q0 9 -1 14q0 17 -6.5 32t-15.5 29q-5 8 -11.5 14.5t-12.5 13.5q-5 5 -4.5 11.5t1.5 12.5q2 9 9 20t16.5 21t21 16.5t20.5 6.5
q5 0 8 -3q27 -27 40 -56t15 -67q2 -29 -4.5 -57.5t-15.5 -55.5q-9 -28 -19.5 -55.5t-18.5 -56.5q-2 -8 -4 -15t-4 -15q-1 -2 -2.5 -11t-2.5 -11q-7 -14 -5 -30.5t2 -32.5q0 -2 0.5 -4t0.5 -4v-3q6 -32 16.5 -60t28.5 -56q32 -50 70.5 -68.5t96.5 -18.5h3h3q11 2 23 4t23 6
q2 0 6 2l4 2l-1 -1l-1 -1q6 3 12.5 6t14.5 7l2 2q2 2 4 3l4 2l3 3q2 1 5 4l2 2q2 2 3.5 5t3.5 5q1 1 1 1.5t1 1.5q1 2 1 3t1 2q0 2 1 2q0 2 0.5 2.5t0.5 2.5q2 8 3 11l1 4q1 4 1 12v13t-1 13q0 2 -0.5 4t-0.5 4q0 3 -1 6.5t-2 6.5q-3 14 -9 29.5t-14.5 31t-17.5 29.5t-17 25
q-5 7 -4.5 15t4 15.5t8.5 15t9 12.5q8 10 20 20t26 10q5 0 8 -3q16 -21 29 -41q20 -32 32 -67.5t11 -73.5q-1 -51 -25 -96.5t-62 -79t-86 -53.5t-97 -20q-81 1 -131.5 44.5t-78.5 115.5zM59 414q-6 10 -2 23q5 17 19 35.5t31 24.5q2 1 7 3t10 2q2 -1 3.5 -1t3.5 -2
q14 -18 25 -38t25 -39q4 -5 4 -10.5t-2 -12.5q-2 -10 -9 -21t-16 -20.5t-19.5 -16t-21.5 -6.5q-5 0 -8 3q-13 18 -25 37t-25 39z" />
    <glyph glyph-name="degree" unicode="&#xb0;" horiz-adv-x="250" 
d="M-81 570q-16 32 -15.5 66t20.5 64q15 23 38.5 41.5t52.5 18.5q19 0 37 -6q6 2 10 2h3q19 -5 35 -19t27.5 -33t18 -40t6.5 -40q0 -23 -11.5 -46.5t-30 -42.5t-41.5 -31t-47 -12q-36 1 -62 23.5t-41 54.5zM-11 665q0 -2 1 -3q9 -26 27 -48.5t47 -29.5q2 0 3 -0.5t2 -0.5
q0 8 -5 19t-12.5 21.5t-15.5 20t-15 13.5h-5q-3 -1 -5.5 0t-5.5 2q-2 1 -2.5 1t-2.5 1t-5 2z" />
    <glyph glyph-name="ordfeminine" unicode="&#xaa;" horiz-adv-x="382" 
d="M122 464q1 11 0.5 21t-0.5 20q0 8 -0.5 15t-1.5 15q-1 2 -1 5v4q-2 10 -2 14q-2 12 -3.5 23.5t-3.5 22.5q-6 -2 -8 -2t-3 -0.5t-3 -0.5q-6 0 -12 9l2 -4q-17 26 -43 48t-59 22h-1q-4 -1 -7 -1.5t-7 -1.5q-1 -1 -2 -1q-1 -4 -1.5 -7t-1.5 -7q-1 -3 -1 -8q-1 -5 -1 -9v-9
t1 -8v-2q4 -28 15.5 -56.5t29.5 -51.5t42.5 -40t53.5 -23q4 -1 7 -1t6 -1h2q2 2 2 4v2q1 3 1 9zM320 509q5 -4 5 -11t-2 -12q-2 -10 -9 -21t-16 -20.5t-19.5 -16t-21.5 -6.5q-5 0 -14 7t-19 16.5t-18.5 19t-11.5 13.5q-6 -21 -19 -42t-30.5 -38.5t-38.5 -28t-44 -10.5
q-28 1 -54 13.5t-47.5 32.5t-37.5 45t-26 49q-25 62 -10 123q6 25 20.5 50.5t35.5 46.5t46.5 34t52.5 13q21 1 40 -8t36 -22q7 7 19 16t22 9q9 0 12 -9q3 -8 5.5 -17t4.5 -18q18 -63 53.5 -114.5t85.5 -93.5z" />
    <glyph glyph-name="ordmasculine" unicode="&#xba;" horiz-adv-x="335" 
d="M-80 472q-18 36 -25 75.5t3 78.5q6 26 22 51.5t37.5 45t48 31.5t54.5 12q38 2 67 -28q5 -5 5 -11t-2 -13q17 -15 34 -34t30.5 -41t23.5 -45t14 -45q5 -32 -1.5 -62.5t-25.5 -56.5q-21 -30 -53.5 -52t-70.5 -22q-28 0 -52 9.5t-44.5 25.5t-36.5 37t-28 44zM-28 648v-18
q0 -3 1 -4q0 -9 3.5 -22t6.5 -21q9 -26 23.5 -50.5t34 -44t44.5 -31t55 -11.5q5 1 13 3q1 4 1 11q0 4 -1 8t0 8v3q-1 2 -1 4t-1 4q-4 23 -18 49.5t-33.5 50.5t-42 42.5t-44.5 25.5q-10 -4 -14 -4q-7 0 -13 9q-3 5 0 13h-2q-2 -1 -3 -1t-2 -1t-1.5 -1t-1.5 -1q0 -1 -0.5 -1.5
t-0.5 -2.5q-1 -1 -1 -3.5t-1 -3.5v-2q0 -2 -0.5 -4t-0.5 -4z" />
    <glyph glyph-name="onesuperior" unicode="&#xb9;" horiz-adv-x="354" 
d="M-67 529q-2 6 0.5 13.5t4.5 12.5q5 10 11 17.5t14 15.5q1 3 1 0q1 4 0.5 8.5t0.5 8.5q2 9 2 19t-1 21q-1 9 -1 18t-2 18v2q-2 17 6.5 31.5t20.5 24.5q5 5 12 10.5t15 5.5h3q9 2 12 -7q20 -68 44.5 -130.5t53.5 -122.5t61.5 -118.5t68.5 -119.5l105 -25q8 -2 9 -7.5
t-0.5 -12t-5 -13t-5.5 -10.5q-5 -10 -20 -23.5t-27 -13.5h-3l-36 9q-40 10 -79.5 19t-78.5 19l-99 24q-7 2 -8.5 7.5t0 12t5 13t5.5 10.5q6 11 19.5 24t27.5 13h3l64 -16q-38 67 -71.5 135t-61.5 140q-10 -14 -23.5 -26.5t-30.5 -12.5q-2 0 -2.5 -0.5t-2.5 -0.5q-8 0 -11 7z
" />
    <glyph glyph-name="twosuperior" unicode="&#xb2;" horiz-adv-x="527" 
d="M-113 653q-2 6 0 12.5t5 12.5q7 14 21 30t31 17q9 2 12 -7q4 -13 10 -25.5t13 -24.5q8 15 20.5 29t27.5 25.5t32.5 18.5t35.5 7q31 0 58.5 -15t50 -39t38.5 -53t23 -56q13 -48 7.5 -95t-28.5 -91q-23 -45 -60 -85q23 4 46 6t46 2q17 0 32.5 -1t32.5 -3l-10 13q-4 6 -4 13
t3 14t7.5 13.5t8.5 10.5q7 9 18.5 17.5t23.5 8.5q5 0 6 -2q31 -38 60.5 -77.5t58.5 -77.5q5 -6 4 -13t-4 -14.5t-7.5 -13.5t-7.5 -11q-5 -6 -18 -16t-22 -10q-4 0 -7 3q-19 18 -45.5 30.5t-56 20t-59 11.5t-54.5 4h-12q-7 1 -14 0.5t-14 -1.5h-1q-32 0 -62.5 -7t-60.5 -17
h-1q-1 -1 -2 -1q-2 -2 -6 -2l-30 -15q-6 -3 -13 -3q-6 0 -8 2q-5 4 -5 10t2 11q3 8 8 16t10 15q9 11 21 17.5t24 14.5q2 2 4 2.5t4 2.5l1 1q8 5 15.5 10t15.5 10q3 2 6.5 5t6.5 5q2 1 4 3l1 1q6 5 12 10.5t11 11.5l2 2q8 8 14 17l2 2q2 3 3.5 5.5t3.5 5.5q4 4 6 9l4 10
q1 2 2 5.5t3 5.5v1q2 5 3 10t3 10q2 6 2 12q1 5 1.5 9.5t0.5 9.5t1 9.5t-1 9.5q-1 3 -1 10v3q-2 9 -3 17.5t-4 17.5q-8 24 -21.5 49.5t-32.5 46.5t-43 34t-53 13h-1q-5 0 -13 -2v-1l-3 -9v-23q1 -2 0.5 -4t0.5 -4q3 -4 2.5 -8.5t1.5 -8.5q9 -29 29 -49q5 -5 5 -10.5
t-2 -10.5q-2 -9 -8 -18.5t-14.5 -17.5t-18 -14t-18.5 -6q-4 -1 -7 2q-15 15 -32 36t-33 44.5t-28.5 46.5t-18.5 42z" />
    <glyph glyph-name="threesuperior" unicode="&#xb3;" horiz-adv-x="359" 
d="M-204 653q-2 5 0.5 12.5t4.5 12.5q3 6 8.5 14.5t13 15.5t15.5 12t16 5q9 0 12 -7q6 -13 12.5 -25.5t13.5 -25.5q9 15 21.5 30t27.5 27t32.5 19.5t36.5 7.5q21 0 38.5 -10t30.5 -26t20.5 -35.5t8.5 -38.5q2 -18 -2.5 -35.5t-10.5 -34.5q-5 -13 -12 -23h7q39 0 74.5 -9.5
t65 -28.5t51.5 -48t33 -68t6 -77.5t-27 -73.5q-25 -40 -64 -64.5t-87 -24.5q-31 0 -61.5 12.5t-55.5 34.5t-41 50.5t-19 59.5q-2 17 7.5 31t20.5 25q7 7 13.5 11.5t16.5 4.5q10 2 12 -7q4 -29 18 -55t35 -45.5t48 -31t57 -11.5h6h1q15 2 28.5 13t19 30t0.5 45.5t-26 58.5
q-34 52 -79.5 70t-104.5 18h-5q-1 0 -4 -0.5t-1 0.5h-2q-2 0 -3.5 -0.5t-3.5 -0.5q-14 -1 -26 -5.5t-26 -4.5q-2 0 -2.5 -0.5t-1.5 -0.5q-8 2 -11 8t-0.5 13.5t4.5 12.5q6 14 19 30t30 16q2 0 3.5 1t3.5 1t2.5 0.5t1.5 0.5v1l12 6l-3 -2q1 1 2 1l3 3q1 1 1 2h1q0 1 0.5 1.5
t0.5 1.5l1 1q0 2 1 3q0 1 0.5 2t0.5 3q0 1 0.5 2t0.5 3t1 13t-1 11q1 0 1 -2.5t-1 2.5q0 4 -1 6q-2 8 -5.5 17.5t-8.5 16.5q-10 13 -23.5 25.5t-30.5 13.5q-2 0 -3 0.5t-2 0.5q-12 0 -17.5 -11.5t-7 -26.5t-1 -30.5t1.5 -23.5q1 -7 -3.5 -14.5t-7.5 -13.5q-5 -9 -18.5 -22
t-24.5 -14q-2 0 -3 -0.5t-2 -0.5q-6 0 -11 8q-20 31 -38 64t-35 67z" />
    <glyph glyph-name="section" unicode="&#xa7;" horiz-adv-x="691" 
d="M-53 396q-8 17 -9 36t3 38q5 22 16.5 42t25.5 37q30 34 65 49.5t80 18.5q-9 8 -18.5 16t-18.5 16q-5 5 -5 11.5t2 12.5q2 9 9 20t16.5 21t20 16.5t20.5 6.5q5 0 8 -3q66 -63 146 -111t161 -89q6 -3 5.5 -11t-2.5 -13q-3 -8 -9.5 -19t-15.5 -21t-19.5 -17t-19.5 -7
q-5 0 -10 3q-74 37 -153.5 58t-163.5 21q-5 0 -4.5 -0.5t2.5 -0.5q-25 0 -45 -7q-1 0 -5 -2q-2 -1 -3 -2l6 3q-1 0 -6.5 -2.5t-6.5 -2.5q0 -2 -0.5 -3.5t-0.5 -2.5v-10v-2q0 -3 1 -6.5t2 -6.5q5 -17 15.5 -30.5t24.5 -24.5t29.5 -19.5t30.5 -15.5q32 -13 66 -19.5t68.5 -9.5
t70 -3.5t69.5 -2.5q29 -1 69 -5t81 -13t76.5 -25.5t53.5 -42.5q11 -15 13 -31t-2 -33q-8 -37 -36.5 -69t-59.5 -52q22 -5 51 -12.5t58 -18.5t54 -25t40 -32q20 -25 25.5 -56t-2.5 -62q-11 -44 -44.5 -78t-73.5 -53q-41 -19 -90.5 -26t-94.5 -7q-23 0 -55.5 3t-68 9.5
t-71.5 16.5t-66 24.5t-51.5 33t-28.5 42.5q-2 8 0 15t5 14t10 16t16 17t18.5 14t17.5 6q9 0 12 -8q11 -30 33 -43t50 -25q54 -23 115.5 -33.5t120.5 -10.5h21t21 1q7 0 11 1t7.5 0.5t8.5 0.5q18 2 35 6t34 10q2 0 3 1q2 0 6 2l12 6q2 0 3 1t3 2q1 1 3 2l-3 -2q2 2 4 3
q0 1 0.5 1.5t0.5 2.5v4q1 7 0 13v5v-2v3q-3 22 -13 37q-6 8 -16.5 17.5t-23 18t-25 15t-23.5 9.5q-38 10 -75.5 20.5t-75.5 18.5q-42 8 -84.5 15.5t-84.5 17.5q-34 8 -71 17.5t-72 25t-64.5 38t-47.5 55.5q-17 30 -17.5 64.5t7.5 67.5q-30 13 -61.5 36t-45.5 54zM130 282
q9 -45 46 -74t85.5 -48t99.5 -29.5t88 -16.5q27 2 51 7.5t50 13.5q2 1 3.5 1.5t3.5 1.5q8 4 15 7t15 7q1 1 5 3q6 3 11 8q1 0 3 1.5t2 2.5q1 1 1 2q-1 -1 -1 4q-3 12 -11.5 22.5t-20.5 18.5t-25 14t-25 9q-66 19 -133.5 24.5t-135.5 8.5q-32 2 -64 4.5t-63 8.5v-1z" />
    <glyph glyph-name="dagger" unicode="&#x2020;" horiz-adv-x="474" 
d="M-58 299q0 11 7 24t17.5 23.5t22.5 18t23 8.5q38 3 77 3q-16 32 -32 63t-32 63q-11 23 -23 44.5t-22 44.5q-3 7 -0.5 15t5.5 14q3 7 10 16.5t15.5 17.5t17.5 14t18 6q9 -2 13 -9q0 -1 1 -2q14 -26 27 -53.5t27 -54.5l88 -174l66 3q33 2 65.5 3.5t65.5 1.5q7 0 9 -5.5
t2 -10.5q0 -11 -7 -24t-17.5 -23.5t-22.5 -18t-23 -8.5q-12 -1 -24 -1.5t-23 -0.5q-12 0 -24 -1t-23 -1q28 -56 55.5 -110.5t55.5 -110.5l108 -214q11 -23 23 -44.5t22 -44.5q3 -7 0.5 -15t-5.5 -14q-3 -7 -10 -16.5t-15.5 -17.5t-17.5 -14t-18 -6q-9 2 -13 9
q-14 28 -27.5 55.5t-27.5 54.5l-113 224q-32 64 -65 128t-65 129q0 1 -1 2q-12 -1 -24 -1t-24 -1q-33 -2 -65.5 -1.5t-65.5 -3.5q-7 -1 -9 5t-2 11z" />
    <glyph glyph-name="daggerdbl" unicode="&#x2021;" horiz-adv-x="500" 
d="M-20 299q0 11 7 24t17.5 23.5t22.5 18t23 8.5q38 3 77 3q-16 32 -32 63t-32 63q-11 23 -23 44.5t-22 44.5q-3 7 -0.5 15t5.5 14q3 7 10 16.5t15.5 17.5t17.5 14t18 6q9 -2 13 -9q0 -1 1 -2q14 -26 27 -53.5t27 -54.5l88 -174l66 3q33 2 65.5 3.5t65.5 1.5q7 0 9 -5.5
t2 -10.5q0 -11 -7 -24t-17.5 -23.5t-22.5 -18t-23 -8.5q-12 -1 -24 -1.5t-23 -0.5q-12 0 -24 -1t-23 -1q22 -46 46 -92q11 1 22.5 1.5t22.5 0.5q33 1 65.5 3.5t65.5 2.5q7 0 9 -6t2 -11q0 -10 -7 -23t-17.5 -24.5t-22.5 -19t-23 -7.5q-17 0 -37 -0.5t-37 -2.5
q5 -11 11 -21.5t11 -21.5l108 -214q11 -23 23 -44.5t22 -44.5q3 -7 0.5 -15t-5.5 -14q-3 -7 -10 -16.5t-15.5 -17.5t-17.5 -14t-18 -6q-9 2 -13 9q-14 28 -27.5 55.5t-27.5 54.5l-113 224q-11 20 -21 40.5t-20 41.5l-69 -3l-131 -6q-7 0 -9 6t-2 11q0 11 7 23.5t17.5 24
t23 19t22.5 7.5q24 0 48.5 1t48.5 3q-11 22 -22.5 44t-22.5 45q0 1 -1 2q-12 -1 -24 -1t-24 -1q-33 -2 -65.5 -1.5t-65.5 -3.5q-7 -1 -9 5t-2 11z" />
    <glyph glyph-name="asciitilde" unicode="~" horiz-adv-x="717" 
d="M-16 153q-5 4 -4.5 11t2.5 12q23 70 73 112.5t126 42.5q46 -1 88 -14.5t83 -34.5q19 -10 36.5 -20t37.5 -19q36 -17 74.5 -23t77.5 -6h-3q10 0 25.5 2.5t23.5 7.5h2q3 2 6.5 3.5t7.5 3.5q1 1 5 3l3 2l3 3q1 1 1 2q1 1 1.5 2t1.5 2q4 6 7 16q2 6 8.5 14.5t14.5 17t17 14.5
t16 6q2 0 2.5 0.5t2.5 0.5q10 0 13 -9q2 -7 -0.5 -15t-4.5 -13q-31 -73 -88.5 -112.5t-137.5 -40.5q-17 -1 -35 1t-35 6q-47 10 -92 32q-25 12 -47 25.5t-48 24.5q-29 12 -62 20t-65 8q-25 0 -45 -8q-2 -1 -3 -1t-3 -1q-1 -1 -2 -1.5t-2 -1.5q-5 -5 -6 -8q-1 -2 -1 -6
q-1 -19 -17.5 -35t-33.5 -25q-8 -4 -15 -4q-5 0 -9 3z" />
    <glyph glyph-name="guilsinglleft" unicode="&#x2039;" horiz-adv-x="368" 
d="M-16 251q-7 5 -4 15.5t6 15.5q6 11 13.5 20.5t18.5 17.5l28 20q31 22 62 43.5t63 43.5q20 14 39 28t39 27q5 3 11 5.5t11 2.5q11 0 12 -14q1 -7 -3 -15t-8 -13q-11 -18 -26 -28l-28 -20q-32 -23 -63 -44t-62 -43l-13 -9q35 -25 70 -49.5t70 -49.5q22 -15 44.5 -29.5
t42.5 -31.5q5 -4 4.5 -10t-2.5 -11q-2 -8 -8 -18t-14 -18.5t-17 -14.5t-17 -6q-4 0 -9 3l-32 22q-36 25 -70.5 50t-69.5 49l-44 30t-44 31z" />
    <glyph glyph-name="guilsinglright" unicode="&#x203a;" horiz-adv-x="385" 
d="M43 123q-2 5 -2.5 11t4.5 10q20 17 42.5 31.5t45.5 29.5q35 24 69.5 49t69.5 50l-13 9q-31 22 -62 43.5t-62 43.5l-29 20q-17 12 -26 28q-3 5 -7.5 13t-3.5 15q1 14 13 14q5 0 10.5 -2.5t10.5 -5.5q20 -14 39 -27.5t39 -27.5q32 -22 62.5 -43.5t62.5 -43.5l29 -20
q10 -7 17.5 -17t13.5 -21q3 -5 5.5 -15.5t-3.5 -15.5q-22 -17 -44 -31.5t-44 -29.5q-35 -24 -69.5 -49t-70.5 -50l-32 -22q-4 -3 -9 -3q-9 0 -18 6t-16.5 14.5t-13.5 18.5t-8 18z" />
    <glyph glyph-name="guillemotleft" unicode="&#xab;" horiz-adv-x="580" 
d="M225 251q-7 5 -4.5 15.5t5.5 15.5q6 11 13.5 20.5t18.5 17.5l28 20q31 22 62 43.5t63 43.5q20 14 39 28t39 27q5 3 11 5.5t11 2.5q11 0 12 -14q1 -7 -3 -15t-8 -13q-11 -18 -26 -28l-28 -20q-32 -23 -63 -44t-62 -43l-13 -9q35 -25 70 -49.5t70 -49.5q22 -15 44.5 -29.5
t42.5 -31.5q5 -4 4.5 -10t-2.5 -11q-2 -8 -8 -18t-14 -18.5t-17 -14.5t-17 -6q-4 0 -9 3l-32 22q-36 25 -70.5 50t-69.5 49q-22 15 -43.5 30.5t-43.5 30.5zM-16 251q-7 5 -4 15.5t6 15.5q6 11 13.5 20.5t18.5 17.5l28 20q31 22 62 43.5t63 43.5q20 14 39 28t39 27
q5 3 11 5.5t11 2.5q11 0 12 -14q1 -7 -3 -15t-8 -13q-11 -18 -26 -28l-28 -20q-32 -23 -63 -44t-62 -43l-13 -9q35 -25 70 -49.5t70 -49.5q22 -15 44.5 -29.5t42.5 -31.5q5 -4 4.5 -10t-2.5 -11q-2 -8 -8 -18t-14 -18.5t-17 -14.5t-17 -6q-4 0 -9 3l-32 22q-36 25 -70.5 50
t-69.5 49l-44 30t-44 31z" />
    <glyph glyph-name="guillemotright" unicode="&#xbb;" horiz-adv-x="606" 
d="M275 123q-2 5 -2.5 11t4.5 10q20 17 42.5 31.5t45.5 29.5q35 24 69.5 49t69.5 50l-13 9q-31 22 -62 43.5t-62 43.5l-29 20q-17 12 -26 28q-3 5 -7.5 13t-3.5 15q1 14 13 14q5 0 10.5 -2.5t10.5 -5.5q20 -14 39 -27.5t39 -27.5q32 -22 62.5 -43.5t62.5 -43.5l29 -20
q10 -7 17.5 -17t13.5 -21q3 -5 5.5 -15.5t-3.5 -15.5q-22 -17 -44 -31.5t-44 -29.5q-35 -24 -69.5 -49t-70.5 -50l-32 -22q-4 -3 -9 -3q-9 0 -18 6t-16.5 14.5t-13.5 18.5t-8 18zM35 123q-2 5 -2.5 11t4.5 10q20 17 42.5 31.5t45.5 29.5q35 24 69.5 49t69.5 50l-13 9
q-31 22 -62 43.5t-62 43.5l-29 20q-17 12 -26 28q-3 5 -7.5 13t-3.5 15q1 14 13 14q5 0 10.5 -2.5t10.5 -5.5q20 -14 39 -27.5t39 -27.5q32 -22 62.5 -43.5t62.5 -43.5l29 -20q10 -7 17.5 -17t13.5 -21q3 -5 5.5 -15.5t-3.5 -15.5q-22 -17 -44 -31.5t-44 -29.5
q-35 -24 -69.5 -49t-70.5 -50l-32 -22q-4 -3 -9 -3q-9 0 -18 6t-16.5 14.5t-13.5 18.5t-8 18z" />
    <glyph glyph-name="ring" unicode="&#x2da;" horiz-adv-x="320" 
d="M-5 570q-16 32 -15.5 66t20.5 64q15 23 38.5 41.5t52.5 18.5q19 0 37 -6q6 2 10 2h3q19 -5 35 -19t27.5 -33t18 -40t6.5 -40q0 -23 -11.5 -46.5t-30 -42.5t-41.5 -31t-47 -12q-36 1 -62 23.5t-41 54.5zM65 665q0 -2 1 -3q9 -26 27 -48.5t47 -29.5q2 0 3 -0.5t2 -0.5
q0 8 -5 19t-12.5 21.5t-15.5 20t-15 13.5h-5q-3 -1 -5.5 0t-5.5 2q-2 1 -2.5 1t-2.5 1t-5 2z" />
    <glyph glyph-name="caron" unicode="&#x2c7;" horiz-adv-x="429" 
d="M-19 650q-2 7 0.5 14.5l4.5 13.5q3 8 10 17t15.5 17.5t18 14t18.5 5.5t12 -9q8 -21 23.5 -39t34.5 -33t39.5 -27.5t39.5 -21.5l-32 67q-3 6 0 14.5t5 14.5q3 7 9.5 16t15.5 17.5t18.5 14t16.5 5.5q9 0 13 -9q3 -6 6.5 -12t6.5 -13q20 -45 41 -87l43 -86q3 -6 0 -15
t-5 -14q-3 -7 -10 -16.5t-15.5 -17.5t-17.5 -13.5t-17 -5.5h-4q-8 2 -15.5 4.5t-15.5 4.5q-32 9 -72 25.5t-77.5 39.5t-67.5 52t-42 62z" />
    <glyph glyph-name="dotlessi" unicode="&#x131;" horiz-adv-x="274" 
d="M-97 455q-8 3 -10 9t0 13.5t5.5 14.5t6.5 12q3 6 9 13t13.5 13.5t15.5 11t16 4.5q4 0 6 -1q41 -12 80.5 -25t81.5 -22q9 -2 10.5 -8.5t-0.5 -14t-5.5 -15t-6.5 -11.5q-12 -18 -29 -31q47 -94 94 -185.5t95 -184.5q25 -7 49 -13t48 -13q8 -2 10 -8.5t0 -14t-5.5 -15
t-6.5 -11.5q-12 -20 -30 -31q-4 -2 -11 -6.5t-12 -4.5q-2 0 -2.5 0.5t-1.5 0.5q-54 20 -109.5 31t-111.5 26q-8 2 -10 8.5t0 14t5.5 15t6.5 11.5q6 11 21 24.5t28 16.5q-46 88 -90 176t-89 177q-18 5 -36 11t-35 12z" />
    <glyph glyph-name="grave" unicode="`" horiz-adv-x="267" 
d="M-49 663q-5 5 -5 12t2 12q2 9 9 20t16.5 21t20 16.5t19.5 6.5q5 0 9 -3q5 -4 10 -7t10 -7l140 -105q5 -4 5 -11t-2 -12q-5 -20 -19.5 -34.5t-30.5 -25.5q-7 -5 -15 -5q-2 1 -4.5 1t-4.5 2q-5 4 -10 7.5t-10 7.5q-36 26 -70.5 52t-69.5 52z" />
    <glyph glyph-name="circumflex" unicode="&#x2c6;" horiz-adv-x="445" 
d="M-19 669q-2 5 0.5 14.5t4.5 14.5q3 8 10.5 17t16 17t18 13.5t17.5 5.5q9 0 33.5 -9t53 -21t54 -24t35.5 -17q36 -20 69 -48.5t47 -68.5q2 -7 0 -15t-5 -14q-3 -7 -10 -16t-15.5 -17.5t-18 -14.5t-17.5 -6q-11 2 -13 9q-7 21 -22 39t-34.5 33t-41 27.5t-39.5 21.5l33 -66
q3 -7 -0.5 -15.5t-5.5 -13.5q-3 -7 -9.5 -16.5t-14.5 -17.5t-17.5 -13.5t-18.5 -5.5t-13 8q-25 50 -49 99t-48 100z" />
    <glyph glyph-name="dieresis" unicode="&#xa8;" horiz-adv-x="301" 
d="M-19 660q-2 9 0.5 17.5t7.5 17t11 15.5t12 13t14 12.5t16 6.5h4q4 1 8.5 -1t5.5 -7q5 -23 10 -44.5t10 -44.5q4 -17 -8 -34.5t-23 -28.5q-8 -8 -15.5 -13t-19.5 -5q-5 -1 -8.5 0.5t-4.5 6.5q-5 23 -10 45zM109 668q-4 17 8 34.5t23 28.5q8 8 15.5 13t18.5 5q5 1 9 -1
t5 -7l10 -44t10 -45q4 -17 -8 -34.5t-23 -28.5q-8 -8 -15.5 -13t-18.5 -5q-5 -1 -9 1t-5 7l-10 44t-10 45z" />
    <glyph glyph-name="acute" unicode="&#xb4;" horiz-adv-x="271" 
d="M-11 539q-3 4 -7 10t-1 12l82 155q3 5 6 10.5t6 11.5q3 5 9.5 7t12.5 2q17 0 38.5 -10t32.5 -23q4 -5 7.5 -11t0.5 -11q-22 -38 -41.5 -77.5t-40.5 -77.5l-12 -22q-3 -6 -9.5 -7.5t-12.5 -1.5q-17 0 -38.5 10t-32.5 23z" />
    <glyph glyph-name="cedilla" unicode="&#xb8;" horiz-adv-x="312" 
d="M49 -77q-3 6 -0.5 14.5t5.5 14.5q3 7 10 16t15 17.5t17 14t18 5.5q9 -2 13 -9q8 -15 16.5 -30.5t16.5 -31.5q14 14 31 24t37 10q23 0 42 -13.5t32.5 -33.5t21.5 -43.5t8 -44.5q0 -14 -8 -32t-20.5 -34t-28 -27.5t-30.5 -11.5q-2 0 -4.5 -0.5t-5.5 -0.5q-6 0 -14 1.5
t-15 4t-12 7t-6 12.5t3.5 16.5t9.5 16.5q12 18 29 31l4 2t5 3q-8 15 -18.5 29t-24.5 23q0 -2 0.5 -4.5t0.5 -4.5q1 -18 -9 -34.5t-22 -28.5q-5 -5 -15.5 -12t-19.5 -7t-13 8z" />
    <glyph glyph-name="germandbls" unicode="&#xdf;" horiz-adv-x="734" 
d="M-50 436q-2 11 -3 23t1 24q3 23 15.5 43.5t27.5 38.5q32 38 74.5 62t93.5 24q47 0 85.5 -20.5t66 -53.5t43 -75t17.5 -86q2 -35 -4.5 -69t-22.5 -65q-4 -8 -5 -11h4q63 9 128 9q50 0 100 -7t96 -25t85.5 -48t67.5 -75q20 -33 31 -71.5t10 -77.5q-1 -38 -16 -79t-41 -74.5
t-61.5 -55.5t-77.5 -22q-36 0 -65.5 17t-54.5 42q-5 5 -5 11.5t2 12.5q4 17 19.5 34.5t30.5 25.5q3 2 7 3.5t9 1.5q2 -1 4 -1.5t4 -2.5q23 -26 48 -40t60 -14h2h2q5 1 9 1.5t8 2.5q1 0 2 1q2 1 4 1.5t4 1.5q-1 -1 -2 -1q2 1 3.5 2t3.5 2l3 3q2 4 2 3q1 1 1 2q2 3 3 5.5
t3 5.5q2 8 3 11q2 6 2 9q1 1 1 4q2 11 2 21v21q0 3 0.5 6t-0.5 6q-1 1 -1 2q0 4 -1 6q-2 5 -2.5 11.5t-2.5 12.5q-16 64 -51.5 105t-84 65t-105.5 33.5t-117 11.5q-11 0 -21.5 -0.5t-21.5 -0.5q-2 0 -5 -0.5t-6 -0.5h-2q-5 0 -9.5 -0.5t-9.5 -0.5q-20 -1 -39.5 -6.5
t-39.5 -5.5h-5q-11 -2 -13 12q-2 10 2.5 19.5t9.5 17.5q2 2 2 4q2 2 2 4q4 5 7 13q2 4 3.5 7.5t3.5 7.5q1 2 1 3t1 3q4 9 6 18t5 18q1 2 1 4t1 4q0 2 0.5 3t0.5 3q1 5 1.5 9.5t0.5 9.5v18t-1 18q0 4 -0.5 6t-0.5 4q0 3 -1 6.5t-2 7.5q-14 69 -62.5 115t-120.5 51h-10
q-2 -1 -5 -1q-18 -3 -32 -8q3 1 5 1l1 1q-1 0 -4 -1t-5 -2t-4.5 -2t-5.5 -3q-6 -4 -8 -6l-2 -2l-2 -2l-3 -3q0 -3 -0.5 -5.5t0.5 -4.5v-12q1 -3 1 -8q0 -8 2.5 -16.5t4.5 -16.5q8 -45 26 -86.5t35 -83.5q15 -36 36 -81t45.5 -93.5t51.5 -97.5t55 -93.5t56 -82.5t54 -64
q5 -5 5 -11.5t-2 -12.5q-2 -9 -9 -20t-16.5 -21t-20 -16.5t-20.5 -6.5q-5 0 -8 3q-31 31 -69 85.5t-78 121.5t-78.5 142t-69.5 146t-52.5 133.5t-26.5 104.5z" />
    <glyph glyph-name="Agrave" unicode="&#xc0;" 
d="M-532 402q-9 1 -10.5 7.5t0.5 14.5t6 16t6 11q9 13 23 27.5t31 14.5h3l27 -2q63 -5 125 -7t125 -7q145 -11 287 -32t283 -55q-2 7 -3 13.5t-3 14.5q-26 132 -51 262t-52 261q-4 18 8 35t23 28q5 5 15.5 12t19.5 7t13 -8q37 -75 72 -150t73 -150q55 -109 110 -217
t110 -217q74 -30 143 -68.5t141 -73.5q6 -3 5.5 -10.5t-2.5 -12.5q-3 -9 -9.5 -20t-15.5 -21t-19.5 -17t-19.5 -7q-5 0 -10 3q-34 20 -68 39.5t-69 36.5q61 -125 117 -248.5t112 -250.5q3 -7 0.5 -15t-5.5 -14q-3 -7 -10 -16.5t-15.5 -17.5t-17.5 -14t-18 -6t-12 9
q-32 83 -69.5 163t-75.5 161q-38 80 -76.5 158.5t-78.5 157.5q-35 14 -71 27t-72 25q1 -5 2 -11t2 -11l85 -475q3 -18 -8 -34.5t-23 -28.5q-8 -8 -15.5 -13t-18.5 -5q-11 -2 -14 8q-8 20 -14 38.5t-14 38.5q-34 86 -80.5 169.5t-107.5 153.5q-65 75 -134.5 127.5t-147 87.5
t-163.5 56t-184 33q-48 6 -95 10t-95 9zM97 1220q-5 5 -5 12t2 12q2 9 9 20t16.5 21t20 16.5t19.5 6.5q5 0 9 -3q5 -4 10 -7t10 -7l140 -105q5 -4 5 -11t-2 -12q-5 -20 -19.5 -34.5t-30.5 -25.5q-7 -5 -15 -5q-2 1 -4.5 1t-4.5 2q-5 4 -10 7.5t-10 7.5q-36 26 -70.5 52
t-69.5 52zM163 332q39 -22 77.5 -53t74 -67.5t66 -75t54.5 -75.5q-10 55 -20 109l-20 108q-2 1 -3 1t-2 1q-57 16 -113.5 28.5t-113.5 23.5zM471 364q24 -8 48 -15t48 -15q-11 20 -20.5 39.5t-20.5 39.5q-27 51 -52 102t-51 102z" />
    <glyph glyph-name="Aacute" unicode="&#xc1;" 
d="M-532 402q-9 1 -10.5 7.5t0.5 14.5t6 16t6 11q9 13 23 27.5t31 14.5h3l27 -2q63 -5 125 -7t125 -7q145 -11 287 -32t283 -55q-2 7 -3 13.5t-3 14.5q-26 132 -51 262t-52 261q-4 18 8 35t23 28q5 5 15.5 12t19.5 7t13 -8q37 -75 72 -150t73 -150q55 -109 110 -217
t110 -217q74 -30 143 -68.5t141 -73.5q6 -3 5.5 -10.5t-2.5 -12.5q-3 -9 -9.5 -20t-15.5 -21t-19.5 -17t-19.5 -7q-5 0 -10 3q-34 20 -68 39.5t-69 36.5q61 -125 117 -248.5t112 -250.5q3 -7 0.5 -15t-5.5 -14q-3 -7 -10 -16.5t-15.5 -17.5t-17.5 -14t-18 -6t-12 9
q-32 83 -69.5 163t-75.5 161q-38 80 -76.5 158.5t-78.5 157.5q-35 14 -71 27t-72 25q1 -5 2 -11t2 -11l85 -475q3 -18 -8 -34.5t-23 -28.5q-8 -8 -15.5 -13t-18.5 -5q-11 -2 -14 8q-8 20 -14 38.5t-14 38.5q-34 86 -80.5 169.5t-107.5 153.5q-65 75 -134.5 127.5t-147 87.5
t-163.5 56t-184 33q-48 6 -95 10t-95 9zM111 1131q-3 4 -7 10t-1 12l82 155q3 5 6 10.5t6 11.5q3 5 9.5 7t12.5 2q17 0 38.5 -10t32.5 -23q4 -5 7.5 -11t0.5 -11q-22 -38 -41.5 -77.5t-40.5 -77.5l-12 -22q-3 -6 -9.5 -7.5t-12.5 -1.5q-17 0 -38.5 10t-32.5 23zM390 280
q-57 16 -113.5 28.5t-113.5 23.5q39 -22 77.5 -53t74 -67.5t66 -75t54.5 -75.5q-10 55 -20 109l-20 108q-2 1 -3 1t-2 1zM471 364q24 -8 48 -15t48 -15q-11 20 -20.5 39.5t-20.5 39.5q-27 51 -52 102t-51 102z" />
    <glyph glyph-name="Acircumflex" unicode="&#xc2;" 
d="M-532 402q-9 1 -10.5 7.5t0.5 14.5t6 16t6 11q9 13 23 27.5t31 14.5h3l27 -2q63 -5 125 -7t125 -7q145 -11 287 -32t283 -55q-2 7 -3 13.5t-3 14.5q-26 132 -51 262t-52 261q-4 18 8 35t23 28q5 5 15.5 12t19.5 7t13 -8q37 -75 72 -150t73 -150q55 -109 110 -217
t110 -217q74 -30 143 -68.5t141 -73.5q6 -3 5.5 -10.5t-2.5 -12.5q-3 -9 -9.5 -20t-15.5 -21t-19.5 -17t-19.5 -7q-5 0 -10 3q-34 20 -68 39.5t-69 36.5q61 -125 117 -248.5t112 -250.5q3 -7 0.5 -15t-5.5 -14q-3 -7 -10 -16.5t-15.5 -17.5t-17.5 -14t-18 -6t-12 9
q-32 83 -69.5 163t-75.5 161q-38 80 -76.5 158.5t-78.5 157.5q-35 14 -71 27t-72 25q1 -5 2 -11t2 -11l85 -475q3 -18 -8 -34.5t-23 -28.5q-8 -8 -15.5 -13t-18.5 -5q-11 -2 -14 8q-8 20 -14 38.5t-14 38.5q-34 86 -80.5 169.5t-107.5 153.5q-65 75 -134.5 127.5t-147 87.5
t-163.5 56t-184 33q-48 6 -95 10t-95 9zM20 1306q-2 5 0.5 14.5t4.5 14.5q3 8 10.5 17t16 17t18 13.5t17.5 5.5q9 0 33.5 -9t53 -21t54 -24t35.5 -17q36 -20 69 -48.5t47 -68.5q2 -7 0 -15t-5 -14q-3 -7 -10 -16t-15.5 -17.5t-18 -14.5t-17.5 -6q-11 2 -13 9q-7 21 -22 39
t-34.5 33t-41 27.5t-39.5 21.5l33 -66q3 -7 -0.5 -15.5t-5.5 -13.5q-3 -7 -9.5 -16.5t-14.5 -17.5t-17.5 -13.5t-18.5 -5.5t-13 8q-25 50 -49 99t-48 100zM390 280q-57 16 -113.5 28.5t-113.5 23.5q39 -22 77.5 -53t74 -67.5t66 -75t54.5 -75.5q-10 55 -20 109l-20 108
q-2 1 -3 1t-2 1zM471 364q24 -8 48 -15t48 -15q-11 20 -20.5 39.5t-20.5 39.5q-27 51 -52 102t-51 102z" />
    <glyph glyph-name="Atilde" unicode="&#xc3;" 
d="M-532 402q-9 1 -10.5 7.5t0.5 14.5t6 16t6 11q9 13 23 27.5t31 14.5h3l27 -2q63 -5 125 -7t125 -7q145 -11 287 -32t283 -55q-2 7 -3 13.5t-3 14.5q-26 132 -51 262t-52 261q-4 18 8 35t23 28q5 5 15.5 12t19.5 7t13 -8q37 -75 72 -150t73 -150q55 -109 110 -217
t110 -217q74 -30 143 -68.5t141 -73.5q6 -3 5.5 -10.5t-2.5 -12.5q-3 -9 -9.5 -20t-15.5 -21t-19.5 -17t-19.5 -7q-5 0 -10 3q-34 20 -68 39.5t-69 36.5q61 -125 117 -248.5t112 -250.5q3 -7 0.5 -15t-5.5 -14q-3 -7 -10 -16.5t-15.5 -17.5t-17.5 -14t-18 -6t-12 9
q-32 83 -69.5 163t-75.5 161q-38 80 -76.5 158.5t-78.5 157.5q-35 14 -71 27t-72 25q1 -5 2 -11t2 -11l85 -475q3 -18 -8 -34.5t-23 -28.5q-8 -8 -15.5 -13t-18.5 -5q-11 -2 -14 8q-8 20 -14 38.5t-14 38.5q-34 86 -80.5 169.5t-107.5 153.5q-65 75 -134.5 127.5t-147 87.5
t-163.5 56t-184 33q-48 6 -95 10t-95 9zM-7 1131q-6 4 -5.5 11t2.5 12q2 9 8 18.5t12 16.5q23 26 53 36.5t63 9.5q36 -1 70 -11.5t68 -21.5q17 -5 37.5 -9.5t38.5 -4.5q2 1 7 1q1 1 2 1t3 1q5 4 12 7t14 3t9.5 -5t2.5 -11q0 -17 -14.5 -36t-27.5 -28q-32 -23 -71 -23h-8
q-34 2 -67 14.5t-65 20.5q-20 5 -39 8t-40 3h-1q-11 0 -26 -5q-4 -2 -7.5 -3.5t-7.5 -3.5q-6 -4 -13 -4q-6 0 -10 3zM390 280q-57 16 -113.5 28.5t-113.5 23.5q39 -22 77.5 -53t74 -67.5t66 -75t54.5 -75.5q-10 55 -20 109l-20 108q-2 1 -3 1t-2 1zM526 413
q-26 51 -51.5 102t-51.5 102l48 -253q24 -8 48 -15t48 -15q-21 39 -41 79z" />
    <glyph glyph-name="Adieresis" unicode="&#xc4;" 
d="M-532 402q-9 1 -10.5 7.5t0.5 14.5t6 16t6 11q9 13 23 27.5t31 14.5h3l27 -2q63 -5 125 -7t125 -7q145 -11 287 -32t283 -55q-2 7 -3 13.5t-3 14.5q-26 132 -51 262t-52 261q-4 18 8 35t23 28q5 5 15.5 12t19.5 7t13 -8q37 -75 72 -150t73 -150q55 -109 110 -217
t110 -217q74 -30 143 -68.5t141 -73.5q6 -3 5.5 -10.5t-2.5 -12.5q-3 -9 -9.5 -20t-15.5 -21t-19.5 -17t-19.5 -7q-5 0 -10 3q-34 20 -68 39.5t-69 36.5q61 -125 117 -248.5t112 -250.5q3 -7 0.5 -15t-5.5 -14q-3 -7 -10 -16.5t-15.5 -17.5t-17.5 -14t-18 -6t-12 9
q-32 83 -69.5 163t-75.5 161q-38 80 -76.5 158.5t-78.5 157.5q-35 14 -71 27t-72 25q1 -5 2 -11t2 -11l85 -475q3 -18 -8 -34.5t-23 -28.5q-8 -8 -15.5 -13t-18.5 -5q-11 -2 -14 8q-8 20 -14 38.5t-14 38.5q-34 86 -80.5 169.5t-107.5 153.5q-65 75 -134.5 127.5t-147 87.5
t-163.5 56t-184 33q-48 6 -95 10t-95 9zM390 280q-57 16 -113.5 28.5t-113.5 23.5q39 -22 77.5 -53t74 -67.5t66 -75t54.5 -75.5q-10 55 -20 109l-20 108q-2 1 -3 1t-2 1zM87 1195q-2 9 0.5 17.5t7.5 17t11 15.5t12 13t14 12.5t16 6.5h4q4 1 8.5 -1t5.5 -7q5 -23 10 -44.5
t10 -44.5q4 -17 -8 -34.5t-23 -28.5q-8 -8 -15.5 -13t-19.5 -5q-5 -1 -8.5 0.5t-4.5 6.5q-5 23 -10 45zM215 1203q-4 17 8 34.5t23 28.5q8 8 15.5 13t18.5 5q5 1 9 -1t5 -7l10 -44t10 -45q4 -17 -8 -34.5t-23 -28.5q-8 -8 -15.5 -13t-18.5 -5q-5 -1 -9 1t-5 7l-10 44t-10 45
zM526 413q-26 51 -51.5 102t-51.5 102l48 -253q24 -8 48 -15t48 -15q-21 39 -41 79z" />
    <glyph glyph-name="Aring" unicode="&#xc5;" 
d="M-532 402q-9 1 -10.5 7.5t0.5 14.5t6 16t6 11q9 13 23 27.5t31 14.5h3l27 -2q63 -5 125 -7t125 -7q145 -11 287 -32t283 -55q-2 7 -3 13.5t-3 14.5q-26 132 -51 262t-52 261q-4 18 8 35t23 28q5 5 15.5 12t19.5 7t13 -8q37 -75 72 -150t73 -150q55 -109 110 -217
t110 -217q74 -30 143 -68.5t141 -73.5q6 -3 5.5 -10.5t-2.5 -12.5q-3 -9 -9.5 -20t-15.5 -21t-19.5 -17t-19.5 -7q-5 0 -10 3q-34 20 -68 39.5t-69 36.5q61 -125 117 -248.5t112 -250.5q3 -7 0.5 -15t-5.5 -14q-3 -7 -10 -16.5t-15.5 -17.5t-17.5 -14t-18 -6t-12 9
q-32 83 -69.5 163t-75.5 161q-38 80 -76.5 158.5t-78.5 157.5q-35 14 -71 27t-72 25q1 -5 2 -11t2 -11l85 -475q3 -18 -8 -34.5t-23 -28.5q-8 -8 -15.5 -13t-18.5 -5q-11 -2 -14 8q-8 20 -14 38.5t-14 38.5q-34 86 -80.5 169.5t-107.5 153.5q-65 75 -134.5 127.5t-147 87.5
t-163.5 56t-184 33q-48 6 -95 10t-95 9zM91 1176q-16 32 -15.5 66t20.5 64q15 23 38.5 41.5t52.5 18.5q19 0 37 -6q6 2 10 2h3q19 -5 35 -19t27.5 -33t18 -40t6.5 -40q0 -23 -11.5 -46.5t-30 -42.5t-41.5 -31t-47 -12q-36 1 -62 23.5t-41 54.5zM390 280q-57 16 -113.5 28.5
t-113.5 23.5q39 -22 77.5 -53t74 -67.5t66 -75t54.5 -75.5q-10 55 -20 109l-20 108q-2 1 -3 1t-2 1zM471 364q24 -8 48 -15t48 -15q-11 20 -20.5 39.5t-20.5 39.5q-27 51 -52 102t-51 102zM172 1267q-2 1 -5 2l-6 2q0 -2 1 -3q9 -26 27 -48.5t47 -29.5q2 0 3 -0.5t2 -0.5
q0 8 -5 19t-12.5 21.5t-15.5 20t-15 13.5h-5q-3 -1 -5.5 0t-5.5 2q-2 1 -2.5 1t-2.5 1z" />
    <glyph glyph-name="AE" unicode="&#xc6;" horiz-adv-x="1747" 
d="M-399 402q-9 1 -10.5 7.5t0.5 14.5t6 16t6 11q9 13 23 27.5t31 14.5h3l27 -2q63 -5 125 -7t125 -7q145 -11 287 -32t283 -55q-2 7 -3 13.5t-3 14.5q-26 132 -51 262t-52 261q-4 18 8 35t23 28q5 5 15.5 12t19.5 7t13 -8q37 -75 72 -150t73 -150q55 -109 110 -217
t110 -217q20 -8 39 -16t38 -17q35 24 71.5 30t77.5 7q10 1 20 0.5t21 -1.5q-36 21 -78.5 47t-86 56.5t-85 64.5t-77.5 70.5t-63 75t-40 77.5q-15 45 -9 92t32 85q17 26 41.5 45.5t54.5 27.5q22 5 39 5q34 -1 69.5 -9.5t70.5 -21.5t68 -30t61 -34q-51 51 -101 103t-104 99
q-5 5 -5 11t2 12q2 9 9 20.5t17 21t20.5 16.5t19.5 7q5 0 8 -3q29 -29 59 -58.5t59 -58.5q49 -49 97.5 -97t95.5 -99q47 -52 89 -105.5t79 -113.5q4 -6 0.5 -15t-5.5 -14q-3 -7 -10 -16.5t-15.5 -17.5t-18 -13.5t-17.5 -5.5q-6 0 -9 3q-29 28 -74 62.5t-98.5 71t-111.5 71.5
t-113 62.5t-103.5 44t-83.5 16.5h-12h-4q-5 -1 -9.5 -1.5t-9.5 -1.5q-1 0 -1.5 -0.5t-1.5 -0.5q-1 -2 -1 -2.5t-1 -2.5t-1 -4t-1 -4v-3q-1 -5 -1.5 -10t-0.5 -10q0 -15 4.5 -32t11.5 -34t15.5 -32.5t17.5 -27.5q49 -66 120.5 -125.5t152 -111.5t163.5 -96t154 -80
q26 -13 52.5 -24t52.5 -24q10 -5 25 -10q10 -4 10 -17q0 -9 -6.5 -21.5t-16.5 -24t-21.5 -20t-21.5 -8.5h-3q-5 2 -10 2.5t-10 2.5q-50 16 -100 26.5t-101 21.5t-103 20t-105 11q25 -14 48 -28.5t49 -27.5q6 -3 5.5 -10.5t-2.5 -12.5q-3 -9 -9.5 -20t-15.5 -21t-19.5 -17
t-19.5 -7q-5 0 -10 3q-32 20 -64 37.5t-65 34.5q14 -45 42.5 -92t67 -92t84.5 -87t93.5 -77.5t94.5 -64t88 -45.5q17 -7 40.5 -14t49 -13t49.5 -9.5t42 -3.5h13h3q4 1 10 1q12 0 26 3.5t25 7.5q2 1 3.5 1.5t3.5 1.5q11 5 21.5 8t18.5 11q2 2 6 4q8 5 15 10t15 11q1 0 3 1.5
t2 2.5q2 2 5 3.5t5 4.5t6 7l2 2q2 2 4.5 5t4.5 5q4 5 7 9.5t6 9.5q1 4 5 10q2 3 2.5 6t2.5 6q0 1 0.5 1t0.5 1q8 21 12 42v2q0 1 0.5 1.5t0.5 1.5q0 2 0.5 5t0.5 5q0 6 1 12t1 11v47q0 2 -0.5 5t-0.5 6v2q0 1 -0.5 2t-0.5 2q-1 5 -1.5 11t-1.5 11q-5 42 -25.5 93.5
t-50 100.5t-65.5 89t-73 58q-6 3 -5.5 11t2.5 13q3 9 9.5 19.5t15.5 20.5t19.5 16.5t19.5 6.5q5 2 10 -2q27 -13 52.5 -37t47.5 -52.5t40.5 -58.5t31.5 -56q30 -60 46 -126.5t10 -134.5q-6 -69 -38.5 -132t-83 -111.5t-115 -77.5t-134.5 -29q-54 0 -109.5 15t-108 40.5
t-101 57.5t-88.5 65q9 -21 18 -42.5t18 -42.5q3 -7 0.5 -15t-5.5 -14q-3 -7 -10 -16.5t-15.5 -17.5t-17.5 -14t-18 -6t-12 9q-32 83 -69.5 163t-75.5 161q-38 80 -76.5 158.5t-78.5 157.5q-35 14 -71 27t-72 25q1 -5 1.5 -11t2.5 -11q32 -116 49 -236.5t36 -238.5
q3 -18 -8 -34.5t-23 -28.5q-8 -8 -15.5 -13t-18.5 -5q-11 -2 -14 8q-8 20 -14 38.5t-14 38.5q-34 86 -80.5 169.5t-107.5 153.5q-65 75 -134.5 127.5t-147 87.5t-163.5 56t-184 33q-48 6 -95 10t-95 9zM523 280q-57 16 -113.5 28.5t-113.5 23.5q39 -22 77.5 -53t74 -67.5
t66 -75t54.5 -75.5q-10 55 -20 109l-20 108q-2 1 -3 1t-2 1zM556 617q12 -64 24 -127l24 -126q24 -8 48 -15t48 -15q-11 20 -20.5 39.5t-20.5 39.5q-27 51 -52 102t-51 102z" />
    <glyph glyph-name="Ccedilla" unicode="&#xc7;" horiz-adv-x="767" 
d="M-84 647q-1 36 5 74t23 71q28 55 78 87.5t112 32.5q35 0 71.5 -8t68.5 -24q-13 16 -25.5 31t-25.5 30q-5 5 -5 11t2 12q2 7 7 16.5t12.5 18.5t15.5 16.5t15 9.5q2 1 6.5 2.5t9.5 1.5t8 -3q16 -20 32 -38.5t33 -38.5q57 -68 111 -138.5t107 -142.5q10 -14 1 -30.5
t-18 -27.5q-8 -9 -21 -19t-26 -10q-6 0 -8 2q-19 16 -36.5 33t-36.5 33q-36 30 -77 60.5t-85.5 54.5t-92 40t-96.5 17q-3 1 -5.5 0.5t-5.5 -0.5h-2q-9 0 -19.5 -2t-18.5 -6h-2q-1 -1 -2 -1t-2 -1q-5 -2 -10 -5q-1 -1 -1.5 -1t-1.5 -1t-1 -2q-1 -1 -1 -3q-1 -3 -2 -5.5
t-2 -5.5q-2 -8 -3 -13q0 -1 -0.5 -2t-0.5 -3q-2 -20 -3 -40t-1 -41v-15.5t2 -15.5v1q0 -2 1 -4q0 -5 1 -11.5t2 -11.5q31 -153 92.5 -289.5t146.5 -267.5q29 -45 67.5 -95t84 -98.5t96 -92.5t105 -77.5t110.5 -53.5t111 -20h6q3 1 7 1q8 0 13 2q3 1 11 3l4 2h1q2 1 4.5 2
t4.5 2q2 2 2 3.5t1 3.5q1 1 1 2t1 3l3 12q0 6 1 8q2 8 1.5 16.5t-0.5 16.5q0 5 -0.5 9t-0.5 9v2l-1 2q0 9 -3.5 25.5t-5.5 25.5q-10 40 -28 87t-41 94t-48 90t-49 76q-4 5 -1 14t6 15t9 14.5t14.5 17t17 14.5t15.5 6q2 0 3 0.5t3 0.5q6 0 12 -9q27 -43 56 -92.5t53.5 -101.5
t42.5 -105t23 -102q3 -28 2.5 -56t-8.5 -55q-10 -31 -28 -57.5t-43 -47.5q4 -8 8 -15.5t8 -15.5q14 14 31 24t37 10q18 0 34.5 -8.5t29.5 -22.5t22 -31t13 -34q2 -10 4 -19.5t1 -20.5q-1 -15 -8.5 -33t-19.5 -33.5t-27.5 -26.5t-31.5 -11q-2 0 -4.5 -0.5t-5.5 -0.5
q-6 0 -14 1.5t-15 4t-12 7t-6 12.5t3.5 16.5t9.5 16.5t13 16.5t17 14.5q2 2 8 5q-8 15 -18.5 29t-24.5 23q0 -2 0.5 -4.5t0.5 -4.5q1 -19 -8.5 -35.5t-22.5 -27.5q-6 -5 -16 -12t-18 -7q-9 0 -13 8q-17 34 -35 66.5t-36 67.5q-7 -1 -14 -1.5t-14 -0.5q-71 0 -145 34
t-142 84.5t-126 110.5t-99 113q-37 49 -75.5 107t-74.5 122.5t-67.5 132.5t-55 135.5t-37.5 133.5t-15 126z" />
    <glyph glyph-name="Egrave" unicode="&#xc8;" horiz-adv-x="989" 
d="M-99 675q-15 45 -8.5 91.5t32.5 85.5q17 26 41.5 45.5t54.5 27.5q20 5 39 5q11 -1 22.5 -2t22.5 -3q55 -10 106 -33t101 -48q5 -2 8.5 -4.5t8.5 -4.5q-51 51 -103 101t-103 101q-5 5 -5 11t2 12q2 9 9 20t17 21t21 17t20 7q4 0 7 -3q27 -32 58 -60t61 -57
q49 -48 97.5 -96.5t94.5 -99.5q47 -52 89.5 -105.5t79.5 -113.5q4 -6 0.5 -15t-5.5 -14q-3 -7 -10 -16t-16 -17.5t-18 -14t-17 -5.5q-6 0 -9 3q-16 16 -33 29.5t-35 27.5q-30 23 -70.5 51.5t-86.5 58.5t-95 59t-96.5 51.5t-91 36.5t-77.5 14h-12h-4l-18 -3q-1 0 -2 -0.5
t-2 -0.5q0 -2 -0.5 -2.5t-0.5 -2.5q-2 -6 -2 -8q-1 -1 -1 -3q-1 -5 -1 -10v-10q0 -3 -0.5 -5.5t0.5 -5.5l1 -3q2 -5 2 -10t1 -10q4 -21 13.5 -41.5t22.5 -37.5q54 -72 124.5 -133t149 -113t161.5 -96.5t163 -83.5q26 -13 53 -24t53 -24q6 -3 12 -5.5t12 -4.5q11 -5 11 -17
q0 -17 -14 -36.5t-28 -27.5q-5 -3 -13 -7.5t-15 -2.5q-5 2 -10 2.5t-10 2.5q-50 14 -99.5 25.5t-100.5 22.5q-62 14 -123.5 22.5t-124.5 8.5q-2 -1 -5 -1q-14 -1 -28.5 -3.5t-28.5 -7.5h-2l-6 -3v-23q0 -2 0.5 -3t0.5 -3q5 -20 10 -36t11.5 -31t15 -30t19.5 -32
q34 -53 85.5 -108.5t111 -105.5t122.5 -89t120 -58q40 -14 79.5 -23.5t80.5 -9.5h14h4q4 1 10 1t20.5 3t20.5 5q4 2 8 3t9 3q11 5 21.5 8t18.5 11q2 2 6 4q2 2 5 3t5 3q5 4 10 7.5t10 7.5q1 0 3 2l2 2q3 2 9 8l7 7l5 6q6 4 6 6q3 5 6 9.5t6 9.5q2 5 5.5 11t4.5 11q1 1 1 2
q8 21 12 42l1 2v3q1 2 1 5t1 5q2 6 1.5 12t0.5 11q2 12 0.5 23.5t-1.5 23.5q0 7 -1 11v2v4q-4 34 -14 69q-11 41 -30.5 84t-45.5 82.5t-58 73t-70 54.5q-5 3 -4.5 11t1.5 13q2 8 9 19t16.5 21t19.5 17t19 7q3 -1 6 -1t5 -2q28 -15 53.5 -38.5t47 -51t39.5 -57t32 -57.5
q29 -60 45 -126.5t10 -134.5q-6 -69 -38.5 -132t-83 -111.5t-115 -77.5t-134.5 -29q-41 0 -82.5 9t-81.5 24.5t-78 35.5t-72 42q-47 30 -100 74t-101.5 95t-88 106.5t-59.5 108.5q-8 20 -12.5 42.5t-2.5 44.5q4 38 25 70t51 55q35 26 72.5 32.5t79.5 7.5q11 1 21 0.5
t20 -1.5q-36 21 -78 47.5t-85.5 56.5t-86 64.5t-78 70.5t-62.5 74.5t-40 77.5zM61 1321q-5 5 -5 12t2 12q2 9 9 20t16.5 21t20 16.5t19.5 6.5q5 0 9 -3q5 -4 10 -7t10 -7l140 -105q5 -4 5 -11t-2 -12q-5 -20 -19.5 -34.5t-30.5 -25.5q-7 -5 -15 -5q-2 1 -4.5 1t-4.5 2
q-5 4 -10 7.5t-10 7.5q-36 26 -70.5 52t-69.5 52z" />
    <glyph glyph-name="Eacute" unicode="&#xc9;" horiz-adv-x="989" 
d="M-99 675q-15 45 -8.5 91.5t32.5 85.5q17 26 41.5 45.5t54.5 27.5q20 5 39 5q11 -1 22.5 -2t22.5 -3q55 -10 106 -33t101 -48q5 -2 8.5 -4.5t8.5 -4.5q-51 51 -103 101t-103 101q-5 5 -5 11t2 12q2 9 9 20t17 21t21 17t20 7q4 0 7 -3q27 -32 58 -60t61 -57
q49 -48 97.5 -96.5t94.5 -99.5q47 -52 89.5 -105.5t79.5 -113.5q4 -6 0.5 -15t-5.5 -14q-3 -7 -10 -16t-16 -17.5t-18 -14t-17 -5.5q-6 0 -9 3q-16 16 -33 29.5t-35 27.5q-30 23 -70.5 51.5t-86.5 58.5t-95 59t-96.5 51.5t-91 36.5t-77.5 14h-12h-4l-18 -3q-1 0 -2 -0.5
t-2 -0.5q0 -2 -0.5 -2.5t-0.5 -2.5q-2 -6 -2 -8q-1 -1 -1 -3q-1 -5 -1 -10v-10q0 -3 -0.5 -5.5t0.5 -5.5l1 -3q2 -5 2 -10t1 -10q4 -21 13.5 -41.5t22.5 -37.5q54 -72 124.5 -133t149 -113t161.5 -96.5t163 -83.5q26 -13 53 -24t53 -24q6 -3 12 -5.5t12 -4.5q11 -5 11 -17
q0 -17 -14 -36.5t-28 -27.5q-5 -3 -13 -7.5t-15 -2.5q-5 2 -10 2.5t-10 2.5q-50 14 -99.5 25.5t-100.5 22.5q-62 14 -123.5 22.5t-124.5 8.5q-2 -1 -5 -1q-14 -1 -28.5 -3.5t-28.5 -7.5h-2l-6 -3v-23q0 -2 0.5 -3t0.5 -3q5 -20 10 -36t11.5 -31t15 -30t19.5 -32
q34 -53 85.5 -108.5t111 -105.5t122.5 -89t120 -58q40 -14 79.5 -23.5t80.5 -9.5h14h4q4 1 10 1t20.5 3t20.5 5q4 2 8 3t9 3q11 5 21.5 8t18.5 11q2 2 6 4q2 2 5 3t5 3q5 4 10 7.5t10 7.5q1 0 3 2l2 2q3 2 9 8l7 7l5 6q6 4 6 6q3 5 6 9.5t6 9.5q2 5 5.5 11t4.5 11q1 1 1 2
q8 21 12 42l1 2v3q1 2 1 5t1 5q2 6 1.5 12t0.5 11q2 12 0.5 23.5t-1.5 23.5q0 7 -1 11v2v4q-4 34 -14 69q-11 41 -30.5 84t-45.5 82.5t-58 73t-70 54.5q-5 3 -4.5 11t1.5 13q2 8 9 19t16.5 21t19.5 17t19 7q3 -1 6 -1t5 -2q28 -15 53.5 -38.5t47 -51t39.5 -57t32 -57.5
q29 -60 45 -126.5t10 -134.5q-6 -69 -38.5 -132t-83 -111.5t-115 -77.5t-134.5 -29q-41 0 -82.5 9t-81.5 24.5t-78 35.5t-72 42q-47 30 -100 74t-101.5 95t-88 106.5t-59.5 108.5q-8 20 -12.5 42.5t-2.5 44.5q4 38 25 70t51 55q35 26 72.5 32.5t79.5 7.5q11 1 21 0.5
t20 -1.5q-36 21 -78 47.5t-85.5 56.5t-86 64.5t-78 70.5t-62.5 74.5t-40 77.5zM75 1232q-3 4 -7 10t-1 12l82 155q3 5 6 10.5t6 11.5q3 5 9.5 7t12.5 2q17 0 38.5 -10t32.5 -23q4 -5 7.5 -11t0.5 -11q-22 -38 -41.5 -77.5t-40.5 -77.5l-12 -22q-3 -6 -9.5 -7.5t-12.5 -1.5
q-17 0 -38.5 10t-32.5 23z" />
    <glyph glyph-name="Ecircumflex" unicode="&#xca;" horiz-adv-x="989" 
d="M-99 675q-15 45 -8.5 91.5t32.5 85.5q17 26 41.5 45.5t54.5 27.5q20 5 39 5q11 -1 22.5 -2t22.5 -3q55 -10 106 -33t101 -48q5 -2 8.5 -4.5t8.5 -4.5q-51 51 -103 101t-103 101q-5 5 -5 11t2 12q2 9 9 20t17 21t21 17t20 7q4 0 7 -3q27 -32 58 -60t61 -57
q49 -48 97.5 -96.5t94.5 -99.5q47 -52 89.5 -105.5t79.5 -113.5q4 -6 0.5 -15t-5.5 -14q-3 -7 -10 -16t-16 -17.5t-18 -14t-17 -5.5q-6 0 -9 3q-16 16 -33 29.5t-35 27.5q-30 23 -70.5 51.5t-86.5 58.5t-95 59t-96.5 51.5t-91 36.5t-77.5 14h-12h-4l-18 -3q-1 0 -2 -0.5
t-2 -0.5q0 -2 -0.5 -2.5t-0.5 -2.5q-2 -6 -2 -8q-1 -1 -1 -3q-1 -5 -1 -10v-10q0 -3 -0.5 -5.5t0.5 -5.5l1 -3q2 -5 2 -10t1 -10q4 -21 13.5 -41.5t22.5 -37.5q54 -72 124.5 -133t149 -113t161.5 -96.5t163 -83.5q26 -13 53 -24t53 -24q6 -3 12 -5.5t12 -4.5q11 -5 11 -17
q0 -17 -14 -36.5t-28 -27.5q-5 -3 -13 -7.5t-15 -2.5q-5 2 -10 2.5t-10 2.5q-50 14 -99.5 25.5t-100.5 22.5q-62 14 -123.5 22.5t-124.5 8.5q-2 -1 -5 -1q-14 -1 -28.5 -3.5t-28.5 -7.5h-2l-6 -3v-23q0 -2 0.5 -3t0.5 -3q5 -20 10 -36t11.5 -31t15 -30t19.5 -32
q34 -53 85.5 -108.5t111 -105.5t122.5 -89t120 -58q40 -14 79.5 -23.5t80.5 -9.5h14h4q4 1 10 1t20.5 3t20.5 5q4 2 8 3t9 3q11 5 21.5 8t18.5 11q2 2 6 4q2 2 5 3t5 3q5 4 10 7.5t10 7.5q1 0 3 2l2 2q3 2 9 8l7 7l5 6q6 4 6 6q3 5 6 9.5t6 9.5q2 5 5.5 11t4.5 11q1 1 1 2
q8 21 12 42l1 2v3q1 2 1 5t1 5q2 6 1.5 12t0.5 11q2 12 0.5 23.5t-1.5 23.5q0 7 -1 11v2v4q-4 34 -14 69q-11 41 -30.5 84t-45.5 82.5t-58 73t-70 54.5q-5 3 -4.5 11t1.5 13q2 8 9 19t16.5 21t19.5 17t19 7q3 -1 6 -1t5 -2q28 -15 53.5 -38.5t47 -51t39.5 -57t32 -57.5
q29 -60 45 -126.5t10 -134.5q-6 -69 -38.5 -132t-83 -111.5t-115 -77.5t-134.5 -29q-41 0 -82.5 9t-81.5 24.5t-78 35.5t-72 42q-47 30 -100 74t-101.5 95t-88 106.5t-59.5 108.5q-8 20 -12.5 42.5t-2.5 44.5q4 38 25 70t51 55q35 26 72.5 32.5t79.5 7.5q11 1 21 0.5
t20 -1.5q-36 21 -78 47.5t-85.5 56.5t-86 64.5t-78 70.5t-62.5 74.5t-40 77.5zM-16 1407q-2 5 0.5 14.5t4.5 14.5q3 8 10.5 17t16 17t18 13.5t17.5 5.5q9 0 33.5 -9t53 -21t54 -24t35.5 -17q36 -20 69 -48.5t47 -68.5q2 -7 0 -15t-5 -14q-3 -7 -10 -16t-15.5 -17.5
t-18 -14.5t-17.5 -6q-11 2 -13 9q-7 21 -22 39t-34.5 33t-41 27.5t-39.5 21.5l33 -66q3 -7 -0.5 -15.5t-5.5 -13.5q-3 -7 -9.5 -16.5t-14.5 -17.5t-17.5 -13.5t-18.5 -5.5t-13 8q-25 50 -49 99t-48 100z" />
    <glyph glyph-name="Edieresis" unicode="&#xcb;" horiz-adv-x="989" 
d="M-99 675q-15 45 -8.5 91.5t32.5 85.5q17 26 41.5 45.5t54.5 27.5q20 5 39 5q11 -1 22.5 -2t22.5 -3q55 -10 106 -33t101 -48q5 -2 8.5 -4.5t8.5 -4.5q-51 51 -103 101t-103 101q-5 5 -5 11t2 12q2 9 9 20t17 21t21 17t20 7q4 0 7 -3q27 -32 58 -60t61 -57
q49 -48 97.5 -96.5t94.5 -99.5q47 -52 89.5 -105.5t79.5 -113.5q4 -6 0.5 -15t-5.5 -14q-3 -7 -10 -16t-16 -17.5t-18 -14t-17 -5.5q-6 0 -9 3q-16 16 -33 29.5t-35 27.5q-30 23 -70.5 51.5t-86.5 58.5t-95 59t-96.5 51.5t-91 36.5t-77.5 14h-12h-4l-18 -3q-1 0 -2 -0.5
t-2 -0.5q0 -2 -0.5 -2.5t-0.5 -2.5q-2 -6 -2 -8q-1 -1 -1 -3q-1 -5 -1 -10v-10q0 -3 -0.5 -5.5t0.5 -5.5l1 -3q2 -5 2 -10t1 -10q4 -21 13.5 -41.5t22.5 -37.5q54 -72 124.5 -133t149 -113t161.5 -96.5t163 -83.5q26 -13 53 -24t53 -24q6 -3 12 -5.5t12 -4.5q11 -5 11 -17
q0 -17 -14 -36.5t-28 -27.5q-5 -3 -13 -7.5t-15 -2.5q-5 2 -10 2.5t-10 2.5q-50 14 -99.5 25.5t-100.5 22.5q-62 14 -123.5 22.5t-124.5 8.5q-2 -1 -5 -1q-14 -1 -28.5 -3.5t-28.5 -7.5h-2l-6 -3v-23q0 -2 0.5 -3t0.5 -3q5 -20 10 -36t11.5 -31t15 -30t19.5 -32
q34 -53 85.5 -108.5t111 -105.5t122.5 -89t120 -58q40 -14 79.5 -23.5t80.5 -9.5h14h4q4 1 10 1t20.5 3t20.5 5q4 2 8 3t9 3q11 5 21.5 8t18.5 11q2 2 6 4q2 2 5 3t5 3q5 4 10 7.5t10 7.5q1 0 3 2l2 2q3 2 9 8l7 7l5 6q6 4 6 6q3 5 6 9.5t6 9.5q2 5 5.5 11t4.5 11q1 1 1 2
q8 21 12 42l1 2v3q1 2 1 5t1 5q2 6 1.5 12t0.5 11q2 12 0.5 23.5t-1.5 23.5q0 7 -1 11v2v4q-4 34 -14 69q-11 41 -30.5 84t-45.5 82.5t-58 73t-70 54.5q-5 3 -4.5 11t1.5 13q2 8 9 19t16.5 21t19.5 17t19 7q3 -1 6 -1t5 -2q28 -15 53.5 -38.5t47 -51t39.5 -57t32 -57.5
q29 -60 45 -126.5t10 -134.5q-6 -69 -38.5 -132t-83 -111.5t-115 -77.5t-134.5 -29q-41 0 -82.5 9t-81.5 24.5t-78 35.5t-72 42q-47 30 -100 74t-101.5 95t-88 106.5t-59.5 108.5q-8 20 -12.5 42.5t-2.5 44.5q4 38 25 70t51 55q35 26 72.5 32.5t79.5 7.5q11 1 21 0.5
t20 -1.5q-36 21 -78 47.5t-85.5 56.5t-86 64.5t-78 70.5t-62.5 74.5t-40 77.5zM51 1296q-2 9 0.5 17.5t7.5 17t11 15.5t12 13t14 12.5t16 6.5h4q4 1 8.5 -1t5.5 -7q5 -23 10 -44.5t10 -44.5q4 -17 -8 -34.5t-23 -28.5q-8 -8 -15.5 -13t-19.5 -5q-5 -1 -8.5 0.5t-4.5 6.5
q-5 23 -10 45zM179 1304q-4 17 8 34.5t23 28.5q8 8 15.5 13t18.5 5q5 1 9 -1t5 -7l10 -44t10 -45q4 -17 -8 -34.5t-23 -28.5q-8 -8 -15.5 -13t-18.5 -5q-5 -1 -9 1t-5 7l-10 44t-10 45z" />
    <glyph glyph-name="Igrave" unicode="&#xcc;" horiz-adv-x="520" 
d="M-259 974q-8 2 -10 8.5t0 14t5.5 15t6.5 11.5q5 9 12.5 17.5t16.5 13.5q4 2 11 6.5t13 4.5q2 0 2.5 -0.5t1.5 -0.5q13 -4 25.5 -7t25.5 -6q66 -16 129.5 -34.5t128.5 -37.5q72 -21 143.5 -43.5t143.5 -46.5q8 -3 9.5 -9t0 -13.5t-5 -14.5t-6.5 -12q-5 -8 -13.5 -16
t-16.5 -15q-3 -2 -10 -6.5t-13 -4.5q-2 0 -25 7.5t-50.5 16t-51.5 16.5t-29 10q-9 4 -17 5q115 -220 224 -440t211 -446q32 -72 63 -144.5t58 -147.5q66 -8 132.5 -17t132.5 -17q9 -1 10.5 -7.5t0 -14.5t-5.5 -15.5t-6 -11.5q-3 -6 -9.5 -13t-14 -13t-16 -10.5t-15.5 -4.5
h-2q-35 4 -69.5 8.5t-69.5 9.5q-124 16 -246.5 30t-247.5 25q-9 1 -10.5 7.5t0.5 14.5t6 16t6 11q8 12 23.5 26.5t31.5 14.5h2q35 -4 69.5 -7t69.5 -7l58 -6l58 -6q-60 149 -127 292.5t-137 287.5q-38 78 -77 155t-78 155q-40 80 -80.5 159t-83.5 157q-72 21 -144 40.5
t-144 39.5zM-76 1261q-5 5 -5 12t2 12q2 9 9 20t16.5 21t20 16.5t19.5 6.5q4 0 9 -3q5 -4 10 -7t10 -7l140 -105q5 -4 5 -11t-2 -12q-5 -20 -19.5 -34.5t-30.5 -25.5q-7 -5 -15 -5q-2 1 -4.5 1t-4.5 2q-5 4 -10 7.5t-10 7.5q-36 26 -70.5 52t-69.5 52z" />
    <glyph glyph-name="Iacute" unicode="&#xcd;" horiz-adv-x="520" 
d="M-259 974q-8 2 -10 8.5t0 14t5.5 15t6.5 11.5q5 9 12.5 17.5t16.5 13.5q4 2 11 6.5t13 4.5q2 0 2.5 -0.5t1.5 -0.5q13 -4 25.5 -7t25.5 -6q66 -16 129.5 -34.5t128.5 -37.5q72 -21 143.5 -43.5t143.5 -46.5q8 -3 9.5 -9t0 -13.5t-5 -14.5t-6.5 -12q-5 -8 -13.5 -16
t-16.5 -15q-3 -2 -10 -6.5t-13 -4.5q-2 0 -25 7.5t-50.5 16t-51.5 16.5t-29 10q-9 4 -17 5q115 -220 224 -440t211 -446q32 -72 63 -144.5t58 -147.5q66 -8 132.5 -17t132.5 -17q9 -1 10.5 -7.5t0 -14.5t-5.5 -15.5t-6 -11.5q-3 -6 -9.5 -13t-14 -13t-16 -10.5t-15.5 -4.5
h-2q-35 4 -69.5 8.5t-69.5 9.5q-124 16 -246.5 30t-247.5 25q-9 1 -10.5 7.5t0.5 14.5t6 16t6 11q8 12 23.5 26.5t31.5 14.5h2q35 -4 69.5 -7t69.5 -7l58 -6l58 -6q-60 149 -127 292.5t-137 287.5q-38 78 -77 155t-78 155q-40 80 -80.5 159t-83.5 157q-72 21 -144 40.5
t-144 39.5zM-62 1172q-3 4 -7 10t-1 12l82 155q3 5 6 10.5t6 11.5q3 5 9.5 7t12.5 2q17 0 38.5 -10t32.5 -23q4 -5 7.5 -11t0.5 -11q-22 -38 -41.5 -77.5t-40.5 -77.5l-12 -22q-3 -6 -9.5 -7.5t-12.5 -1.5q-17 0 -38.5 9.5t-32.5 23.5z" />
    <glyph glyph-name="Icircumflex" unicode="&#xce;" horiz-adv-x="520" 
d="M-259 974q-8 2 -10 8.5t0 14t5.5 15t6.5 11.5q5 9 12.5 17.5t16.5 13.5q4 2 11 6.5t13 4.5q2 0 2.5 -0.5t1.5 -0.5q13 -4 25.5 -7t25.5 -6q66 -16 129.5 -34.5t128.5 -37.5q72 -21 143.5 -43.5t143.5 -46.5q8 -3 9.5 -9t0 -13.5t-5 -14.5t-6.5 -12q-5 -8 -13.5 -16
t-16.5 -15q-3 -2 -10 -6.5t-13 -4.5q-2 0 -25 7.5t-50.5 16t-51.5 16.5t-29 10q-9 4 -17 5q115 -220 224 -440t211 -446q32 -72 63 -144.5t58 -147.5q66 -8 132.5 -17t132.5 -17q9 -1 10.5 -7.5t0 -14.5t-5.5 -15.5t-6 -11.5q-3 -6 -9.5 -13t-14 -13t-16 -10.5t-15.5 -4.5
h-2q-35 4 -69.5 8.5t-69.5 9.5q-124 16 -246.5 30t-247.5 25q-9 1 -10.5 7.5t0.5 14.5t6 16t6 11q8 12 23.5 26.5t31.5 14.5h2q35 -4 69.5 -7t69.5 -7l58 -6l58 -6q-60 149 -127 292.5t-137 287.5q-38 78 -77 155t-78 155q-40 80 -80.5 159t-83.5 157q-72 21 -144 40.5
t-144 39.5zM-153 1347q-2 5 0.5 14.5t4.5 14.5q3 8 10 17t16 17t18.5 13.5t17.5 5.5q9 0 33.5 -9t53 -21t54 -24t35.5 -17q36 -20 69 -48.5t47 -68.5q2 -7 0 -15t-5 -14q-3 -7 -10 -16t-15.5 -17.5t-18 -14.5t-17.5 -6q-11 2 -13 9q-7 21 -22 39t-34.5 33t-41 27.5
t-39.5 21.5l33 -66q3 -7 -0.5 -15.5t-5.5 -13.5q-3 -7 -9.5 -16.5t-14.5 -17.5t-17.5 -13.5t-18.5 -5.5t-13 8q-25 50 -49 99t-48 100z" />
    <glyph glyph-name="Idieresis" unicode="&#xcf;" horiz-adv-x="520" 
d="M-259 974q-8 2 -10 8.5t0 14t5.5 15t6.5 11.5q5 9 12.5 17.5t16.5 13.5q4 2 11 6.5t13 4.5q2 0 2.5 -0.5t1.5 -0.5q13 -4 25.5 -7t25.5 -6q66 -16 129.5 -34.5t128.5 -37.5q72 -21 143.5 -43.5t143.5 -46.5q8 -3 9.5 -9t0 -13.5t-5 -14.5t-6.5 -12q-5 -8 -13.5 -16
t-16.5 -15q-3 -2 -10 -6.5t-13 -4.5q-2 0 -25 7.5t-50.5 16t-51.5 16.5t-29 10q-9 4 -17 5q115 -220 224 -440t211 -446q32 -72 63 -144.5t58 -147.5q66 -8 132.5 -17t132.5 -17q9 -1 10.5 -7.5t0 -14.5t-5.5 -15.5t-6 -11.5q-3 -6 -9.5 -13t-14 -13t-16 -10.5t-15.5 -4.5
h-2q-35 4 -69.5 8.5t-69.5 9.5q-124 16 -246.5 30t-247.5 25q-9 1 -10.5 7.5t0.5 14.5t6 16t6 11q8 12 23.5 26.5t31.5 14.5h2q35 -4 69.5 -7t69.5 -7l58 -6l58 -6q-60 149 -127 292.5t-137 287.5q-38 78 -77 155t-78 155q-40 80 -80.5 159t-83.5 157q-72 21 -144 40.5
t-144 39.5zM42 1244q-4 17 8 34.5t23 28.5q8 8 15.5 13t18.5 5q5 1 9 -1t5 -7l10 -44t10 -45q4 -17 -8 -34.5t-23 -28.5q-8 -8 -15.5 -13t-18.5 -5q-5 -1 -9 1t-5 7l-10 44t-10 45zM-86 1236q-2 9 0.5 17.5t7.5 17t11 15.5t12 13t13.5 12.5t15.5 6.5h4q12 2 14 -8
q4 -23 10 -44.5t11 -44.5q4 -17 -7.5 -34.5t-23.5 -28.5q-6 -5 -14 -11.5t-16 -6.5h-5q-5 -1 -8.5 0.5t-4.5 6.5q-5 23 -10 45z" />
    <glyph glyph-name="Ntilde" unicode="&#xd1;" horiz-adv-x="1362" 
d="M908 -150q-88 144 -174 288.5t-166 293.5q-24 -67 -68.5 -123.5t-100.5 -101.5t-120.5 -79.5t-127.5 -59.5q5 -1 10 -1t10 -1q204 -26 399.5 -95.5t370.5 -175.5q-8 14 -16.5 27.5t-16.5 27.5zM1447 57q51 -100 102 -199t111 -194q4 -6 0.5 -15t-5.5 -14q-3 -8 -10 -17
t-15.5 -17t-18 -13.5t-18.5 -5.5q-6 0 -8 2q-272 248 -523 510t-486 545q99 -193 208 -378t222 -370q41 -66 82.5 -131.5t76.5 -134.5q3 -6 -0.5 -14.5t-5.5 -14.5q-3 -8 -9.5 -17t-15.5 -17t-18.5 -13.5t-17.5 -5.5q-4 -2 -8 2q-68 66 -154 124t-182 107.5t-199.5 88.5
t-208 66t-207 41.5t-195.5 14.5q-22 0 -43 -1t-43 -1q-8 0 -12 -1h-4h-2q-5 0 -10.5 -0.5t-10.5 -1.5q-11 -1 -21.5 -2.5t-21.5 -1.5h-4q-7 0 -10.5 3.5t-4 9.5t1 12.5t4.5 11.5q3 7 9.5 15.5t14 16t16 13.5t16.5 7q86 12 168.5 30t164.5 45q5 2 8.5 3t7.5 2q3 2 9 4
q22 9 43.5 18.5t43.5 19.5q13 6 25 14t26 13q2 1 3.5 2t3.5 2l4 2q2 2 3 2.5t2 1.5q17 11 32.5 22t31.5 23l3 3q6 4 9 7q5 5 9 8.5t9 8.5q6 6 8 9h1q3 4 6.5 7.5t7.5 8.5l12 15q0 1 0.5 1t0.5 1q2 2 3 4t3 4q2 5 5 8.5t5 8.5q4 5 7.5 14t5.5 14q1 1 1 1.5t1 1.5l2 6
q3 9 5.5 18.5t4.5 18.5v3q2 6 2 9v10t1 10q1 10 0.5 19t-1.5 19v4q-1 3 -1 5.5t-1 4.5q-5 26 -14 49.5t-20 46.5q-8 15 -14 28t-13 27q-37 77 -70 155t-68 156q-3 7 -0.5 14.5t5.5 14.5q4 8 11 17t15.5 17t17.5 13.5t18 5.5q5 0 8 -3q6 -9 12.5 -17.5t12.5 -16.5
q170 -223 350 -434t374 -414q65 -68 131 -133.5t133 -132.5l21 -21q-16 31 -32 61.5t-32 61.5q-85 165 -163 330.5t-156 333.5q-25 54 -48.5 107.5t-48.5 106.5q-8 16 -15.5 31.5t-13.5 32.5q-2 6 -5 12l-6 12q-2 1 -4 5q-2 7 0.5 14.5t5.5 14.5q3 6 10 15.5t16 17.5
t18.5 14t16.5 6q2 0 4 -1t5 -3t5 -6.5t4 -7.5q2 -5 4 -9.5t4 -9.5q8 -16 15 -32t15 -33q103 -232 210.5 -459t223.5 -453zM807 1245q7 0 9.5 -5t2.5 -11q1 -8 -3.5 -17.5t-8.5 -15.5q-17 -25 -43.5 -39.5t-56.5 -14.5h-9q-34 3 -66.5 14.5t-65.5 20.5q-20 5 -39 8t-40 3h-1
q-11 0 -26 -5q-4 -2 -7.5 -3.5t-7.5 -3.5q-6 -4 -13 -4q-5 0 -10 3q-5 4 -5 11t2 12q5 19 19.5 34.5t30.5 25.5q20 12 41.5 17t44.5 4q36 -2 70 -12t68 -21q17 -5 37.5 -9.5t38.5 -4.5q2 1 7 1q1 1 2 1t3 1q5 4 12 7t14 3z" />
    <glyph glyph-name="Ograve" unicode="&#xd2;" horiz-adv-x="865" 
d="M-45 418q-17 61 -27 124.5t-8 126.5t17.5 121t53.5 109q13 29 34 50t46.5 35.5t55 21.5t59.5 7q45 0 89 -16t85.5 -42.5t80.5 -60.5t73.5 -71.5t64.5 -75t54 -70.5q55 -76 97.5 -147t76.5 -144.5t59.5 -153.5t46.5 -173q12 -55 19.5 -110.5t5.5 -111.5
q-2 -54 -19.5 -103.5t-57.5 -89.5q-37 -37 -87 -57.5t-102 -20.5q-33 0 -66 8.5t-64 23t-60 33.5t-54 39q-52 42 -102.5 96.5t-97.5 116.5t-89 130t-77 137t-62.5 137.5t-44.5 130.5zM1 722q-1 -19 1 -38t2 -38v-8q1 -4 1.5 -7t0.5 -6q0 -6 1.5 -17t4 -23t5 -23.5t3.5 -17.5
q29 -129 84 -249t128 -229q39 -58 80.5 -114t89 -106t102 -92.5t118.5 -74.5q23 -11 51 -16.5t53 -6.5q2 -1 4.5 -0.5t4.5 0.5h8h-3q17 0 42 8t39 16l1 1q2 0 2 1l2 1q4 2 7.5 5t6.5 5q4 6 5 8q2 5 3 10t3 10q2 8 2 11q1 2 1 4q2 20 3 39.5t1 39.5q0 2 -0.5 10t-1 17
t-1.5 16t-1 8v2q-5 53 -17 109.5t-28.5 113t-36 111t-40.5 102.5q-23 54 -60.5 121t-85 135.5t-103.5 134t-116 116t-121.5 81.5t-120.5 31q-2 0 -3 -0.5t-3 -0.5h-2h-3q-4 -1 -7.5 -1t-7.5 -1q-8 -11 -18 -20.5t-23 -15.5q0 -2 0.5 -7.5t1.5 -7.5q6 -46 29.5 -99.5
t58.5 -108.5t78.5 -107t90.5 -95t94.5 -72.5t89.5 -39.5q8 -2 10 -8.5t0 -14t-5.5 -15t-6.5 -11.5q-3 -5 -9.5 -12.5t-14 -14t-16 -11t-14.5 -4.5h-3q-46 13 -92.5 40.5t-90 65t-83.5 83t-73.5 93t-59.5 95t-42 89.5zM49 1206q-5 5 -5 12t2 12q2 9 9 20t16.5 21t20 16.5
t19.5 6.5q5 0 9 -3q5 -4 10 -7t10 -7l140 -105q5 -4 5 -11t-2 -12q-5 -20 -19.5 -34.5t-30.5 -25.5q-7 -5 -15 -5q-2 1 -4.5 1t-4.5 2q-5 4 -10 7.5t-10 7.5q-36 26 -70.5 52t-69.5 52z" />
    <glyph glyph-name="Oacute" unicode="&#xd3;" horiz-adv-x="865" 
d="M-45 418q-17 61 -27 124.5t-8 126.5t17.5 121t53.5 109q13 29 34 50t46.5 35.5t55 21.5t59.5 7q45 0 89 -16t85.5 -42.5t80.5 -60.5t73.5 -71.5t64.5 -75t54 -70.5q55 -76 97.5 -147t76.5 -144.5t59.5 -153.5t46.5 -173q12 -55 19.5 -110.5t5.5 -111.5
q-2 -54 -19.5 -103.5t-57.5 -89.5q-37 -37 -87 -57.5t-102 -20.5q-33 0 -66 8.5t-64 23t-60 33.5t-54 39q-52 42 -102.5 96.5t-97.5 116.5t-89 130t-77 137t-62.5 137.5t-44.5 130.5zM1 722q-1 -19 1 -38t2 -38v-8q1 -4 1.5 -7t0.5 -6q0 -6 1.5 -17t4 -23t5 -23.5t3.5 -17.5
q29 -129 84 -249t128 -229q39 -58 80.5 -114t89 -106t102 -92.5t118.5 -74.5q23 -11 51 -16.5t53 -6.5q2 -1 4.5 -0.5t4.5 0.5h8h-3q17 0 42 8t39 16l1 1q2 0 2 1l2 1q4 2 7.5 5t6.5 5q4 6 5 8q2 5 3 10t3 10q2 8 2 11q1 2 1 4q2 20 3 39.5t1 39.5q0 2 -0.5 10t-1 17
t-1.5 16t-1 8v2q-5 53 -17 109.5t-28.5 113t-36 111t-40.5 102.5q-23 54 -60.5 121t-85 135.5t-103.5 134t-116 116t-121.5 81.5t-120.5 31q-2 0 -3 -0.5t-3 -0.5h-2h-3q-4 -1 -7.5 -1t-7.5 -1q-8 -11 -18 -20.5t-23 -15.5q0 -2 0.5 -7.5t1.5 -7.5q6 -46 29.5 -99.5
t58.5 -108.5t78.5 -107t90.5 -95t94.5 -72.5t89.5 -39.5q8 -2 10 -8.5t0 -14t-5.5 -15t-6.5 -11.5q-3 -5 -9.5 -12.5t-14 -14t-16 -11t-14.5 -4.5h-3q-46 13 -92.5 40.5t-90 65t-83.5 83t-73.5 93t-59.5 95t-42 89.5zM63 1117q-3 4 -7 10t-1 12l82 155q3 5 6 10.5t6 11.5
q3 5 9.5 7t12.5 2q17 0 38.5 -10t32.5 -23q4 -5 7.5 -11t0.5 -11q-22 -38 -41.5 -77.5t-40.5 -77.5l-12 -22q-3 -6 -9.5 -7.5t-12.5 -1.5q-17 0 -38.5 10t-32.5 23z" />
    <glyph glyph-name="Ocircumflex" unicode="&#xd4;" horiz-adv-x="865" 
d="M-45 418q-17 61 -27 124.5t-8 126.5t17.5 121t53.5 109q13 29 34 50t46.5 35.5t55 21.5t59.5 7q45 0 89 -16t85.5 -42.5t80.5 -60.5t73.5 -71.5t64.5 -75t54 -70.5q55 -76 97.5 -147t76.5 -144.5t59.5 -153.5t46.5 -173q12 -55 19.5 -110.5t5.5 -111.5
q-2 -54 -19.5 -103.5t-57.5 -89.5q-37 -37 -87 -57.5t-102 -20.5q-33 0 -66 8.5t-64 23t-60 33.5t-54 39q-52 42 -102.5 96.5t-97.5 116.5t-89 130t-77 137t-62.5 137.5t-44.5 130.5zM1 722q-1 -19 1 -38t2 -38v-8q1 -4 1.5 -7t0.5 -6q0 -6 1.5 -17t4 -23t5 -23.5t3.5 -17.5
q29 -129 84 -249t128 -229q39 -58 80.5 -114t89 -106t102 -92.5t118.5 -74.5q23 -11 51 -16.5t53 -6.5q2 -1 4.5 -0.5t4.5 0.5h8h-3q17 0 42 8t39 16l1 1q2 0 2 1l2 1q4 2 7.5 5t6.5 5q4 6 5 8q2 5 3 10t3 10q2 8 2 11q1 2 1 4q2 20 3 39.5t1 39.5q0 2 -0.5 10t-1 17
t-1.5 16t-1 8v2q-5 53 -17 109.5t-28.5 113t-36 111t-40.5 102.5q-23 54 -60.5 121t-85 135.5t-103.5 134t-116 116t-121.5 81.5t-120.5 31q-2 0 -3 -0.5t-3 -0.5h-2h-3q-4 -1 -7.5 -1t-7.5 -1q-8 -11 -18 -20.5t-23 -15.5q0 -2 0.5 -7.5t1.5 -7.5q6 -46 29.5 -99.5
t58.5 -108.5t78.5 -107t90.5 -95t94.5 -72.5t89.5 -39.5q8 -2 10 -8.5t0 -14t-5.5 -15t-6.5 -11.5q-3 -5 -9.5 -12.5t-14 -14t-16 -11t-14.5 -4.5h-3q-46 13 -92.5 40.5t-90 65t-83.5 83t-73.5 93t-59.5 95t-42 89.5zM-28 1292q-2 5 0.5 14.5t4.5 14.5q3 8 10.5 17t16 17
t18 13.5t17.5 5.5q9 0 33.5 -9t53 -21t54 -24t35.5 -17q36 -20 69 -48.5t47 -68.5q2 -7 0 -15t-5 -14q-3 -7 -10 -16t-15.5 -17.5t-18 -14.5t-17.5 -6q-11 2 -13 9q-7 21 -22 39t-34.5 33t-41 27.5t-39.5 21.5l33 -66q3 -7 -0.5 -15.5t-5.5 -13.5q-3 -7 -9.5 -16.5
t-14.5 -17.5t-17.5 -13.5t-18.5 -5.5t-13 8q-25 50 -49 99t-48 100z" />
    <glyph glyph-name="Otilde" unicode="&#xd5;" horiz-adv-x="865" 
d="M-45 418q-17 61 -27 124.5t-8 126.5t17.5 121t53.5 109q13 29 34 50t46.5 35.5t55 21.5t59.5 7q45 0 89 -16t85.5 -42.5t80.5 -60.5t73.5 -71.5t64.5 -75t54 -70.5q55 -76 97.5 -147t76.5 -144.5t59.5 -153.5t46.5 -173q12 -55 19.5 -110.5t5.5 -111.5
q-2 -54 -19.5 -103.5t-57.5 -89.5q-37 -37 -87 -57.5t-102 -20.5q-33 0 -66 8.5t-64 23t-60 33.5t-54 39q-52 42 -102.5 96.5t-97.5 116.5t-89 130t-77 137t-62.5 137.5t-44.5 130.5zM1 722q-1 -19 1 -38t2 -38v-8q1 -4 1.5 -7t0.5 -6q0 -6 1.5 -17t4 -23t5 -23.5t3.5 -17.5
q29 -129 84 -249t128 -229q39 -58 80.5 -114t89 -106t102 -92.5t118.5 -74.5q23 -11 51 -16.5t53 -6.5q2 -1 4.5 -0.5t4.5 0.5h8h-3q17 0 42 8t39 16l1 1q2 0 2 1l2 1q4 2 7.5 5t6.5 5q4 6 5 8q2 5 3 10t3 10q2 8 2 11q1 2 1 4q2 20 3 39.5t1 39.5q0 2 -0.5 10t-1 17
t-1.5 16t-1 8v2q-5 53 -17 109.5t-28.5 113t-36 111t-40.5 102.5q-23 54 -60.5 121t-85 135.5t-103.5 134t-116 116t-121.5 81.5t-120.5 31q-2 0 -3 -0.5t-3 -0.5h-2h-3q-4 -1 -7.5 -1t-7.5 -1q-8 -11 -18 -20.5t-23 -15.5q0 -2 0.5 -7.5t1.5 -7.5q6 -46 29.5 -99.5
t58.5 -108.5t78.5 -107t90.5 -95t94.5 -72.5t89.5 -39.5q8 -2 10 -8.5t0 -14t-5.5 -15t-6.5 -11.5q-3 -5 -9.5 -12.5t-14 -14t-16 -11t-14.5 -4.5h-3q-46 13 -92.5 40.5t-90 65t-83.5 83t-73.5 93t-59.5 95t-42 89.5zM-55 1117q-6 4 -5.5 11t2.5 12q5 21 20 36.5t34.5 25
t41 14.5t40.5 5q36 -1 70 -11.5t68 -21.5q17 -5 37.5 -9.5t38.5 -4.5q2 1 7 1q1 1 2 1t3 1q5 4 12 7t14 3t9.5 -5t2.5 -11q0 -17 -14.5 -36t-27.5 -28q-32 -23 -71 -23h-8q-34 2 -67 14.5t-65 20.5q-20 5 -39 8t-40 3h-1h-9t-8 -2l-9 -3q-4 -2 -7.5 -3.5t-7.5 -3.5
q-8 -4 -13 -4q-6 0 -10 3z" />
    <glyph glyph-name="Odieresis" unicode="&#xd6;" horiz-adv-x="865" 
d="M-45 418q-17 61 -27 124.5t-8 126.5t17.5 121t53.5 109q13 29 34 50t46.5 35.5t55 21.5t59.5 7q45 0 89 -16t85.5 -42.5t80.5 -60.5t73.5 -71.5t64.5 -75t54 -70.5q55 -76 97.5 -147t76.5 -144.5t59.5 -153.5t46.5 -173q12 -55 19.5 -110.5t5.5 -111.5
q-2 -54 -19.5 -103.5t-57.5 -89.5q-37 -37 -87 -57.5t-102 -20.5q-33 0 -66 8.5t-64 23t-60 33.5t-54 39q-52 42 -102.5 96.5t-97.5 116.5t-89 130t-77 137t-62.5 137.5t-44.5 130.5zM1 722q-1 -19 1 -38t2 -38v-8q1 -4 1.5 -7t0.5 -6q0 -6 1.5 -17t4 -23t5 -23.5t3.5 -17.5
q29 -129 84 -249t128 -229q39 -58 80.5 -114t89 -106t102 -92.5t118.5 -74.5q23 -11 51 -16.5t53 -6.5q2 -1 4.5 -0.5t4.5 0.5h8h-3q17 0 42 8t39 16l1 1q2 0 2 1l2 1q4 2 7.5 5t6.5 5q4 6 5 8q2 5 3 10t3 10q2 8 2 11q1 2 1 4q2 20 3 39.5t1 39.5q0 2 -0.5 10t-1 17
t-1.5 16t-1 8v2q-5 53 -17 109.5t-28.5 113t-36 111t-40.5 102.5q-23 54 -60.5 121t-85 135.5t-103.5 134t-116 116t-121.5 81.5t-120.5 31q-2 0 -3 -0.5t-3 -0.5h-2h-3q-4 -1 -7.5 -1t-7.5 -1q-8 -11 -18 -20.5t-23 -15.5q0 -2 0.5 -7.5t1.5 -7.5q6 -46 29.5 -99.5
t58.5 -108.5t78.5 -107t90.5 -95t94.5 -72.5t89.5 -39.5q8 -2 10 -8.5t0 -14t-5.5 -15t-6.5 -11.5q-3 -5 -9.5 -12.5t-14 -14t-16 -11t-14.5 -4.5h-3q-46 13 -92.5 40.5t-90 65t-83.5 83t-73.5 93t-59.5 95t-42 89.5zM39 1181q-2 9 0.5 17.5t7.5 17t11 15.5t12 13t14 12.5
t16 6.5h4q4 1 8.5 -1t5.5 -7q5 -23 10 -44.5t10 -44.5q4 -17 -8 -34.5t-23 -28.5q-8 -8 -15.5 -13t-19.5 -5q-5 -1 -8.5 0.5t-4.5 6.5q-5 23 -10 45zM167 1189q-4 17 8 34.5t23 28.5q8 8 15.5 13t18.5 5q5 1 9 -1t5 -7l10 -44t10 -45q4 -17 -8 -34.5t-23 -28.5
q-8 -8 -15.5 -13t-18.5 -5q-5 -1 -9 1t-5 7l-10 44t-10 45z" />
    <glyph glyph-name="Oslash" unicode="&#xd8;" horiz-adv-x="865" 
d="M-45 418q-17 61 -27 124.5t-8 126.5q2 54 13.5 110.5t44.5 100.5q-5 8 -10 16.5t-12 18.5q-5 8 -6 17t-1 17q0 6 1.5 17t5.5 22.5t9.5 19.5t13.5 8t13 -9q11 -19 16 -27t6.5 -10.5t1 -1l-0.5 1.5q1 0 3 -3.5t10 -14.5l3.5 3.5l3.5 3.5q38 26 71.5 40t79.5 14q45 0 89 -16
t85.5 -42.5t80.5 -60.5t73.5 -71.5t64.5 -75t54 -70.5q55 -76 97.5 -147t76.5 -144.5t59.5 -153.5t46.5 -173q12 -55 19.5 -110.5t5.5 -111.5q-2 -43 -13 -83.5t-35 -75.5l31 -45q5 -8 6 -17t1 -18q0 -6 -1.5 -17t-5.5 -22t-9.5 -19t-13.5 -8q-6 0 -13 9l-53 78
q-36 -25 -75.5 -39t-84.5 -14q-33 0 -66 8.5t-64 23t-60 33.5t-54 39q-52 42 -102.5 96.5t-97.5 116.5t-89 130t-77 137t-62.5 137.5t-44.5 130.5zM1 722q-2 -19 0.5 -38t2.5 -38v-8q1 -4 1.5 -7t0.5 -6q0 -6 1.5 -17t4 -23t5 -23.5t3.5 -17.5q29 -129 84 -249t128 -229
q39 -58 80.5 -114t89 -106t102 -92.5t118.5 -74.5q23 -11 51 -16.5t53 -6.5q2 -1 4.5 -0.5t4.5 0.5h8h-3q11 0 23 2.5t23 6.5q2 1 3.5 1t3.5 1t2.5 1t2.5 1l-775 1144q-7 -14 -12.5 -35t-9.5 -56zM853 -267q1 1 1 3q2 20 3 39.5t1 39.5q0 2 -0.5 10t-1 17t-1.5 16t-1 8v2
q-5 53 -17 109.5t-28.5 113t-36 111t-40.5 102.5q-23 54 -60.5 121t-85 135.5t-103.5 134t-116 116t-121.5 81.5t-120.5 31q-2 0 -3 -0.5t-3 -0.5h-2h-3q-4 -1 -7.5 -1t-7.5 -1q-6 -9 -13.5 -17t-16.5 -13z" />
    <glyph glyph-name="OE" unicode="&#x152;" horiz-adv-x="1728" 
d="M-45 418q-17 61 -27 124.5t-8 126.5t17.5 121t53.5 109q13 29 34 50t46.5 35.5t55 21.5t59.5 7q38 0 74 -11t70 -29t64.5 -41.5t57.5 -47.5q51 -47 94 -100.5t87 -106.5q4 -5 7.5 -10t7.5 -10q-2 5 -3.5 9t-3.5 9q-15 45 -8.5 91.5t32.5 85.5q17 26 41 45.5t55 27.5
q20 5 38 5q34 -1 69.5 -9.5t70.5 -21.5t68 -30t61 -34q-51 51 -101 103t-104 99q-5 5 -5 11t2 12q2 9 9 20.5t17 21t20.5 16.5t19.5 7q5 0 8 -3q29 -29 59 -58.5t60 -58.5q99 -97 192.5 -197t167.5 -218q4 -6 0.5 -15t-5.5 -14q-3 -8 -10 -17t-15 -17t-17.5 -13.5
t-18.5 -5.5q-6 0 -9 3q-31 29 -76.5 65t-98.5 72t-111 70.5t-114 61.5t-107 43t-89 16h-4q-5 -1 -9.5 -1.5t-9.5 -1.5q-1 0 -1.5 -0.5t-1.5 -0.5q-1 -2 -1 -2.5t-1 -2.5q0 -4 -2 -8v-3q-1 -5 -1 -10v-10v-11v-3q5 -30 16.5 -59.5t32.5 -52.5q29 -31 56.5 -63.5t60.5 -59.5
q107 -90 227 -159.5t245 -130.5q26 -13 52.5 -24t52.5 -24q10 -5 25 -10q10 -4 11 -17q1 -8 -3.5 -16.5t-9.5 -15.5q-8 -12 -22.5 -27t-31.5 -15h-3q-5 2 -10 2.5t-10 2.5q-50 16 -100 26.5t-101 21.5q-62 14 -123 22.5t-124 8.5q-2 -1 -5 -1q-4 0 -13.5 -1.5t-20 -3
t-19.5 -4.5t-12 -6q8 -27 15 -53.5t13 -53.5q31 -59 84.5 -123.5t118 -122t133.5 -102t132 -63.5q40 -12 80 -22.5t81 -10.5h13h3q4 1 11 1q12 0 25.5 3.5t24.5 7.5q2 1 4 1.5t3 1.5q11 5 22 8t19 11q2 2 6 4q6 4 10 6q5 3 10 7l10 8l1 1q1 0 2 1q0 1 0.5 1t0.5 1q4 2 10 8
l6 7q1 1 1.5 1t1.5 1q2 2 4 5t4 5q4 5 7 9.5t6 9.5q2 3 2.5 5.5t2.5 4.5q2 3 2.5 6t2.5 6q0 1 0.5 1t0.5 1q8 21 12 42v2q1 1 1.5 6t0.5 7q0 6 1 12t1 11v47q0 7 -1 11v2v4q-5 37 -15 69q-13 39 -32 82.5t-44 84t-57 74.5t-70 53q-6 3 -5 11t2 13q2 8 9 19t16 21t19.5 17
t18.5 7q3 -1 6 -1t5 -2q28 -14 53.5 -37.5t47.5 -51.5t40 -58t31 -57q30 -60 46 -126.5t10 -134.5q-6 -69 -38.5 -132t-83 -111.5t-115 -77.5t-134.5 -29q-45 0 -96 13t-102 35.5t-101.5 53t-95.5 64.5t-82.5 70t-63.5 71q-2 -57 -19 -108t-59 -93q-37 -37 -87 -57.5
t-102 -20.5q-33 0 -66 8.5t-64 23t-60 33.5t-54 39q-52 42 -102.5 96.5t-97.5 116.5t-89 130t-77 137t-62.5 137.5t-44.5 130.5zM1 722q-1 -19 1 -38t2 -38v-8q1 -4 1.5 -7t0.5 -6q0 -6 1.5 -17t4 -23t5 -23.5t3.5 -17.5q29 -129 84 -249t128 -229q39 -58 80.5 -114t89 -106
t102 -92.5t118.5 -74.5q23 -11 51 -16.5t53 -6.5q2 -1 4.5 -0.5t4.5 0.5h8h-3q17 0 42 8t39 16l1 1q2 0 2 1l2 1q4 2 7.5 5t6.5 5q4 6 5 8q2 5 3 10t3 10q2 8 2 11q1 2 1 4q2 20 3 39.5t1 39.5q0 2 -0.5 10t-1 17t-1.5 16t-1 8v2q-3 33 -9 66t-14 65q-4 8 -7.5 17t-7.5 17
q-8 18 -12 39t-3 41q-31 99 -69 191q-23 54 -60.5 121t-85 135.5t-103.5 134t-116 116t-121.5 81.5t-120.5 31q-2 0 -3 -0.5t-3 -0.5h-2h-3q-4 -1 -7.5 -1t-7.5 -1q-8 -11 -18 -20.5t-23 -15.5q0 -2 0.5 -7.5t1.5 -7.5q6 -46 29.5 -99.5t58.5 -108.5t78.5 -107t90.5 -95
t94.5 -72.5t89.5 -39.5q8 -2 10 -8.5t0 -14t-5.5 -15t-6.5 -11.5q-3 -5 -9.5 -12.5t-14 -14t-16 -11t-14.5 -4.5h-3q-46 13 -92.5 40.5t-90 65t-83.5 83t-73.5 93t-59.5 95t-42 89.5zM723 545q46 -75 79 -151.5t62 -158.5q38 33 78 41t88 9q11 1 21 0.5t20 -1.5
q-42 24 -82 49t-79 53q-45 32 -85.5 68t-82.5 71q-5 5 -9.5 10t-9.5 10z" />
    <glyph glyph-name="Scaron" unicode="&#x160;" horiz-adv-x="1540" 
d="M-64 685q-17 11 -32 26t-12 38q5 32 26 59t47 44q25 16 57 26t65.5 15.5t67 7.5t62.5 2q166 0 332.5 -37t318.5 -100q-47 51 -95 100t-93 102q-5 5 -5 11.5t2 12.5q2 9 9 20t16.5 21t20.5 16.5t20 6.5q5 0 8 -3q21 -25 43.5 -48t44.5 -46q78 -85 157.5 -166.5
t154.5 -168.5q5 -5 5 -11.5t-2 -12.5q-2 -8 -9 -19t-16.5 -21t-19.5 -17t-19 -7q-5 0 -10 3q-59 36 -119 69.5t-125 56.5q-90 33 -172.5 60t-165.5 46.5t-169.5 30t-184.5 10.5h-16q-2 1 -4.5 0.5t-4.5 -0.5l-13 -1h-2h-2h-2q-11 -2 -21 -2.5t-21 -2.5q-39 -5 -73 -15l-4 -2
q2 -1 5 -4q22 -21 51.5 -34t57.5 -25l-6 3q21 -9 41.5 -17t42.5 -16q55 -20 110 -39.5t111 -38.5q138 -47 274 -94t273 -100q68 -26 156.5 -62t182 -81t184.5 -99t163.5 -116t119.5 -132.5t52 -148.5q2 -22 -5.5 -42.5t-18.5 -38.5q-33 -53 -92.5 -82t-128.5 -43.5
t-139.5 -17.5t-124.5 -3q-66 0 -132 3q-72 4 -143 11.5t-143 18.5q-38 6 -91.5 15.5t-114.5 22.5t-126.5 30.5t-128.5 39.5t-120.5 48t-102.5 56.5t-74.5 65t-35.5 74.5q-6 34 2.5 67t26.5 62t43 53t53 41q66 41 142 60.5t152 28.5q47 5 93 8t94 3q63 0 129 -5t131.5 -15
t129 -25.5t122.5 -37.5q10 -4 10 -16q0 -18 -14 -36t-28 -28q-3 -2 -10.5 -6.5t-13.5 -4.5q-1 0 -1.5 0.5t-1.5 0.5q-121 49 -253 65.5t-261 16.5q-52 0 -105 -3h-4l-26 -2q-59 -5 -116 -15.5t-112 -30.5q-4 -2 -6 -2q-8 -4 -13 -6t-13.5 -6t-17.5 -8.5t-16.5 -9t-10.5 -7.5
q-2 -2 -3 -2.5t-3 -2.5l-2 -2l-6 -6l-4 -4l-4 -8l-3 -9q0 -3 -1 -4q0 -5 -1 -8q-1 -5 -0.5 -9.5t0.5 -9.5q0 -2 0.5 -3t0.5 -3q5 -23 17.5 -43t29.5 -36q39 -37 87 -65t99.5 -50t105 -39t104.5 -31q146 -41 300 -66t305 -32q48 -2 95 -2.5t95 -0.5q11 0 22 -0.5t22 1.5
q5 1 11 1h11q23 0 55 3.5t65.5 10t64 15t51.5 18.5q8 4 11 6q1 1 1.5 1t1.5 1q3 1 7 5q0 1 1 2v9q0 3 -0.5 6.5t-0.5 6.5v2q0 34 -14.5 63t-32.5 57q-39 61 -105.5 117.5t-149 108t-175.5 97t-184.5 84.5t-176 71t-150.5 55q-121 43 -241 84.5t-241 83.5q-47 16 -93 33
t-91 34q-33 13 -65.5 27t-62.5 33zM195 1316q-2 7 0.5 14.5l4.5 13.5q3 8 10 17t15.5 17.5t18 14t18.5 5.5t12 -9q8 -21 23.5 -39t34.5 -33t39.5 -27.5t39.5 -21.5l-32 67q-3 6 0 14.5t5 14.5q3 7 9.5 16t15.5 17.5t18.5 14t16.5 5.5q9 0 13 -9q3 -6 6.5 -12t6.5 -13
q20 -45 41 -87l43 -86q3 -6 0 -15t-5 -14q-3 -7 -10 -16.5t-15.5 -17.5t-17.5 -13.5t-17 -5.5h-4q-8 2 -15.5 4.5t-15.5 4.5q-32 9 -72 25.5t-77.5 39.5t-67.5 52t-42 62z" />
    <glyph glyph-name="Ugrave" unicode="&#xd9;" horiz-adv-x="1573" 
d="M-420 232h-3q-16 0 -15 13t6 24q8 17 22.5 32.5t32.5 20.5q58 17 117 26.5t119 14.5q5 2 10 3.5t10 3.5q6 2 7 3q2 1 6 2t6 2q20 8 39 17.5t38 20.5q-2 0 -2 -0.5t-1 -0.5v-1q1 0 8 4.5t15.5 10.5t15.5 11.5t8 6.5q10 8 21 16.5t18 19.5q1 0 1 0.5t1 0.5q5 5 9 11t9 11
q6 6 8 10t6.5 11t9.5 14t9.5 13.5t7.5 10.5q2 3 4.5 6.5t4.5 7.5t3 5q11 19 22 41t18 43q2 6 4.5 12t5.5 12q0 -1 -0.5 -1t-0.5 -1q1 1 1 4q32 80 51 164t34 169q2 8 9 19t16.5 21t20 17t19.5 7q10 0 13 -9q26 -72 61.5 -166t78.5 -199.5t93 -218t106 -222.5t116.5 -212.5
t125 -188t132.5 -149t137 -95.5q2 -1 3 -1l4 -2q23 -8 44 -13.5t45 -5.5h18h4q4 0 6 1q17 2 32 6q2 0 3 0.5t2 0.5q4 3 8 4q1 0 1 0.5t1 0.5q2 1 2.5 1.5t2.5 1.5q1 2 3 4t5 8l4 8q2 3 2.5 6.5t2.5 6.5l-4 -8l2 4t2 3.5t1 3.5q5 11 7.5 22.5t4.5 22.5q0 4 1 5q5 26 7 54
t2 54q0 48 -1 94.5t-8 93.5v5q-1 1 -1 3t-0.5 4t-0.5 4q0 11 -1.5 23t-3.5 23q-15 117 -39 231.5t-52 228.5q-18 73 -38.5 145t-40.5 146q-8 29 -17 59t-18 59q-5 17 7 35t23 28q5 5 16 12t21 7q8 2 11 -8q1 -2 1 -4q12 -35 23 -70.5t22 -70.5q25 -78 52 -154.5t56 -152.5
q36 -97 73 -192t79 -189q42 -95 85 -187.5t96 -181.5q12 -20 23 -40.5t25 -38.5q2 -3 3.5 -6t3.5 -5q7 -12 15 -22q7 -9 12.5 -18t11.5 -17q23 -31 46.5 -60.5t52.5 -54.5q5 -5 5 -11.5t-2 -12.5q-2 -9 -9 -20t-16.5 -20.5t-20.5 -16.5t-20 -7q-5 0 -8 3q-38 33 -77 84
t-77 111t-74.5 126.5t-68.5 131.5t-58.5 125t-45.5 107q-4 10 -6 14q2 -8 3 -16.5t2 -16.5q8 -83 15 -167.5t-4 -168.5q-7 -52 -23.5 -101.5t-45.5 -88.5t-71.5 -62t-101.5 -23q-60 0 -114.5 24.5t-103.5 63t-90.5 85t-75.5 90.5q-45 60 -92 116.5t-101 107.5
q-157 147 -346.5 210.5t-404.5 63.5q-26 0 -51 -1t-51 -3q-57 -17 -115.5 -27t-117.5 -15zM21 380q-4 -3 -7.5 -6t-8.5 -6q77 -1 157 -12.5t159 -33t152.5 -54.5t136.5 -77q-6 13 -12.5 25.5t-12.5 25.5q-76 161 -145 323t-132 330q-17 -69 -43 -141t-61 -140t-80.5 -128
t-102.5 -106zM660 1286q-5 5 -5 12t2 12q2 9 9 20t16.5 21t20 16.5t19.5 6.5q5 0 9 -3q5 -4 10 -7t10 -7l140 -105q5 -4 5 -11t-2 -12q-5 -20 -19.5 -34.5t-30.5 -25.5q-7 -5 -15 -5q-2 1 -4.5 1t-4.5 2q-5 4 -10 7.5t-10 7.5q-36 26 -70.5 52t-69.5 52z" />
    <glyph glyph-name="Uacute" unicode="&#xda;" horiz-adv-x="1573" 
d="M-420 232h-3q-16 0 -15 13t6 24q8 17 22.5 32.5t32.5 20.5q58 17 117 26.5t119 14.5q5 2 10 3.5t10 3.5q6 2 7 3q2 1 6 2t6 2q20 8 39 17.5t38 20.5q-2 0 -2 -0.5t-1 -0.5v-1q1 0 8 4.5t15.5 10.5t15.5 11.5t8 6.5q10 8 21 16.5t18 19.5q1 0 1 0.5t1 0.5q5 5 9 11t9 11
q6 6 8 10t6.5 11t9.5 14t9.5 13.5t7.5 10.5q2 3 4.5 6.5t4.5 7.5t3 5q11 19 22 41t18 43q2 6 4.5 12t5.5 12q0 -1 -0.5 -1t-0.5 -1q1 1 1 4q32 80 51 164t34 169q2 8 9 19t16.5 21t20 17t19.5 7q10 0 13 -9q26 -72 61.5 -166t78.5 -199.5t93 -218t106 -222.5t116.5 -212.5
t125 -188t132.5 -149t137 -95.5q2 -1 3 -1l4 -2q23 -8 44 -13.5t45 -5.5h18h4q4 0 6 1q17 2 32 6q2 0 3 0.5t2 0.5q4 3 8 4q1 0 1 0.5t1 0.5q2 1 2.5 1.5t2.5 1.5q1 2 3 4t5 8l4 8q2 3 2.5 6.5t2.5 6.5l-4 -8l2 4t2 3.5t1 3.5q5 11 7.5 22.5t4.5 22.5q0 4 1 5q5 26 7 54
t2 54q0 48 -1 94.5t-8 93.5v5q-1 1 -1 3t-0.5 4t-0.5 4q0 11 -1.5 23t-3.5 23q-15 117 -39 231.5t-52 228.5q-18 73 -38.5 145t-40.5 146q-8 29 -17 59t-18 59q-5 17 7 35t23 28q5 5 16 12t21 7q8 2 11 -8q1 -2 1 -4q12 -35 23 -70.5t22 -70.5q25 -78 52 -154.5t56 -152.5
q36 -97 73 -192t79 -189q42 -95 85 -187.5t96 -181.5q12 -20 23 -40.5t25 -38.5q2 -3 3.5 -6t3.5 -5q7 -12 15 -22q7 -9 12.5 -18t11.5 -17q23 -31 46.5 -60.5t52.5 -54.5q5 -5 5 -11.5t-2 -12.5q-2 -9 -9 -20t-16.5 -20.5t-20.5 -16.5t-20 -7q-5 0 -8 3q-38 33 -77 84
t-77 111t-74.5 126.5t-68.5 131.5t-58.5 125t-45.5 107q-4 10 -6 14q2 -8 3 -16.5t2 -16.5q8 -83 15 -167.5t-4 -168.5q-7 -52 -23.5 -101.5t-45.5 -88.5t-71.5 -62t-101.5 -23q-60 0 -114.5 24.5t-103.5 63t-90.5 85t-75.5 90.5q-45 60 -92 116.5t-101 107.5
q-157 147 -346.5 210.5t-404.5 63.5q-26 0 -51 -1t-51 -3q-57 -17 -115.5 -27t-117.5 -15zM21 380q-4 -3 -7.5 -6t-8.5 -6q77 -1 157 -12.5t159 -33t152.5 -54.5t136.5 -77q-6 13 -12.5 25.5t-12.5 25.5q-76 161 -145 323t-132 330q-17 -69 -43 -141t-61 -140t-80.5 -128
t-102.5 -106zM674 1197q-3 4 -7 10t-1 12l82 155q3 5 6 10.5t6 11.5q3 5 9.5 7t12.5 2q17 0 38.5 -10t32.5 -23q4 -5 7.5 -11t0.5 -11q-22 -38 -41.5 -77.5t-40.5 -77.5l-12 -22q-3 -6 -9.5 -7.5t-12.5 -1.5q-17 0 -38.5 10t-32.5 23z" />
    <glyph glyph-name="Ucircumflex" unicode="&#xdb;" horiz-adv-x="1573" 
d="M-420 232h-3q-16 0 -15 13t6 24q8 17 22.5 32.5t32.5 20.5q58 17 117 26.5t119 14.5q5 2 10 3.5t10 3.5q6 2 7 3q2 1 6 2t6 2q20 8 39 17.5t38 20.5q-2 0 -2 -0.5t-1 -0.5v-1q1 0 8 4.5t15.5 10.5t15.5 11.5t8 6.5q10 8 21 16.5t18 19.5q1 0 1 0.5t1 0.5q5 5 9 11t9 11
q6 6 8 10t6.5 11t9.5 14t9.5 13.5t7.5 10.5q2 3 4.5 6.5t4.5 7.5t3 5q11 19 22 41t18 43q2 6 4.5 12t5.5 12q0 -1 -0.5 -1t-0.5 -1q1 1 1 4q32 80 51 164t34 169q2 8 9 19t16.5 21t20 17t19.5 7q10 0 13 -9q26 -72 61.5 -166t78.5 -199.5t93 -218t106 -222.5t116.5 -212.5
t125 -188t132.5 -149t137 -95.5q2 -1 3 -1l4 -2q23 -8 44 -13.5t45 -5.5h18h4q4 0 6 1q17 2 32 6q2 0 3 0.5t2 0.5q4 3 8 4q1 0 1 0.5t1 0.5q2 1 2.5 1.5t2.5 1.5q1 2 3 4t5 8l4 8q2 3 2.5 6.5t2.5 6.5l-4 -8l2 4t2 3.5t1 3.5q5 11 7.5 22.5t4.5 22.5q0 4 1 5q5 26 7 54
t2 54q0 48 -1 94.5t-8 93.5v5q-1 1 -1 3t-0.5 4t-0.5 4q0 11 -1.5 23t-3.5 23q-15 117 -39 231.5t-52 228.5q-18 73 -38.5 145t-40.5 146q-8 29 -17 59t-18 59q-5 17 7 35t23 28q5 5 16 12t21 7q8 2 11 -8q1 -2 1 -4q12 -35 23 -70.5t22 -70.5q25 -78 52 -154.5t56 -152.5
q36 -97 73 -192t79 -189q42 -95 85 -187.5t96 -181.5q12 -20 23 -40.5t25 -38.5q2 -3 3.5 -6t3.5 -5q7 -12 15 -22q7 -9 12.5 -18t11.5 -17q23 -31 46.5 -60.5t52.5 -54.5q5 -5 5 -11.5t-2 -12.5q-2 -9 -9 -20t-16.5 -20.5t-20.5 -16.5t-20 -7q-5 0 -8 3q-38 33 -77 84
t-77 111t-74.5 126.5t-68.5 131.5t-58.5 125t-45.5 107q-4 10 -6 14q2 -8 3 -16.5t2 -16.5q8 -83 15 -167.5t-4 -168.5q-7 -52 -23.5 -101.5t-45.5 -88.5t-71.5 -62t-101.5 -23q-60 0 -114.5 24.5t-103.5 63t-90.5 85t-75.5 90.5q-45 60 -92 116.5t-101 107.5
q-157 147 -346.5 210.5t-404.5 63.5q-26 0 -51 -1t-51 -3q-57 -17 -115.5 -27t-117.5 -15zM5 368q77 -1 157 -12.5t159 -33t152.5 -54.5t136.5 -77q-6 13 -12.5 25.5t-12.5 25.5q-76 161 -145 323t-132 330q-17 -69 -43 -141.5t-61 -140t-80.5 -128t-102.5 -105.5
q-4 -3 -7.5 -6t-8.5 -6zM583 1372q-2 5 0.5 14.5t4.5 14.5q3 8 10.5 17t16 17t18 13.5t17.5 5.5q9 0 33.5 -9t53 -21t54 -24t35.5 -17q36 -20 69 -48.5t47 -68.5q2 -7 0 -15t-5 -14q-3 -7 -10 -16t-15.5 -17.5t-18 -14.5t-17.5 -6q-11 2 -13 9q-7 21 -22 39t-34.5 33
t-41 27.5t-39.5 21.5l33 -66q3 -7 -0.5 -15.5t-5.5 -13.5q-3 -7 -9.5 -16.5t-14.5 -17.5t-17.5 -13.5t-18.5 -5.5t-13 8q-25 50 -49 99t-48 100z" />
    <glyph glyph-name="Udieresis" unicode="&#xdc;" horiz-adv-x="1573" 
d="M-420 232h-3q-16 0 -15 13t6 24q8 17 22.5 32.5t32.5 20.5q58 17 117 26.5t119 14.5q5 2 10 3.5t10 3.5q6 2 7 3q2 1 6 2t6 2q20 8 39 17.5t38 20.5q-2 0 -2 -0.5t-1 -0.5v-1q1 0 8 4.5t15.5 10.5t15.5 11.5t8 6.5q10 8 21 16.5t18 19.5q1 0 1 0.5t1 0.5q5 5 9 11t9 11
q6 6 8 10t6.5 11t9.5 14t9.5 13.5t7.5 10.5q2 3 4.5 6.5t4.5 7.5t3 5q11 19 22 41t18 43q2 6 4.5 12t5.5 12q0 -1 -0.5 -1t-0.5 -1q1 1 1 4q32 80 51 164t34 169q2 8 9 19t16.5 21t20 17t19.5 7q10 0 13 -9q26 -72 61.5 -166t78.5 -199.5t93 -218t106 -222.5t116.5 -212.5
t125 -188t132.5 -149t137 -95.5q2 -1 3 -1l4 -2q23 -8 44 -13.5t45 -5.5h18h4q4 0 6 1q17 2 32 6q2 0 3 0.5t2 0.5q4 3 8 4q1 0 1 0.5t1 0.5q2 1 2.5 1.5t2.5 1.5q1 2 3 4t5 8l4 8q2 3 2.5 6.5t2.5 6.5l-4 -8l2 4t2 3.5t1 3.5q5 11 7.5 22.5t4.5 22.5q0 4 1 5q5 26 7 54
t2 54q0 48 -1 94.5t-8 93.5v5q-1 1 -1 3t-0.5 4t-0.5 4q0 11 -1.5 23t-3.5 23q-15 117 -39 231.5t-52 228.5q-18 73 -38.5 145t-40.5 146q-8 29 -17 59t-18 59q-5 17 7 35t23 28q5 5 16 12t21 7q8 2 11 -8q1 -2 1 -4q12 -35 23 -70.5t22 -70.5q25 -78 52 -154.5t56 -152.5
q36 -97 73 -192t79 -189q42 -95 85 -187.5t96 -181.5q12 -20 23 -40.5t25 -38.5q2 -3 3.5 -6t3.5 -5q7 -12 15 -22q7 -9 12.5 -18t11.5 -17q23 -31 46.5 -60.5t52.5 -54.5q5 -5 5 -11.5t-2 -12.5q-2 -9 -9 -20t-16.5 -20.5t-20.5 -16.5t-20 -7q-5 0 -8 3q-38 33 -77 84
t-77 111t-74.5 126.5t-68.5 131.5t-58.5 125t-45.5 107q-4 10 -6 14q2 -8 3 -16.5t2 -16.5q8 -83 15 -167.5t-4 -168.5q-7 -52 -23.5 -101.5t-45.5 -88.5t-71.5 -62t-101.5 -23q-60 0 -114.5 24.5t-103.5 63t-90.5 85t-75.5 90.5q-45 60 -92 116.5t-101 107.5
q-157 147 -346.5 210.5t-404.5 63.5q-26 0 -51 -1t-51 -3q-57 -17 -115.5 -27t-117.5 -15zM21 380q-4 -3 -7.5 -6t-8.5 -6q77 -1 157 -12.5t159 -33t152.5 -54.5t136.5 -77q-6 13 -12.5 25.5t-12.5 25.5q-76 161 -145 323t-132 330q-17 -69 -43 -141t-61 -140t-80.5 -128
t-102.5 -106zM650 1261q-2 9 0.5 17.5t7.5 17t11 15.5t12 13t14 12.5t16 6.5h4q4 1 8.5 -1t5.5 -7q5 -23 10 -44.5t10 -44.5q4 -17 -8 -34.5t-23 -28.5q-8 -8 -15.5 -13t-19.5 -5q-5 -1 -8.5 0.5t-4.5 6.5q-5 23 -10 45zM778 1269q-4 17 8 34.5t23 28.5q8 8 15.5 13t18.5 5
q5 1 9 -1t5 -7l10 -44t10 -45q4 -17 -8 -34.5t-23 -28.5q-8 -8 -15.5 -13t-18.5 -5q-5 -1 -9 1t-5 7l-10 44t-10 45z" />
    <glyph glyph-name="Ydieresis" unicode="&#x178;" horiz-adv-x="1695" 
d="M-282 424q-8 0 -10 5.5t-1 13t4 14.5t5 10q3 6 9.5 13.5t14 14.5t15 12t14.5 6q16 2 31.5 3.5t32.5 1.5q29 0 58 8.5t56 18.5q2 0 2.5 0.5t1.5 0.5q2 1 3.5 1.5t3.5 1.5q13 5 25 10.5t24 11.5q5 2 9 5t9 5q2 1 3.5 2t3.5 2q14 9 28.5 19t25.5 21q4 4 6.5 8.5t7.5 6.5
q2 1 9 10t9 11l3 3l-4 -4l2 2q1 1 1.5 2t2.5 3q6 8 11 17l5 9q11 17 19 39l2 4l3 9q8 24 13 46q2 8 2 11q1 2 1 5q10 58 7 114t-14 113q-3 17 6 32t20 26q8 9 18.5 16.5t22.5 7.5q5 0 8 -3q28 -38 54.5 -77.5t52.5 -79.5q61 -94 122.5 -187t127 -183.5t135 -177.5
t146.5 -169q4 -2 5 -5q41 -43 82.5 -84t86.5 -81q3 31 6.5 61t5.5 61q9 114 14.5 228t4.5 228.5t-9 228.5t-27 227q-3 18 7.5 35t23.5 28q6 5 14 11.5t16 6.5h4q5 1 9.5 -1t4.5 -7q0 -2 0.5 -3t0.5 -3q0 -35 14 -68t26 -65q23 -64 49 -126.5t56 -123.5q82 -164 187 -317
t228 -292.5t261.5 -264t286.5 -230.5q5 -4 5 -11t-2 -12q-2 -9 -9 -20t-16 -20.5t-19.5 -16.5t-19.5 -7q-5 0 -10 3q-98 61 -192.5 111t-192 85t-201.5 54t-222 19q-100 0 -201 -14.5t-199 -43t-191.5 -69.5t-178.5 -93l-5 -2q-2 -1 -4.5 -2.5t-1.5 -1.5q-5 -3 -9 -6t-9 -5
q-40 -20 -74.5 -46.5t-69.5 -55.5q-11 -9 -25 -9q-13 0 -13 16q1 19 14.5 35.5t27.5 27.5q111 82 227 148.5t239 113.5t254 72t272 25q101 0 200.5 -15t196.5 -47q-37 35 -72.5 71t-70.5 74q-82 89 -150.5 174.5t-128 174.5t-113.5 184t-108 203q6 -195 -7 -388t-39 -386
q-1 -9 -7.5 -22t-16 -24.5t-20.5 -19.5t-22 -8q-5 0 -23.5 14.5t-43.5 37t-53.5 50t-54 52.5t-44.5 45t-26 27q-102 69 -216.5 121t-235.5 86t-246 51t-247 17q-20 0 -39.5 -0.5t-39.5 -1.5q-18 -2 -36 -3t-35 -1zM30 517h2q152 -10 299.5 -43.5t287.5 -90.5
q-60 76 -115.5 155t-109.5 160q-33 51 -65.5 100.5t-64.5 100.5q-5 -59 -23.5 -113.5t-49 -103.5t-71 -90.5t-90.5 -74.5zM527 1356q-2 9 0.5 17.5t7.5 17t11 15.5t12 13t14 12.5t16 6.5h4q4 1 8.5 -1t5.5 -7q5 -23 10 -44.5t10 -44.5q4 -17 -8 -34.5t-23 -28.5
q-8 -8 -15.5 -13t-19.5 -5q-5 -1 -8.5 0.5t-4.5 6.5q-5 23 -10 45zM655 1364q-4 17 8 34.5t23 28.5q8 8 15.5 13t18.5 5q5 1 9 -1t5 -7l10 -44t10 -45q4 -17 -8 -34.5t-23 -28.5q-8 -8 -15.5 -13t-18.5 -5q-5 -1 -9 1t-5 7l-10 44t-10 45z" />
    <glyph glyph-name="Yacute" unicode="&#xdd;" horiz-adv-x="1695" 
d="M-282 424q-8 0 -10 5.5t-1 13t4 14.5t5 10q3 6 9.5 13.5t14 14.5t15 12t14.5 6q16 2 31.5 3.5t32.5 1.5q29 0 58 8.5t56 18.5q2 0 2.5 0.5t1.5 0.5q2 1 3.5 1.5t3.5 1.5q13 5 25 10.5t24 11.5q5 2 9 5t9 5q2 1 3.5 2t3.5 2q14 9 28.5 19t25.5 21q4 4 6.5 8.5t7.5 6.5
q2 1 9 10t9 11l3 3l-4 -4l2 2q1 1 1.5 2t2.5 3q6 8 11 17l5 9q11 17 19 39l2 4l3 9q8 24 13 46q2 8 2 11q1 2 1 5q10 58 7 114t-14 113q-3 17 6 32t20 26q8 9 18.5 16.5t22.5 7.5q5 0 8 -3q28 -38 54.5 -77.5t52.5 -79.5q61 -94 122.5 -187t127 -183.5t135 -177.5
t146.5 -169q4 -2 5 -5q41 -43 82.5 -84t86.5 -81q3 31 6.5 61t5.5 61q9 114 14.5 228t4.5 228.5t-9 228.5t-27 227q-3 18 7.5 35t23.5 28q6 5 14 11.5t16 6.5h4q5 1 9.5 -1t4.5 -7q0 -2 0.5 -3t0.5 -3q0 -35 14 -68t26 -65q23 -64 49 -126.5t56 -123.5q82 -164 187 -317
t228 -292.5t261.5 -264t286.5 -230.5q5 -4 5 -11t-2 -12q-2 -9 -9 -20t-16 -20.5t-19.5 -16.5t-19.5 -7q-5 0 -10 3q-98 61 -192.5 111t-192 85t-201.5 54t-222 19q-100 0 -201 -14.5t-199 -43t-191.5 -69.5t-178.5 -93l-5 -2q-2 -1 -4.5 -2.5t-1.5 -1.5q-5 -3 -9 -6t-9 -5
q-40 -20 -74.5 -46.5t-69.5 -55.5q-11 -9 -25 -9q-13 0 -13 16q1 19 14.5 35.5t27.5 27.5q111 82 227 148.5t239 113.5t254 72t272 25q101 0 200.5 -15t196.5 -47q-37 35 -72.5 71t-70.5 74q-82 89 -150.5 174.5t-128 174.5t-113.5 184t-108 203q6 -195 -7 -388t-39 -386
q-1 -9 -7.5 -22t-16 -24.5t-20.5 -19.5t-22 -8q-5 0 -23.5 14.5t-43.5 37t-53.5 50t-54 52.5t-44.5 45t-26 27q-102 69 -216.5 121t-235.5 86t-246 51t-247 17q-20 0 -39.5 -0.5t-39.5 -1.5q-18 -2 -36 -3t-35 -1zM30 517h2q152 -10 299.5 -43.5t287.5 -90.5
q-60 76 -115.5 155t-109.5 160q-33 51 -65.5 100.5t-64.5 100.5q-5 -59 -23.5 -113.5t-49 -103.5t-71 -90.5t-90.5 -74.5zM551 1292q-3 4 -7 10t-1 12l82 155q3 5 6 10.5t6 11.5q3 5 9.5 7t12.5 2q17 0 38.5 -10t32.5 -23q4 -5 7.5 -11t0.5 -11q-22 -38 -41.5 -77.5
t-40.5 -77.5l-12 -22q-3 -6 -9.5 -7.5t-12.5 -1.5q-17 0 -38.5 10t-32.5 23z" />
    <glyph glyph-name="Zcaron" unicode="&#x17d;" horiz-adv-x="1155" 
d="M1814 -466q5 -6 4.5 -14t-4 -16.5t-8.5 -15.5t-9 -12q-8 -10 -19.5 -19.5t-24.5 -9.5q-4 0 -10 2q-9 4 -17.5 8t-17.5 8q-271 122 -556 204.5t-582 112.5q-35 4 -71 6t-72 2q-130 -1 -254 -37q-5 -2 -11 -3.5t-11 -3.5q-1 -1 -3 -1q-3 -2 -9 -4q-19 -8 -37 -17l-36 -18
q-2 -1 -3.5 -2t-3.5 -2q-10 -6 -20.5 -13.5t-19.5 -15.5q-3 -2 -8 -6.5t-7 -6.5l-9 -9q-1 0 -1 -0.5t-1 -0.5q-1 -2 -1.5 -2.5t-1.5 -2.5l-9 -21l-1 -1v-2q-1 -1 -1 -1.5t-1 -1.5q0 -2 -1 -3q-3 -8 -6 -17t-6 -17q-3 -9 -10 -20.5t-16 -21t-19.5 -16.5t-21.5 -7q-10 2 -11 9
q-1 5 -1 10v10q2 26 11.5 52t27.5 44q2 2 4 6q48 108 114 206.5t144.5 189t166.5 173.5t181.5 160t189 148.5t188.5 139.5q-169 13 -337.5 33t-335 50.5t-330.5 73.5t-324 103q103 -100 202 -201t198 -206q6 -6 5.5 -14t-4 -16.5t-9 -15.5t-9.5 -12q-8 -9 -21 -19t-26 -10
q-6 0 -8 2q-151 165 -309 319t-320 306q-6 6 -5.5 14t4.5 16.5t9.5 16t8.5 11.5q7 9 19 19t26 10q5 2 10 -2q190 -99 398 -167.5t424 -114.5t434 -72t429 -39q12 -1 10.5 -13t-3.5 -19q-11 -29 -38 -48q-71 -52 -141 -104t-141 -105q-32 -24 -63.5 -48t-62.5 -49
q-8 -7 -16 -13t-16 -13q-3 -2 -6 -5.5t-7 -5.5q-2 -2 -4.5 -3.5t-4.5 -3.5q-4 -3 -3 -3q-45 -36 -88.5 -74.5t-85.5 -78.5q-14 -14 -28.5 -27t-27.5 -27q-7 -8 -13.5 -14.5l-14.5 -14.5l-3.5 -3.5l-3.5 -3.5l-2 -2q0 -1 -2 -3q-3 -1 -13.5 -12.5t-25 -28t-30.5 -36
t-30 -36.5t-24 -30t-12 -17q-52 -69 -92 -140q0 -1 -0.5 -1t-0.5 -1q-2 -4 -3 -5q75 53 163 81t179 34q24 2 47.5 3t47.5 1q133 -1 272 -20.5t276.5 -52t271 -75.5t256.5 -91q-65 62 -132 119.5t-139 111.5q-12 9 -35.5 26t-52.5 37t-60.5 41t-60.5 39t-53.5 31t-38.5 16
q-3 1 -5.5 2t-4.5 2q-3 0 -6 3l-18 6q-8 3 -9.5 9t0 13.5t5 14.5t6.5 12q11 19 29 32q3 2 10.5 6.5t14.5 4.5q1 -1 3 -1q69 -26 142 -69t144.5 -94t137 -105.5t119.5 -102.5q69 -61 135 -125t124 -136zM645 1295q-36 11 -81 27.5t-87.5 40t-76 53.5t-45.5 67q-2 7 0 14.5
t5 13.5q3 8 10 17t15.5 17.5t18 14t18.5 5.5q8 0 12 -9q8 -21 23 -39t34 -33t40 -27t40 -22q-8 17 -16 33.5t-16 33.5q-3 6 -0.5 14.5t5.5 14.5q3 7 10 16t15.5 17.5t17.5 14t17 5.5q7 0 13 -9q7 -10 13 -25q21 -44 41.5 -86.5t42.5 -86.5q3 -6 0 -15t-5 -14
q-3 -7 -10 -16.5t-15.5 -17.5t-17.5 -13.5t-17 -5.5h-4z" />
    <glyph glyph-name="agrave" unicode="&#xe0;" horiz-adv-x="255" 
d="M-111 439q-4 6 -0.5 15t5.5 14q7 17 21 30l1 1q8 8 20 18.5t24 10.5q4 0 10 -2q8 -4 15.5 -9.5t14.5 -10.5q12 -9 23 -18.5t22 -19.5q75 -66 144 -138.5t135 -148.5q6 -1 8 -10q35 -41 68.5 -83.5t62.5 -87.5q4 -6 0.5 -15t-5.5 -14q-3 -6 -9.5 -15t-14 -17.5t-16 -14.5
t-16.5 -6q-2 0 -2.5 -0.5t-2.5 -0.5q-8 1 -13 9l-2 3q-29 44 -61 83.5t-66 79.5q-20 2 -40.5 3.5t-40.5 1.5q11 -26 22.5 -53t22.5 -53q3 -8 0 -15.5t-6 -13.5q-3 -8 -9.5 -17t-15 -17.5t-18 -14t-18.5 -5.5t-12 9q-11 29 -23 59t-26 59q-7 14 -13.5 29t-13.5 30q-5 2 -8 7
q-2 3 -1.5 6t0.5 6q-38 84 -79.5 165t-86.5 161zM-183 724q-5 5 -5 12t2 12q2 9 9 20t16.5 21t20 16.5t19.5 6.5q4 0 9 -3q5 -4 10 -7t10 -7l140 -105q5 -4 5 -11t-2 -12q-5 -20 -19.5 -34.5t-30.5 -25.5q-7 -5 -15 -5q-2 1 -4.5 1t-4.5 2q-5 4 -10 7.5t-10 7.5
q-36 26 -70.5 52t-69.5 52zM171 187l-72 75l36 -78z" />
    <glyph glyph-name="aacute" unicode="&#xe1;" horiz-adv-x="255" 
d="M-111 439q-4 6 -0.5 15t5.5 14q7 17 21 30l1 1q8 8 20 18.5t24 10.5q4 0 10 -2q8 -4 15.5 -9.5t14.5 -10.5q12 -9 23 -18.5t22 -19.5q75 -66 144 -138.5t135 -148.5q6 -1 8 -10q35 -41 68.5 -83.5t62.5 -87.5q4 -6 0.5 -15t-5.5 -14q-3 -6 -9.5 -15t-14 -17.5t-16 -14.5
t-16.5 -6q-2 0 -2.5 -0.5t-2.5 -0.5q-8 1 -13 9l-2 3q-29 44 -61 83.5t-66 79.5q-20 2 -40.5 3.5t-40.5 1.5q11 -26 22.5 -53t22.5 -53q3 -8 0 -15.5t-6 -13.5q-3 -8 -9.5 -17t-15 -17.5t-18 -14t-18.5 -5.5t-12 9q-11 29 -23 59t-26 59q-7 14 -13.5 29t-13.5 30q-5 2 -8 7
q-2 3 -1.5 6t0.5 6q-38 84 -79.5 165t-86.5 161zM-169 635q-3 4 -7 10t-1 12l82 155q3 5 6 10.5t6 11.5q3 5 9.5 7t12.5 2q17 0 38.5 -10t32.5 -23q4 -5 7.5 -11t0.5 -11q-22 -38 -41.5 -77.5t-40.5 -77.5l-12 -22q-3 -6 -9.5 -7.5t-12.5 -1.5q-17 0 -38.5 9.5t-32.5 23.5z
M171 187l-72 75l36 -78z" />
    <glyph glyph-name="acircumflex" unicode="&#xe2;" horiz-adv-x="255" 
d="M-111 439q-4 6 -0.5 15t5.5 14q7 17 21 30l1 1q8 8 20 18.5t24 10.5q4 0 10 -2q8 -4 15.5 -9.5t14.5 -10.5q12 -9 23 -18.5t22 -19.5q75 -66 144 -138.5t135 -148.5q6 -1 8 -10q35 -41 68.5 -83.5t62.5 -87.5q4 -6 0.5 -15t-5.5 -14q-3 -6 -9.5 -15t-14 -17.5t-16 -14.5
t-16.5 -6q-2 0 -2.5 -0.5t-2.5 -0.5q-8 1 -13 9l-2 3q-29 44 -61 83.5t-66 79.5q-20 2 -40.5 3.5t-40.5 1.5q11 -26 22.5 -53t22.5 -53q3 -8 0 -15.5t-6 -13.5q-3 -8 -9.5 -17t-15 -17.5t-18 -14t-18.5 -5.5t-12 9q-11 29 -23 59t-26 59q-7 14 -13.5 29t-13.5 30q-5 2 -8 7
q-2 3 -1.5 6t0.5 6q-38 84 -79.5 165t-86.5 161zM-260 810q-2 5 0.5 14.5t4.5 14.5q3 8 10 17t16 17t18.5 13.5t17.5 5.5q9 0 33.5 -9t53 -21t54 -24t35.5 -17q36 -20 69 -48.5t47 -68.5q2 -7 0 -15t-5 -14q-3 -7 -10 -16t-15.5 -17.5t-18 -14.5t-17.5 -6q-11 2 -13 9
q-7 21 -22 39t-34.5 33t-41 27.5t-39.5 21.5l32 -66q3 -7 0 -15.5t-5 -13.5q-3 -7 -9.5 -16.5t-14.5 -17.5t-17.5 -13.5t-18.5 -5.5t-13 8q-25 50 -49 99t-48 100zM99 262l36 -78l36 3z" />
    </font>
</defs>
</svg>
